<?xml version="1.0" encoding="utf-8"?>
<!-- Generator: Adobe Illustrator 22.0.1, SVG Export Plug-In . SVG Version: 6.00 Build 0)  -->
<svg version="1.1" id="圖層_1" xmlns="http://www.w3.org/2000/svg" xmlns:xlink="http://www.w3.org/1999/xlink" x="0px" y="0px"
	 viewBox="0 0 2337.1 496.6" style="enable-background:new 0 0 2337.1 496.6;" xml:space="preserve">
<g>
	<path d="M1975,8.8c26.6,0,51.2,0,76.9,0c3.5,16.6,1.2,32.6,0.5,48.3c-2.2,49-0.6,98-1.2,147c-0.2,14.5-0.2,29-3.7,43.1
		c-19.3,77-83.3,106.7-146.3,101.5c-74-6.1-122.8-55.7-125.4-130.7c-2.4-68.9-0.5-138-0.5-208.6c25.4,0,50.5,0,76.5,0
		c0,23.5,0,46.5,0,69.6c0,42.6,0.1,85.2-0.2,127.8c-0.1,13.9,2.1,27.2,7.7,39.8c10.1,22.6,27.6,35.3,52.5,35.8
		c25.8,0.6,44.6-11.5,55.5-34.9c6.5-14,9.1-29,8.9-44.4c-0.8-61.8,2-123.7-2.3-185.5C1973.7,15.3,1974.4,13,1975,8.8z"/>
	<path d="M890.1,330.5c-61,21.4-119.7,26.7-178,1.2c-72.2-31.6-109.8-102.2-99.5-184.9c9-72.1,67.9-131.3,142.2-143.6
		c41.9-6.9,82.7-2.7,123.2,10.4c0,27.2,0,53.3,0,80.1c-64.7-37.6-121.2-36.3-160.2,2.8c-32.7,32.8-39.9,89.9-16.7,131.7
		c23.1,41.4,68.7,62,115.4,50.7c3-15.1,1-31,1.4-46.8c0.3-15.2,0.1-30.3,0.1-48.9c22.9-1,47.1-1,72.1,0.3
		C890.1,233,890.1,280.8,890.1,330.5z"/>
	<path d="M2220.3,136.5c34.3,2.3,68.5-1.7,103.9-1.2c0,21.9,0,42.5,0,65.2c-34,0-68.8,0-104.6,0c0,26.6,0,51.1,0,77.6
		c38.2,0,76.3,0,115.2,0c4,23.2,1.7,44.4,1.5,65.9c-65.8,0-129.6,0-194.5,0c0-112.2,0-222.6,0-335.2c62.9-3.1,125.8,1.9,189.8-3.6
		c0,22.7,0,43.2,0,65.4c-36.5,0-73,0-111.4,0C2220.3,92.8,2220.3,113.8,2220.3,136.5z"/>
	<path d="M1693.5,9.5c0,27.1,0,52.3,0,83.7c-19.2-26.3-41.6-33.9-67.6-32.9c-13.8,0.5-24.9,4.7-30.7,18.7
		c-5.7,13.7-1.3,25.1,7.4,35.6c7.3,8.7,16.6,15,25.7,21.7c13.6,10,27.6,19.5,40.1,30.6c35,31,44.4,70.3,30.5,113.6
		c-14.5,44.9-50.5,64.6-94.9,69.9c-33.9,4-67-2.7-102.2-11.2c-1.2-27.3-0.8-54.7,0.1-87.6c23.8,23.5,47.3,35.6,75.2,38.1
		c6.5,0.6,12.7,1,19.1-0.2c24.9-4.8,36.3-29.3,23.5-51.4c-6.2-10.6-15.7-18.1-25.5-25.2c-13-9.4-26.4-18.3-38.8-28.5
		c-23.3-19-38.4-43-40.7-73.6c-4.4-56.3,28.3-97.7,84.1-107.7c15.9-2.9,31.8-4.2,47.9-1.5C1661.5,4,1676.5,6.6,1693.5,9.5z"/>
	<path d="M1239.9,339.6c0-29.2,0-56,0-86.4c23.9,24,50.4,35.8,81.1,37.3c15.2,0.7,29.6-3.2,36.4-18.3c6.7-15,4.6-30.2-7.3-42.3
		c-7.3-7.4-15.7-13.7-23.9-20.1c-13.3-10.4-27.4-19.7-40.1-30.7c-18.7-16.3-30.1-36.6-33.8-61.8c-8.2-56.1,23.3-102,78.6-113.8
		c24.1-5.1,47.9-3.6,71.7,0.8c8.6,1.6,17.2,3.6,25.8,5.3c4.3,17.8,4.7,54.7,0.3,79.3c-16.9-18.7-36.7-29.2-61.3-28.9
		c-19.2,0.3-31.4,5.9-35.6,18.8c-5,15.2-0.9,28.4,10.7,39.4c14,13.3,30.7,23.1,46.1,34.7c21.5,16.2,40.1,34.8,48.2,61.4
		c20.5,66.6-24.5,130.2-96.2,136.2C1306.7,353.4,1273.8,347.6,1239.9,339.6z"/>
	<path d="M1163.4,8.7c-1.6,111.6-1.7,222,0,334.1c-26.4,0-51.4,0-77.5,0c0-111.5,0-221.9,0-333.9C1111.5,6.9,1136.6,7.5,1163.4,8.7z
		"/>
	<path d="M531.6,341.2c-26.3,0-50.9,0-76.9,0c0-110.6,0-220.8,0-332.5c25.2,0,50.3,0,76.6,0C530.3,119.2,529.8,228.9,531.6,341.2z"
		/>
	<path d="M342.8,164.4c-4.9-3.8-11.7-5.2-15-12.3c13.6-12.4,25.6-25.8,29.3-45c9.6-49.5-20.1-90.6-74.8-97.7
		c-43.6-5.7-87.7-1.7-132.6-2c0,112,0,221.7,0,334.9c44.7-0.4,87.9,2,131-1.9c23.5-2.1,45-11,63.7-26.1
		C393.5,274.6,392.6,202.7,342.8,164.4z M226.1,65.3c41.9-1.5,59.8,9.9,58.9,35.6c-0.8,24.6-17.5,34.3-57.2,32.2
		C224.5,110.4,227.1,87.8,226.1,65.3z M267.3,278.9c-5.4,1.3-11,2.5-16.5,2.9c-7.1,0.5-14.2,0.1-23.7,0.1c0-31.4,0-60,0-90.4
		c12.5,0,24.4-1.1,36,0.2c24,2.9,40,20.6,40.5,43.2C304.1,257.5,291.4,273,267.3,278.9z"/>
</g>
<g>
	<path d="M2092.5,431.7h-17.3v46.2h-7v-46.2H2051v-6.2h41.5V431.7z"/>
	<path d="M2142.9,477.8h-7.8l-6.1-15.9h-21.9l-5.8,15.9h-7.3l20.1-52.4h7.5L2142.9,477.8z M2127,456.4l-9.2-24.3l-8.8,24.3H2127z"/>
	<path d="M2156.6,477.8h-7v-52.4h7V477.8z"/>
	<path d="M2231.6,425.5l-14.5,52.4h-6.6l-12.6-45.5l-12.6,45.5h-6.6l-14.5-52.4h7.3l10.5,42.7l11.8-42.7h8.3l11.8,42.7l10.5-42.7
		H2231.6z"/>
	<path d="M2281.1,477.8h-7.8l-6.1-15.9h-21.9l-5.8,15.9h-7.3l20.1-52.4h7.5L2281.1,477.8z M2265.2,456.4l-9.2-24.3l-8.8,24.3H2265.2
		z"/>
	<path d="M2328,477.8h-7.1l-27.4-41.3v41.3h-6.6v-52.4h7.1l27.4,41.3v-41.3h6.6V477.8z"/>
</g>
<g>
	<path d="M2092.5,425.3H2051c-0.1,0-0.2,0.1-0.2,0.2v6.2c0,0.1,0.1,0.2,0.2,0.2h17v46c0,0.1,0.1,0.2,0.2,0.2h7
		c0.1,0,0.2-0.1,0.2-0.2v-46h17.1c0.1,0,0.2-0.1,0.2-0.2v-6.2C2092.7,425.3,2092.6,425.3,2092.5,425.3z M2092.3,431.5h-17.1
		c-0.1,0-0.2,0.1-0.2,0.2v46h-6.6v-46c0-0.1-0.1-0.2-0.2-0.2h-17v-5.8h41.1V431.5z"/>
	<path d="M2117.8,431.9C2117.8,431.9,2117.8,431.9,2117.8,431.9c-0.1,0-0.2,0.1-0.2,0.1l-8.8,24.3c0,0.1,0,0.1,0,0.2
		c0,0.1,0.1,0.1,0.2,0.1h18c0.1,0,0.1,0,0.2-0.1c0-0.1,0-0.1,0-0.2L2118,432C2118,432,2117.9,431.9,2117.8,431.9z M2109.3,456.2
		l8.5-23.5l8.9,23.5H2109.3z"/>
	<path d="M2121.6,425.3h-7.5c-0.1,0-0.2,0.1-0.2,0.1l-20.1,52.4c0,0.1,0,0.1,0,0.2s0.1,0.1,0.2,0.1h7.3c0.1,0,0.2-0.1,0.2-0.1
		l5.7-15.8h21.7l6,15.8c0,0.1,0.1,0.1,0.2,0.1h7.8c0.1,0,0.1,0,0.2-0.1c0-0.1,0-0.1,0-0.2l-21.4-52.4
		C2121.7,425.3,2121.7,425.3,2121.6,425.3z M2135.3,477.6l-6-15.8c0-0.1-0.1-0.1-0.2-0.1h-21.9c-0.1,0-0.2,0.1-0.2,0.1l-5.7,15.8
		h-6.9l20-52h7.2l21.2,52H2135.3z"/>
	<path d="M2156.6,425.3h-7c-0.1,0-0.2,0.1-0.2,0.2v52.4c0,0.1,0.1,0.2,0.2,0.2h7c0.1,0,0.2-0.1,0.2-0.2v-52.4
		C2156.8,425.3,2156.7,425.3,2156.6,425.3z M2156.4,477.6h-6.6v-52h6.6V477.6z"/>
	<path d="M2231.6,425.3h-7.3c-0.1,0-0.2,0.1-0.2,0.2l-10.3,41.9l-11.6-41.9c0-0.1-0.1-0.1-0.2-0.1h-8.3c-0.1,0-0.2,0.1-0.2,0.1
		l-11.6,41.9l-10.3-41.9c0-0.1-0.1-0.2-0.2-0.2h-7.3c-0.1,0-0.1,0-0.2,0.1s0,0.1,0,0.2l14.5,52.4c0,0.1,0.1,0.1,0.2,0.1h6.6
		c0.1,0,0.2-0.1,0.2-0.1l12.4-44.8l12.4,44.8c0,0.1,0.1,0.1,0.2,0.1h6.6c0.1,0,0.2-0.1,0.2-0.1l14.5-52.4c0-0.1,0-0.1,0-0.2
		S2231.6,425.3,2231.6,425.3z M2216.9,477.6h-6.3l-12.5-45.4c0-0.1-0.1-0.1-0.2-0.1s-0.2,0.1-0.2,0.1l-12.6,45.4h-6.3l-14.4-52h6.9
		l10.4,42.5c0,0.1,0.1,0.2,0.2,0.2c0,0,0,0,0,0c0.1,0,0.2-0.1,0.2-0.1l11.8-42.5h8l11.8,42.5c0,0.1,0.1,0.1,0.2,0.1c0,0,0,0,0,0
		c0.1,0,0.2-0.1,0.2-0.2l10.4-42.5h6.9L2216.9,477.6z"/>
	<path d="M2259.8,425.3h-7.5c-0.1,0-0.2,0.1-0.2,0.1l-20.1,52.4c0,0.1,0,0.1,0,0.2s0.1,0.1,0.2,0.1h7.3c0.1,0,0.2-0.1,0.2-0.1
		l5.7-15.8h21.7l6,15.8c0,0.1,0.1,0.1,0.2,0.1h7.8c0.1,0,0.1,0,0.2-0.1c0-0.1,0-0.1,0-0.2l-21.4-52.4
		C2259.9,425.3,2259.9,425.3,2259.8,425.3z M2273.5,477.6l-6-15.8c0-0.1-0.1-0.1-0.2-0.1h-21.9c-0.1,0-0.2,0.1-0.2,0.1l-5.7,15.8
		h-6.9l20-52h7.2l21.2,52H2273.5z"/>
	<path d="M2256,431.9C2256,431.9,2256,431.9,2256,431.9c-0.1,0-0.2,0.1-0.2,0.1l-8.8,24.3c0,0.1,0,0.1,0,0.2c0,0.1,0.1,0.1,0.2,0.1
		h18c0.1,0,0.1,0,0.2-0.1c0-0.1,0-0.1,0-0.2l-9.2-24.3C2256.1,432,2256.1,431.9,2256,431.9z M2247.5,456.2l8.5-23.5l8.9,23.5H2247.5
		z"/>
	<path d="M2328.1,425.3h-6.6c-0.1,0-0.2,0.1-0.2,0.2v40.7l-27.1-40.8c0-0.1-0.1-0.1-0.2-0.1h-7.1c-0.1,0-0.2,0.1-0.2,0.2v52.4
		c0,0.1,0.1,0.2,0.2,0.2h6.6c0.1,0,0.2-0.1,0.2-0.2v-40.7l27.1,40.8c0,0.1,0.1,0.1,0.2,0.1h7.1c0.1,0,0.2-0.1,0.2-0.2v-52.4
		C2328.3,425.3,2328.2,425.3,2328.1,425.3z M2327.9,477.6h-6.8l-27.4-41.2c0-0.1-0.1-0.1-0.2-0.1c-0.1,0-0.1,0.1-0.1,0.2v41.1h-6.2
		v-52h6.8l27.4,41.2c0,0.1,0.1,0.1,0.2,0.1c0.1,0,0.1-0.1,0.1-0.2v-41.1h6.2V477.6z"/>
</g>
<g>
	<path d="M16.6,116.2v17.3h46.2v7H16.6v17.2h-6.2v-41.5H16.6z"/>
	<path d="M62.8,67.6v7H38.1v27.2h24.7v6.9H10.4v-6.9h21.5V74.5H10.4v-7H62.8z"/>
	<path d="M62.8,16.8v39H10.4V18h6.2v30.9h16V20h6.2v28.9h17.7V16.8H62.8z"/>
</g>
<g>
	<path d="M62.8,133.3h-46v-17.1c0-0.1-0.1-0.2-0.2-0.2h-6.2c-0.1,0-0.2,0.1-0.2,0.2v41.5c0,0.1,0.1,0.2,0.2,0.2h6.2
		c0.1,0,0.2-0.1,0.2-0.2v-17h46c0.1,0,0.2-0.1,0.2-0.2v-7C63,133.4,62.9,133.3,62.8,133.3z M62.6,140.3h-46c-0.1,0-0.2,0.1-0.2,0.2
		v17h-5.8v-41.1h5.8v17.1c0,0.1,0.1,0.2,0.2,0.2h46V140.3z"/>
	<path d="M62.8,67.4H10.4c-0.1,0-0.2,0.1-0.2,0.2v7c0,0.1,0.1,0.2,0.2,0.2h21.3v26.8H10.4c-0.1,0-0.2,0.1-0.2,0.2v6.9
		c0,0.1,0.1,0.2,0.2,0.2h52.4c0.1,0,0.2-0.1,0.2-0.2v-6.9c0-0.1-0.1-0.2-0.2-0.2H38.3V74.7h24.5c0.1,0,0.2-0.1,0.2-0.2v-7
		C63,67.5,62.9,67.4,62.8,67.4z M62.6,74.3H38.1c-0.1,0-0.2,0.1-0.2,0.2v27.2c0,0.1,0.1,0.2,0.2,0.2h24.5v6.5h-52V102h21.3
		c0.1,0,0.2-0.1,0.2-0.2V74.5c0-0.1-0.1-0.2-0.2-0.2H10.6v-6.6h52V74.3z"/>
	<path d="M62.8,16.6h-6.2c-0.1,0-0.2,0.1-0.2,0.2v31.9H39V20c0-0.1-0.1-0.2-0.2-0.2h-6.2c-0.1,0-0.2,0.1-0.2,0.2v28.7H16.8V18
		c0-0.1-0.1-0.2-0.2-0.2h-6.2c-0.1,0-0.2,0.1-0.2,0.2v37.8c0,0.1,0.1,0.2,0.2,0.2h52.4c0.1,0,0.2-0.1,0.2-0.2v-39
		C63,16.7,62.9,16.6,62.8,16.6z M62.6,55.7h-52V18.2h5.8v30.7c0,0.1,0.1,0.2,0.2,0.2h16c0.1,0,0.2-0.1,0.2-0.2V20.2h5.8v28.7
		c0,0.1,0.1,0.2,0.2,0.2h17.7c0.1,0,0.2-0.1,0.2-0.2V17h5.8V55.7z"/>
</g>
</svg>
