<?xml version="1.0" encoding="utf-8"?>
<!-- Generator: Adobe Illustrator 24.1.1, SVG Export Plug-In . SVG Version: 6.00 Build 0)  -->
<svg version="1.1" id="圖層_1" xmlns="http://www.w3.org/2000/svg" xmlns:xlink="http://www.w3.org/1999/xlink" x="0px" y="0px"
	 viewBox="0 0 100 72.61" style="enable-background:new 0 0 100 72.61;" xml:space="preserve">
<style type="text/css">
	.st0{fill:#EFECEA;}
	.st1{fill:#FF8728;}
</style>
<g>
	<path class="st0" d="M5.3,67.29C1.77,63.74,0,58.79,0,52.44V20.17C0,13.79,1.77,8.83,5.32,5.3C8.87,1.77,14.01,0,20.75,0
		c6.77,0,11.92,1.76,15.45,5.27c3.53,3.52,5.3,8.48,5.3,14.89v32.28c0,6.38-1.77,11.34-5.32,14.87c-3.55,3.53-8.69,5.3-15.43,5.3
		C13.98,72.61,8.83,70.83,5.3,67.29z M27.64,58.67c1.46-1.84,2.2-4.48,2.2-7.93V21.88c0-3.45-0.73-6.1-2.2-7.93
		c-1.46-1.84-3.76-2.76-6.88-2.76s-5.42,0.92-6.88,2.76c-1.46,1.84-2.2,4.48-2.2,7.93v28.86c0,3.45,0.73,6.1,2.2,7.93
		c1.46,1.84,3.76,2.76,6.88,2.76S26.17,60.51,27.64,58.67z"/>
	<path class="st1" d="M68.41,70.36c-3.19-1.5-5.74-3.69-7.64-6.57s-3.04-6.32-3.39-10.33h11.96c0.26,1.76,0.8,3.21,1.61,4.37
		c0.81,1.16,1.87,2.03,3.17,2.61c1.3,0.59,2.82,0.88,4.54,0.88c2.93,0,5.19-0.79,6.79-2.37c1.59-1.58,2.39-3.82,2.39-6.71v-1.9
		c0-3.13-0.71-5.54-2.12-7.25s-3.44-2.56-6.08-2.56h-5.52V29.39h5.52c2.25,0,3.98-0.74,5.2-2.22c1.22-1.48,1.83-3.56,1.83-6.23
		v-1.71c0-2.51-0.66-4.44-1.98-5.79c-1.32-1.35-3.18-2.03-5.59-2.03c-1.46,0-2.78,0.31-3.93,0.93c-1.16,0.62-2.14,1.55-2.95,2.81
		c-0.81,1.25-1.4,2.79-1.76,4.61H58.54c0.52-4.1,1.72-7.63,3.59-10.6c1.87-2.96,4.28-5.21,7.23-6.74c2.95-1.53,6.27-2.29,9.99-2.29
		c6.18,0,10.98,1.61,14.38,4.83c3.4,3.22,5.1,7.76,5.1,13.62v1.66c0,3.42-0.9,6.4-2.69,8.94c-1.79,2.54-4.33,4.41-7.62,5.62
		c3.65,0.81,6.47,2.66,8.47,5.54s3,6.55,3,11.01v1.66c0,4.13-0.81,7.67-2.42,10.6s-3.96,5.16-7.06,6.69
		c-3.09,1.53-6.8,2.29-11.13,2.29C75.26,72.61,71.6,71.86,68.41,70.36z"/>
</g>
</svg>
