<?xml version="1.0" encoding="utf-8"?>
<!-- Generator: Adobe Illustrator 24.1.1, SVG Export Plug-In . SVG Version: 6.00 Build 0)  -->
<svg version="1.1" id="圖層_1" xmlns="http://www.w3.org/2000/svg" xmlns:xlink="http://www.w3.org/1999/xlink" x="0px" y="0px"
	 viewBox="0 0 100 72.61" style="enable-background:new 0 0 100 72.61;" xml:space="preserve">
<style type="text/css">
	.st0{fill:#EFECEA;}
	.st1{fill:#FF8728;}
</style>
<g>
	<path class="st0" d="M5.3,67.29C1.77,63.74,0,58.79,0,52.44V20.17C0,13.79,1.77,8.83,5.32,5.3C8.87,1.77,14.01,0,20.75,0
		c6.77,0,11.92,1.76,15.45,5.27c3.53,3.52,5.3,8.48,5.3,14.89v32.28c0,6.38-1.77,11.34-5.32,14.87c-3.55,3.53-8.69,5.3-15.43,5.3
		C13.98,72.61,8.83,70.83,5.3,67.29z M27.64,58.67c1.46-1.84,2.2-4.48,2.2-7.93V21.87c0-3.45-0.73-6.1-2.2-7.93
		s-3.76-2.76-6.88-2.76s-5.42,0.92-6.88,2.76s-2.2,4.48-2.2,7.93v28.86c0,3.45,0.73,6.1,2.2,7.93c1.46,1.84,3.76,2.76,6.88,2.76
		S26.17,60.51,27.64,58.67z"/>
	<path class="st1" d="M89.21,71.87H77.54V14.16l-9.38,4.74V6.64l10.35-5.76h10.69V71.87z"/>
</g>
</svg>
