<?xml version="1.0" encoding="utf-8"?>
<!-- Generator: Adobe Illustrator 24.1.1, SVG Export Plug-In . SVG Version: 6.00 Build 0)  -->
<svg version="1.1" id="圖層_1" xmlns="http://www.w3.org/2000/svg" xmlns:xlink="http://www.w3.org/1999/xlink" x="0px" y="0px"
	 viewBox="0 0 100 72.61" style="enable-background:new 0 0 100 72.61;" xml:space="preserve">
<style type="text/css">
	.st0{fill:#EFECEA;}
	.st1{fill:#FF8728;}
</style>
<g>
	<path class="st1" d="M5.3,67.29C1.77,63.74,0,58.79,0,52.44V20.17C0,13.79,1.77,8.83,5.32,5.3C8.87,1.77,14.01,0,20.75,0
		c6.77,0,11.92,1.76,15.45,5.27c3.53,3.52,5.3,8.48,5.3,14.89v32.28c0,6.38-1.77,11.34-5.32,14.87c-3.55,3.53-8.69,5.3-15.43,5.3
		C13.98,72.61,8.83,70.83,5.3,67.29z M27.64,58.67c1.46-1.84,2.2-4.48,2.2-7.93V21.88c0-3.45-0.73-6.1-2.2-7.93
		s-3.76-2.76-6.88-2.76s-5.42,0.92-6.88,2.76s-2.2,4.48-2.2,7.93v28.86c0,3.45,0.73,6.1,2.2,7.93c1.46,1.84,3.76,2.76,6.88,2.76
		S26.17,60.51,27.64,58.67z"/>
	<path class="st0" d="M58.98,61.52L83.54,29c1.27-1.66,2.25-3.38,2.95-5.15c0.7-1.77,1.05-3.43,1.05-4.96v-0.1
		c0-2.38-0.72-4.22-2.17-5.52c-1.45-1.3-3.51-1.95-6.18-1.95c-2.57,0-4.65,0.79-6.23,2.37c-1.58,1.58-2.53,3.82-2.86,6.71v0.05
		H58.11v-0.05c0.46-4.26,1.59-7.91,3.42-10.94c1.82-3.03,4.23-5.34,7.23-6.93c2.99-1.59,6.45-2.39,10.35-2.39
		c4.33,0,8.02,0.72,11.08,2.17c3.06,1.45,5.4,3.56,7.01,6.32s2.42,6.1,2.42,10.01v0.05c0,2.86-0.55,5.77-1.64,8.72
		c-1.09,2.95-2.6,5.71-4.52,8.28l-19.04,25H100v11.18H58.98V61.52z"/>
</g>
</svg>
