<?xml version="1.0" encoding="utf-8"?>
<!-- Generator: Adobe Illustrator 22.0.1, SVG Export Plug-In . SVG Version: 6.00 Build 0)  -->
<svg version="1.1" id="圖層_1" xmlns="http://www.w3.org/2000/svg" xmlns:xlink="http://www.w3.org/1999/xlink" x="0px" y="0px"
	 viewBox="0 0 169 954" style="enable-background:new 0 0 169 954;" xml:space="preserve">
<style type="text/css">
	.st0{fill:#EFECEA;}
</style>
<path class="st0" d="M28.5,26.6c-12-5-19.9-9.6-23.8-13.8C2.8,10.8,1.2,6.6,0,0v50C0.6,42.9,1.8,38.2,3.6,36
	c1.9-2.4,4.1-3.6,6.6-3.6c3.2,0,8,1.4,14.4,4.1l26.1,11.2v64.1l-23.8,10c-7.7,3.3-13.4,4.9-17,4.9c-2.7,0-5-1.2-6.8-3.5
	c-1.7-2.1-2.8-6-3.2-11.6v62.1c0.6-6.1,2.4-10.9,5.4-14.4c3.3-3.8,10.5-8,21.5-12.6l137.7-57.6v-4.3L28.5,26.6z M59.8,108.4V51.5
	l66.9,28.8L59.8,108.4z"/>
<path class="st0" d="M169,210.9l-13.7-33.6l-4.3,1.7c1.3,3.4,2,6.3,2,8.5c0,2-0.5,3.6-1.6,4.9s-3.1,2.3-6,2.9
	c-2.9,0.6-10.7,0.9-23.4,0.9H6.1c-2.3,3.5-4.4,6.9-6.1,10.3v58.1c2.1,3.4,4.6,6.7,7.6,9.9c12.1,13.2,28.1,19.8,48,19.8
	c17,0,30.4-4.3,40.2-12.8c9.8-8.5,14.7-18.6,14.7-30c0-12.5-7.5-24.2-22.6-35H169V210.9z M89.9,228.9c2.2,4.3,3.3,8.6,3.3,12.9
	c0,8.1-3.8,15.4-11.5,21.8c-7.7,6.4-18.7,9.6-33,9.6c-15.5,0-27.4-3.2-35.5-9.6c-8.1-6.4-12.2-13.3-12.2-20.7c0-4.6,1-9.2,3.1-13.6
	c2.1-4.4,5.2-8.7,9.2-12.9h66.9C85,221.5,88.2,225.6,89.9,228.9z"/>
<path class="st0" d="M103.2,339.1c-4.8-8.3-12.3-15-22.5-20.1c-10.1-5.1-20.3-7.6-30.6-7.6c-14.1,0-26.8,4.2-38.1,12.6
	c-4.9,3.7-9,7.8-12.1,12.4v56.3c5.2,8.3,12.9,14.7,23,19.5c10.3,4.8,20.4,7.2,30.4,7.2c14.2,0,26.9-4.3,37.8-13.1
	c12.9-10.3,19.3-23.8,19.3-40.8C110.5,356.2,108.1,347.4,103.2,339.1z M90.8,383.8c-11.4,8.6-27,12.8-46.9,12.8
	c-15.9,0-27.1-2.6-33.6-7.7c-6.5-5.1-9.8-11.6-9.8-19.5c0-10.6,5.9-19.1,17.7-25.6c11.8-6.5,25.8-9.7,42.1-9.7
	c10.1,0,18.4,1.3,24.8,4c6.4,2.7,10.9,6.2,13.5,10.6c2.6,4.3,3.8,8.7,3.8,13C102.5,370.6,98.6,378,90.8,383.8z"/>
<path class="st0" d="M32.4,467.4h74.8v-39.2h-4.5c0.1,5.9-0.4,9.9-1.5,12.1s-2.7,3.9-4.7,5.1c-2,1.1-5.7,1.7-11,1.7H35.5
	c-10.4,0-18.5,0.9-24.2,2.7c-4.4,1.4-8.2,3.6-11.4,6.7v41c3.5,4.4,8.7,9.7,15.6,16.1H0v25l5.8,13.9l4.3-1.7c-1.4-3.2-2.1-6-2.1-8.5
	c0-1.8,0.6-3.4,1.7-4.7c1.1-1.3,3.1-2.3,6-2.9c2.9-0.6,10.8-0.9,23.7-0.9h67.8v-38.1h-4.5c-0.2,7.3-1.4,12.1-3.6,14.5
	c-2.2,2.3-6.5,3.5-12.9,3.5H22.8c-6.2-6.1-10.4-11.4-12.6-15.8C8.1,493.4,7,489.5,7,486c0-5.1,1.6-9.5,4.9-13.1
	C15.1,469.2,21.9,467.4,32.4,467.4z"/>
<path class="st0" d="M127,581.7c-5.9-3.7-10.9-7.8-15.2-12.5c-4.3-4.7-7.3-9.3-9.1-13.7h-4v17.7H23.4c-8,0-14,0.9-17.9,2.6
	c-2.1,0.9-4,2.2-5.6,3.7v31.9c4,5,9.9,8.8,17.6,11.6V618c-3.3-1.4-5.7-3.3-7.4-5.9c-1.7-2.5-2.5-5.1-2.5-7.8c0-3.3,1.3-5.9,3.8-8
	c2.5-2.1,7.4-3.1,14.6-3.1h72.5v26.1h8.5v-26.1h36.7v-3.8C135.7,586.1,130.1,583.5,127,581.7z"/>
<path class="st0" d="M160.9,757.8v-71.5h-4.5v6.2c0,6.3-1.6,10.8-4.8,13.6c-3.2,2.8-9.8,4.2-20,4.2H66.9c-19.9,0-33.5,1.3-40.8,3.9
	c-10.6,3.9-19,10.5-25.3,19.9c-0.3,0.4-0.6,0.9-0.9,1.4v77.1c0.4,0.7,0.8,1.4,1.3,2c6.5,9.6,14.4,16.1,23.6,19.4
	c9.1,3.3,22,4.9,38.6,4.9h67.1c9.2,0,15,0.9,17.6,2.6c5.4,3.5,8.2,8.5,8.2,15v6.2h4.5v-58.6h-4.5v6.2c0,6.3-1.8,11-5.4,14.2
	c-2.6,2.3-9.1,3.4-19.4,3.4h-67c-17.6,0-30-1.6-37.4-4.7c-7.4-3.1-13.4-9-18.1-17.5C4.3,797.2,2,787.5,2,776.7
	c0-8.5,1.5-15.6,4.5-21.4c3-5.8,6.8-10.3,11.5-13.4c4.6-3.1,11.1-5.2,19.4-6.4c8.3-1.2,15.7-1.8,22.1-1.8h72.1c9.3,0,15.4,1,18.3,3
	c4.3,2.9,6.5,7.8,6.5,14.7v6.3H160.9z"/>
<path class="st0" d="M106.7,939c-0.6-0.7-0.9-1.8-0.9-3.1c0-1.4,0.6-4.2,1.8-8.3c1.9-6.3,2.8-11.6,2.8-16c0-10-3.1-18.2-9.3-24.5
	c-6.2-6.3-13.9-9.5-23.1-9.5c-7.1,0-12.9,1.8-17.6,5.5c-4.7,3.7-10,11.4-15.9,23.2C38.8,918.2,34,926,30.2,930
	c-3.8,4-8.6,5.9-14.2,5.9c-4.6,0-8.6-1.8-11.9-5.3c-1.9-2.1-3.3-4.5-4.1-7.4v17.5c0.4,0.6,0.8,1.1,1.3,1.7
	c6.2,7.7,14.4,11.5,24.6,11.5c13.2,0,23.8-8.3,31.9-24.8l8.7-17.8c3.7-7.7,7.3-12.9,10.6-15.4c3.3-2.6,7.2-3.9,11.7-3.9
	c3.7,0,7,1.8,10,5.3c3,3.5,4.5,8.1,4.5,13.8c0,7.5-2.2,13.7-6.5,18.5c-4.3,4.8-12.5,8.8-24.4,11.9v4h38.1v-4
	C108.5,940.5,107.3,939.7,106.7,939z M33.6,882.2v-4H0v31.5c1.2-5.2,3.8-10,7.8-14.4C13.6,888.8,22.2,884.5,33.6,882.2z"/>
</svg>
