<?xml version="1.0" encoding="utf-8"?>
<!-- Generator: Adobe Illustrator 24.1.3, SVG Export Plug-In . SVG Version: 6.00 Build 0)  -->
<svg version="1.1" id="圖層_1" xmlns="http://www.w3.org/2000/svg" xmlns:xlink="http://www.w3.org/1999/xlink" x="0px" y="0px"
	 viewBox="0 0 159.78 35.04" style="enable-background:new 0 0 159.78 35.04;" xml:space="preserve">
<g>
	<g>
		<path d="M134.91,0.61c1.83,0,3.52,0,5.28,0c0.24,1.14,0.08,2.24,0.03,3.32c-0.15,3.36-0.04,6.73-0.08,10.09
			c-0.01,1-0.01,1.99-0.25,2.96c-1.33,5.29-5.72,7.33-10.04,6.97c-5.08-0.42-8.43-3.82-8.61-8.97c-0.16-4.73-0.03-9.47-0.03-14.32
			c1.74,0,3.47,0,5.25,0c0,1.61,0,3.19,0,4.78c0,2.92,0.01,5.85-0.01,8.77c-0.01,0.95,0.14,1.87,0.53,2.73
			c0.69,1.55,1.89,2.42,3.6,2.46c1.77,0.04,3.06-0.79,3.81-2.4c0.45-0.96,0.62-1.99,0.61-3.05c-0.05-4.24,0.14-8.49-0.16-12.74
			C134.82,1.06,134.87,0.9,134.91,0.61z"/>
		<path d="M60.43,22.7c-4.19,1.47-8.22,1.83-12.22,0.08c-4.96-2.17-7.54-7.02-6.83-12.69c0.62-4.95,4.66-9.01,9.76-9.86
			c2.88-0.47,5.68-0.19,8.46,0.71c0,1.87,0,3.66,0,5.5c-4.44-2.58-8.32-2.49-11,0.19c-2.25,2.25-2.74,6.17-1.15,9.04
			c1.59,2.84,4.72,4.26,7.92,3.48c0.21-1.04,0.07-2.13,0.1-3.21c0.02-1.04,0.01-2.08,0.01-3.36c1.57-0.07,3.23-0.07,4.95,0.02
			C60.43,16.01,60.43,19.29,60.43,22.7z"/>
		<path d="M151.75,9.38c2.35,0.16,4.7-0.12,7.13-0.08c0,1.5,0,2.92,0,4.48c-2.33,0-4.72,0-7.18,0c0,1.83,0,3.51,0,5.33
			c2.62,0,5.24,0,7.91,0c0.27,1.59,0.12,3.05,0.1,4.52c-4.52,0-8.9,0-13.35,0c0-7.7,0-15.28,0-23.01c4.32-0.21,8.64,0.13,13.03-0.25
			c0,1.56,0,2.97,0,4.49c-2.51,0-5.01,0-7.65,0C151.75,6.38,151.75,7.82,151.75,9.38z"/>
		<path d="M115.58,0.66c0,1.86,0,3.59,0,5.75c-1.32-1.81-2.86-2.33-4.64-2.26c-0.95,0.03-1.71,0.32-2.11,1.28
			c-0.39,0.94-0.09,1.72,0.51,2.44c0.5,0.6,1.14,1.03,1.76,1.49c0.93,0.69,1.89,1.34,2.75,2.1c2.4,2.13,3.05,4.83,2.09,7.8
			c-1,3.08-3.47,4.44-6.52,4.8c-2.33,0.27-4.6-0.19-7.02-0.77c-0.08-1.87-0.05-3.76,0.01-6.01c1.63,1.61,3.25,2.44,5.16,2.62
			c0.45,0.04,0.87,0.07,1.31-0.01c1.71-0.33,2.49-2.01,1.61-3.53c-0.43-0.73-1.08-1.24-1.75-1.73c-0.89-0.65-1.81-1.26-2.66-1.96
			c-1.6-1.3-2.64-2.95-2.79-5.05c-0.3-3.87,1.94-6.71,5.77-7.39c1.09-0.2,2.18-0.29,3.29-0.1C113.39,0.28,114.42,0.46,115.58,0.66z"
			/>
		<path d="M84.44,23.32c0-2,0-3.84,0-5.93c1.64,1.65,3.46,2.46,5.57,2.56c1.04,0.05,2.03-0.22,2.5-1.26c0.46-1.03,0.32-2.07-0.5-2.9
			c-0.5-0.51-1.08-0.94-1.64-1.38c-0.91-0.71-1.88-1.35-2.75-2.11c-1.28-1.12-2.07-2.51-2.32-4.24c-0.56-3.85,1.6-7,5.4-7.81
			C92.34-0.1,93.98,0,95.61,0.3c0.59,0.11,1.18,0.25,1.77,0.36c0.3,1.22,0.32,3.76,0.02,5.44c-1.16-1.28-2.52-2-4.21-1.98
			c-1.32,0.02-2.16,0.41-2.44,1.29c-0.34,1.04-0.06,1.95,0.73,2.71c0.96,0.91,2.11,1.59,3.17,2.38c1.48,1.11,2.75,2.39,3.31,4.22
			c1.41,4.57-1.68,8.94-6.6,9.35C89.03,24.27,86.77,23.87,84.44,23.32z"/>
		<path d="M79.19,0.61c-0.11,7.66-0.12,15.24,0,22.94c-1.81,0-3.53,0-5.32,0c0-7.66,0-15.23,0-22.92
			C75.63,0.48,77.35,0.52,79.19,0.61z"/>
		<path d="M35.81,23.43c-1.81,0-3.49,0-5.28,0c0-7.59,0-15.16,0-22.83c1.73,0,3.45,0,5.26,0C35.72,8.19,35.69,15.72,35.81,23.43z"/>
		<path d="M22.85,11.3c-0.34-0.26-0.8-0.36-1.03-0.84c0.93-0.85,1.76-1.77,2.01-3.09c0.66-3.4-1.38-6.22-5.14-6.71
			c-2.99-0.39-6.02-0.12-9.1-0.14c0,7.69,0,15.22,0,22.99c3.07-0.03,6.03,0.14,8.99-0.13c1.61-0.14,3.09-0.76,4.37-1.79
			C26.33,18.86,26.27,13.92,22.85,11.3z M14.84,4.49c2.88-0.1,4.11,0.68,4.04,2.44c-0.05,1.69-1.2,2.35-3.93,2.21
			C14.73,7.59,14.91,6.04,14.84,4.49z M17.67,19.16c-0.37,0.09-0.76,0.17-1.13,0.2c-0.49,0.03-0.97,0.01-1.63,0.01
			c0-2.16,0-4.12,0-6.21c0.86,0,1.68-0.08,2.47,0.01c1.65,0.2,2.75,1.41,2.78,2.97C20.19,17.69,19.32,18.75,17.67,19.16z"/>
	</g>
	<g>
		<path d="M142.98,29.65h-1.19v3.17h-0.48v-3.17h-1.18v-0.43h2.85V29.65z"/>
		<path d="M146.44,32.81h-0.54l-0.42-1.09h-1.5l-0.4,1.09h-0.5l1.38-3.6h0.51L146.44,32.81z M145.35,31.34l-0.63-1.67l-0.6,1.67
			H145.35z"/>
		<path d="M147.38,32.81h-0.48v-3.6h0.48V32.81z"/>
		<path d="M152.53,29.22l-1,3.6h-0.45l-0.87-3.12l-0.87,3.12h-0.45l-1-3.6h0.5l0.72,2.93l0.81-2.93h0.57l0.81,2.93l0.72-2.93H152.53
			z"/>
		<path d="M155.93,32.81h-0.54l-0.42-1.09h-1.5l-0.4,1.09h-0.5l1.38-3.6h0.51L155.93,32.81z M154.84,31.34l-0.63-1.67l-0.6,1.67
			H154.84z"/>
		<path d="M159.15,32.81h-0.49l-1.88-2.84v2.84h-0.45v-3.6h0.49l1.88,2.84v-2.84h0.45V32.81z"/>
	</g>
	<g>
		<path d="M142.98,29.21h-2.85c-0.01,0-0.01,0.01-0.01,0.01v0.43c0,0.01,0.01,0.01,0.01,0.01h1.17v3.16c0,0.01,0.01,0.01,0.01,0.01
			h0.48c0.01,0,0.01-0.01,0.01-0.01v-3.16h1.17c0.01,0,0.01-0.01,0.01-0.01v-0.43C142.99,29.21,142.99,29.21,142.98,29.21z
			 M142.96,29.63h-1.17c-0.01,0-0.01,0.01-0.01,0.01v3.16h-0.45v-3.16c0-0.01-0.01-0.01-0.01-0.01h-1.17v-0.4h2.82V29.63z"/>
		<path d="M144.72,29.66L144.72,29.66c-0.01,0-0.01,0.01-0.01,0.01l-0.6,1.67c0,0.01,0,0.01,0,0.01s0.01,0.01,0.01,0.01h1.24
			c0.01,0,0.01,0,0.01-0.01c0-0.01,0-0.01,0-0.01l-0.63-1.67C144.73,29.67,144.72,29.66,144.72,29.66z M144.13,31.33l0.58-1.61
			l0.61,1.61H144.13z"/>
		<path d="M144.98,29.21h-0.51c-0.01,0-0.01,0.01-0.01,0.01l-1.38,3.6c0,0.01,0,0.01,0,0.01s0.01,0.01,0.01,0.01h0.5
			c0.01,0,0.01-0.01,0.01-0.01l0.39-1.08h1.49l0.41,1.08c0,0.01,0.01,0.01,0.01,0.01h0.54c0.01,0,0.01,0,0.01-0.01
			c0-0.01,0-0.01,0-0.01L144.98,29.21C144.98,29.21,144.98,29.21,144.98,29.21z M145.92,32.8l-0.41-1.08c0-0.01-0.01-0.01-0.01-0.01
			h-1.5c-0.01,0-0.01,0.01-0.01,0.01l-0.39,1.08h-0.47l1.37-3.57h0.49l1.46,3.57H145.92z"/>
		<path d="M147.38,29.21h-0.48c-0.01,0-0.01,0.01-0.01,0.01v3.6c0,0.01,0.01,0.01,0.01,0.01h0.48c0.01,0,0.01-0.01,0.01-0.01v-3.6
			C147.39,29.21,147.39,29.21,147.38,29.21z M147.37,32.8h-0.45v-3.57h0.45V32.8z"/>
		<path d="M152.53,29.21h-0.5c-0.01,0-0.01,0.01-0.01,0.01l-0.71,2.88l-0.8-2.88c0-0.01-0.01-0.01-0.01-0.01h-0.57
			c-0.01,0-0.01,0.01-0.01,0.01l-0.8,2.88l-0.71-2.88c0-0.01-0.01-0.01-0.01-0.01h-0.5c-0.01,0-0.01,0-0.01,0.01
			c-0.01,0.01,0,0.01,0,0.01l1,3.6c0,0.01,0.01,0.01,0.01,0.01h0.45c0.01,0,0.01-0.01,0.01-0.01l0.85-3.08l0.85,3.08
			c0,0.01,0.01,0.01,0.01,0.01h0.45c0.01,0,0.01-0.01,0.01-0.01l1-3.6C152.54,29.22,152.54,29.22,152.53,29.21
			C152.54,29.21,152.53,29.21,152.53,29.21z M151.52,32.8h-0.43l-0.86-3.12c0-0.01-0.01-0.01-0.01-0.01c-0.01,0-0.01,0.01-0.01,0.01
			l-0.87,3.12h-0.43l-0.99-3.57h0.47l0.71,2.92c0,0.01,0.01,0.01,0.01,0.01l0,0c0.01,0,0.01-0.01,0.01-0.01l0.81-2.92h0.55
			l0.81,2.92c0,0.01,0.01,0.01,0.01,0.01l0,0c0.01,0,0.01-0.01,0.01-0.01l0.71-2.92h0.47L151.52,32.8z"/>
		<path d="M154.46,29.21h-0.51c-0.01,0-0.01,0.01-0.01,0.01l-1.38,3.6c0,0.01,0,0.01,0,0.01s0.01,0.01,0.01,0.01h0.5
			c0.01,0,0.01-0.01,0.01-0.01l0.39-1.08h1.49l0.41,1.08c0,0.01,0.01,0.01,0.01,0.01h0.54c0.01,0,0.01,0,0.01-0.01
			c0-0.01,0-0.01,0-0.01L154.46,29.21C154.47,29.21,154.47,29.21,154.46,29.21z M155.41,32.8l-0.41-1.08c0-0.01-0.01-0.01-0.01-0.01
			h-1.5c-0.01,0-0.01,0.01-0.01,0.01l-0.39,1.08h-0.47l1.37-3.57h0.49l1.46,3.57H155.41z"/>
		<path d="M154.2,29.66L154.2,29.66c-0.01,0-0.01,0.01-0.01,0.01l-0.6,1.67c0,0.01,0,0.01,0,0.01s0.01,0.01,0.01,0.01h1.24
			c0.01,0,0.01,0,0.01-0.01c0-0.01,0-0.01,0-0.01l-0.63-1.67C154.21,29.67,154.21,29.66,154.2,29.66z M153.62,31.33l0.58-1.61
			l0.61,1.61H153.62z"/>
		<path d="M159.15,29.21h-0.45c-0.01,0-0.01,0.01-0.01,0.01v2.79l-1.86-2.8c0-0.01-0.01-0.01-0.01-0.01h-0.49
			c-0.01,0-0.01,0.01-0.01,0.01v3.6c0,0.01,0.01,0.01,0.01,0.01h0.45c0.01,0,0.01-0.01,0.01-0.01v-2.79l1.86,2.8
			c0,0.01,0.01,0.01,0.01,0.01h0.49c0.01,0,0.01-0.01,0.01-0.01v-3.6C159.17,29.21,159.16,29.21,159.15,29.21z M159.14,32.8h-0.47
			l-1.88-2.83c0-0.01-0.01-0.01-0.01-0.01c-0.01,0-0.01,0.01-0.01,0.01v2.82h-0.43v-3.57h0.47l1.88,2.83c0,0.01,0.01,0.01,0.01,0.01
			c0.01,0,0.01-0.01,0.01-0.01v-2.82h0.43V32.8z"/>
	</g>
	<g>
		<path d="M0.45,7.99v1.19h3.17v0.48H0.45v1.18H0.03V7.99H0.45z"/>
		<path d="M3.63,4.65v0.48h-1.7V7h1.7v0.47h-3.6V7H1.5V5.12H0.03V4.64L3.63,4.65L3.63,4.65z"/>
		<path d="M3.63,1.16v2.68h-3.6v-2.6h0.43v2.12h1.1V1.38h0.43v1.98h1.22v-2.2H3.63z"/>
	</g>
	<g>
		<path d="M3.63,9.16H0.47V7.99c0-0.01-0.01-0.01-0.01-0.01H0.03c-0.01,0-0.01,0.01-0.01,0.01v2.85c0,0.01,0.01,0.01,0.01,0.01h0.43
			c0.01,0,0.01-0.01,0.01-0.01V9.67h3.16c0.01,0,0.01-0.01,0.01-0.01V9.17C3.64,9.17,3.63,9.16,3.63,9.16z M3.61,9.64H0.45
			c-0.01,0-0.01,0.01-0.01,0.01v1.17h-0.4V8h0.4v1.17c0,0.01,0.01,0.01,0.01,0.01h3.16V9.64z"/>
		<path d="M3.63,4.64h-3.6c-0.01,0-0.01,0.01-0.01,0.01v0.48c0,0.01,0.01,0.01,0.01,0.01h1.46v1.84H0.03C0.02,6.98,0.01,6.99,0.01,7
			v0.47c0,0.01,0.01,0.01,0.01,0.01h3.6c0.01,0,0.01-0.01,0.01-0.01V7c0-0.01-0.01-0.01-0.01-0.01H1.94V5.14h1.68
			c0.01,0,0.01-0.01,0.01-0.01V4.64C3.64,4.64,3.63,4.64,3.63,4.64z M3.61,5.11H1.93c-0.01,0-0.01,0.01-0.01,0.01v1.87
			C1.92,7,1.92,7,1.93,7h1.68v0.45H0.04V7.01H1.5C1.51,7.01,1.52,7,1.52,7V5.12c0-0.01-0.01-0.01-0.01-0.01H0.04V4.66h3.57V5.11z"/>
		<path d="M3.63,1.15H3.2c-0.01,0-0.01,0.01-0.01,0.01v2.19H1.99V1.38c0-0.01-0.01-0.01-0.01-0.01H1.55c-0.01,0-0.01,0.01-0.01,0.01
			v1.97H0.47V1.24c0-0.01-0.01-0.01-0.01-0.01H0.03c-0.01,0-0.01,0.01-0.01,0.01v2.6c0,0.01,0.01,0.01,0.01,0.01h3.6
			c0.01,0,0.01-0.01,0.01-0.01V1.16C3.64,1.15,3.63,1.15,3.63,1.15z M3.61,3.83H0.04V1.26h0.4v2.11c0,0.01,0.01,0.01,0.01,0.01h1.1
			c0.01,0,0.01-0.01,0.01-0.01V1.4h0.4v1.97c0,0.01,0.01,0.01,0.01,0.01h1.22c0.01,0,0.01-0.01,0.01-0.01V1.18h0.4L3.61,3.83
			L3.61,3.83z"/>
	</g>
</g>
</svg>
