<?xml version="1.0" encoding="utf-8"?>
<!-- Generator: Adobe Illustrator 23.1.0, SVG Export Plug-In . SVG Version: 6.00 Build 0)  -->
<svg version="1.1" xmlns="http://www.w3.org/2000/svg" xmlns:xlink="http://www.w3.org/1999/xlink" x="0px" y="0px"
	 viewBox="0 0 283.1 496.9" style="enable-background:new 0 0 283.1 496.9;" xml:space="preserve">
<style type="text/css">
	.st0{fill:#FFFFFF;}
	.st1{fill:#D2D2D3;}
	.st2{fill:#969696;}
	.st3{clip-path:url(#SVGID_2_);}
	.st4{clip-path:url(#SVGID_4_);}
	.st5{fill:#EFECEA;}
	.st6{clip-path:url(#SVGID_6_);}
	.st7{clip-path:url(#SVGID_8_);}
	.st8{clip-path:url(#SVGID_10_);}
	.st9{clip-path:url(#SVGID_12_);}
	.st10{clip-path:url(#SVGID_14_);}
	.st11{clip-path:url(#SVGID_16_);}
	.st12{clip-path:url(#SVGID_18_);}
	.st13{clip-path:url(#SVGID_20_);}
	.st14{clip-path:url(#SVGID_22_);}
	.st15{clip-path:url(#SVGID_24_);}
	.st16{clip-path:url(#SVGID_26_);}
	.st17{clip-path:url(#SVGID_28_);}
	.st18{clip-path:url(#SVGID_30_);}
	.st19{clip-path:url(#SVGID_32_);}
	.st20{clip-path:url(#SVGID_34_);}
	.st21{clip-path:url(#SVGID_36_);}
	.st22{clip-path:url(#SVGID_38_);}
	.st23{clip-path:url(#SVGID_40_);}
	.st24{clip-path:url(#SVGID_42_);}
	.st25{clip-path:url(#SVGID_44_);}
	.st26{clip-path:url(#SVGID_46_);}
	.st27{clip-path:url(#SVGID_48_);}
	.st28{clip-path:url(#SVGID_50_);}
	.st29{clip-path:url(#SVGID_52_);}
	.st30{clip-path:url(#SVGID_54_);}
	.st31{clip-path:url(#SVGID_56_);}
	.st32{clip-path:url(#SVGID_58_);}
	.st33{clip-path:url(#SVGID_60_);}
	.st34{clip-path:url(#SVGID_62_);}
	.st35{clip-path:url(#SVGID_64_);}
	.st36{clip-path:url(#SVGID_66_);}
	.st37{clip-path:url(#SVGID_68_);}
	.st38{clip-path:url(#SVGID_70_);}
	.st39{clip-path:url(#SVGID_72_);}
	.st40{clip-path:url(#SVGID_74_);}
	.st41{clip-path:url(#SVGID_76_);}
	.st42{clip-path:url(#SVGID_78_);}
	.st43{clip-path:url(#SVGID_80_);}
	.st44{clip-path:url(#SVGID_82_);}
	.st45{clip-path:url(#SVGID_84_);}
	.st46{clip-path:url(#SVGID_86_);}
	.st47{clip-path:url(#SVGID_88_);}
	.st48{fill:#5A5A5A;}
	.st49{fill:#FF8728;}
	.st50{clip-path:url(#SVGID_90_);}
	.st51{clip-path:url(#SVGID_92_);}
	.st52{clip-path:url(#SVGID_94_);}
	.st53{clip-path:url(#SVGID_96_);}
	.st54{clip-path:url(#SVGID_98_);}
	.st55{clip-path:url(#SVGID_100_);}
	.st56{clip-path:url(#SVGID_102_);}
	.st57{clip-path:url(#SVGID_104_);}
	.st58{clip-path:url(#SVGID_106_);}
	.st59{clip-path:url(#SVGID_108_);}
	.st60{clip-path:url(#SVGID_110_);}
	.st61{clip-path:url(#SVGID_112_);}
	.st62{clip-path:url(#SVGID_114_);}
	.st63{clip-path:url(#SVGID_116_);}
	.st64{clip-path:url(#SVGID_118_);}
	.st65{clip-path:url(#SVGID_120_);}
	.st66{clip-path:url(#SVGID_122_);}
	.st67{clip-path:url(#SVGID_124_);}
	.st68{clip-path:url(#SVGID_126_);}
	.st69{clip-path:url(#SVGID_128_);}
	.st70{clip-path:url(#SVGID_130_);}
	.st71{clip-path:url(#SVGID_132_);}
	.st72{clip-path:url(#SVGID_134_);}
	.st73{clip-path:url(#SVGID_136_);}
	.st74{clip-path:url(#SVGID_138_);}
	.st75{clip-path:url(#SVGID_140_);}
	.st76{clip-path:url(#SVGID_142_);}
	.st77{clip-path:url(#SVGID_144_);}
	.st78{clip-path:url(#SVGID_146_);}
	.st79{clip-path:url(#SVGID_148_);}
	.st80{clip-path:url(#SVGID_150_);}
	.st81{clip-path:url(#SVGID_152_);}
	.st82{clip-path:url(#SVGID_154_);}
	.st83{clip-path:url(#SVGID_156_);}
	.st84{clip-path:url(#SVGID_158_);}
	.st85{clip-path:url(#SVGID_160_);}
	.st86{clip-path:url(#SVGID_162_);}
	.st87{clip-path:url(#SVGID_164_);}
	.st88{clip-path:url(#SVGID_166_);}
	.st89{clip-path:url(#SVGID_168_);}
	.st90{clip-path:url(#SVGID_170_);}
	.st91{clip-path:url(#SVGID_172_);}
	.st92{clip-path:url(#SVGID_174_);}
	.st93{clip-path:url(#SVGID_176_);}
</style>
<g id="圖層_1">
</g>
<g id="圖層_2">
</g>
<g id="圖層_3">
	<g>
		<g>
			
				<image style="overflow:visible;opacity:0.2;" width="1218" height="2097" xlink:href="54DE1449.png"  transform="matrix(0.24 0 0 0.24 -1.0073 1.7372)">
			</image>
			<g>
				<polyline class="st0" points="126.9,5.9 283.1,5.9 283.1,496.9 3.1,496.9 3.1,132.5 				"/>
			</g>
		</g>
		<g>
			<polygon class="st1" points="274.1,237.9 12.1,237.9 12.1,122.4 14.1,122.4 14.1,235.9 272.1,235.9 272.1,16.9 119.7,16.9 
				119.7,14.9 274.1,14.9 			"/>
		</g>
		<rect x="13.1" y="246.9" class="st0" width="260" height="130"/>
		<g>
			<g>
				<g>
					<path class="st2" d="M59.4,295.8h-4.7v-23.1l-3.8,1.9v-4.9l4.1-2.3h4.3V295.8z"/>
					<path class="st2" d="M65.8,291.6l9.8-13c0.5-0.7,0.9-1.4,1.2-2.1c0.3-0.7,0.4-1.4,0.4-2v0c0-1-0.3-1.7-0.9-2.2
						c-0.6-0.5-1.4-0.8-2.5-0.8c-1,0-1.9,0.3-2.5,0.9c-0.6,0.6-1,1.5-1.1,2.7v0h-4.8v0c0.2-1.7,0.6-3.2,1.4-4.4
						c0.7-1.2,1.7-2.1,2.9-2.8c1.2-0.6,2.6-1,4.1-1c1.7,0,3.2,0.3,4.4,0.9c1.2,0.6,2.2,1.4,2.8,2.5s1,2.4,1,4v0
						c0,1.1-0.2,2.3-0.7,3.5c-0.4,1.2-1,2.3-1.8,3.3l-7.6,10h10.2v4.5H65.8V291.6z"/>
					<path class="st2" d="M87.2,291h4.8v6.7l-4.8,4.7V291z"/>
					<path class="st2" d="M98.6,293.9c-1.4-1.4-2.1-3.4-2.1-5.9v-12.9c0-2.6,0.7-4.5,2.1-5.9c1.4-1.4,3.5-2.1,6.2-2.1
						c2.7,0,4.8,0.7,6.2,2.1c1.4,1.4,2.1,3.4,2.1,6V288c0,2.6-0.7,4.5-2.1,5.9c-1.4,1.4-3.5,2.1-6.2,2.1
						C102.1,296.1,100,295.4,98.6,293.9z M107.5,290.5c0.6-0.7,0.9-1.8,0.9-3.2v-11.5c0-1.4-0.3-2.4-0.9-3.2s-1.5-1.1-2.8-1.1
						s-2.2,0.4-2.8,1.1s-0.9,1.8-0.9,3.2v11.5c0,1.4,0.3,2.4,0.9,3.2s1.5,1.1,2.8,1.1S107,291.2,107.5,290.5z"/>
					<path class="st2" d="M120.7,293.9c-1.4-1.4-2.1-3.4-2.1-5.9v-12.9c0-2.6,0.7-4.5,2.1-5.9c1.4-1.4,3.5-2.1,6.2-2.1
						c2.7,0,4.8,0.7,6.2,2.1c1.4,1.4,2.1,3.4,2.1,6V288c0,2.6-0.7,4.5-2.1,5.9c-1.4,1.4-3.5,2.1-6.2,2.1
						C124.2,296.1,122.1,295.4,120.7,293.9z M129.7,290.5c0.6-0.7,0.9-1.8,0.9-3.2v-11.5c0-1.4-0.3-2.4-0.9-3.2s-1.5-1.1-2.8-1.1
						s-2.2,0.4-2.8,1.1s-0.9,1.8-0.9,3.2v11.5c0,1.4,0.3,2.4,0.9,3.2s1.5,1.1,2.8,1.1S129.1,291.2,129.7,290.5z"/>
					<path class="st2" d="M142.9,293.9c-1.4-1.4-2.1-3.4-2.1-5.9v-12.9c0-2.6,0.7-4.5,2.1-5.9c1.4-1.4,3.5-2.1,6.2-2.1
						c2.7,0,4.8,0.7,6.2,2.1c1.4,1.4,2.1,3.4,2.1,6V288c0,2.6-0.7,4.5-2.1,5.9c-1.4,1.4-3.5,2.1-6.2,2.1
						C146.3,296.1,144.3,295.4,142.9,293.9z M151.8,290.5c0.6-0.7,0.9-1.8,0.9-3.2v-11.5c0-1.4-0.3-2.4-0.9-3.2s-1.5-1.1-2.8-1.1
						s-2.2,0.4-2.8,1.1s-0.9,1.8-0.9,3.2v11.5c0,1.4,0.3,2.4,0.9,3.2s1.5,1.1,2.8,1.1S151.2,291.2,151.8,290.5z"/>
				</g>
				<g>
					<path class="st2" d="M180.4,295.4c0.6,0,0.7-0.4,0.8-2.8c0.4,0.3,1,0.5,1.4,0.6c-0.2,2.8-0.5,3.6-2,3.6h-2.1
						c-1.6,0-2-0.5-2-2.1v-5.3h-2.7c-0.3,3.4-1,6.1-4.8,7.7c-0.2-0.4-0.6-0.9-0.9-1.2c3.3-1.2,3.9-3.6,4.1-6.5h-3.9v-1.4h14.1v1.4
						h-4.4v5.3c0,0.6,0.1,0.7,0.7,0.7H180.4z M180.9,285h-11.3v-1.4h11.3V285z"/>
					<path class="st2" d="M188.2,283h1.3l-4.4,15.7h-1.3L188.2,283z"/>
					<path class="st2" d="M194.6,285.2c-0.8,1.2-1.6,2.3-2.5,3.2c-0.3-0.3-0.9-0.7-1.3-0.9c1.5-1.2,2.8-3.3,3.7-5.3l1.5,0.4
						c-0.2,0.4-0.4,0.8-0.6,1.2h9.6v1.3H194.6z M203.2,291.5c0,0.9-0.1,1.6-0.2,2.2h1.9v1.3h-2c-0.1,0.7-0.3,1.2-0.4,1.4
						c-0.3,0.4-0.7,0.6-1.2,0.7c-0.5,0-1.3,0-2.1,0c0-0.4-0.2-0.8-0.4-1.2c0.8,0.1,1.4,0.1,1.8,0.1c0.3,0,0.4,0,0.6-0.2
						c0.1-0.1,0.2-0.4,0.3-0.7h-8.9c0.2-1,0.4-2.2,0.6-3.5h-2.2v-1.3h2.4c0.2-1.2,0.3-2.4,0.4-3.4h9.6c0,0,0,0.5,0,0.7
						c0,1-0.1,2-0.1,2.8h2.3v1.3H203.2z M194.6,291.4c-0.1,0.8-0.2,1.6-0.3,2.2h4.3c-0.6-0.5-1.6-1.2-2.5-1.6l0.7-0.6H194.6z
						 M195.1,288c-0.1,0.7-0.2,1.5-0.3,2.2h4.1c-0.6-0.5-1.6-1.1-2.4-1.5l0.7-0.7H195.1z M201.6,293.6c0.1-0.6,0.1-1.3,0.2-2.2h-4.4
						c0.9,0.5,2,1.1,2.5,1.7l-0.6,0.6H201.6z M201.8,290.2c0-0.7,0-1.4,0.1-2.2h-4.3c0.9,0.4,1.9,1,2.5,1.6l-0.6,0.6H201.8z"/>
					<path class="st2" d="M221.7,293.5h-5.6v3.5h-1.5v-3.5h-7.3v-1.4h2.6v-4.2h4.7v-2.2h-3.7c-0.7,1.2-1.5,2.2-2.3,3
						c-0.3-0.3-0.9-0.7-1.3-1c1.5-1.3,2.8-3.3,3.5-5.4l1.5,0.4c-0.2,0.5-0.4,1-0.6,1.5h9.3v1.4h-4.8v2.2h4.5v1.4h-4.5v2.8h5.6V293.5
						z M214.6,292.1v-2.8h-3.2v2.8H214.6z"/>
				</g>
			</g>
			<g>
				<g>
					<path class="st2" d="M59.1,344.5h-4.7v-23.1l-3.8,1.9v-4.9l4.1-2.3h4.3V344.5z"/>
					<path class="st2" d="M68.1,342.7c-1.4-1.4-2.1-3.4-2.1-5.9v-12.9c0-2.6,0.7-4.5,2.1-5.9c1.4-1.4,3.5-2.1,6.2-2.1
						c2.7,0,4.8,0.7,6.2,2.1c1.4,1.4,2.1,3.4,2.1,6v12.9c0,2.6-0.7,4.5-2.1,5.9c-1.4,1.4-3.5,2.1-6.2,2.1
						C71.6,344.8,69.5,344.1,68.1,342.7z M77.1,339.2c0.6-0.7,0.9-1.8,0.9-3.2v-11.5c0-1.4-0.3-2.4-0.9-3.2
						c-0.6-0.7-1.5-1.1-2.8-1.1s-2.2,0.4-2.8,1.1c-0.6,0.7-0.9,1.8-0.9,3.2V336c0,1.4,0.3,2.4,0.9,3.2c0.6,0.7,1.5,1.1,2.8,1.1
						S76.5,339.9,77.1,339.2z"/>
					<path class="st2" d="M87.2,339.7h4.8v6.7l-4.8,4.7V339.7z"/>
					<path class="st2" d="M98.6,342.7c-1.4-1.4-2.1-3.4-2.1-5.9v-12.9c0-2.6,0.7-4.5,2.1-5.9c1.4-1.4,3.5-2.1,6.2-2.1
						c2.7,0,4.8,0.7,6.2,2.1c1.4,1.4,2.1,3.4,2.1,6v12.9c0,2.6-0.7,4.5-2.1,5.9c-1.4,1.4-3.5,2.1-6.2,2.1
						C102.1,344.8,100,344.1,98.6,342.7z M107.5,339.2c0.6-0.7,0.9-1.8,0.9-3.2v-11.5c0-1.4-0.3-2.4-0.9-3.2
						c-0.6-0.7-1.5-1.1-2.8-1.1s-2.2,0.4-2.8,1.1c-0.6,0.7-0.9,1.8-0.9,3.2V336c0,1.4,0.3,2.4,0.9,3.2c0.6,0.7,1.5,1.1,2.8,1.1
						S107,339.9,107.5,339.2z"/>
					<path class="st2" d="M120.7,342.7c-1.4-1.4-2.1-3.4-2.1-5.9v-12.9c0-2.6,0.7-4.5,2.1-5.9c1.4-1.4,3.5-2.1,6.2-2.1
						c2.7,0,4.8,0.7,6.2,2.1c1.4,1.4,2.1,3.4,2.1,6v12.9c0,2.6-0.7,4.5-2.1,5.9c-1.4,1.4-3.5,2.1-6.2,2.1
						C124.2,344.8,122.1,344.1,120.7,342.7z M129.7,339.2c0.6-0.7,0.9-1.8,0.9-3.2v-11.5c0-1.4-0.3-2.4-0.9-3.2
						c-0.6-0.7-1.5-1.1-2.8-1.1s-2.2,0.4-2.8,1.1c-0.6,0.7-0.9,1.8-0.9,3.2V336c0,1.4,0.3,2.4,0.9,3.2c0.6,0.7,1.5,1.1,2.8,1.1
						S129.1,339.9,129.7,339.2z"/>
					<path class="st2" d="M142.9,342.7c-1.4-1.4-2.1-3.4-2.1-5.9v-12.9c0-2.6,0.7-4.5,2.1-5.9c1.4-1.4,3.5-2.1,6.2-2.1
						c2.7,0,4.8,0.7,6.2,2.1c1.4,1.4,2.1,3.4,2.1,6v12.9c0,2.6-0.7,4.5-2.1,5.9c-1.4,1.4-3.5,2.1-6.2,2.1
						C146.3,344.8,144.3,344.1,142.9,342.7z M151.8,339.2c0.6-0.7,0.9-1.8,0.9-3.2v-11.5c0-1.4-0.3-2.4-0.9-3.2
						c-0.6-0.7-1.5-1.1-2.8-1.1s-2.2,0.4-2.8,1.1c-0.6,0.7-0.9,1.8-0.9,3.2V336c0,1.4,0.3,2.4,0.9,3.2c0.6,0.7,1.5,1.1,2.8,1.1
						S151.2,339.9,151.8,339.2z"/>
				</g>
				<g>
					<path class="st2" d="M180.7,344.1c0.6,0,0.7-0.4,0.8-2.8c0.4,0.3,1,0.5,1.4,0.6c-0.2,2.8-0.5,3.6-2,3.6h-2.1
						c-1.6,0-2-0.5-2-2.1v-5.3H174c-0.3,3.4-1,6.1-4.8,7.7c-0.2-0.4-0.6-0.9-0.9-1.2c3.3-1.2,3.9-3.6,4.1-6.5h-3.9v-1.4h14.1v1.4
						h-4.4v5.3c0,0.6,0.1,0.7,0.7,0.7H180.7z M181.2,333.7h-11.3v-1.4h11.3V333.7z"/>
					<path class="st2" d="M188.5,331.7h1.3l-4.4,15.7h-1.3L188.5,331.7z"/>
					<path class="st2" d="M194.9,333.9c-0.8,1.2-1.6,2.3-2.5,3.2c-0.3-0.3-0.9-0.7-1.3-0.9c1.5-1.2,2.8-3.3,3.7-5.3l1.5,0.4
						c-0.2,0.4-0.4,0.8-0.6,1.2h9.6v1.3H194.9z M203.5,340.2c0,0.9-0.1,1.6-0.2,2.2h1.9v1.3h-2c-0.1,0.7-0.3,1.2-0.4,1.4
						c-0.3,0.4-0.7,0.6-1.2,0.7c-0.5,0-1.3,0-2.1,0c0-0.4-0.2-0.8-0.4-1.2c0.8,0.1,1.4,0.1,1.8,0.1c0.3,0,0.4,0,0.6-0.2
						c0.1-0.1,0.2-0.4,0.3-0.7h-8.9c0.2-1,0.4-2.2,0.6-3.5h-2.2v-1.3h2.4c0.2-1.2,0.3-2.4,0.4-3.4h9.6c0,0,0,0.5,0,0.7
						c0,1-0.1,2-0.1,2.8h2.3v1.3H203.5z M194.9,340.1c-0.1,0.8-0.2,1.6-0.3,2.2h4.3c-0.6-0.5-1.6-1.2-2.5-1.6l0.7-0.6H194.9z
						 M195.4,336.7c-0.1,0.7-0.2,1.5-0.3,2.2h4.1c-0.6-0.5-1.6-1.1-2.4-1.5l0.7-0.7H195.4z M201.9,342.4c0.1-0.6,0.1-1.3,0.2-2.2
						h-4.4c0.9,0.5,2,1.1,2.5,1.7l-0.6,0.6H201.9z M202.1,338.9c0-0.7,0-1.4,0.1-2.2h-4.3c0.9,0.4,1.9,1,2.5,1.6l-0.6,0.6H202.1z"/>
					<path class="st2" d="M222,342.2h-5.6v3.5h-1.5v-3.5h-7.3v-1.4h2.6v-4.2h4.7v-2.2h-3.7c-0.7,1.2-1.5,2.2-2.3,3
						c-0.3-0.3-0.9-0.7-1.3-1c1.5-1.3,2.8-3.3,3.5-5.4l1.5,0.4c-0.2,0.5-0.4,1-0.6,1.5h9.3v1.4h-4.8v2.2h4.5v1.4h-4.5v2.8h5.6V342.2
						z M214.9,340.8v-2.8h-3.2v2.8H214.9z"/>
				</g>
				<g>
					<g>
						<path class="st2" d="M99.4,360.5c0-2.6,1-4.8,2.8-6.6l0.5,0.3c-1.7,1.8-2.7,3.9-2.7,6.3c0,2.4,0.9,4.5,2.7,6.3l-0.5,0.3
							C100.4,365.3,99.4,363.1,99.4,360.5z"/>
						<path class="st2" d="M108.3,354.2h0.7v6.5c0,1.8-0.5,4.7-3.8,6.3c-0.1-0.2-0.3-0.4-0.5-0.5c1.9-0.8,2.9-2.2,3.3-3.5
							c-1.4,0.3-2.7,0.5-3.7,0.8l-0.2-0.7c1-0.2,2.5-0.4,4.1-0.7c0.1-0.6,0.2-1.2,0.2-1.6v-0.6h-3.7v-0.6h3.7v-2.4h-4v-0.6h4V354.2z
							 M116.5,363.4h-4.4v3.5h-0.7v-12.6h0.7v2.2h4.2v0.6h-4.2v2.4h3.9v0.6h-3.9v2.5h4.4V363.4z"/>
						<path class="st2" d="M123.4,358.4c-0.5-0.4-1.3-1-2.1-1.4c-0.5,0.8-1.3,1.3-2.7,1.6c-0.1-0.2-0.2-0.4-0.4-0.5
							c2.5-0.5,3.1-1.6,3.2-3.9h0.6c-0.1,0.9-0.2,1.7-0.4,2.3c0.8,0.5,1.8,1.1,2.3,1.5L123.4,358.4z M119.8,356.3
							c-0.2-0.4-0.7-1-1.1-1.4l0.4-0.3c0.4,0.4,0.9,1,1.1,1.3L119.8,356.3z M118.7,358.7h11.5v2.4h-0.7v-1.8h-10.2v1.8h-0.6V358.7z
							 M124,362.7c-0.2,0.3-0.3,0.7-0.4,1h5.8v3.2h-0.7v-0.4h-8.2v0.4h-0.6v-3.2h3.1c0.1-0.3,0.3-0.6,0.4-1h-2.6v-2.5h7.5v2.5H124z
							 M128.7,364.2h-8.2v1.6h8.2V364.2z M121.4,362.2h6.2v-1.4h-6.2V362.2z M124.2,355.2c-0.4,0.5-0.9,1.1-1.2,1.4l-0.4-0.2
							c0.4-0.4,0.9-1,1.1-1.4L124.2,355.2z M130,358.7c-0.6-0.5-1.8-1.2-2.9-1.8c-0.5,0.7-1.3,1.2-2.6,1.6c-0.1-0.1-0.2-0.4-0.4-0.5
							c2.3-0.6,2.9-1.6,3.1-3.7h0.6c-0.1,0.9-0.2,1.6-0.5,2.2c1.1,0.5,2.3,1.3,3,1.8L130,358.7z M125.7,356.2
							c-0.2-0.4-0.7-1-1.1-1.4l0.4-0.3c0.4,0.4,0.9,1,1.1,1.3L125.7,356.2z M130.3,355.1c-0.4,0.5-1,1.1-1.4,1.5l-0.4-0.3
							c0.4-0.4,1-1.1,1.3-1.5L130.3,355.1z"/>
						<path class="st2" d="M136.4,358.4h3.1v0.6h-3.1v0.3c0.6,0.6,2.4,2.5,2.9,3l-0.4,0.5c-0.5-0.6-1.7-1.9-2.5-2.7v6.7h-0.7v-6.7
							c-0.8,1.8-1.9,3.7-3,4.7c-0.1-0.2-0.3-0.4-0.4-0.6c1.2-1.1,2.5-3.2,3.2-5.2h-3v-0.6h3.1v-2.7c-1,0.2-2,0.3-2.9,0.4
							c0-0.2-0.1-0.4-0.2-0.5c2.1-0.3,4.6-0.7,5.9-1.3l0.5,0.5c-0.7,0.3-1.6,0.5-2.6,0.7V358.4z M141.4,363.4h-0.7v-7.6h0.7V363.4z
							 M144.4,354.3v11.5c0,0.6-0.2,0.8-0.5,0.9c-0.4,0.1-1.1,0.1-2.4,0.1c0-0.2-0.2-0.5-0.3-0.7c1,0,1.9,0,2.1,0
							c0.3,0,0.4-0.1,0.4-0.4v-11.5H144.4z"/>
						<path class="st2" d="M154.2,354.8h0.7l-4.6,13.5h-0.7L154.2,354.8z"/>
						<path class="st2" d="M166,363c-1,0.1-2,0.3-3,0.5v2.6c0,0.4-0.1,0.6-0.4,0.7c-0.3,0.1-0.9,0.1-1.8,0.1c0-0.2-0.1-0.4-0.2-0.6
							c0.8,0,1.4,0,1.6,0c0.2,0,0.2-0.1,0.2-0.2v-2.5c-1.1,0.2-2.1,0.3-2.9,0.5l-0.1-0.6c0.8-0.1,1.9-0.3,3-0.4v-1.1
							c0.6-0.3,1.4-0.9,1.9-1.4h-2.7c-0.6,0.4-1.1,0.9-1.8,1.2c-0.1-0.1-0.4-0.4-0.5-0.5c1.2-0.7,2.3-1.5,3.3-2.5h-3.2V358h2.6v-1.7
							h-2v-0.6h2v-1.6h0.6v1.6h1.5v0.6h-1.5v1.7h0.5c0.9-1,1.6-2.2,2.1-3.5l0.6,0.2c-0.5,1.2-1.2,2.3-1.9,3.3h2.2v0.6h-2.7
							c-0.4,0.4-0.8,0.8-1.2,1.2h2.6l0.1,0l0.4,0.3c-0.6,0.7-1.5,1.4-2.4,1.9v0.8l3-0.5L166,363z M171.1,357.4
							c-0.4,2.4-0.9,4.3-1.8,5.8c0.7,1.3,1.7,2.4,2.8,3c-0.2,0.1-0.4,0.4-0.5,0.6c-1.1-0.7-2-1.7-2.8-2.9c-0.8,1.3-2,2.2-3.4,3
							c-0.1-0.2-0.3-0.4-0.4-0.6c1.6-0.8,2.7-1.8,3.5-3.1c-0.6-1.3-1.1-2.9-1.5-4.6c-0.3,0.8-0.7,1.5-1.1,2.1
							c-0.1-0.1-0.4-0.3-0.6-0.4c1.1-1.5,1.8-3.8,2.3-6.1l0.7,0.1c-0.2,0.9-0.4,1.7-0.6,2.5h4.3v0.6H171.1z M167.4,357.5
							c0.3,1.8,0.8,3.6,1.4,5c0.7-1.4,1.2-3.1,1.5-5.1L167.4,357.5L167.4,357.5z"/>
						<path class="st2" d="M178.6,356.3c-0.7,0.8-1.5,1.4-2.2,2l6.7-0.3c-0.6-0.5-1.2-0.9-1.7-1.3l0.5-0.3c1.2,0.8,2.7,2,3.5,2.9
							l-0.6,0.4c-0.3-0.3-0.6-0.7-1.1-1.1c-7.4,0.4-8,0.4-8.4,0.6c0-0.2-0.1-0.5-0.2-0.7c0.3,0,0.7-0.3,1.1-0.7
							c0.3-0.2,0.8-0.7,1.5-1.4h-3.9v-0.6h4.5c0.5-0.5,1-1.1,1.4-1.7l0.7,0.3c-0.4,0.4-0.8,0.9-1.2,1.3h6.8v0.6H178.6z M184.4,366
							c0,0.5-0.1,0.7-0.5,0.8c-0.4,0.1-1.1,0.1-2.2,0.1c0-0.2-0.1-0.4-0.2-0.6c0.9,0,1.8,0,2,0c0.2,0,0.3-0.1,0.3-0.3v-2.3
							c-2.3,0.5-4.8,1-6.5,1.3l-0.3-0.7c1.7-0.3,4.3-0.7,6.8-1.2v-2.9h-7.4v2.1c0,1.4-0.3,3.3-1.7,4.5c-0.1-0.1-0.4-0.4-0.5-0.4
							c1.3-1.2,1.5-2.8,1.5-4.1v-2.7h8.7V366z M182.2,363c-1.2-0.5-3.5-1.1-5.4-1.4l0.2-0.5c1.8,0.3,4.1,0.8,5.4,1.4L182.2,363z"/>
						<path class="st2" d="M191.1,361.4c-0.2-0.4-0.5-1.2-0.9-1.8v7.2h-0.6v-7.4c-0.4,1.7-1,3.3-1.5,4.3c-0.1-0.2-0.2-0.5-0.4-0.7
							c0.7-1.2,1.5-3.6,1.8-5.6H188v-0.6h1.6v-2.7h0.6v2.7h1.2v0.6h-1.2v1.1c0.3,0.5,1.1,1.8,1.2,2.2L191.1,361.4z M199.5,362.5
							c-0.4,0.9-1.1,1.7-1.8,2.4c0.5,0.8,1.1,1.3,1.8,1.3c0.3,0,0.5-0.5,0.6-1.6c0.1,0.1,0.4,0.3,0.5,0.3c-0.2,1.4-0.6,1.9-1.1,1.9
							c-1-0.1-1.7-0.6-2.3-1.6c-0.8,0.6-1.6,1.1-2.6,1.5c-0.1-0.1-0.3-0.3-0.4-0.4c1-0.4,2-1,2.7-1.6c-0.4-0.7-0.6-1.7-0.9-2.8h-2.5
							v0.5v0.2c0.7,0.6,1.6,1.3,2,1.8l-0.4,0.4c-0.4-0.4-1-1-1.6-1.6c-0.2,1.2-0.7,2.5-2.1,3.6c-0.1-0.1-0.3-0.4-0.4-0.4
							c1.7-1.2,2-2.8,2-4V362h-1.2v-0.6h4.2c-0.4-2-0.5-4.5-0.6-7.1h0.6c0.1,2.7,0.3,5.2,0.6,7.1h3.7v0.6h-3.6
							c0.2,0.9,0.5,1.7,0.7,2.3c0.6-0.6,1.2-1.3,1.5-2L199.5,362.5z M194.9,360.5c0-0.2-0.1-0.4-0.2-0.6c-2.2,0.3-2.5,0.4-2.7,0.5
							c0-0.1-0.1-0.4-0.2-0.6c0.2,0,0.4-0.3,0.7-0.6c0.2-0.2,0.6-0.7,1.1-1.4c-1.3,0.2-1.6,0.3-1.7,0.3c0-0.1-0.1-0.4-0.2-0.6
							c0.2,0,0.3-0.2,0.5-0.5c0.2-0.3,0.9-1.4,1.3-2.5l0.5,0.2c-0.5,1-1,1.9-1.5,2.7l1.4-0.1c0.2-0.3,0.4-0.7,0.5-1l0.5,0.2
							c-0.7,1.2-1.5,2.3-2.2,3.2l1.7-0.2c-0.1-0.4-0.3-0.7-0.4-1l0.5-0.1c0.4,0.7,0.7,1.6,0.8,2.1L194.9,360.5z M199.9,360.2
							c0-0.2-0.1-0.4-0.2-0.7c-2.2,0.3-2.5,0.4-2.7,0.5c0-0.1-0.1-0.5-0.2-0.6c0.2,0,0.4-0.3,0.7-0.6c0.2-0.2,0.6-0.7,1-1.4
							c-1.2,0.2-1.5,0.3-1.6,0.3c0-0.1-0.1-0.4-0.2-0.6c0.2,0,0.3-0.2,0.5-0.5c0.2-0.3,0.8-1.3,1.1-2.3l0.5,0.2
							c-0.4,0.9-0.8,1.7-1.3,2.4l1.3-0.2c0.2-0.3,0.4-0.7,0.5-1l0.6,0.2c-0.6,1.2-1.4,2.4-2.1,3.2l1.8-0.2c-0.1-0.3-0.3-0.7-0.4-1
							l0.5-0.1c0.4,0.7,0.7,1.6,0.9,2.1L199.9,360.2z M197.8,360c0.5,0.3,1.2,0.7,1.6,1l-0.4,0.4c-0.3-0.3-1-0.8-1.6-1.1L197.8,360z
							"/>
						<path class="st2" d="M206.4,362c-0.2-0.4-0.8-1.4-1.3-2.1v6.9h-0.6v-7.3c-0.5,1.7-1.2,3.5-2,4.5c-0.1-0.2-0.3-0.4-0.4-0.6
							c0.9-1.2,1.8-3.6,2.3-5.6h-2v-0.6h2.1v-3.1h0.6v3.1h1.7v0.6h-1.7v1.2c0.4,0.5,1.4,2,1.7,2.4L206.4,362z M215,364.5h-1v1.5
							c0,0.4-0.1,0.6-0.4,0.7c-0.3,0.1-0.9,0.1-1.8,0.1c0-0.2-0.1-0.4-0.2-0.6c0.8,0,1.4,0,1.6,0c0.2,0,0.2-0.1,0.2-0.2v-1.5h-5.3
							v2.3h-0.6v-2.3h-1v-0.6h1v-3.6h2.9v-1h-3.7v-0.6h2.1v-1.2h-1.5v-0.5h1.5v-1.1h-1.7v-0.6h1.7v-1.2h0.6v1.2h2.7v-1.2h0.6v1.2
							h1.8v0.6h-1.8v1.1h1.6v0.5h-1.6v1.2h2.1v0.6H211v1h3.1v3.6h1V364.5z M208.1,360.9v1.2h2.3v-1.2H208.1z M208.1,363.9h2.3v-1.3
							h-2.3V363.9z M209.4,357.1h2.7v-1.1h-2.7V357.1z M209.4,358.8h2.7v-1.2h-2.7V358.8z M211,360.9v1.2h2.4v-1.2H211z
							 M213.4,363.9v-1.3H211v1.3H213.4z"/>
						<path class="st2" d="M219.3,360.5c0,2.6-1,4.8-2.8,6.6l-0.5-0.3c1.7-1.8,2.7-3.9,2.7-6.3c0-2.4-0.9-4.5-2.7-6.3l0.5-0.3
							C218.3,355.7,219.3,357.9,219.3,360.5z"/>
					</g>
				</g>
			</g>
		</g>
		<rect x="13.1" y="387.2" class="st1" width="260" height="100"/>
		<g>
			<g>
				<g>
					<defs>
						<rect id="SVGID_89_" x="13.1" y="437.2" width="165" height="50"/>
					</defs>
					<clipPath id="SVGID_2_">
						<use xlink:href="#SVGID_89_"  style="overflow:visible;"/>
					</clipPath>
					<g class="st3">
						<g>
							<defs>
								<rect id="SVGID_91_" x="158.9" y="418.9" width="33.2" height="44.1"/>
							</defs>
							<clipPath id="SVGID_4_">
								<use xlink:href="#SVGID_91_"  style="overflow:visible;"/>
							</clipPath>
							<g class="st4">
								<rect x="159.1" y="429.8" class="st5" width="32.7" height="0.5"/>
							</g>
							<g class="st4">
								<rect x="159.1" y="440.7" class="st5" width="32.7" height="0.5"/>
							</g>
							<g class="st4">
								<rect x="159.1" y="451.6" class="st5" width="32.7" height="0.5"/>
							</g>
							<g class="st4">
								<rect x="180.7" y="419.2" class="st5" width="0.5" height="43.6"/>
							</g>
							<g class="st4">
								<rect x="169.8" y="419.2" class="st5" width="0.5" height="43.6"/>
							</g>
							<g class="st4">
								<path class="st5" d="M192.1,463.1h-33.2v-44.1l33.2,0V463.1z M159.4,462.5h32.2v-43.1l-32.2,0V462.5z"/>
							</g>
						</g>
					</g>
					<g class="st3">
						<g>
							<defs>
								<rect id="SVGID_93_" x="158.9" y="463.1" width="33.2" height="44.1"/>
							</defs>
							<clipPath id="SVGID_6_">
								<use xlink:href="#SVGID_93_"  style="overflow:visible;"/>
							</clipPath>
							<g class="st6">
								<rect x="159.1" y="474" class="st5" width="32.7" height="0.5"/>
							</g>
							<g class="st6">
								<rect x="159.1" y="484.9" class="st5" width="32.7" height="0.5"/>
							</g>
							<g class="st6">
								<rect x="159.1" y="495.8" class="st5" width="32.7" height="0.5"/>
							</g>
							<g class="st6">
								<rect x="180.7" y="463.3" class="st5" width="0.5" height="43.6"/>
							</g>
							<g class="st6">
								<rect x="169.8" y="463.3" class="st5" width="0.5" height="43.6"/>
							</g>
							<g class="st6">
								<path class="st5" d="M192.1,507.2h-33.2v-44.1h33.2V507.2z M159.4,506.7h32.2v-43.1h-32.2V506.7z"/>
							</g>
						</g>
					</g>
					<g class="st3">
						<g>
							<defs>
								<rect id="SVGID_95_" x="125.6" y="418.9" width="33.2" height="44.1"/>
							</defs>
							<clipPath id="SVGID_8_">
								<use xlink:href="#SVGID_95_"  style="overflow:visible;"/>
							</clipPath>
							<g class="st7">
								<rect x="125.9" y="429.8" class="st5" width="32.7" height="0.5"/>
							</g>
							<g class="st7">
								<rect x="125.9" y="440.7" class="st5" width="32.7" height="0.5"/>
							</g>
							<g class="st7">
								<rect x="125.9" y="451.6" class="st5" width="32.7" height="0.5"/>
							</g>
							<g class="st7">
								<rect x="147.4" y="419.2" class="st5" width="0.5" height="43.6"/>
							</g>
							<g class="st7">
								<rect x="136.5" y="419.2" class="st5" width="0.5" height="43.6"/>
							</g>
							<g class="st7">
								<path class="st5" d="M158.9,463.1h-33.2v-44.1l33.2,0V463.1z M126.1,462.5h32.2v-43.1l-32.2,0V462.5z"/>
							</g>
						</g>
					</g>
					<g class="st3">
						<g>
							<defs>
								<rect id="SVGID_97_" x="125.6" y="463.1" width="33.2" height="44.1"/>
							</defs>
							<clipPath id="SVGID_10_">
								<use xlink:href="#SVGID_97_"  style="overflow:visible;"/>
							</clipPath>
							<g class="st8">
								<rect x="125.9" y="474" class="st5" width="32.7" height="0.5"/>
							</g>
							<g class="st8">
								<rect x="125.9" y="484.9" class="st5" width="32.7" height="0.5"/>
							</g>
							<g class="st8">
								<rect x="125.9" y="495.8" class="st5" width="32.7" height="0.5"/>
							</g>
							<g class="st8">
								<rect x="147.4" y="463.3" class="st5" width="0.5" height="43.6"/>
							</g>
							<g class="st8">
								<rect x="136.5" y="463.3" class="st5" width="0.5" height="43.6"/>
							</g>
							<g class="st8">
								<path class="st5" d="M158.9,507.2h-33.2v-44.1h33.2V507.2z M126.1,506.7h32.2v-43.1h-32.2V506.7z"/>
							</g>
						</g>
					</g>
					<g class="st3">
						<g>
							<defs>
								<rect id="SVGID_99_" x="92.4" y="418.9" width="33.2" height="44.1"/>
							</defs>
							<clipPath id="SVGID_12_">
								<use xlink:href="#SVGID_99_"  style="overflow:visible;"/>
							</clipPath>
							<g class="st9">
								<rect x="92.6" y="429.8" class="st5" width="32.7" height="0.5"/>
							</g>
							<g class="st9">
								<rect x="92.6" y="440.7" class="st5" width="32.7" height="0.5"/>
							</g>
							<g class="st9">
								<rect x="92.6" y="451.6" class="st5" width="32.7" height="0.5"/>
							</g>
							<g class="st9">
								<rect x="114.2" y="419.2" class="st5" width="0.5" height="43.6"/>
							</g>
							<g class="st9">
								<rect x="103.3" y="419.2" class="st5" width="0.5" height="43.6"/>
							</g>
							<g class="st9">
								<path class="st5" d="M125.6,463.1H92.4v-44.1l33.2,0V463.1z M92.9,462.5h32.2v-43.1l-32.2,0V462.5z"/>
							</g>
						</g>
					</g>
					<g class="st3">
						<g>
							<defs>
								<rect id="SVGID_101_" x="92.4" y="463.1" width="33.2" height="44.1"/>
							</defs>
							<clipPath id="SVGID_14_">
								<use xlink:href="#SVGID_101_"  style="overflow:visible;"/>
							</clipPath>
							<g class="st10">
								<rect x="92.6" y="474" class="st5" width="32.7" height="0.5"/>
							</g>
							<g class="st10">
								<rect x="92.6" y="484.9" class="st5" width="32.7" height="0.5"/>
							</g>
							<g class="st10">
								<rect x="92.6" y="495.8" class="st5" width="32.7" height="0.5"/>
							</g>
							<g class="st10">
								<rect x="114.2" y="463.3" class="st5" width="0.5" height="43.6"/>
							</g>
							<g class="st10">
								<rect x="103.3" y="463.3" class="st5" width="0.5" height="43.6"/>
							</g>
							<g class="st10">
								<path class="st5" d="M125.6,507.2H92.4v-44.1h33.2V507.2z M92.9,506.7h32.2v-43.1H92.9V506.7z"/>
							</g>
						</g>
					</g>
					<g class="st3">
						<g>
							<defs>
								<rect id="SVGID_103_" x="59.1" y="418.9" width="33.2" height="44.1"/>
							</defs>
							<clipPath id="SVGID_16_">
								<use xlink:href="#SVGID_103_"  style="overflow:visible;"/>
							</clipPath>
							<g class="st11">
								<rect x="59.4" y="429.8" class="st5" width="32.7" height="0.5"/>
							</g>
							<g class="st11">
								<rect x="59.4" y="440.7" class="st5" width="32.7" height="0.5"/>
							</g>
							<g class="st11">
								<rect x="59.4" y="451.6" class="st5" width="32.7" height="0.5"/>
							</g>
							<g class="st11">
								<rect x="80.9" y="419.2" class="st5" width="0.5" height="43.6"/>
							</g>
							<g class="st11">
								<rect x="70" y="419.2" class="st5" width="0.5" height="43.6"/>
							</g>
							<g class="st11">
								<path class="st5" d="M92.4,463.1H59.1v-44.1l33.2,0V463.1z M59.7,462.5h32.2v-43.1l-32.2,0V462.5z"/>
							</g>
						</g>
					</g>
					<g class="st3">
						<g>
							<defs>
								<rect id="SVGID_105_" x="59.1" y="463.1" width="33.2" height="44.1"/>
							</defs>
							<clipPath id="SVGID_18_">
								<use xlink:href="#SVGID_105_"  style="overflow:visible;"/>
							</clipPath>
							<g class="st12">
								<rect x="59.4" y="474" class="st5" width="32.7" height="0.5"/>
							</g>
							<g class="st12">
								<rect x="59.4" y="484.9" class="st5" width="32.7" height="0.5"/>
							</g>
							<g class="st12">
								<rect x="59.4" y="495.8" class="st5" width="32.7" height="0.5"/>
							</g>
							<g class="st12">
								<rect x="80.9" y="463.3" class="st5" width="0.5" height="43.6"/>
							</g>
							<g class="st12">
								<rect x="70" y="463.3" class="st5" width="0.5" height="43.6"/>
							</g>
							<g class="st12">
								<path class="st5" d="M92.4,507.2H59.1v-44.1h33.2V507.2z M59.7,506.7h32.2v-43.1H59.7V506.7z"/>
							</g>
						</g>
					</g>
					<g class="st3">
						<g>
							<defs>
								<rect id="SVGID_107_" x="25.9" y="418.9" width="33.2" height="44.1"/>
							</defs>
							<clipPath id="SVGID_20_">
								<use xlink:href="#SVGID_107_"  style="overflow:visible;"/>
							</clipPath>
							<g class="st13">
								<rect x="26.2" y="429.8" class="st5" width="32.7" height="0.5"/>
							</g>
							<g class="st13">
								<rect x="26.2" y="440.7" class="st5" width="32.7" height="0.5"/>
							</g>
							<g class="st13">
								<rect x="26.2" y="451.6" class="st5" width="32.7" height="0.5"/>
							</g>
							<g class="st13">
								<rect x="47.7" y="419.2" class="st5" width="0.5" height="43.6"/>
							</g>
							<g class="st13">
								<rect x="36.8" y="419.2" class="st5" width="0.5" height="43.6"/>
							</g>
							<g class="st13">
								<path class="st5" d="M59.1,463.1H25.9v-44.1l33.2,0V463.1z M26.4,462.5h32.2v-43.1l-32.2,0V462.5z"/>
							</g>
						</g>
					</g>
					<g class="st3">
						<g>
							<defs>
								<rect id="SVGID_109_" x="25.9" y="463.1" width="33.2" height="44.1"/>
							</defs>
							<clipPath id="SVGID_22_">
								<use xlink:href="#SVGID_109_"  style="overflow:visible;"/>
							</clipPath>
							<g class="st14">
								<rect x="26.2" y="474" class="st5" width="32.7" height="0.5"/>
							</g>
							<g class="st14">
								<rect x="26.2" y="484.9" class="st5" width="32.7" height="0.5"/>
							</g>
							<g class="st14">
								<rect x="26.2" y="495.8" class="st5" width="32.7" height="0.5"/>
							</g>
							<g class="st14">
								<rect x="47.7" y="463.3" class="st5" width="0.5" height="43.6"/>
							</g>
							<g class="st14">
								<rect x="36.8" y="463.3" class="st5" width="0.5" height="43.6"/>
							</g>
							<g class="st14">
								<path class="st5" d="M59.1,507.2H25.9v-44.1h33.2V507.2z M26.4,506.7h32.2v-43.1H26.4V506.7z"/>
							</g>
						</g>
					</g>
					<g class="st3">
						<g>
							<defs>
								<rect id="SVGID_111_" x="-7.4" y="418.9" width="33.2" height="44.1"/>
							</defs>
							<clipPath id="SVGID_24_">
								<use xlink:href="#SVGID_111_"  style="overflow:visible;"/>
							</clipPath>
							<g class="st15">
								<rect x="-7.1" y="429.8" class="st5" width="32.7" height="0.5"/>
							</g>
							<g class="st15">
								<rect x="-7.1" y="440.7" class="st5" width="32.7" height="0.5"/>
							</g>
							<g class="st15">
								<rect x="-7.1" y="451.6" class="st5" width="32.7" height="0.5"/>
							</g>
							<g class="st15">
								<rect x="14.5" y="419.2" class="st5" width="0.5" height="43.6"/>
							</g>
							<g class="st15">
								<rect x="3.6" y="419.2" class="st5" width="0.5" height="43.6"/>
							</g>
							<g class="st15">
								<path class="st5" d="M25.9,463.1H-7.4v-44.1l33.2,0V463.1z M-6.8,462.5h32.2v-43.1l-32.2,0V462.5z"/>
							</g>
						</g>
					</g>
					<g class="st3">
						<g>
							<defs>
								<rect id="SVGID_113_" x="-7.4" y="463.1" width="33.2" height="44.1"/>
							</defs>
							<clipPath id="SVGID_26_">
								<use xlink:href="#SVGID_113_"  style="overflow:visible;"/>
							</clipPath>
							<g class="st16">
								<rect x="-7.1" y="474" class="st5" width="32.7" height="0.5"/>
							</g>
							<g class="st16">
								<rect x="-7.1" y="484.9" class="st5" width="32.7" height="0.5"/>
							</g>
							<g class="st16">
								<rect x="-7.1" y="495.8" class="st5" width="32.7" height="0.5"/>
							</g>
							<g class="st16">
								<rect x="14.5" y="463.3" class="st5" width="0.5" height="43.6"/>
							</g>
							<g class="st16">
								<rect x="3.6" y="463.3" class="st5" width="0.5" height="43.6"/>
							</g>
							<g class="st16">
								<path class="st5" d="M25.9,507.2H-7.4v-44.1h33.2V507.2z M-6.8,506.7h32.2v-43.1H-6.8V506.7z"/>
							</g>
						</g>
					</g>
				</g>
			</g>
			<g>
				<g>
					<defs>
						<rect id="SVGID_115_" x="13.1" y="387.2" width="165" height="50"/>
					</defs>
					<clipPath id="SVGID_28_">
						<use xlink:href="#SVGID_115_"  style="overflow:visible;"/>
					</clipPath>
					<g class="st17">
						<g>
							<defs>
								<rect id="SVGID_117_" x="158.9" y="368.9" width="33.2" height="44.1"/>
							</defs>
							<clipPath id="SVGID_30_">
								<use xlink:href="#SVGID_117_"  style="overflow:visible;"/>
							</clipPath>
							<g class="st18">
								<rect x="159.1" y="379.8" class="st5" width="32.7" height="0.5"/>
							</g>
							<g class="st18">
								<rect x="159.1" y="390.7" class="st5" width="32.7" height="0.5"/>
							</g>
							<g class="st18">
								<rect x="159.1" y="401.6" class="st5" width="32.7" height="0.5"/>
							</g>
							<g class="st18">
								<rect x="180.7" y="369.2" class="st5" width="0.5" height="43.6"/>
							</g>
							<g class="st18">
								<rect x="169.8" y="369.2" class="st5" width="0.5" height="43.6"/>
							</g>
							<g class="st18">
								<path class="st5" d="M192.1,413.1h-33.2v-44.1l33.2,0V413.1z M159.4,412.5h32.2v-43.1l-32.2,0V412.5z"/>
							</g>
						</g>
					</g>
					<g class="st17">
						<g>
							<defs>
								<rect id="SVGID_119_" x="158.9" y="413.1" width="33.2" height="44.1"/>
							</defs>
							<clipPath id="SVGID_32_">
								<use xlink:href="#SVGID_119_"  style="overflow:visible;"/>
							</clipPath>
							<g class="st19">
								<rect x="159.1" y="424" class="st5" width="32.7" height="0.5"/>
							</g>
							<g class="st19">
								<rect x="159.1" y="434.9" class="st5" width="32.7" height="0.5"/>
							</g>
							<g class="st19">
								<rect x="159.1" y="445.8" class="st5" width="32.7" height="0.5"/>
							</g>
							<g class="st19">
								<rect x="180.7" y="413.3" class="st5" width="0.5" height="43.6"/>
							</g>
							<g class="st19">
								<rect x="169.8" y="413.3" class="st5" width="0.5" height="43.6"/>
							</g>
							<g class="st19">
								<path class="st5" d="M192.1,457.2h-33.2v-44.1h33.2V457.2z M159.4,456.7h32.2v-43.1h-32.2V456.7z"/>
							</g>
						</g>
					</g>
					<g class="st17">
						<g>
							<defs>
								<rect id="SVGID_121_" x="125.6" y="368.9" width="33.2" height="44.1"/>
							</defs>
							<clipPath id="SVGID_34_">
								<use xlink:href="#SVGID_121_"  style="overflow:visible;"/>
							</clipPath>
							<g class="st20">
								<rect x="125.9" y="379.8" class="st5" width="32.7" height="0.5"/>
							</g>
							<g class="st20">
								<rect x="125.9" y="390.7" class="st5" width="32.7" height="0.5"/>
							</g>
							<g class="st20">
								<rect x="125.9" y="401.6" class="st5" width="32.7" height="0.5"/>
							</g>
							<g class="st20">
								<rect x="147.4" y="369.2" class="st5" width="0.5" height="43.6"/>
							</g>
							<g class="st20">
								<rect x="136.5" y="369.2" class="st5" width="0.5" height="43.6"/>
							</g>
							<g class="st20">
								<path class="st5" d="M158.9,413.1h-33.2v-44.1l33.2,0V413.1z M126.1,412.5h32.2v-43.1l-32.2,0V412.5z"/>
							</g>
						</g>
					</g>
					<g class="st17">
						<g>
							<defs>
								<rect id="SVGID_123_" x="125.6" y="413.1" width="33.2" height="44.1"/>
							</defs>
							<clipPath id="SVGID_36_">
								<use xlink:href="#SVGID_123_"  style="overflow:visible;"/>
							</clipPath>
							<g class="st21">
								<rect x="125.9" y="424" class="st5" width="32.7" height="0.5"/>
							</g>
							<g class="st21">
								<rect x="125.9" y="434.9" class="st5" width="32.7" height="0.5"/>
							</g>
							<g class="st21">
								<rect x="125.9" y="445.8" class="st5" width="32.7" height="0.5"/>
							</g>
							<g class="st21">
								<rect x="147.4" y="413.3" class="st5" width="0.5" height="43.6"/>
							</g>
							<g class="st21">
								<rect x="136.5" y="413.3" class="st5" width="0.5" height="43.6"/>
							</g>
							<g class="st21">
								<path class="st5" d="M158.9,457.2h-33.2v-44.1h33.2V457.2z M126.1,456.7h32.2v-43.1h-32.2V456.7z"/>
							</g>
						</g>
					</g>
					<g class="st17">
						<g>
							<defs>
								<rect id="SVGID_125_" x="92.4" y="368.9" width="33.2" height="44.1"/>
							</defs>
							<clipPath id="SVGID_38_">
								<use xlink:href="#SVGID_125_"  style="overflow:visible;"/>
							</clipPath>
							<g class="st22">
								<rect x="92.6" y="379.8" class="st5" width="32.7" height="0.5"/>
							</g>
							<g class="st22">
								<rect x="92.6" y="390.7" class="st5" width="32.7" height="0.5"/>
							</g>
							<g class="st22">
								<rect x="92.6" y="401.6" class="st5" width="32.7" height="0.5"/>
							</g>
							<g class="st22">
								<rect x="114.2" y="369.2" class="st5" width="0.5" height="43.6"/>
							</g>
							<g class="st22">
								<rect x="103.3" y="369.2" class="st5" width="0.5" height="43.6"/>
							</g>
							<g class="st22">
								<path class="st5" d="M125.6,413.1H92.4v-44.1l33.2,0V413.1z M92.9,412.5h32.2v-43.1l-32.2,0V412.5z"/>
							</g>
						</g>
					</g>
					<g class="st17">
						<g>
							<defs>
								<rect id="SVGID_127_" x="92.4" y="413.1" width="33.2" height="44.1"/>
							</defs>
							<clipPath id="SVGID_40_">
								<use xlink:href="#SVGID_127_"  style="overflow:visible;"/>
							</clipPath>
							<g class="st23">
								<rect x="92.6" y="424" class="st5" width="32.7" height="0.5"/>
							</g>
							<g class="st23">
								<rect x="92.6" y="434.9" class="st5" width="32.7" height="0.5"/>
							</g>
							<g class="st23">
								<rect x="92.6" y="445.8" class="st5" width="32.7" height="0.5"/>
							</g>
							<g class="st23">
								<rect x="114.2" y="413.3" class="st5" width="0.5" height="43.6"/>
							</g>
							<g class="st23">
								<rect x="103.3" y="413.3" class="st5" width="0.5" height="43.6"/>
							</g>
							<g class="st23">
								<path class="st5" d="M125.6,457.2H92.4v-44.1h33.2V457.2z M92.9,456.7h32.2v-43.1H92.9V456.7z"/>
							</g>
						</g>
					</g>
					<g class="st17">
						<g>
							<defs>
								<rect id="SVGID_129_" x="59.1" y="368.9" width="33.2" height="44.1"/>
							</defs>
							<clipPath id="SVGID_42_">
								<use xlink:href="#SVGID_129_"  style="overflow:visible;"/>
							</clipPath>
							<g class="st24">
								<rect x="59.4" y="379.8" class="st5" width="32.7" height="0.5"/>
							</g>
							<g class="st24">
								<rect x="59.4" y="390.7" class="st5" width="32.7" height="0.5"/>
							</g>
							<g class="st24">
								<rect x="59.4" y="401.6" class="st5" width="32.7" height="0.5"/>
							</g>
							<g class="st24">
								<rect x="80.9" y="369.2" class="st5" width="0.5" height="43.6"/>
							</g>
							<g class="st24">
								<rect x="70" y="369.2" class="st5" width="0.5" height="43.6"/>
							</g>
							<g class="st24">
								<path class="st5" d="M92.4,413.1H59.1v-44.1l33.2,0V413.1z M59.7,412.5h32.2v-43.1l-32.2,0V412.5z"/>
							</g>
						</g>
					</g>
					<g class="st17">
						<g>
							<defs>
								<rect id="SVGID_131_" x="59.1" y="413.1" width="33.2" height="44.1"/>
							</defs>
							<clipPath id="SVGID_44_">
								<use xlink:href="#SVGID_131_"  style="overflow:visible;"/>
							</clipPath>
							<g class="st25">
								<rect x="59.4" y="424" class="st5" width="32.7" height="0.5"/>
							</g>
							<g class="st25">
								<rect x="59.4" y="434.9" class="st5" width="32.7" height="0.5"/>
							</g>
							<g class="st25">
								<rect x="59.4" y="445.8" class="st5" width="32.7" height="0.5"/>
							</g>
							<g class="st25">
								<rect x="80.9" y="413.3" class="st5" width="0.5" height="43.6"/>
							</g>
							<g class="st25">
								<rect x="70" y="413.3" class="st5" width="0.5" height="43.6"/>
							</g>
							<g class="st25">
								<path class="st5" d="M92.4,457.2H59.1v-44.1h33.2V457.2z M59.7,456.7h32.2v-43.1H59.7V456.7z"/>
							</g>
						</g>
					</g>
					<g class="st17">
						<g>
							<defs>
								<rect id="SVGID_133_" x="25.9" y="368.9" width="33.2" height="44.1"/>
							</defs>
							<clipPath id="SVGID_46_">
								<use xlink:href="#SVGID_133_"  style="overflow:visible;"/>
							</clipPath>
							<g class="st26">
								<rect x="26.2" y="379.8" class="st5" width="32.7" height="0.5"/>
							</g>
							<g class="st26">
								<rect x="26.2" y="390.7" class="st5" width="32.7" height="0.5"/>
							</g>
							<g class="st26">
								<rect x="26.2" y="401.6" class="st5" width="32.7" height="0.5"/>
							</g>
							<g class="st26">
								<rect x="47.7" y="369.2" class="st5" width="0.5" height="43.6"/>
							</g>
							<g class="st26">
								<rect x="36.8" y="369.2" class="st5" width="0.5" height="43.6"/>
							</g>
							<g class="st26">
								<path class="st5" d="M59.1,413.1H25.9v-44.1l33.2,0V413.1z M26.4,412.5h32.2v-43.1l-32.2,0V412.5z"/>
							</g>
						</g>
					</g>
					<g class="st17">
						<g>
							<defs>
								<rect id="SVGID_135_" x="25.9" y="413.1" width="33.2" height="44.1"/>
							</defs>
							<clipPath id="SVGID_48_">
								<use xlink:href="#SVGID_135_"  style="overflow:visible;"/>
							</clipPath>
							<g class="st27">
								<rect x="26.2" y="424" class="st5" width="32.7" height="0.5"/>
							</g>
							<g class="st27">
								<rect x="26.2" y="434.9" class="st5" width="32.7" height="0.5"/>
							</g>
							<g class="st27">
								<rect x="26.2" y="445.8" class="st5" width="32.7" height="0.5"/>
							</g>
							<g class="st27">
								<rect x="47.7" y="413.3" class="st5" width="0.5" height="43.6"/>
							</g>
							<g class="st27">
								<rect x="36.8" y="413.3" class="st5" width="0.5" height="43.6"/>
							</g>
							<g class="st27">
								<path class="st5" d="M59.1,457.2H25.9v-44.1h33.2V457.2z M26.4,456.7h32.2v-43.1H26.4V456.7z"/>
							</g>
						</g>
					</g>
					<g class="st17">
						<g>
							<defs>
								<rect id="SVGID_137_" x="-7.4" y="368.9" width="33.2" height="44.1"/>
							</defs>
							<clipPath id="SVGID_50_">
								<use xlink:href="#SVGID_137_"  style="overflow:visible;"/>
							</clipPath>
							<g class="st28">
								<rect x="-7.1" y="379.8" class="st5" width="32.7" height="0.5"/>
							</g>
							<g class="st28">
								<rect x="-7.1" y="390.7" class="st5" width="32.7" height="0.5"/>
							</g>
							<g class="st28">
								<rect x="-7.1" y="401.6" class="st5" width="32.7" height="0.5"/>
							</g>
							<g class="st28">
								<rect x="14.5" y="369.2" class="st5" width="0.5" height="43.6"/>
							</g>
							<g class="st28">
								<rect x="3.6" y="369.2" class="st5" width="0.5" height="43.6"/>
							</g>
							<g class="st28">
								<path class="st5" d="M25.9,413.1H-7.4v-44.1l33.2,0V413.1z M-6.8,412.5h32.2v-43.1l-32.2,0V412.5z"/>
							</g>
						</g>
					</g>
					<g class="st17">
						<g>
							<defs>
								<rect id="SVGID_139_" x="-7.4" y="413.1" width="33.2" height="44.1"/>
							</defs>
							<clipPath id="SVGID_52_">
								<use xlink:href="#SVGID_139_"  style="overflow:visible;"/>
							</clipPath>
							<g class="st29">
								<rect x="-7.1" y="424" class="st5" width="32.7" height="0.5"/>
							</g>
							<g class="st29">
								<rect x="-7.1" y="434.9" class="st5" width="32.7" height="0.5"/>
							</g>
							<g class="st29">
								<rect x="-7.1" y="445.8" class="st5" width="32.7" height="0.5"/>
							</g>
							<g class="st29">
								<rect x="14.5" y="413.3" class="st5" width="0.5" height="43.6"/>
							</g>
							<g class="st29">
								<rect x="3.6" y="413.3" class="st5" width="0.5" height="43.6"/>
							</g>
							<g class="st29">
								<path class="st5" d="M25.9,457.2H-7.4v-44.1h33.2V457.2z M-6.8,456.7h32.2v-43.1H-6.8V456.7z"/>
							</g>
						</g>
					</g>
				</g>
			</g>
			<g>
				<g>
					<defs>
						<rect id="SVGID_141_" x="178.1" y="437.2" width="95" height="50"/>
					</defs>
					<clipPath id="SVGID_54_">
						<use xlink:href="#SVGID_141_"  style="overflow:visible;"/>
					</clipPath>
					<g class="st30">
						<g>
							<defs>
								<rect id="SVGID_143_" x="257.4" y="418.9" width="33.2" height="44.1"/>
							</defs>
							<clipPath id="SVGID_56_">
								<use xlink:href="#SVGID_143_"  style="overflow:visible;"/>
							</clipPath>
							<g class="st31">
								<rect x="257.6" y="429.8" class="st5" width="32.7" height="0.5"/>
							</g>
							<g class="st31">
								<rect x="257.6" y="440.7" class="st5" width="32.7" height="0.5"/>
							</g>
							<g class="st31">
								<rect x="257.6" y="451.6" class="st5" width="32.7" height="0.5"/>
							</g>
							<g class="st31">
								<rect x="279.2" y="419.2" class="st5" width="0.5" height="43.6"/>
							</g>
							<g class="st31">
								<rect x="268.3" y="419.2" class="st5" width="0.5" height="43.6"/>
							</g>
							<g class="st31">
								<path class="st5" d="M290.6,463.1h-33.2v-44.1l33.2,0V463.1z M257.9,462.5h32.2v-43.1l-32.2,0V462.5z"/>
							</g>
						</g>
					</g>
					<g class="st30">
						<g>
							<defs>
								<rect id="SVGID_145_" x="257.4" y="463.1" width="33.2" height="44.1"/>
							</defs>
							<clipPath id="SVGID_58_">
								<use xlink:href="#SVGID_145_"  style="overflow:visible;"/>
							</clipPath>
							<g class="st32">
								<rect x="257.6" y="474" class="st5" width="32.7" height="0.5"/>
							</g>
							<g class="st32">
								<rect x="257.6" y="484.9" class="st5" width="32.7" height="0.5"/>
							</g>
							<g class="st32">
								<rect x="257.6" y="495.8" class="st5" width="32.7" height="0.5"/>
							</g>
							<g class="st32">
								<rect x="279.2" y="463.3" class="st5" width="0.5" height="43.6"/>
							</g>
							<g class="st32">
								<rect x="268.3" y="463.3" class="st5" width="0.5" height="43.6"/>
							</g>
							<g class="st32">
								<path class="st5" d="M290.6,507.2h-33.2v-44.1h33.2V507.2z M257.9,506.7h32.2v-43.1h-32.2V506.7z"/>
							</g>
						</g>
					</g>
					<g class="st30">
						<g>
							<defs>
								<rect id="SVGID_147_" x="224.1" y="418.9" width="33.2" height="44.1"/>
							</defs>
							<clipPath id="SVGID_60_">
								<use xlink:href="#SVGID_147_"  style="overflow:visible;"/>
							</clipPath>
							<g class="st33">
								<rect x="224.4" y="429.8" class="st5" width="32.7" height="0.5"/>
							</g>
							<g class="st33">
								<rect x="224.4" y="440.7" class="st5" width="32.7" height="0.5"/>
							</g>
							<g class="st33">
								<rect x="224.4" y="451.6" class="st5" width="32.7" height="0.5"/>
							</g>
							<g class="st33">
								<rect x="245.9" y="419.2" class="st5" width="0.5" height="43.6"/>
							</g>
							<g class="st33">
								<rect x="235" y="419.2" class="st5" width="0.5" height="43.6"/>
							</g>
							<g class="st33">
								<path class="st5" d="M257.4,463.1h-33.2v-44.1l33.2,0V463.1z M224.7,462.5h32.2v-43.1l-32.2,0V462.5z"/>
							</g>
						</g>
					</g>
					<g class="st30">
						<g>
							<defs>
								<rect id="SVGID_149_" x="224.1" y="463.1" width="33.2" height="44.1"/>
							</defs>
							<clipPath id="SVGID_62_">
								<use xlink:href="#SVGID_149_"  style="overflow:visible;"/>
							</clipPath>
							<g class="st34">
								<rect x="224.4" y="474" class="st5" width="32.7" height="0.5"/>
							</g>
							<g class="st34">
								<rect x="224.4" y="484.9" class="st5" width="32.7" height="0.5"/>
							</g>
							<g class="st34">
								<rect x="224.4" y="495.8" class="st5" width="32.7" height="0.5"/>
							</g>
							<g class="st34">
								<rect x="245.9" y="463.3" class="st5" width="0.5" height="43.6"/>
							</g>
							<g class="st34">
								<rect x="235" y="463.3" class="st5" width="0.5" height="43.6"/>
							</g>
							<g class="st34">
								<path class="st5" d="M257.4,507.2h-33.2v-44.1h33.2V507.2z M224.7,506.7h32.2v-43.1h-32.2V506.7z"/>
							</g>
						</g>
					</g>
					<g class="st30">
						<g>
							<defs>
								<rect id="SVGID_151_" x="190.9" y="418.9" width="33.2" height="44.1"/>
							</defs>
							<clipPath id="SVGID_64_">
								<use xlink:href="#SVGID_151_"  style="overflow:visible;"/>
							</clipPath>
							<g class="st35">
								<rect x="191.2" y="429.8" class="st5" width="32.7" height="0.5"/>
							</g>
							<g class="st35">
								<rect x="191.2" y="440.7" class="st5" width="32.7" height="0.5"/>
							</g>
							<g class="st35">
								<rect x="191.2" y="451.6" class="st5" width="32.7" height="0.5"/>
							</g>
							<g class="st35">
								<rect x="212.7" y="419.2" class="st5" width="0.5" height="43.6"/>
							</g>
							<g class="st35">
								<rect x="201.8" y="419.2" class="st5" width="0.5" height="43.6"/>
							</g>
							<g class="st35">
								<path class="st5" d="M224.1,463.1h-33.2v-44.1l33.2,0V463.1z M191.4,462.5h32.2v-43.1l-32.2,0V462.5z"/>
							</g>
						</g>
					</g>
					<g class="st30">
						<g>
							<defs>
								<rect id="SVGID_153_" x="190.9" y="463.1" width="33.2" height="44.1"/>
							</defs>
							<clipPath id="SVGID_66_">
								<use xlink:href="#SVGID_153_"  style="overflow:visible;"/>
							</clipPath>
							<g class="st36">
								<rect x="191.2" y="474" class="st5" width="32.7" height="0.5"/>
							</g>
							<g class="st36">
								<rect x="191.2" y="484.9" class="st5" width="32.7" height="0.5"/>
							</g>
							<g class="st36">
								<rect x="191.2" y="495.8" class="st5" width="32.7" height="0.5"/>
							</g>
							<g class="st36">
								<rect x="212.7" y="463.3" class="st5" width="0.5" height="43.6"/>
							</g>
							<g class="st36">
								<rect x="201.8" y="463.3" class="st5" width="0.5" height="43.6"/>
							</g>
							<g class="st36">
								<path class="st5" d="M224.1,507.2h-33.2v-44.1h33.2V507.2z M191.4,506.7h32.2v-43.1h-32.2V506.7z"/>
							</g>
						</g>
					</g>
					<g class="st30">
						<g>
							<defs>
								<rect id="SVGID_155_" x="157.6" y="418.9" width="33.2" height="44.1"/>
							</defs>
							<clipPath id="SVGID_68_">
								<use xlink:href="#SVGID_155_"  style="overflow:visible;"/>
							</clipPath>
							<g class="st37">
								<rect x="157.9" y="429.8" class="st5" width="32.7" height="0.5"/>
							</g>
							<g class="st37">
								<rect x="157.9" y="440.7" class="st5" width="32.7" height="0.5"/>
							</g>
							<g class="st37">
								<rect x="157.9" y="451.6" class="st5" width="32.7" height="0.5"/>
							</g>
							<g class="st37">
								<rect x="179.5" y="419.2" class="st5" width="0.5" height="43.6"/>
							</g>
							<g class="st37">
								<rect x="168.6" y="419.2" class="st5" width="0.5" height="43.6"/>
							</g>
							<g class="st37">
								<path class="st5" d="M190.9,463.1h-33.2v-44.1l33.2,0V463.1z M158.2,462.5h32.2v-43.1l-32.2,0V462.5z"/>
							</g>
						</g>
					</g>
					<g class="st30">
						<g>
							<defs>
								<rect id="SVGID_157_" x="157.6" y="463.1" width="33.2" height="44.1"/>
							</defs>
							<clipPath id="SVGID_70_">
								<use xlink:href="#SVGID_157_"  style="overflow:visible;"/>
							</clipPath>
							<g class="st38">
								<rect x="157.9" y="474" class="st5" width="32.7" height="0.5"/>
							</g>
							<g class="st38">
								<rect x="157.9" y="484.9" class="st5" width="32.7" height="0.5"/>
							</g>
							<g class="st38">
								<rect x="157.9" y="495.8" class="st5" width="32.7" height="0.5"/>
							</g>
							<g class="st38">
								<rect x="179.5" y="463.3" class="st5" width="0.5" height="43.6"/>
							</g>
							<g class="st38">
								<rect x="168.6" y="463.3" class="st5" width="0.5" height="43.6"/>
							</g>
							<g class="st38">
								<path class="st5" d="M190.9,507.2h-33.2v-44.1h33.2V507.2z M158.2,506.7h32.2v-43.1h-32.2V506.7z"/>
							</g>
						</g>
					</g>
				</g>
			</g>
			<g>
				<g>
					<defs>
						<rect id="SVGID_159_" x="178.1" y="387.2" width="95" height="50"/>
					</defs>
					<clipPath id="SVGID_72_">
						<use xlink:href="#SVGID_159_"  style="overflow:visible;"/>
					</clipPath>
					<g class="st39">
						<g>
							<defs>
								<rect id="SVGID_161_" x="257.4" y="368.9" width="33.2" height="44.1"/>
							</defs>
							<clipPath id="SVGID_74_">
								<use xlink:href="#SVGID_161_"  style="overflow:visible;"/>
							</clipPath>
							<g class="st40">
								<rect x="257.6" y="379.8" class="st5" width="32.7" height="0.5"/>
							</g>
							<g class="st40">
								<rect x="257.6" y="390.7" class="st5" width="32.7" height="0.5"/>
							</g>
							<g class="st40">
								<rect x="257.6" y="401.6" class="st5" width="32.7" height="0.5"/>
							</g>
							<g class="st40">
								<rect x="279.2" y="369.2" class="st5" width="0.5" height="43.6"/>
							</g>
							<g class="st40">
								<rect x="268.3" y="369.2" class="st5" width="0.5" height="43.6"/>
							</g>
							<g class="st40">
								<path class="st5" d="M290.6,413.1h-33.2v-44.1l33.2,0V413.1z M257.9,412.5h32.2v-43.1l-32.2,0V412.5z"/>
							</g>
						</g>
					</g>
					<g class="st39">
						<g>
							<defs>
								<rect id="SVGID_163_" x="257.4" y="413.1" width="33.2" height="44.1"/>
							</defs>
							<clipPath id="SVGID_76_">
								<use xlink:href="#SVGID_163_"  style="overflow:visible;"/>
							</clipPath>
							<g class="st41">
								<rect x="257.6" y="424" class="st5" width="32.7" height="0.5"/>
							</g>
							<g class="st41">
								<rect x="257.6" y="434.9" class="st5" width="32.7" height="0.5"/>
							</g>
							<g class="st41">
								<rect x="257.6" y="445.8" class="st5" width="32.7" height="0.5"/>
							</g>
							<g class="st41">
								<rect x="279.2" y="413.3" class="st5" width="0.5" height="43.6"/>
							</g>
							<g class="st41">
								<rect x="268.3" y="413.3" class="st5" width="0.5" height="43.6"/>
							</g>
							<g class="st41">
								<path class="st5" d="M290.6,457.2h-33.2v-44.1h33.2V457.2z M257.9,456.7h32.2v-43.1h-32.2V456.7z"/>
							</g>
						</g>
					</g>
					<g class="st39">
						<g>
							<defs>
								<rect id="SVGID_165_" x="224.1" y="368.9" width="33.2" height="44.1"/>
							</defs>
							<clipPath id="SVGID_78_">
								<use xlink:href="#SVGID_165_"  style="overflow:visible;"/>
							</clipPath>
							<g class="st42">
								<rect x="224.4" y="379.8" class="st5" width="32.7" height="0.5"/>
							</g>
							<g class="st42">
								<rect x="224.4" y="390.7" class="st5" width="32.7" height="0.5"/>
							</g>
							<g class="st42">
								<rect x="224.4" y="401.6" class="st5" width="32.7" height="0.5"/>
							</g>
							<g class="st42">
								<rect x="245.9" y="369.2" class="st5" width="0.5" height="43.6"/>
							</g>
							<g class="st42">
								<rect x="235" y="369.2" class="st5" width="0.5" height="43.6"/>
							</g>
							<g class="st42">
								<path class="st5" d="M257.4,413.1h-33.2v-44.1l33.2,0V413.1z M224.7,412.5h32.2v-43.1l-32.2,0V412.5z"/>
							</g>
						</g>
					</g>
					<g class="st39">
						<g>
							<defs>
								<rect id="SVGID_167_" x="224.1" y="413.1" width="33.2" height="44.1"/>
							</defs>
							<clipPath id="SVGID_80_">
								<use xlink:href="#SVGID_167_"  style="overflow:visible;"/>
							</clipPath>
							<g class="st43">
								<rect x="224.4" y="424" class="st5" width="32.7" height="0.5"/>
							</g>
							<g class="st43">
								<rect x="224.4" y="434.9" class="st5" width="32.7" height="0.5"/>
							</g>
							<g class="st43">
								<rect x="224.4" y="445.8" class="st5" width="32.7" height="0.5"/>
							</g>
							<g class="st43">
								<rect x="245.9" y="413.3" class="st5" width="0.5" height="43.6"/>
							</g>
							<g class="st43">
								<rect x="235" y="413.3" class="st5" width="0.5" height="43.6"/>
							</g>
							<g class="st43">
								<path class="st5" d="M257.4,457.2h-33.2v-44.1h33.2V457.2z M224.7,456.7h32.2v-43.1h-32.2V456.7z"/>
							</g>
						</g>
					</g>
					<g class="st39">
						<g>
							<defs>
								<rect id="SVGID_169_" x="190.9" y="368.9" width="33.2" height="44.1"/>
							</defs>
							<clipPath id="SVGID_82_">
								<use xlink:href="#SVGID_169_"  style="overflow:visible;"/>
							</clipPath>
							<g class="st44">
								<rect x="191.2" y="379.8" class="st5" width="32.7" height="0.5"/>
							</g>
							<g class="st44">
								<rect x="191.2" y="390.7" class="st5" width="32.7" height="0.5"/>
							</g>
							<g class="st44">
								<rect x="191.2" y="401.6" class="st5" width="32.7" height="0.5"/>
							</g>
							<g class="st44">
								<rect x="212.7" y="369.2" class="st5" width="0.5" height="43.6"/>
							</g>
							<g class="st44">
								<rect x="201.8" y="369.2" class="st5" width="0.5" height="43.6"/>
							</g>
							<g class="st44">
								<path class="st5" d="M224.1,413.1h-33.2v-44.1l33.2,0V413.1z M191.4,412.5h32.2v-43.1l-32.2,0V412.5z"/>
							</g>
						</g>
					</g>
					<g class="st39">
						<g>
							<defs>
								<rect id="SVGID_171_" x="190.9" y="413.1" width="33.2" height="44.1"/>
							</defs>
							<clipPath id="SVGID_84_">
								<use xlink:href="#SVGID_171_"  style="overflow:visible;"/>
							</clipPath>
							<g class="st45">
								<rect x="191.2" y="424" class="st5" width="32.7" height="0.5"/>
							</g>
							<g class="st45">
								<rect x="191.2" y="434.9" class="st5" width="32.7" height="0.5"/>
							</g>
							<g class="st45">
								<rect x="191.2" y="445.8" class="st5" width="32.7" height="0.5"/>
							</g>
							<g class="st45">
								<rect x="212.7" y="413.3" class="st5" width="0.5" height="43.6"/>
							</g>
							<g class="st45">
								<rect x="201.8" y="413.3" class="st5" width="0.5" height="43.6"/>
							</g>
							<g class="st45">
								<path class="st5" d="M224.1,457.2h-33.2v-44.1h33.2V457.2z M191.4,456.7h32.2v-43.1h-32.2V456.7z"/>
							</g>
						</g>
					</g>
					<g class="st39">
						<g>
							<defs>
								<rect id="SVGID_173_" x="157.6" y="368.9" width="33.2" height="44.1"/>
							</defs>
							<clipPath id="SVGID_86_">
								<use xlink:href="#SVGID_173_"  style="overflow:visible;"/>
							</clipPath>
							<g class="st46">
								<rect x="157.9" y="379.8" class="st5" width="32.7" height="0.5"/>
							</g>
							<g class="st46">
								<rect x="157.9" y="390.7" class="st5" width="32.7" height="0.5"/>
							</g>
							<g class="st46">
								<rect x="157.9" y="401.6" class="st5" width="32.7" height="0.5"/>
							</g>
							<g class="st46">
								<rect x="179.5" y="369.2" class="st5" width="0.5" height="43.6"/>
							</g>
							<g class="st46">
								<rect x="168.6" y="369.2" class="st5" width="0.5" height="43.6"/>
							</g>
							<g class="st46">
								<path class="st5" d="M190.9,413.1h-33.2v-44.1l33.2,0V413.1z M158.2,412.5h32.2v-43.1l-32.2,0V412.5z"/>
							</g>
						</g>
					</g>
					<g class="st39">
						<g>
							<defs>
								<rect id="SVGID_175_" x="157.6" y="413.1" width="33.2" height="44.1"/>
							</defs>
							<clipPath id="SVGID_88_">
								<use xlink:href="#SVGID_175_"  style="overflow:visible;"/>
							</clipPath>
							<g class="st47">
								<rect x="157.9" y="424" class="st5" width="32.7" height="0.5"/>
							</g>
							<g class="st47">
								<rect x="157.9" y="434.9" class="st5" width="32.7" height="0.5"/>
							</g>
							<g class="st47">
								<rect x="157.9" y="445.8" class="st5" width="32.7" height="0.5"/>
							</g>
							<g class="st47">
								<rect x="179.5" y="413.3" class="st5" width="0.5" height="43.6"/>
							</g>
							<g class="st47">
								<rect x="168.6" y="413.3" class="st5" width="0.5" height="43.6"/>
							</g>
							<g class="st47">
								<path class="st5" d="M190.9,457.2h-33.2v-44.1h33.2V457.2z M158.2,456.7h32.2v-43.1h-32.2V456.7z"/>
							</g>
						</g>
					</g>
				</g>
			</g>
		</g>
		<g>
			<g>
				<g>
					<g>
						<path class="st48" d="M94.6,408.5c-0.7,1.1-1.5,2.1-2.2,2.9c-0.2-0.2-0.7-0.5-0.9-0.6c1.3-1.1,2.5-2.9,3.2-4.7l1,0.3
							c-0.2,0.4-0.4,0.8-0.6,1.2h8.6v0.9H94.6z M102.2,414c-0.1,0.9-0.1,1.7-0.2,2.2h1.7v0.9h-1.8c-0.1,0.7-0.3,1.1-0.4,1.3
							c-0.3,0.3-0.6,0.5-1,0.5c-0.4,0-1.1,0-1.8,0c0-0.2-0.1-0.6-0.3-0.8c0.7,0.1,1.4,0.1,1.6,0.1c0.3,0,0.4,0,0.5-0.2
							c0.1-0.1,0.2-0.4,0.3-0.8h-8c0.2-0.9,0.4-2,0.5-3.2h-2v-1h2.1c0.1-1.1,0.3-2.2,0.4-3.1h8.4c0,0,0,0.4,0,0.5
							c0,1-0.1,1.8-0.1,2.6h2v1H102.2z M101,416.2c0.1-0.6,0.1-1.3,0.2-2.3h-6.7c-0.1,0.8-0.2,1.6-0.4,2.3h4.3
							c-0.6-0.5-1.6-1.2-2.5-1.7l0.6-0.6c1,0.4,2.1,1.2,2.7,1.8l-0.5,0.5H101z M94.9,410.9c-0.1,0.7-0.2,1.5-0.3,2.2h4.2
							c-0.5-0.5-1.6-1.2-2.5-1.6l0.6-0.6c0.9,0.4,2,1,2.5,1.5l-0.6,0.6h2.4c0-0.7,0.1-1.4,0.1-2.2H94.9z"/>
						<path class="st48" d="M116.6,417.5c0,0.7-0.2,1.1-0.7,1.3c-0.5,0.2-1.5,0.2-3,0.2c-0.1-0.3-0.3-0.8-0.4-1.1c1.2,0,2.3,0,2.6,0
							c0.3,0,0.4-0.1,0.4-0.4v-2.8h-6.7c-0.4,1.6-1.1,3.2-2.4,4.4c-0.1-0.2-0.6-0.6-0.8-0.8c2.2-2,2.5-4.8,2.5-7v-4.3h8.5V417.5z
							 M115.5,413.6v-2.4h-6.4c0,0.7,0,1.5-0.2,2.4H115.5z M109.1,407.9v2.3h6.4v-2.3H109.1z"/>
						<path class="st48" d="M132.3,408.3v2.9h-1v-2h-9.7v2h-1v-2.9h2.2c-0.3-0.5-0.7-1.1-1.1-1.6l0.9-0.4c0.5,0.5,1,1.2,1.2,1.7
							l-0.5,0.2h2.5v-2.1h1v2.1h2.4l-0.4-0.2c0.4-0.5,1-1.3,1.2-1.9l1.1,0.4c-0.4,0.6-0.9,1.2-1.3,1.7H132.3z M121.6,414h9.9v5h-1
							v-0.4h-7.9v0.4h-1V414z M122.6,414.8v1.1h3.4v-1.1H122.6z M125.9,417.8v-1.1h-3.4v1.1H125.9z M130.1,410.2v2.9h-7.3v-2.9
							H130.1z M129.1,411h-5.3v1.3h5.3V411z M130.5,414.8h-3.5v1.1h3.5V414.8z M130.5,417.8v-1.1h-3.5v1.1H130.5z"/>
						<path class="st48" d="M141.1,415.6h-6.8v-0.9h1.4V409h-1.2V408h1.2v-1.7h1v1.7h2.5v-1.7h1v1.7h1v0.9h-1v5.7h1V415.6z
							 M137.2,416.2c-0.5,1.1-1.3,2.1-2.1,2.8c-0.2-0.2-0.6-0.5-0.8-0.6c0.8-0.6,1.5-1.6,1.9-2.5L137.2,416.2z M136.6,409v1.2h2.5
							V409H136.6z M136.6,412.4h2.5V411h-2.5V412.4z M136.6,414.7h2.5v-1.4h-2.5V414.7z M139,415.9c0.6,0.6,1.2,1.5,1.5,2.1
							l-0.8,0.5c-0.3-0.6-0.9-1.5-1.4-2.1L139,415.9z M146.7,417.6c0,0.6-0.2,0.9-0.5,1.1c-0.4,0.2-1.1,0.2-2.1,0.2
							c0-0.3-0.2-0.7-0.3-1c0.7,0,1.4,0,1.6,0c0.2,0,0.3-0.1,0.3-0.3v-3.4h-3c-0.1,1.7-0.5,3.4-1.3,4.8c-0.2-0.2-0.6-0.5-0.8-0.6
							c1.2-1.8,1.3-4.5,1.3-6.5v-5.1h4.8V417.6z M145.7,413.3V411h-2.9v0.9c0,0.4,0,0.9,0,1.4H145.7z M142.8,407.8v2.2h2.9v-2.2
							H142.8z"/>
						<path class="st48" d="M151.1,411.9c-0.2-0.3-0.4-0.6-0.7-0.9c-0.3,0.7-0.7,1.4-1.1,1.9c-0.1-0.2-0.5-0.5-0.7-0.6
							c0.8-0.8,1.3-2.1,1.6-3.5l0.9,0.2c-0.1,0.4-0.2,0.8-0.3,1.2c0.4,0.4,0.8,0.8,1,1.1L151.1,411.9z M152.5,413.6h2.5v0.9h-2.5
							v4.4h-1v-4.4h-2.8v-0.9h2.8v-1h0.4c-0.2-0.2-0.4-0.4-0.6-0.5c0.8-0.8,1.3-1.9,1.6-3.2l0.9,0.2c-0.1,0.4-0.2,0.9-0.4,1.3
							c0.5,0.5,1.1,1.2,1.4,1.7l-0.6,0.5c-0.2-0.4-0.7-1-1.1-1.5c-0.3,0.6-0.6,1.1-1,1.5h0.5V413.6z M150.9,415.6
							c-0.3,1-0.8,2-1.4,2.6c-0.2-0.1-0.6-0.4-0.8-0.5c0.6-0.6,1-1.5,1.3-2.3L150.9,415.6z M154.9,408.7h-6.1v-0.9h2.9
							c-0.2-0.4-0.4-0.9-0.6-1.2l0.9-0.3c0.3,0.5,0.6,1.1,0.8,1.5l-0.1,0h2.2V408.7z M153.8,415.3c0.5,0.7,1,1.7,1.2,2.3l-0.8,0.3
							c-0.2-0.6-0.7-1.7-1.2-2.4L153.8,415.3z M161.4,418.3h-4.8v0.7h-1v-7.9c-0.2,0.3-0.4,0.6-0.5,0.8c-0.2-0.2-0.6-0.5-0.8-0.7
							c1-1.2,1.8-3.1,2.3-5l1,0.2c-0.2,0.8-0.5,1.6-0.8,2.4h4.6v1h-1.9v1.9h1.8v0.9h-1.8v1.9h1.8v0.9h-1.8v1.9h2V418.3z
							 M158.4,409.8h-1.8v1.9h1.8V409.8z M158.4,412.6h-1.8v1.9h1.8V412.6z M156.6,417.3h1.8v-1.9h-1.8V417.3z M158.8,408.7
							c-0.2-0.5-0.6-1.4-0.9-2l0.9-0.3c0.4,0.6,0.8,1.4,1,2L158.8,408.7z"/>
						<path class="st48" d="M167.5,409.4h-4.6v-0.9h4.6V409.4z M163.5,411.2v-0.8h3.7v0.8H163.5z M167.1,413h-3.7v-0.8h3.7V413z
							 M167.2,418.1h-2.9v0.7h-0.8v-4.7h3.7V418.1z M165.5,408.4c-0.2-0.5-0.8-1.3-1.2-1.9l0.8-0.4c0.5,0.6,1,1.3,1.2,1.8
							L165.5,408.4z M164.3,415v2.3h2V415H164.3z M167.5,417.3c0.5-0.7,0.7-2,0.9-3.1l0.8,0.3c-0.1,1.1-0.4,2.5-0.9,3.4L167.5,417.3
							z M171,409.2h-3.1v-1h3.1v-2h1v2h3.5v1H172v2.1h3.2v1h-7.1v-1h2.8V409.2z M172.4,417.6c0.4,0,0.4-0.2,0.5-1.9
							c0.2,0.2,0.6,0.3,0.9,0.4c-0.1,1.9-0.4,2.4-1.3,2.4h-1.5c-1,0-1.3-0.3-1.3-1.3v-3.5h1v3.5c0,0.3,0.1,0.4,0.4,0.4H172.4z
							 M172.5,414.7c-0.4-0.5-1.3-1.3-2.1-1.9l0.7-0.6c0.8,0.5,1.7,1.2,2.1,1.8L172.5,414.7z M174.3,414.1c0.7,1,1.2,2.3,1.4,3.2
							l-0.9,0.4c-0.2-0.9-0.7-2.2-1.3-3.2L174.3,414.1z"/>
						<path class="st48" d="M180.4,416.7l0.6-0.8c0.6,0.6,1.4,1.2,2.5,1.2c1.2,0,2.1-0.7,2.1-1.9c0-1.2-0.8-2.1-3.2-2.1v-1
							c2.1,0,2.8-0.9,2.8-2c0-1-0.7-1.6-1.7-1.7c-0.8,0-1.6,0.4-2.1,1l-0.7-0.8c0.8-0.7,1.7-1.2,2.9-1.2c1.7,0,3,0.9,3,2.6
							c0,1.2-0.7,2.1-1.8,2.5v0.1c1.2,0.3,2.2,1.2,2.2,2.6c0,1.8-1.5,2.9-3.3,2.9C182.1,418.1,181.1,417.4,180.4,416.7z"/>
						<path class="st48" d="M200.3,410.2c1,2.4,2.8,4.6,4.7,5.7c-0.3,0.2-0.6,0.6-0.8,0.9c-2.1-1.3-3.9-3.8-4.9-6.6h-0.2v5.2h3.2v1
							h-3.2v2.6H198v-2.6h-3.2v-1h3.2v-5.2h-0.2c-1.1,2.7-2.9,5.2-4.9,6.6c-0.2-0.3-0.5-0.6-0.7-0.8c1.8-1.1,3.6-3.4,4.6-5.8h-4.2
							v-1h5.5v-2.9h1.1v2.9h5.5v1H200.3z"/>
					</g>
					<path class="st48" d="M84.4,412.3c0,1.1-0.9,2-2,2c-1.1,0-2-0.9-2-2c0-1.1,0.9-2,2-2C83.5,410.3,84.4,411.2,84.4,412.3z"/>
				</g>
				<g>
					<g>
						<path class="st48" d="M88.8,435.2c-0.2-0.4-0.6-1.3-1-2v7.1h-1v-7.1c-0.5,1.6-1.1,3.2-1.8,4.2c-0.1-0.3-0.4-0.8-0.6-1
							c0.9-1.1,1.8-3.4,2.2-5.2h-1.8v-1h2v-2.7h1v2.7h1.5v1h-1.5v0.7c0.4,0.5,1.4,2.1,1.6,2.5L88.8,435.2z M91.7,437.5
							c-0.5,1-1.3,1.9-2,2.5c-0.2-0.2-0.6-0.4-0.8-0.5c0.8-0.6,1.5-1.4,1.9-2.3L91.7,437.5z M91.7,429.1h-2.4v-0.9h7.8v0.9h-2.5v0.9
							h2.3v3.3h-7.3v-3.3h2.1V429.1z M93.6,436.7v3.7h-0.9v-3.7h-3.3v-0.9h7.8v0.9H93.6z M90.2,434.9v-0.8h6v0.8H90.2z M90.5,432.5
							h1.2v-1.7h-1.2V432.5z M93.8,429.1h-1.3v0.9h1.3V429.1z M92.5,432.5h1.3v-1.7h-1.3V432.5z M94.6,430.9v1.7H96v-1.7H94.6z
							 M95.4,437.2c0.7,0.7,1.5,1.7,1.9,2.3l-0.8,0.5c-0.4-0.7-1.1-1.6-1.8-2.4L95.4,437.2z"/>
						<path class="st48" d="M99,429.9h5.2l0,0.9H99V429.9z M99.5,433.8h4.3v0.8h-4.3V433.8z M103.8,431.8v0.8h-4.1v-0.8H103.8z
							 M103.8,439.5h-3.1v0.7h-1v-4.6h4V439.5z M101.6,429.8c-0.1-0.5-0.5-1.2-0.9-1.8l0.8-0.4c0.4,0.5,0.8,1.2,1,1.7L101.6,429.8z
							 M100.7,436.5v2.2h2.1v-2.2H100.7z M111.7,438.8v1h-7.4v-1h3.1v-3.6h-2.6v-1h2.6v-2.9h-2.8v-1h6.9v1h-3.1v2.9h2.7v1h-2.7v3.6
							H111.7z M107.7,430.3c-0.2-0.6-0.8-1.5-1.4-2.2l0.8-0.4c0.6,0.7,1.2,1.6,1.5,2.2L107.7,430.3z"/>
						<path class="st48" d="M125.6,435.6c-0.3,2.9-0.5,4-1,4.5c-0.2,0.3-0.5,0.3-0.9,0.4c-0.4,0-1,0-1.7,0c0-0.3-0.1-0.7-0.3-0.9
							c0.7,0.1,1.3,0.1,1.6,0.1c0.2,0,0.4,0,0.5-0.1c0.3-0.3,0.5-1.2,0.7-3.3h-8.4c-0.7,0.6-1.6,1.2-2.5,1.7
							c-0.1-0.3-0.4-0.7-0.6-0.9c2.6-1.3,4.5-3.4,5.9-5.8h-5v-0.9h2.8c-0.2-0.6-0.6-1.4-1.1-2l0.9-0.3c0.5,0.6,1,1.5,1.1,2l-0.8,0.3
							h2.5c0.4-0.8,0.7-1.6,1-2.5l1,0.3c-0.3,0.7-0.6,1.5-0.9,2.2h2.9c-0.1,0.8-0.3,1.8-0.5,2.5h1.6c-0.1,0.8-0.3,1.8-0.4,2.5h1.4
							L125.6,435.6z M113.8,439.7c0.9-0.6,1.4-1.8,1.6-2.9l0.9,0.3c-0.3,1.2-0.8,2.4-1.7,3.1L113.8,439.7z M118.6,433.5
							c-0.4,0.6-0.9,1.1-1.4,1.6h6.1c0.1-0.5,0.2-1.1,0.3-1.6H118.6z M118.1,437.1c0.3,0.8,0.4,1.9,0.4,2.5l-0.9,0.1
							c0-0.7-0.1-1.7-0.3-2.6L118.1,437.1z M120.2,431c-0.3,0.5-0.6,1.1-1,1.6h2.9c0.1-0.5,0.2-1,0.3-1.6H120.2z M120.2,436.9
							c0.4,0.7,0.7,1.6,0.8,2.3l-0.9,0.2c-0.1-0.6-0.4-1.6-0.7-2.3L120.2,436.9z M122.4,438.7c-0.2-0.5-0.6-1.3-1-1.9l0.7-0.3
							c0.4,0.6,0.9,1.3,1.1,1.8L122.4,438.7z"/>
						<path class="st48" d="M130,433.3c-0.2-0.3-0.4-0.6-0.7-0.9c-0.3,0.7-0.7,1.4-1.1,1.9c-0.1-0.2-0.5-0.5-0.7-0.6
							c0.8-0.8,1.3-2.1,1.6-3.5l0.9,0.2c-0.1,0.4-0.2,0.8-0.3,1.2c0.4,0.4,0.8,0.8,1,1.1L130,433.3z M131.4,435.1h2.5v0.9h-2.5v4.4
							h-1V436h-2.8v-0.9h2.8v-1h0.4c-0.2-0.2-0.4-0.4-0.6-0.5c0.8-0.8,1.3-1.9,1.6-3.2l0.9,0.2c-0.1,0.4-0.2,0.9-0.4,1.3
							c0.5,0.5,1.1,1.2,1.4,1.7L133,434c-0.2-0.4-0.7-1-1.1-1.5c-0.3,0.6-0.6,1.1-1,1.5h0.5V435.1z M129.8,437c-0.3,1-0.8,2-1.4,2.6
							c-0.2-0.1-0.6-0.4-0.8-0.5c0.6-0.6,1-1.5,1.3-2.3L129.8,437z M133.8,430.1h-6.1v-0.9h2.9c-0.2-0.4-0.4-0.9-0.6-1.2l0.9-0.3
							c0.3,0.5,0.6,1.1,0.8,1.5l-0.1,0h2.2V430.1z M132.7,436.8c0.5,0.7,1,1.7,1.2,2.3l-0.8,0.3c-0.2-0.6-0.7-1.7-1.2-2.4
							L132.7,436.8z M140.2,439.7h-4.8v0.7h-1v-7.9c-0.2,0.3-0.4,0.6-0.5,0.8c-0.2-0.2-0.6-0.5-0.8-0.7c1-1.2,1.8-3.1,2.3-5l1,0.2
							c-0.2,0.8-0.5,1.6-0.8,2.4h4.6v1h-1.9v1.9h1.8v0.9h-1.8v1.9h1.8v0.9h-1.8v1.9h2V439.7z M137.3,431.2h-1.8v1.9h1.8V431.2z
							 M137.3,434h-1.8v1.9h1.8V434z M135.5,438.7h1.8v-1.9h-1.8V438.7z M137.7,430.1c-0.2-0.5-0.6-1.4-0.9-2l0.9-0.3
							c0.4,0.6,0.8,1.4,1,2L137.7,430.1z"/>
						<path class="st48" d="M146.4,430.9h-4.6V430h4.6V430.9z M142.3,432.7v-0.8h3.7v0.8H142.3z M146,434.5h-3.7v-0.8h3.7V434.5z
							 M146.1,439.6h-2.9v0.7h-0.8v-4.7h3.7V439.6z M144.4,429.9c-0.2-0.5-0.8-1.3-1.2-1.9l0.8-0.4c0.5,0.6,1,1.3,1.2,1.8
							L144.4,429.9z M143.2,436.4v2.3h2v-2.3H143.2z M146.4,438.7c0.5-0.7,0.7-2,0.9-3.1l0.8,0.3c-0.1,1.1-0.4,2.5-0.9,3.4
							L146.4,438.7z M149.9,430.6h-3.1v-1h3.1v-2h1v2h3.5v1h-3.5v2.1h3.2v1h-7.1v-1h2.8V430.6z M151.3,439c0.4,0,0.4-0.2,0.5-1.9
							c0.2,0.2,0.6,0.3,0.9,0.4c-0.1,1.9-0.4,2.4-1.3,2.4h-1.5c-1,0-1.3-0.3-1.3-1.3v-3.5h1v3.5c0,0.3,0.1,0.4,0.4,0.4H151.3z
							 M151.4,436.1c-0.4-0.5-1.3-1.3-2.1-1.9l0.7-0.6c0.8,0.5,1.7,1.2,2.1,1.8L151.4,436.1z M153.2,435.5c0.7,1,1.2,2.3,1.4,3.2
							l-0.9,0.4c-0.2-0.9-0.7-2.2-1.3-3.2L153.2,435.5z"/>
						<path class="st48" d="M160,427.8c-0.2,0.7-0.5,1.5-0.7,2.1h2.3v9.1h-3.9v1.1h-1v-10.2h1.6c0.2-0.7,0.5-1.6,0.6-2.3L160,427.8z
							 M160.6,430.8h-2.9v2.9h2.9V430.8z M160.6,438v-3.4h-2.9v3.4H160.6z M168.4,430.3c-0.2,6.4-0.4,8.5-1,9.2
							c-0.3,0.4-0.6,0.5-1.1,0.6c-0.5,0.1-1.3,0-2.1,0c0-0.3-0.2-0.7-0.4-1c0.9,0.1,1.8,0.1,2.1,0.1c0.3,0,0.4,0,0.6-0.2
							c0.5-0.5,0.7-2.6,0.9-8.2h-3.6c-0.4,0.9-0.8,1.8-1.3,2.5c-0.2-0.2-0.6-0.4-0.9-0.6c0.9-1.2,1.7-3.2,2.1-5.1l1,0.2
							c-0.2,0.7-0.4,1.4-0.6,2h4.2V430.3z M165.3,436.7c-0.4-0.8-1.4-2.2-2.1-3.2l0.8-0.5c0.8,1,1.8,2.3,2.2,3.2L165.3,436.7z"/>
						<path class="st48" d="M173.1,430.8c-0.2,1.2-0.8,2-2.2,2.6c-0.1-0.2-0.4-0.5-0.6-0.7c1.2-0.4,1.7-1,1.9-1.9h-1.7v-0.7h2.8
							v-0.9H172c-0.1,0.3-0.3,0.5-0.5,0.7c-0.2-0.2-0.5-0.3-0.7-0.4c0.5-0.5,0.8-1.2,1-1.8l0.8,0.1c-0.1,0.2-0.2,0.4-0.2,0.7h1.1
							v-0.9h0.9v0.9h1.9v0.7h-1.9v0.9h2.3v0.7H175v1l1.7-0.4c0,0.2,0,0.5,0,0.7c-2.2,0.5-2.5,0.6-2.7,0.8v0c0-0.2-0.2-0.5-0.3-0.7
							c0.2-0.1,0.5-0.3,0.5-0.9v-0.6H173.1z M175.7,439c-1.1,0.6-2.9,1.1-4.3,1.5c-0.2-0.2-0.5-0.6-0.8-0.8c1.5-0.3,3.2-0.7,4.1-1.1
							L175.7,439z M172.3,433.1h9v5.4h-9V433.1z M173.4,434.7h7v-0.9h-7V434.7z M173.4,436.3h7v-0.9h-7V436.3z M173.4,437.8h7v-0.9
							h-7V437.8z M178,429.3c-0.1,0.2-0.3,0.4-0.5,0.7c-0.2-0.2-0.5-0.3-0.7-0.4c0.5-0.5,0.9-1.2,1-1.8l0.8,0.1
							c-0.1,0.2-0.2,0.5-0.3,0.7h1v-1h0.9v1h2.2v0.7h-2.2v0.8h2.7v0.7H181v1.1c0,0.3,0,0.3,0.3,0.3h0.8c0.2,0,0.3-0.1,0.3-0.8
							c0.2,0.1,0.5,0.3,0.7,0.3c-0.1,1-0.3,1.2-0.9,1.2h-1c-0.8,0-1-0.2-1-1v-1.1h-0.9c-0.2,1.1-0.8,1.8-2.2,2.3
							c-0.1-0.2-0.3-0.5-0.5-0.7c1.1-0.3,1.6-0.8,1.8-1.6h-1.5v-0.7h2.5v-0.8H178z M178.7,438.6c1.6,0.4,3.3,0.9,4.3,1.3l-1.1,0.5
							c-0.9-0.4-2.4-0.9-4-1.3L178.7,438.6z"/>
						<path class="st48" d="M191,437.6c-2.2,0.5-4.5,1.1-6.2,1.4l-0.2-1.1l1-0.2v-9.5h4.6v8.5l0.8-0.2L191,437.6z M186.5,429.3v2
							h2.6v-2H186.5z M189.2,432.2h-2.6v2h2.6V432.2z M186.5,437.6c0.8-0.2,1.7-0.4,2.6-0.6v-1.8h-2.6V437.6z M197,430.8
							c0,0,0,0.4,0,0.5c-0.1,5.9-0.3,7.9-0.7,8.5c-0.3,0.4-0.6,0.5-1,0.5c-0.4,0-1.2,0-1.9,0c0-0.3-0.1-0.7-0.3-1
							c0.8,0.1,1.5,0.1,1.8,0.1c0.2,0,0.4,0,0.5-0.2c0.4-0.4,0.5-2.3,0.6-7.4h-2.2c-0.2,3.6-1,6.8-3.8,8.7c-0.2-0.3-0.5-0.6-0.8-0.8
							c2.7-1.7,3.4-4.6,3.6-7.9h-2.2v-1h2.3c0-1,0-2.1,0-3.2h1c0,1.1,0,2.1,0,3.2H197z"/>
						<path class="st48" d="M206.3,433c-0.7,0.5-1.5,1-2.3,1.5h5.8v5.9h-1.1V440h-5.7v0.4h-1v-4.8c-0.8,0.4-1.7,0.8-2.6,1.1
							c-0.1-0.2-0.5-0.6-0.7-0.9c2-0.7,4-1.6,5.8-2.8h-5.4v-0.9h4.8v-1.8h-3.6v-0.9h3.6v-1.8h1v1.8h3.5v0.6c0.6-0.6,1.1-1.2,1.6-1.8
							l0.9,0.5c-1,1.3-2.1,2.5-3.4,3.5h4v0.9H206.3z M208.8,435.4h-5.7v1.4h5.7V435.4z M208.8,439v-1.5h-5.7v1.5H208.8z M206,432.1
							c0.8-0.6,1.5-1.2,2.1-1.8H205v1.8H206z"/>
					</g>
					<path class="st48" d="M77.6,433.7c0,1.1-0.9,2-2,2c-1.1,0-2-0.9-2-2c0-1.1,0.9-2,2-2C76.7,431.7,77.6,432.6,77.6,433.7z"/>
				</g>
				<g>
					<g>
						<path class="st48" d="M57.4,458.8c-0.3,1.1-0.9,2.3-1.6,3c-0.2-0.2-0.6-0.4-0.8-0.6c0.6-0.7,1.1-1.7,1.4-2.7L57.4,458.8z
							 M59.7,458.3h-3.9v-8.8h3.9V458.3z M58.8,450.4h-2.1v1.8h2.1V450.4z M58.8,453h-2.1v1.8h2.1V453z M58.8,455.7h-2.1v1.8h2.1
							V455.7z M59,458.6c0.5,0.7,0.9,1.6,1.2,2.2l-0.8,0.4c-0.2-0.6-0.7-1.5-1.1-2.2L59,458.6z M68,459.5h-0.8v1.2
							c0,0.5-0.1,0.8-0.5,0.9c-0.4,0.1-1,0.1-2,0.1c0-0.2-0.2-0.6-0.3-0.8c0.7,0,1.4,0,1.6,0c0.2,0,0.2-0.1,0.2-0.2v-1.2h-4.4v2.3
							h-0.9v-2.3h-0.9v-0.8h0.9v-3.6h2.6v-0.8H60v-0.8h2v-0.9h-1.3v-0.8H62V451h-1.7v-0.8H62v-1.2h0.9v1.2H65v-1.2h0.9v1.2h1.7v0.8
							h-1.7v0.8h1.5v0.8h-1.5v0.9h2v0.8h-3.5v0.8h2.7v3.6H68V459.5z M61.8,456v1h1.7v-1H61.8z M61.8,458.7h1.7v-1.1h-1.7V458.7z
							 M62.9,451.9H65V451h-2.1V451.9z M62.9,453.6H65v-0.9h-2.1V453.6z M64.4,456v1h1.8v-1H64.4z M66.2,458.7v-1.1h-1.8v1.1H66.2z"
							/>
						<path class="st48" d="M74.7,460.2c-1.1,0.7-2.9,1.3-4.3,1.7c-0.2-0.2-0.5-0.6-0.8-0.8c1.5-0.3,3.2-0.8,4.2-1.4L74.7,460.2z
							 M81.3,449.7v3.1H70.5v-3.1H81.3z M80.5,453.6v6h-9.1v-6H80.5z M71.5,452h2.3v-1.5h-2.3V452z M72.4,455.4h7v-1h-7V455.4z
							 M72.4,457.1h7v-1h-7V457.1z M72.4,458.9h7v-1.1h-7V458.9z M74.7,452H77v-1.5h-2.3V452z M77.8,459.7c1.6,0.5,3.3,1.1,4.4,1.6
							l-1.1,0.6c-0.9-0.4-2.5-1.1-4.1-1.6L77.8,459.7z M77.9,452h2.4v-1.5h-2.4V452z"/>
						<path class="st48" d="M86.3,454.8c-0.2-0.3-0.4-0.6-0.7-0.9c-0.3,0.7-0.7,1.4-1.1,1.9c-0.1-0.2-0.5-0.5-0.7-0.6
							c0.8-0.8,1.3-2.1,1.6-3.5l0.9,0.2c-0.1,0.4-0.2,0.8-0.3,1.2c0.4,0.4,0.8,0.8,1,1.1L86.3,454.8z M87.7,456.5h2.5v0.9h-2.5v4.4
							h-1v-4.4h-2.8v-0.9h2.8v-1H87c-0.2-0.2-0.4-0.4-0.6-0.5c0.8-0.8,1.3-1.9,1.6-3.2l0.9,0.2c-0.1,0.4-0.2,0.9-0.4,1.3
							c0.5,0.5,1.1,1.2,1.4,1.7l-0.6,0.5c-0.2-0.4-0.7-1-1.1-1.5c-0.3,0.6-0.6,1.1-1,1.5h0.5V456.5z M86.1,458.4
							c-0.3,1-0.8,2-1.4,2.6c-0.2-0.1-0.6-0.4-0.8-0.5c0.6-0.6,1-1.5,1.3-2.3L86.1,458.4z M90.1,451.5H84v-0.9h2.9
							c-0.2-0.4-0.4-0.9-0.6-1.2l0.9-0.3c0.3,0.5,0.6,1.1,0.8,1.5l-0.1,0h2.2V451.5z M88.9,458.2c0.5,0.7,1,1.7,1.2,2.3l-0.8,0.3
							c-0.2-0.6-0.7-1.7-1.2-2.4L88.9,458.2z M96.5,461.1h-4.8v0.7h-1v-7.9c-0.2,0.3-0.4,0.6-0.5,0.8c-0.2-0.2-0.6-0.5-0.8-0.7
							c1-1.2,1.8-3.1,2.3-5l1,0.2c-0.2,0.8-0.5,1.6-0.8,2.4h4.6v1h-1.9v1.9h1.8v0.9h-1.8v1.9h1.8v0.9h-1.8v1.9h2V461.1z M93.6,452.7
							h-1.8v1.9h1.8V452.7z M93.6,455.4h-1.8v1.9h1.8V455.4z M91.7,460.2h1.8v-1.9h-1.8V460.2z M94,451.6c-0.2-0.5-0.6-1.4-0.9-2
							l0.9-0.3c0.4,0.6,0.8,1.4,1,2L94,451.6z"/>
						<path class="st48" d="M102.7,452.3h-4.6v-0.9h4.6V452.3z M98.6,454.1v-0.8h3.7v0.8H98.6z M102.3,455.9h-3.7v-0.8h3.7V455.9z
							 M102.4,461h-2.9v0.7h-0.8v-4.7h3.7V461z M100.6,451.3c-0.2-0.5-0.8-1.3-1.2-1.9l0.8-0.4c0.5,0.6,1,1.3,1.2,1.8L100.6,451.3z
							 M99.5,457.8v2.3h2v-2.3H99.5z M102.6,460.1c0.5-0.7,0.7-2,0.9-3.1l0.8,0.3c-0.1,1.1-0.4,2.5-0.9,3.4L102.6,460.1z M106.2,452
							h-3.1v-1h3.1v-2h1v2h3.5v1h-3.5v2.1h3.2v1h-7.1v-1h2.8V452z M107.6,460.5c0.4,0,0.4-0.2,0.5-1.9c0.2,0.2,0.6,0.3,0.9,0.4
							c-0.1,1.9-0.4,2.4-1.3,2.4h-1.5c-1,0-1.3-0.3-1.3-1.3v-3.5h1v3.5c0,0.3,0.1,0.4,0.4,0.4H107.6z M107.7,457.6
							c-0.4-0.5-1.3-1.3-2.1-1.9l0.7-0.6c0.8,0.5,1.7,1.2,2.1,1.8L107.7,457.6z M109.5,457c0.7,1,1.2,2.3,1.4,3.2l-0.9,0.4
							c-0.2-0.9-0.7-2.2-1.3-3.2L109.5,457z"/>
						<path class="st48" d="M124.3,460.5c0,0.7-0.1,1-0.6,1.2c-0.5,0.2-1.3,0.2-2.5,0.2c0-0.3-0.2-0.8-0.4-1.1c0.9,0,1.8,0,2.1,0
							c0.3,0,0.3-0.1,0.3-0.3v-7.3h-3.6c0.5,2.1,1.6,3.7,3.4,4.5c-0.2,0.2-0.6,0.6-0.7,0.9c-1.8-0.9-2.9-2.5-3.5-4.6
							c-0.6,2.1-1.7,3.7-3.6,4.7c-0.2-0.2-0.5-0.6-0.7-0.8c1.9-0.9,3-2.4,3.5-4.6h-3.6v8.7h-1v-9.7h5.1c-0.1-0.5-0.1-1-0.2-1.6h-2.5
							v-0.9h3.4c0,0.9,0.1,1.7,0.3,2.5h4.8V460.5z"/>
						<path class="st48" d="M130.5,449.2c-0.2,0.7-0.5,1.5-0.7,2.1h2.3v9.1h-3.9v1.1h-1v-10.2h1.6c0.2-0.7,0.5-1.6,0.6-2.3
							L130.5,449.2z M131.2,452.2h-2.9v2.9h2.9V452.2z M131.2,459.4v-3.4h-2.9v3.4H131.2z M139,451.8c-0.2,6.4-0.4,8.5-1,9.2
							c-0.3,0.4-0.6,0.5-1.1,0.6c-0.5,0.1-1.3,0-2.1,0c0-0.3-0.2-0.7-0.4-1c0.9,0.1,1.8,0.1,2.1,0.1c0.3,0,0.4,0,0.6-0.2
							c0.5-0.5,0.7-2.6,0.9-8.2h-3.6c-0.4,0.9-0.8,1.8-1.3,2.5c-0.2-0.2-0.6-0.4-0.9-0.6c0.9-1.2,1.7-3.2,2.1-5.1l1,0.2
							c-0.2,0.7-0.4,1.4-0.6,2h4.2V451.8z M135.9,458.1c-0.4-0.8-1.4-2.2-2.1-3.2l0.8-0.5c0.8,1,1.8,2.3,2.2,3.2L135.9,458.1z"/>
						<path class="st48" d="M143.2,454.2c0,2.2-0.2,5.4-1.5,7.5c-0.2-0.2-0.6-0.4-0.9-0.5c1.2-2,1.3-4.9,1.3-7v-4h5.4
							c-0.1-0.3-0.2-0.7-0.4-1l1.1-0.2c0.2,0.4,0.3,0.9,0.5,1.2h4.9v0.9h-10.4V454.2z M147.5,460.3c-1.2,0.5-2.8,1.1-3.9,1.6
							c-0.1-0.2-0.4-0.6-0.5-0.7c1.1-0.4,2.7-1,3.6-1.5L147.5,460.3z M153.7,454.5v0.7h-10.1v-0.7H153.7z M145.6,454v-1.2h-1.8v-0.7
							h1.8v-0.8h1v0.8h3.6v-0.8h1v0.8h1.8v0.7h-1.8v1.2H145.6z M152.7,459.6h-8.4v-4h8.4V459.6z M145.2,457.3h2.7v-1h-2.7V457.3z
							 M145.2,458.9h2.7v-1h-2.7V458.9z M146.6,452.8v0.7h3.6v-0.7H146.6z M151.7,456.3h-2.7v1h2.7V456.3z M151.7,457.9h-2.7v1h2.7
							V457.9z M149.9,459.7c1.3,0.5,2.8,1,3.7,1.5l-0.5,0.7c-0.9-0.4-2.3-1.1-3.6-1.5L149.9,459.7z"/>
						<path class="st48" d="M167.8,454.2v1h-12.2v-1h5.9V452H158c-0.4,0.7-0.9,1.4-1.3,1.9c-0.2-0.1-0.7-0.4-0.9-0.6
							c1-1,1.9-2.6,2.4-4.1l1,0.2c-0.2,0.6-0.4,1.1-0.7,1.6h2.9v-2h1.1v2h4.3v1h-4.3v2.2H167.8z M157.3,456.6h8.9v5.4h-1.1v-0.8
							h-6.8v0.8h-1V456.6z M158.3,457.5v2.7h6.8v-2.7H158.3z"/>
						<path class="st48" d="M171,457.4c1.1-0.4,1.7-1.1,1.8-2.1c-0.1,0-0.2,0-0.2,0c-0.6,0-1.1-0.3-1.1-1s0.5-1,1.1-1
							c0.8,0,1.2,0.6,1.2,1.6c0,1.5-1,2.7-2.4,3.2L171,457.4z"/>
						<path class="st48" d="M180.4,449.4c-0.3,0.9-0.6,1.8-1,2.7v9.8h-1v-7.8c-0.4,0.7-0.8,1.3-1.2,1.8c-0.1-0.2-0.4-0.8-0.5-1
							c1.1-1.4,2.2-3.5,2.8-5.7L180.4,449.4z M188.3,458.5c-0.5,0.7-1.3,1.4-2.3,1.9c1.1,0.3,2.3,0.5,3.6,0.6
							c-0.2,0.2-0.4,0.6-0.5,0.8c-1.5-0.2-2.9-0.5-4.2-1c-1.2,0.4-2.6,0.8-4.3,1c-0.1-0.2-0.3-0.6-0.5-0.8c1.4-0.2,2.6-0.4,3.7-0.7
							c-0.5-0.3-1-0.6-1.4-0.9c-0.4,0.3-0.9,0.5-1.4,0.8c-0.1-0.2-0.4-0.5-0.6-0.6c0.5-0.2,1-0.5,1.4-0.7c-0.2-0.2-0.4-0.4-0.5-0.6
							l0.8-0.3c0.1,0.2,0.3,0.3,0.4,0.5c0.5-0.3,0.9-0.7,1.2-1c-0.4-0.1-0.5-0.3-0.5-0.9v-0.8h0.9v0.8c0,0.3,0.1,0.3,0.5,0.3h1.7
							c0.3,0,0.4-0.1,0.4-0.6c0.2,0.1,0.5,0.2,0.7,0.2c-0.1,0.8-0.3,1-1.1,1h-1.7c-0.2,0.2-0.4,0.4-0.6,0.6h3.5l0.2,0L188.3,458.5z
							 M189.6,454.7v1.9h-0.9v-1.2h-3.9c0.4,0.3,1,0.6,1.2,0.9l-0.6,0.4c-0.3-0.3-0.9-0.7-1.4-1l0.5-0.3h-3.3v1.2h-0.9v-1.9h1.4
							v-3.5h2.4c0.1-0.2,0.1-0.5,0.2-0.7h-3.6v-0.8h8.7v0.8h-4c-0.1,0.3-0.2,0.5-0.3,0.7h3.2v3.5H189.6z M182.9,456.2
							c-0.4,0.5-0.9,1.2-1.5,1.6l-0.6-0.5c0.6-0.3,1.1-0.9,1.4-1.4L182.9,456.2z M182.7,451.8v0.6h4.7v-0.6H182.7z M187.3,453h-4.7
							v0.6h4.7V453z M182.7,454.7h4.7v-0.6h-4.7V454.7z M182.9,459c0.5,0.4,1.1,0.7,1.9,1c0.8-0.3,1.5-0.7,2-1.1h-3.7L182.9,459z
							 M188.5,457.8c-0.3-0.5-1-1.2-1.6-1.7l0.6-0.4c0.6,0.5,1.3,1.1,1.6,1.6L188.5,457.8z"/>
						<path class="st48" d="M191.3,460.9c0.6-0.7,1-1.8,1.3-2.6l0.9,0.4c-0.3,0.9-0.7,2-1.3,2.7L191.3,460.9z M191.6,456.7
							c1.4,0,3.3,0,5.3,0v-1.1h-4.3v-3.9h4.3v-0.9h-5.3v-0.9h5.3v-0.8h1.1v0.8h5.4v0.9H198v0.9h4.5v3.9h-2.2c1.2,0.5,2.6,1.4,3.3,2
							l-0.7,0.6c-0.2-0.3-0.6-0.5-0.9-0.8c-3.7,0.1-7.7,0.2-10.2,0.2L191.6,456.7z M193.6,453.3h3.3v-0.9h-3.3V453.3z M196.9,454.9
							v-0.9h-3.3v0.9H196.9z M199.3,460.8c0.7,0,0.8-0.2,0.9-1.4c0.2,0.2,0.6,0.3,0.9,0.4c-0.1,1.6-0.5,1.9-1.7,1.9h-3.2
							c-1.6,0-2-0.3-2-1.3v-2h1v2c0,0.4,0.2,0.4,1,0.4H199.3z M198.5,459.8c-0.5-0.5-1.5-1.2-2.3-1.6l0.7-0.6c0.8,0.4,1.8,1,2.4,1.5
							L198.5,459.8z M198,452.4v0.9h3.4v-0.9H198z M201.4,453.9H198v0.9h3.4V453.9z M198,456.7c0.9,0,1.8,0,2.7,0
							c-0.4-0.2-0.8-0.4-1.2-0.6l0.6-0.5H198V456.7z M201.9,458.3c0.7,0.8,1.4,1.9,1.7,2.6l-0.9,0.3c-0.3-0.7-1-1.8-1.6-2.6
							L201.9,458.3z"/>
						<path class="st48" d="M208.9,458.2c0-1.4,1-2.3,1.9-2.8v-0.1c-0.8-0.5-1.4-1.3-1.4-2.4c0-1.6,1.2-2.6,2.8-2.6
							c1.8,0,2.8,1.1,2.8,2.7c0,1.1-0.8,2-1.4,2.5v0.1c0.9,0.5,1.7,1.3,1.7,2.7c0,1.5-1.3,2.7-3.2,2.7
							C210.2,461,208.9,459.8,208.9,458.2z M214.1,458.3c0-1.4-1.3-1.9-2.7-2.5c-0.8,0.5-1.4,1.3-1.4,2.3c0,1.1,0.9,1.9,2.1,1.9
							C213.3,460,214.1,459.3,214.1,458.3z M213.9,453.1c0-1-0.6-1.8-1.8-1.8c-0.9,0-1.6,0.7-1.6,1.7c0,1.2,1.1,1.8,2.3,2.2
							C213.5,454.6,213.9,453.9,213.9,453.1z"/>
						<path class="st48" d="M216.7,459.6l0.6-0.8c0.6,0.6,1.3,1.1,2.5,1.1c1.2,0,2.2-0.9,2.2-2.4c0-1.5-0.8-2.3-2.1-2.3
							c-0.7,0-1.1,0.2-1.7,0.6l-0.7-0.4l0.3-4.8h5v1.1h-3.9l-0.3,3c0.4-0.3,0.9-0.4,1.5-0.4c1.7,0,3.1,1,3.1,3.3
							c0,2.3-1.6,3.5-3.4,3.5C218.4,461,217.4,460.3,216.7,459.6z"/>
						<path class="st48" d="M231.5,456.6v4c0,0.6-0.1,0.9-0.5,1c-0.4,0.2-0.9,0.2-1.8,0.2c0-0.3-0.2-0.7-0.3-1c0.6,0,1.2,0,1.4,0
							c0.2,0,0.3-0.1,0.3-0.3v-3.7c-0.7,0.2-1.3,0.4-1.8,0.5l-0.3-1c0.6-0.1,1.3-0.4,2.2-0.6v-3h-1.9v-1h1.9v-2.8h1v2.8h1.9v1h-1.9
							v2.7l1.8-0.5l0.1,1L231.5,456.6z M241.2,454.7h-2.4v7.1h-1v-7.1h-2.6v0c0,2.5-0.2,5-1.7,7.1c-0.2-0.2-0.5-0.5-0.8-0.7
							c1.4-2,1.5-4.3,1.5-6.5v-4.4c2-0.2,4.5-0.6,5.9-1.1l0.6,0.9c-1.4,0.4-3.6,0.8-5.5,1v2.6h6V454.7z"/>
					</g>
					<path class="st48" d="M48.2,455.2c0,1.1-0.9,2-2,2s-2-0.9-2-2c0-1.1,0.9-2,2-2S48.2,454,48.2,455.2z"/>
				</g>
			</g>
		</g>
		<g>
			<path class="st2" d="M40.2,60.7h7.4L29.3,79c-3.9,0-7.3-0.9-10.3-2.5c-3-1.7-5.4-4.1-7-7.3c-1.6-3.2-2.4-6.9-2.4-11.3V42.2
				c0-4.3,0.8-8.1,2.4-11.3c1.6-3.2,4-5.6,7-7.4c3-1.7,6.6-2.6,10.7-2.6c3.4,0,6.5,0.7,9.3,2.2c2.8,1.5,5.1,3.6,6.9,6.3
				c1.8,2.8,3.1,6,3.8,9.8h-9.6c-0.5-1.8-1.2-3.4-2.2-4.8c-1-1.4-2.2-2.4-3.6-3.1c-1.4-0.7-2.9-1.1-4.5-1.1c-2.2,0-4,0.5-5.6,1.5
				c-1.6,1-2.8,2.4-3.7,4.2c-0.9,1.8-1.3,3.9-1.3,6.4v15.6c0,2.4,0.4,4.6,1.3,6.4c0.9,1.8,2.1,3.2,3.7,4.1c1.6,1,3.4,1.4,5.6,1.4
				c1.6,0,3.2-0.3,4.5-1C35.8,68,37,67,38,65.6C39,64.3,39.7,62.6,40.2,60.7z"/>
		</g>
		<g>
			<polygon class="st1" points="109,0.7 0.7,109 0,108.3 29.3,79 47.6,60.7 108.3,0 			"/>
		</g>
		<g id="XMLID_9_">
			<path id="XMLID_52_" class="st5" d="M81.1,95l8.4,68.5c0,0,28.7-5.5,40.6,12.8v-67.7C130.1,108.6,108.9,92.2,81.1,95z"/>
			<path id="XMLID_51_" class="st49" d="M170.7,163.5l8.4-68.5c-27.8-2.9-49,13.6-49,13.6l0,0v67.7v0
				C142,158,170.7,163.5,170.7,163.5z"/>
			<path id="XMLID_49_" class="st1" d="M127.7,188.8c-8.9-10.8-26.6-12.4-36.4-12.4c-6.8,0-11.7,0.7-11.7,0.7l-3,0.5l-9.8-64
				c-2.4,0-4.7,0.1-7.2,0.3l12,68.5c0,0,41.3-5.5,58.5,12.8v-3.5L127.7,188.8z"/>
			<path id="XMLID_47_" class="st5" d="M193.4,113.5l-9.8,64l-3-0.5c0,0-5-0.7-11.7-0.7c-9.8,0-27.6,1.6-36.4,12.4l-2.3,2.9v3.5l0,0
				c17.2-18.3,58.5-12.8,58.5-12.8l12-68.5C198.1,113.7,195.8,113.6,193.4,113.5z"/>
			<path id="XMLID_45_" class="st1" d="M127.5,178.3c-6.6-10-19.1-12.1-28.4-12.1c-5.3,0-9.1,0.7-9.2,0.7l-3.2,0.6l-0.4-3.6l-7.2-59
				c-3.4-0.1-6.9,0-10.5,0.3l10.5,68.5c0,0,35.9-5.5,50.9,12.8v-4.3L127.5,178.3z"/>
			<path id="XMLID_43_" class="st5" d="M181,173.7l10.5-68.5c-3.6-0.3-7.1-0.4-10.5-0.3l-7.6,62.6l-3.2-0.6c0,0-3.9-0.7-9.2-0.7
				c-9.3,0-21.8,2.1-28.4,12.1l-2.6,3.9v4.3l0,0C145.1,168.2,181,173.7,181,173.7z"/>
		</g>
		<g>
			<path class="st0" d="M64.8,125.9c-12.5,0-22.9-10.2-23.2-22.7c-0.3-12.8,9.9-23.4,22.7-23.7c0.2,0,0.4,0,0.5,0
				c12.5,0,22.9,10.2,23.2,22.7c0.1,6.2-2.1,12.1-6.4,16.6c-4.3,4.5-10.1,7-16.3,7.2C65.2,125.9,65,125.9,64.8,125.9z"/>
			<g>
				<path class="st1" d="M64.8,123.6c-11.3,0-20.6-9.1-20.9-20.4c-0.1-5.6,1.9-10.9,5.8-14.9c3.9-4,9.1-6.3,14.6-6.5
					c0.2,0,0.3,0,0.5,0c11.3,0,20.6,9.1,20.9,20.4v0c0.1,5.6-1.9,10.9-5.8,14.9c-3.9,4-9.1,6.3-14.6,6.5
					C65.1,123.6,65,123.6,64.8,123.6z M64.8,83.8c-0.1,0-0.3,0-0.4,0c-5,0.1-9.7,2.2-13.2,5.8c-3.5,3.6-5.3,8.4-5.2,13.5
					c0.2,10.4,9,18.7,19.3,18.5c5-0.1,9.7-2.2,13.2-5.8c3.5-3.7,5.3-8.4,5.2-13.5v0C83.5,92,75.1,83.8,64.8,83.8z"/>
			</g>
			<g>
				<g>
					<path class="st2" d="M57.5,105.8l-4.4-6.3l2.9-0.1l3.1,4.8l4.5,6.4l-2.9,0.1L57.5,105.8z M57.2,104.5l1.5,2l-2.7,4.3l-2.8,0.1
						L57.2,104.5z M58.1,103.4l2.2-4.1l2.9-0.1l-3.7,6.2L58.1,103.4z"/>
					<path class="st2" d="M68.5,110.2c-0.7-0.3-1.2-0.8-1.6-1.5c-0.4-0.7-0.7-1.4-0.8-2.3l0,0l2.6-0.1l0,0c0.1,0.6,0.3,1,0.6,1.3
						c0.3,0.3,0.8,0.5,1.4,0.5c0.6,0,1.1-0.2,1.4-0.6c0.3-0.4,0.5-1,0.5-1.8l0-1.3c0-0.7-0.2-1.3-0.5-1.7c-0.3-0.4-0.8-0.6-1.4-0.6
						c-0.4,0-0.8,0.1-1.1,0.4c-0.3,0.2-0.6,0.5-0.8,0.9l-2.4,0.1l-0.2-8.8l8.3-0.2l0.1,2.5l-5.7,0.1l0.1,3.2
						c0.2-0.2,0.5-0.4,0.9-0.5s0.7-0.2,1.1-0.2c0.9,0,1.6,0.2,2.2,0.5c0.6,0.4,1.1,0.9,1.5,1.6c0.3,0.7,0.5,1.6,0.5,2.6l0,1.3
						c0,1-0.1,1.9-0.5,2.6c-0.3,0.7-0.9,1.3-1.5,1.7c-0.7,0.4-1.5,0.6-2.5,0.6C69.9,110.6,69.2,110.5,68.5,110.2z"/>
				</g>
			</g>
		</g>
		<g>
			<path class="st2" d="M232.7,185.1H205v-44.7h47.4v25C252.4,176.3,243.6,185.1,232.7,185.1z"/>
			<g>
				<path class="st0" d="M213.2,156.9l3.9-5.2c0.2-0.3,0.4-0.5,0.5-0.8c0.1-0.3,0.2-0.5,0.2-0.8v0c0-0.4-0.1-0.7-0.3-0.9
					c-0.2-0.2-0.6-0.3-1-0.3c-0.4,0-0.7,0.1-1,0.4c-0.3,0.3-0.4,0.6-0.5,1.1v0h-1.9v0c0.1-0.7,0.3-1.3,0.5-1.8
					c0.3-0.5,0.7-0.9,1.2-1.1c0.5-0.3,1-0.4,1.7-0.4c0.7,0,1.3,0.1,1.8,0.3c0.5,0.2,0.9,0.6,1.1,1c0.3,0.4,0.4,1,0.4,1.6v0
					c0,0.5-0.1,0.9-0.3,1.4c-0.2,0.5-0.4,0.9-0.7,1.3l-3,4h4.1v1.8h-6.6V156.9z"/>
				<path class="st0" d="M222.8,157.8c-0.6-0.6-0.8-1.4-0.8-2.4v-5.2c0-1,0.3-1.8,0.9-2.4c0.6-0.6,1.4-0.8,2.5-0.8
					c1.1,0,1.9,0.3,2.5,0.8c0.6,0.6,0.8,1.4,0.8,2.4v5.2c0,1-0.3,1.8-0.9,2.4c-0.6,0.6-1.4,0.8-2.5,0.8
					C224.2,158.7,223.4,158.4,222.8,157.8z M226.4,156.4c0.2-0.3,0.4-0.7,0.4-1.3v-4.6c0-0.6-0.1-1-0.4-1.3
					c-0.2-0.3-0.6-0.4-1.1-0.4s-0.9,0.1-1.1,0.4c-0.2,0.3-0.4,0.7-0.4,1.3v4.6c0,0.6,0.1,1,0.4,1.3c0.2,0.3,0.6,0.4,1.1,0.4
					S226.2,156.7,226.4,156.4z"/>
				<path class="st0" d="M231.3,151.5c-0.3-0.4-0.5-0.8-0.5-1.5v-1c0-0.6,0.2-1.1,0.5-1.5s0.8-0.5,1.5-0.5c0.6,0,1.1,0.2,1.5,0.5
					c0.3,0.4,0.5,0.8,0.5,1.5v1c0,0.6-0.2,1.1-0.5,1.5c-0.3,0.3-0.8,0.5-1.5,0.5S231.6,151.9,231.3,151.5z M237.7,147.2h1.7
					l-6.1,11.4h-1.7L237.7,147.2z M233.1,150.5c0.1-0.1,0.1-0.2,0.1-0.4v-1c0-0.2,0-0.3-0.1-0.4c-0.1-0.1-0.2-0.1-0.3-0.1
					c-0.2,0-0.3,0-0.3,0.1c-0.1,0.1-0.1,0.2-0.1,0.4v1c0,0.2,0,0.3,0.1,0.4c0.1,0.1,0.2,0.1,0.3,0.1
					C232.9,150.6,233,150.6,233.1,150.5z M236.9,158.1c-0.3-0.4-0.5-0.8-0.5-1.5v-1c0-0.6,0.2-1.1,0.5-1.5s0.8-0.5,1.5-0.5
					c0.6,0,1.1,0.2,1.5,0.5c0.3,0.4,0.5,0.8,0.5,1.5v1c0,0.6-0.2,1.1-0.5,1.5c-0.3,0.3-0.8,0.5-1.5,0.5S237.2,158.5,236.9,158.1z
					 M238.7,157.1c0.1-0.1,0.1-0.2,0.1-0.4v-1c0-0.2,0-0.3-0.1-0.4c-0.1-0.1-0.2-0.1-0.3-0.1c-0.2,0-0.3,0-0.3,0.1
					c-0.1,0.1-0.1,0.2-0.1,0.4v1c0,0.2,0,0.3,0.1,0.4c0.1,0.1,0.2,0.1,0.3,0.1C238.5,157.2,238.6,157.2,238.7,157.1z"/>
				<path class="st0" d="M215.3,178.6c-0.6-0.3-1.1-0.8-1.4-1.5c-0.3-0.6-0.5-1.4-0.5-2.2v-3.2c0-0.8,0.2-1.6,0.5-2.2
					c0.3-0.6,0.8-1.1,1.4-1.5c0.6-0.3,1.3-0.5,2.1-0.5c0.8,0,1.5,0.2,2.1,0.5c0.6,0.3,1.1,0.8,1.4,1.5c0.3,0.6,0.5,1.4,0.5,2.2v3.2
					c0,0.8-0.2,1.6-0.5,2.2c-0.3,0.6-0.8,1.1-1.4,1.5c-0.6,0.3-1.3,0.5-2.1,0.5C216.6,179.2,215.9,179,215.3,178.6z M218.6,177
					c0.3-0.2,0.6-0.5,0.8-0.8c0.2-0.3,0.3-0.7,0.3-1.2v-3.3c0-0.5-0.1-0.9-0.3-1.2c-0.2-0.3-0.4-0.6-0.8-0.8
					c-0.3-0.2-0.7-0.3-1.1-0.3c-0.4,0-0.8,0.1-1.1,0.3c-0.3,0.2-0.6,0.5-0.8,0.8c-0.2,0.3-0.3,0.7-0.3,1.2v3.3
					c0,0.5,0.1,0.9,0.3,1.2c0.2,0.3,0.4,0.6,0.8,0.8c0.3,0.2,0.7,0.3,1.1,0.3C217.9,177.3,218.2,177.2,218.6,177z"/>
				<path class="st0" d="M224.1,167.7h1.9V179h-1.9V167.7z M224.9,167.7h6.5v1.8h-6.5V167.7z M224.9,172.6h5.7v1.8h-5.7V172.6z"/>
				<path class="st0" d="M233.5,167.7h1.9V179h-1.9V167.7z M234.3,167.7h6.5v1.8h-6.5V167.7z M234.3,172.6h5.7v1.8h-5.7V172.6z"/>
			</g>
		</g>
		<g>
			<rect x="205" y="106.6" class="st49" width="47.4" height="24.9"/>
			<g>
				<path class="st0" d="M211.7,114.4h1.6v9.9h-1.6V114.4z M212.4,122.8h5.7v1.6h-5.7V122.8z"/>
				<path class="st0" d="M221.1,124c-0.5-0.3-0.9-0.7-1.2-1.3s-0.4-1.2-0.4-1.9v-2.8c0-0.7,0.1-1.4,0.4-1.9s0.7-1,1.2-1.3
					c0.5-0.3,1.2-0.5,1.9-0.5s1.3,0.2,1.9,0.5c0.5,0.3,0.9,0.7,1.2,1.3s0.4,1.2,0.4,1.9v2.8c0,0.7-0.1,1.4-0.4,1.9s-0.7,1-1.2,1.3
					c-0.5,0.3-1.2,0.5-1.9,0.5S221.7,124.3,221.1,124z M224,122.6c0.3-0.2,0.5-0.4,0.7-0.7c0.2-0.3,0.2-0.7,0.2-1v-2.9
					c0-0.4-0.1-0.7-0.2-1c-0.2-0.3-0.4-0.5-0.7-0.7c-0.3-0.2-0.6-0.2-1-0.2s-0.7,0.1-1,0.2c-0.3,0.2-0.5,0.4-0.7,0.7
					c-0.2,0.3-0.2,0.7-0.2,1v2.9c0,0.4,0.1,0.7,0.2,1c0.2,0.3,0.4,0.5,0.7,0.7c0.3,0.2,0.6,0.2,1,0.2S223.7,122.7,224,122.6z"/>
				<path class="st0" d="M235.5,118.9v1.8c0,0.7-0.1,1.4-0.4,2c-0.3,0.6-0.7,1-1.2,1.3c-0.5,0.3-1.1,0.5-1.8,0.5
					c-0.7,0-1.3-0.1-1.9-0.4c-0.5-0.3-1-0.7-1.3-1.2s-0.4-1.1-0.4-1.8V118c0-0.7,0.1-1.4,0.4-1.9c0.3-0.6,0.7-1,1.2-1.3
					s1.1-0.5,1.8-0.5c0.6,0,1.1,0.1,1.6,0.4s0.9,0.6,1.2,1c0.3,0.4,0.5,1,0.7,1.6h-1.7c-0.1-0.3-0.2-0.5-0.4-0.7s-0.4-0.3-0.6-0.4
					s-0.5-0.2-0.7-0.2c-0.4,0-0.7,0.1-1,0.3s-0.5,0.4-0.6,0.7c-0.2,0.3-0.2,0.7-0.2,1.1v2.9c0,0.4,0.1,0.7,0.2,1s0.4,0.5,0.7,0.6
					s0.6,0.2,1,0.2c0.4,0,0.7-0.1,1-0.2c0.3-0.2,0.5-0.4,0.6-0.7c0.2-0.3,0.2-0.7,0.2-1.1v-0.3h-1.8v-1.6H235.5z"/>
				<path class="st0" d="M239.1,124c-0.5-0.3-0.9-0.7-1.2-1.3s-0.4-1.2-0.4-1.9v-2.8c0-0.7,0.1-1.4,0.4-1.9s0.7-1,1.2-1.3
					c0.5-0.3,1.2-0.5,1.9-0.5s1.3,0.2,1.9,0.5c0.5,0.3,0.9,0.7,1.2,1.3s0.4,1.2,0.4,1.9v2.8c0,0.7-0.1,1.4-0.4,1.9s-0.7,1-1.2,1.3
					c-0.5,0.3-1.2,0.5-1.9,0.5S239.7,124.3,239.1,124z M242,122.6c0.3-0.2,0.5-0.4,0.7-0.7c0.2-0.3,0.2-0.7,0.2-1v-2.9
					c0-0.4-0.1-0.7-0.2-1c-0.2-0.3-0.4-0.5-0.7-0.7c-0.3-0.2-0.6-0.2-1-0.2s-0.7,0.1-1,0.2c-0.3,0.2-0.5,0.4-0.7,0.7
					c-0.2,0.3-0.2,0.7-0.2,1v2.9c0,0.4,0.1,0.7,0.2,1c0.2,0.3,0.4,0.5,0.7,0.7c0.3,0.2,0.6,0.2,1,0.2S241.7,122.7,242,122.6z"/>
			</g>
		</g>
	</g>
</g>
</svg>
