<?xml version="1.0" encoding="utf-8"?>
<!-- Generator: Adobe Illustrator 23.1.0, SVG Export Plug-In . SVG Version: 6.00 Build 0)  -->
<svg version="1.1" xmlns="http://www.w3.org/2000/svg" xmlns:xlink="http://www.w3.org/1999/xlink" x="0px" y="0px"
	 viewBox="0 0 283.1 496.9" style="enable-background:new 0 0 283.1 496.9;" xml:space="preserve">
<style type="text/css">
	.st0{fill:#FFFFFF;}
	.st1{fill:none;stroke:#D2D2D3;stroke-width:2;stroke-miterlimit:10;}
	.st2{fill:#EFECEA;}
	.st3{fill:#FF8728;}
	.st4{fill:#D2D2D3;}
	.st5{fill:#969696;}
	.st6{clip-path:url(#SVGID_2_);}
	.st7{clip-path:url(#SVGID_4_);}
	.st8{clip-path:url(#SVGID_6_);}
	.st9{clip-path:url(#SVGID_8_);}
	.st10{clip-path:url(#SVGID_10_);}
	.st11{clip-path:url(#SVGID_12_);}
	.st12{clip-path:url(#SVGID_14_);}
	.st13{clip-path:url(#SVGID_16_);}
	.st14{clip-path:url(#SVGID_18_);}
	.st15{clip-path:url(#SVGID_20_);}
	.st16{clip-path:url(#SVGID_22_);}
	.st17{clip-path:url(#SVGID_24_);}
	.st18{clip-path:url(#SVGID_26_);}
	.st19{clip-path:url(#SVGID_28_);}
	.st20{clip-path:url(#SVGID_30_);}
	.st21{clip-path:url(#SVGID_32_);}
	.st22{clip-path:url(#SVGID_34_);}
	.st23{clip-path:url(#SVGID_36_);}
	.st24{clip-path:url(#SVGID_38_);}
	.st25{clip-path:url(#SVGID_40_);}
	.st26{clip-path:url(#SVGID_42_);}
	.st27{clip-path:url(#SVGID_44_);}
	.st28{clip-path:url(#SVGID_46_);}
	.st29{clip-path:url(#SVGID_48_);}
	.st30{clip-path:url(#SVGID_50_);}
	.st31{clip-path:url(#SVGID_52_);}
	.st32{clip-path:url(#SVGID_54_);}
	.st33{clip-path:url(#SVGID_56_);}
	.st34{clip-path:url(#SVGID_58_);}
	.st35{clip-path:url(#SVGID_60_);}
	.st36{clip-path:url(#SVGID_62_);}
	.st37{clip-path:url(#SVGID_64_);}
	.st38{clip-path:url(#SVGID_66_);}
	.st39{clip-path:url(#SVGID_68_);}
	.st40{clip-path:url(#SVGID_70_);}
	.st41{clip-path:url(#SVGID_72_);}
	.st42{clip-path:url(#SVGID_74_);}
	.st43{clip-path:url(#SVGID_76_);}
	.st44{clip-path:url(#SVGID_78_);}
	.st45{clip-path:url(#SVGID_80_);}
	.st46{clip-path:url(#SVGID_82_);}
	.st47{clip-path:url(#SVGID_84_);}
	.st48{clip-path:url(#SVGID_86_);}
	.st49{clip-path:url(#SVGID_88_);}
	.st50{fill:#5A5A5A;}
</style>
<g id="圖層_1">
	<g>
		<polyline class="st0" points="126.9,5.9 283.1,5.9 283.1,496.9 3.1,496.9 3.1,132.5 		"/>
		<polyline class="st1" points="119.7,15.9 273.1,15.9 273.1,236.9 13.1,236.9 13.1,122.4 		"/>
		<g>
			<g id="XMLID_5_">
				<path id="XMLID_40_" class="st2" d="M88.1,95.1l8.4,68.5c0,0,28.7-5.5,40.6,12.8v-67.7C137.1,108.7,115.9,92.2,88.1,95.1z"/>
				<path id="XMLID_39_" class="st3" d="M177.7,163.6l8.4-68.5c-27.8-2.9-49,13.6-49,13.6l0,0v67.7v0
					C149,158.1,177.7,163.6,177.7,163.6z"/>
				<path id="XMLID_37_" class="st4" d="M134.7,188.9c-8.9-10.8-26.6-12.4-36.4-12.4c-6.8,0-11.7,0.7-11.7,0.7l-3,0.5l-9.8-64
					c-2.4,0-4.7,0.1-7.2,0.3l12,68.5c0,0,41.3-5.5,58.5,12.8v-3.5L134.7,188.9z"/>
				<path id="XMLID_35_" class="st2" d="M200.4,113.6l-9.8,64l-3-0.5c0,0-5-0.7-11.7-0.7c-9.8,0-27.6,1.6-36.4,12.4l-2.3,2.9v3.5
					l0,0c17.2-18.3,58.5-12.8,58.5-12.8l12-68.5C205.1,113.7,202.8,113.6,200.4,113.6z"/>
				<path id="XMLID_12_" class="st4" d="M134.5,178.4c-6.6-10-19.1-12.1-28.4-12.1c-5.3,0-9.1,0.7-9.2,0.7l-3.2,0.6l-0.4-3.6
					l-7.2-59c-3.4-0.1-6.9,0-10.5,0.3l10.5,68.5c0,0,35.9-5.5,50.9,12.8v-4.3L134.5,178.4z"/>
				<path id="XMLID_7_" class="st2" d="M188,173.8l10.5-68.5c-3.6-0.3-7.1-0.4-10.5-0.3l-7.6,62.6l-3.2-0.6c0,0-3.9-0.7-9.2-0.7
					c-9.3,0-21.8,2.1-28.4,12.1l-2.6,3.9v4.3l0,0C152.1,168.3,188,173.8,188,173.8z"/>
			</g>
			<g>
				<path class="st0" d="M71.8,125.9c-12.5,0-22.9-10.2-23.2-22.7c-0.3-12.8,9.9-23.4,22.7-23.7c0.2,0,0.4,0,0.5,0
					c12.5,0,22.9,10.2,23.2,22.7c0.1,6.2-2.1,12.1-6.4,16.6c-4.3,4.5-10.1,7-16.3,7.2C72.2,125.9,72,125.9,71.8,125.9z"/>
				
					<ellipse transform="matrix(0.6848 -0.7288 0.7288 0.6848 -52.2205 84.731)" class="st1" cx="71.8" cy="102.7" rx="19.9" ry="19.9"/>
				<g>
					<g>
						<path class="st5" d="M66.9,105.8l-4.4-6.3l2.9-0.1l3.1,4.8l4.5,6.4l-2.9,0.1L66.9,105.8z M66.5,104.5l1.5,2l-2.7,4.3l-2.8,0.1
							L66.5,104.5z M67.4,103.4l2.2-4.1l2.9-0.1l-3.7,6.2L67.4,103.4z"/>
						<path class="st5" d="M79.6,110.5l-2.6,0.1l-0.3-12.9l-2.1,1.1L74.6,96l2.3-1.3l2.4-0.1L79.6,110.5z"/>
					</g>
				</g>
			</g>
		</g>
		<rect x="13.1" y="246.9" class="st0" width="260" height="130"/>
		<g>
			<g>
				<g>
					<path class="st5" d="M69.3,295.2c-1.3-0.6-2.3-1.5-3.1-2.6s-1.2-2.5-1.4-4.1h4.8c0.1,0.7,0.3,1.3,0.6,1.7
						c0.3,0.5,0.7,0.8,1.3,1c0.5,0.2,1.1,0.4,1.8,0.4c1.2,0,2.1-0.3,2.7-0.9c0.6-0.6,1-1.5,1-2.7v-0.8c0-1.3-0.3-2.2-0.8-2.9
						s-1.4-1-2.4-1h-2.2v-4.5h2.2c0.9,0,1.6-0.3,2.1-0.9s0.7-1.4,0.7-2.5v-0.7c0-1-0.3-1.8-0.8-2.3s-1.3-0.8-2.2-0.8
						c-0.6,0-1.1,0.1-1.6,0.4c-0.5,0.2-0.9,0.6-1.2,1.1c-0.3,0.5-0.6,1.1-0.7,1.8h-4.8c0.2-1.6,0.7-3.1,1.4-4.2
						c0.7-1.2,1.7-2.1,2.9-2.7c1.2-0.6,2.5-0.9,4-0.9c2.5,0,4.4,0.6,5.8,1.9c1.4,1.3,2,3.1,2,5.4v0.7c0,1.4-0.4,2.6-1.1,3.6
						c-0.7,1-1.7,1.8-3,2.2c1.5,0.3,2.6,1.1,3.4,2.2s1.2,2.6,1.2,4.4v0.7c0,1.7-0.3,3.1-1,4.2s-1.6,2.1-2.8,2.7
						c-1.2,0.6-2.7,0.9-4.5,0.9C72.1,296.1,70.6,295.8,69.3,295.2z"/>
					<path class="st5" d="M87.5,291h4.8v6.7l-4.8,4.7V291z"/>
					<path class="st5" d="M98.9,293.9c-1.4-1.4-2.1-3.4-2.1-5.9v-12.9c0-2.6,0.7-4.5,2.1-5.9c1.4-1.4,3.5-2.1,6.2-2.1
						c2.7,0,4.8,0.7,6.2,2.1c1.4,1.4,2.1,3.4,2.1,6V288c0,2.6-0.7,4.5-2.1,5.9c-1.4,1.4-3.5,2.1-6.2,2.1
						C102.4,296.1,100.3,295.4,98.9,293.9z M107.9,290.5c0.6-0.7,0.9-1.8,0.9-3.2v-11.5c0-1.4-0.3-2.4-0.9-3.2s-1.5-1.1-2.8-1.1
						s-2.2,0.4-2.8,1.1s-0.9,1.8-0.9,3.2v11.5c0,1.4,0.3,2.4,0.9,3.2s1.5,1.1,2.8,1.1S107.3,291.2,107.9,290.5z"/>
					<path class="st5" d="M121,293.9c-1.4-1.4-2.1-3.4-2.1-5.9v-12.9c0-2.6,0.7-4.5,2.1-5.9c1.4-1.4,3.5-2.1,6.2-2.1
						c2.7,0,4.8,0.7,6.2,2.1c1.4,1.4,2.1,3.4,2.1,6V288c0,2.6-0.7,4.5-2.1,5.9c-1.4,1.4-3.5,2.1-6.2,2.1
						C124.5,296.1,122.5,295.4,121,293.9z M130,290.5c0.6-0.7,0.9-1.8,0.9-3.2v-11.5c0-1.4-0.3-2.4-0.9-3.2s-1.5-1.1-2.8-1.1
						s-2.2,0.4-2.8,1.1s-0.9,1.8-0.9,3.2v11.5c0,1.4,0.3,2.4,0.9,3.2s1.5,1.1,2.8,1.1S129.4,291.2,130,290.5z"/>
					<path class="st5" d="M143.2,293.9c-1.4-1.4-2.1-3.4-2.1-5.9v-12.9c0-2.6,0.7-4.5,2.1-5.9c1.4-1.4,3.5-2.1,6.2-2.1
						c2.7,0,4.8,0.7,6.2,2.1c1.4,1.4,2.1,3.4,2.1,6V288c0,2.6-0.7,4.5-2.1,5.9c-1.4,1.4-3.5,2.1-6.2,2.1
						C146.6,296.1,144.6,295.4,143.2,293.9z M152.1,290.5c0.6-0.7,0.9-1.8,0.9-3.2v-11.5c0-1.4-0.3-2.4-0.9-3.2s-1.5-1.1-2.8-1.1
						s-2.2,0.4-2.8,1.1s-0.9,1.8-0.9,3.2v11.5c0,1.4,0.3,2.4,0.9,3.2s1.5,1.1,2.8,1.1S151.5,291.2,152.1,290.5z"/>
				</g>
				<g>
					<path class="st5" d="M180.4,295.4c0.6,0,0.7-0.4,0.8-2.8c0.4,0.3,1,0.5,1.4,0.6c-0.2,2.8-0.5,3.6-2,3.6h-2.1
						c-1.6,0-2-0.5-2-2.1v-5.3h-2.7c-0.3,3.4-1,6.1-4.8,7.7c-0.2-0.4-0.6-0.9-0.9-1.2c3.3-1.2,3.9-3.6,4.1-6.5h-3.9v-1.4h14.1v1.4
						h-4.4v5.3c0,0.6,0.1,0.7,0.7,0.7H180.4z M180.9,285h-11.3v-1.4h11.3V285z"/>
					<path class="st5" d="M188.2,283h1.3l-4.4,15.7h-1.3L188.2,283z"/>
					<path class="st5" d="M194.6,285.2c-0.8,1.2-1.6,2.3-2.5,3.2c-0.3-0.3-0.9-0.7-1.3-0.9c1.5-1.2,2.8-3.3,3.7-5.3l1.5,0.4
						c-0.2,0.4-0.4,0.8-0.6,1.2h9.6v1.3H194.6z M203.2,291.5c0,0.9-0.1,1.6-0.2,2.2h1.9v1.3h-2c-0.1,0.7-0.3,1.2-0.4,1.4
						c-0.3,0.4-0.7,0.6-1.2,0.7c-0.5,0-1.3,0-2.1,0c0-0.4-0.2-0.8-0.4-1.2c0.8,0.1,1.4,0.1,1.8,0.1c0.3,0,0.4,0,0.6-0.2
						c0.1-0.1,0.2-0.4,0.3-0.7h-8.9c0.2-1,0.4-2.2,0.6-3.5h-2.2v-1.3h2.4c0.2-1.2,0.3-2.4,0.4-3.4h9.6c0,0,0,0.5,0,0.7
						c0,1-0.1,2-0.1,2.8h2.3v1.3H203.2z M194.6,291.4c-0.1,0.8-0.2,1.6-0.3,2.2h4.3c-0.6-0.5-1.6-1.2-2.5-1.6l0.7-0.6H194.6z
						 M195.1,288c-0.1,0.7-0.2,1.5-0.3,2.2h4.1c-0.6-0.5-1.6-1.1-2.4-1.5l0.7-0.7H195.1z M201.6,293.6c0.1-0.6,0.1-1.3,0.2-2.2h-4.4
						c0.9,0.5,2,1.1,2.5,1.7l-0.6,0.6H201.6z M201.8,290.2c0-0.7,0-1.4,0.1-2.2h-4.3c0.9,0.4,1.9,1,2.5,1.6l-0.6,0.6H201.8z"/>
					<path class="st5" d="M221.7,293.5h-5.6v3.5h-1.5v-3.5h-7.3v-1.4h2.6v-4.2h4.7v-2.2h-3.7c-0.7,1.2-1.5,2.2-2.3,3
						c-0.3-0.3-0.9-0.7-1.3-1c1.5-1.3,2.8-3.3,3.5-5.4l1.5,0.4c-0.2,0.5-0.4,1-0.6,1.5h9.3v1.4h-4.8v2.2h4.5v1.4h-4.5v2.8h5.6V293.5
						z M214.6,292.1v-2.8h-3.2v2.8H214.6z"/>
				</g>
			</g>
			<g>
				<g>
					<path class="st5" d="M65.4,340.4l9.8-13c0.5-0.7,0.9-1.4,1.2-2.1c0.3-0.7,0.4-1.4,0.4-2v0c0-1-0.3-1.7-0.9-2.2
						c-0.6-0.5-1.4-0.8-2.5-0.8c-1,0-1.9,0.3-2.5,0.9c-0.6,0.6-1,1.5-1.1,2.7v0H65v0c0.2-1.7,0.6-3.2,1.4-4.4
						c0.7-1.2,1.7-2.1,2.9-2.8c1.2-0.6,2.6-1,4.1-1c1.7,0,3.2,0.3,4.4,0.9c1.2,0.6,2.2,1.4,2.8,2.5c0.6,1.1,1,2.4,1,4v0
						c0,1.1-0.2,2.3-0.7,3.5c-0.4,1.2-1,2.3-1.8,3.3l-7.6,10h10.2v4.5H65.4V340.4z"/>
					<path class="st5" d="M86.7,339.7h4.8v6.7l-4.8,4.7V339.7z"/>
					<path class="st5" d="M101.4,343.9c-1.2-0.6-2.1-1.5-2.8-2.7c-0.7-1.2-1.2-2.6-1.3-4.2v0h4.7v0c0.1,1,0.5,1.9,1.1,2.4
						c0.6,0.6,1.4,0.9,2.4,0.9c1.1,0,2-0.4,2.6-1.1c0.6-0.7,0.9-1.8,0.9-3.1v-2.4c0-1.3-0.3-2.4-0.9-3.1c-0.6-0.7-1.4-1.1-2.5-1.1
						c-0.7,0-1.4,0.2-2,0.6c-0.6,0.4-1.1,0.9-1.4,1.6h-4.3v-15.6h14.9v4.5h-10.2v5.7c0.4-0.4,1-0.7,1.7-0.9c0.7-0.2,1.3-0.3,2-0.3
						c1.5,0,2.9,0.3,4,1c1.1,0.7,1.9,1.7,2.5,3c0.6,1.3,0.9,2.9,0.9,4.7v2.4c0,1.8-0.3,3.4-1,4.7c-0.6,1.3-1.6,2.3-2.8,3
						c-1.2,0.7-2.7,1-4.4,1C103.8,344.8,102.5,344.5,101.4,343.9z"/>
					<path class="st5" d="M121.9,342.7c-1.4-1.4-2.1-3.4-2.1-5.9v-12.9c0-2.6,0.7-4.5,2.1-5.9c1.4-1.4,3.5-2.1,6.2-2.1
						c2.7,0,4.8,0.7,6.2,2.1c1.4,1.4,2.1,3.4,2.1,6v12.9c0,2.6-0.7,4.5-2.1,5.9c-1.4,1.4-3.5,2.1-6.2,2.1
						C125.4,344.8,123.3,344.1,121.9,342.7z M130.9,339.2c0.6-0.7,0.9-1.8,0.9-3.2v-11.5c0-1.4-0.3-2.4-0.9-3.2
						c-0.6-0.7-1.5-1.1-2.8-1.1s-2.2,0.4-2.8,1.1c-0.6,0.7-0.9,1.8-0.9,3.2V336c0,1.4,0.3,2.4,0.9,3.2c0.6,0.7,1.5,1.1,2.8,1.1
						S130.3,339.9,130.9,339.2z"/>
					<path class="st5" d="M144.1,342.7c-1.4-1.4-2.1-3.4-2.1-5.9v-12.9c0-2.6,0.7-4.5,2.1-5.9c1.4-1.4,3.5-2.1,6.2-2.1
						c2.7,0,4.8,0.7,6.2,2.1c1.4,1.4,2.1,3.4,2.1,6v12.9c0,2.6-0.7,4.5-2.1,5.9c-1.4,1.4-3.5,2.1-6.2,2.1
						C147.5,344.8,145.5,344.1,144.1,342.7z M153,339.2c0.6-0.7,0.9-1.8,0.9-3.2v-11.5c0-1.4-0.3-2.4-0.9-3.2
						c-0.6-0.7-1.5-1.1-2.8-1.1s-2.2,0.4-2.8,1.1c-0.6,0.7-0.9,1.8-0.9,3.2V336c0,1.4,0.3,2.4,0.9,3.2c0.6,0.7,1.5,1.1,2.8,1.1
						S152.4,339.9,153,339.2z"/>
				</g>
				<g>
					<path class="st5" d="M180.7,344.1c0.6,0,0.7-0.4,0.8-2.8c0.4,0.3,1,0.5,1.4,0.6c-0.2,2.8-0.5,3.6-2,3.6h-2.1
						c-1.6,0-2-0.5-2-2.1v-5.3H174c-0.3,3.4-1,6.1-4.8,7.7c-0.2-0.4-0.6-0.9-0.9-1.2c3.3-1.2,3.9-3.6,4.1-6.5h-3.9v-1.4h14.1v1.4
						h-4.4v5.3c0,0.6,0.1,0.7,0.7,0.7H180.7z M181.2,333.7h-11.3v-1.4h11.3V333.7z"/>
					<path class="st5" d="M188.5,331.7h1.3l-4.4,15.7h-1.3L188.5,331.7z"/>
					<path class="st5" d="M194.9,333.9c-0.8,1.2-1.6,2.3-2.5,3.2c-0.3-0.3-0.9-0.7-1.3-0.9c1.5-1.2,2.8-3.3,3.7-5.3l1.5,0.4
						c-0.2,0.4-0.4,0.8-0.6,1.2h9.6v1.3H194.9z M203.5,340.2c0,0.9-0.1,1.6-0.2,2.2h1.9v1.3h-2c-0.1,0.7-0.3,1.2-0.4,1.4
						c-0.3,0.4-0.7,0.6-1.2,0.7c-0.5,0-1.3,0-2.1,0c0-0.4-0.2-0.8-0.4-1.2c0.8,0.1,1.4,0.1,1.8,0.1c0.3,0,0.4,0,0.6-0.2
						c0.1-0.1,0.2-0.4,0.3-0.7h-8.9c0.2-1,0.4-2.2,0.6-3.5h-2.2v-1.3h2.4c0.2-1.2,0.3-2.4,0.4-3.4h9.6c0,0,0,0.5,0,0.7
						c0,1-0.1,2-0.1,2.8h2.3v1.3H203.5z M194.9,340.1c-0.1,0.8-0.2,1.6-0.3,2.2h4.3c-0.6-0.5-1.6-1.2-2.5-1.6l0.7-0.6H194.9z
						 M195.4,336.7c-0.1,0.7-0.2,1.5-0.3,2.2h4.1c-0.6-0.5-1.6-1.1-2.4-1.5l0.7-0.7H195.4z M201.9,342.4c0.1-0.6,0.1-1.3,0.2-2.2
						h-4.4c0.9,0.5,2,1.1,2.5,1.7l-0.6,0.6H201.9z M202.1,338.9c0-0.7,0-1.4,0.1-2.2h-4.3c0.9,0.4,1.9,1,2.5,1.6l-0.6,0.6H202.1z"/>
					<path class="st5" d="M222,342.2h-5.6v3.5h-1.5v-3.5h-7.3v-1.4h2.6v-4.2h4.7v-2.2h-3.7c-0.7,1.2-1.5,2.2-2.3,3
						c-0.3-0.3-0.9-0.7-1.3-1c1.5-1.3,2.8-3.3,3.5-5.4l1.5,0.4c-0.2,0.5-0.4,1-0.6,1.5h9.3v1.4h-4.8v2.2h4.5v1.4h-4.5v2.8h5.6V342.2
						z M214.9,340.8v-2.8h-3.2v2.8H214.9z"/>
				</g>
				<g>
					<g>
						<path class="st5" d="M99.4,360.5c0-2.6,1-4.8,2.8-6.6l0.5,0.3c-1.7,1.8-2.7,3.9-2.7,6.3c0,2.4,0.9,4.5,2.7,6.3l-0.5,0.3
							C100.4,365.3,99.4,363.1,99.4,360.5z"/>
						<path class="st5" d="M108.3,354.2h0.7v6.5c0,1.8-0.5,4.7-3.8,6.3c-0.1-0.2-0.3-0.4-0.5-0.5c1.9-0.8,2.9-2.2,3.3-3.5
							c-1.4,0.3-2.7,0.5-3.7,0.8l-0.2-0.7c1-0.2,2.5-0.4,4.1-0.7c0.1-0.6,0.2-1.2,0.2-1.6v-0.6h-3.7v-0.6h3.7v-2.4h-4v-0.6h4V354.2z
							 M116.5,363.4h-4.4v3.5h-0.7v-12.6h0.7v2.2h4.2v0.6h-4.2v2.4h3.9v0.6h-3.9v2.5h4.4V363.4z"/>
						<path class="st5" d="M123.4,358.4c-0.5-0.4-1.3-1-2.1-1.4c-0.5,0.8-1.3,1.3-2.7,1.6c-0.1-0.2-0.2-0.4-0.4-0.5
							c2.5-0.5,3.1-1.6,3.2-3.9h0.6c-0.1,0.9-0.2,1.7-0.4,2.3c0.8,0.5,1.8,1.1,2.3,1.5L123.4,358.4z M119.8,356.3
							c-0.2-0.4-0.7-1-1.1-1.4l0.4-0.3c0.4,0.4,0.9,1,1.1,1.3L119.8,356.3z M118.7,358.7h11.5v2.4h-0.7v-1.8h-10.2v1.8h-0.6V358.7z
							 M124,362.7c-0.2,0.3-0.3,0.7-0.4,1h5.8v3.2h-0.7v-0.4h-8.2v0.4h-0.6v-3.2h3.1c0.1-0.3,0.3-0.6,0.4-1h-2.6v-2.5h7.5v2.5H124z
							 M128.7,364.2h-8.2v1.6h8.2V364.2z M121.4,362.2h6.2v-1.4h-6.2V362.2z M124.2,355.2c-0.4,0.5-0.9,1.1-1.2,1.4l-0.4-0.2
							c0.4-0.4,0.9-1,1.1-1.4L124.2,355.2z M130,358.7c-0.6-0.5-1.8-1.2-2.9-1.8c-0.5,0.7-1.3,1.2-2.6,1.6c-0.1-0.1-0.2-0.4-0.4-0.5
							c2.3-0.6,2.9-1.6,3.1-3.7h0.6c-0.1,0.9-0.2,1.6-0.5,2.2c1.1,0.5,2.3,1.3,3,1.8L130,358.7z M125.7,356.2
							c-0.2-0.4-0.7-1-1.1-1.4l0.4-0.3c0.4,0.4,0.9,1,1.1,1.3L125.7,356.2z M130.3,355.1c-0.4,0.5-1,1.1-1.4,1.5l-0.4-0.3
							c0.4-0.4,1-1.1,1.3-1.5L130.3,355.1z"/>
						<path class="st5" d="M136.4,358.4h3.1v0.6h-3.1v0.3c0.6,0.6,2.4,2.5,2.9,3l-0.4,0.5c-0.5-0.6-1.7-1.9-2.5-2.7v6.7h-0.7v-6.7
							c-0.8,1.8-1.9,3.7-3,4.7c-0.1-0.2-0.3-0.4-0.4-0.6c1.2-1.1,2.5-3.2,3.2-5.2h-3v-0.6h3.1v-2.7c-1,0.2-2,0.3-2.9,0.4
							c0-0.2-0.1-0.4-0.2-0.5c2.1-0.3,4.6-0.7,5.9-1.3l0.5,0.5c-0.7,0.3-1.6,0.5-2.6,0.7V358.4z M141.4,363.4h-0.7v-7.6h0.7V363.4z
							 M144.4,354.3v11.5c0,0.6-0.2,0.8-0.5,0.9c-0.4,0.1-1.1,0.1-2.4,0.1c0-0.2-0.2-0.5-0.3-0.7c1,0,1.9,0,2.1,0
							c0.3,0,0.4-0.1,0.4-0.4v-11.5H144.4z"/>
						<path class="st5" d="M154.2,354.8h0.7l-4.6,13.5h-0.7L154.2,354.8z"/>
						<path class="st5" d="M166,363c-1,0.1-2,0.3-3,0.5v2.6c0,0.4-0.1,0.6-0.4,0.7c-0.3,0.1-0.9,0.1-1.8,0.1c0-0.2-0.1-0.4-0.2-0.6
							c0.8,0,1.4,0,1.6,0c0.2,0,0.2-0.1,0.2-0.2v-2.5c-1.1,0.2-2.1,0.3-2.9,0.5l-0.1-0.6c0.8-0.1,1.9-0.3,3-0.4v-1.1
							c0.6-0.3,1.4-0.9,1.9-1.4h-2.7c-0.6,0.4-1.1,0.9-1.8,1.2c-0.1-0.1-0.4-0.4-0.5-0.5c1.2-0.7,2.3-1.5,3.3-2.5h-3.2V358h2.6v-1.7
							h-2v-0.6h2v-1.6h0.6v1.6h1.5v0.6h-1.5v1.7h0.5c0.9-1,1.6-2.2,2.1-3.5l0.6,0.2c-0.5,1.2-1.2,2.3-1.9,3.3h2.2v0.6h-2.7
							c-0.4,0.4-0.8,0.8-1.2,1.2h2.6l0.1,0l0.4,0.3c-0.6,0.7-1.5,1.4-2.4,1.9v0.8l3-0.5L166,363z M171.1,357.4
							c-0.4,2.4-0.9,4.3-1.8,5.8c0.7,1.3,1.7,2.4,2.8,3c-0.2,0.1-0.4,0.4-0.5,0.6c-1.1-0.7-2-1.7-2.8-2.9c-0.8,1.3-2,2.2-3.4,3
							c-0.1-0.2-0.3-0.4-0.4-0.6c1.6-0.8,2.7-1.8,3.5-3.1c-0.6-1.3-1.1-2.9-1.5-4.6c-0.3,0.8-0.7,1.5-1.1,2.1
							c-0.1-0.1-0.4-0.3-0.6-0.4c1.1-1.5,1.8-3.8,2.3-6.1l0.7,0.1c-0.2,0.9-0.4,1.7-0.6,2.5h4.3v0.6H171.1z M167.4,357.5
							c0.3,1.8,0.8,3.6,1.4,5c0.7-1.4,1.2-3.1,1.5-5.1L167.4,357.5L167.4,357.5z"/>
						<path class="st5" d="M178.6,356.3c-0.7,0.8-1.5,1.4-2.2,2l6.7-0.3c-0.6-0.5-1.2-0.9-1.7-1.3l0.5-0.3c1.2,0.8,2.7,2,3.5,2.9
							l-0.6,0.4c-0.3-0.3-0.6-0.7-1.1-1.1c-7.4,0.4-8,0.4-8.4,0.6c0-0.2-0.1-0.5-0.2-0.7c0.3,0,0.7-0.3,1.1-0.7
							c0.3-0.2,0.8-0.7,1.5-1.4h-3.9v-0.6h4.5c0.5-0.5,1-1.1,1.4-1.7l0.7,0.3c-0.4,0.4-0.8,0.9-1.2,1.3h6.8v0.6H178.6z M184.4,366
							c0,0.5-0.1,0.7-0.5,0.8c-0.4,0.1-1.1,0.1-2.2,0.1c0-0.2-0.1-0.4-0.2-0.6c0.9,0,1.8,0,2,0c0.2,0,0.3-0.1,0.3-0.3v-2.3
							c-2.3,0.5-4.8,1-6.5,1.3l-0.3-0.7c1.7-0.3,4.3-0.7,6.8-1.2v-2.9h-7.4v2.1c0,1.4-0.3,3.3-1.7,4.5c-0.1-0.1-0.4-0.4-0.5-0.4
							c1.3-1.2,1.5-2.8,1.5-4.1v-2.7h8.7V366z M182.2,363c-1.2-0.5-3.5-1.1-5.4-1.4l0.2-0.5c1.8,0.3,4.1,0.8,5.4,1.4L182.2,363z"/>
						<path class="st5" d="M191.1,361.4c-0.2-0.4-0.5-1.2-0.9-1.8v7.2h-0.6v-7.4c-0.4,1.7-1,3.3-1.5,4.3c-0.1-0.2-0.2-0.5-0.4-0.7
							c0.7-1.2,1.5-3.6,1.8-5.6H188v-0.6h1.6v-2.7h0.6v2.7h1.2v0.6h-1.2v1.1c0.3,0.5,1.1,1.8,1.2,2.2L191.1,361.4z M199.5,362.5
							c-0.4,0.9-1.1,1.7-1.8,2.4c0.5,0.8,1.1,1.3,1.8,1.3c0.3,0,0.5-0.5,0.6-1.6c0.1,0.1,0.4,0.3,0.5,0.3c-0.2,1.4-0.6,1.9-1.1,1.9
							c-1-0.1-1.7-0.6-2.3-1.6c-0.8,0.6-1.6,1.1-2.6,1.5c-0.1-0.1-0.3-0.3-0.4-0.4c1-0.4,2-1,2.7-1.6c-0.4-0.7-0.6-1.7-0.9-2.8h-2.5
							v0.5v0.2c0.7,0.6,1.6,1.3,2,1.8l-0.4,0.4c-0.4-0.4-1-1-1.6-1.6c-0.2,1.2-0.7,2.5-2.1,3.6c-0.1-0.1-0.3-0.4-0.4-0.4
							c1.7-1.2,2-2.8,2-4V362h-1.2v-0.6h4.2c-0.4-2-0.5-4.5-0.6-7.1h0.6c0.1,2.7,0.3,5.2,0.6,7.1h3.7v0.6h-3.6
							c0.2,0.9,0.5,1.7,0.7,2.3c0.6-0.6,1.2-1.3,1.5-2L199.5,362.5z M194.9,360.5c0-0.2-0.1-0.4-0.2-0.6c-2.2,0.3-2.5,0.4-2.7,0.5
							c0-0.1-0.1-0.4-0.2-0.6c0.2,0,0.4-0.3,0.7-0.6c0.2-0.2,0.6-0.7,1.1-1.4c-1.3,0.2-1.6,0.3-1.7,0.3c0-0.1-0.1-0.4-0.2-0.6
							c0.2,0,0.3-0.2,0.5-0.5c0.2-0.3,0.9-1.4,1.3-2.5l0.5,0.2c-0.5,1-1,1.9-1.5,2.7l1.4-0.1c0.2-0.3,0.4-0.7,0.5-1l0.5,0.2
							c-0.7,1.2-1.5,2.3-2.2,3.2l1.7-0.2c-0.1-0.4-0.3-0.7-0.4-1l0.5-0.1c0.4,0.7,0.7,1.6,0.8,2.1L194.9,360.5z M199.9,360.2
							c0-0.2-0.1-0.4-0.2-0.7c-2.2,0.3-2.5,0.4-2.7,0.5c0-0.1-0.1-0.5-0.2-0.6c0.2,0,0.4-0.3,0.7-0.6c0.2-0.2,0.6-0.7,1-1.4
							c-1.2,0.2-1.5,0.3-1.6,0.3c0-0.1-0.1-0.4-0.2-0.6c0.2,0,0.3-0.2,0.5-0.5c0.2-0.3,0.8-1.3,1.1-2.3l0.5,0.2
							c-0.4,0.9-0.8,1.7-1.3,2.4l1.3-0.2c0.2-0.3,0.4-0.7,0.5-1l0.6,0.2c-0.6,1.2-1.4,2.4-2.1,3.2l1.8-0.2c-0.1-0.3-0.3-0.7-0.4-1
							l0.5-0.1c0.4,0.7,0.7,1.6,0.9,2.1L199.9,360.2z M197.8,360c0.5,0.3,1.2,0.7,1.6,1l-0.4,0.4c-0.3-0.3-1-0.8-1.6-1.1L197.8,360z
							"/>
						<path class="st5" d="M206.4,362c-0.2-0.4-0.8-1.4-1.3-2.1v6.9h-0.6v-7.3c-0.5,1.7-1.2,3.5-2,4.5c-0.1-0.2-0.3-0.4-0.4-0.6
							c0.9-1.2,1.8-3.6,2.3-5.6h-2v-0.6h2.1v-3.1h0.6v3.1h1.7v0.6h-1.7v1.2c0.4,0.5,1.4,2,1.7,2.4L206.4,362z M215,364.5h-1v1.5
							c0,0.4-0.1,0.6-0.4,0.7c-0.3,0.1-0.9,0.1-1.8,0.1c0-0.2-0.1-0.4-0.2-0.6c0.8,0,1.4,0,1.6,0c0.2,0,0.2-0.1,0.2-0.2v-1.5h-5.3
							v2.3h-0.6v-2.3h-1v-0.6h1v-3.6h2.9v-1h-3.7v-0.6h2.1v-1.2h-1.5v-0.5h1.5v-1.1h-1.7v-0.6h1.7v-1.2h0.6v1.2h2.7v-1.2h0.6v1.2
							h1.8v0.6h-1.8v1.1h1.6v0.5h-1.6v1.2h2.1v0.6H211v1h3.1v3.6h1V364.5z M208.1,360.9v1.2h2.3v-1.2H208.1z M208.1,363.9h2.3v-1.3
							h-2.3V363.9z M209.4,357.1h2.7v-1.1h-2.7V357.1z M209.4,358.8h2.7v-1.2h-2.7V358.8z M211,360.9v1.2h2.4v-1.2H211z
							 M213.4,363.9v-1.3H211v1.3H213.4z"/>
						<path class="st5" d="M219.3,360.5c0,2.6-1,4.8-2.8,6.6l-0.5-0.3c1.7-1.8,2.7-3.9,2.7-6.3c0-2.4-0.9-4.5-2.7-6.3l0.5-0.3
							C218.3,355.7,219.3,357.9,219.3,360.5z"/>
					</g>
				</g>
			</g>
		</g>
		<rect x="13.1" y="387.2" class="st4" width="260" height="100"/>
		<g>
			<g>
				<g>
					<defs>
						<rect id="SVGID_1_" x="13.1" y="437.2" width="165" height="50"/>
					</defs>
					<clipPath id="SVGID_2_">
						<use xlink:href="#SVGID_1_"  style="overflow:visible;"/>
					</clipPath>
					<g class="st6">
						<g>
							<defs>
								<rect id="SVGID_3_" x="158.9" y="418.9" width="33.2" height="44.1"/>
							</defs>
							<clipPath id="SVGID_4_">
								<use xlink:href="#SVGID_3_"  style="overflow:visible;"/>
							</clipPath>
							<g class="st7">
								<rect x="159.1" y="429.8" class="st2" width="32.7" height="0.5"/>
							</g>
							<g class="st7">
								<rect x="159.1" y="440.7" class="st2" width="32.7" height="0.5"/>
							</g>
							<g class="st7">
								<rect x="159.1" y="451.6" class="st2" width="32.7" height="0.5"/>
							</g>
							<g class="st7">
								<rect x="180.7" y="419.2" class="st2" width="0.5" height="43.6"/>
							</g>
							<g class="st7">
								<rect x="169.8" y="419.2" class="st2" width="0.5" height="43.6"/>
							</g>
							<g class="st7">
								<path class="st2" d="M192.1,463.1h-33.2v-44.1l33.2,0V463.1z M159.4,462.5h32.2v-43.1l-32.2,0V462.5z"/>
							</g>
						</g>
					</g>
					<g class="st6">
						<g>
							<defs>
								<rect id="SVGID_5_" x="158.9" y="463.1" width="33.2" height="44.1"/>
							</defs>
							<clipPath id="SVGID_6_">
								<use xlink:href="#SVGID_5_"  style="overflow:visible;"/>
							</clipPath>
							<g class="st8">
								<rect x="159.1" y="474" class="st2" width="32.7" height="0.5"/>
							</g>
							<g class="st8">
								<rect x="159.1" y="484.9" class="st2" width="32.7" height="0.5"/>
							</g>
							<g class="st8">
								<rect x="159.1" y="495.8" class="st2" width="32.7" height="0.5"/>
							</g>
							<g class="st8">
								<rect x="180.7" y="463.3" class="st2" width="0.5" height="43.6"/>
							</g>
							<g class="st8">
								<rect x="169.8" y="463.3" class="st2" width="0.5" height="43.6"/>
							</g>
							<g class="st8">
								<path class="st2" d="M192.1,507.2h-33.2v-44.1h33.2V507.2z M159.4,506.7h32.2v-43.1h-32.2V506.7z"/>
							</g>
						</g>
					</g>
					<g class="st6">
						<g>
							<defs>
								<rect id="SVGID_7_" x="125.6" y="418.9" width="33.2" height="44.1"/>
							</defs>
							<clipPath id="SVGID_8_">
								<use xlink:href="#SVGID_7_"  style="overflow:visible;"/>
							</clipPath>
							<g class="st9">
								<rect x="125.9" y="429.8" class="st2" width="32.7" height="0.5"/>
							</g>
							<g class="st9">
								<rect x="125.9" y="440.7" class="st2" width="32.7" height="0.5"/>
							</g>
							<g class="st9">
								<rect x="125.9" y="451.6" class="st2" width="32.7" height="0.5"/>
							</g>
							<g class="st9">
								<rect x="147.4" y="419.2" class="st2" width="0.5" height="43.6"/>
							</g>
							<g class="st9">
								<rect x="136.5" y="419.2" class="st2" width="0.5" height="43.6"/>
							</g>
							<g class="st9">
								<path class="st2" d="M158.9,463.1h-33.2v-44.1l33.2,0V463.1z M126.1,462.5h32.2v-43.1l-32.2,0V462.5z"/>
							</g>
						</g>
					</g>
					<g class="st6">
						<g>
							<defs>
								<rect id="SVGID_9_" x="125.6" y="463.1" width="33.2" height="44.1"/>
							</defs>
							<clipPath id="SVGID_10_">
								<use xlink:href="#SVGID_9_"  style="overflow:visible;"/>
							</clipPath>
							<g class="st10">
								<rect x="125.9" y="474" class="st2" width="32.7" height="0.5"/>
							</g>
							<g class="st10">
								<rect x="125.9" y="484.9" class="st2" width="32.7" height="0.5"/>
							</g>
							<g class="st10">
								<rect x="125.9" y="495.8" class="st2" width="32.7" height="0.5"/>
							</g>
							<g class="st10">
								<rect x="147.4" y="463.3" class="st2" width="0.5" height="43.6"/>
							</g>
							<g class="st10">
								<rect x="136.5" y="463.3" class="st2" width="0.5" height="43.6"/>
							</g>
							<g class="st10">
								<path class="st2" d="M158.9,507.2h-33.2v-44.1h33.2V507.2z M126.1,506.7h32.2v-43.1h-32.2V506.7z"/>
							</g>
						</g>
					</g>
					<g class="st6">
						<g>
							<defs>
								<rect id="SVGID_11_" x="92.4" y="418.9" width="33.2" height="44.1"/>
							</defs>
							<clipPath id="SVGID_12_">
								<use xlink:href="#SVGID_11_"  style="overflow:visible;"/>
							</clipPath>
							<g class="st11">
								<rect x="92.6" y="429.8" class="st2" width="32.7" height="0.5"/>
							</g>
							<g class="st11">
								<rect x="92.6" y="440.7" class="st2" width="32.7" height="0.5"/>
							</g>
							<g class="st11">
								<rect x="92.6" y="451.6" class="st2" width="32.7" height="0.5"/>
							</g>
							<g class="st11">
								<rect x="114.2" y="419.2" class="st2" width="0.5" height="43.6"/>
							</g>
							<g class="st11">
								<rect x="103.3" y="419.2" class="st2" width="0.5" height="43.6"/>
							</g>
							<g class="st11">
								<path class="st2" d="M125.6,463.1H92.4v-44.1l33.2,0V463.1z M92.9,462.5h32.2v-43.1l-32.2,0V462.5z"/>
							</g>
						</g>
					</g>
					<g class="st6">
						<g>
							<defs>
								<rect id="SVGID_13_" x="92.4" y="463.1" width="33.2" height="44.1"/>
							</defs>
							<clipPath id="SVGID_14_">
								<use xlink:href="#SVGID_13_"  style="overflow:visible;"/>
							</clipPath>
							<g class="st12">
								<rect x="92.6" y="474" class="st2" width="32.7" height="0.5"/>
							</g>
							<g class="st12">
								<rect x="92.6" y="484.9" class="st2" width="32.7" height="0.5"/>
							</g>
							<g class="st12">
								<rect x="92.6" y="495.8" class="st2" width="32.7" height="0.5"/>
							</g>
							<g class="st12">
								<rect x="114.2" y="463.3" class="st2" width="0.5" height="43.6"/>
							</g>
							<g class="st12">
								<rect x="103.3" y="463.3" class="st2" width="0.5" height="43.6"/>
							</g>
							<g class="st12">
								<path class="st2" d="M125.6,507.2H92.4v-44.1h33.2V507.2z M92.9,506.7h32.2v-43.1H92.9V506.7z"/>
							</g>
						</g>
					</g>
					<g class="st6">
						<g>
							<defs>
								<rect id="SVGID_15_" x="59.1" y="418.9" width="33.2" height="44.1"/>
							</defs>
							<clipPath id="SVGID_16_">
								<use xlink:href="#SVGID_15_"  style="overflow:visible;"/>
							</clipPath>
							<g class="st13">
								<rect x="59.4" y="429.8" class="st2" width="32.7" height="0.5"/>
							</g>
							<g class="st13">
								<rect x="59.4" y="440.7" class="st2" width="32.7" height="0.5"/>
							</g>
							<g class="st13">
								<rect x="59.4" y="451.6" class="st2" width="32.7" height="0.5"/>
							</g>
							<g class="st13">
								<rect x="80.9" y="419.2" class="st2" width="0.5" height="43.6"/>
							</g>
							<g class="st13">
								<rect x="70" y="419.2" class="st2" width="0.5" height="43.6"/>
							</g>
							<g class="st13">
								<path class="st2" d="M92.4,463.1H59.1v-44.1l33.2,0V463.1z M59.7,462.5h32.2v-43.1l-32.2,0V462.5z"/>
							</g>
						</g>
					</g>
					<g class="st6">
						<g>
							<defs>
								<rect id="SVGID_17_" x="59.1" y="463.1" width="33.2" height="44.1"/>
							</defs>
							<clipPath id="SVGID_18_">
								<use xlink:href="#SVGID_17_"  style="overflow:visible;"/>
							</clipPath>
							<g class="st14">
								<rect x="59.4" y="474" class="st2" width="32.7" height="0.5"/>
							</g>
							<g class="st14">
								<rect x="59.4" y="484.9" class="st2" width="32.7" height="0.5"/>
							</g>
							<g class="st14">
								<rect x="59.4" y="495.8" class="st2" width="32.7" height="0.5"/>
							</g>
							<g class="st14">
								<rect x="80.9" y="463.3" class="st2" width="0.5" height="43.6"/>
							</g>
							<g class="st14">
								<rect x="70" y="463.3" class="st2" width="0.5" height="43.6"/>
							</g>
							<g class="st14">
								<path class="st2" d="M92.4,507.2H59.1v-44.1h33.2V507.2z M59.7,506.7h32.2v-43.1H59.7V506.7z"/>
							</g>
						</g>
					</g>
					<g class="st6">
						<g>
							<defs>
								<rect id="SVGID_19_" x="25.9" y="418.9" width="33.2" height="44.1"/>
							</defs>
							<clipPath id="SVGID_20_">
								<use xlink:href="#SVGID_19_"  style="overflow:visible;"/>
							</clipPath>
							<g class="st15">
								<rect x="26.2" y="429.8" class="st2" width="32.7" height="0.5"/>
							</g>
							<g class="st15">
								<rect x="26.2" y="440.7" class="st2" width="32.7" height="0.5"/>
							</g>
							<g class="st15">
								<rect x="26.2" y="451.6" class="st2" width="32.7" height="0.5"/>
							</g>
							<g class="st15">
								<rect x="47.7" y="419.2" class="st2" width="0.5" height="43.6"/>
							</g>
							<g class="st15">
								<rect x="36.8" y="419.2" class="st2" width="0.5" height="43.6"/>
							</g>
							<g class="st15">
								<path class="st2" d="M59.1,463.1H25.9v-44.1l33.2,0V463.1z M26.4,462.5h32.2v-43.1l-32.2,0V462.5z"/>
							</g>
						</g>
					</g>
					<g class="st6">
						<g>
							<defs>
								<rect id="SVGID_21_" x="25.9" y="463.1" width="33.2" height="44.1"/>
							</defs>
							<clipPath id="SVGID_22_">
								<use xlink:href="#SVGID_21_"  style="overflow:visible;"/>
							</clipPath>
							<g class="st16">
								<rect x="26.2" y="474" class="st2" width="32.7" height="0.5"/>
							</g>
							<g class="st16">
								<rect x="26.2" y="484.9" class="st2" width="32.7" height="0.5"/>
							</g>
							<g class="st16">
								<rect x="26.2" y="495.8" class="st2" width="32.7" height="0.5"/>
							</g>
							<g class="st16">
								<rect x="47.7" y="463.3" class="st2" width="0.5" height="43.6"/>
							</g>
							<g class="st16">
								<rect x="36.8" y="463.3" class="st2" width="0.5" height="43.6"/>
							</g>
							<g class="st16">
								<path class="st2" d="M59.1,507.2H25.9v-44.1h33.2V507.2z M26.4,506.7h32.2v-43.1H26.4V506.7z"/>
							</g>
						</g>
					</g>
					<g class="st6">
						<g>
							<defs>
								<rect id="SVGID_23_" x="-7.4" y="418.9" width="33.2" height="44.1"/>
							</defs>
							<clipPath id="SVGID_24_">
								<use xlink:href="#SVGID_23_"  style="overflow:visible;"/>
							</clipPath>
							<g class="st17">
								<rect x="-7.1" y="429.8" class="st2" width="32.7" height="0.5"/>
							</g>
							<g class="st17">
								<rect x="-7.1" y="440.7" class="st2" width="32.7" height="0.5"/>
							</g>
							<g class="st17">
								<rect x="-7.1" y="451.6" class="st2" width="32.7" height="0.5"/>
							</g>
							<g class="st17">
								<rect x="14.5" y="419.2" class="st2" width="0.5" height="43.6"/>
							</g>
							<g class="st17">
								<rect x="3.6" y="419.2" class="st2" width="0.5" height="43.6"/>
							</g>
							<g class="st17">
								<path class="st2" d="M25.9,463.1H-7.4v-44.1l33.2,0V463.1z M-6.8,462.5h32.2v-43.1l-32.2,0V462.5z"/>
							</g>
						</g>
					</g>
					<g class="st6">
						<g>
							<defs>
								<rect id="SVGID_25_" x="-7.4" y="463.1" width="33.2" height="44.1"/>
							</defs>
							<clipPath id="SVGID_26_">
								<use xlink:href="#SVGID_25_"  style="overflow:visible;"/>
							</clipPath>
							<g class="st18">
								<rect x="-7.1" y="474" class="st2" width="32.7" height="0.5"/>
							</g>
							<g class="st18">
								<rect x="-7.1" y="484.9" class="st2" width="32.7" height="0.5"/>
							</g>
							<g class="st18">
								<rect x="-7.1" y="495.8" class="st2" width="32.7" height="0.5"/>
							</g>
							<g class="st18">
								<rect x="14.5" y="463.3" class="st2" width="0.5" height="43.6"/>
							</g>
							<g class="st18">
								<rect x="3.6" y="463.3" class="st2" width="0.5" height="43.6"/>
							</g>
							<g class="st18">
								<path class="st2" d="M25.9,507.2H-7.4v-44.1h33.2V507.2z M-6.8,506.7h32.2v-43.1H-6.8V506.7z"/>
							</g>
						</g>
					</g>
				</g>
			</g>
			<g>
				<g>
					<defs>
						<rect id="SVGID_27_" x="13.1" y="387.2" width="165" height="50"/>
					</defs>
					<clipPath id="SVGID_28_">
						<use xlink:href="#SVGID_27_"  style="overflow:visible;"/>
					</clipPath>
					<g class="st19">
						<g>
							<defs>
								<rect id="SVGID_29_" x="158.9" y="368.9" width="33.2" height="44.1"/>
							</defs>
							<clipPath id="SVGID_30_">
								<use xlink:href="#SVGID_29_"  style="overflow:visible;"/>
							</clipPath>
							<g class="st20">
								<rect x="159.1" y="379.8" class="st2" width="32.7" height="0.5"/>
							</g>
							<g class="st20">
								<rect x="159.1" y="390.7" class="st2" width="32.7" height="0.5"/>
							</g>
							<g class="st20">
								<rect x="159.1" y="401.6" class="st2" width="32.7" height="0.5"/>
							</g>
							<g class="st20">
								<rect x="180.7" y="369.2" class="st2" width="0.5" height="43.6"/>
							</g>
							<g class="st20">
								<rect x="169.8" y="369.2" class="st2" width="0.5" height="43.6"/>
							</g>
							<g class="st20">
								<path class="st2" d="M192.1,413.1h-33.2v-44.1l33.2,0V413.1z M159.4,412.5h32.2v-43.1l-32.2,0V412.5z"/>
							</g>
						</g>
					</g>
					<g class="st19">
						<g>
							<defs>
								<rect id="SVGID_31_" x="158.9" y="413.1" width="33.2" height="44.1"/>
							</defs>
							<clipPath id="SVGID_32_">
								<use xlink:href="#SVGID_31_"  style="overflow:visible;"/>
							</clipPath>
							<g class="st21">
								<rect x="159.1" y="424" class="st2" width="32.7" height="0.5"/>
							</g>
							<g class="st21">
								<rect x="159.1" y="434.9" class="st2" width="32.7" height="0.5"/>
							</g>
							<g class="st21">
								<rect x="159.1" y="445.8" class="st2" width="32.7" height="0.5"/>
							</g>
							<g class="st21">
								<rect x="180.7" y="413.3" class="st2" width="0.5" height="43.6"/>
							</g>
							<g class="st21">
								<rect x="169.8" y="413.3" class="st2" width="0.5" height="43.6"/>
							</g>
							<g class="st21">
								<path class="st2" d="M192.1,457.2h-33.2v-44.1h33.2V457.2z M159.4,456.7h32.2v-43.1h-32.2V456.7z"/>
							</g>
						</g>
					</g>
					<g class="st19">
						<g>
							<defs>
								<rect id="SVGID_33_" x="125.6" y="368.9" width="33.2" height="44.1"/>
							</defs>
							<clipPath id="SVGID_34_">
								<use xlink:href="#SVGID_33_"  style="overflow:visible;"/>
							</clipPath>
							<g class="st22">
								<rect x="125.9" y="379.8" class="st2" width="32.7" height="0.5"/>
							</g>
							<g class="st22">
								<rect x="125.9" y="390.7" class="st2" width="32.7" height="0.5"/>
							</g>
							<g class="st22">
								<rect x="125.9" y="401.6" class="st2" width="32.7" height="0.5"/>
							</g>
							<g class="st22">
								<rect x="147.4" y="369.2" class="st2" width="0.5" height="43.6"/>
							</g>
							<g class="st22">
								<rect x="136.5" y="369.2" class="st2" width="0.5" height="43.6"/>
							</g>
							<g class="st22">
								<path class="st2" d="M158.9,413.1h-33.2v-44.1l33.2,0V413.1z M126.1,412.5h32.2v-43.1l-32.2,0V412.5z"/>
							</g>
						</g>
					</g>
					<g class="st19">
						<g>
							<defs>
								<rect id="SVGID_35_" x="125.6" y="413.1" width="33.2" height="44.1"/>
							</defs>
							<clipPath id="SVGID_36_">
								<use xlink:href="#SVGID_35_"  style="overflow:visible;"/>
							</clipPath>
							<g class="st23">
								<rect x="125.9" y="424" class="st2" width="32.7" height="0.5"/>
							</g>
							<g class="st23">
								<rect x="125.9" y="434.9" class="st2" width="32.7" height="0.5"/>
							</g>
							<g class="st23">
								<rect x="125.9" y="445.8" class="st2" width="32.7" height="0.5"/>
							</g>
							<g class="st23">
								<rect x="147.4" y="413.3" class="st2" width="0.5" height="43.6"/>
							</g>
							<g class="st23">
								<rect x="136.5" y="413.3" class="st2" width="0.5" height="43.6"/>
							</g>
							<g class="st23">
								<path class="st2" d="M158.9,457.2h-33.2v-44.1h33.2V457.2z M126.1,456.7h32.2v-43.1h-32.2V456.7z"/>
							</g>
						</g>
					</g>
					<g class="st19">
						<g>
							<defs>
								<rect id="SVGID_37_" x="92.4" y="368.9" width="33.2" height="44.1"/>
							</defs>
							<clipPath id="SVGID_38_">
								<use xlink:href="#SVGID_37_"  style="overflow:visible;"/>
							</clipPath>
							<g class="st24">
								<rect x="92.6" y="379.8" class="st2" width="32.7" height="0.5"/>
							</g>
							<g class="st24">
								<rect x="92.6" y="390.7" class="st2" width="32.7" height="0.5"/>
							</g>
							<g class="st24">
								<rect x="92.6" y="401.6" class="st2" width="32.7" height="0.5"/>
							</g>
							<g class="st24">
								<rect x="114.2" y="369.2" class="st2" width="0.5" height="43.6"/>
							</g>
							<g class="st24">
								<rect x="103.3" y="369.2" class="st2" width="0.5" height="43.6"/>
							</g>
							<g class="st24">
								<path class="st2" d="M125.6,413.1H92.4v-44.1l33.2,0V413.1z M92.9,412.5h32.2v-43.1l-32.2,0V412.5z"/>
							</g>
						</g>
					</g>
					<g class="st19">
						<g>
							<defs>
								<rect id="SVGID_39_" x="92.4" y="413.1" width="33.2" height="44.1"/>
							</defs>
							<clipPath id="SVGID_40_">
								<use xlink:href="#SVGID_39_"  style="overflow:visible;"/>
							</clipPath>
							<g class="st25">
								<rect x="92.6" y="424" class="st2" width="32.7" height="0.5"/>
							</g>
							<g class="st25">
								<rect x="92.6" y="434.9" class="st2" width="32.7" height="0.5"/>
							</g>
							<g class="st25">
								<rect x="92.6" y="445.8" class="st2" width="32.7" height="0.5"/>
							</g>
							<g class="st25">
								<rect x="114.2" y="413.3" class="st2" width="0.5" height="43.6"/>
							</g>
							<g class="st25">
								<rect x="103.3" y="413.3" class="st2" width="0.5" height="43.6"/>
							</g>
							<g class="st25">
								<path class="st2" d="M125.6,457.2H92.4v-44.1h33.2V457.2z M92.9,456.7h32.2v-43.1H92.9V456.7z"/>
							</g>
						</g>
					</g>
					<g class="st19">
						<g>
							<defs>
								<rect id="SVGID_41_" x="59.1" y="368.9" width="33.2" height="44.1"/>
							</defs>
							<clipPath id="SVGID_42_">
								<use xlink:href="#SVGID_41_"  style="overflow:visible;"/>
							</clipPath>
							<g class="st26">
								<rect x="59.4" y="379.8" class="st2" width="32.7" height="0.5"/>
							</g>
							<g class="st26">
								<rect x="59.4" y="390.7" class="st2" width="32.7" height="0.5"/>
							</g>
							<g class="st26">
								<rect x="59.4" y="401.6" class="st2" width="32.7" height="0.5"/>
							</g>
							<g class="st26">
								<rect x="80.9" y="369.2" class="st2" width="0.5" height="43.6"/>
							</g>
							<g class="st26">
								<rect x="70" y="369.2" class="st2" width="0.5" height="43.6"/>
							</g>
							<g class="st26">
								<path class="st2" d="M92.4,413.1H59.1v-44.1l33.2,0V413.1z M59.7,412.5h32.2v-43.1l-32.2,0V412.5z"/>
							</g>
						</g>
					</g>
					<g class="st19">
						<g>
							<defs>
								<rect id="SVGID_43_" x="59.1" y="413.1" width="33.2" height="44.1"/>
							</defs>
							<clipPath id="SVGID_44_">
								<use xlink:href="#SVGID_43_"  style="overflow:visible;"/>
							</clipPath>
							<g class="st27">
								<rect x="59.4" y="424" class="st2" width="32.7" height="0.5"/>
							</g>
							<g class="st27">
								<rect x="59.4" y="434.9" class="st2" width="32.7" height="0.5"/>
							</g>
							<g class="st27">
								<rect x="59.4" y="445.8" class="st2" width="32.7" height="0.5"/>
							</g>
							<g class="st27">
								<rect x="80.9" y="413.3" class="st2" width="0.5" height="43.6"/>
							</g>
							<g class="st27">
								<rect x="70" y="413.3" class="st2" width="0.5" height="43.6"/>
							</g>
							<g class="st27">
								<path class="st2" d="M92.4,457.2H59.1v-44.1h33.2V457.2z M59.7,456.7h32.2v-43.1H59.7V456.7z"/>
							</g>
						</g>
					</g>
					<g class="st19">
						<g>
							<defs>
								<rect id="SVGID_45_" x="25.9" y="368.9" width="33.2" height="44.1"/>
							</defs>
							<clipPath id="SVGID_46_">
								<use xlink:href="#SVGID_45_"  style="overflow:visible;"/>
							</clipPath>
							<g class="st28">
								<rect x="26.2" y="379.8" class="st2" width="32.7" height="0.5"/>
							</g>
							<g class="st28">
								<rect x="26.2" y="390.7" class="st2" width="32.7" height="0.5"/>
							</g>
							<g class="st28">
								<rect x="26.2" y="401.6" class="st2" width="32.7" height="0.5"/>
							</g>
							<g class="st28">
								<rect x="47.7" y="369.2" class="st2" width="0.5" height="43.6"/>
							</g>
							<g class="st28">
								<rect x="36.8" y="369.2" class="st2" width="0.5" height="43.6"/>
							</g>
							<g class="st28">
								<path class="st2" d="M59.1,413.1H25.9v-44.1l33.2,0V413.1z M26.4,412.5h32.2v-43.1l-32.2,0V412.5z"/>
							</g>
						</g>
					</g>
					<g class="st19">
						<g>
							<defs>
								<rect id="SVGID_47_" x="25.9" y="413.1" width="33.2" height="44.1"/>
							</defs>
							<clipPath id="SVGID_48_">
								<use xlink:href="#SVGID_47_"  style="overflow:visible;"/>
							</clipPath>
							<g class="st29">
								<rect x="26.2" y="424" class="st2" width="32.7" height="0.5"/>
							</g>
							<g class="st29">
								<rect x="26.2" y="434.9" class="st2" width="32.7" height="0.5"/>
							</g>
							<g class="st29">
								<rect x="26.2" y="445.8" class="st2" width="32.7" height="0.5"/>
							</g>
							<g class="st29">
								<rect x="47.7" y="413.3" class="st2" width="0.5" height="43.6"/>
							</g>
							<g class="st29">
								<rect x="36.8" y="413.3" class="st2" width="0.5" height="43.6"/>
							</g>
							<g class="st29">
								<path class="st2" d="M59.1,457.2H25.9v-44.1h33.2V457.2z M26.4,456.7h32.2v-43.1H26.4V456.7z"/>
							</g>
						</g>
					</g>
					<g class="st19">
						<g>
							<defs>
								<rect id="SVGID_49_" x="-7.4" y="368.9" width="33.2" height="44.1"/>
							</defs>
							<clipPath id="SVGID_50_">
								<use xlink:href="#SVGID_49_"  style="overflow:visible;"/>
							</clipPath>
							<g class="st30">
								<rect x="-7.1" y="379.8" class="st2" width="32.7" height="0.5"/>
							</g>
							<g class="st30">
								<rect x="-7.1" y="390.7" class="st2" width="32.7" height="0.5"/>
							</g>
							<g class="st30">
								<rect x="-7.1" y="401.6" class="st2" width="32.7" height="0.5"/>
							</g>
							<g class="st30">
								<rect x="14.5" y="369.2" class="st2" width="0.5" height="43.6"/>
							</g>
							<g class="st30">
								<rect x="3.6" y="369.2" class="st2" width="0.5" height="43.6"/>
							</g>
							<g class="st30">
								<path class="st2" d="M25.9,413.1H-7.4v-44.1l33.2,0V413.1z M-6.8,412.5h32.2v-43.1l-32.2,0V412.5z"/>
							</g>
						</g>
					</g>
					<g class="st19">
						<g>
							<defs>
								<rect id="SVGID_51_" x="-7.4" y="413.1" width="33.2" height="44.1"/>
							</defs>
							<clipPath id="SVGID_52_">
								<use xlink:href="#SVGID_51_"  style="overflow:visible;"/>
							</clipPath>
							<g class="st31">
								<rect x="-7.1" y="424" class="st2" width="32.7" height="0.5"/>
							</g>
							<g class="st31">
								<rect x="-7.1" y="434.9" class="st2" width="32.7" height="0.5"/>
							</g>
							<g class="st31">
								<rect x="-7.1" y="445.8" class="st2" width="32.7" height="0.5"/>
							</g>
							<g class="st31">
								<rect x="14.5" y="413.3" class="st2" width="0.5" height="43.6"/>
							</g>
							<g class="st31">
								<rect x="3.6" y="413.3" class="st2" width="0.5" height="43.6"/>
							</g>
							<g class="st31">
								<path class="st2" d="M25.9,457.2H-7.4v-44.1h33.2V457.2z M-6.8,456.7h32.2v-43.1H-6.8V456.7z"/>
							</g>
						</g>
					</g>
				</g>
			</g>
			<g>
				<g>
					<defs>
						<rect id="SVGID_53_" x="178.1" y="437.2" width="95" height="50"/>
					</defs>
					<clipPath id="SVGID_54_">
						<use xlink:href="#SVGID_53_"  style="overflow:visible;"/>
					</clipPath>
					<g class="st32">
						<g>
							<defs>
								<rect id="SVGID_55_" x="257.4" y="418.9" width="33.2" height="44.1"/>
							</defs>
							<clipPath id="SVGID_56_">
								<use xlink:href="#SVGID_55_"  style="overflow:visible;"/>
							</clipPath>
							<g class="st33">
								<rect x="257.6" y="429.8" class="st2" width="32.7" height="0.5"/>
							</g>
							<g class="st33">
								<rect x="257.6" y="440.7" class="st2" width="32.7" height="0.5"/>
							</g>
							<g class="st33">
								<rect x="257.6" y="451.6" class="st2" width="32.7" height="0.5"/>
							</g>
							<g class="st33">
								<rect x="279.2" y="419.2" class="st2" width="0.5" height="43.6"/>
							</g>
							<g class="st33">
								<rect x="268.3" y="419.2" class="st2" width="0.5" height="43.6"/>
							</g>
							<g class="st33">
								<path class="st2" d="M290.6,463.1h-33.2v-44.1l33.2,0V463.1z M257.9,462.5h32.2v-43.1l-32.2,0V462.5z"/>
							</g>
						</g>
					</g>
					<g class="st32">
						<g>
							<defs>
								<rect id="SVGID_57_" x="257.4" y="463.1" width="33.2" height="44.1"/>
							</defs>
							<clipPath id="SVGID_58_">
								<use xlink:href="#SVGID_57_"  style="overflow:visible;"/>
							</clipPath>
							<g class="st34">
								<rect x="257.6" y="474" class="st2" width="32.7" height="0.5"/>
							</g>
							<g class="st34">
								<rect x="257.6" y="484.9" class="st2" width="32.7" height="0.5"/>
							</g>
							<g class="st34">
								<rect x="257.6" y="495.8" class="st2" width="32.7" height="0.5"/>
							</g>
							<g class="st34">
								<rect x="279.2" y="463.3" class="st2" width="0.5" height="43.6"/>
							</g>
							<g class="st34">
								<rect x="268.3" y="463.3" class="st2" width="0.5" height="43.6"/>
							</g>
							<g class="st34">
								<path class="st2" d="M290.6,507.2h-33.2v-44.1h33.2V507.2z M257.9,506.7h32.2v-43.1h-32.2V506.7z"/>
							</g>
						</g>
					</g>
					<g class="st32">
						<g>
							<defs>
								<rect id="SVGID_59_" x="224.1" y="418.9" width="33.2" height="44.1"/>
							</defs>
							<clipPath id="SVGID_60_">
								<use xlink:href="#SVGID_59_"  style="overflow:visible;"/>
							</clipPath>
							<g class="st35">
								<rect x="224.4" y="429.8" class="st2" width="32.7" height="0.5"/>
							</g>
							<g class="st35">
								<rect x="224.4" y="440.7" class="st2" width="32.7" height="0.5"/>
							</g>
							<g class="st35">
								<rect x="224.4" y="451.6" class="st2" width="32.7" height="0.5"/>
							</g>
							<g class="st35">
								<rect x="245.9" y="419.2" class="st2" width="0.5" height="43.6"/>
							</g>
							<g class="st35">
								<rect x="235" y="419.2" class="st2" width="0.5" height="43.6"/>
							</g>
							<g class="st35">
								<path class="st2" d="M257.4,463.1h-33.2v-44.1l33.2,0V463.1z M224.7,462.5h32.2v-43.1l-32.2,0V462.5z"/>
							</g>
						</g>
					</g>
					<g class="st32">
						<g>
							<defs>
								<rect id="SVGID_61_" x="224.1" y="463.1" width="33.2" height="44.1"/>
							</defs>
							<clipPath id="SVGID_62_">
								<use xlink:href="#SVGID_61_"  style="overflow:visible;"/>
							</clipPath>
							<g class="st36">
								<rect x="224.4" y="474" class="st2" width="32.7" height="0.5"/>
							</g>
							<g class="st36">
								<rect x="224.4" y="484.9" class="st2" width="32.7" height="0.5"/>
							</g>
							<g class="st36">
								<rect x="224.4" y="495.8" class="st2" width="32.7" height="0.5"/>
							</g>
							<g class="st36">
								<rect x="245.9" y="463.3" class="st2" width="0.5" height="43.6"/>
							</g>
							<g class="st36">
								<rect x="235" y="463.3" class="st2" width="0.5" height="43.6"/>
							</g>
							<g class="st36">
								<path class="st2" d="M257.4,507.2h-33.2v-44.1h33.2V507.2z M224.7,506.7h32.2v-43.1h-32.2V506.7z"/>
							</g>
						</g>
					</g>
					<g class="st32">
						<g>
							<defs>
								<rect id="SVGID_63_" x="190.9" y="418.9" width="33.2" height="44.1"/>
							</defs>
							<clipPath id="SVGID_64_">
								<use xlink:href="#SVGID_63_"  style="overflow:visible;"/>
							</clipPath>
							<g class="st37">
								<rect x="191.2" y="429.8" class="st2" width="32.7" height="0.5"/>
							</g>
							<g class="st37">
								<rect x="191.2" y="440.7" class="st2" width="32.7" height="0.5"/>
							</g>
							<g class="st37">
								<rect x="191.2" y="451.6" class="st2" width="32.7" height="0.5"/>
							</g>
							<g class="st37">
								<rect x="212.7" y="419.2" class="st2" width="0.5" height="43.6"/>
							</g>
							<g class="st37">
								<rect x="201.8" y="419.2" class="st2" width="0.5" height="43.6"/>
							</g>
							<g class="st37">
								<path class="st2" d="M224.1,463.1h-33.2v-44.1l33.2,0V463.1z M191.4,462.5h32.2v-43.1l-32.2,0V462.5z"/>
							</g>
						</g>
					</g>
					<g class="st32">
						<g>
							<defs>
								<rect id="SVGID_65_" x="190.9" y="463.1" width="33.2" height="44.1"/>
							</defs>
							<clipPath id="SVGID_66_">
								<use xlink:href="#SVGID_65_"  style="overflow:visible;"/>
							</clipPath>
							<g class="st38">
								<rect x="191.2" y="474" class="st2" width="32.7" height="0.5"/>
							</g>
							<g class="st38">
								<rect x="191.2" y="484.9" class="st2" width="32.7" height="0.5"/>
							</g>
							<g class="st38">
								<rect x="191.2" y="495.8" class="st2" width="32.7" height="0.5"/>
							</g>
							<g class="st38">
								<rect x="212.7" y="463.3" class="st2" width="0.5" height="43.6"/>
							</g>
							<g class="st38">
								<rect x="201.8" y="463.3" class="st2" width="0.5" height="43.6"/>
							</g>
							<g class="st38">
								<path class="st2" d="M224.1,507.2h-33.2v-44.1h33.2V507.2z M191.4,506.7h32.2v-43.1h-32.2V506.7z"/>
							</g>
						</g>
					</g>
					<g class="st32">
						<g>
							<defs>
								<rect id="SVGID_67_" x="157.6" y="418.9" width="33.2" height="44.1"/>
							</defs>
							<clipPath id="SVGID_68_">
								<use xlink:href="#SVGID_67_"  style="overflow:visible;"/>
							</clipPath>
							<g class="st39">
								<rect x="157.9" y="429.8" class="st2" width="32.7" height="0.5"/>
							</g>
							<g class="st39">
								<rect x="157.9" y="440.7" class="st2" width="32.7" height="0.5"/>
							</g>
							<g class="st39">
								<rect x="157.9" y="451.6" class="st2" width="32.7" height="0.5"/>
							</g>
							<g class="st39">
								<rect x="179.5" y="419.2" class="st2" width="0.5" height="43.6"/>
							</g>
							<g class="st39">
								<rect x="168.6" y="419.2" class="st2" width="0.5" height="43.6"/>
							</g>
							<g class="st39">
								<path class="st2" d="M190.9,463.1h-33.2v-44.1l33.2,0V463.1z M158.2,462.5h32.2v-43.1l-32.2,0V462.5z"/>
							</g>
						</g>
					</g>
					<g class="st32">
						<g>
							<defs>
								<rect id="SVGID_69_" x="157.6" y="463.1" width="33.2" height="44.1"/>
							</defs>
							<clipPath id="SVGID_70_">
								<use xlink:href="#SVGID_69_"  style="overflow:visible;"/>
							</clipPath>
							<g class="st40">
								<rect x="157.9" y="474" class="st2" width="32.7" height="0.5"/>
							</g>
							<g class="st40">
								<rect x="157.9" y="484.9" class="st2" width="32.7" height="0.5"/>
							</g>
							<g class="st40">
								<rect x="157.9" y="495.8" class="st2" width="32.7" height="0.5"/>
							</g>
							<g class="st40">
								<rect x="179.5" y="463.3" class="st2" width="0.5" height="43.6"/>
							</g>
							<g class="st40">
								<rect x="168.6" y="463.3" class="st2" width="0.5" height="43.6"/>
							</g>
							<g class="st40">
								<path class="st2" d="M190.9,507.2h-33.2v-44.1h33.2V507.2z M158.2,506.7h32.2v-43.1h-32.2V506.7z"/>
							</g>
						</g>
					</g>
				</g>
			</g>
			<g>
				<g>
					<defs>
						<rect id="SVGID_71_" x="178.1" y="387.2" width="95" height="50"/>
					</defs>
					<clipPath id="SVGID_72_">
						<use xlink:href="#SVGID_71_"  style="overflow:visible;"/>
					</clipPath>
					<g class="st41">
						<g>
							<defs>
								<rect id="SVGID_73_" x="257.4" y="368.9" width="33.2" height="44.1"/>
							</defs>
							<clipPath id="SVGID_74_">
								<use xlink:href="#SVGID_73_"  style="overflow:visible;"/>
							</clipPath>
							<g class="st42">
								<rect x="257.6" y="379.8" class="st2" width="32.7" height="0.5"/>
							</g>
							<g class="st42">
								<rect x="257.6" y="390.7" class="st2" width="32.7" height="0.5"/>
							</g>
							<g class="st42">
								<rect x="257.6" y="401.6" class="st2" width="32.7" height="0.5"/>
							</g>
							<g class="st42">
								<rect x="279.2" y="369.2" class="st2" width="0.5" height="43.6"/>
							</g>
							<g class="st42">
								<rect x="268.3" y="369.2" class="st2" width="0.5" height="43.6"/>
							</g>
							<g class="st42">
								<path class="st2" d="M290.6,413.1h-33.2v-44.1l33.2,0V413.1z M257.9,412.5h32.2v-43.1l-32.2,0V412.5z"/>
							</g>
						</g>
					</g>
					<g class="st41">
						<g>
							<defs>
								<rect id="SVGID_75_" x="257.4" y="413.1" width="33.2" height="44.1"/>
							</defs>
							<clipPath id="SVGID_76_">
								<use xlink:href="#SVGID_75_"  style="overflow:visible;"/>
							</clipPath>
							<g class="st43">
								<rect x="257.6" y="424" class="st2" width="32.7" height="0.5"/>
							</g>
							<g class="st43">
								<rect x="257.6" y="434.9" class="st2" width="32.7" height="0.5"/>
							</g>
							<g class="st43">
								<rect x="257.6" y="445.8" class="st2" width="32.7" height="0.5"/>
							</g>
							<g class="st43">
								<rect x="279.2" y="413.3" class="st2" width="0.5" height="43.6"/>
							</g>
							<g class="st43">
								<rect x="268.3" y="413.3" class="st2" width="0.5" height="43.6"/>
							</g>
							<g class="st43">
								<path class="st2" d="M290.6,457.2h-33.2v-44.1h33.2V457.2z M257.9,456.7h32.2v-43.1h-32.2V456.7z"/>
							</g>
						</g>
					</g>
					<g class="st41">
						<g>
							<defs>
								<rect id="SVGID_77_" x="224.1" y="368.9" width="33.2" height="44.1"/>
							</defs>
							<clipPath id="SVGID_78_">
								<use xlink:href="#SVGID_77_"  style="overflow:visible;"/>
							</clipPath>
							<g class="st44">
								<rect x="224.4" y="379.8" class="st2" width="32.7" height="0.5"/>
							</g>
							<g class="st44">
								<rect x="224.4" y="390.7" class="st2" width="32.7" height="0.5"/>
							</g>
							<g class="st44">
								<rect x="224.4" y="401.6" class="st2" width="32.7" height="0.5"/>
							</g>
							<g class="st44">
								<rect x="245.9" y="369.2" class="st2" width="0.5" height="43.6"/>
							</g>
							<g class="st44">
								<rect x="235" y="369.2" class="st2" width="0.5" height="43.6"/>
							</g>
							<g class="st44">
								<path class="st2" d="M257.4,413.1h-33.2v-44.1l33.2,0V413.1z M224.7,412.5h32.2v-43.1l-32.2,0V412.5z"/>
							</g>
						</g>
					</g>
					<g class="st41">
						<g>
							<defs>
								<rect id="SVGID_79_" x="224.1" y="413.1" width="33.2" height="44.1"/>
							</defs>
							<clipPath id="SVGID_80_">
								<use xlink:href="#SVGID_79_"  style="overflow:visible;"/>
							</clipPath>
							<g class="st45">
								<rect x="224.4" y="424" class="st2" width="32.7" height="0.5"/>
							</g>
							<g class="st45">
								<rect x="224.4" y="434.9" class="st2" width="32.7" height="0.5"/>
							</g>
							<g class="st45">
								<rect x="224.4" y="445.8" class="st2" width="32.7" height="0.5"/>
							</g>
							<g class="st45">
								<rect x="245.9" y="413.3" class="st2" width="0.5" height="43.6"/>
							</g>
							<g class="st45">
								<rect x="235" y="413.3" class="st2" width="0.5" height="43.6"/>
							</g>
							<g class="st45">
								<path class="st2" d="M257.4,457.2h-33.2v-44.1h33.2V457.2z M224.7,456.7h32.2v-43.1h-32.2V456.7z"/>
							</g>
						</g>
					</g>
					<g class="st41">
						<g>
							<defs>
								<rect id="SVGID_81_" x="190.9" y="368.9" width="33.2" height="44.1"/>
							</defs>
							<clipPath id="SVGID_82_">
								<use xlink:href="#SVGID_81_"  style="overflow:visible;"/>
							</clipPath>
							<g class="st46">
								<rect x="191.2" y="379.8" class="st2" width="32.7" height="0.5"/>
							</g>
							<g class="st46">
								<rect x="191.2" y="390.7" class="st2" width="32.7" height="0.5"/>
							</g>
							<g class="st46">
								<rect x="191.2" y="401.6" class="st2" width="32.7" height="0.5"/>
							</g>
							<g class="st46">
								<rect x="212.7" y="369.2" class="st2" width="0.5" height="43.6"/>
							</g>
							<g class="st46">
								<rect x="201.8" y="369.2" class="st2" width="0.5" height="43.6"/>
							</g>
							<g class="st46">
								<path class="st2" d="M224.1,413.1h-33.2v-44.1l33.2,0V413.1z M191.4,412.5h32.2v-43.1l-32.2,0V412.5z"/>
							</g>
						</g>
					</g>
					<g class="st41">
						<g>
							<defs>
								<rect id="SVGID_83_" x="190.9" y="413.1" width="33.2" height="44.1"/>
							</defs>
							<clipPath id="SVGID_84_">
								<use xlink:href="#SVGID_83_"  style="overflow:visible;"/>
							</clipPath>
							<g class="st47">
								<rect x="191.2" y="424" class="st2" width="32.7" height="0.5"/>
							</g>
							<g class="st47">
								<rect x="191.2" y="434.9" class="st2" width="32.7" height="0.5"/>
							</g>
							<g class="st47">
								<rect x="191.2" y="445.8" class="st2" width="32.7" height="0.5"/>
							</g>
							<g class="st47">
								<rect x="212.7" y="413.3" class="st2" width="0.5" height="43.6"/>
							</g>
							<g class="st47">
								<rect x="201.8" y="413.3" class="st2" width="0.5" height="43.6"/>
							</g>
							<g class="st47">
								<path class="st2" d="M224.1,457.2h-33.2v-44.1h33.2V457.2z M191.4,456.7h32.2v-43.1h-32.2V456.7z"/>
							</g>
						</g>
					</g>
					<g class="st41">
						<g>
							<defs>
								<rect id="SVGID_85_" x="157.6" y="368.9" width="33.2" height="44.1"/>
							</defs>
							<clipPath id="SVGID_86_">
								<use xlink:href="#SVGID_85_"  style="overflow:visible;"/>
							</clipPath>
							<g class="st48">
								<rect x="157.9" y="379.8" class="st2" width="32.7" height="0.5"/>
							</g>
							<g class="st48">
								<rect x="157.9" y="390.7" class="st2" width="32.7" height="0.5"/>
							</g>
							<g class="st48">
								<rect x="157.9" y="401.6" class="st2" width="32.7" height="0.5"/>
							</g>
							<g class="st48">
								<rect x="179.5" y="369.2" class="st2" width="0.5" height="43.6"/>
							</g>
							<g class="st48">
								<rect x="168.6" y="369.2" class="st2" width="0.5" height="43.6"/>
							</g>
							<g class="st48">
								<path class="st2" d="M190.9,413.1h-33.2v-44.1l33.2,0V413.1z M158.2,412.5h32.2v-43.1l-32.2,0V412.5z"/>
							</g>
						</g>
					</g>
					<g class="st41">
						<g>
							<defs>
								<rect id="SVGID_87_" x="157.6" y="413.1" width="33.2" height="44.1"/>
							</defs>
							<clipPath id="SVGID_88_">
								<use xlink:href="#SVGID_87_"  style="overflow:visible;"/>
							</clipPath>
							<g class="st49">
								<rect x="157.9" y="424" class="st2" width="32.7" height="0.5"/>
							</g>
							<g class="st49">
								<rect x="157.9" y="434.9" class="st2" width="32.7" height="0.5"/>
							</g>
							<g class="st49">
								<rect x="157.9" y="445.8" class="st2" width="32.7" height="0.5"/>
							</g>
							<g class="st49">
								<rect x="179.5" y="413.3" class="st2" width="0.5" height="43.6"/>
							</g>
							<g class="st49">
								<rect x="168.6" y="413.3" class="st2" width="0.5" height="43.6"/>
							</g>
							<g class="st49">
								<path class="st2" d="M190.9,457.2h-33.2v-44.1h33.2V457.2z M158.2,456.7h32.2v-43.1h-32.2V456.7z"/>
							</g>
						</g>
					</g>
				</g>
			</g>
		</g>
		<g>
			<g>
				<path class="st50" d="M94.6,434.1c-0.7,1.1-1.5,2.1-2.2,2.9c-0.2-0.2-0.7-0.5-0.9-0.6c1.3-1.1,2.5-2.9,3.2-4.7l1,0.3
					c-0.2,0.4-0.4,0.8-0.6,1.2h8.6v0.9H94.6z M102.2,439.6c-0.1,0.9-0.1,1.7-0.2,2.2h1.7v0.9h-1.8c-0.1,0.7-0.3,1.1-0.4,1.3
					c-0.3,0.3-0.6,0.5-1,0.5c-0.4,0-1.1,0-1.8,0c0-0.2-0.1-0.6-0.3-0.8c0.7,0.1,1.4,0.1,1.6,0.1c0.3,0,0.4,0,0.5-0.2
					c0.1-0.1,0.2-0.4,0.3-0.8h-8c0.2-0.9,0.4-2,0.5-3.2h-2v-1h2.1c0.1-1.1,0.3-2.2,0.4-3.1h8.4c0,0,0,0.4,0,0.5c0,1-0.1,1.8-0.1,2.6
					h2v1H102.2z M101,441.8c0.1-0.6,0.1-1.3,0.2-2.3h-6.7c-0.1,0.8-0.2,1.6-0.4,2.3h4.3c-0.6-0.5-1.6-1.2-2.5-1.7l0.6-0.6
					c1,0.4,2.1,1.2,2.7,1.8l-0.5,0.5H101z M94.9,436.5c-0.1,0.7-0.2,1.5-0.3,2.2h4.2c-0.5-0.5-1.6-1.2-2.5-1.6l0.6-0.6
					c0.9,0.4,2,1,2.5,1.5l-0.6,0.6h2.4c0-0.7,0.1-1.4,0.1-2.2H94.9z"/>
				<path class="st50" d="M116.6,443c0,0.7-0.2,1.1-0.7,1.3c-0.5,0.2-1.5,0.2-3,0.2c-0.1-0.3-0.3-0.8-0.4-1.1c1.2,0,2.3,0,2.6,0
					c0.3,0,0.4-0.1,0.4-0.4v-2.8h-6.7c-0.4,1.6-1.1,3.2-2.4,4.4c-0.1-0.2-0.6-0.6-0.8-0.8c2.2-2,2.5-4.8,2.5-7v-4.3h8.5V443z
					 M115.5,439.2v-2.4h-6.4c0,0.7,0,1.5-0.2,2.4H115.5z M109.1,433.5v2.3h6.4v-2.3H109.1z"/>
				<path class="st50" d="M132.3,433.9v2.9h-1v-2h-9.7v2h-1v-2.9h2.2c-0.3-0.5-0.7-1.1-1.1-1.6l0.9-0.4c0.5,0.5,1,1.2,1.2,1.7
					l-0.5,0.2h2.5v-2.1h1v2.1h2.4l-0.4-0.2c0.4-0.5,1-1.3,1.2-1.9l1.1,0.4c-0.4,0.6-0.9,1.2-1.3,1.7H132.3z M121.6,439.6h9.9v5h-1
					v-0.4h-7.9v0.4h-1V439.6z M122.6,440.4v1.1h3.4v-1.1H122.6z M125.9,443.4v-1.1h-3.4v1.1H125.9z M130.1,435.8v2.9h-7.3v-2.9
					H130.1z M129.1,436.6h-5.3v1.3h5.3V436.6z M130.5,440.4h-3.5v1.1h3.5V440.4z M130.5,443.4v-1.1h-3.5v1.1H130.5z"/>
				<path class="st50" d="M141.1,441.2h-6.8v-0.9h1.4v-5.7h-1.2v-0.9h1.2v-1.7h1v1.7h2.5v-1.7h1v1.7h1v0.9h-1v5.7h1V441.2z
					 M137.2,441.7c-0.5,1.1-1.3,2.1-2.1,2.8c-0.2-0.2-0.6-0.5-0.8-0.6c0.8-0.6,1.5-1.6,1.9-2.5L137.2,441.7z M136.6,434.6v1.2h2.5
					v-1.2H136.6z M136.6,438h2.5v-1.4h-2.5V438z M136.6,440.2h2.5v-1.4h-2.5V440.2z M139,441.5c0.6,0.6,1.2,1.5,1.5,2.1l-0.8,0.5
					c-0.3-0.6-0.9-1.5-1.4-2.1L139,441.5z M146.7,443.2c0,0.6-0.2,0.9-0.5,1.1c-0.4,0.2-1.1,0.2-2.1,0.2c0-0.3-0.2-0.7-0.3-1
					c0.7,0,1.4,0,1.6,0c0.2,0,0.3-0.1,0.3-0.3v-3.4h-3c-0.1,1.7-0.5,3.4-1.3,4.8c-0.2-0.2-0.6-0.5-0.8-0.6c1.2-1.8,1.3-4.5,1.3-6.5
					v-5.1h4.8V443.2z M145.7,438.9v-2.3h-2.9v0.9c0,0.4,0,0.9,0,1.4H145.7z M142.8,433.4v2.2h2.9v-2.2H142.8z"/>
				<path class="st50" d="M151.1,437.5c-0.2-0.3-0.4-0.6-0.7-0.9c-0.3,0.7-0.7,1.4-1.1,1.9c-0.1-0.2-0.5-0.5-0.7-0.6
					c0.8-0.8,1.3-2.1,1.6-3.5l0.9,0.2c-0.1,0.4-0.2,0.8-0.3,1.2c0.4,0.4,0.8,0.8,1,1.1L151.1,437.5z M152.5,439.2h2.5v0.9h-2.5v4.4
					h-1v-4.4h-2.8v-0.9h2.8v-1h0.4c-0.2-0.2-0.4-0.4-0.6-0.5c0.8-0.8,1.3-1.9,1.6-3.2l0.9,0.2c-0.1,0.4-0.2,0.9-0.4,1.3
					c0.5,0.5,1.1,1.2,1.4,1.7l-0.6,0.5c-0.2-0.4-0.7-1-1.1-1.5c-0.3,0.6-0.6,1.1-1,1.5h0.5V439.2z M151,441.2c-0.3,1-0.8,2-1.4,2.6
					c-0.2-0.1-0.6-0.4-0.8-0.5c0.6-0.6,1-1.5,1.3-2.3L151,441.2z M154.9,434.2h-6.1v-0.9h2.9c-0.2-0.4-0.4-0.9-0.6-1.2l0.9-0.3
					c0.3,0.5,0.6,1.1,0.8,1.5l-0.1,0h2.2V434.2z M153.8,440.9c0.5,0.7,1,1.7,1.2,2.3l-0.8,0.4c-0.2-0.6-0.7-1.7-1.2-2.4L153.8,440.9
					z M161.4,443.8h-4.8v0.7h-1v-7.9c-0.2,0.3-0.4,0.6-0.5,0.8c-0.2-0.2-0.6-0.5-0.8-0.7c1-1.2,1.8-3.1,2.3-5l1,0.2
					c-0.2,0.8-0.5,1.6-0.8,2.4h4.6v1h-1.9v1.9h1.8v0.9h-1.8v1.9h1.8v0.9h-1.8v1.9h2V443.8z M158.4,435.4h-1.8v1.9h1.8V435.4z
					 M158.4,438.1h-1.8v1.9h1.8V438.1z M156.6,442.9h1.8V441h-1.8V442.9z M158.8,434.3c-0.2-0.5-0.6-1.4-0.9-2l0.9-0.3
					c0.4,0.6,0.8,1.4,1,2L158.8,434.3z"/>
				<path class="st50" d="M167.5,435h-4.6v-0.9h4.6V435z M163.5,436.8V436h3.7v0.8H163.5z M167.1,438.6h-3.7v-0.8h3.7V438.6z
					 M167.2,443.7h-2.9v0.7h-0.8v-4.7h3.7V443.7z M165.5,434c-0.2-0.5-0.8-1.3-1.2-1.9l0.8-0.4c0.5,0.6,1,1.3,1.2,1.8L165.5,434z
					 M164.3,440.5v2.3h2v-2.3H164.3z M167.5,442.8c0.5-0.7,0.7-2,0.9-3.1l0.8,0.3c-0.1,1.1-0.4,2.5-0.9,3.4L167.5,442.8z M171,434.8
					h-3.1v-1h3.1v-2h1v2h3.5v1H172v2.1h3.2v1h-7.1v-1h2.8V434.8z M172.4,443.2c0.4,0,0.4-0.2,0.5-1.9c0.2,0.2,0.6,0.3,0.9,0.4
					c-0.1,1.9-0.4,2.4-1.3,2.4h-1.5c-1,0-1.3-0.3-1.3-1.3v-3.5h1v3.5c0,0.4,0.1,0.4,0.4,0.4H172.4z M172.5,440.3
					c-0.4-0.5-1.3-1.3-2.1-1.9l0.7-0.6c0.8,0.5,1.7,1.2,2.1,1.8L172.5,440.3z M174.3,439.7c0.7,1,1.2,2.3,1.4,3.2l-0.9,0.4
					c-0.2-0.9-0.7-2.2-1.3-3.2L174.3,439.7z"/>
				<path class="st50" d="M181.3,442.4h2.3v-7.7h-1.8V434c0.9-0.2,1.6-0.4,2.1-0.7h1v9.2h2.1v1.1h-5.6V442.4z"/>
				<path class="st50" d="M200.3,435.7c1,2.4,2.8,4.6,4.7,5.7c-0.3,0.2-0.6,0.6-0.8,0.9c-2.1-1.3-3.9-3.8-4.9-6.6h-0.2v5.2h3.2v1
					h-3.2v2.6H198V442h-3.2v-1h3.2v-5.2h-0.2c-1.1,2.7-2.9,5.2-4.9,6.6c-0.2-0.3-0.5-0.6-0.7-0.8c1.8-1.1,3.6-3.4,4.6-5.8h-4.2v-1
					h5.5v-2.9h1.1v2.9h5.5v1H200.3z"/>
			</g>
			<path class="st50" d="M84.5,437.9c0,1.1-0.9,2-2,2s-2-0.9-2-2c0-1.1,0.9-2,2-2S84.5,436.7,84.5,437.9z"/>
		</g>
		<g>
			<path class="st5" d="M32.3,21.6h-6.8L4.2,78.4h10L18,67.6h21.9l0.2,0.6l4-4l3.1-3L32.3,21.6z M21.1,58.7l7.8-22.6l7.8,22.6H21.1z
				"/>
		</g>
		<g>
			<polygon class="st4" points="109,0.7 47.6,62.2 42.1,67.6 40.5,69.3 0.7,109 0,108.3 44.1,64.2 47.2,61.1 108.3,0 			"/>
		</g>
	</g>
</g>
<g id="圖層_2">
</g>
<g id="圖層_3">
</g>
</svg>
