<?xml version="1.0" encoding="utf-8"?>
<!-- Generator: Adobe Illustrator 22.0.1, SVG Export Plug-In . SVG Version: 6.00 Build 0)  -->
<svg version="1.1" id="圖層_1" xmlns="http://www.w3.org/2000/svg" xmlns:xlink="http://www.w3.org/1999/xlink" x="0px" y="0px"
	 viewBox="0 0 160.9 596.1" style="enable-background:new 0 0 160.9 596.1;" xml:space="preserve">
<style type="text/css">
	.st0{fill:#EFECEA;}
</style>
<path class="st0" d="M156.4,0v5.9c0,3.9-1,7.6-2.9,11.2c-1.5,2.5-3.2,4.2-5.3,5c-2.7,1-8.2,1.6-16.6,1.6H24.7
	c-9.9,0-16.2-1-18.8-2.9C2.4,18.1,0.5,14,0,8.5v54.1c0.3-3.1,1.3-6,2.8-8.9c1.5-2.6,3.2-4.3,5.3-5.1c2.7-1.1,8.2-1.6,16.6-1.6h106.9
	c9.9,0,16.2,1,18.8,3c4,3.1,6,8,6,14.8v6h4.5V0H156.4z"/>
<path class="st0" d="M106.7,150.5c-0.6-0.7-0.9-1.8-0.9-3c0-1.4,0.6-4.1,1.8-8.3c1.9-6.3,2.8-11.6,2.8-16c0-10-3.1-18.2-9.3-24.5
	c-6.2-6.3-13.9-9.5-23.1-9.5c-7.1,0-12.9,1.8-17.6,5.5c-4.7,3.7-10,11.4-15.9,23.2c-5.9,11.8-10.7,19.7-14.5,23.6
	c-3.8,4-8.6,5.9-14.2,5.9c-4.6,0-8.6-1.8-11.9-5.3c-1.9-2.1-3.3-4.5-4.1-7.4v17.5c0.4,0.6,0.8,1.1,1.3,1.7
	c6.2,7.7,14.4,11.5,24.6,11.5c13.2,0,23.8-8.3,31.9-24.8l8.7-17.8c3.7-7.7,7.3-12.9,10.6-15.4c3.3-2.6,7.2-3.9,11.7-3.9
	c3.7,0,7,1.8,10,5.3c3,3.5,4.5,8.1,4.5,13.8c0,7.5-2.2,13.6-6.5,18.5c-4.3,4.8-12.5,8.8-24.4,11.9v4h38.1v-4
	C108.5,152.1,107.3,151.3,106.7,150.5z M33.6,93.8v-4H0v31.5c1.2-5.2,3.8-10,7.8-14.4C13.6,100.4,22.2,96,33.6,93.8z"/>
<path class="st0" d="M106.7,247.8c-0.6-0.7-0.9-1.8-0.9-3.1c0-1.4,0.6-4.1,1.8-8.3c1.9-6.3,2.8-11.6,2.8-16c0-10-3.1-18.2-9.3-24.5
	c-6.2-6.3-13.9-9.5-23.1-9.5c-7.1,0-12.9,1.8-17.6,5.5c-4.7,3.7-10,11.4-15.9,23.2C38.8,227,34,234.9,30.2,238.8
	c-3.8,3.9-8.6,5.9-14.2,5.9c-4.6,0-8.6-1.8-11.9-5.3c-1.9-2.1-3.3-4.5-4.1-7.3v17.5c0.4,0.6,0.8,1.1,1.3,1.7
	c6.2,7.7,14.4,11.5,24.6,11.5c13.2,0,23.8-8.3,31.9-24.8l8.7-17.8c3.7-7.7,7.3-12.9,10.6-15.4c3.3-2.6,7.2-3.9,11.7-3.9
	c3.7,0,7,1.8,10,5.3c3,3.5,4.5,8.1,4.5,13.8c0,7.5-2.2,13.6-6.5,18.5c-4.3,4.8-12.5,8.8-24.4,11.9v4h38.1v-4
	C108.5,249.4,107.3,248.5,106.7,247.8z M33.6,191v-4H0v31.5c1.2-5.2,3.8-10,7.8-14.4C13.6,197.7,22.2,193.3,33.6,191z"/>
<path class="st0" d="M32.4,311h74.8v-39.2h-4.5c0.1,5.9-0.4,9.9-1.5,12.1c-1.1,2.2-2.7,3.9-4.7,5.1c-2,1.1-5.7,1.7-11,1.7H35.5
	c-10.4,0-18.5,0.9-24.2,2.7c-4.4,1.4-8.2,3.6-11.4,6.7v41c3.5,4.4,8.7,9.7,15.6,16.1H0v25l5.8,13.9l4.3-1.7c-1.4-3.2-2.1-6-2.1-8.5
	c0-1.8,0.6-3.4,1.7-4.7c1.1-1.3,3.1-2.3,6-2.9c2.9-0.6,10.8-0.9,23.7-0.9h67.8v-38.1h-4.5c-0.2,7.3-1.4,12.1-3.6,14.5
	c-2.2,2.3-6.5,3.5-12.9,3.5H22.8c-6.2-6.1-10.4-11.4-12.6-15.8C8.1,337,7,333.1,7,329.6c0-5.1,1.6-9.5,4.9-13.1
	C15.1,312.8,21.9,311,32.4,311z"/>
<path class="st0" d="M94.6,420.6c-10.7-9.8-25.6-14.7-44.7-14.7c-17.7,0-31.7,4.8-42.2,14.3c-3,2.7-5.5,5.6-7.6,8.6v50.6
	c1.6,2.2,3.5,4.2,5.7,6.1c9.2,8.2,19.3,13.2,30.5,14.9l2.4-3.8c-9.8-3.7-16.7-8.2-20.7-13.6c-4-5.4-6-11.8-6-19.1
	c0-11,4.7-20.6,14.2-28.7c9.4-8.1,22.5-12.2,39.1-12.1v77.3c13.8,0,24.9-4,33.1-12.1c8.3-8.1,12.4-18.4,12.4-30.9
	C110.6,442.7,105.3,430.4,94.6,420.6z M98,463.3c-2.6,4-6.2,7.1-10.8,9.1c-2.9,1.3-8,2.1-15.1,2.6v-51.8c9.4,0.9,16.7,4,21.9,9.3
	c5.3,5.3,7.9,11.4,7.9,18.1C101.9,455.1,100.6,459.3,98,463.3z"/>
<path class="st0" d="M106.7,581c-0.6-0.7-0.9-1.8-0.9-3.1c0-1.4,0.6-4.1,1.8-8.3c1.9-6.3,2.8-11.6,2.8-16c0-10-3.1-18.2-9.3-24.5
	c-6.2-6.3-13.9-9.5-23.1-9.5c-7.1,0-12.9,1.8-17.6,5.5c-4.7,3.7-10,11.4-15.9,23.2c-5.9,11.8-10.7,19.7-14.5,23.6
	c-3.8,4-8.6,5.9-14.2,5.9c-4.6,0-8.6-1.8-11.9-5.3c-1.9-2.1-3.3-4.5-4.1-7.3v17.5c0.4,0.6,0.8,1.1,1.3,1.7
	c6.2,7.7,14.4,11.5,24.6,11.5c13.2,0,23.8-8.3,31.9-24.8l8.7-17.8c3.7-7.7,7.3-12.9,10.6-15.4c3.3-2.6,7.2-3.9,11.7-3.9
	c3.7,0,7,1.8,10,5.3c3,3.5,4.5,8.1,4.5,13.8c0,7.5-2.2,13.7-6.5,18.5c-4.3,4.8-12.5,8.8-24.4,11.9v4h38.1v-4
	C108.5,582.6,107.3,581.8,106.7,581z M33.6,524.3v-4H0v31.5c1.2-5.2,3.8-10,7.8-14.4C13.6,530.9,22.2,526.6,33.6,524.3z"/>
</svg>
