<?xml version="1.0" encoding="utf-8"?>
<!-- Generator: Adobe Illustrator 24.1.3, SVG Export Plug-In . SVG Version: 6.00 Build 0)  -->
<svg version="1.1" id="圖層_1" xmlns="http://www.w3.org/2000/svg" xmlns:xlink="http://www.w3.org/1999/xlink" x="0px" y="0px"
	 viewBox="0 0 768 60" style="enable-background:new 0 0 768 60;" xml:space="preserve">
<style type="text/css">
	.st0{fill:#FFFFFF;}
	.st1{fill:#D2D2D3;}
	.st2{clip-path:url(#SVGID_2_);}
	.st3{fill:#969696;}
	.st4{fill:#EFECEA;}
	.st5{fill:#FF8728;}
	.st6{clip-path:url(#SVGID_4_);}
	.st7{clip-path:url(#SVGID_6_);}
	.st8{clip-path:url(#SVGID_8_);}
	.st9{clip-path:url(#SVGID_10_);}
	.st10{clip-path:url(#SVGID_12_);}
	.st11{clip-path:url(#SVGID_14_);}
	.st12{clip-path:url(#SVGID_16_);}
	.st13{clip-path:url(#SVGID_18_);}
	.st14{clip-path:url(#SVGID_20_);}
	.st15{clip-path:url(#SVGID_22_);}
	.st16{clip-path:url(#SVGID_24_);}
	.st17{clip-path:url(#SVGID_26_);}
	.st18{clip-path:url(#SVGID_28_);}
	.st19{clip-path:url(#SVGID_30_);}
	.st20{clip-path:url(#SVGID_32_);}
	.st21{clip-path:url(#SVGID_34_);}
	.st22{clip-path:url(#SVGID_36_);}
	.st23{clip-path:url(#SVGID_38_);}
	.st24{clip-path:url(#SVGID_40_);}
	.st25{clip-path:url(#SVGID_42_);}
	.st26{clip-path:url(#SVGID_44_);}
	.st27{clip-path:url(#SVGID_46_);}
	.st28{clip-path:url(#SVGID_48_);}
	.st29{clip-path:url(#SVGID_50_);}
	.st30{clip-path:url(#SVGID_52_);}
	.st31{clip-path:url(#SVGID_54_);}
	.st32{clip-path:url(#SVGID_56_);}
	.st33{clip-path:url(#SVGID_58_);}
	.st34{clip-path:url(#SVGID_60_);}
	.st35{clip-path:url(#SVGID_62_);}
	.st36{clip-path:url(#SVGID_64_);}
	.st37{clip-path:url(#SVGID_66_);}
	.st38{clip-path:url(#SVGID_68_);}
	.st39{clip-path:url(#SVGID_70_);}
	.st40{clip-path:url(#SVGID_72_);}
	.st41{clip-path:url(#SVGID_74_);}
	.st42{clip-path:url(#SVGID_76_);}
	.st43{clip-path:url(#SVGID_78_);}
	.st44{clip-path:url(#SVGID_80_);}
	.st45{clip-path:url(#SVGID_82_);}
	.st46{clip-path:url(#SVGID_84_);}
	.st47{fill:#5A5A5A;}
	.st48{clip-path:url(#SVGID_86_);}
	.st49{clip-path:url(#SVGID_88_);}
	.st50{clip-path:url(#SVGID_90_);}
	.st51{clip-path:url(#SVGID_92_);}
	.st52{clip-path:url(#SVGID_94_);}
	.st53{clip-path:url(#SVGID_96_);}
	.st54{clip-path:url(#SVGID_98_);}
	.st55{clip-path:url(#SVGID_100_);}
	.st56{clip-path:url(#SVGID_102_);}
	.st57{clip-path:url(#SVGID_104_);}
	.st58{clip-path:url(#SVGID_106_);}
	.st59{clip-path:url(#SVGID_108_);}
	.st60{clip-path:url(#SVGID_110_);}
	.st61{clip-path:url(#SVGID_112_);}
	.st62{clip-path:url(#SVGID_114_);}
	.st63{clip-path:url(#SVGID_116_);}
	.st64{clip-path:url(#SVGID_118_);}
	.st65{clip-path:url(#SVGID_120_);}
	.st66{clip-path:url(#SVGID_122_);}
	.st67{clip-path:url(#SVGID_124_);}
	.st68{clip-path:url(#SVGID_126_);}
	.st69{clip-path:url(#SVGID_128_);}
	.st70{clip-path:url(#SVGID_130_);}
	.st71{clip-path:url(#SVGID_132_);}
	.st72{clip-path:url(#SVGID_134_);}
	.st73{clip-path:url(#SVGID_136_);}
	.st74{clip-path:url(#SVGID_138_);}
	.st75{clip-path:url(#SVGID_140_);}
	.st76{clip-path:url(#SVGID_142_);}
	.st77{clip-path:url(#SVGID_144_);}
	.st78{clip-path:url(#SVGID_146_);}
	.st79{clip-path:url(#SVGID_148_);}
	.st80{clip-path:url(#SVGID_150_);}
	.st81{clip-path:url(#SVGID_152_);}
	.st82{clip-path:url(#SVGID_154_);}
	.st83{clip-path:url(#SVGID_156_);}
	.st84{clip-path:url(#SVGID_158_);}
	.st85{clip-path:url(#SVGID_160_);}
	.st86{clip-path:url(#SVGID_162_);}
	.st87{clip-path:url(#SVGID_164_);}
	.st88{clip-path:url(#SVGID_166_);}
	.st89{clip-path:url(#SVGID_168_);}
	.st90{clip-path:url(#SVGID_170_);}
	.st91{clip-path:url(#SVGID_172_);}
	.st92{clip-path:url(#SVGID_174_);}
	.st93{clip-path:url(#SVGID_176_);}
	.st94{clip-path:url(#SVGID_178_);}
	.st95{clip-path:url(#SVGID_180_);}
	.st96{clip-path:url(#SVGID_182_);}
	.st97{clip-path:url(#SVGID_184_);}
	.st98{clip-path:url(#SVGID_186_);}
	.st99{clip-path:url(#SVGID_188_);}
	.st100{clip-path:url(#SVGID_190_);}
	.st101{clip-path:url(#SVGID_192_);}
	.st102{clip-path:url(#SVGID_194_);}
	.st103{clip-path:url(#SVGID_196_);}
	.st104{clip-path:url(#SVGID_198_);}
	.st105{clip-path:url(#SVGID_200_);}
	.st106{clip-path:url(#SVGID_202_);}
	.st107{clip-path:url(#SVGID_204_);}
	.st108{clip-path:url(#SVGID_206_);}
	.st109{clip-path:url(#SVGID_208_);}
	.st110{clip-path:url(#SVGID_210_);}
	.st111{clip-path:url(#SVGID_212_);}
	.st112{clip-path:url(#SVGID_214_);}
	.st113{clip-path:url(#SVGID_216_);}
	.st114{clip-path:url(#SVGID_218_);}
	.st115{clip-path:url(#SVGID_220_);}
	.st116{clip-path:url(#SVGID_222_);}
	.st117{fill:#323232;}
	.st118{clip-path:url(#SVGID_224_);}
	.st119{clip-path:url(#SVGID_226_);}
	.st120{clip-path:url(#SVGID_228_);}
	.st121{clip-path:url(#SVGID_230_);}
	.st122{clip-path:url(#SVGID_232_);}
	.st123{clip-path:url(#SVGID_234_);}
	.st124{clip-path:url(#SVGID_236_);}
	.st125{clip-path:url(#SVGID_238_);}
	.st126{clip-path:url(#SVGID_240_);}
	.st127{clip-path:url(#SVGID_242_);}
	.st128{clip-path:url(#SVGID_244_);}
	.st129{clip-path:url(#SVGID_246_);}
	.st130{clip-path:url(#SVGID_248_);}
	.st131{clip-path:url(#SVGID_250_);}
	.st132{clip-path:url(#SVGID_252_);}
	.st133{clip-path:url(#SVGID_254_);}
	.st134{clip-path:url(#SVGID_256_);}
	.st135{clip-path:url(#SVGID_258_);}
	.st136{clip-path:url(#SVGID_260_);}
	.st137{clip-path:url(#SVGID_262_);}
	.st138{clip-path:url(#SVGID_264_);}
	.st139{clip-path:url(#SVGID_266_);}
	.st140{clip-path:url(#SVGID_268_);}
	.st141{clip-path:url(#SVGID_270_);}
	.st142{clip-path:url(#SVGID_272_);}
	.st143{clip-path:url(#SVGID_274_);}
	.st144{clip-path:url(#SVGID_276_);}
</style>
<g>
	<g>
		<g>
			<g>
				<defs>
					<rect id="SVGID_223_" width="768" height="60"/>
				</defs>
				<clipPath id="SVGID_2_">
					<use xlink:href="#SVGID_223_"  style="overflow:visible;"/>
				</clipPath>
				<g class="st2">
					<g>
						<defs>
							<rect id="SVGID_225_" x="740.9" y="-81.8" width="66.58" height="87.18"/>
						</defs>
						<clipPath id="SVGID_4_">
							<use xlink:href="#SVGID_225_"  style="overflow:visible;"/>
						</clipPath>
						<g class="st6">
							<rect x="762.75" y="-81.28" class="st4" width="1.04" height="86.15"/>
						</g>
						<g class="st6">
							<path class="st4" d="M807.48,5.39H740.9V4.87c0,0,0-85.96,0-86.15l0-0.52h66.57V5.39z M741.95,4.35h64.49v-85.11h-64.52
								c0.03,0.62,0.03,1.61,0.03,3.18V4.35z"/>
						</g>
					</g>
				</g>
				<g class="st2">
					<g>
						<defs>
							<rect id="SVGID_227_" x="740.9" y="5.38" width="66.58" height="87.18"/>
						</defs>
						<clipPath id="SVGID_6_">
							<use xlink:href="#SVGID_227_"  style="overflow:visible;"/>
						</clipPath>
						<g class="st7">
							<rect x="741.43" y="26.92" class="st4" width="65.53" height="1.04"/>
						</g>
						<g class="st7">
							<rect x="741.43" y="48.46" class="st4" width="65.53" height="1.04"/>
						</g>
						<g class="st7">
							<rect x="762.75" y="5.9" class="st4" width="1.04" height="86.15"/>
						</g>
						<g class="st7">
							<path class="st4" d="M807.48,92.57H740.9v-0.52c0,0,0-85.96,0-86.15l0-0.52h66.57V92.57z M741.95,91.53h64.49V6.42h-64.52
								c0.03,0.62,0.03,1.61,0.03,3.18V91.53z"/>
						</g>
					</g>
				</g>
				<g class="st2">
					<g>
						<defs>
							<rect id="SVGID_229_" x="674.32" y="-81.8" width="66.58" height="87.18"/>
						</defs>
						<clipPath id="SVGID_8_">
							<use xlink:href="#SVGID_229_"  style="overflow:visible;"/>
						</clipPath>
						<g class="st8">
							<rect x="718.01" y="-81.28" class="st4" width="1.04" height="86.15"/>
						</g>
						<g class="st8">
							<rect x="696.17" y="-81.28" class="st4" width="1.04" height="86.15"/>
						</g>
						<g class="st8">
							<path class="st4" d="M740.9,5.39h-66.57V-81.8h66.57V5.39z M675.36,4.35h64.49v-85.11h-64.49V4.35z"/>
						</g>
					</g>
				</g>
				<g class="st2">
					<g>
						<defs>
							<rect id="SVGID_231_" x="674.32" y="5.38" width="66.58" height="87.18"/>
						</defs>
						<clipPath id="SVGID_10_">
							<use xlink:href="#SVGID_231_"  style="overflow:visible;"/>
						</clipPath>
						<g class="st9">
							<rect x="674.84" y="26.92" class="st4" width="65.53" height="1.04"/>
						</g>
						<g class="st9">
							<rect x="674.84" y="48.46" class="st4" width="65.53" height="1.04"/>
						</g>
						<g class="st9">
							<rect x="718.01" y="5.9" class="st4" width="1.04" height="86.15"/>
						</g>
						<g class="st9">
							<rect x="696.17" y="5.9" class="st4" width="1.04" height="86.15"/>
						</g>
						<g class="st9">
							<path class="st4" d="M740.9,92.57h-66.57V5.38h66.57V92.57z M675.36,91.53h64.49V6.42h-64.49V91.53z"/>
						</g>
					</g>
				</g>
				<g class="st2">
					<g>
						<defs>
							<rect id="SVGID_233_" x="607.74" y="-81.8" width="66.58" height="87.18"/>
						</defs>
						<clipPath id="SVGID_12_">
							<use xlink:href="#SVGID_233_"  style="overflow:visible;"/>
						</clipPath>
						<g class="st10">
							<rect x="651.43" y="-81.28" class="st4" width="1.04" height="86.15"/>
						</g>
						<g class="st10">
							<rect x="629.59" y="-81.28" class="st4" width="1.04" height="86.15"/>
						</g>
						<g class="st10">
							<path class="st4" d="M674.32,5.39h-66.57V-81.8h66.05c0.52,0,0.52,0,0.52,4.22V5.39z M608.78,4.35h64.49
								c0-6.82,0-78.3,0-85.11h-64.49V4.35z"/>
						</g>
					</g>
				</g>
				<g class="st2">
					<g>
						<defs>
							<rect id="SVGID_235_" x="607.74" y="5.38" width="66.58" height="87.18"/>
						</defs>
						<clipPath id="SVGID_14_">
							<use xlink:href="#SVGID_235_"  style="overflow:visible;"/>
						</clipPath>
						<g class="st11">
							<rect x="608.26" y="26.92" class="st4" width="65.53" height="1.04"/>
						</g>
						<g class="st11">
							<rect x="608.26" y="48.46" class="st4" width="65.53" height="1.04"/>
						</g>
						<g class="st11">
							<rect x="651.43" y="5.9" class="st4" width="1.04" height="86.15"/>
						</g>
						<g class="st11">
							<rect x="629.59" y="5.9" class="st4" width="1.04" height="86.15"/>
						</g>
						<g class="st11">
							<path class="st4" d="M674.32,92.57h-66.57V5.38h66.05c0.52,0,0.52,0,0.52,4.22V92.57z M608.78,91.53h64.49
								c0-6.82,0-78.3,0-85.11h-64.49V91.53z"/>
						</g>
					</g>
				</g>
				<g class="st2">
					<g>
						<defs>
							<rect id="SVGID_237_" x="541.16" y="-81.8" width="66.58" height="87.18"/>
						</defs>
						<clipPath id="SVGID_16_">
							<use xlink:href="#SVGID_237_"  style="overflow:visible;"/>
						</clipPath>
						<g class="st12">
							<rect x="584.85" y="-81.28" class="st4" width="1.04" height="86.15"/>
						</g>
						<g class="st12">
							<rect x="563.01" y="-81.28" class="st4" width="1.04" height="86.15"/>
						</g>
						<g class="st12">
							<path class="st4" d="M607.73,5.39h-66.57V4.87c0,0,0-85.96,0-86.15l0-0.52h66.57V5.39z M542.2,4.35h64.49v-85.11h-64.52
								c0.03,0.62,0.03,1.61,0.03,3.18V4.35z"/>
						</g>
					</g>
				</g>
				<g class="st2">
					<g>
						<defs>
							<rect id="SVGID_239_" x="541.16" y="5.38" width="66.58" height="87.18"/>
						</defs>
						<clipPath id="SVGID_18_">
							<use xlink:href="#SVGID_239_"  style="overflow:visible;"/>
						</clipPath>
						<g class="st13">
							<rect x="541.68" y="26.92" class="st4" width="65.53" height="1.04"/>
						</g>
						<g class="st13">
							<rect x="541.68" y="48.46" class="st4" width="65.53" height="1.04"/>
						</g>
						<g class="st13">
							<rect x="584.85" y="5.9" class="st4" width="1.04" height="86.15"/>
						</g>
						<g class="st13">
							<rect x="563.01" y="5.9" class="st4" width="1.04" height="86.15"/>
						</g>
						<g class="st13">
							<path class="st4" d="M607.73,92.57h-66.57v-0.52c0,0,0-85.96,0-86.15l0-0.52h66.57V92.57z M542.2,91.53h64.49V6.42h-64.52
								c0.03,0.62,0.03,1.61,0.03,3.18V91.53z"/>
						</g>
					</g>
				</g>
				<g class="st2">
					<g>
						<defs>
							<rect id="SVGID_241_" x="474.58" y="-81.8" width="66.58" height="87.18"/>
						</defs>
						<clipPath id="SVGID_20_">
							<use xlink:href="#SVGID_241_"  style="overflow:visible;"/>
						</clipPath>
						<g class="st14">
							<rect x="518.27" y="-81.28" class="st4" width="1.04" height="86.15"/>
						</g>
						<g class="st14">
							<rect x="496.42" y="-81.28" class="st4" width="1.04" height="86.15"/>
						</g>
						<g class="st14">
							<path class="st4" d="M541.15,5.39h-66.57V-81.8h66.57V5.39z M475.62,4.35h64.49v-85.11h-64.49V4.35z"/>
						</g>
					</g>
				</g>
				<g class="st2">
					<g>
						<defs>
							<rect id="SVGID_243_" x="474.58" y="5.38" width="66.58" height="87.18"/>
						</defs>
						<clipPath id="SVGID_22_">
							<use xlink:href="#SVGID_243_"  style="overflow:visible;"/>
						</clipPath>
						<g class="st15">
							<rect x="475.1" y="26.92" class="st4" width="65.53" height="1.04"/>
						</g>
						<g class="st15">
							<rect x="475.1" y="48.46" class="st4" width="65.53" height="1.04"/>
						</g>
						<g class="st15">
							<rect x="518.27" y="5.9" class="st4" width="1.04" height="86.15"/>
						</g>
						<g class="st15">
							<rect x="496.42" y="5.9" class="st4" width="1.04" height="86.15"/>
						</g>
						<g class="st15">
							<path class="st4" d="M541.15,92.57h-66.57V5.38h66.57V92.57z M475.62,91.53h64.49V6.42h-64.49V91.53z"/>
						</g>
					</g>
				</g>
				<g class="st2">
					<g>
						<defs>
							<rect id="SVGID_245_" x="407.99" y="-81.8" width="66.58" height="87.18"/>
						</defs>
						<clipPath id="SVGID_24_">
							<use xlink:href="#SVGID_245_"  style="overflow:visible;"/>
						</clipPath>
						<g class="st16">
							<rect x="451.69" y="-81.28" class="st4" width="1.04" height="86.15"/>
						</g>
						<g class="st16">
							<rect x="429.84" y="-81.28" class="st4" width="1.04" height="86.15"/>
						</g>
						<g class="st16">
							<path class="st4" d="M474.57,5.39H408V-81.8h66.05c0.52,0,0.52,0,0.52,4.22V5.39z M409.04,4.35h64.49c0-6.82,0-78.3,0-85.11
								h-64.49V4.35z"/>
						</g>
					</g>
				</g>
				<g class="st2">
					<g>
						<defs>
							<rect id="SVGID_247_" x="407.99" y="5.38" width="66.58" height="87.18"/>
						</defs>
						<clipPath id="SVGID_26_">
							<use xlink:href="#SVGID_247_"  style="overflow:visible;"/>
						</clipPath>
						<g class="st17">
							<rect x="408.52" y="26.92" class="st4" width="65.53" height="1.04"/>
						</g>
						<g class="st17">
							<rect x="408.52" y="48.46" class="st4" width="65.53" height="1.04"/>
						</g>
						<g class="st17">
							<rect x="451.69" y="5.9" class="st4" width="1.04" height="86.15"/>
						</g>
						<g class="st17">
							<rect x="429.84" y="5.9" class="st4" width="1.04" height="86.15"/>
						</g>
						<g class="st17">
							<path class="st4" d="M474.57,92.57H408V5.38h66.05c0.52,0,0.52,0,0.52,4.22V92.57z M409.04,91.53h64.49
								c0-6.82,0-78.3,0-85.11h-64.49V91.53z"/>
						</g>
					</g>
				</g>
				<g class="st2">
					<g>
						<defs>
							<rect id="SVGID_249_" x="341.41" y="-81.8" width="66.58" height="87.18"/>
						</defs>
						<clipPath id="SVGID_28_">
							<use xlink:href="#SVGID_249_"  style="overflow:visible;"/>
						</clipPath>
						<g class="st18">
							<rect x="385.11" y="-81.28" class="st4" width="1.04" height="86.15"/>
						</g>
						<g class="st18">
							<rect x="363.26" y="-81.28" class="st4" width="1.04" height="86.15"/>
						</g>
						<g class="st18">
							<path class="st4" d="M407.99,5.39h-66.57l0-87.19h66.57V5.39z M342.46,4.35h64.49v-85.11h-64.49L342.46,4.35z"/>
						</g>
					</g>
				</g>
				<g class="st2">
					<g>
						<defs>
							<rect id="SVGID_251_" x="341.41" y="5.38" width="66.58" height="87.18"/>
						</defs>
						<clipPath id="SVGID_30_">
							<use xlink:href="#SVGID_251_"  style="overflow:visible;"/>
						</clipPath>
						<g class="st19">
							<rect x="341.94" y="26.92" class="st4" width="65.53" height="1.04"/>
						</g>
						<g class="st19">
							<rect x="341.94" y="48.46" class="st4" width="65.53" height="1.04"/>
						</g>
						<g class="st19">
							<rect x="385.11" y="5.9" class="st4" width="1.04" height="86.15"/>
						</g>
						<g class="st19">
							<rect x="363.26" y="5.9" class="st4" width="1.04" height="86.15"/>
						</g>
						<g class="st19">
							<path class="st4" d="M407.99,92.57h-66.57l0-87.19h66.57V92.57z M342.46,91.53h64.49V6.42h-64.49L342.46,91.53z"/>
						</g>
					</g>
				</g>
				<g class="st2">
					<g>
						<defs>
							<rect id="SVGID_253_" x="274.83" y="-81.8" width="66.58" height="87.18"/>
						</defs>
						<clipPath id="SVGID_32_">
							<use xlink:href="#SVGID_253_"  style="overflow:visible;"/>
						</clipPath>
						<g class="st20">
							<rect x="318.52" y="-81.28" class="st4" width="1.04" height="86.15"/>
						</g>
						<g class="st20">
							<rect x="296.68" y="-81.28" class="st4" width="1.04" height="86.15"/>
						</g>
						<g class="st20">
							<path class="st4" d="M341.41,5.39h-66.57V-81.8h66.05c0.52,0,0.52,0,0.52,4.22V5.39z M275.88,4.35h64.49
								c0-6.82,0-78.3,0-85.11h-64.49V4.35z"/>
						</g>
					</g>
				</g>
				<g class="st2">
					<g>
						<defs>
							<rect id="SVGID_255_" x="274.83" y="5.38" width="66.58" height="87.18"/>
						</defs>
						<clipPath id="SVGID_34_">
							<use xlink:href="#SVGID_255_"  style="overflow:visible;"/>
						</clipPath>
						<g class="st21">
							<rect x="275.36" y="26.92" class="st4" width="65.53" height="1.04"/>
						</g>
						<g class="st21">
							<rect x="275.36" y="48.46" class="st4" width="65.53" height="1.04"/>
						</g>
						<g class="st21">
							<rect x="318.52" y="5.9" class="st4" width="1.04" height="86.15"/>
						</g>
						<g class="st21">
							<rect x="296.68" y="5.9" class="st4" width="1.04" height="86.15"/>
						</g>
						<g class="st21">
							<path class="st4" d="M341.41,92.57h-66.57V5.38h66.05c0.52,0,0.52,0,0.52,4.22V92.57z M275.88,91.53h64.49
								c0-6.82,0-78.3,0-85.11h-64.49V91.53z"/>
						</g>
					</g>
				</g>
				<g class="st2">
					<g>
						<defs>
							<rect id="SVGID_257_" x="208.25" y="-81.8" width="66.58" height="87.18"/>
						</defs>
						<clipPath id="SVGID_36_">
							<use xlink:href="#SVGID_257_"  style="overflow:visible;"/>
						</clipPath>
						<g class="st22">
							<rect x="251.94" y="-81.28" class="st4" width="1.04" height="86.15"/>
						</g>
						<g class="st22">
							<rect x="230.1" y="-81.28" class="st4" width="1.04" height="86.15"/>
						</g>
						<g class="st22">
							<path class="st4" d="M274.83,5.39h-66.57V-81.8h66.05c0.52,0,0.52,0,0.52,4.22V5.39z M209.3,4.35h64.49
								c0-6.82,0-78.3,0-85.11H209.3V4.35z"/>
						</g>
					</g>
				</g>
				<g class="st2">
					<g>
						<defs>
							<rect id="SVGID_259_" x="208.25" y="5.38" width="66.58" height="87.18"/>
						</defs>
						<clipPath id="SVGID_38_">
							<use xlink:href="#SVGID_259_"  style="overflow:visible;"/>
						</clipPath>
						<g class="st23">
							<rect x="208.78" y="26.92" class="st4" width="65.53" height="1.04"/>
						</g>
						<g class="st23">
							<rect x="208.78" y="48.46" class="st4" width="65.53" height="1.04"/>
						</g>
						<g class="st23">
							<rect x="251.94" y="5.9" class="st4" width="1.04" height="86.15"/>
						</g>
						<g class="st23">
							<rect x="230.1" y="5.9" class="st4" width="1.04" height="86.15"/>
						</g>
						<g class="st23">
							<path class="st4" d="M274.83,92.57h-66.57V5.38h66.05c0.52,0,0.52,0,0.52,4.22V92.57z M209.3,91.53h64.49
								c0-6.82,0-78.3,0-85.11H209.3V91.53z"/>
						</g>
					</g>
				</g>
				<g class="st2">
					<g>
						<defs>
							<rect id="SVGID_261_" x="141.67" y="-81.8" width="66.58" height="87.18"/>
						</defs>
						<clipPath id="SVGID_40_">
							<use xlink:href="#SVGID_261_"  style="overflow:visible;"/>
						</clipPath>
						<g class="st24">
							<rect x="185.36" y="-81.28" class="st4" width="1.04" height="86.15"/>
						</g>
						<g class="st24">
							<rect x="163.52" y="-81.28" class="st4" width="1.04" height="86.15"/>
						</g>
						<g class="st24">
							<path class="st4" d="M208.25,5.39h-66.57l0-87.19h66.57V5.39z M142.72,4.35h64.49v-85.11h-64.49L142.72,4.35z"/>
						</g>
					</g>
				</g>
				<g class="st2">
					<g>
						<defs>
							<rect id="SVGID_263_" x="141.67" y="5.38" width="66.58" height="87.18"/>
						</defs>
						<clipPath id="SVGID_42_">
							<use xlink:href="#SVGID_263_"  style="overflow:visible;"/>
						</clipPath>
						<g class="st25">
							<rect x="142.19" y="26.92" class="st4" width="65.53" height="1.04"/>
						</g>
						<g class="st25">
							<rect x="142.19" y="48.46" class="st4" width="65.53" height="1.04"/>
						</g>
						<g class="st25">
							<rect x="185.36" y="5.9" class="st4" width="1.04" height="86.15"/>
						</g>
						<g class="st25">
							<rect x="163.52" y="5.9" class="st4" width="1.04" height="86.15"/>
						</g>
						<g class="st25">
							<path class="st4" d="M208.25,92.57h-66.57l0-87.19h66.57V92.57z M142.72,91.53h64.49V6.42h-64.49L142.72,91.53z"/>
						</g>
					</g>
				</g>
				<g class="st2">
					<g>
						<defs>
							<rect id="SVGID_265_" x="75.09" y="-81.8" width="66.58" height="87.18"/>
						</defs>
						<clipPath id="SVGID_44_">
							<use xlink:href="#SVGID_265_"  style="overflow:visible;"/>
						</clipPath>
						<g class="st26">
							<rect x="118.78" y="-81.28" class="st4" width="1.04" height="86.15"/>
						</g>
						<g class="st26">
							<rect x="96.94" y="-81.28" class="st4" width="1.04" height="86.15"/>
						</g>
						<g class="st26">
							<path class="st4" d="M141.67,5.39H75.09V-81.8h66.05c0.52,0,0.52,0,0.52,4.22V5.39z M76.13,4.35h64.49c0-6.82,0-78.3,0-85.11
								H76.13V4.35z"/>
						</g>
					</g>
				</g>
				<g class="st2">
					<g>
						<defs>
							<rect id="SVGID_267_" x="75.09" y="5.38" width="66.58" height="87.18"/>
						</defs>
						<clipPath id="SVGID_46_">
							<use xlink:href="#SVGID_267_"  style="overflow:visible;"/>
						</clipPath>
						<g class="st27">
							<rect x="75.61" y="26.92" class="st4" width="65.53" height="1.04"/>
						</g>
						<g class="st27">
							<rect x="75.61" y="48.46" class="st4" width="65.53" height="1.04"/>
						</g>
						<g class="st27">
							<rect x="118.78" y="5.9" class="st4" width="1.04" height="86.15"/>
						</g>
						<g class="st27">
							<rect x="96.94" y="5.9" class="st4" width="1.04" height="86.15"/>
						</g>
						<g class="st27">
							<path class="st4" d="M141.67,92.57H75.09V5.38h66.05c0.52,0,0.52,0,0.52,4.22V92.57z M76.13,91.53h64.49
								c0-6.82,0-78.3,0-85.11H76.13V91.53z"/>
						</g>
					</g>
				</g>
				<g class="st2">
					<g>
						<defs>
							<rect id="SVGID_269_" x="8.51" y="-81.8" width="66.58" height="87.18"/>
						</defs>
						<clipPath id="SVGID_48_">
							<use xlink:href="#SVGID_269_"  style="overflow:visible;"/>
						</clipPath>
						<g class="st28">
							<rect x="52.2" y="-81.28" class="st4" width="1.04" height="86.15"/>
						</g>
						<g class="st28">
							<rect x="30.36" y="-81.28" class="st4" width="1.04" height="86.15"/>
						</g>
						<g class="st28">
							<path class="st4" d="M75.09,5.39H8.51V4.87c0,0,0-85.96,0-86.15l0-0.52h66.57V5.39z M9.55,4.35h64.49v-85.11H9.53
								c0.03,0.62,0.03,1.61,0.03,3.18V4.35z"/>
						</g>
					</g>
				</g>
				<g class="st2">
					<g>
						<defs>
							<rect id="SVGID_271_" x="8.51" y="5.38" width="66.58" height="87.18"/>
						</defs>
						<clipPath id="SVGID_50_">
							<use xlink:href="#SVGID_271_"  style="overflow:visible;"/>
						</clipPath>
						<g class="st29">
							<rect x="9.03" y="26.92" class="st4" width="65.53" height="1.04"/>
						</g>
						<g class="st29">
							<rect x="9.03" y="48.46" class="st4" width="65.53" height="1.04"/>
						</g>
						<g class="st29">
							<rect x="52.2" y="5.9" class="st4" width="1.04" height="86.15"/>
						</g>
						<g class="st29">
							<rect x="30.36" y="5.9" class="st4" width="1.04" height="86.15"/>
						</g>
						<g class="st29">
							<path class="st4" d="M75.09,92.57H8.51v-0.52c0,0,0-85.96,0-86.15l0-0.52h66.57V92.57z M9.55,91.53h64.49V6.42H9.53
								C9.55,7.04,9.55,8.03,9.55,9.6V91.53z"/>
						</g>
					</g>
				</g>
				<g class="st2">
					<g>
						<defs>
							<rect id="SVGID_273_" x="-58.07" y="-81.8" width="66.58" height="87.18"/>
						</defs>
						<clipPath id="SVGID_52_">
							<use xlink:href="#SVGID_273_"  style="overflow:visible;"/>
						</clipPath>
						<g class="st30">
							<path class="st4" d="M8.5,5.39h-66.57l0-87.19H8.5V5.39z M-57.03,4.35H7.46v-85.11h-64.49L-57.03,4.35z"/>
						</g>
					</g>
				</g>
				<g class="st2">
					<g>
						<defs>
							<rect id="SVGID_275_" x="-58.07" y="5.38" width="66.58" height="87.18"/>
						</defs>
						<clipPath id="SVGID_54_">
							<use xlink:href="#SVGID_275_"  style="overflow:visible;"/>
						</clipPath>
						<g class="st31">
							<rect x="-57.55" y="26.92" class="st4" width="65.53" height="1.04"/>
						</g>
						<g class="st31">
							<rect x="-57.55" y="48.46" class="st4" width="65.53" height="1.04"/>
						</g>
						<g class="st31">
							<path class="st4" d="M8.5,92.57h-66.57l0-87.19H8.5V92.57z M-57.03,91.53H7.46V6.42h-64.49L-57.03,91.53z"/>
						</g>
					</g>
				</g>
			</g>
		</g>
	</g>
</g>
</svg>
