<?xml version="1.0" encoding="utf-8"?>
<!-- Generator: Adobe Illustrator 22.0.1, SVG Export Plug-In . SVG Version: 6.00 Build 0)  -->
<svg version="1.1" id="圖層_1" xmlns="http://www.w3.org/2000/svg" xmlns:xlink="http://www.w3.org/1999/xlink" x="0px" y="0px"
	 viewBox="0 0 40 40" style="enable-background:new 0 0 40 40;" xml:space="preserve">
<style type="text/css">
	.st0{fill:#FFFFFF;}
	.st1{fill:#FF8728;}
</style>
<g>
	<g>
		<path class="st0" d="M40,20c0,11-9,20-20,20C9,40,0,31,0,20C0,9,9,0,20,0C31,0,40,9,40,20"/>
		<path class="st1" d="M26.1,7.9H13.9c-3.3,0-6,2.7-6,6v12.2c0,3.3,2.7,6,6,6h12.1c3.3,0,6-2.7,6-6V13.9
			C32.1,10.6,29.4,7.9,26.1,7.9 M30.7,26.1c0,2.6-2.1,4.6-4.6,4.6H13.9c-2.6,0-4.6-2.1-4.6-4.6V13.9c0-2.6,2.1-4.6,4.6-4.6h12.1
			c2.6,0,4.6,2.1,4.6,4.6V26.1z"/>
	</g>
	<path class="st1" d="M19.9,14.6c-2.9,0-5.3,2.4-5.3,5.3c0,3,2.4,5.3,5.3,5.3s5.3-2.4,5.3-5.3C25.3,17,22.9,14.6,19.9,14.6
		 M19.9,23.9c-2.2,0-4-1.8-4-4c0-2.2,1.8-4,4-4c2.2,0,4,1.8,4,4C23.9,22.1,22.1,23.9,19.9,23.9"/>
	<path class="st1" d="M28.9,13.4c0,0.9-0.8,1.7-1.7,1.7c-0.9,0-1.7-0.8-1.7-1.7c0-0.9,0.8-1.7,1.7-1.7
		C28.1,11.7,28.9,12.5,28.9,13.4"/>
</g>
</svg>
