<?xml version="1.0" encoding="utf-8"?>
<!-- Generator: Adobe Illustrator 22.0.1, SVG Export Plug-In . SVG Version: 6.00 Build 0)  -->
<svg version="1.1" id="圖層_1" xmlns="http://www.w3.org/2000/svg" xmlns:xlink="http://www.w3.org/1999/xlink" x="0px" y="0px"
	 viewBox="0 0 40 40" style="enable-background:new 0 0 40 40;" xml:space="preserve">
<style type="text/css">
	.st0{fill:#FFFFFF;}
	.st1{fill:#FF8728;}
</style>
<g>
	<path class="st0" d="M40,20c0,11-9,20-20,20S0,31,0,20C0,9,9,0,20,0S40,9,40,20"/>
	<path class="st1" d="M33.3,9.4c-0.2,0-0.3-0.1-0.5-0.1H7.2c-0.3,0-0.5,0-0.8,0.1c-0.9,0.3-1.5,1.2-1.5,2.2v16.7
		c0,0.9,0.6,1.7,1.4,2.1c0.1,0.1,0.3,0.1,0.4,0.1l0.7,0h25.5c0.2,0,0.5,0,0.7-0.1c0.9-0.3,1.6-1.2,1.6-2.2V11.7
		C35.1,10.6,34.4,9.6,33.3,9.4 M30.3,10.5l-9.1,7.9l-1-0.8c-0.1-0.1-0.2-0.1-0.4-0.1c-0.1,0-0.3,0-0.4,0.1l-1,0.8l-9.2-7.9H30.3z
		 M6.2,29C6.1,28.8,6,28.6,6,28.3V11.7c0-0.6,0.5-1.2,1.2-1.2h0.4l10,8.6L6.2,29z M7.3,29.5l0.5-0.4L9,28l9.5-8.2l0.9-0.8l0.5-0.4
		l0.5,0.4l0.9,0.8l9.6,8.2l1.6,1.4H7.3z M34,28.3c0,0.3-0.1,0.6-0.3,0.8l-11.6-10l10-8.6h0.8c0.6,0,1.2,0.5,1.2,1.2V28.3z"/>
</g>
</svg>
