<?xml version="1.0" encoding="utf-8"?>
<!-- Generator: Adobe Illustrator 22.0.1, SVG Export Plug-In . SVG Version: 6.00 Build 0)  -->
<svg version="1.1" id="圖層_1" xmlns="http://www.w3.org/2000/svg" xmlns:xlink="http://www.w3.org/1999/xlink" x="0px" y="0px"
	 viewBox="0 0 40 40" style="enable-background:new 0 0 40 40;" xml:space="preserve">
<style type="text/css">
	.st0{fill:#FFFFFF;}
	.st1{fill:#FF8728;}
</style>
<g>
	<path class="st0" d="M40,20c0,11-9,20-20,20C9,40,0,31,0,20C0,9,9,0,20,0C31,0,40,9,40,20"/>
	<path class="st1" d="M22.3,16.1h5.1l-0.7,5.1l0,0.1h-4.4v13.4h-5.4V21.3h-4.5v-5.2h4.5v-3.7h0c0,0-0.4-6.8,6.2-7l4.4,0.2l0,4.8
		h-3.5h0c-1,0-1.7,0.9-1.7,1.9c0,0.1,0,0.1,0,0.2h0v0.3h0V16.1z"/>
</g>
</svg>
