<?xml version="1.0" encoding="utf-8"?>
<!-- Generator: Adobe Illustrator 22.0.1, SVG Export Plug-In . SVG Version: 6.00 Build 0)  -->
<svg version="1.1" id="圖層_1" xmlns="http://www.w3.org/2000/svg" xmlns:xlink="http://www.w3.org/1999/xlink" x="0px" y="0px"
	 viewBox="0 0 169 1218.5" style="enable-background:new 0 0 169 1218.5;" xml:space="preserve">
<style type="text/css">
	.st0{fill:#EFECEA;}
</style>
<path class="st0" d="M155.2,86.1c0-1.9,1-5.1,3-9.6c4.3-9.9,6.5-19.2,6.5-28c0-14.1-4.3-25.7-12.9-34.8C143.2,4.5,133,0,121.1,0
	c-6.8,0-13.1,1.5-18.8,4.6c-5.7,3.1-10.9,7.6-15.6,13.6s-11,16-19,30.2c-7.9,14.2-13.1,22.8-15.6,26c-3.6,4.7-7.4,8.2-11.6,10.4
	c-4.1,2.2-8.3,3.3-12.3,3.3c-7.3,0-13.7-3-19-8.8c-5.4-5.9-8.1-13.9-8.1-24.1c0-8.8,2-16.9,5.9-24.2c3.9-7.4,8.8-12.8,14.7-16.4
	c5.9-3.6,14.8-6.4,26.7-8.5V1.6H0v8.2c0.7,1,1,2.3,1,3.8c0,1.1-0.3,2.9-1,5.5v69.8c1.5,2.3,3.3,4.5,5.2,6.6
	c9.1,9.7,19.9,14.6,32.4,14.6c6.6,0,12.9-1.5,18.9-4.6S67.8,98,72.2,92.3c4.4-5.7,10.8-16.2,19.1-31.7c10.2-19,18.3-31,24.4-36
	c4.1-3.5,8.7-5.2,13.8-5.2c6.6,0,12.5,2.8,17.6,8.3c5.2,5.5,7.8,12.5,7.8,21c0,7.5-1.9,14.7-5.7,21.7c-3.8,7-9,12.4-15.5,16.2
	c-6.5,3.8-15.3,6.4-26.2,7.9V99h57.3v-4.5c-3.8-0.8-6.4-1.9-7.6-3.2C155.8,89.9,155.2,88.2,155.2,86.1z"/>
<path class="st0" d="M101.7,147.3c-5.9-7.2-12.3-10.7-19.3-10.7c-3.7,0-6.5,1-8.7,2.9c-2.1,1.9-3.2,4.4-3.2,7.4c0,3.1,1,5.6,3,7.5
	c2,1.9,4.9,2.9,8.7,2.9l7.1-0.2c3.6,0,6.8,1.5,9.5,4.6c2.8,3,4.1,7.1,4.1,12.2c0,6.8-2.1,11.9-6.2,15.4s-11.8,5.3-23,5.3h-4.4
	c-7-19.2-12.9-32.9-17.8-41.2c-4.9-8.3-10.1-14.1-15.6-17.4c-4-2.4-8.7-3.7-14.2-3.7c-8.6,0-15.6,2.5-20.9,7.5c-0.3,0.3-0.7,0.6-1,1
	v38.4c2.6,3.8,6.5,8.9,11.5,15.4c-4.9,0.1-8.7,0.7-11.5,2v26.8c2.9,3.4,6.7,6.9,11.5,10.5h6.8c-4.9-4.9-7.9-8.2-8.9-9.9
	c-0.6-1-0.9-2.1-0.9-3.4c0-1.2,0.4-2.3,1.2-3.2c0.8-0.9,2.4-1.6,4.8-2c2.4-0.4,8.9-0.6,19.6-0.6h38c10.8,0,18-0.7,21.5-2.2
	c5.4-2.3,9.3-5.8,11.8-10.6c3.3-6.4,5-14.5,5-24.4C110.5,164.5,107.6,154.5,101.7,147.3z M19.4,194.6c-8.1-10.1-12.2-18.2-12.2-24.4
	c0-4.6,1.9-8.6,5.8-12.1c3.9-3.5,8.7-5.3,14.6-5.3c4.6,0,8.9,1.4,12.8,4.1c3.9,2.8,7.6,7.4,11.2,13.8c2,3.6,5.5,11.5,10.4,23.8H19.4
	z"/>
<path class="st0" d="M155.3,241.8l-4.3,2.1c1.3,3.3,2,5.9,2,8.1c0,2-0.5,3.5-1.6,4.8c-1.1,1.3-3,2.2-5.9,2.7
	c-2.9,0.6-10.6,0.9-23.3,0.9H20.7c-6.9,0-11.6-0.5-14-1.6s-4.2-2.5-5.3-4.4c-0.7-1.2-1.1-2.9-1.4-5.3v44.1c0.3-2.9,0.8-5,1.5-6.3
	c1.2-2.1,2.9-3.7,5.2-4.7c2.3-1,6.9-1.5,13.9-1.5H169v-5.5L155.3,241.8z"/>
<path class="st0" d="M94.6,327.8c-10.7-9.8-25.6-14.7-44.7-14.7c-17.7,0-31.7,4.8-42.2,14.3c-3,2.7-5.5,5.6-7.6,8.6v50.6
	c1.6,2.2,3.5,4.2,5.7,6.1C14.9,401,25,406,36.2,407.7l2.4-3.8c-9.8-3.7-16.7-8.2-20.7-13.6c-4-5.4-6-11.8-6-19.1
	c0-11,4.7-20.5,14.2-28.7c9.4-8.1,22.5-12.2,39.1-12.1v77.3c13.8,0,24.9-4,33.1-12.1s12.4-18.3,12.4-30.9
	C110.6,349.9,105.3,337.6,94.6,327.8z M98,370.5c-2.6,4-6.2,7.1-10.8,9.1c-2.9,1.3-8,2.2-15.1,2.6v-51.8c9.4,0.9,16.7,4,21.9,9.3
	s7.9,11.4,7.9,18.1C101.9,362.3,100.6,366.5,98,370.5z"/>
<path class="st0" d="M106.7,488.3c-0.6-0.7-0.9-1.8-0.9-3c0-1.4,0.6-4.2,1.8-8.3c1.9-6.3,2.8-11.6,2.8-16c0-10-3.1-18.2-9.3-24.5
	c-6.2-6.3-13.9-9.5-23.1-9.5c-7.1,0-12.9,1.8-17.6,5.5c-4.7,3.7-10,11.4-15.9,23.2c-5.9,11.8-10.7,19.7-14.5,23.6
	c-3.8,3.9-8.6,5.9-14.2,5.9c-4.6,0-8.6-1.8-11.9-5.3c-1.9-2.1-3.3-4.5-4.1-7.4v17.5c0.4,0.6,0.9,1.1,1.3,1.7
	c6.2,7.7,14.4,11.5,24.6,11.5c13.2,0,23.8-8.3,31.9-24.8l8.7-17.8c3.7-7.7,7.3-12.9,10.6-15.4c3.3-2.6,7.2-3.9,11.7-3.9
	c3.7,0,7,1.8,10,5.3c3,3.5,4.5,8.1,4.5,13.8c0,7.5-2.2,13.7-6.5,18.5c-4.3,4.8-12.5,8.8-24.4,11.9v4h38.1v-4
	C108.5,489.9,107.3,489,106.7,488.3z M33.6,431.5v-4H0V459c1.2-5.2,3.8-10,7.8-14.4C13.6,438.1,22.2,433.8,33.6,431.5z"/>
<path class="st0" d="M153.2,710.5c0-1.5,0.9-3.9,2.7-7.3c5.9-11.6,8.8-23.4,8.8-35.4c0-15.4-3.8-29.6-11.4-42.5
	c-7.6-13-18.3-23.2-32.2-30.6c-13.8-7.4-29-11.1-45.5-11.1c-20.5,0-38.3,5.6-53.5,16.9c-9.7,7.2-17,15.7-22.1,25.6v74.3
	c0.6,1.1,1.2,2.2,1.9,3.2c6.8,11.1,17.6,20.8,32.3,29l2.4-3.8C23,719,13.8,710,9.2,701.8c-4.6-8.2-6.9-17.7-6.9-28.5
	c0-12.4,2.9-23.4,8.8-33c5.9-9.6,14.3-16.9,25.3-21.7c11-4.8,24-7.2,38.9-7.2c18.2,0,33.3,2.5,45.5,7.6
	c12.2,5.1,21.1,12.1,26.7,20.9c5.6,8.9,8.4,18.8,8.4,29.8c0,13.1-3.7,24.3-11.1,33.7c-7.4,9.4-19.5,16.6-36.4,21.6v3.8l56.3-3.8
	v-4.3c-3.9-0.9-7-2.4-9.2-4.5C154,714.7,153.2,712.8,153.2,710.5z"/>
<path class="st0" d="M155.3,748.8l-4.3,2.1c1.3,3.3,2,5.9,2,8.1c0,2-0.5,3.6-1.6,4.8c-1.1,1.3-3,2.2-5.9,2.8
	c-2.9,0.6-10.6,0.9-23.3,0.9H20.7c-6.9,0-11.6-0.5-14-1.6s-4.2-2.5-5.3-4.4c-0.7-1.2-1.1-2.9-1.4-5.3v44.1c0.3-2.9,0.8-5,1.5-6.3
	c1.2-2.1,2.9-3.7,5.2-4.7c2.3-1,6.9-1.5,13.9-1.5H169v-5.5L155.3,748.8z"/>
<path class="st0" d="M94.6,834.8C83.9,825,68.9,820,49.8,820c-17.7,0-31.7,4.8-42.2,14.3c-3,2.7-5.5,5.6-7.6,8.6v50.6
	c1.6,2.2,3.5,4.2,5.7,6.1c9.2,8.2,19.3,13.2,30.5,14.9l2.4-3.8c-9.8-3.7-16.7-8.2-20.7-13.6c-4-5.4-6-11.8-6-19.1
	c0-11,4.7-20.5,14.2-28.7c9.4-8.1,22.5-12.2,39.1-12.1v77.3c13.8,0,24.9-4,33.1-12.1c8.3-8.1,12.4-18.4,12.4-30.9
	C110.6,856.9,105.3,844.6,94.6,834.8z M98,877.5c-2.6,4-6.2,7.1-10.8,9.1c-2.9,1.3-8,2.1-15.1,2.6v-51.8c9.4,0.9,16.7,4,21.9,9.3
	c5.3,5.3,7.9,11.4,7.9,18.1C101.9,869.2,100.6,873.5,98,877.5z"/>
<path class="st0" d="M110.5,957.1l-13.7-33.8l-4.4,1.2c1.2,3.2,1.8,6,1.8,8.5c0,2.1-0.6,3.9-1.7,5.3c-1.1,1.4-2.9,2.4-5.4,2.9
	c-2.5,0.5-10.2,0.8-23.3,0.8H20.5c-6.5,0-10.5-0.2-11.8-0.6c-2.9-0.8-4.9-2.2-6.2-4.3c-1.3-2-2.1-4.6-2.5-8.1v48.1
	c0.3-2.9,1-5.2,2-7c1.5-2.7,3.3-4.6,5.5-5.6c3.2-1.6,7.9-2.3,14-2.3h53.6c7.6,3.9,13.1,7.7,16.5,11.3c1.6,1.7,2.4,3.3,2.4,4.8
	c0,1.7-1.4,4.3-4.2,7.9c-2.8,3.5-4.2,6.7-4.2,9.6c0,2.9,1.1,5.4,3.3,7.6c2.2,2.1,4.9,3.2,8.1,3.2c3.6,0,6.7-1.5,9.5-4.4
	c2.7-2.9,4.1-6.6,4.1-11.1c0-9.9-8.4-19.5-25.1-28.8h25.1V957.1z"/>
<path class="st0" d="M169,1040.3l-13.7-33.2l-4.3,2.1c1.4,3.4,2.1,6,2.1,7.7c0,2.1-0.6,3.8-1.6,5.1c-1.1,1.3-3.1,2.2-6,2.8
	c-2.9,0.6-10.8,0.8-23.7,0.8H19.9c-6.6,0-11.2-0.6-13.9-1.8c-1.9-0.9-3.3-2.2-4.1-3.9c-0.9-1.9-1.5-4.4-1.9-7.6v46.2
	c0.3-3.2,0.7-5.5,1.4-6.7c1-1.9,2.6-3.3,4.9-4.3c2.3-1,7-1.5,14.3-1.5h37.1l-43.8,34.3c-4.1,3.3-7.2,4.9-9,4.9
	c-1.5,0-2.8-0.6-3.6-1.7c-0.6-0.7-0.9-1.8-1.2-3.4v45.7c0.2-2.1,0.5-3.8,1-5c1.1-2.9,3.6-6.3,7.5-10.3c2.7-2.8,9-8.1,19-16.1
	l36.3-28.7l26.5,28.7c4.8,5.3,8.1,10.2,10,14.6c1.9,4.4,2.9,10,3.1,16.7h3.9v-48.6h-3.9c-0.2,3.1-0.8,5.3-2,6.7
	c-1.2,1.3-2.6,2-4.2,2c-1,0-1.9-0.3-2.9-1c-1.5-1-5-4.5-10.5-10.5l-25.9-28.5H169V1040.3z"/>
<path class="st0" d="M106.7,1203.5c-0.6-0.7-0.9-1.8-0.9-3.1c0-1.4,0.6-4.1,1.8-8.3c1.9-6.3,2.8-11.6,2.8-16c0-10-3.1-18.2-9.3-24.5
	c-6.2-6.3-13.9-9.5-23.1-9.5c-7.1,0-12.9,1.8-17.6,5.5c-4.7,3.7-10,11.4-15.9,23.2c-5.9,11.8-10.7,19.7-14.5,23.6
	c-3.8,3.9-8.6,5.9-14.2,5.9c-4.6,0-8.6-1.8-11.9-5.3c-1.9-2.1-3.3-4.5-4.1-7.3v17.5c0.4,0.6,0.9,1.1,1.3,1.7
	c6.2,7.7,14.4,11.5,24.6,11.5c13.2,0,23.8-8.3,31.9-24.8l8.7-17.8c3.7-7.7,7.3-12.9,10.6-15.4c3.3-2.6,7.2-3.9,11.7-3.9
	c3.7,0,7,1.8,10,5.3c3,3.5,4.5,8.1,4.5,13.8c0,7.5-2.2,13.7-6.5,18.5c-4.3,4.8-12.5,8.8-24.4,11.9v4h38.1v-4
	C108.5,1205.1,107.3,1204.2,106.7,1203.5z M33.6,1146.7v-4H0v31.5c1.2-5.2,3.8-10,7.8-14.4C13.6,1153.3,22.2,1149,33.6,1146.7z"/>
</svg>
