<?xml version="1.0" encoding="utf-8"?>
<!-- Generator: Adobe Illustrator 22.0.1, SVG Export Plug-In . SVG Version: 6.00 Build 0)  -->
<svg version="1.1" id="圖層_1" xmlns="http://www.w3.org/2000/svg" xmlns:xlink="http://www.w3.org/1999/xlink" x="0px" y="0px"
	 viewBox="0 0 1920 284.4" style="enable-background:new 0 0 1920 284.4;" xml:space="preserve">
<style type="text/css">
	.st0{clip-path:url(#SVGID_2_);}
	.st1{fill:none;}
	.st2{fill:#EFECEA;}
	.st3{clip-path:url(#SVGID_4_);}
	.st4{clip-path:url(#SVGID_6_);}
	.st5{clip-path:url(#SVGID_8_);}
	.st6{fill:#969696;}
	.st7{opacity:0.8;}
	.st8{fill:#D2D2D3;}
</style>
<g>
	<g>
		<defs>
			
				<rect id="SVGID_1_" y="28.9" transform="matrix(-1 -1.224647e-16 1.224647e-16 -1 1325.9677 232.4386)" width="1326" height="174.6"/>
		</defs>
		<clipPath id="SVGID_2_">
			<use xlink:href="#SVGID_1_"  style="overflow:visible;"/>
		</clipPath>
		<g class="st0">
			<rect x="1267.8" y="-45.3" class="st1" width="66.5" height="88.3"/>
			<g>
				<rect x="1268.3" y="20.1" class="st2" width="65.4" height="1"/>
			</g>
			<g>
				<rect x="1311.4" y="-44.8" class="st2" width="1" height="87.3"/>
			</g>
			<g>
				<rect x="1289.6" y="-44.8" class="st2" width="1" height="87.3"/>
			</g>
			<g>
				<path class="st2" d="M1334.2,43h-66.5v-88.3h66.5V43z M1268.8,41.9h64.4v-86.2h-64.4V41.9z"/>
			</g>
		</g>
		<g class="st0">
			<rect x="1267.8" y="43" class="st1" width="66.5" height="88.3"/>
			<g>
				<rect x="1268.3" y="64.8" class="st2" width="65.4" height="1"/>
			</g>
			<g>
				<rect x="1268.3" y="86.6" class="st2" width="65.4" height="1"/>
			</g>
			<g>
				<rect x="1268.3" y="108.4" class="st2" width="65.4" height="1"/>
			</g>
			<g>
				<rect x="1311.4" y="43.5" class="st2" width="1" height="87.3"/>
			</g>
			<g>
				<rect x="1289.6" y="43.5" class="st2" width="1" height="87.3"/>
			</g>
			<g>
				<path class="st2" d="M1334.2,131.3h-66.5V43l66.5,0V131.3z M1268.8,130.2h64.4V44l-64.4,0V130.2z"/>
			</g>
		</g>
		<g class="st0">
			<rect x="1267.8" y="131.3" class="st1" width="66.5" height="88.3"/>
			<g>
				<rect x="1268.3" y="153.1" class="st2" width="65.4" height="1"/>
			</g>
			<g>
				<rect x="1268.3" y="174.9" class="st2" width="65.4" height="1"/>
			</g>
			<g>
				<rect x="1268.3" y="196.7" class="st2" width="65.4" height="1"/>
			</g>
			<g>
				<rect x="1311.4" y="131.8" class="st2" width="1" height="87.3"/>
			</g>
			<g>
				<rect x="1289.6" y="131.8" class="st2" width="1" height="87.3"/>
			</g>
			<g>
				<path class="st2" d="M1334.2,219.6h-66.5v-88.3h66.5V219.6z M1268.8,218.5h64.4v-86.2h-64.4V218.5z"/>
			</g>
		</g>
		<g class="st0">
			<rect x="1201.3" y="-45.3" class="st1" width="66.5" height="88.3"/>
			<g>
				<rect x="1201.8" y="20.1" class="st2" width="65.4" height="1"/>
			</g>
			<g>
				<rect x="1244.9" y="-44.8" class="st2" width="1" height="87.3"/>
			</g>
			<g>
				<rect x="1223.1" y="-44.8" class="st2" width="1" height="87.3"/>
			</g>
			<g>
				<path class="st2" d="M1267.8,43h-66.5v-88.3h66.5V43z M1202.3,41.9h64.4v-86.2h-64.4V41.9z"/>
			</g>
		</g>
		<g class="st0">
			<rect x="1201.3" y="43" class="st1" width="66.5" height="88.3"/>
			<g>
				<rect x="1201.8" y="64.8" class="st2" width="65.4" height="1"/>
			</g>
			<g>
				<rect x="1201.8" y="86.6" class="st2" width="65.4" height="1"/>
			</g>
			<g>
				<rect x="1201.8" y="108.4" class="st2" width="65.4" height="1"/>
			</g>
			<g>
				<rect x="1244.9" y="43.5" class="st2" width="1" height="87.3"/>
			</g>
			<g>
				<rect x="1223.1" y="43.5" class="st2" width="1" height="87.3"/>
			</g>
			<g>
				<path class="st2" d="M1267.8,131.3h-66.5V43l66.5,0V131.3z M1202.3,130.2h64.4V44l-64.4,0V130.2z"/>
			</g>
		</g>
		<g class="st0">
			<rect x="1201.3" y="131.3" class="st1" width="66.5" height="88.3"/>
			<g>
				<rect x="1201.8" y="153.1" class="st2" width="65.4" height="1"/>
			</g>
			<g>
				<rect x="1201.8" y="174.9" class="st2" width="65.4" height="1"/>
			</g>
			<g>
				<rect x="1201.8" y="196.7" class="st2" width="65.4" height="1"/>
			</g>
			<g>
				<rect x="1244.9" y="131.8" class="st2" width="1" height="87.3"/>
			</g>
			<g>
				<rect x="1223.1" y="131.8" class="st2" width="1" height="87.3"/>
			</g>
			<g>
				<path class="st2" d="M1267.8,219.6h-66.5v-88.3h66.5V219.6z M1202.3,218.5h64.4v-86.2h-64.4V218.5z"/>
			</g>
		</g>
		<g class="st0">
			<g>
				<defs>
					<rect id="SVGID_3_" x="1134.8" y="-45.3" width="66.5" height="88.3"/>
				</defs>
				<clipPath id="SVGID_4_">
					<use xlink:href="#SVGID_3_"  style="overflow:visible;"/>
				</clipPath>
				<g class="st3">
					<rect x="1135.3" y="20.1" class="st2" width="65.4" height="1"/>
				</g>
				<g class="st3">
					<rect x="1178.4" y="-44.8" class="st2" width="1" height="87.3"/>
				</g>
				<g class="st3">
					<rect x="1156.6" y="-44.8" class="st2" width="1" height="87.3"/>
				</g>
				<g class="st3">
					<path class="st2" d="M1201.3,43h-66.5v-88.3h66.5V43z M1135.8,41.9h64.4v-86.2h-64.4V41.9z"/>
				</g>
			</g>
		</g>
		<g class="st0">
			<g>
				<defs>
					<rect id="SVGID_5_" x="1134.8" y="43" width="66.5" height="88.3"/>
				</defs>
				<clipPath id="SVGID_6_">
					<use xlink:href="#SVGID_5_"  style="overflow:visible;"/>
				</clipPath>
				<g class="st4">
					<rect x="1135.3" y="64.8" class="st2" width="65.4" height="1"/>
				</g>
				<g class="st4">
					<rect x="1135.3" y="86.6" class="st2" width="65.4" height="1"/>
				</g>
				<g class="st4">
					<rect x="1135.3" y="108.4" class="st2" width="65.4" height="1"/>
				</g>
				<g class="st4">
					<rect x="1178.4" y="43.5" class="st2" width="1" height="87.3"/>
				</g>
				<g class="st4">
					<rect x="1156.6" y="43.5" class="st2" width="1" height="87.3"/>
				</g>
				<g class="st4">
					<path class="st2" d="M1201.3,131.3h-66.5V43l66.5,0V131.3z M1135.8,130.2h64.4V44l-64.4,0V130.2z"/>
				</g>
			</g>
		</g>
		<g class="st0">
			<g>
				<defs>
					<rect id="SVGID_7_" x="1134.8" y="131.3" width="66.5" height="88.3"/>
				</defs>
				<clipPath id="SVGID_8_">
					<use xlink:href="#SVGID_7_"  style="overflow:visible;"/>
				</clipPath>
				<g class="st5">
					<rect x="1135.3" y="153.1" class="st2" width="65.4" height="1"/>
				</g>
				<g class="st5">
					<rect x="1135.3" y="174.9" class="st2" width="65.4" height="1"/>
				</g>
				<g class="st5">
					<rect x="1135.3" y="196.7" class="st2" width="65.4" height="1"/>
				</g>
				<g class="st5">
					<rect x="1178.4" y="131.8" class="st2" width="1" height="87.3"/>
				</g>
				<g class="st5">
					<rect x="1156.6" y="131.8" class="st2" width="1" height="87.3"/>
				</g>
				<g class="st5">
					<path class="st2" d="M1201.3,219.6h-66.5v-88.3h66.5V219.6z M1135.8,218.5h64.4v-86.2h-64.4V218.5z"/>
				</g>
			</g>
		</g>
		<g class="st0">
			<rect x="1068.3" y="-45.3" class="st1" width="66.5" height="88.3"/>
			<g>
				<rect x="1068.8" y="20.1" class="st2" width="65.4" height="1"/>
			</g>
			<g>
				<rect x="1111.9" y="-44.8" class="st2" width="1" height="87.3"/>
			</g>
			<g>
				<rect x="1090.1" y="-44.8" class="st2" width="1" height="87.3"/>
			</g>
			<g>
				<path class="st2" d="M1134.8,43h-66.5v-88.3h66.5V43z M1069.3,41.9h64.4v-86.2h-64.4V41.9z"/>
			</g>
		</g>
		<g class="st0">
			<rect x="1068.3" y="43" class="st1" width="66.5" height="88.3"/>
			<g>
				<rect x="1068.8" y="64.8" class="st2" width="65.4" height="1"/>
			</g>
			<g>
				<rect x="1068.8" y="86.6" class="st2" width="65.4" height="1"/>
			</g>
			<g>
				<rect x="1068.8" y="108.4" class="st2" width="65.4" height="1"/>
			</g>
			<g>
				<rect x="1111.9" y="43.5" class="st2" width="1" height="87.3"/>
			</g>
			<g>
				<rect x="1090.1" y="43.5" class="st2" width="1" height="87.3"/>
			</g>
			<g>
				<path class="st2" d="M1134.8,131.3h-66.5V43l66.5,0V131.3z M1069.3,130.2h64.4V44l-64.4,0V130.2z"/>
			</g>
		</g>
		<g class="st0">
			<rect x="1068.3" y="131.3" class="st1" width="66.5" height="88.3"/>
			<g>
				<rect x="1068.8" y="153.1" class="st2" width="65.4" height="1"/>
			</g>
			<g>
				<rect x="1068.8" y="174.9" class="st2" width="65.4" height="1"/>
			</g>
			<g>
				<rect x="1068.8" y="196.7" class="st2" width="65.4" height="1"/>
			</g>
			<g>
				<rect x="1111.9" y="131.8" class="st2" width="1" height="87.3"/>
			</g>
			<g>
				<rect x="1090.1" y="131.8" class="st2" width="1" height="87.3"/>
			</g>
			<g>
				<path class="st2" d="M1134.8,219.6h-66.5v-88.3h66.5V219.6z M1069.3,218.5h64.4v-86.2h-64.4V218.5z"/>
			</g>
		</g>
		<g class="st0">
			<rect x="1001.8" y="-45.3" class="st1" width="66.5" height="88.3"/>
			<g>
				<rect x="1002.3" y="20.1" class="st2" width="65.4" height="1"/>
			</g>
			<g>
				<rect x="1045.4" y="-44.8" class="st2" width="1" height="87.3"/>
			</g>
			<g>
				<rect x="1023.6" y="-44.8" class="st2" width="1" height="87.3"/>
			</g>
			<g>
				<path class="st2" d="M1068.3,43h-66.5v-88.3h66.5V43z M1002.9,41.9h64.4v-86.2h-64.4V41.9z"/>
			</g>
		</g>
		<g class="st0">
			<rect x="1001.8" y="43" class="st1" width="66.5" height="88.3"/>
			<g>
				<rect x="1002.3" y="64.8" class="st2" width="65.4" height="1"/>
			</g>
			<g>
				<rect x="1002.3" y="86.6" class="st2" width="65.4" height="1"/>
			</g>
			<g>
				<rect x="1002.3" y="108.4" class="st2" width="65.4" height="1"/>
			</g>
			<g>
				<rect x="1045.4" y="43.5" class="st2" width="1" height="87.3"/>
			</g>
			<g>
				<rect x="1023.6" y="43.5" class="st2" width="1" height="87.3"/>
			</g>
			<g>
				<path class="st2" d="M1068.3,131.3h-66.5V43l66.5,0V131.3z M1002.9,130.2h64.4V44l-64.4,0V130.2z"/>
			</g>
		</g>
		<g class="st0">
			<rect x="1001.8" y="131.3" class="st1" width="66.5" height="88.3"/>
			<g>
				<rect x="1002.3" y="153.1" class="st2" width="65.4" height="1"/>
			</g>
			<g>
				<rect x="1002.3" y="174.9" class="st2" width="65.4" height="1"/>
			</g>
			<g>
				<rect x="1002.3" y="196.7" class="st2" width="65.4" height="1"/>
			</g>
			<g>
				<rect x="1045.4" y="131.8" class="st2" width="1" height="87.3"/>
			</g>
			<g>
				<rect x="1023.6" y="131.8" class="st2" width="1" height="87.3"/>
			</g>
			<g>
				<path class="st2" d="M1068.3,219.6h-66.5v-88.3h66.5V219.6z M1002.9,218.5h64.4v-86.2h-64.4V218.5z"/>
			</g>
		</g>
		<g class="st0">
			<rect x="935.3" y="-45.3" class="st1" width="66.5" height="88.3"/>
			<g>
				<rect x="935.8" y="20.1" class="st2" width="65.4" height="1"/>
			</g>
			<g>
				<rect x="978.9" y="-44.8" class="st2" width="1" height="87.3"/>
			</g>
			<g>
				<rect x="957.1" y="-44.8" class="st2" width="1" height="87.3"/>
			</g>
			<g>
				<path class="st2" d="M1001.8,43h-66.5v-88.3h66.5V43z M936.4,41.9h64.4v-86.2h-64.4V41.9z"/>
			</g>
		</g>
		<g class="st0">
			<rect x="935.3" y="43" class="st1" width="66.5" height="88.3"/>
			<g>
				<rect x="935.8" y="64.8" class="st2" width="65.4" height="1"/>
			</g>
			<g>
				<rect x="935.8" y="86.6" class="st2" width="65.4" height="1"/>
			</g>
			<g>
				<rect x="935.8" y="108.4" class="st2" width="65.4" height="1"/>
			</g>
			<g>
				<rect x="978.9" y="43.5" class="st2" width="1" height="87.3"/>
			</g>
			<g>
				<rect x="957.1" y="43.5" class="st2" width="1" height="87.3"/>
			</g>
			<g>
				<path class="st2" d="M1001.8,131.3h-66.5V43l66.5,0V131.3z M936.4,130.2h64.4V44l-64.4,0V130.2z"/>
			</g>
		</g>
		<g class="st0">
			<rect x="935.3" y="131.3" class="st1" width="66.5" height="88.3"/>
			<g>
				<rect x="935.8" y="153.1" class="st2" width="65.4" height="1"/>
			</g>
			<g>
				<rect x="935.8" y="174.9" class="st2" width="65.4" height="1"/>
			</g>
			<g>
				<rect x="935.8" y="196.7" class="st2" width="65.4" height="1"/>
			</g>
			<g>
				<rect x="978.9" y="131.8" class="st2" width="1" height="87.3"/>
			</g>
			<g>
				<rect x="957.1" y="131.8" class="st2" width="1" height="87.3"/>
			</g>
			<g>
				<path class="st2" d="M1001.8,219.6h-66.5v-88.3h66.5V219.6z M936.4,218.5h64.4v-86.2h-64.4V218.5z"/>
			</g>
		</g>
		<g class="st0">
			<rect x="868.8" y="-45.3" class="st1" width="66.5" height="88.3"/>
			<g>
				<rect x="869.4" y="20.1" class="st2" width="65.4" height="1"/>
			</g>
			<g>
				<rect x="912.5" y="-44.8" class="st2" width="1" height="87.3"/>
			</g>
			<g>
				<rect x="890.6" y="-44.8" class="st2" width="1" height="87.3"/>
			</g>
			<g>
				<path class="st2" d="M934.8,43h-66v-88.3h66.5v0.5c0,0.9,0,86.9,0,87.2l0,0.5L934.8,43z M869.9,41.9h64.4c0-0.6,0-1.6,0-3.2
					l0-83h-64.4V41.9z"/>
			</g>
		</g>
		<g class="st0">
			<rect x="868.8" y="43" class="st1" width="66.5" height="88.3"/>
			<g>
				<rect x="869.4" y="64.8" class="st2" width="65.4" height="1"/>
			</g>
			<g>
				<rect x="869.4" y="86.6" class="st2" width="65.4" height="1"/>
			</g>
			<g>
				<rect x="869.4" y="108.4" class="st2" width="65.4" height="1"/>
			</g>
			<g>
				<rect x="912.5" y="43.5" class="st2" width="1" height="87.3"/>
			</g>
			<g>
				<rect x="890.6" y="43.5" class="st2" width="1" height="87.3"/>
			</g>
			<g>
				<path class="st2" d="M934.8,131.3h-66V43l66.5,0v0.5c0,0.9,0,86.9,0,87.2l0,0.5L934.8,131.3z M869.9,130.2h64.4
					c0-0.6,0-1.6,0-3.2l0-83l-64.4,0V130.2z"/>
			</g>
		</g>
		<g class="st0">
			<rect x="868.8" y="131.3" class="st1" width="66.5" height="88.3"/>
			<g>
				<rect x="869.4" y="153.1" class="st2" width="65.4" height="1"/>
			</g>
			<g>
				<rect x="869.4" y="174.9" class="st2" width="65.4" height="1"/>
			</g>
			<g>
				<rect x="869.4" y="196.7" class="st2" width="65.4" height="1"/>
			</g>
			<g>
				<rect x="912.5" y="131.8" class="st2" width="1" height="87.3"/>
			</g>
			<g>
				<rect x="890.6" y="131.8" class="st2" width="1" height="87.3"/>
			</g>
			<g>
				<path class="st2" d="M934.8,219.6h-66v-88.3h66.5v0.5c0,0.9,0,86.9,0,87.3l0,0.5L934.8,219.6z M869.9,218.5h64.4
					c0-0.6,0-1.6,0-3.2l0-83h-64.4V218.5z"/>
			</g>
		</g>
		<g class="st0">
			<rect x="802.3" y="-45.3" class="st1" width="66.5" height="88.3"/>
			<g>
				<rect x="802.9" y="20.1" class="st2" width="65.4" height="1"/>
			</g>
			<g>
				<rect x="846" y="-44.8" class="st2" width="1" height="87.3"/>
			</g>
			<g>
				<rect x="824.2" y="-44.8" class="st2" width="1" height="87.3"/>
			</g>
			<g>
				<path class="st2" d="M868.8,43h-66.5v-88.3h66.5V43z M803.4,41.9h64.4v-86.2h-64.4V41.9z"/>
			</g>
		</g>
		<g class="st0">
			<rect x="802.3" y="43" class="st1" width="66.5" height="88.3"/>
			<g>
				<rect x="802.9" y="64.8" class="st2" width="65.4" height="1"/>
			</g>
			<g>
				<rect x="802.9" y="86.6" class="st2" width="65.4" height="1"/>
			</g>
			<g>
				<rect x="802.9" y="108.4" class="st2" width="65.4" height="1"/>
			</g>
			<g>
				<rect x="846" y="43.5" class="st2" width="1" height="87.3"/>
			</g>
			<g>
				<rect x="824.2" y="43.5" class="st2" width="1" height="87.3"/>
			</g>
			<g>
				<path class="st2" d="M868.8,131.3h-66.5V43l66.5,0V131.3z M803.4,130.2h64.4V44l-64.4,0V130.2z"/>
			</g>
		</g>
		<g class="st0">
			<rect x="802.3" y="131.3" class="st1" width="66.5" height="88.3"/>
			<g>
				<rect x="802.9" y="153.1" class="st2" width="65.4" height="1"/>
			</g>
			<g>
				<rect x="802.9" y="174.9" class="st2" width="65.4" height="1"/>
			</g>
			<g>
				<rect x="802.9" y="196.7" class="st2" width="65.4" height="1"/>
			</g>
			<g>
				<rect x="846" y="131.8" class="st2" width="1" height="87.3"/>
			</g>
			<g>
				<rect x="824.2" y="131.8" class="st2" width="1" height="87.3"/>
			</g>
			<g>
				<path class="st2" d="M868.8,219.6h-66.5v-88.3h66.5V219.6z M803.4,218.5h64.4v-86.2h-64.4V218.5z"/>
			</g>
		</g>
		<g class="st0">
			<rect x="735.9" y="-45.3" class="st1" width="66.5" height="88.3"/>
			<g>
				<rect x="736.4" y="20.1" class="st2" width="65.4" height="1"/>
			</g>
			<g>
				<rect x="779.5" y="-44.8" class="st2" width="1" height="87.3"/>
			</g>
			<g>
				<rect x="757.7" y="-44.8" class="st2" width="1" height="87.3"/>
			</g>
			<g>
				<path class="st2" d="M802.3,43h-66.5l0-88.3h66c0.5,0,0.5,0,0.5,4.3L802.3,43z M736.9,41.9h64.4c0-6.9,0-79.3,0-86.2h-64.4
					L736.9,41.9z"/>
			</g>
		</g>
		<g class="st0">
			<rect x="735.9" y="43" class="st1" width="66.5" height="88.3"/>
			<g>
				<rect x="736.4" y="64.8" class="st2" width="65.4" height="1"/>
			</g>
			<g>
				<rect x="736.4" y="86.6" class="st2" width="65.4" height="1"/>
			</g>
			<g>
				<rect x="736.4" y="108.4" class="st2" width="65.4" height="1"/>
			</g>
			<g>
				<rect x="779.5" y="43.5" class="st2" width="1" height="87.3"/>
			</g>
			<g>
				<rect x="757.7" y="43.5" class="st2" width="1" height="87.3"/>
			</g>
			<g>
				<path class="st2" d="M802.3,131.3h-66.5l0-88.3l66,0c0.5,0,0.5,0,0.5,4.3L802.3,131.3z M736.9,130.2h64.4c0-6.9,0-79.3,0-86.2
					l-64.4,0L736.9,130.2z"/>
			</g>
		</g>
		<g class="st0">
			<rect x="735.9" y="131.3" class="st1" width="66.5" height="88.3"/>
			<g>
				<rect x="736.4" y="153.1" class="st2" width="65.4" height="1"/>
			</g>
			<g>
				<rect x="736.4" y="174.9" class="st2" width="65.4" height="1"/>
			</g>
			<g>
				<rect x="736.4" y="196.7" class="st2" width="65.4" height="1"/>
			</g>
			<g>
				<rect x="779.5" y="131.8" class="st2" width="1" height="87.3"/>
			</g>
			<g>
				<rect x="757.7" y="131.8" class="st2" width="1" height="87.3"/>
			</g>
			<g>
				<path class="st2" d="M802.3,219.6h-66.5l0-88.3h66c0.5,0,0.5,0,0.5,4.3L802.3,219.6z M736.9,218.5h64.4c0-6.9,0-79.3,0-86.2
					h-64.4L736.9,218.5z"/>
			</g>
		</g>
		<g class="st0">
			<rect x="669.4" y="-45.3" class="st1" width="66.5" height="88.3"/>
			<g>
				<rect x="669.9" y="20.1" class="st2" width="65.4" height="1"/>
			</g>
			<g>
				<rect x="713" y="-44.8" class="st2" width="1" height="87.3"/>
			</g>
			<g>
				<rect x="691.2" y="-44.8" class="st2" width="1" height="87.3"/>
			</g>
			<g>
				<path class="st2" d="M735.9,43h-66.5v-88.3h66.5V43z M670.4,41.9h64.4v-86.2h-64.4V41.9z"/>
			</g>
		</g>
		<g class="st0">
			<rect x="669.4" y="43" class="st1" width="66.5" height="88.3"/>
			<g>
				<rect x="669.9" y="64.8" class="st2" width="65.4" height="1"/>
			</g>
			<g>
				<rect x="669.9" y="86.6" class="st2" width="65.4" height="1"/>
			</g>
			<g>
				<rect x="669.9" y="108.4" class="st2" width="65.4" height="1"/>
			</g>
			<g>
				<rect x="713" y="43.5" class="st2" width="1" height="87.3"/>
			</g>
			<g>
				<rect x="691.2" y="43.5" class="st2" width="1" height="87.3"/>
			</g>
			<g>
				<path class="st2" d="M735.9,131.3h-66.5V43l66.5,0V131.3z M670.4,130.2h64.4V44l-64.4,0V130.2z"/>
			</g>
		</g>
		<g class="st0">
			<rect x="669.4" y="131.3" class="st1" width="66.5" height="88.3"/>
			<g>
				<rect x="669.9" y="153.1" class="st2" width="65.4" height="1"/>
			</g>
			<g>
				<rect x="669.9" y="174.9" class="st2" width="65.4" height="1"/>
			</g>
			<g>
				<rect x="669.9" y="196.7" class="st2" width="65.4" height="1"/>
			</g>
			<g>
				<rect x="713" y="131.8" class="st2" width="1" height="87.3"/>
			</g>
			<g>
				<rect x="691.2" y="131.8" class="st2" width="1" height="87.3"/>
			</g>
			<g>
				<path class="st2" d="M735.9,219.6h-66.5v-88.3h66.5V219.6z M670.4,218.5h64.4v-86.2h-64.4V218.5z"/>
			</g>
		</g>
		<g class="st0">
			<rect x="602.9" y="-45.3" class="st1" width="66.5" height="88.3"/>
			<g>
				<rect x="603.4" y="20.1" class="st2" width="65.4" height="1"/>
			</g>
			<g>
				<rect x="646.5" y="-44.8" class="st2" width="1" height="87.3"/>
			</g>
			<g>
				<rect x="624.7" y="-44.8" class="st2" width="1" height="87.3"/>
			</g>
			<g>
				<path class="st2" d="M669.4,43h-66.5v-88.3h66.5V43z M603.9,41.9h64.4v-86.2h-64.4V41.9z"/>
			</g>
		</g>
		<g class="st0">
			<rect x="602.9" y="43" class="st1" width="66.5" height="88.3"/>
			<g>
				<rect x="603.4" y="64.8" class="st2" width="65.4" height="1"/>
			</g>
			<g>
				<rect x="603.4" y="86.6" class="st2" width="65.4" height="1"/>
			</g>
			<g>
				<rect x="603.4" y="108.4" class="st2" width="65.4" height="1"/>
			</g>
			<g>
				<rect x="646.5" y="43.5" class="st2" width="1" height="87.3"/>
			</g>
			<g>
				<rect x="624.7" y="43.5" class="st2" width="1" height="87.3"/>
			</g>
			<g>
				<path class="st2" d="M669.4,131.3h-66.5V43l66.5,0V131.3z M603.9,130.2h64.4V44l-64.4,0V130.2z"/>
			</g>
		</g>
		<g class="st0">
			<rect x="602.9" y="131.3" class="st1" width="66.5" height="88.3"/>
			<g>
				<rect x="603.4" y="153.1" class="st2" width="65.4" height="1"/>
			</g>
			<g>
				<rect x="603.4" y="174.9" class="st2" width="65.4" height="1"/>
			</g>
			<g>
				<rect x="603.4" y="196.7" class="st2" width="65.4" height="1"/>
			</g>
			<g>
				<rect x="646.5" y="131.8" class="st2" width="1" height="87.3"/>
			</g>
			<g>
				<rect x="624.7" y="131.8" class="st2" width="1" height="87.3"/>
			</g>
			<g>
				<path class="st2" d="M669.4,219.6h-66.5v-88.3h66.5V219.6z M603.9,218.5h64.4v-86.2h-64.4V218.5z"/>
			</g>
		</g>
		<g class="st0">
			<rect x="536.4" y="-45.3" class="st1" width="66.5" height="88.3"/>
			<g>
				<rect x="536.9" y="20.1" class="st2" width="65.4" height="1"/>
			</g>
			<g>
				<rect x="580" y="-44.8" class="st2" width="1" height="87.3"/>
			</g>
			<g>
				<rect x="558.2" y="-44.8" class="st2" width="1" height="87.3"/>
			</g>
			<g>
				<path class="st2" d="M602.9,43h-66.5v-88.3h66.5V43z M537.4,41.9h64.4v-86.2h-64.4V41.9z"/>
			</g>
		</g>
		<g class="st0">
			<rect x="536.4" y="43" class="st1" width="66.5" height="88.3"/>
			<g>
				<rect x="536.9" y="64.8" class="st2" width="65.4" height="1"/>
			</g>
			<g>
				<rect x="536.9" y="86.6" class="st2" width="65.4" height="1"/>
			</g>
			<g>
				<rect x="536.9" y="108.4" class="st2" width="65.4" height="1"/>
			</g>
			<g>
				<rect x="580" y="43.5" class="st2" width="1" height="87.3"/>
			</g>
			<g>
				<rect x="558.2" y="43.5" class="st2" width="1" height="87.3"/>
			</g>
			<g>
				<path class="st2" d="M602.9,131.3h-66.5V43l66.5,0V131.3z M537.4,130.2h64.4V44l-64.4,0V130.2z"/>
			</g>
		</g>
		<g class="st0">
			<rect x="536.4" y="131.3" class="st1" width="66.5" height="88.3"/>
			<g>
				<rect x="536.9" y="153.1" class="st2" width="65.4" height="1"/>
			</g>
			<g>
				<rect x="536.9" y="174.9" class="st2" width="65.4" height="1"/>
			</g>
			<g>
				<rect x="536.9" y="196.7" class="st2" width="65.4" height="1"/>
			</g>
			<g>
				<rect x="580" y="131.8" class="st2" width="1" height="87.3"/>
			</g>
			<g>
				<rect x="558.2" y="131.8" class="st2" width="1" height="87.3"/>
			</g>
			<g>
				<path class="st2" d="M602.9,219.6h-66.5v-88.3h66.5V219.6z M537.4,218.5h64.4v-86.2h-64.4V218.5z"/>
			</g>
		</g>
		<g class="st0">
			<rect x="469.9" y="-45.3" class="st1" width="66.5" height="88.3"/>
			<g>
				<rect x="470.4" y="20.1" class="st2" width="65.4" height="1"/>
			</g>
			<g>
				<rect x="513.5" y="-44.8" class="st2" width="1" height="87.3"/>
			</g>
			<g>
				<rect x="491.7" y="-44.8" class="st2" width="1" height="87.3"/>
			</g>
			<g>
				<path class="st2" d="M536.4,43h-66.5v-88.3h66.5V43z M471,41.9h64.4v-86.2H471V41.9z"/>
			</g>
		</g>
		<g class="st0">
			<rect x="469.9" y="43" class="st1" width="66.5" height="88.3"/>
			<g>
				<rect x="470.4" y="64.8" class="st2" width="65.4" height="1"/>
			</g>
			<g>
				<rect x="470.4" y="86.6" class="st2" width="65.4" height="1"/>
			</g>
			<g>
				<rect x="470.4" y="108.4" class="st2" width="65.4" height="1"/>
			</g>
			<g>
				<rect x="513.5" y="43.5" class="st2" width="1" height="87.3"/>
			</g>
			<g>
				<rect x="491.7" y="43.5" class="st2" width="1" height="87.3"/>
			</g>
			<g>
				<path class="st2" d="M536.4,131.3h-66.5V43l66.5,0V131.3z M471,130.2h64.4V44L471,44V130.2z"/>
			</g>
		</g>
		<g class="st0">
			<rect x="469.9" y="131.3" class="st1" width="66.5" height="88.3"/>
			<g>
				<rect x="470.4" y="153.1" class="st2" width="65.4" height="1"/>
			</g>
			<g>
				<rect x="470.4" y="174.9" class="st2" width="65.4" height="1"/>
			</g>
			<g>
				<rect x="470.4" y="196.7" class="st2" width="65.4" height="1"/>
			</g>
			<g>
				<rect x="513.5" y="131.8" class="st2" width="1" height="87.3"/>
			</g>
			<g>
				<rect x="491.7" y="131.8" class="st2" width="1" height="87.3"/>
			</g>
			<g>
				<path class="st2" d="M536.4,219.6h-66.5v-88.3h66.5V219.6z M471,218.5h64.4v-86.2H471V218.5z"/>
			</g>
		</g>
		<g class="st0">
			<rect x="403.4" y="-45.3" class="st1" width="66.5" height="88.3"/>
			<g>
				<rect x="403.9" y="20.1" class="st2" width="65.4" height="1"/>
			</g>
			<g>
				<rect x="447" y="-44.8" class="st2" width="1" height="87.3"/>
			</g>
			<g>
				<rect x="425.2" y="-44.8" class="st2" width="1" height="87.3"/>
			</g>
			<g>
				<path class="st2" d="M469.9,43h-66.5v-88.3h66.5V43z M404.5,41.9h64.4v-86.2h-64.4V41.9z"/>
			</g>
		</g>
		<g class="st0">
			<rect x="403.4" y="43" class="st1" width="66.5" height="88.3"/>
			<g>
				<rect x="403.9" y="64.8" class="st2" width="65.4" height="1"/>
			</g>
			<g>
				<rect x="403.9" y="86.6" class="st2" width="65.4" height="1"/>
			</g>
			<g>
				<rect x="403.9" y="108.4" class="st2" width="65.4" height="1"/>
			</g>
			<g>
				<rect x="447" y="43.5" class="st2" width="1" height="87.3"/>
			</g>
			<g>
				<rect x="425.2" y="43.5" class="st2" width="1" height="87.3"/>
			</g>
			<g>
				<path class="st2" d="M469.9,131.3h-66.5V43l66.5,0V131.3z M404.5,130.2h64.4V44l-64.4,0V130.2z"/>
			</g>
		</g>
		<g class="st0">
			<rect x="403.4" y="131.3" class="st1" width="66.5" height="88.3"/>
			<g>
				<rect x="403.9" y="153.1" class="st2" width="65.4" height="1"/>
			</g>
			<g>
				<rect x="403.9" y="174.9" class="st2" width="65.4" height="1"/>
			</g>
			<g>
				<rect x="403.9" y="196.7" class="st2" width="65.4" height="1"/>
			</g>
			<g>
				<rect x="447" y="131.8" class="st2" width="1" height="87.3"/>
			</g>
			<g>
				<rect x="425.2" y="131.8" class="st2" width="1" height="87.3"/>
			</g>
			<g>
				<path class="st2" d="M469.9,219.6h-66.5v-88.3h66.5V219.6z M404.5,218.5h64.4v-86.2h-64.4V218.5z"/>
			</g>
		</g>
		<g class="st0">
			<rect x="336.9" y="-45.3" class="st1" width="66.5" height="88.3"/>
			<g>
				<rect x="337.5" y="20.1" class="st2" width="65.4" height="1"/>
			</g>
			<g>
				<rect x="380.6" y="-44.8" class="st2" width="1" height="87.3"/>
			</g>
			<g>
				<rect x="358.7" y="-44.8" class="st2" width="1" height="87.3"/>
			</g>
			<g>
				<path class="st2" d="M403.4,43h-66.5v-88.3h66.5V43z M338,41.9h64.4v-86.2H338V41.9z"/>
			</g>
		</g>
		<g class="st0">
			<rect x="336.9" y="43" class="st1" width="66.5" height="88.3"/>
			<g>
				<rect x="337.5" y="64.8" class="st2" width="65.4" height="1"/>
			</g>
			<g>
				<rect x="337.5" y="86.6" class="st2" width="65.4" height="1"/>
			</g>
			<g>
				<rect x="337.5" y="108.4" class="st2" width="65.4" height="1"/>
			</g>
			<g>
				<rect x="380.6" y="43.5" class="st2" width="1" height="87.3"/>
			</g>
			<g>
				<rect x="358.7" y="43.5" class="st2" width="1" height="87.3"/>
			</g>
			<g>
				<path class="st2" d="M403.4,131.3h-66.5V43l66.5,0V131.3z M338,130.2h64.4V44L338,44V130.2z"/>
			</g>
		</g>
		<g class="st0">
			<rect x="336.9" y="131.3" class="st1" width="66.5" height="88.3"/>
			<g>
				<rect x="337.5" y="153.1" class="st2" width="65.4" height="1"/>
			</g>
			<g>
				<rect x="337.5" y="174.9" class="st2" width="65.4" height="1"/>
			</g>
			<g>
				<rect x="337.5" y="196.7" class="st2" width="65.4" height="1"/>
			</g>
			<g>
				<rect x="380.6" y="131.8" class="st2" width="1" height="87.3"/>
			</g>
			<g>
				<rect x="358.7" y="131.8" class="st2" width="1" height="87.3"/>
			</g>
			<g>
				<path class="st2" d="M403.4,219.6h-66.5v-88.3h66.5V219.6z M338,218.5h64.4v-86.2H338V218.5z"/>
			</g>
		</g>
		<g class="st0">
			<rect x="270.4" y="-45.3" class="st1" width="66.5" height="88.3"/>
			<g>
				<rect x="271" y="20.1" class="st2" width="65.4" height="1"/>
			</g>
			<g>
				<rect x="314.1" y="-44.8" class="st2" width="1" height="87.3"/>
			</g>
			<g>
				<rect x="292.3" y="-44.8" class="st2" width="1" height="87.3"/>
			</g>
			<g>
				<path class="st2" d="M336.9,43h-66.5v-88.3h66.5V43z M271.5,41.9h64.4v-86.2h-64.4V41.9z"/>
			</g>
		</g>
		<g class="st0">
			<rect x="270.4" y="43" class="st1" width="66.5" height="88.3"/>
			<g>
				<rect x="271" y="64.8" class="st2" width="65.4" height="1"/>
			</g>
			<g>
				<rect x="271" y="86.6" class="st2" width="65.4" height="1"/>
			</g>
			<g>
				<rect x="271" y="108.4" class="st2" width="65.4" height="1"/>
			</g>
			<g>
				<rect x="314.1" y="43.5" class="st2" width="1" height="87.3"/>
			</g>
			<g>
				<rect x="292.3" y="43.5" class="st2" width="1" height="87.3"/>
			</g>
			<g>
				<path class="st2" d="M336.9,131.3h-66.5V43l66.5,0V131.3z M271.5,130.2h64.4V44l-64.4,0V130.2z"/>
			</g>
		</g>
		<g class="st0">
			<rect x="270.4" y="131.3" class="st1" width="66.5" height="88.3"/>
			<g>
				<rect x="271" y="153.1" class="st2" width="65.4" height="1"/>
			</g>
			<g>
				<rect x="271" y="174.9" class="st2" width="65.4" height="1"/>
			</g>
			<g>
				<rect x="271" y="196.7" class="st2" width="65.4" height="1"/>
			</g>
			<g>
				<rect x="314.1" y="131.8" class="st2" width="1" height="87.3"/>
			</g>
			<g>
				<rect x="292.3" y="131.8" class="st2" width="1" height="87.3"/>
			</g>
			<g>
				<path class="st2" d="M336.9,219.6h-66.5v-88.3h66.5V219.6z M271.5,218.5h64.4v-86.2h-64.4V218.5z"/>
			</g>
		</g>
		<g class="st0">
			<rect x="204" y="-45.3" class="st1" width="66.5" height="88.3"/>
			<g>
				<rect x="204.5" y="20.1" class="st2" width="65.4" height="1"/>
			</g>
			<g>
				<rect x="247.6" y="-44.8" class="st2" width="1" height="87.3"/>
			</g>
			<g>
				<rect x="225.8" y="-44.8" class="st2" width="1" height="87.3"/>
			</g>
			<g>
				<path class="st2" d="M270.4,43H204v-88.3h66.5V43z M205,41.9h64.4v-86.2H205V41.9z"/>
			</g>
		</g>
		<g class="st0">
			<rect x="204" y="43" class="st1" width="66.5" height="88.3"/>
			<g>
				<rect x="204.5" y="64.8" class="st2" width="65.4" height="1"/>
			</g>
			<g>
				<rect x="204.5" y="86.6" class="st2" width="65.4" height="1"/>
			</g>
			<g>
				<rect x="204.5" y="108.4" class="st2" width="65.4" height="1"/>
			</g>
			<g>
				<rect x="247.6" y="43.5" class="st2" width="1" height="87.3"/>
			</g>
			<g>
				<rect x="225.8" y="43.5" class="st2" width="1" height="87.3"/>
			</g>
			<g>
				<path class="st2" d="M270.4,131.3H204V43l66.5,0V131.3z M205,130.2h64.4V44L205,44V130.2z"/>
			</g>
		</g>
		<g class="st0">
			<rect x="204" y="131.3" class="st1" width="66.5" height="88.3"/>
			<g>
				<rect x="204.5" y="153.1" class="st2" width="65.4" height="1"/>
			</g>
			<g>
				<rect x="204.5" y="174.9" class="st2" width="65.4" height="1"/>
			</g>
			<g>
				<rect x="204.5" y="196.7" class="st2" width="65.4" height="1"/>
			</g>
			<g>
				<rect x="247.6" y="131.8" class="st2" width="1" height="87.3"/>
			</g>
			<g>
				<rect x="225.8" y="131.8" class="st2" width="1" height="87.3"/>
			</g>
			<g>
				<path class="st2" d="M270.4,219.6H204v-88.3h66.5V219.6z M205,218.5h64.4v-86.2H205V218.5z"/>
			</g>
		</g>
		<g class="st0">
			<rect x="137.5" y="-45.3" class="st1" width="66.5" height="88.3"/>
			<g>
				<rect x="138" y="20.1" class="st2" width="65.4" height="1"/>
			</g>
			<g>
				<rect x="181.1" y="-44.8" class="st2" width="1" height="87.3"/>
			</g>
			<g>
				<rect x="159.3" y="-44.8" class="st2" width="1" height="87.3"/>
			</g>
			<g>
				<path class="st2" d="M204,43h-66.5v-88.3H204V43z M138.5,41.9h64.4v-86.2h-64.4V41.9z"/>
			</g>
		</g>
		<g class="st0">
			<rect x="137.5" y="43" class="st1" width="66.5" height="88.3"/>
			<g>
				<rect x="138" y="64.8" class="st2" width="65.4" height="1"/>
			</g>
			<g>
				<rect x="138" y="86.6" class="st2" width="65.4" height="1"/>
			</g>
			<g>
				<rect x="138" y="108.4" class="st2" width="65.4" height="1"/>
			</g>
			<g>
				<rect x="181.1" y="43.5" class="st2" width="1" height="87.3"/>
			</g>
			<g>
				<rect x="159.3" y="43.5" class="st2" width="1" height="87.3"/>
			</g>
			<g>
				<path class="st2" d="M204,131.3h-66.5V43l66.5,0V131.3z M138.5,130.2h64.4V44l-64.4,0V130.2z"/>
			</g>
		</g>
		<g class="st0">
			<rect x="137.5" y="131.3" class="st1" width="66.5" height="88.3"/>
			<g>
				<rect x="138" y="153.1" class="st2" width="65.4" height="1"/>
			</g>
			<g>
				<rect x="138" y="174.9" class="st2" width="65.4" height="1"/>
			</g>
			<g>
				<rect x="138" y="196.7" class="st2" width="65.4" height="1"/>
			</g>
			<g>
				<rect x="181.1" y="131.8" class="st2" width="1" height="87.3"/>
			</g>
			<g>
				<rect x="159.3" y="131.8" class="st2" width="1" height="87.3"/>
			</g>
			<g>
				<path class="st2" d="M204,219.6h-66.5v-88.3H204V219.6z M138.5,218.5h64.4v-86.2h-64.4V218.5z"/>
			</g>
		</g>
		<g class="st0">
			<rect x="71" y="-45.3" class="st1" width="66.5" height="88.3"/>
			<g>
				<rect x="71.5" y="20.1" class="st2" width="65.4" height="1"/>
			</g>
			<g>
				<rect x="114.6" y="-44.8" class="st2" width="1" height="87.3"/>
			</g>
			<g>
				<rect x="92.8" y="-44.8" class="st2" width="1" height="87.3"/>
			</g>
			<g>
				<path class="st2" d="M137,43H71v-88.3h66.5v0.5c0,0.9,0,87,0,87.3l0,0.5L137,43z M72,41.9h64.4c0-0.6,0-1.6,0-3.2v-83H72V41.9z"
					/>
			</g>
		</g>
		<g class="st0">
			<rect x="71" y="43" class="st1" width="66.5" height="88.3"/>
			<g>
				<rect x="71.5" y="64.8" class="st2" width="65.4" height="1"/>
			</g>
			<g>
				<rect x="71.5" y="86.6" class="st2" width="65.4" height="1"/>
			</g>
			<g>
				<rect x="71.5" y="108.4" class="st2" width="65.4" height="1"/>
			</g>
			<g>
				<rect x="114.6" y="43.5" class="st2" width="1" height="87.3"/>
			</g>
			<g>
				<rect x="92.8" y="43.5" class="st2" width="1" height="87.3"/>
			</g>
			<g>
				<path class="st2" d="M137,131.3H71V43l66.5,0v0.5c0,0.9,0,87,0,87.3l0,0.5L137,131.3z M72,130.2h64.4c0-0.6,0-1.6,0-3.2V44
					L72,44V130.2z"/>
			</g>
		</g>
		<g class="st0">
			<rect x="71" y="131.3" class="st1" width="66.5" height="88.3"/>
			<g>
				<rect x="71.5" y="153.1" class="st2" width="65.4" height="1"/>
			</g>
			<g>
				<rect x="71.5" y="174.9" class="st2" width="65.4" height="1"/>
			</g>
			<g>
				<rect x="71.5" y="196.7" class="st2" width="65.4" height="1"/>
			</g>
			<g>
				<rect x="114.6" y="131.8" class="st2" width="1" height="87.3"/>
			</g>
			<g>
				<rect x="92.8" y="131.8" class="st2" width="1" height="87.3"/>
			</g>
			<g>
				<path class="st2" d="M137,219.6H71v-88.3h66.5v0.5c0,0.9,0,87,0,87.3l0,0.5L137,219.6z M72,218.5h64.4c0-0.6,0-1.6,0-3.2v-83H72
					V218.5z"/>
			</g>
		</g>
		<g class="st0">
			<rect x="4.5" y="-45.3" class="st1" width="66.5" height="88.3"/>
			<g>
				<rect x="5" y="20.1" class="st2" width="65.4" height="1"/>
			</g>
			<g>
				<rect x="48.1" y="-44.8" class="st2" width="1" height="87.3"/>
			</g>
			<g>
				<rect x="26.3" y="-44.8" class="st2" width="1" height="87.3"/>
			</g>
			<g>
				<path class="st2" d="M70.5,43h-66v-88.3H71v0.5c0,0.9,0,87,0,87.3l0,0.5L70.5,43z M5.5,41.9H70c0-0.6,0-1.6,0-3.2v-83H5.5V41.9z
					"/>
			</g>
		</g>
		<g class="st0">
			<rect x="4.5" y="43" class="st1" width="66.5" height="88.3"/>
			<g>
				<rect x="5" y="64.8" class="st2" width="65.4" height="1"/>
			</g>
			<g>
				<rect x="5" y="86.6" class="st2" width="65.4" height="1"/>
			</g>
			<g>
				<rect x="5" y="108.4" class="st2" width="65.4" height="1"/>
			</g>
			<g>
				<rect x="48.1" y="43.5" class="st2" width="1" height="87.3"/>
			</g>
			<g>
				<rect x="26.3" y="43.5" class="st2" width="1" height="87.3"/>
			</g>
			<g>
				<path class="st2" d="M70.5,131.3h-66V43L71,43v0.5c0,0.9,0,87,0,87.3l0,0.5L70.5,131.3z M5.5,130.2H70c0-0.6,0-1.6,0-3.2V44
					L5.5,44V130.2z"/>
			</g>
		</g>
		<g class="st0">
			<rect x="4.5" y="131.3" class="st1" width="66.5" height="88.3"/>
			<g>
				<rect x="5" y="153.1" class="st2" width="65.4" height="1"/>
			</g>
			<g>
				<rect x="5" y="174.9" class="st2" width="65.4" height="1"/>
			</g>
			<g>
				<rect x="5" y="196.7" class="st2" width="65.4" height="1"/>
			</g>
			<g>
				<rect x="48.1" y="131.8" class="st2" width="1" height="87.3"/>
			</g>
			<g>
				<rect x="26.3" y="131.8" class="st2" width="1" height="87.3"/>
			</g>
			<g>
				<path class="st2" d="M70.5,219.6h-66v-88.3H71v0.5c0,0.9,0,87,0,87.3l0,0.5L70.5,219.6z M5.5,218.5H70c0-0.6,0-1.6,0-3.2v-83
					H5.5V218.5z"/>
			</g>
		</g>
		<g class="st0">
			<rect x="-62" y="-45.3" class="st1" width="66.5" height="88.3"/>
			<g>
				<rect x="-61.5" y="20.1" class="st2" width="65.4" height="1"/>
			</g>
			<g>
				<path class="st2" d="M4,43h-66v-88.3H4.5v0.5c0,0.9,0,87,0,87.3l0,0.5L4,43z M-60.9,41.9H3.5c0-0.6,0-1.6,0-3.2v-83h-64.4V41.9z
					"/>
			</g>
		</g>
		<g class="st0">
			<rect x="-62" y="43" class="st1" width="66.5" height="88.3"/>
			<g>
				<rect x="-61.5" y="64.8" class="st2" width="65.4" height="1"/>
			</g>
			<g>
				<rect x="-61.5" y="86.6" class="st2" width="65.4" height="1"/>
			</g>
			<g>
				<rect x="-61.5" y="108.4" class="st2" width="65.4" height="1"/>
			</g>
			<g>
				<path class="st2" d="M4,131.3h-66V43l66.5,0v0.5c0,0.9,0,87,0,87.3l0,0.5L4,131.3z M-60.9,130.2H3.5c0-0.6,0-1.6,0-3.2V44
					l-64.4,0V130.2z"/>
			</g>
		</g>
		<g class="st0">
			<rect x="-62" y="131.3" class="st1" width="66.5" height="88.3"/>
			<g>
				<rect x="-61.5" y="153.1" class="st2" width="65.4" height="1"/>
			</g>
			<g>
				<rect x="-61.5" y="174.9" class="st2" width="65.4" height="1"/>
			</g>
			<g>
				<rect x="-61.5" y="196.7" class="st2" width="65.4" height="1"/>
			</g>
			<g>
				<path class="st2" d="M4,219.6h-66v-88.3H4.5v0.5c0,0.9,0,87,0,87.3l0,0.5L4,219.6z M-60.9,218.5H3.5c0-0.6,0-1.6,0-3.2v-83
					h-64.4V218.5z"/>
			</g>
		</g>
	</g>
</g>
<g>
	<g>
		<g>
			<path class="st6" d="M1204.4,48.9c2,6.2,5.8,11.3,11.5,13.7c-0.7,0.6-1.6,1.8-2.1,2.6c-5.6-2.6-9.2-7.5-11.6-13.8
				c-1.5,5.4-4.8,10.6-11.6,13.8c-0.5-0.8-1.3-1.7-2.1-2.3c7.1-3.1,10-8.5,11.3-13.9h-10.7V46h11.2c0.4-3,0.3-5.9,0.4-8.3h3
				c0,2.4-0.1,5.3-0.4,8.3h12.1v2.9H1204.4z"/>
			<path class="st6" d="M1228.5,44.9h-10v-2.2h5.2c-0.5-1.1-1.6-2.8-2.5-4l2.1-1.2c1,1.2,2.1,2.8,2.7,3.9l-2.1,1.4h4.6V44.9z
				 M1219.6,48.9v-2.2h8v2.2H1219.6z M1227.6,52.8h-8v-2.2h8V52.8z M1227.8,63.5h-5.9v1.4h-2.2V54.7h8.1V63.5z M1221.8,57v4.3h3.8
				V57H1221.8z M1228.2,61.3c1-1.6,1.6-4.2,1.9-6.5l2.2,0.6c-0.3,2.5-0.8,5.5-2,7.4L1228.2,61.3z M1235.6,44.4h-6.3v-2.5h6.3v-4.1
				h2.8v4.1h7.2v2.5h-7.2v4h6.6V51h-8.2c1.5,1,3.1,2.4,3.9,3.5l-1.9,1.7c-0.9-1.2-2.8-2.9-4.4-4l1.3-1.1h-5.9v-2.5h5.8V44.4z
				 M1238.7,61.9c0.7,0,0.9-0.5,1-3.8c0.5,0.4,1.6,0.8,2.3,1c-0.3,4.1-0.9,5.2-3,5.2h-2.8c-2.4,0-3-0.8-3-3.2v-7.2h2.6V61
				c0,0.8,0.1,0.9,0.8,0.9H1238.7z M1243.1,54.5c1.4,2.2,2.6,5,3,6.9l-2.3,1.1c-0.3-1.9-1.5-4.9-2.8-7L1243.1,54.5z"/>
			<path class="st6" d="M1253.8,50c-0.3-0.4-0.8-1-1.4-1.6c-0.6,1.5-1.4,2.8-2.3,3.9c-0.4-0.4-1.2-1.3-1.8-1.6
				c1.6-1.7,2.7-4.4,3.2-7.2l2.3,0.5c-0.2,0.8-0.4,1.7-0.7,2.5c0.8,0.7,1.6,1.4,2,2L1253.8,50z M1257.1,56v9.1h-2.6V56h-5.7v-2.5
				h5.7v-2h1.3c-0.4-0.4-1.1-0.9-1.5-1.2c1.6-1.6,2.6-4.1,3.1-6.7l2.3,0.4c-0.2,0.9-0.5,1.8-0.8,2.6c1.1,1.1,2.3,2.5,2.9,3.4
				l-1.7,1.4c-0.5-0.7-1.3-1.7-2.1-2.7c-0.5,1-1.1,2-1.7,2.7h0.8v2h5.1V56H1257.1z M1253.6,58c-0.6,2.1-1.6,4.3-2.8,5.6
				c-0.4-0.3-1.5-0.9-2-1.2c1.1-1.3,2-3.1,2.5-4.9L1253.6,58z M1262,43.2h-13.2v-2.5h5.7c-0.3-0.8-0.7-1.7-1.1-2.4l2.6-0.7
				c0.5,1,1.2,2.3,1.5,3.1h4.4V43.2z M1259.9,57.4c1,1.6,2,3.6,2.5,5l-2.2,0.8c-0.4-1.4-1.4-3.5-2.3-5.1L1259.9,57.4z M1275.8,63.7
				h-9.8v1.4h-2.5V49c-0.3,0.4-0.5,0.8-0.8,1.2c-0.5-0.4-1.5-1.4-2.1-1.8c2.1-2.6,3.8-6.6,4.8-10.6l2.6,0.6c-0.5,1.7-1,3.4-1.7,4.9
				h9.4v2.5h-3.7v3.5h3.5v2.4h-3.5v3.6h3.5v2.4h-3.5v3.6h3.9V63.7z M1269.5,45.8h-3.4v3.5h3.4V45.8z M1269.5,51.7h-3.4v3.6h3.4V51.7
				z M1266,61.2h3.4v-3.6h-3.4V61.2z M1270.4,43c-0.3-1.1-1.1-2.9-1.8-4.2l2.4-0.8c0.8,1.3,1.6,2.9,1.9,4L1270.4,43z"/>
			<path class="st6" d="M1288.5,44.9h-10v-2.2h5.2c-0.5-1.1-1.6-2.8-2.6-4l2.1-1.2c1,1.2,2.1,2.8,2.7,3.9l-2.1,1.4h4.7V44.9z
				 M1279.6,48.9v-2.2h8v2.2H1279.6z M1287.6,52.8h-8v-2.2h8V52.8z M1287.8,63.5h-5.9v1.4h-2.2V54.7h8.1V63.5z M1281.8,57v4.3h3.8
				V57H1281.8z M1288.2,61.3c1-1.6,1.6-4.2,1.9-6.5l2.2,0.6c-0.3,2.5-0.8,5.5-2,7.4L1288.2,61.3z M1295.6,44.4h-6.3v-2.5h6.3v-4.1
				h2.8v4.1h7.2v2.5h-7.2v4h6.6V51h-8.2c1.5,1,3.1,2.4,3.9,3.5l-1.9,1.7c-0.9-1.2-2.8-2.9-4.4-4l1.3-1.1h-5.9v-2.5h5.8V44.4z
				 M1298.7,61.9c0.7,0,0.9-0.5,1-3.8c0.5,0.4,1.6,0.8,2.3,1c-0.3,4.1-0.9,5.2-3,5.2h-2.9c-2.4,0-3-0.8-3-3.2v-7.2h2.6V61
				c0,0.8,0.1,0.9,0.8,0.9H1298.7z M1303.1,54.5c1.4,2.2,2.6,5,3,6.9l-2.3,1.1c-0.3-1.9-1.5-4.9-2.8-7L1303.1,54.5z"/>
		</g>
	</g>
</g>
<g class="st7">
	<path class="st8" d="M433.4,207.8l-64-139.3v110.6c0,10.2,1.1,16.5,3.3,19c3,3.4,7.8,5.1,14.3,5.1h5.9v4.5h-57.6v-4.5h5.9
		c7,0,12-2.1,14.9-6.3c1.8-2.6,2.7-8.5,2.7-17.8V70.9c0-7.3-0.8-12.6-2.4-15.9c-1.1-2.4-3.2-4.3-6.3-5.9s-8-2.4-14.7-2.4v-4.5h46.9
		l60.1,129.5l59.1-129.5h46.9v4.5h-5.7c-7.1,0-12.1,2.1-15,6.3c-1.8,2.6-2.7,8.5-2.7,17.8v108.2c0,10.2,1.1,16.5,3.4,19
		c3,3.4,7.8,5.1,14.3,5.1h5.7v4.5h-70.3v-4.5h5.9c7.1,0,12-2.1,14.9-6.3c1.8-2.6,2.7-8.5,2.7-17.8V68.5l-63.8,139.3H433.4z"/>
	<path class="st8" d="M624.6,191.6c-11.5,8.9-18.7,14-21.6,15.4c-4.4,2-9.1,3.1-14,3.1c-7.7,0-14.1-2.6-19.1-7.9
		c-5-5.3-7.5-12.2-7.5-20.9c0-5.5,1.2-10.2,3.7-14.2c3.3-5.5,9.1-10.7,17.4-15.6c8.3-4.9,22-10.8,41.2-17.8v-4.4
		c0-11.1-1.8-18.8-5.3-22.9s-8.7-6.2-15.4-6.2c-5.1,0-9.2,1.4-12.2,4.2c-3.1,2.8-4.6,5.9-4.6,9.5l0.2,7.1c0,3.7-1,6.6-2.9,8.7
		c-1.9,2-4.4,3.1-7.5,3.1c-3,0-5.5-1.1-7.4-3.2c-1.9-2.1-2.9-5-2.9-8.7c0-7,3.6-13.4,10.7-19.3c7.2-5.9,17.2-8.8,30.2-8.8
		c9.9,0,18.1,1.7,24.4,5c4.8,2.5,8.3,6.5,10.6,11.8c1.5,3.5,2.2,10.7,2.2,21.5v38c0,10.7,0.2,17.2,0.6,19.6c0.4,2.4,1.1,4,2,4.8
		c0.9,0.8,2,1.2,3.2,1.2c1.3,0,2.4-0.3,3.4-0.9c1.7-1.1,5-4,9.9-8.9v6.8c-9.1,12.2-17.8,18.3-26.1,18.3c-4,0-7.2-1.4-9.5-4.2
		C625.9,203,624.6,198.3,624.6,191.6z M624.6,183.7v-42.6c-12.3,4.9-20.2,8.3-23.8,10.4c-6.4,3.6-11,7.3-13.8,11.2
		c-2.8,3.9-4.1,8.2-4.1,12.8c0,5.9,1.7,10.7,5.2,14.6c3.5,3.9,7.5,5.8,12.1,5.8C606.3,195.9,614.5,191.9,624.6,183.7z"/>
	<path class="st8" d="M702.1,167c-6.8-3.3-12.1-8-15.7-14s-5.5-12.6-5.5-19.8c0-11.1,4.2-20.6,12.5-28.6c8.3-8,19-12,32-12
		c10.7,0,19.9,2.6,27.7,7.8h23.7c3.5,0,5.5,0.1,6.1,0.3c0.6,0.2,1,0.5,1.2,1c0.5,0.7,0.7,2,0.7,3.9c0,2.1-0.2,3.6-0.6,4.4
		c-0.2,0.4-0.7,0.7-1.3,1s-2.7,0.4-6.2,0.4h-14.5c4.6,5.9,6.8,13.3,6.8,22.5c0,10.4-4,19.3-12,26.7c-8,7.4-18.7,11.1-32.1,11.1
		c-5.5,0-11.2-0.8-17-2.4c-3.6,3.1-6,5.8-7.3,8.1c-1.3,2.3-1.9,4.3-1.9,5.9c0,1.4,0.7,2.7,2,4c1.3,1.3,4,2.2,7.9,2.8
		c2.3,0.3,8,0.6,17.1,0.9c16.8,0.4,27.6,1,32.6,1.7c7.6,1.1,13.6,3.9,18.1,8.4c4.5,4.6,6.8,10.2,6.8,16.8c0,9.2-4.3,17.8-12.9,25.9
		c-12.7,11.9-29.3,17.8-49.7,17.8c-15.7,0-29-3.5-39.8-10.6c-6.1-4.1-9.2-8.3-9.2-12.7c0-2,0.4-3.9,1.3-5.9c1.4-3,4.2-7.2,8.5-12.6
		c0.6-0.7,4.7-5.1,12.5-13.2c-4.2-2.5-7.2-4.8-9-6.8c-1.8-2-2.6-4.3-2.6-6.8c0-2.8,1.2-6.2,3.5-10C688.3,179.4,693.7,174,702.1,167z
		 M700.9,207.8c-3.8,4.2-6.7,8-8.7,11.6c-2,3.6-2.9,6.9-2.9,9.9c0,3.9,2.4,7.3,7.1,10.3c8.1,5,19.9,7.6,35.3,7.6
		c14.6,0,25.5-2.6,32.4-7.8c7-5.2,10.4-10.7,10.4-16.5c0-4.2-2.1-7.2-6.2-9c-4.2-1.8-12.6-2.8-25.1-3.2
		C724.8,210.1,710.7,209.1,700.9,207.8z M723.3,98.5c-6,0-11.1,2.4-15.1,7.2c-4.1,4.8-6.1,12.2-6.1,22.1c0,12.9,2.8,22.8,8.3,29.9
		c4.2,5.4,9.6,8.1,16.1,8.1c6.2,0,11.3-2.3,15.3-7c4-4.6,6-11.9,6-21.9c0-12.9-2.8-23.1-8.4-30.4C735.2,101.2,729.8,98.5,723.3,98.5
		z"/>
	<path class="st8" d="M860.5,191.6c-11.5,8.9-18.7,14-21.6,15.4c-4.4,2-9.1,3.1-14,3.1c-7.7,0-14.1-2.6-19.1-7.9
		c-5-5.3-7.5-12.2-7.5-20.9c0-5.5,1.2-10.2,3.7-14.2c3.3-5.5,9.1-10.7,17.4-15.6c8.3-4.9,22-10.8,41.2-17.8v-4.4
		c0-11.1-1.8-18.8-5.3-22.9s-8.7-6.2-15.4-6.2c-5.1,0-9.2,1.4-12.2,4.2c-3.1,2.8-4.6,5.9-4.6,9.5l0.2,7.1c0,3.7-1,6.6-2.9,8.7
		c-1.9,2-4.4,3.1-7.5,3.1c-3,0-5.5-1.1-7.4-3.2c-1.9-2.1-2.9-5-2.9-8.7c0-7,3.6-13.4,10.7-19.3c7.2-5.9,17.2-8.8,30.2-8.8
		c9.9,0,18.1,1.7,24.4,5c4.8,2.5,8.3,6.5,10.6,11.8c1.5,3.5,2.2,10.7,2.2,21.5v38c0,10.7,0.2,17.2,0.6,19.6c0.4,2.4,1.1,4,2,4.8
		c0.9,0.8,2,1.2,3.2,1.2c1.3,0,2.4-0.3,3.4-0.9c1.7-1.1,5-4,9.9-8.9v6.8c-9.1,12.2-17.8,18.3-26.1,18.3c-4,0-7.2-1.4-9.5-4.2
		C861.8,203,860.6,198.3,860.5,191.6z M860.5,183.7v-42.6c-12.3,4.9-20.2,8.3-23.8,10.4c-6.4,3.6-11,7.3-13.8,11.2
		c-2.8,3.9-4.1,8.2-4.1,12.8c0,5.9,1.7,10.7,5.2,14.6c3.5,3.9,7.5,5.8,12.1,5.8C842.3,195.9,850.4,191.9,860.5,183.7z"/>
	<path class="st8" d="M1005.3,173.5l-1.3,34.3h-98.6v-4.4l74.2-98.9h-36.6c-7.9,0-13.1,0.5-15.5,1.5c-2.4,1-4.4,3-6,5.8
		c-2.2,4.1-3.5,9.1-3.8,15.1h-4.9l0.7-31h93.7v4.5l-75,99.1h40.8c8.5,0,14.3-0.7,17.4-2.1c3.1-1.4,5.5-3.9,7.4-7.5
		c1.3-2.6,2.4-8.1,3.3-16.5H1005.3z"/>
	<path class="st8" d="M1057.7,92.7v89.8c0,7,0.5,11.7,1.5,14c1,2.3,2.5,4,4.5,5.2c2,1.1,5.6,1.7,10.9,1.7v4.4h-54.3v-4.4
		c5.5,0,9.1-0.5,11-1.6c1.9-1.1,3.4-2.8,4.5-5.2s1.6-7.1,1.6-14v-43.1c0-12.1-0.4-20-1.1-23.6c-0.6-2.6-1.5-4.4-2.7-5.4
		c-1.2-1-2.9-1.5-5-1.5c-2.3,0-5,0.6-8.3,1.8l-1.7-4.4l33.7-13.7H1057.7z M1047.5,34.2c3.4,0,6.3,1.2,8.7,3.6
		c2.4,2.4,3.6,5.3,3.6,8.7s-1.2,6.3-3.6,8.8c-2.4,2.4-5.3,3.7-8.7,3.7s-6.3-1.2-8.8-3.7s-3.7-5.4-3.7-8.8s1.2-6.3,3.6-8.7
		C1041.1,35.4,1044,34.2,1047.5,34.2z"/>
	<path class="st8" d="M1121.1,116.3c13.1-15.8,25.6-23.7,37.5-23.7c6.1,0,11.4,1.5,15.7,4.6s7.9,8.1,10.5,15.1
		c1.8,4.9,2.7,12.4,2.7,22.5v47.7c0,7.1,0.6,11.9,1.7,14.4c0.9,2,2.3,3.6,4.3,4.8c2,1.1,5.7,1.7,11,1.7v4.4h-55.3v-4.4h2.3
		c5.2,0,8.8-0.8,10.9-2.4s3.5-3.9,4.3-7c0.3-1.2,0.5-5,0.5-11.5v-45.8c0-10.2-1.3-17.6-4-22.2c-2.6-4.6-7.1-6.9-13.4-6.9
		c-9.7,0-19.3,5.3-28.9,15.9v59c0,7.6,0.4,12.2,1.3,14c1.1,2.4,2.7,4.1,4.7,5.2c2,1.1,6,1.6,12.1,1.6v4.4H1084v-4.4h2.4
		c5.7,0,9.5-1.4,11.5-4.3c2-2.9,3-8.4,3-16.5V141c0-13.4-0.3-21.6-0.9-24.5s-1.5-4.9-2.8-6c-1.3-1.1-3-1.6-5.1-1.6
		c-2.3,0-5,0.6-8.2,1.8l-1.8-4.4l33.7-13.7h5.2V116.3z"/>
	<path class="st8" d="M1232.3,138.1c-0.1,16.6,3.9,29.6,12.1,39.1c8.1,9.4,17.7,14.2,28.7,14.2c7.3,0,13.7-2,19.1-6
		c5.4-4,9.9-10.9,13.6-20.7l3.8,2.4c-1.7,11.1-6.7,21.3-14.9,30.5c-8.2,9.2-18.5,13.7-30.9,13.7c-13.4,0-24.9-5.2-34.5-15.7
		c-9.6-10.5-14.3-24.5-14.3-42.2c0-19.1,4.9-34,14.7-44.7c9.8-10.7,22.1-16.1,36.9-16.1c12.5,0,22.8,4.1,30.9,12.4
		c8.1,8.3,12.1,19.3,12.1,33.1H1232.3z M1232.3,131h51.8c-0.4-7.2-1.3-12.2-2.6-15.1c-2-4.6-5.1-8.1-9.1-10.7
		c-4-2.6-8.2-3.9-12.6-3.9c-6.8,0-12.8,2.6-18.1,7.9C1236.4,114.3,1233.2,121.6,1232.3,131z"/>
</g>
</svg>
