<?xml version="1.0" encoding="utf-8"?>
<!-- Generator: Adobe Illustrator 24.1.1, SVG Export Plug-In . SVG Version: 6.00 Build 0)  -->
<svg version="1.1" xmlns="http://www.w3.org/2000/svg" xmlns:xlink="http://www.w3.org/1999/xlink" x="0px" y="0px"
	 viewBox="0 0 187.99 141.73" style="enable-background:new 0 0 187.99 141.73;" xml:space="preserve">
<style type="text/css">
	.st0{fill:#323232;}
	.st1{display:none;}
	.st2{display:inline;fill:none;stroke:#323232;stroke-miterlimit:10;}
	.st3{fill:#EFECEA;}
</style>
<g id="圖層_1">
</g>
<g id="圖層_2" class="st1">
</g>
<g id="圖層_3">
</g>
<g id="圖層_4">
	<g>
		<g>
			<g>
				<path class="st3" d="M74.47,91.84l0.06,0.97c-2.34,0.39-4.82,0.8-6.54,1.11l-0.15-1.05c0.79-0.11,1.78-0.25,2.86-0.42v-2.23
					h-2.41v-0.94h2.41v-1.64h1.01v1.64h2.4v0.94h-2.4v2.07L74.47,91.84z M74.26,87.32h-6.3v-0.95h2.73v-1.92h-2.3v-0.95h2.3v-1.81
					h1.01v1.81h2.27v0.95h-2.27v1.92h2.56V87.32z M80.64,85.96h-1.37v7.17c0,0.64-0.18,0.94-0.59,1.12
					c-0.43,0.17-1.12,0.21-2.27,0.21c-0.06-0.29-0.25-0.74-0.41-1.02c0.88,0.03,1.67,0.01,1.89,0.01c0.25-0.01,0.35-0.08,0.35-0.32
					v-7.17h-3.78v-1.01h3.78v-3.14h1.02v3.14h1.37V85.96z M76.36,90.78c-0.27-0.81-0.87-2.2-1.36-3.22l0.9-0.32
					c0.5,1.01,1.12,2.37,1.4,3.15L76.36,90.78z"/>
				<path class="st3" d="M88.7,83.62c-0.17,0.59-0.36,1.22-0.55,1.75h5.62v9.12h-1.05v-0.74h-8.95v0.74h-1.01v-9.12h4.33
					c0.15-0.53,0.29-1.18,0.41-1.75h-5.37v-0.99h12.31v0.99H88.7z M83.77,92.78h1.99v-6.44h-1.99V92.78z M89.67,86.34h-2.96v1.54
					h2.96V86.34z M89.67,88.73h-2.96v1.57h2.96V88.73z M86.71,92.78h2.96v-1.63h-2.96V92.78z M92.72,86.34h-2.1v6.44h2.1V86.34z"/>
				<path class="st3" d="M107.63,85.26c-0.38,2.33-0.99,4.17-1.95,5.67c0.8,1.18,1.79,2.1,3.07,2.68c-0.24,0.21-0.56,0.6-0.73,0.88
					c-1.23-0.62-2.2-1.53-2.98-2.68c-0.92,1.12-2.12,2-3.66,2.69c-0.11-0.25-0.42-0.71-0.6-0.92c1.61-0.64,2.8-1.53,3.7-2.69
					c-0.64-1.18-1.15-2.55-1.51-4.08c-0.29,0.59-0.62,1.12-0.98,1.6c-0.11-0.11-0.32-0.29-0.53-0.45v4.94h-3.99v0.98H96.5v-5.95
					h1.97v-2.55h-2.56V84.4h2.56v-2.72h1.02v2.72H102v0.98H99.5v2.55h1.92c-0.11-0.08-0.22-0.15-0.31-0.21
					c1.2-1.42,1.99-3.67,2.44-6.04l1.04,0.17c-0.15,0.83-0.36,1.64-0.62,2.41h4.69v0.99H107.63z M100.46,88.92h-3v3.01h3V88.92z
					 M103.61,85.32c0.31,1.71,0.8,3.29,1.5,4.62c0.71-1.27,1.18-2.82,1.47-4.68h-2.94L103.61,85.32z"/>
				<path class="st3" d="M122.59,90.51h-1.44v2.48h-1.04v-0.63h-3.36v0.97c0,0.64-0.2,0.88-0.62,1.04
					c-0.43,0.15-1.16,0.17-2.33,0.17c-0.06-0.27-0.22-0.64-0.36-0.88c0.84,0.03,1.68,0.01,1.92,0.01c0.27-0.01,0.35-0.1,0.35-0.34
					v-0.97h-4.52v-0.8h4.52v-1.05h-5.73v-0.83h5.73v-0.98h-4.4v-0.77h4.4v-0.98h-4.01v-2.47h4.01v-0.81h-5.46v-0.85h5.46V81.7h1.04
					v1.12h5.58v0.85h-5.58v0.81h4.17v2.47h-4.17v0.98h4.4v1.75h1.44V90.51z M115.71,86.23v-1.01h-3.01v1.01H115.71z M116.75,85.22
					v1.01h3.14v-1.01H116.75z M116.75,89.69h3.36v-0.98h-3.36V89.69z M120.11,90.51h-3.36v1.05h3.36V90.51z"/>
				<path class="st3" d="M58.29,107.29c0-3.32,1.95-5.34,4.55-5.34c1.25,0,2.23,0.62,2.82,1.28l-0.7,0.84
					c-0.53-0.57-1.22-0.98-2.1-0.98c-1.95,0-3.24,1.6-3.24,4.16c0,2.59,1.23,4.22,3.19,4.22c0.98,0,1.72-0.43,2.38-1.15l0.71,0.81
					c-0.81,0.94-1.82,1.47-3.15,1.47C60.2,112.59,58.29,110.62,58.29,107.29z"/>
				<path class="st3" d="M67.12,108.62c0-2.54,1.67-4.01,3.53-4.01c1.86,0,3.53,1.47,3.53,4.01c0,2.52-1.67,3.98-3.53,3.98
					C68.79,112.59,67.12,111.14,67.12,108.62z M72.86,108.62c0-1.75-0.9-2.94-2.21-2.94c-1.32,0-2.2,1.19-2.2,2.94
					s0.88,2.91,2.2,2.91C71.97,111.53,72.86,110.37,72.86,108.62z"/>
				<path class="st3" d="M75.01,104.81h1.33l1.43,4.33c0.24,0.74,0.48,1.53,0.71,2.24h0.06c0.22-0.71,0.48-1.5,0.7-2.24l1.44-4.33
					h1.26l-2.7,7.61h-1.48L75.01,104.81z"/>
				<path class="st3" d="M82.79,108.62c0-2.46,1.67-4.01,3.43-4.01c1.93,0,3.03,1.4,3.03,3.57c0,0.28-0.03,0.55-0.06,0.73h-5.13
					c0.08,1.63,1.08,2.66,2.52,2.66c0.74,0,1.34-0.22,1.91-0.6l0.46,0.84c-0.67,0.43-1.48,0.79-2.52,0.79
					C84.41,112.59,82.79,111.12,82.79,108.62z M88.12,108c0-1.54-0.7-2.37-1.89-2.37c-1.08,0-2.03,0.87-2.18,2.37H88.12z"/>
				<path class="st3" d="M91.12,104.81h1.05l0.11,1.39h0.04c0.53-0.97,1.3-1.58,2.16-1.58c0.34,0,0.58,0.04,0.81,0.17l-0.24,1.12
					c-0.25-0.1-0.43-0.13-0.74-0.13c-0.63,0-1.41,0.45-1.92,1.75v4.89h-1.27V104.81z"/>
				<path class="st3" d="M99.05,111.07l0.77-0.88c0.74,0.77,1.78,1.27,2.84,1.27c1.34,0,2.16-0.67,2.16-1.68
					c0-1.05-0.74-1.39-1.71-1.82l-1.49-0.64c-0.95-0.41-2.09-1.13-2.09-2.63c0-1.58,1.37-2.73,3.24-2.73c1.22,0,2.3,0.52,3.03,1.28
					l-0.69,0.83c-0.63-0.59-1.39-0.97-2.34-0.97c-1.16,0-1.92,0.59-1.92,1.51c0,0.99,0.9,1.37,1.7,1.71l1.47,0.63
					c1.19,0.52,2.12,1.22,2.12,2.75c0,1.63-1.34,2.91-3.49,2.91C101.2,112.59,99.95,112,99.05,111.07z"/>
				<path class="st3" d="M107.89,110.06v-4.22h-1.13v-0.97l1.19-0.07l0.15-2.13h1.07v2.13h2.06v1.04h-2.06v4.24
					c0,0.94,0.29,1.47,1.18,1.47c0.27,0,0.62-0.1,0.87-0.2l0.25,0.95c-0.43,0.14-0.94,0.28-1.4,0.28
					C108.43,112.59,107.89,111.58,107.89,110.06z"/>
				<path class="st3" d="M112.16,108.62c0-2.54,1.67-4.01,3.53-4.01s3.53,1.47,3.53,4.01c0,2.52-1.67,3.98-3.53,3.98
					S112.16,111.14,112.16,108.62z M117.9,108.62c0-1.75-0.9-2.94-2.21-2.94s-2.2,1.19-2.2,2.94s0.88,2.91,2.2,2.91
					S117.9,110.37,117.9,108.62z"/>
				<path class="st3" d="M121.22,104.81h1.05l0.11,1.39h0.04c0.53-0.97,1.3-1.58,2.16-1.58c0.34,0,0.57,0.04,0.81,0.17l-0.24,1.12
					c-0.25-0.1-0.43-0.13-0.74-0.13c-0.63,0-1.42,0.45-1.92,1.75v4.89h-1.27V104.81z"/>
				<path class="st3" d="M126.28,115.54l0.25-1.02c0.15,0.06,0.38,0.13,0.57,0.13c0.87,0,1.42-0.7,1.72-1.64l0.17-0.57l-3.05-7.62
					h1.33l1.55,4.23c0.22,0.66,0.49,1.44,0.73,2.13h0.07c0.21-0.69,0.43-1.46,0.64-2.13l1.36-4.23h1.25l-2.87,8.24
					c-0.53,1.5-1.32,2.65-2.83,2.65C126.81,115.69,126.52,115.63,126.28,115.54z"/>
				<path class="st3" d="M52.34,130.66c3.22-2.82,4.71-4.86,4.71-6.63c0-1.18-0.62-2.03-1.89-2.03c-0.84,0-1.57,0.52-2.13,1.19
					l-0.74-0.73c0.84-0.91,1.72-1.51,3.03-1.51c1.83,0,2.98,1.21,2.98,3.04c0,2.04-1.61,4.13-4.02,6.42c0.53-0.04,1.16-0.1,1.68-0.1
					h2.84v1.11h-6.46V130.66z"/>
				<path class="st3" d="M60.18,126.24c0-3.57,1.25-5.29,3.21-5.29c1.95,0,3.19,1.74,3.19,5.29c0,3.57-1.25,5.35-3.19,5.35
					C61.43,131.59,60.18,129.81,60.18,126.24z M65.34,126.24c0-3-0.79-4.26-1.95-4.26c-1.18,0-1.96,1.26-1.96,4.26
					c0,3.03,0.78,4.33,1.96,4.33C64.55,130.57,65.34,129.27,65.34,126.24z"/>
				<path class="st3" d="M67.88,130.66c3.22-2.82,4.71-4.86,4.71-6.63c0-1.18-0.62-2.03-1.89-2.03c-0.84,0-1.57,0.52-2.13,1.19
					l-0.74-0.73c0.84-0.91,1.72-1.51,3.03-1.51c1.83,0,2.98,1.21,2.98,3.04c0,2.04-1.61,4.13-4.02,6.42c0.53-0.04,1.16-0.1,1.68-0.1
					h2.84v1.11h-6.46V130.66z"/>
				<path class="st3" d="M75.72,126.24c0-3.57,1.25-5.29,3.21-5.29c1.95,0,3.19,1.74,3.19,5.29c0,3.57-1.25,5.35-3.19,5.35
					C76.97,131.59,75.72,129.81,75.72,126.24z M80.88,126.24c0-3-0.78-4.26-1.95-4.26c-1.18,0-1.96,1.26-1.96,4.26
					c0,3.03,0.78,4.33,1.96,4.33C80.09,130.57,80.88,129.27,80.88,126.24z"/>
				<path class="st3" d="M87.83,130.36c-0.85,0.71-2.16,1.4-3.26,1.82c-0.15-0.17-0.55-0.45-0.77-0.59c1.16-0.38,2.4-0.94,3.15-1.55
					L87.83,130.36z M89.8,125.7h-5.74v-5.48h5.63v0.76h-2.07v0.81h1.74v2.3h-1.72v0.87h2.17V125.7z M90.54,129.52v1.93
					c0,0.52-0.11,0.73-0.55,0.87c-0.42,0.13-1.09,0.13-2.12,0.13c-0.07-0.27-0.24-0.56-0.35-0.81c0.81,0.03,1.51,0.03,1.71,0.01
					c0.22-0.01,0.28-0.07,0.28-0.22v-1.83c-4.13,0.22-4.67,0.29-5.03,0.42c-0.03-0.18-0.14-0.59-0.22-0.83
					c0.45-0.03,1.08-0.17,1.85-0.42c0.48-0.14,1.48-0.48,2.67-0.98c-2.65,0.14-3.01,0.18-3.26,0.27c-0.03-0.17-0.14-0.57-0.22-0.78
					c0.28-0.01,0.59-0.08,0.98-0.21c0.42-0.14,1.71-0.64,2.75-1.3l0.66,0.48c-0.67,0.38-1.36,0.7-2.04,0.97l2.75-0.11
					c0.53-0.24,1.06-0.5,1.58-0.78l0.64,0.56c-1.67,0.87-3.32,1.55-4.97,2.1l5.59-0.29c-0.34-0.29-0.71-0.55-1.05-0.78l0.67-0.45
					c1.01,0.66,2.17,1.57,2.75,2.2l-0.7,0.55c-0.22-0.25-0.52-0.53-0.87-0.85L90.54,129.52z M85,120.98v0.81h1.74v-0.81H85z
					 M88.51,122.45H85v1h3.5V122.45z M85,124.95h1.75v-0.87H85V124.95z M95.62,120.56c-0.39,1.47-1.09,2.62-1.98,3.52
					c0.73,0.55,1.57,0.98,2.51,1.25c-0.22,0.18-0.48,0.55-0.62,0.78c-0.97-0.31-1.83-0.78-2.58-1.42c-0.73,0.6-1.58,1.04-2.47,1.34
					c-0.11-0.21-0.34-0.56-0.52-0.73c0.84-0.27,1.63-0.67,2.33-1.22c-0.71-0.76-1.29-1.65-1.68-2.66l0.49-0.15H90.2v-0.88h4.66
					l0.17-0.04L95.62,120.56z M91.48,121.27c0.34,0.84,0.85,1.58,1.5,2.23c0.63-0.62,1.12-1.36,1.46-2.23H91.48z M92.43,129.93
					c1.09,0.45,2.51,1.15,3.26,1.6l-0.69,0.59c-0.76-0.48-2.16-1.2-3.28-1.64L92.43,129.93z"/>
				<path class="st3" d="M97.38,131.52c0.55-0.7,1.11-1.83,1.43-2.63l0.9,0.41c-0.36,0.81-0.88,1.95-1.39,2.69L97.38,131.52z
					 M99.56,123.13c-0.36,0.29-0.77,0.57-1.21,0.85c-0.17-0.25-0.52-0.6-0.74-0.74c1.75-1,2.98-2.4,3.61-3.59l1.12,0.2
					c-0.18,0.31-0.36,0.59-0.56,0.9h3.82l0.17-0.04l0.7,0.46c-0.29,0.57-0.74,1.22-1.18,1.78h3.05V125h1.54v0.83h-1.54v2.07h-5
					c0.71,0.57,1.55,1.39,1.95,1.96l-0.78,0.57c-0.39-0.57-1.21-1.44-1.93-2.03l0.76-0.5h-4.06v-0.88h8.05v-1.19h-9.23V125h9.23
					v-1.16h-7.77V123.13z M101.12,121.62c-0.39,0.46-0.84,0.91-1.34,1.33h4.33c0.34-0.39,0.67-0.88,0.92-1.33H101.12z
					 M105.69,131.33c0.73,0,0.85-0.18,0.92-1.51c0.24,0.17,0.66,0.31,0.95,0.38c-0.14,1.68-0.48,2.07-1.81,2.07h-3.21
					c-1.62,0-2.04-0.28-2.04-1.36v-2.04h1.04v2.03c0,0.38,0.17,0.43,1.07,0.43H105.69z M108.56,128.51c0.66,0.9,1.36,2.12,1.63,2.91
					l-0.95,0.41c-0.27-0.79-0.94-2.03-1.58-2.97L108.56,128.51z"/>
				<path class="st3" d="M120.71,124.86c0.21,2,0.9,5.21,3.61,6.74c-0.28,0.21-0.6,0.55-0.77,0.83c-2.03-1.22-2.96-3.4-3.43-5.35
					c-0.41,1.96-1.37,3.87-3.53,5.45c-0.13-0.24-0.42-0.57-0.66-0.77v0.73h-0.99v-4.87h-1.42v0.42c0,1.16-0.22,2.96-1.33,4.16
					c-0.2-0.15-0.57-0.39-0.8-0.49c1.01-1.12,1.18-2.69,1.18-3.68v-0.41h-1.08v-0.95h3.45v-1.99h-2.9v-4.37h0.95v3.43h1.95v-4.02
					h0.99v11.99c2.68-1.96,3.32-4.48,3.46-6.84h-3v-1.02h3.04v-0.32v-3.8h0.99v3.78v0.34h3.73v1.02H120.71z M122.98,123.08
					c-0.32-0.69-1.12-1.75-1.82-2.52l0.83-0.41c0.71,0.74,1.53,1.78,1.88,2.46L122.98,123.08z"/>
				<path class="st3" d="M131.38,123.06c-0.11-0.18-0.28-0.43-0.46-0.69c-4.16,0.34-4.66,0.41-4.96,0.53
					c-0.06-0.2-0.2-0.66-0.31-0.9c0.22-0.03,0.46-0.17,0.73-0.41c0.29-0.21,1.23-1.08,1.86-1.98l0.95,0.34
					c-0.62,0.71-1.27,1.39-1.92,1.92l3.08-0.22c-0.27-0.32-0.53-0.64-0.8-0.91l0.71-0.38c0.67,0.69,1.5,1.64,1.88,2.26
					L131.38,123.06z M125.65,131.61c0.46-0.63,0.9-1.7,1.12-2.49l0.87,0.35c-0.24,0.84-0.62,1.92-1.09,2.61L125.65,131.61z
					 M131.22,127.74c0,0.46-0.1,0.66-0.43,0.8c-0.32,0.13-0.84,0.13-1.64,0.13c-0.06-0.22-0.2-0.52-0.31-0.73
					c0.59,0.01,1.11,0.01,1.25,0c0.17,0,0.21-0.04,0.21-0.2v-1.15c-0.95,0.34-1.86,0.64-2.69,0.9l-0.32-0.76
					c0.78-0.18,1.88-0.46,3.01-0.78v-1.86h-2.94v1.44c0,1.05-0.13,2.42-0.91,3.36c-0.15-0.17-0.52-0.48-0.73-0.59
					c0.67-0.81,0.74-1.92,0.74-2.79v-2.23h4.76V127.74z M127.93,124.46c0.71,0.25,1.71,0.63,2.23,0.9l-0.38,0.57
					c-0.53-0.27-1.51-0.69-2.24-0.94L127.93,124.46z M133.55,131.4c0.66,0,0.77-0.17,0.83-1.44c0.24,0.15,0.64,0.29,0.91,0.36
					c-0.13,1.57-0.45,1.95-1.65,1.95h-3.01c-1.51,0-1.93-0.25-1.93-1.26v-1.72h1.01v1.71c0,0.35,0.15,0.41,0.98,0.41H133.55z
					 M132.45,130.68c-0.32-0.45-0.95-1.2-1.46-1.74l0.7-0.46c0.5,0.52,1.15,1.23,1.48,1.67L132.45,130.68z M134.32,128.54
					c-1.26,0-1.58-0.27-1.58-1.26v-2.94h0.97v1.11h3.4v0.83h-3.4v1.01c0,0.34,0.11,0.39,0.69,0.39h2.06c0.43,0,0.52-0.13,0.56-0.97
					c0.21,0.15,0.6,0.29,0.87,0.35c-0.11,1.18-0.41,1.49-1.33,1.49H134.32z M134.12,123.75c-1.09,0-1.37-0.36-1.37-1.4v-2.55h0.97
					v1.04h3.4v0.83h-3.4v0.71c0,0.39,0.07,0.53,0.43,0.53h2.31c0.29,0,0.81-0.03,1.06-0.07c0.01,0.25,0.06,0.62,0.1,0.84
					c-0.21,0.07-0.7,0.07-1.13,0.07H134.12z M136.61,129.06c0.42,0.8,0.94,1.88,1.13,2.52l-0.94,0.31
					c-0.21-0.66-0.67-1.75-1.09-2.56L136.61,129.06z"/>
				<path class="st3" d="M46.27,138.08v0.57H32.27v-0.57H46.27z"/>
				<path class="st3" d="M60.27,138.08v0.57H46.27v-0.57H60.27z"/>
				<path class="st3" d="M74.27,138.08v0.57H60.27v-0.57H74.27z"/>
				<path class="st3" d="M88.27,138.08v0.57H74.27v-0.57H88.27z"/>
				<path class="st3" d="M102.27,138.08v0.57H88.27v-0.57H102.27z"/>
				<path class="st3" d="M116.27,138.08v0.57h-14.01v-0.57H116.27z"/>
				<path class="st3" d="M130.27,138.08v0.57h-14.01v-0.57H130.27z"/>
				<path class="st3" d="M144.27,138.08v0.57h-14.01v-0.57H144.27z"/>
				<path class="st3" d="M158.27,138.08v0.57h-14.01v-0.57H158.27z"/>
			</g>
		</g>
		<g>
			<g>
				<g>
					<path class="st3" d="M73.95,22.87c-0.62-0.72-1.7-1.3-2.74-1.3c-2.04,0-3.72,1.54-3.86,5.98c0.96-1.18,2.5-1.9,3.65-1.9
						c2.98,0,5.09,1.78,5.09,5.59c0,3.65-2.54,5.93-5.57,5.93c-3.38,0-6.38-2.71-6.38-8.98c0-6.63,3.29-9.46,6.86-9.46
						c2.16,0,3.74,0.91,4.82,2.02L73.95,22.87z M72.84,31.24c0-2.11-0.98-3.1-2.52-3.1c-0.96,0-2.02,0.5-2.9,1.87
						c0.34,3.24,1.54,4.49,3.02,4.49C71.76,34.51,72.84,33.4,72.84,31.24z"/>
					<path class="st3" d="M97.2,35.28c0,1.73-0.41,2.54-1.51,3.02c-1.15,0.5-2.83,0.55-5.3,0.55c-0.17-0.84-0.74-2.21-1.2-3
						c1.68,0.1,3.7,0.07,4.22,0.07c0.58,0,0.77-0.19,0.77-0.7v-3.48H83.91c-0.63,2.69-1.82,5.3-4.06,7.18
						c-0.43-0.6-1.58-1.66-2.21-2.06c3.62-3.1,3.96-7.68,3.96-11.33v-7.9h15.6V35.28z M94.18,28.99v-2.93h-9.63
						c-0.02,0.91-0.07,1.92-0.17,2.93H94.18z M84.55,20.42v2.93h9.63v-2.93H84.55z"/>
					<path class="st3" d="M109.97,29.64c0,0-0.02,0.65-0.05,0.98c-0.29,4.51-0.6,6.41-1.22,7.1c-0.43,0.55-0.91,0.74-1.61,0.84
						c-0.58,0.07-1.51,0.07-2.54,0.02c-0.05-0.72-0.31-1.68-0.67-2.33c0.86,0.1,1.66,0.1,2.06,0.1c0.31,0.02,0.53-0.02,0.74-0.24
						c0.31-0.36,0.55-1.51,0.74-4.27h-2.21v0.02h-2.45c0.31-1.08,0.62-2.5,0.89-3.84h-1.8v-2.47h8.93v2.47h-4.73
						c-0.12,0.55-0.22,1.08-0.34,1.61H109.97z M110.28,24.24h-7.32V17.4h7.32V24.24z M108.15,19.39h-3.17v2.83h3.17V19.39z
						 M121.15,27.45c0.48,0,1.32-0.05,1.68-0.17c0.05,0.7,0.1,1.39,0.19,2.02c-0.38,0.14-1.13,0.19-1.75,0.19h-2.52
						c-1.99,0-2.42-0.94-2.45-2.81l-1.68,0.14l-0.24-1.87l1.92-0.17v-1.42h-2.28v3.94c0,3.43-0.36,8.42-2.33,11.62
						c-0.46-0.43-1.54-1.22-2.11-1.49c1.78-2.93,1.94-7.11,1.94-10.15v-6.17h4.66v-4.61h2.71v1.3h4.58v2.26h-4.58v1.06h3.48
						l0.38-0.07l1.75,0.38c-0.26,1.58-0.6,3.43-0.94,4.61l-2.06-0.53c0.1-0.55,0.22-1.34,0.31-2.14h-3.14v1.2l2.26-0.22l0.22,1.87
						l-2.47,0.22v0.14c0,0.6,0.05,0.86,0.55,0.86H121.15z M117.56,30.28c-0.14,3.94-0.67,6.91-3.36,8.71
						c-0.29-0.6-0.96-1.49-1.51-1.87c2.11-1.42,2.42-3.7,2.52-6.84H117.56z M121.97,36.02c0.17,0,0.31-0.02,0.38-0.1
						c0.1-0.1,0.17-0.26,0.22-0.48c0.02-0.36,0.07-1.2,0.07-2.21c0.43,0.41,1.3,0.89,1.92,1.08c-0.05,1.13-0.17,2.3-0.29,2.78
						c-0.19,0.5-0.43,0.82-0.79,1.08c-0.34,0.22-0.86,0.34-1.32,0.34h-1.27c-0.62,0-1.22-0.17-1.61-0.55
						c-0.38-0.43-0.48-0.82-0.48-2.18v-5.52h2.33v5.28c0,0.14,0.05,0.29,0.1,0.34c0.07,0.1,0.22,0.14,0.36,0.14H121.97z"/>
				</g>
				<g>
					<path class="st3" d="M51.7,48.65c-0.5,0.8-1.07,1.5-1.63,2.05c-0.21-0.24-0.72-0.75-1.01-0.98c0.94-0.85,1.84-2.14,2.34-3.44
						l1.33,0.38c-0.1,0.27-0.22,0.54-0.37,0.82h3.83v1.17h-2.69c0.5,0.4,0.99,0.93,1.28,1.26l-0.96,0.85
						c-0.32-0.43-1.01-1.12-1.54-1.62l0.59-0.5H51.7z M62.79,55.82c0,0-0.02,0.37-0.05,0.58c-0.19,2.16-0.38,3.14-0.8,3.55
						c-0.3,0.32-0.63,0.43-1.1,0.46c-0.4,0.03-1.18,0.05-2,0c-0.02-0.42-0.19-0.98-0.42-1.36c0.72,0.08,1.46,0.1,1.73,0.08
						c0.27,0,0.43-0.02,0.56-0.13c0.19-0.21,0.34-0.74,0.48-1.92h-4.26v4h-1.47V57.7c-1.38,1.46-3.31,2.69-5.12,3.38
						c-0.22-0.34-0.63-0.9-0.96-1.17c1.78-0.54,3.65-1.62,4.93-2.82h-3.86c0.22-1.01,0.45-2.53,0.58-3.75h4.43v-1.25h-4.99v-1.23
						h11.68v3.71h-5.22v1.25H62.79z M52.29,54.58c-0.05,0.43-0.11,0.85-0.18,1.25h3.35v-1.25H52.29z M63.57,47.48v1.17h-3.15
						c0.51,0.38,1.09,0.88,1.39,1.23l-1.01,0.86c-0.34-0.42-1.04-1.07-1.63-1.54l0.7-0.56h-1.6c-0.37,0.58-0.8,1.09-1.22,1.49
						c-0.24-0.24-0.78-0.67-1.12-0.88c0.86-0.72,1.6-1.83,2-2.96l1.36,0.32c-0.11,0.3-0.22,0.58-0.35,0.86H63.57z M56.93,53.34h3.76
						v-1.25h-3.76V53.34z"/>
					<path class="st3" d="M65.69,58.32h2.58v-8.2h-2.11v-1.17c1.1-0.21,1.89-0.48,2.56-0.9h1.39v10.26h2.3v1.52h-6.72V58.32z"/>
					<path class="st3" d="M74.14,58.77c3.47-3.07,5.27-5.36,5.27-7.3c0-1.28-0.69-2.16-2-2.16c-0.93,0-1.7,0.59-2.32,1.31
						l-1.04-1.02c1.01-1.09,2.05-1.76,3.58-1.76c2.16,0,3.55,1.41,3.55,3.54c0,2.27-1.81,4.63-4.31,7.01
						c0.61-0.06,1.34-0.11,1.92-0.11h2.95v1.57h-7.6V58.77z"/>
					<path class="st3" d="M83.01,58.43l0.9-1.18c0.69,0.7,1.57,1.3,2.79,1.3c1.33,0,2.24-0.74,2.24-1.95c0-1.31-0.83-2.16-3.49-2.16
						v-1.36c2.32,0,3.09-0.88,3.09-2.07c0-1.04-0.69-1.7-1.81-1.71c-0.91,0.02-1.68,0.46-2.35,1.12l-0.96-1.15
						c0.93-0.83,2.02-1.42,3.38-1.42c2.11,0,3.6,1.09,3.6,3.04c0,1.36-0.79,2.31-2.03,2.77v0.08c1.36,0.34,2.43,1.36,2.43,2.95
						c0,2.13-1.78,3.38-3.94,3.38C84.99,60.05,83.79,59.31,83.01,58.43z"/>
					<path class="st3" d="M95.84,57.91c-0.58,1.2-1.5,2.43-2.37,3.22c-0.26-0.26-0.83-0.67-1.18-0.88c0.86-0.69,1.68-1.71,2.14-2.72
						L95.84,57.91z M100.13,57.26h-7.8v-1.3h1.49v-6.24h-1.3v-1.3h1.3v-1.84h1.34v1.84h2.5v-1.84h1.38v1.84h1.15v1.3h-1.15v6.24
						h1.09V57.26z M95.17,49.73v1.2h2.5v-1.2H95.17z M95.17,53.42h2.5v-1.33h-2.5V53.42z M95.17,55.97h2.5v-1.38h-2.5V55.97z
						 M97.87,57.47c0.63,0.72,1.39,1.7,1.73,2.34l-1.2,0.72c-0.32-0.64-1.06-1.68-1.66-2.43L97.87,57.47z M106.51,59.35
						c0,0.78-0.18,1.22-0.67,1.44c-0.48,0.26-1.25,0.29-2.43,0.27c-0.05-0.38-0.24-1.04-0.43-1.41c0.75,0.03,1.55,0.02,1.76,0.02
						c0.24-0.02,0.34-0.08,0.34-0.34v-3.55h-2.95c-0.18,1.9-0.56,3.94-1.47,5.39c-0.24-0.27-0.86-0.7-1.18-0.85
						c1.26-2.1,1.38-5.09,1.38-7.38v-5.76h5.67V59.35z M105.07,54.43v-2.34h-2.82v0.85c0,0.46,0,0.98-0.03,1.49H105.07z
						 M102.26,48.53v2.26h2.82v-2.26H102.26z"/>
					<path class="st3" d="M122.03,54.34v6.75h-1.65v-0.88h-11.11v-5.87h1.67v4.39h3.87v-5.31h-4.77v-5.6h1.57v4.16h3.2v-5.54h1.65
						v5.54h3.3V47.8h1.65v5.6h-4.95v5.31h3.92v-4.39H122.03z"/>
					<path class="st3" d="M129.07,52.59h3.28v1.49h-3.28v7.01h-1.52v-7.01h-3.2v-1.49h3.2V48.8h-2.78v-1.44h7.14v1.44h-2.83V52.59z
						 M134.83,57.17h-1.49v-8.88h1.49V57.17z M138.32,46.7v12.45c0,0.98-0.24,1.42-0.83,1.67c-0.61,0.26-1.62,0.3-3.14,0.29
						c-0.06-0.42-0.34-1.14-0.58-1.57c1.15,0.05,2.24,0.03,2.56,0.03c0.34-0.02,0.46-0.11,0.46-0.42V46.7H138.32z"/>
				</g>
				<g>
					<path class="st3" d="M8.43,61.27c0-5.51,0.68-9.52,0.68-14.62c0-2.99-1.36-5.92-6.53-5.98v-3.88c5.17-0.07,6.53-2.99,6.53-5.92
						c0-5.17-0.68-9.18-0.68-14.69c0-7.89,2.86-10.13,8.91-10.13h3.33v3.47H18.7c-4.08,0-5.17,2.11-5.17,7
						c0,4.62,0.41,8.57,0.41,13.8c0,4.9-1.22,7.34-4.56,8.23v0.27c3.33,0.95,4.56,3.47,4.56,8.29c0,5.17-0.41,9.18-0.41,13.8
						c0,4.9,1.09,6.94,5.17,6.94h1.97v3.54h-3.33C11.29,71.4,8.43,69.16,8.43,61.27z"/>
				</g>
				<g>
					<path class="st3" d="M170.65,71.4h-3.33v-3.54h1.97c4.08,0,5.17-2.04,5.17-6.94c0-4.62-0.41-8.63-0.41-13.8
						c0-4.83,1.22-7.34,4.56-8.29v-0.27c-3.33-0.88-4.56-3.33-4.56-8.23c0-5.24,0.41-9.18,0.41-13.8c0-4.9-1.09-7-5.17-7h-1.97V6.06
						h3.33c6.05,0,8.91,2.24,8.91,10.13c0,5.51-0.68,9.52-0.68,14.69c0,2.92,1.36,5.85,6.53,5.92v3.88
						c-5.17,0.07-6.53,2.99-6.53,5.98c0,5.1,0.68,9.11,0.68,14.62C179.56,69.16,176.71,71.4,170.65,71.4z"/>
				</g>
			</g>
		</g>
	</g>
</g>
</svg>
