<?xml version="1.0" encoding="utf-8"?>
<!-- Generator: Adobe Illustrator 24.1.1, SVG Export Plug-In . SVG Version: 6.00 Build 0)  -->
<svg version="1.1" xmlns="http://www.w3.org/2000/svg" xmlns:xlink="http://www.w3.org/1999/xlink" x="0px" y="0px"
	 viewBox="0 0 187.99 141.73" style="enable-background:new 0 0 187.99 141.73;" xml:space="preserve">
<style type="text/css">
	.st0{fill:#323232;}
	.st1{display:none;}
	.st2{display:inline;fill:none;stroke:#323232;stroke-miterlimit:10;}
	.st3{fill:#EFECEA;}
</style>
<g id="圖層_1">
</g>
<g id="圖層_2" class="st1">
</g>
<g id="圖層_3">
</g>
<g id="圖層_4">
	<g>
		<g>
			<g>
				<path class="st3" d="M74.47,91.84l0.06,0.97c-2.34,0.39-4.82,0.8-6.54,1.11l-0.15-1.05c0.78-0.11,1.78-0.25,2.86-0.42v-2.23
					h-2.41v-0.94h2.41v-1.64h1.01v1.64h2.4v0.94h-2.4v2.07L74.47,91.84z M74.26,87.32h-6.3v-0.95h2.73v-1.92h-2.3v-0.95h2.3v-1.81
					h1.01v1.81h2.27v0.95h-2.27v1.92h2.56V87.32z M80.64,85.96h-1.37v7.17c0,0.64-0.18,0.94-0.59,1.12
					c-0.43,0.17-1.12,0.21-2.27,0.21c-0.06-0.29-0.25-0.74-0.41-1.02c0.88,0.03,1.67,0.01,1.89,0.01c0.25-0.01,0.35-0.08,0.35-0.32
					v-7.17h-3.78v-1.01h3.78v-3.14h1.02v3.14h1.37V85.96z M76.36,90.78c-0.27-0.81-0.87-2.2-1.36-3.22l0.9-0.32
					c0.5,1.01,1.12,2.37,1.4,3.15L76.36,90.78z"/>
				<path class="st3" d="M88.7,83.62c-0.17,0.59-0.36,1.22-0.55,1.75h5.62v9.12h-1.05v-0.74h-8.95v0.74h-1.01v-9.12h4.33
					c0.15-0.53,0.29-1.18,0.41-1.75h-5.36v-0.99h12.31v0.99H88.7z M83.77,92.78h1.99v-6.44h-1.99V92.78z M89.67,86.34h-2.96v1.54
					h2.96V86.34z M89.67,88.73h-2.96v1.57h2.96V88.73z M86.71,92.78h2.96v-1.63h-2.96V92.78z M92.72,86.34h-2.1v6.44h2.1V86.34z"/>
				<path class="st3" d="M99.96,88.83l-1.42,0.46v3.91c0,0.56-0.11,0.83-0.45,1c-0.31,0.17-0.83,0.21-1.61,0.2
					c-0.04-0.25-0.17-0.69-0.31-0.97c0.55,0.01,1.04,0.01,1.19,0.01s0.22-0.06,0.22-0.24v-3.6c-0.53,0.17-1.04,0.34-1.51,0.49
					l-0.25-1.01c0.49-0.14,1.09-0.31,1.76-0.52v-3.1h-1.58V84.5h1.58v-2.8h0.95v2.8h1.26v0.97h-1.26v2.82
					c0.42-0.14,0.86-0.28,1.29-0.42L99.96,88.83z M107.34,92.88v-2.12h-1.76v-0.88h1.76v-1.91h-1.86v-0.91h2.84v7.4h-0.98V93.8h-5.6
					v0.71h-1v-7.07c0.8-0.21,1.71-0.55,2.23-0.84l0.77,0.67c-0.57,0.28-1.3,0.53-2,0.71v1.91h1.72v0.88h-1.72v2.1h2.31v-7.3h-3.64
					v-0.94h3.64v-1.48h-2.98v-0.94h6.88v0.94h-2.9v1.48h3.56v0.94h-3.56v7.3H107.34z"/>
				<path class="st3" d="M122.53,88.09v0.73h-12.5v-0.73h5.66v-0.73h-4.58V86.7h4.58v-0.71h-4.24v-0.64h4.24v-0.77h-5.63v-0.66h5.63
					V83.2h-4.16v-0.64h4.16v-0.87h1.04v0.87h4.25v1.36h1.51v0.66h-1.51v1.42h-4.25v0.71h4.79v0.66h-4.79v0.73H122.53z M110.04,93.34
					h12.5v0.74h-12.5V93.34z M121,89.43v3.25h-9.37v-3.25H121z M112.63,90.75h3.11v-0.71h-3.11V90.75z M112.63,92.08h3.11v-0.74
					h-3.11V92.08z M119.95,90.04h-3.25v0.71h3.25V90.04z M119.95,91.34h-3.25v0.74h3.25V91.34z M116.73,83.91h3.21V83.2h-3.21V83.91
					z M116.73,85.34h3.21v-0.77h-3.21V85.34z"/>
				<path class="st3" d="M59.87,107.29c0-3.32,1.95-5.34,4.55-5.34c1.25,0,2.23,0.62,2.82,1.28l-0.7,0.84
					c-0.53-0.57-1.22-0.98-2.1-0.98c-1.95,0-3.24,1.6-3.24,4.16c0,2.59,1.23,4.22,3.19,4.22c0.98,0,1.72-0.43,2.38-1.15l0.71,0.81
					c-0.81,0.94-1.82,1.47-3.15,1.47C61.79,112.59,59.87,110.62,59.87,107.29z"/>
				<path class="st3" d="M68.7,108.62c0-2.54,1.67-4.01,3.53-4.01s3.53,1.47,3.53,4.01c0,2.52-1.67,3.98-3.53,3.98
					S68.7,111.14,68.7,108.62z M74.44,108.62c0-1.75-0.9-2.94-2.21-2.94s-2.2,1.19-2.2,2.94s0.88,2.91,2.2,2.91
					S74.44,110.37,74.44,108.62z"/>
				<path class="st3" d="M76.6,104.81h1.33l1.43,4.33c0.24,0.74,0.48,1.53,0.71,2.24h0.06c0.22-0.71,0.48-1.5,0.7-2.24l1.44-4.33
					h1.26l-2.7,7.61h-1.48L76.6,104.81z"/>
				<path class="st3" d="M84.37,108.62c0-2.46,1.67-4.01,3.43-4.01c1.93,0,3.03,1.4,3.03,3.57c0,0.28-0.03,0.55-0.06,0.73h-5.13
					c0.08,1.63,1.08,2.66,2.52,2.66c0.74,0,1.34-0.22,1.91-0.6l0.46,0.84c-0.67,0.43-1.48,0.79-2.52,0.79
					C85.99,112.59,84.37,111.12,84.37,108.62z M89.7,108c0-1.54-0.7-2.37-1.89-2.37c-1.08,0-2.03,0.87-2.19,2.37H89.7z"/>
				<path class="st3" d="M92.7,104.81h1.05l0.11,1.39h0.04c0.53-0.97,1.3-1.58,2.16-1.58c0.34,0,0.57,0.04,0.81,0.17l-0.24,1.12
					c-0.25-0.1-0.43-0.13-0.74-0.13c-0.63,0-1.42,0.45-1.92,1.75v4.89H92.7V104.81z"/>
				<path class="st3" d="M101.38,102.14h2.93c2.31,0,3.85,0.77,3.85,3.01c0,2.17-1.54,3.18-3.78,3.18h-1.7v4.08h-1.3V102.14z
					 M104.21,107.29c1.81,0,2.66-0.66,2.66-2.13c0-1.48-0.91-1.96-2.72-1.96h-1.47v4.09H104.21z"/>
				<path class="st3" d="M108.96,110.44c0-1.65,1.44-2.48,4.68-2.84c0-0.98-0.32-1.92-1.57-1.92c-0.88,0-1.68,0.41-2.28,0.81
					l-0.5-0.88c0.7-0.45,1.78-0.99,3-0.99c1.85,0,2.63,1.25,2.63,3.12v4.68h-1.05l-0.11-0.91h-0.04c-0.73,0.6-1.58,1.09-2.52,1.09
					C109.92,112.59,108.96,111.81,108.96,110.44z M113.64,110.56v-2.13c-2.56,0.31-3.43,0.94-3.43,1.92c0,0.87,0.59,1.22,1.34,1.22
					C112.3,111.57,112.9,111.22,113.64,110.56z"/>
				<path class="st3" d="M116.75,113.87c0-0.64,0.42-1.26,1.13-1.72v-0.06c-0.41-0.24-0.7-0.64-0.7-1.25c0-0.63,0.46-1.13,0.85-1.42
					v-0.06c-0.5-0.41-0.99-1.13-0.99-2.05c0-1.67,1.32-2.72,2.86-2.72c0.42,0,0.8,0.1,1.06,0.2h2.65v0.98h-1.55
					c0.36,0.35,0.62,0.91,0.62,1.57c0,1.63-1.23,2.65-2.77,2.65c-0.38,0-0.8-0.1-1.13-0.27c-0.28,0.24-0.49,0.49-0.49,0.91
					c0,0.49,0.31,0.83,1.33,0.83h1.48c1.77,0,2.65,0.56,2.65,1.81c0,1.41-1.48,2.63-3.84,2.63
					C118.04,115.91,116.75,115.18,116.75,113.87z M122.51,113.48c0-0.7-0.55-0.94-1.55-0.94h-1.32c-0.28,0-0.64-0.04-0.98-0.13
					c-0.55,0.39-0.79,0.84-0.79,1.29c0,0.81,0.83,1.34,2.21,1.34C121.54,115.04,122.51,114.27,122.51,113.48z M121.51,107.33
					c0-1.11-0.71-1.78-1.61-1.78s-1.63,0.66-1.63,1.78c0,1.11,0.74,1.81,1.63,1.81C120.77,109.13,121.51,108.43,121.51,107.33z"/>
				<path class="st3" d="M124.43,108.62c0-2.46,1.67-4.01,3.43-4.01c1.93,0,3.03,1.4,3.03,3.57c0,0.28-0.03,0.55-0.06,0.73h-5.13
					c0.08,1.63,1.08,2.66,2.52,2.66c0.74,0,1.34-0.22,1.91-0.6l0.46,0.84c-0.67,0.43-1.48,0.79-2.52,0.79
					C126.06,112.59,124.43,111.12,124.43,108.62z M129.77,108c0-1.54-0.7-2.37-1.89-2.37c-1.08,0-2.03,0.87-2.19,2.37H129.77z"/>
				<path class="st3" d="M68.71,121.14h1.34l3.74,6.47l1.09,2.12h0.07c-0.07-1.04-0.17-2.19-0.17-3.25v-5.34h1.23v10.27h-1.33
					l-3.74-6.49l-1.11-2.12h-0.06c0.06,1.04,0.15,2.13,0.15,3.21v5.39h-1.23V121.14z"/>
				<path class="st3" d="M78.13,127.62c0-2.54,1.67-4.01,3.53-4.01s3.53,1.47,3.53,4.01c0,2.52-1.67,3.98-3.53,3.98
					S78.13,130.14,78.13,127.62z M83.87,127.62c0-1.75-0.9-2.94-2.21-2.94s-2.2,1.19-2.2,2.94s0.88,2.91,2.2,2.91
					S83.87,129.37,83.87,127.62z"/>
				<path class="st3" d="M87.19,123.81h1.05l0.11,1.39h0.04c0.53-0.97,1.3-1.58,2.16-1.58c0.34,0,0.58,0.04,0.81,0.17l-0.24,1.12
					c-0.25-0.1-0.43-0.13-0.74-0.13c-0.63,0-1.42,0.45-1.92,1.75v4.89h-1.27V123.81z"/>
				<path class="st3" d="M92.38,121.41c0-0.52,0.38-0.83,0.88-0.83c0.5,0,0.88,0.31,0.88,0.83c0,0.48-0.38,0.83-0.88,0.83
					C92.76,122.24,92.38,121.89,92.38,121.41z M92.62,123.81h1.27v7.61h-1.27V123.81z"/>
				<path class="st3" d="M96.69,129.06v-4.22h-1.13v-0.97l1.19-0.07l0.15-2.13h1.06v2.13h2.06v1.04h-2.06v4.24
					c0,0.94,0.29,1.47,1.18,1.47c0.27,0,0.62-0.1,0.87-0.2l0.25,0.95c-0.43,0.14-0.94,0.28-1.4,0.28
					C97.24,131.59,96.69,130.58,96.69,129.06z"/>
				<path class="st3" d="M100.94,129.44c0-1.65,1.44-2.48,4.68-2.84c0-0.98-0.32-1.92-1.57-1.92c-0.88,0-1.68,0.41-2.28,0.81
					l-0.5-0.88c0.7-0.45,1.78-0.99,3-0.99c1.85,0,2.63,1.25,2.63,3.12v4.68h-1.05l-0.11-0.91h-0.04c-0.73,0.6-1.58,1.09-2.52,1.09
					C101.89,131.59,100.94,130.81,100.94,129.44z M105.61,129.56v-2.13c-2.56,0.31-3.43,0.94-3.43,1.92c0,0.87,0.59,1.22,1.34,1.22
					C104.27,130.57,104.87,130.22,105.61,129.56z"/>
				<path class="st3" d="M109.31,120.26h1.26v7.56h0.03l3.26-4.02h1.42l-2.55,3.05l2.89,4.55h-1.39l-2.23-3.67l-1.43,1.67v2h-1.26
					V120.26z"/>
				<path class="st3" d="M116.18,127.62c0-2.46,1.67-4.01,3.43-4.01c1.93,0,3.03,1.4,3.03,3.57c0,0.28-0.03,0.55-0.06,0.73h-5.13
					c0.08,1.63,1.08,2.66,2.52,2.66c0.74,0,1.34-0.22,1.91-0.6l0.46,0.84c-0.67,0.43-1.48,0.79-2.52,0.79
					C117.81,131.59,116.18,130.12,116.18,127.62z M121.52,127c0-1.54-0.7-2.37-1.89-2.37c-1.08,0-2.03,0.87-2.19,2.37H121.52z"/>
				<path class="st3" d="M46.27,138.08v0.57H32.27v-0.57H46.27z"/>
				<path class="st3" d="M60.27,138.08v0.57H46.27v-0.57H60.27z"/>
				<path class="st3" d="M74.27,138.08v0.57H60.27v-0.57H74.27z"/>
				<path class="st3" d="M88.27,138.08v0.57H74.27v-0.57H88.27z"/>
				<path class="st3" d="M102.27,138.08v0.57H88.27v-0.57H102.27z"/>
				<path class="st3" d="M116.27,138.08v0.57h-14.01v-0.57H116.27z"/>
				<path class="st3" d="M130.27,138.08v0.57h-14.01v-0.57H130.27z"/>
				<path class="st3" d="M144.27,138.08v0.57h-14.01v-0.57H144.27z"/>
				<path class="st3" d="M158.27,138.08v0.57h-14.01v-0.57H158.27z"/>
			</g>
		</g>
		<g>
			<g>
				<g>
					<path class="st3" d="M63.55,34.7l1.66-2.23c1.06,1.03,2.35,1.82,3.96,1.82c1.8,0,3.02-0.89,3.02-2.47
						c0-1.75-1.03-2.83-4.9-2.83v-2.54c3.26,0,4.32-1.13,4.32-2.71c0-1.39-0.86-2.21-2.38-2.23c-1.27,0.02-2.3,0.62-3.36,1.58
						l-1.8-2.16c1.54-1.34,3.24-2.18,5.33-2.18c3.43,0,5.76,1.68,5.76,4.73c0,1.92-1.08,3.31-2.98,4.06v0.12
						c2.02,0.55,3.55,2.04,3.55,4.37c0,3.26-2.86,5.16-6.24,5.16C66.7,37.17,64.8,36.12,63.55,34.7z"/>
					<path class="st3" d="M97.2,35.28c0,1.73-0.41,2.54-1.51,3.02c-1.15,0.5-2.83,0.55-5.3,0.55c-0.17-0.84-0.74-2.21-1.2-3
						c1.68,0.1,3.7,0.07,4.22,0.07c0.58,0,0.77-0.19,0.77-0.7v-3.48H83.91c-0.62,2.69-1.82,5.3-4.06,7.18
						c-0.43-0.6-1.58-1.66-2.21-2.06c3.62-3.1,3.96-7.68,3.96-11.33v-7.9h15.6V35.28z M94.18,28.99v-2.93h-9.63
						c-0.02,0.91-0.07,1.92-0.17,2.93H94.18z M84.55,20.42v2.93h9.63v-2.93H84.55z"/>
					<path class="st3" d="M109.97,29.64c0,0-0.02,0.65-0.05,0.98c-0.29,4.51-0.6,6.41-1.22,7.1c-0.43,0.55-0.91,0.74-1.61,0.84
						c-0.58,0.07-1.51,0.07-2.54,0.02c-0.05-0.72-0.31-1.68-0.67-2.33c0.86,0.1,1.66,0.1,2.06,0.1c0.31,0.02,0.53-0.02,0.74-0.24
						c0.31-0.36,0.55-1.51,0.74-4.27h-2.21v0.02h-2.45c0.31-1.08,0.63-2.5,0.89-3.84h-1.8v-2.47h8.93v2.47h-4.73
						c-0.12,0.55-0.22,1.08-0.34,1.61H109.97z M110.28,24.24h-7.32V17.4h7.32V24.24z M108.15,19.39h-3.17v2.83h3.17V19.39z
						 M121.16,27.45c0.48,0,1.32-0.05,1.68-0.17c0.05,0.7,0.1,1.39,0.19,2.02c-0.38,0.14-1.13,0.19-1.75,0.19h-2.52
						c-1.99,0-2.42-0.94-2.45-2.81l-1.68,0.14l-0.24-1.87l1.92-0.17v-1.42h-2.28v3.94c0,3.43-0.36,8.42-2.33,11.62
						c-0.46-0.43-1.54-1.22-2.11-1.49c1.78-2.93,1.94-7.11,1.94-10.15v-6.17h4.66v-4.61h2.71v1.3h4.58v2.26h-4.58v1.06h3.48
						l0.38-0.07l1.75,0.38c-0.26,1.58-0.6,3.43-0.94,4.61l-2.06-0.53c0.1-0.55,0.22-1.34,0.31-2.14h-3.14v1.2l2.26-0.22l0.22,1.87
						l-2.47,0.22v0.14c0,0.6,0.05,0.86,0.55,0.86H121.16z M117.56,30.28c-0.14,3.94-0.67,6.91-3.36,8.71
						c-0.29-0.6-0.96-1.49-1.51-1.87c2.11-1.42,2.42-3.7,2.52-6.84H117.56z M121.97,36.02c0.17,0,0.31-0.02,0.38-0.1
						c0.1-0.1,0.17-0.26,0.22-0.48c0.02-0.36,0.07-1.2,0.07-2.21c0.43,0.41,1.3,0.89,1.92,1.08c-0.05,1.13-0.17,2.3-0.29,2.78
						c-0.19,0.5-0.43,0.82-0.79,1.08c-0.34,0.22-0.86,0.34-1.32,0.34h-1.27c-0.62,0-1.22-0.17-1.61-0.55
						c-0.38-0.43-0.48-0.82-0.48-2.18v-5.52h2.33v5.28c0,0.14,0.05,0.29,0.1,0.34c0.07,0.1,0.22,0.14,0.36,0.14H121.97z"/>
				</g>
				<g>
					<path class="st3" d="M51.7,48.65c-0.5,0.8-1.07,1.5-1.63,2.05c-0.21-0.24-0.72-0.75-1.01-0.98c0.94-0.85,1.84-2.14,2.34-3.44
						l1.33,0.38c-0.1,0.27-0.22,0.54-0.37,0.82h3.83v1.17h-2.69c0.5,0.4,0.99,0.93,1.28,1.26l-0.96,0.85
						c-0.32-0.43-1.01-1.12-1.54-1.62l0.59-0.5H51.7z M62.79,55.82c0,0-0.02,0.37-0.05,0.58c-0.19,2.16-0.38,3.14-0.8,3.55
						c-0.3,0.32-0.62,0.43-1.1,0.46c-0.4,0.03-1.18,0.05-2,0c-0.02-0.42-0.19-0.98-0.42-1.36c0.72,0.08,1.46,0.1,1.73,0.08
						c0.27,0,0.43-0.02,0.56-0.13c0.19-0.21,0.34-0.74,0.48-1.92h-4.26v4h-1.47V57.7c-1.38,1.46-3.31,2.69-5.12,3.38
						c-0.22-0.34-0.63-0.9-0.96-1.17c1.78-0.54,3.65-1.62,4.93-2.82h-3.86c0.22-1.01,0.45-2.53,0.58-3.75h4.43v-1.25h-4.99v-1.23
						h11.68v3.71h-5.22v1.25H62.79z M52.29,54.58c-0.05,0.43-0.11,0.85-0.18,1.25h3.35v-1.25H52.29z M63.57,47.48v1.17h-3.15
						c0.51,0.38,1.09,0.88,1.39,1.23l-1.01,0.86c-0.34-0.42-1.04-1.07-1.63-1.54l0.7-0.56h-1.6c-0.37,0.58-0.8,1.09-1.22,1.49
						c-0.24-0.24-0.79-0.67-1.12-0.88c0.86-0.72,1.6-1.83,2-2.96l1.36,0.32c-0.11,0.3-0.22,0.58-0.35,0.86H63.57z M56.93,53.34h3.76
						v-1.25h-3.76V53.34z"/>
					<path class="st3" d="M65.7,58.32h2.58v-8.2h-2.11v-1.17c1.1-0.21,1.89-0.48,2.56-0.9h1.39v10.26h2.3v1.52H65.7V58.32z"/>
					<path class="st3" d="M74.14,58.77c3.47-3.07,5.27-5.36,5.27-7.3c0-1.28-0.69-2.16-2-2.16c-0.93,0-1.7,0.59-2.32,1.31
						l-1.04-1.02c1.01-1.09,2.05-1.76,3.58-1.76c2.16,0,3.55,1.41,3.55,3.54c0,2.27-1.81,4.63-4.31,7.01
						c0.61-0.06,1.34-0.11,1.92-0.11h2.95v1.57h-7.6V58.77z"/>
					<path class="st3" d="M83.31,53.9c0-4.08,1.49-6.07,3.81-6.07c2.3,0,3.81,2,3.81,6.07c0,4.1-1.5,6.15-3.81,6.15
						C84.8,60.05,83.31,58,83.31,53.9z M89.17,53.9c0-3.38-0.85-4.61-2.05-4.61s-2.05,1.23-2.05,4.61c0,3.41,0.85,4.69,2.05,4.69
						S89.17,57.31,89.17,53.9z"/>
					<path class="st3" d="M95.84,57.91c-0.58,1.2-1.5,2.43-2.37,3.22c-0.26-0.26-0.83-0.67-1.18-0.88c0.86-0.69,1.68-1.71,2.15-2.72
						L95.84,57.91z M100.13,57.26h-7.79v-1.3h1.49v-6.24h-1.3v-1.3h1.3v-1.84h1.34v1.84h2.5v-1.84h1.38v1.84h1.15v1.3h-1.15v6.24
						h1.09V57.26z M95.17,49.73v1.2h2.5v-1.2H95.17z M95.17,53.42h2.5v-1.33h-2.5V53.42z M95.17,55.97h2.5v-1.38h-2.5V55.97z
						 M97.87,57.47c0.63,0.72,1.39,1.7,1.73,2.34l-1.2,0.72c-0.32-0.64-1.06-1.68-1.66-2.43L97.87,57.47z M106.52,59.35
						c0,0.78-0.18,1.22-0.67,1.44c-0.48,0.26-1.25,0.29-2.43,0.27c-0.05-0.38-0.24-1.04-0.43-1.41c0.75,0.03,1.55,0.02,1.76,0.02
						c0.24-0.02,0.34-0.08,0.34-0.34v-3.55h-2.95c-0.18,1.9-0.56,3.94-1.47,5.39c-0.24-0.27-0.86-0.7-1.18-0.85
						c1.26-2.1,1.38-5.09,1.38-7.38v-5.76h5.67V59.35z M105.08,54.43v-2.34h-2.82v0.85c0,0.46,0,0.98-0.03,1.49H105.08z
						 M102.26,48.53v2.26h2.82v-2.26H102.26z"/>
					<path class="st3" d="M122.04,54.34v6.75h-1.65v-0.88h-11.11v-5.87h1.67v4.39h3.87v-5.31h-4.77v-5.6h1.57v4.16h3.2v-5.54h1.65
						v5.54h3.3V47.8h1.65v5.6h-4.95v5.31h3.92v-4.39H122.04z"/>
					<path class="st3" d="M129.07,52.59h3.28v1.49h-3.28v7.01h-1.52v-7.01h-3.2v-1.49h3.2V48.8h-2.79v-1.44h7.14v1.44h-2.83V52.59z
						 M134.83,57.17h-1.49v-8.88h1.49V57.17z M138.32,46.7v12.45c0,0.98-0.24,1.42-0.83,1.67c-0.61,0.26-1.62,0.3-3.14,0.29
						c-0.06-0.42-0.34-1.14-0.58-1.57c1.15,0.05,2.24,0.03,2.56,0.03c0.34-0.02,0.46-0.11,0.46-0.42V46.7H138.32z"/>
				</g>
				<g>
					<path class="st3" d="M8.43,61.27c0-5.51,0.68-9.52,0.68-14.62c0-2.99-1.36-5.92-6.53-5.98v-3.88c5.17-0.07,6.53-2.99,6.53-5.92
						c0-5.17-0.68-9.18-0.68-14.69c0-7.89,2.86-10.13,8.91-10.13h3.33v3.47H18.7c-4.08,0-5.17,2.11-5.17,7
						c0,4.62,0.41,8.57,0.41,13.8c0,4.9-1.22,7.34-4.55,8.23v0.27c3.33,0.95,4.55,3.47,4.55,8.29c0,5.17-0.41,9.18-0.41,13.8
						c0,4.9,1.09,6.94,5.17,6.94h1.97v3.54h-3.33C11.29,71.4,8.43,69.16,8.43,61.27z"/>
				</g>
				<g>
					<path class="st3" d="M170.66,71.4h-3.33v-3.54h1.97c4.08,0,5.17-2.04,5.17-6.94c0-4.62-0.41-8.63-0.41-13.8
						c0-4.83,1.22-7.34,4.56-8.29v-0.27c-3.33-0.88-4.56-3.33-4.56-8.23c0-5.24,0.41-9.18,0.41-13.8c0-4.9-1.09-7-5.17-7h-1.97V6.06
						h3.33c6.05,0,8.91,2.24,8.91,10.13c0,5.51-0.68,9.52-0.68,14.69c0,2.92,1.36,5.85,6.53,5.92v3.88
						c-5.17,0.07-6.53,2.99-6.53,5.98c0,5.1,0.68,9.11,0.68,14.62C179.56,69.16,176.71,71.4,170.66,71.4z"/>
				</g>
			</g>
		</g>
	</g>
</g>
</svg>
