<?xml version="1.0" encoding="utf-8"?>
<!-- Generator: Adobe Illustrator 24.1.1, SVG Export Plug-In . SVG Version: 6.00 Build 0)  -->
<svg version="1.1" xmlns="http://www.w3.org/2000/svg" xmlns:xlink="http://www.w3.org/1999/xlink" x="0px" y="0px"
	 viewBox="0 0 187.99 141.73" style="enable-background:new 0 0 187.99 141.73;" xml:space="preserve">
<style type="text/css">
	.st0{fill:#323232;}
	.st1{display:none;}
	.st2{display:inline;fill:none;stroke:#323232;stroke-miterlimit:10;}
	.st3{fill:#EFECEA;}
</style>
<g id="圖層_1">
</g>
<g id="圖層_2" class="st1">
</g>
<g id="圖層_3">
</g>
<g id="圖層_4">
	<g>
		<g>
			<g>
				<path class="st3" d="M74.47,91.84l0.06,0.97c-2.34,0.39-4.82,0.8-6.54,1.11l-0.15-1.05c0.78-0.11,1.78-0.25,2.86-0.42v-2.23
					h-2.41v-0.94h2.41v-1.64h1.01v1.64h2.4v0.94h-2.4v2.07L74.47,91.84z M74.26,87.32h-6.3v-0.95h2.73v-1.92h-2.3v-0.95h2.3v-1.81
					h1.01v1.81h2.27v0.95h-2.27v1.92h2.56V87.32z M80.64,85.96h-1.37v7.17c0,0.64-0.18,0.94-0.59,1.12
					c-0.43,0.17-1.12,0.21-2.27,0.21c-0.06-0.29-0.25-0.74-0.41-1.02c0.88,0.03,1.67,0.01,1.89,0.01c0.25-0.01,0.35-0.08,0.35-0.32
					v-7.17h-3.78v-1.01h3.78v-3.14h1.02v3.14h1.37V85.96z M76.36,90.78c-0.27-0.81-0.87-2.2-1.36-3.22l0.9-0.32
					c0.5,1.01,1.12,2.37,1.4,3.15L76.36,90.78z"/>
				<path class="st3" d="M88.7,83.62c-0.17,0.59-0.36,1.22-0.55,1.75h5.62v9.12h-1.05v-0.74h-8.95v0.74h-1.01v-9.12h4.33
					c0.15-0.53,0.29-1.18,0.41-1.75h-5.36v-0.99h12.31v0.99H88.7z M83.77,92.78h1.99v-6.44h-1.99V92.78z M89.67,86.34h-2.96v1.54
					h2.96V86.34z M89.67,88.73h-2.96v1.57h2.96V88.73z M86.71,92.78h2.96v-1.63h-2.96V92.78z M92.72,86.34h-2.1v6.44h2.1V86.34z"/>
				<path class="st3" d="M102.83,81.74c-0.01,0.5-0.03,1.2-0.1,2.03c0.21,1.67,1.05,7.52,6,9.72c-0.29,0.24-0.6,0.59-0.76,0.88
					c-3.5-1.64-5-5.1-5.67-7.7c-0.64,2.8-2.13,5.94-5.55,7.76c-0.18-0.28-0.52-0.59-0.84-0.81c5.81-2.94,5.73-9.75,5.77-11.88
					H102.83z"/>
				<path class="st3" d="M113.37,89.39v5.1h-0.97V89.7c-0.83,0.25-1.63,0.5-2.31,0.71l-0.28-1c0.71-0.2,1.61-0.43,2.59-0.74v-3.12
					h-1.27c-0.17,0.79-0.36,1.5-0.62,2.07c-0.18-0.13-0.57-0.38-0.8-0.46c0.53-1.19,0.8-2.96,0.97-4.66l0.91,0.15
					c-0.07,0.63-0.17,1.28-0.27,1.89h1.08V81.7h0.97v2.84h1.44v1.01h-1.44v2.86l1.63-0.5l0.14,0.92L113.37,89.39z M122.53,84.04
					c0,0,0,0.39-0.01,0.52c-0.31,6.35-0.62,8.52-1.18,9.22c-0.27,0.36-0.55,0.49-0.97,0.53c-0.38,0.06-0.98,0.04-1.6,0
					c-0.01-0.31-0.11-0.74-0.29-1.02c0.63,0.06,1.19,0.07,1.47,0.07c0.22,0,0.36-0.06,0.52-0.24c0.45-0.49,0.76-2.56,1.04-8.11
					h-0.67c-0.7,3.67-2.24,7.4-4.57,9.25c-0.2-0.22-0.56-0.48-0.87-0.63c2.3-1.65,3.81-5.1,4.54-8.61h-1.15
					c-0.63,2.4-1.92,5.01-3.45,6.35c-0.2-0.21-0.53-0.45-0.83-0.6c1.49-1.16,2.73-3.5,3.38-5.74h-1.21
					c-0.46,1.02-0.99,1.95-1.6,2.66c-0.17-0.17-0.59-0.46-0.8-0.6c1.15-1.25,1.99-3.26,2.45-5.38l0.95,0.2
					c-0.17,0.74-0.38,1.47-0.63,2.16h4.48v-0.01L122.53,84.04z"/>
				<path class="st3" d="M34.36,103.24h-3.11v-1.09h7.52v1.09h-3.11v9.17h-1.3V103.24z"/>
				<path class="st3" d="M40.25,102.41c0-0.52,0.38-0.83,0.88-0.83s0.88,0.31,0.88,0.83c0,0.48-0.38,0.83-0.88,0.83
					S40.25,102.89,40.25,102.41z M40.49,104.81h1.27v7.61h-1.27V104.81z"/>
				<path class="st3" d="M44.34,104.81h1.05l0.11,1.11h0.04c0.66-0.73,1.46-1.3,2.37-1.3c1.16,0,1.79,0.56,2.1,1.46
					c0.78-0.85,1.58-1.46,2.51-1.46c1.57,0,2.31,1.04,2.31,2.98v4.82h-1.28v-4.65c0-1.43-0.45-2.03-1.41-2.03
					c-0.59,0-1.21,0.38-1.92,1.16v5.52h-1.27v-4.65c0-1.43-0.45-2.03-1.42-2.03c-0.57,0-1.22,0.38-1.92,1.16v5.52h-1.28V104.81z"/>
				<path class="st3" d="M56.73,108.62c0-2.54,1.67-4.01,3.53-4.01s3.53,1.47,3.53,4.01c0,2.52-1.67,3.98-3.53,3.98
					S56.73,111.14,56.73,108.62z M62.47,108.62c0-1.75-0.9-2.94-2.21-2.94s-2.2,1.19-2.2,2.94s0.88,2.91,2.2,2.91
					S62.47,110.37,62.47,108.62z"/>
				<path class="st3" d="M65.75,110.06v-4.22h-1.13v-0.97l1.19-0.07l0.15-2.13h1.06v2.13h2.06v1.04h-2.06v4.24
					c0,0.94,0.29,1.47,1.18,1.47c0.27,0,0.62-0.1,0.87-0.2l0.25,0.95c-0.43,0.14-0.94,0.28-1.4,0.28
					C66.29,112.59,65.75,111.58,65.75,110.06z"/>
				<path class="st3" d="M70.8,101.26h1.27v3.05l-0.04,1.57c0.7-0.7,1.49-1.27,2.52-1.27c1.6,0,2.33,1.04,2.33,2.98v4.82h-1.27
					v-4.65c0-1.43-0.43-2.03-1.44-2.03c-0.79,0-1.32,0.39-2.09,1.16v5.52H70.8V101.26z"/>
				<path class="st3" d="M78.73,108.62c0-2.46,1.67-4.01,3.43-4.01c1.93,0,3.03,1.4,3.03,3.57c0,0.28-0.03,0.55-0.06,0.73H80
					c0.08,1.63,1.08,2.66,2.52,2.66c0.74,0,1.34-0.22,1.91-0.6l0.46,0.84c-0.67,0.43-1.48,0.79-2.52,0.79
					C80.35,112.59,78.73,111.12,78.73,108.62z M84.06,108c0-1.54-0.7-2.37-1.89-2.37c-1.08,0-2.03,0.87-2.19,2.37H84.06z
					 M81.28,102.8l2.21-2.61l0.88,0.85l-2.44,2.38L81.28,102.8z"/>
				<path class="st3" d="M86.48,108.62c0-2.46,1.67-4.01,3.43-4.01c1.93,0,3.03,1.4,3.03,3.57c0,0.28-0.03,0.55-0.06,0.73h-5.13
					c0.08,1.63,1.08,2.66,2.52,2.66c0.74,0,1.34-0.22,1.91-0.6l0.46,0.84c-0.67,0.43-1.48,0.79-2.52,0.79
					C88.11,112.59,86.48,111.12,86.48,108.62z M91.82,108c0-1.54-0.7-2.37-1.89-2.37c-1.08,0-2.03,0.87-2.19,2.37H91.82z"/>
				<path class="st3" d="M97.47,107.29c0-3.32,1.95-5.34,4.55-5.34c1.25,0,2.23,0.62,2.82,1.28l-0.7,0.84
					c-0.53-0.57-1.22-0.98-2.1-0.98c-1.95,0-3.24,1.6-3.24,4.16c0,2.59,1.23,4.22,3.19,4.22c0.98,0,1.72-0.43,2.38-1.15l0.71,0.81
					c-0.81,0.94-1.82,1.47-3.15,1.47C99.39,112.59,97.47,110.62,97.47,107.29z"/>
				<path class="st3" d="M106.88,101.26h1.28v3.05l-0.04,1.57c0.7-0.7,1.48-1.27,2.52-1.27c1.6,0,2.33,1.04,2.33,2.98v4.82h-1.28
					v-4.65c0-1.43-0.43-2.03-1.44-2.03c-0.78,0-1.32,0.39-2.09,1.16v5.52h-1.28V101.26z"/>
				<path class="st3" d="M114.9,110.44c0-1.65,1.44-2.48,4.68-2.84c0-0.98-0.32-1.92-1.57-1.92c-0.88,0-1.68,0.41-2.28,0.81
					l-0.5-0.88c0.7-0.45,1.78-0.99,3-0.99c1.85,0,2.63,1.25,2.63,3.12v4.68h-1.05l-0.11-0.91h-0.04c-0.73,0.6-1.58,1.09-2.52,1.09
					C115.85,112.59,114.9,111.81,114.9,110.44z M119.58,110.56v-2.13c-2.56,0.31-3.43,0.94-3.43,1.92c0,0.87,0.59,1.22,1.34,1.22
					C118.23,111.57,118.84,111.22,119.58,110.56z"/>
				<path class="st3" d="M123.27,110.9v-9.64h1.27v9.72c0,0.39,0.17,0.55,0.36,0.55c0.07,0,0.13,0,0.27-0.03l0.18,0.98
					c-0.18,0.07-0.41,0.11-0.74,0.11C123.66,112.59,123.27,111.98,123.27,110.9z"/>
				<path class="st3" d="M126.79,110.44c0-1.65,1.44-2.48,4.68-2.84c0-0.98-0.32-1.92-1.57-1.92c-0.88,0-1.68,0.41-2.28,0.81
					l-0.5-0.88c0.7-0.45,1.78-0.99,3-0.99c1.85,0,2.63,1.25,2.63,3.12v4.68h-1.05l-0.11-0.91h-0.04c-0.73,0.6-1.58,1.09-2.52,1.09
					C127.74,112.59,126.79,111.81,126.79,110.44z M131.46,110.56v-2.13c-2.56,0.31-3.43,0.94-3.43,1.92c0,0.87,0.59,1.22,1.34,1.22
					C130.12,111.57,130.72,111.22,131.46,110.56z"/>
				<path class="st3" d="M135.16,104.81h1.05l0.11,1.11h0.04c0.66-0.73,1.46-1.3,2.37-1.3c1.16,0,1.79,0.56,2.1,1.46
					c0.78-0.85,1.58-1.46,2.51-1.46c1.57,0,2.31,1.04,2.31,2.98v4.82h-1.27v-4.65c0-1.43-0.45-2.03-1.42-2.03
					c-0.59,0-1.2,0.38-1.92,1.16v5.52h-1.27v-4.65c0-1.43-0.45-2.03-1.42-2.03c-0.57,0-1.22,0.38-1.92,1.16v5.52h-1.27V104.81z"/>
				<path class="st3" d="M147.55,108.62c0-2.46,1.67-4.01,3.43-4.01c1.93,0,3.03,1.4,3.03,3.57c0,0.28-0.03,0.55-0.06,0.73h-5.13
					c0.08,1.63,1.08,2.66,2.52,2.66c0.74,0,1.34-0.22,1.91-0.6l0.46,0.84c-0.67,0.43-1.49,0.79-2.52,0.79
					C149.17,112.59,147.55,111.12,147.55,108.62z M152.89,108c0-1.54-0.7-2.37-1.89-2.37c-1.08,0-2.03,0.87-2.18,2.37H152.89z"/>
				<path class="st3" d="M155.95,110.06v-4.22h-1.13v-0.97l1.19-0.07l0.15-2.13h1.06v2.13h2.06v1.04h-2.06v4.24
					c0,0.94,0.29,1.47,1.18,1.47c0.27,0,0.62-0.1,0.87-0.2l0.25,0.95c-0.43,0.14-0.94,0.28-1.4,0.28
					C156.5,112.59,155.95,111.58,155.95,110.06z"/>
				<path class="st3" d="M54.61,126.75c-0.5,0.18-1.02,0.34-1.54,0.52v3.92c0,0.57-0.13,0.84-0.48,1.01
					c-0.32,0.17-0.85,0.21-1.74,0.2c-0.04-0.25-0.17-0.67-0.31-0.97c0.6,0.01,1.15,0.01,1.3,0.01c0.18,0,0.25-0.06,0.25-0.27v-3.6
					c-0.57,0.2-1.12,0.36-1.63,0.52l-0.25-1.01c0.52-0.13,1.16-0.32,1.88-0.55v-3.07h-1.72v-0.97h1.72v-2.79h0.97v2.79h1.54v0.97
					h-1.54v2.76l1.42-0.43L54.61,126.75z M59.28,131.27c0.41,0.06,0.85,0.08,1.32,0.08c0.34,0,2.24,0,2.7-0.01
					c-0.14,0.22-0.27,0.66-0.31,0.92h-2.44c-2.02,0-3.49-0.38-4.4-2.34c-0.39,1.05-0.94,1.91-1.68,2.56
					c-0.15-0.17-0.55-0.49-0.77-0.63c1.25-0.98,1.86-2.55,2.09-4.62l0.97,0.11c-0.07,0.52-0.15,1.04-0.28,1.5
					c0.41,1.18,1.02,1.82,1.82,2.16v-4.43h-3.42v-0.88h7.98v0.88h-3.59v1.64h2.9v0.85h-2.9V131.27z M62.09,124.7h-6.57v-4.54h6.57
					V124.7z M61.1,120.95h-4.62v1.11h4.62V120.95z M61.1,122.78h-4.62v1.12h4.62V122.78z"/>
				<path class="st3" d="M66.38,121.69v3.46c0,2.14-0.17,5.28-1.34,7.38c-0.18-0.2-0.59-0.52-0.8-0.64
					c1.08-1.95,1.18-4.72,1.18-6.74v-4.34h5.29c-0.11-0.32-0.25-0.66-0.38-0.95l1.01-0.24c0.18,0.36,0.39,0.83,0.52,1.19h5.17v0.88
					H66.38z M77.07,130.39h-4.74v1.05c0,0.57-0.15,0.81-0.6,0.94c-0.46,0.13-1.22,0.13-2.42,0.13c-0.07-0.25-0.2-0.57-0.32-0.81
					c0.9,0.03,1.78,0.03,2.02,0.01c0.22-0.01,0.31-0.08,0.31-0.28v-1.04h-4.78v-0.74h4.78v-0.91h-4.03v-0.73h4.03v-0.85
					c-1.22,0.08-2.46,0.14-3.61,0.17c-0.01-0.2-0.11-0.49-0.2-0.66c2.63-0.07,5.88-0.29,7.58-0.64l0.67,0.6
					c-0.94,0.2-2.13,0.35-3.42,0.45v0.94h4.09v0.73h-4.09v0.91h4.74V130.39z M68.01,124.38c0,0.69-0.11,1.43-0.84,1.95
					c-0.13-0.15-0.39-0.38-0.56-0.46c0.64-0.38,0.74-1.02,0.74-1.5v-0.56l0.66,0.01V124.38z M68.78,126.26v-2.84H67v-0.8h1.78v-0.74
					h0.83v0.74h1.72v0.8h-1.72v2.84H68.78z M70.81,125.85c-0.52,0-0.62-0.25-0.62-0.81v-1.19h0.64v1.2c0,0.22,0.01,0.29,0.14,0.29
					h0.13c0.08,0,0.29-0.01,0.42-0.04l0.04,0.5c-0.11,0.03-0.31,0.04-0.45,0.04H70.81z M72.81,124.35c0,0.64-0.1,1.34-0.63,1.86
					c-0.13-0.15-0.39-0.36-0.56-0.45c0.46-0.35,0.55-0.98,0.55-1.44v-0.53h0.64V124.35z M73.53,125.92v-2.51h-1.82v-0.8h1.82v-0.74
					h0.83v0.74h2.17v0.8h-2.17v2.51H73.53z M75.66,125.93c-0.57,0-0.69-0.24-0.69-0.83v-1.32h0.67v1.32c0,0.25,0.01,0.31,0.18,0.31
					h0.43c0.13,0,0.38,0,0.5-0.04c0.01,0.17,0.01,0.36,0.04,0.52c-0.11,0.04-0.34,0.04-0.53,0.04H75.66z"/>
				<path class="st3" d="M86.72,121.62v2h3.53v8.75h-1.04v-0.81h-8.8v0.87h-1.02v-8.81h3.38v-2h-4.12v-1.01h12.21v1.01H86.72z
					 M89.21,130.6v-2.39h-0.18h-1.89c-1.15,0-1.42-0.29-1.42-1.42v-2.2H83.7c-0.07,1.47-0.59,3.1-2.69,4.13
					c-0.11-0.21-0.41-0.57-0.6-0.73v2.61H89.21z M80.41,124.59v3.39c1.86-0.92,2.27-2.18,2.34-3.39H80.41z M85.72,121.62h-2v2h2
					V121.62z M86.72,124.59v2.2c0,0.36,0.06,0.42,0.53,0.42h1.68c0.14,0,0.22,0,0.28-0.01v-2.61H86.72z"/>
				<path class="st3" d="M94.16,125.96c0-0.63,0.5-1.09,1.11-1.09s1.11,0.46,1.11,1.09c0,0.64-0.5,1.11-1.11,1.11
					S94.16,126.61,94.16,125.96z"/>
				<path class="st3" d="M110.35,128.27c-0.73,1.04-1.82,1.85-3.11,2.48c1.44,0.36,3.08,0.59,4.85,0.7
					c-0.2,0.22-0.41,0.59-0.52,0.85c-2.06-0.15-3.96-0.48-5.59-1.04c-1.75,0.63-3.74,0.99-5.66,1.2c-0.07-0.25-0.22-0.62-0.38-0.84
					c1.61-0.13,3.31-0.41,4.8-0.84c-0.8-0.38-1.54-0.81-2.17-1.32c-0.59,0.39-1.22,0.77-1.95,1.09c-0.14-0.21-0.45-0.55-0.66-0.7
					c0.71-0.29,1.36-0.64,1.9-1.01c-0.27-0.29-0.53-0.6-0.77-0.94l0.78-0.34c0.2,0.28,0.42,0.55,0.67,0.77
					c0.48-0.39,0.87-0.81,1.19-1.2h-2.54V122h3.68c0.07-0.27,0.14-0.53,0.2-0.8h-5.24v-0.87h11.81v0.87h-5.44
					c-0.1,0.29-0.2,0.55-0.29,0.8h4.38v5.16h-5.41c-0.18,0.27-0.36,0.5-0.59,0.76h5.22l0.18-0.06L110.35,128.27z M102.23,123.48
					h7.06v-0.81h-7.06V123.48z M102.23,124.98h7.06v-0.83h-7.06V124.98z M102.23,126.5h7.06v-0.84h-7.06V126.5z M103.57,128.68
					c-0.11,0.1-0.22,0.2-0.32,0.29c0.74,0.56,1.68,1.02,2.75,1.4c1.12-0.45,2.1-0.99,2.82-1.7H103.57z"/>
				<path class="st3" d="M117.4,130v2.49h-0.97V130h-3.04v-0.91h3.04v-1.12h-2.49v-3.19h2.49v-0.9h-1.47v-1.99h-1.46v-0.83h1.46
					v-1.34h0.9v1.34h2.12v-1.34h0.92v1.34h1.34v0.83h-1.34v1.99h-1.5v0.9h2.51v3.19h-2.51v1.12h2.89V130H117.4z M114.83,127.14h1.64
					v-1.54h-1.64V127.14z M115.86,123.04h2.12v-1.15h-2.12V123.04z M119,125.6h-1.64v1.54H119V125.6z M125.75,123.41
					c-0.14,5.9-0.28,7.86-0.71,8.46c-0.27,0.35-0.53,0.46-0.95,0.52c-0.41,0.04-1.08,0.03-1.77-0.01c-0.01-0.29-0.13-0.7-0.29-0.98
					c0.71,0.07,1.37,0.07,1.64,0.07c0.24,0,0.36-0.04,0.48-0.21c0.35-0.42,0.49-2.27,0.62-7.38h-1.93c-0.18,3.67-0.8,6.75-3.14,8.62
					c-0.15-0.24-0.5-0.59-0.76-0.74c2.19-1.67,2.76-4.5,2.91-7.87h-1.98v-0.98h2.02c0.03-1.01,0.03-2.06,0.03-3.14h0.98
					c0,1.06,0,2.13-0.03,3.14h2.89V123.41z"/>
				<path class="st3" d="M130.13,124.16c0.34,0.52,1.32,2.14,1.53,2.55l-0.57,0.84c-0.18-0.46-0.6-1.3-0.95-1.99v6.92h-0.95v-6.05
					c-0.38,1.34-0.87,2.62-1.37,3.45c-0.13-0.28-0.36-0.66-0.53-0.88c0.77-1.22,1.5-3.47,1.85-5.38h-1.58v-0.95h1.64v-2.97h0.95
					v2.97h1.33v0.95h-1.33V124.16z M133.78,122.15c-0.41,0.81-0.85,1.54-1.33,2.12c-0.17-0.17-0.56-0.48-0.77-0.62
					c0.88-0.97,1.6-2.45,2-3.98l0.95,0.22c-0.13,0.45-0.28,0.9-0.46,1.32h5.7v0.94H133.78z M139.15,127.41
					c-0.06,0.94-0.1,1.68-0.15,2.28h0.98v0.88h-1.06c-0.1,0.71-0.22,1.11-0.39,1.33c-0.22,0.32-0.49,0.43-0.9,0.48
					c-0.34,0.04-0.91,0.03-1.5,0c-0.01-0.27-0.1-0.64-0.25-0.88c0.59,0.04,1.12,0.04,1.36,0.04c0.22,0.01,0.35-0.01,0.45-0.2
					c0.1-0.11,0.18-0.36,0.25-0.77h-5.6c0.14-0.84,0.32-1.98,0.48-3.17h-1.02v-0.91h1.13c0.14-1.05,0.25-2.1,0.32-3.01h6.05
					c0,0-0.01,0.36-0.01,0.49c-0.03,0.95-0.06,1.78-0.1,2.52h0.98v0.91H139.15z M138.04,129.69c0.06-0.57,0.11-1.33,0.15-2.28h-4.44
					c-0.1,0.83-0.21,1.61-0.31,2.28H138.04z M134.11,124.37c-0.08,0.69-0.15,1.4-0.24,2.13h4.37c0.03-0.63,0.06-1.33,0.08-2.13
					H134.11z M136.47,129.45c-0.45-0.38-1.23-0.99-1.81-1.4l0.56-0.5c0.6,0.39,1.4,1,1.82,1.33L136.47,129.45z M135.42,124.53
					c0.62,0.38,1.43,0.92,1.85,1.25l-0.57,0.59c-0.42-0.35-1.25-0.94-1.82-1.32L135.42,124.53z"/>
				<path class="st3" d="M46.27,138.08v0.57H32.27v-0.57H46.27z"/>
				<path class="st3" d="M60.27,138.08v0.57H46.27v-0.57H60.27z"/>
				<path class="st3" d="M74.27,138.08v0.57H60.27v-0.57H74.27z"/>
				<path class="st3" d="M88.27,138.08v0.57H74.27v-0.57H88.27z"/>
				<path class="st3" d="M102.27,138.08v0.57H88.27v-0.57H102.27z"/>
				<path class="st3" d="M116.27,138.08v0.57h-14.01v-0.57H116.27z"/>
				<path class="st3" d="M130.27,138.08v0.57h-14.01v-0.57H130.27z"/>
				<path class="st3" d="M144.27,138.08v0.57h-14.01v-0.57H144.27z"/>
				<path class="st3" d="M158.27,138.08v0.57h-14.01v-0.57H158.27z"/>
			</g>
		</g>
		<g>
			<g>
				<g>
					<path class="st3" d="M76.4,32.23h-2.11v4.61H71v-4.61h-7.56v-2.4l6.62-10.75h4.22v10.46h2.11V32.23z M71,29.54v-3.62
						c0-1.03,0.1-2.64,0.14-3.67h-0.1c-0.43,0.94-0.91,1.92-1.42,2.88l-2.76,4.42H71z"/>
					<path class="st3" d="M97.2,35.28c0,1.73-0.41,2.54-1.51,3.02c-1.15,0.5-2.83,0.55-5.3,0.55c-0.17-0.84-0.74-2.21-1.2-3
						c1.68,0.1,3.7,0.07,4.22,0.07c0.58,0,0.77-0.19,0.77-0.7v-3.48H83.91c-0.62,2.69-1.82,5.3-4.06,7.18
						c-0.43-0.6-1.58-1.66-2.21-2.06c3.62-3.1,3.96-7.68,3.96-11.33v-7.9h15.6V35.28z M94.18,28.99v-2.93h-9.63
						c-0.02,0.91-0.07,1.92-0.17,2.93H94.18z M84.55,20.42v2.93h9.63v-2.93H84.55z"/>
					<path class="st3" d="M109.97,29.64c0,0-0.02,0.65-0.05,0.98c-0.29,4.51-0.6,6.41-1.22,7.1c-0.43,0.55-0.91,0.74-1.61,0.84
						c-0.58,0.07-1.51,0.07-2.54,0.02c-0.05-0.72-0.31-1.68-0.67-2.33c0.86,0.1,1.66,0.1,2.06,0.1c0.31,0.02,0.53-0.02,0.74-0.24
						c0.31-0.36,0.55-1.51,0.74-4.27h-2.21v0.02h-2.45c0.31-1.08,0.63-2.5,0.89-3.84h-1.8v-2.47h8.93v2.47h-4.73
						c-0.12,0.55-0.22,1.08-0.34,1.61H109.97z M110.28,24.24h-7.32V17.4h7.32V24.24z M108.15,19.39h-3.17v2.83h3.17V19.39z
						 M121.16,27.45c0.48,0,1.32-0.05,1.68-0.17c0.05,0.7,0.1,1.39,0.19,2.02c-0.38,0.14-1.13,0.19-1.75,0.19h-2.52
						c-1.99,0-2.42-0.94-2.45-2.81l-1.68,0.14l-0.24-1.87l1.92-0.17v-1.42h-2.28v3.94c0,3.43-0.36,8.42-2.33,11.62
						c-0.46-0.43-1.54-1.22-2.11-1.49c1.78-2.93,1.94-7.11,1.94-10.15v-6.17h4.66v-4.61h2.71v1.3h4.58v2.26h-4.58v1.06h3.48
						l0.38-0.07l1.75,0.38c-0.26,1.58-0.6,3.43-0.94,4.61l-2.06-0.53c0.1-0.55,0.22-1.34,0.31-2.14h-3.14v1.2l2.26-0.22l0.22,1.87
						l-2.47,0.22v0.14c0,0.6,0.05,0.86,0.55,0.86H121.16z M117.56,30.28c-0.14,3.94-0.67,6.91-3.36,8.71
						c-0.29-0.6-0.96-1.49-1.51-1.87c2.11-1.42,2.42-3.7,2.52-6.84H117.56z M121.97,36.02c0.17,0,0.31-0.02,0.38-0.1
						c0.1-0.1,0.17-0.26,0.22-0.48c0.02-0.36,0.07-1.2,0.07-2.21c0.43,0.41,1.3,0.89,1.92,1.08c-0.05,1.13-0.17,2.3-0.29,2.78
						c-0.19,0.5-0.43,0.82-0.79,1.08c-0.34,0.22-0.86,0.34-1.32,0.34h-1.27c-0.62,0-1.22-0.17-1.61-0.55
						c-0.38-0.43-0.48-0.82-0.48-2.18v-5.52h2.33v5.28c0,0.14,0.05,0.29,0.1,0.34c0.07,0.1,0.22,0.14,0.36,0.14H121.97z"/>
				</g>
				<g>
					<path class="st3" d="M51.7,48.65c-0.5,0.8-1.07,1.5-1.63,2.05c-0.21-0.24-0.72-0.75-1.01-0.98c0.94-0.85,1.84-2.14,2.34-3.44
						l1.33,0.38c-0.1,0.27-0.22,0.54-0.37,0.82h3.83v1.17h-2.69c0.5,0.4,0.99,0.93,1.28,1.26l-0.96,0.85
						c-0.32-0.43-1.01-1.12-1.54-1.62l0.59-0.5H51.7z M62.79,55.82c0,0-0.02,0.37-0.05,0.58c-0.19,2.16-0.38,3.14-0.8,3.55
						c-0.3,0.32-0.62,0.43-1.1,0.46c-0.4,0.03-1.18,0.05-2,0c-0.02-0.42-0.19-0.98-0.42-1.36c0.72,0.08,1.46,0.1,1.73,0.08
						c0.27,0,0.43-0.02,0.56-0.13c0.19-0.21,0.34-0.74,0.48-1.92h-4.26v4h-1.47V57.7c-1.38,1.46-3.31,2.69-5.12,3.38
						c-0.22-0.34-0.63-0.9-0.96-1.17c1.78-0.54,3.65-1.62,4.93-2.82h-3.86c0.22-1.01,0.45-2.53,0.58-3.75h4.43v-1.25h-4.99v-1.23
						h11.68v3.71h-5.22v1.25H62.79z M52.29,54.58c-0.05,0.43-0.11,0.85-0.18,1.25h3.35v-1.25H52.29z M63.57,47.48v1.17h-3.15
						c0.51,0.38,1.09,0.88,1.39,1.23l-1.01,0.86c-0.34-0.42-1.04-1.07-1.63-1.54l0.7-0.56h-1.6c-0.37,0.58-0.8,1.09-1.22,1.49
						c-0.24-0.24-0.79-0.67-1.12-0.88c0.86-0.72,1.6-1.83,2-2.96l1.36,0.32c-0.11,0.3-0.22,0.58-0.35,0.86H63.57z M56.93,53.34h3.76
						v-1.25h-3.76V53.34z"/>
					<path class="st3" d="M65.7,58.32h2.58v-8.2h-2.11v-1.17c1.1-0.21,1.89-0.48,2.56-0.9h1.39v10.26h2.3v1.52H65.7V58.32z"/>
					<path class="st3" d="M74.14,58.77c3.47-3.07,5.27-5.36,5.27-7.3c0-1.28-0.69-2.16-2-2.16c-0.93,0-1.7,0.59-2.32,1.31
						l-1.04-1.02c1.01-1.09,2.05-1.76,3.58-1.76c2.16,0,3.55,1.41,3.55,3.54c0,2.27-1.81,4.63-4.31,7.01
						c0.61-0.06,1.34-0.11,1.92-0.11h2.95v1.57h-7.6V58.77z"/>
					<path class="st3" d="M83.93,58.32h2.58v-8.2H84.4v-1.17c1.1-0.21,1.89-0.48,2.56-0.9h1.39v10.26h2.3v1.52h-6.72V58.32z"/>
					<path class="st3" d="M95.84,57.91c-0.58,1.2-1.5,2.43-2.37,3.22c-0.26-0.26-0.83-0.67-1.18-0.88c0.86-0.69,1.68-1.71,2.15-2.72
						L95.84,57.91z M100.13,57.26h-7.79v-1.3h1.49v-6.24h-1.3v-1.3h1.3v-1.84h1.34v1.84h2.5v-1.84h1.38v1.84h1.15v1.3h-1.15v6.24
						h1.09V57.26z M95.17,49.73v1.2h2.5v-1.2H95.17z M95.17,53.42h2.5v-1.33h-2.5V53.42z M95.17,55.97h2.5v-1.38h-2.5V55.97z
						 M97.87,57.47c0.63,0.72,1.39,1.7,1.73,2.34l-1.2,0.72c-0.32-0.64-1.06-1.68-1.66-2.43L97.87,57.47z M106.52,59.35
						c0,0.78-0.18,1.22-0.67,1.44c-0.48,0.26-1.25,0.29-2.43,0.27c-0.05-0.38-0.24-1.04-0.43-1.41c0.75,0.03,1.55,0.02,1.76,0.02
						c0.24-0.02,0.34-0.08,0.34-0.34v-3.55h-2.95c-0.18,1.9-0.56,3.94-1.47,5.39c-0.24-0.27-0.86-0.7-1.18-0.85
						c1.26-2.1,1.38-5.09,1.38-7.38v-5.76h5.67V59.35z M105.08,54.43v-2.34h-2.82v0.85c0,0.46,0,0.98-0.03,1.49H105.08z
						 M102.26,48.53v2.26h2.82v-2.26H102.26z"/>
					<path class="st3" d="M122.04,54.34v6.75h-1.65v-0.88h-11.11v-5.87h1.67v4.39h3.87v-5.31h-4.77v-5.6h1.57v4.16h3.2v-5.54h1.65
						v5.54h3.3V47.8h1.65v5.6h-4.95v5.31h3.92v-4.39H122.04z"/>
					<path class="st3" d="M129.07,52.59h3.28v1.49h-3.28v7.01h-1.52v-7.01h-3.2v-1.49h3.2V48.8h-2.79v-1.44h7.14v1.44h-2.83V52.59z
						 M134.83,57.17h-1.49v-8.88h1.49V57.17z M138.32,46.7v12.45c0,0.98-0.24,1.42-0.83,1.67c-0.61,0.26-1.62,0.3-3.14,0.29
						c-0.06-0.42-0.34-1.14-0.58-1.57c1.15,0.05,2.24,0.03,2.56,0.03c0.34-0.02,0.46-0.11,0.46-0.42V46.7H138.32z"/>
				</g>
				<g>
					<path class="st3" d="M8.43,61.27c0-5.51,0.68-9.52,0.68-14.62c0-2.99-1.36-5.92-6.53-5.98v-3.88c5.17-0.07,6.53-2.99,6.53-5.92
						c0-5.17-0.68-9.18-0.68-14.69c0-7.89,2.86-10.13,8.91-10.13h3.33v3.47H18.7c-4.08,0-5.17,2.11-5.17,7
						c0,4.62,0.41,8.57,0.41,13.8c0,4.9-1.22,7.34-4.55,8.23v0.27c3.33,0.95,4.55,3.47,4.55,8.29c0,5.17-0.41,9.18-0.41,13.8
						c0,4.9,1.09,6.94,5.17,6.94h1.97v3.54h-3.33C11.29,71.4,8.43,69.16,8.43,61.27z"/>
				</g>
				<g>
					<path class="st3" d="M170.66,71.4h-3.33v-3.54h1.97c4.08,0,5.17-2.04,5.17-6.94c0-4.62-0.41-8.63-0.41-13.8
						c0-4.83,1.22-7.34,4.56-8.29v-0.27c-3.33-0.88-4.56-3.33-4.56-8.23c0-5.24,0.41-9.18,0.41-13.8c0-4.9-1.09-7-5.17-7h-1.97V6.06
						h3.33c6.05,0,8.91,2.24,8.91,10.13c0,5.51-0.68,9.52-0.68,14.69c0,2.92,1.36,5.85,6.53,5.92v3.88
						c-5.17,0.07-6.53,2.99-6.53,5.98c0,5.1,0.68,9.11,0.68,14.62C179.56,69.16,176.71,71.4,170.66,71.4z"/>
				</g>
			</g>
		</g>
	</g>
</g>
</svg>
