<?xml version="1.0" encoding="utf-8"?>
<!-- Generator: Adobe Illustrator 22.0.1, SVG Export Plug-In . SVG Version: 6.00 Build 0)  -->
<svg version="1.1" id="圖層_1" xmlns="http://www.w3.org/2000/svg" xmlns:xlink="http://www.w3.org/1999/xlink" x="0px" y="0px"
	 viewBox="0 0 169 1907.4" style="enable-background:new 0 0 169 1907.4;" xml:space="preserve">
<style type="text/css">
	.st0{fill:#EFECEA;}
</style>
<g>
	<g>
		<path class="st0" d="M153.2,127c0-1.5,0.9-3.9,2.7-7.3c5.9-11.6,8.8-23.4,8.8-35.4c0-15.4-3.8-29.6-11.4-42.5
			c-7.6-13-18.3-23.2-32.2-30.6C107.3,3.7,92.1,0,75.6,0C55.1,0,37.3,5.6,22.1,16.8C12.4,24,5.1,32.5,0,42.5v74.3
			c0.6,1.1,1.2,2.2,1.9,3.2c6.8,11.1,17.6,20.8,32.3,29l2.4-3.8c-13.7-9.8-22.8-18.9-27.4-27.1c-4.6-8.2-6.9-17.7-6.9-28.5
			c0-12.4,2.9-23.4,8.8-33C17,47.1,25.4,39.8,36.4,35c11-4.8,24-7.2,38.9-7.2c18.2,0,33.3,2.5,45.5,7.6
			c12.2,5.1,21.1,12.1,26.7,20.9c5.6,8.9,8.4,18.8,8.4,29.8c0,13.1-3.7,24.3-11.1,33.7c-7.4,9.3-19.5,16.5-36.4,21.6v3.8l56.3-3.8
			v-4.3c-3.9-0.9-7-2.4-9.2-4.5C154,131.1,153.2,129.1,153.2,127z"/>
		<path class="st0" d="M103.2,193.8c-4.8-8.3-12.3-15-22.5-20.1c-10.1-5.1-20.3-7.6-30.6-7.6c-14.1,0-26.8,4.2-38.1,12.6
			c-4.9,3.7-9,7.8-12.1,12.4v56.3c5.2,8.3,12.9,14.7,23,19.5c10.3,4.8,20.4,7.2,30.4,7.2c14.2,0,26.8-4.4,37.8-13.1
			c12.9-10.3,19.3-23.9,19.3-40.8C110.5,210.9,108.1,202.1,103.2,193.8z M90.8,238.5c-11.4,8.5-27,12.8-46.9,12.8
			c-15.9,0-27.1-2.6-33.6-7.7c-6.5-5.1-9.8-11.6-9.8-19.5c0-10.6,5.9-19.1,17.7-25.6c11.8-6.5,25.8-9.7,42.1-9.7
			c10.1,0,18.3,1.4,24.8,4c6.4,2.7,10.9,6.2,13.5,10.6c2.6,4.3,3.8,8.7,3.8,13C102.6,225.4,98.7,232.8,90.8,238.5z"/>
		<path class="st0" d="M110.5,317.9l-13.7-33.7l-4.4,1.8c1.2,3.2,1.8,5.9,1.8,8.2c0,2.1-0.5,3.8-1.6,5.1c-1.1,1.3-3.1,2.2-6,2.8
			S75.6,303,62.2,303H20.6c-8.1,0-13.6-1-16.5-3c-2.2-1.5-3.6-4.2-4.1-7.9v43.2c0.3-2.9,0.7-4.9,1.4-6.2c1.1-2,2.8-3.6,5.2-4.7
			c1.8-0.9,6.5-1.3,14-1.3h59c10.6,9.6,15.9,19.2,15.9,28.9c0,6.3-2.3,10.7-6.9,13.4c-4.6,2.7-12,4-22.2,4H20.6
			c-6.4,0-10.3-0.2-11.5-0.5c-3.1-0.8-5.4-2.3-7-4.3c-1.1-1.4-1.8-3.6-2.2-6.5v43.3c0.3-2.6,0.8-4.6,1.5-5.8c1.1-2,2.7-3.4,4.8-4.3
			c2.5-1.1,7.3-1.7,14.4-1.7h47.7c10.1,0,17.6-0.9,22.5-2.7c7-2.6,12-6.1,15.1-10.5c3-4.4,4.6-9.6,4.6-15.8
			c0-11.9-7.9-24.4-23.7-37.5h23.7V317.9z"/>
		<path class="st0" d="M106.7,481.2c-0.6-0.7-0.9-1.8-0.9-3.1c0-1.4,0.6-4.2,1.8-8.3c1.9-6.3,2.8-11.6,2.8-16
			c0-10-3.1-18.2-9.3-24.5c-6.2-6.3-13.9-9.5-23.1-9.5c-7.1,0-12.9,1.8-17.6,5.5c-4.7,3.7-10,11.4-15.9,23.2
			c-5.9,11.8-10.7,19.7-14.5,23.6c-3.8,4-8.5,5.9-14.2,5.9c-4.6,0-8.6-1.8-11.9-5.3c-1.9-2.1-3.3-4.5-4.1-7.3V483
			c0.4,0.6,0.9,1.1,1.3,1.7c6.2,7.7,14.4,11.5,24.6,11.5c13.2,0,23.8-8.3,31.9-24.8l8.7-17.8c3.7-7.7,7.3-12.9,10.6-15.4
			c3.3-2.6,7.2-3.9,11.7-3.9c3.7,0,7,1.8,10,5.3c3,3.5,4.5,8.1,4.5,13.8c0,7.5-2.2,13.6-6.5,18.5c-4.3,4.8-12.5,8.8-24.4,11.9v4
			h38.1v-4C108.5,482.8,107.3,481.9,106.7,481.2z M33.6,424.4v-4H0v31.5c1.2-5.2,3.8-10,7.8-14.4C13.6,431.1,22.2,426.7,33.6,424.4z
			"/>
		<path class="st0" d="M165.4,532.4c-2.4-2.4-5.3-3.6-8.7-3.6c-3.4,0-6.4,1.2-8.8,3.7c-2.4,2.5-3.7,5.4-3.7,8.8
			c0,3.4,1.2,6.3,3.7,8.7s5.4,3.6,8.8,3.6c3.4,0,6.3-1.2,8.7-3.6c2.4-2.4,3.6-5.3,3.6-8.7C169,537.8,167.8,534.8,165.4,532.4z
			 M96.8,512.3l-4.4,1.7c1.2,3.3,1.8,6,1.8,8.3c0,2.1-0.5,3.8-1.5,5c-1,1.2-2.8,2.1-5.4,2.7c-3.6,0.7-11.4,1.1-23.5,1.1H20.6
			c-6.9,0-11.6-0.5-14-1.7c-2.4-1.1-4.2-2.6-5.3-4.5c-0.7-1.2-1.1-3-1.4-5.5v43.7c0.3-2.6,0.8-4.5,1.5-5.8c1.1-2,2.9-3.5,5.2-4.5
			c2.3-1,7-1.5,14-1.5h89.9V546L96.8,512.3z"/>
		<path class="st0" d="M98.5,603.5c-8-8.3-17.5-12.5-28.6-12.5c-7.2,0-13.8,1.8-19.8,5.5c-6,3.7-10.6,8.9-14,15.8
			c-7-8.4-12.4-13.7-16.2-16.1c-3.8-2.3-7.2-3.5-10-3.5c-2.5,0-4.8,0.9-6.8,2.6c-1,0.9-2,2-3.1,3.5v89.7c0.7-0.5,1.3-1.1,2-1.8
			c4.5-4.5,7.4-10.6,8.4-18.1c0.7-5,1.3-15.8,1.7-32.6c0.2-9.1,0.5-14.8,0.9-17.1c0.6-3.9,1.5-6.5,2.8-7.9c1.3-1.3,2.6-2,4-2
			c1.6,0,3.6,0.6,5.9,1.9c2.3,1.3,5,3.7,8.1,7.3c-1.6,5.8-2.4,11.4-2.4,17c0,13.4,3.7,24.1,11.1,32.1c7.4,8,16.3,12,26.7,12
			c9.1,0,16.6-2.3,22.5-6.8v14.5c0,3.5,0.1,5.5,0.4,6.2c0.2,0.6,0.6,1,1,1.3c0.8,0.4,2.3,0.6,4.4,0.6c1.9,0,3.2-0.3,3.9-0.7
			c0.5-0.2,0.8-0.7,1-1.2s0.3-2.6,0.3-6.1v-23.7c5.2-7.8,7.8-17.1,7.8-27.7C110.5,622.5,106.5,611.8,98.5,603.5z M96.6,649.4
			c-7.3,5.6-17.5,8.4-30.4,8.4c-9.9,0-17.2-2-21.9-6c-4.6-4-7-9.1-7-15.3c0-6.5,2.7-11.9,8-16.1c7.1-5.5,17.1-8.3,29.9-8.3
			c9.9,0,17.3,2,22.1,6.1c4.8,4.1,7.2,9.1,7.2,15.1C104.6,639.9,101.9,645.3,96.6,649.4z"/>
		<path class="st0" d="M110.5,734.6l-13.7-33.7l-4.4,1.8c1.2,3.2,1.8,5.9,1.8,8.2c0,2.1-0.5,3.8-1.6,5.1c-1.1,1.3-3.1,2.2-6,2.8
			s-11.1,0.9-24.5,0.9H20.6c-8.1,0-13.6-1-16.5-3c-2.2-1.5-3.6-4.2-4.1-7.9V752c0.3-2.9,0.7-4.9,1.4-6.2c1.1-2,2.8-3.6,5.2-4.7
			c1.8-0.9,6.5-1.3,14-1.3h59c10.6,9.6,15.9,19.2,15.9,28.9c0,6.3-2.3,10.7-6.9,13.4c-4.6,2.6-12,4-22.2,4H20.6
			c-6.4,0-10.3-0.2-11.5-0.5c-3.1-0.8-5.4-2.3-7-4.3c-1.1-1.4-1.8-3.6-2.2-6.5v43.3c0.3-2.6,0.8-4.6,1.5-5.8c1.1-2,2.7-3.4,4.8-4.3
			c2.5-1.1,7.3-1.7,14.4-1.7h47.7c10.1,0,17.6-0.9,22.5-2.7c7-2.6,12-6.1,15.1-10.5s4.6-9.6,4.6-15.8c0-11.9-7.9-24.4-23.7-37.5
			h23.7V734.6z"/>
		<path class="st0" d="M110.5,860.2l-13.7-33.7l-4.4,1.8c1.2,3.2,1.8,5.9,1.8,8.2c0,2.1-0.5,3.8-1.5,5c-1,1.2-2.9,2.1-5.6,2.7
			c-3.6,0.7-11.5,1.1-23.8,1.1H20.6c-6.9,0-11.6-0.5-14-1.6c-2.4-1.1-4.1-2.6-5.3-4.6c-0.7-1.3-1.2-3.2-1.4-5.6v44.2
			c0.3-2.8,0.7-4.9,1.4-6.1c1.1-2,2.8-3.5,4.9-4.5c2.2-1,7-1.5,14.3-1.5h59.9c4.5,3.7,8.5,8.9,12.1,15.6c2.4,4.3,3.5,8.7,3.5,13.1
			c0,6.4-2.6,11.4-7.8,15c-4,2.7-10.5,4-19.6,4H20.6c-6.7,0-10.7-0.2-12.1-0.6c-2.9-0.9-5.1-2.5-6.6-4.8c-1-1.6-1.6-4-2-7.3v45.8
			c0.3-3,0.8-5.3,1.7-6.8c1.3-2.4,2.8-4,4.7-4.8c1.9-0.9,6.6-1.3,14.3-1.3H74l5.3-0.3l1.3,0.3c5.9,6.2,9.9,11.5,12,15.8
			c2.2,4.4,3.2,8.7,3.2,13c0,7-2.6,12.1-7.8,15.3c-3.8,2.2-10.2,3.3-19.3,3.3H20.6c-6.5,0-10.4-0.2-11.8-0.5c-2.9-0.8-4.9-2.2-6.2-4
			c-1.3-1.9-2.2-4.4-2.6-7.4v44.4c0.3-2.6,0.8-4.7,1.7-6.1c1.3-2.2,2.8-3.7,4.6-4.5c2.6-1.1,7.4-1.6,14.4-1.6h48.1
			c10.1,0,17.5-0.9,22.2-2.7c6.9-2.7,11.9-6.3,15-10.9c3-4.6,4.6-9.9,4.6-15.8c0-6.1-1.5-12-4.6-17.8c-3-5.8-9.5-12.9-19.2-21.2
			c7.7-1.7,13.6-5.1,17.7-10.1c4.1-5,6.1-11.1,6.1-18.1c0-4.2-0.9-8.3-2.6-12.6c-1.7-4.2-4.1-8.2-7.2-11.8c-1.2-1.5-5.9-6.3-14-14.4
			h23.8V860.2z"/>
		<path class="st0" d="M94.6,1042.9c-10.7-9.8-25.6-14.7-44.7-14.7c-17.7,0-31.7,4.8-42.2,14.4c-3,2.7-5.5,5.6-7.6,8.6v50.6
			c1.6,2.2,3.5,4.2,5.7,6.1c9.2,8.2,19.3,13.2,30.5,14.9l2.4-3.8c-9.8-3.7-16.7-8.2-20.7-13.6c-4-5.4-6-11.8-6-19.1
			c0-11,4.7-20.6,14.2-28.7c9.4-8.1,22.5-12.2,39.1-12.1v77.3c13.8,0,24.9-4,33.1-12.1s12.4-18.3,12.4-30.9
			C110.6,1065,105.3,1052.7,94.6,1042.9z M98,1085.6c-2.6,4-6.2,7-10.8,9.1c-2.9,1.3-8,2.2-15.1,2.6v-51.8c9.4,0.9,16.7,4,21.9,9.3
			s7.9,11.4,7.9,18.1C101.9,1077.4,100.6,1081.6,98,1085.6z"/>
		<path class="st0" d="M110.5,1165l-13.7-33.7l-4.4,1.8c1.2,3.2,1.8,5.9,1.8,8.2c0,2.1-0.5,3.8-1.6,5.1c-1.1,1.3-3.1,2.2-6,2.8
			s-11.1,0.9-24.5,0.9H20.6c-8.1,0-13.6-1-16.5-3c-2.2-1.5-3.6-4.2-4.1-7.9v43.2c0.3-2.8,0.7-4.9,1.4-6.2c1.1-2,2.8-3.6,5.2-4.7
			c1.8-0.9,6.5-1.3,14-1.3h59c10.6,9.6,15.9,19.2,15.9,28.9c0,6.3-2.3,10.7-6.9,13.4c-4.6,2.6-12,4-22.2,4H20.6
			c-6.4,0-10.3-0.2-11.5-0.5c-3.1-0.8-5.4-2.3-7-4.3c-1.1-1.4-1.8-3.6-2.2-6.5v43.3c0.3-2.6,0.8-4.6,1.5-5.8c1.1-2,2.7-3.4,4.8-4.3
			c2.5-1.1,7.3-1.7,14.4-1.7h47.7c10.1,0,17.6-0.9,22.5-2.7c7-2.6,12-6.1,15.1-10.5c3-4.4,4.6-9.6,4.6-15.8
			c0-11.9-7.9-24.4-23.7-37.5h23.7V1165z"/>
		<path class="st0" d="M127,1283.6c-5.9-3.7-10.9-7.8-15.2-12.5c-4.3-4.7-7.3-9.3-9.1-13.7h-4v17.7H23.5c-8,0-14,0.9-17.9,2.6
			c-2.1,0.9-4,2.2-5.6,3.7v31.9c4,5,9.9,8.8,17.6,11.6v-4.8c-3.3-1.4-5.7-3.3-7.4-5.8c-1.7-2.5-2.5-5.1-2.5-7.8c0-3.3,1.3-5.9,3.8-8
			c2.5-2.1,7.4-3.1,14.6-3.1h72.5v26.1h8.5v-26.1h36.7v-3.8C135.7,1288,130.1,1285.4,127,1283.6z"/>
		<path class="st0" d="M155.2,1488.5c0-1.9,1-5.1,3.1-9.6c4.3-9.8,6.5-19.2,6.5-28c0-14.1-4.3-25.7-12.9-34.8
			c-8.6-9.1-18.8-13.7-30.7-13.7c-6.8,0-13.1,1.6-18.8,4.6c-5.7,3.1-10.9,7.6-15.6,13.6s-11,16.1-19,30.2
			c-7.9,14.2-13.1,22.8-15.6,26c-3.6,4.7-7.4,8.2-11.6,10.4c-4.1,2.2-8.3,3.4-12.3,3.4c-7.3,0-13.7-2.9-19-8.8
			c-5.4-5.9-8.1-13.9-8.1-24.1c0-8.8,2-16.9,5.9-24.2c3.9-7.4,8.8-12.8,14.7-16.4s14.8-6.4,26.7-8.5v-4.5H0v8.2c0.7,1,1,2.3,1,3.8
			c0,1.1-0.3,2.9-1,5.5v69.8c1.5,2.3,3.3,4.6,5.2,6.6c9.1,9.7,19.9,14.6,32.4,14.6c6.6,0,12.9-1.5,18.9-4.6s11.3-7.4,15.7-13.1
			c4.4-5.7,10.8-16.2,19.1-31.7c10.2-19,18.3-31,24.4-36c4.1-3.5,8.7-5.3,13.8-5.3c6.6,0,12.5,2.8,17.6,8.3c5.2,5.5,7.8,12.5,7.8,21
			c0,7.5-1.9,14.7-5.7,21.7c-3.8,7-9,12.4-15.5,16.2c-6.5,3.8-15.3,6.4-26.2,7.9v4.5h57.3v-4.5c-3.8-0.8-6.4-1.9-7.6-3.2
			C155.8,1492.3,155.2,1490.6,155.2,1488.5z"/>
		<path class="st0" d="M127,1554.5c-5.9-3.7-10.9-7.8-15.2-12.5c-4.3-4.7-7.3-9.3-9.1-13.7h-4v17.7H23.5c-8,0-14,0.9-17.9,2.6
			c-2.1,0.9-4,2.2-5.6,3.7v31.9c4,5,9.9,8.8,17.6,11.6v-4.8c-3.3-1.4-5.7-3.3-7.4-5.8c-1.7-2.5-2.5-5.1-2.5-7.8c0-3.3,1.3-5.9,3.8-8
			c2.5-2.1,7.4-3.1,14.6-3.1h72.5v26.1h8.5v-26.1h36.7v-3.8C135.7,1559,130.1,1556.4,127,1554.5z"/>
		<path class="st0" d="M103.2,1631.4c-4.8-8.3-12.3-15-22.5-20.1c-10.1-5.1-20.3-7.6-30.6-7.6c-14.1,0-26.8,4.2-38.1,12.6
			c-4.9,3.7-9,7.8-12.1,12.4v56.3c5.2,8.3,12.9,14.8,23,19.5c10.3,4.8,20.4,7.2,30.4,7.2c14.2,0,26.8-4.3,37.8-13.1
			c12.9-10.3,19.3-23.8,19.3-40.8C110.5,1648.5,108.1,1639.7,103.2,1631.4z M90.8,1676.1c-11.4,8.5-27,12.8-46.9,12.8
			c-15.9,0-27.1-2.6-33.6-7.7c-6.5-5.1-9.8-11.6-9.8-19.5c0-10.6,5.9-19.1,17.7-25.6c11.8-6.5,25.8-9.7,42.1-9.7
			c10.1,0,18.3,1.3,24.8,4c6.4,2.7,10.9,6.2,13.5,10.6c2.6,4.4,3.8,8.7,3.8,13C102.6,1663,98.7,1670.3,90.8,1676.1z"/>
		<path class="st0" d="M110.5,1755.7l-13.7-33.8l-4.4,1.2c1.2,3.2,1.8,6,1.8,8.5c0,2.1-0.6,3.9-1.7,5.3c-1.1,1.4-2.9,2.4-5.4,2.9
			c-2.5,0.5-10.2,0.8-23.3,0.8H20.5c-6.5,0-10.5-0.2-11.8-0.6c-2.9-0.8-4.9-2.2-6.2-4.3c-1.3-2-2.1-4.7-2.5-8.1v48.1
			c0.3-2.9,1-5.2,2-7.1c1.5-2.7,3.3-4.6,5.5-5.6c3.2-1.5,7.9-2.3,14-2.3h53.6c7.6,3.9,13.1,7.7,16.5,11.4c1.6,1.7,2.4,3.3,2.4,4.8
			c0,1.7-1.4,4.3-4.2,7.9c-2.8,3.5-4.2,6.7-4.2,9.6c0,2.9,1.1,5.5,3.3,7.6c2.2,2.1,4.9,3.2,8.1,3.2c3.6,0,6.7-1.5,9.5-4.4
			c2.7-2.9,4.1-6.6,4.1-11.1c0-9.8-8.4-19.4-25.1-28.8h25.1V1755.7z"/>
		<path class="st0" d="M94.6,1827.5c-10.7-9.8-25.6-14.7-44.7-14.7c-17.7,0-31.7,4.8-42.2,14.3c-3,2.7-5.5,5.6-7.6,8.6v50.6
			c1.6,2.2,3.5,4.2,5.7,6.1c9.2,8.2,19.3,13.2,30.5,14.9l2.4-3.8c-9.8-3.7-16.7-8.2-20.7-13.6c-4-5.4-6-11.8-6-19.1
			c0-11,4.7-20.6,14.2-28.7c9.4-8.1,22.5-12.2,39.1-12.1v77.3c13.8,0,24.9-4,33.1-12.1c8.3-8.1,12.4-18.4,12.4-30.9
			C110.6,1849.7,105.3,1837.4,94.6,1827.5z M98,1870.3c-2.6,4-6.2,7.1-10.8,9.1c-2.9,1.3-8,2.2-15.1,2.6v-51.8
			c9.4,0.9,16.7,4,21.9,9.3s7.9,11.4,7.9,18.1C101.9,1862,100.6,1866.2,98,1870.3z"/>
	</g>
</g>
</svg>
