<?xml version="1.0" encoding="utf-8"?>
<!-- Generator: Adobe Illustrator 24.1.3, SVG Export Plug-In . SVG Version: 6.00 Build 0)  -->
<svg version="1.1" id="圖層_1" xmlns="http://www.w3.org/2000/svg" xmlns:xlink="http://www.w3.org/1999/xlink" x="0px" y="0px"
	 viewBox="0 0 201.1 59.8" style="enable-background:new 0 0 201.1 59.8;" xml:space="preserve">
<style type="text/css">
	.st0{fill:#FFFFFF;}
	.st1{fill:none;}
</style>
<g>
	<path class="st0" d="M172.44,49.69h-1.39v3.72h-0.56v-3.72h-1.38v-0.5h3.34V49.69z"/>
	<path class="st0" d="M176.15,53.39h-0.63l-0.49-1.28h-1.76l-0.47,1.28h-0.59l1.62-4.22h0.6L176.15,53.39z M174.87,51.67l-0.74-1.96
		l-0.71,1.96H174.87z"/>
	<path class="st0" d="M177.51,53.38h-0.56v-4.22h0.56V53.38z"/>
	<path class="st0" d="M183.69,49.19l-1.17,4.22h-0.53l-1.01-3.66l-1.01,3.66h-0.53l-1.17-4.22h0.59l0.84,3.44l0.95-3.44h0.67
		l0.95,3.44l0.84-3.44H183.69z"/>
	<path class="st0" d="M187.73,53.39h-0.63l-0.49-1.28h-1.76l-0.47,1.28h-0.59l1.62-4.22h0.6L187.73,53.39z M186.45,51.67l-0.74-1.96
		L185,51.67H186.45z"/>
	<path class="st0" d="M191.69,53.39h-0.57l-2.2-3.32v3.32h-0.53v-4.22h0.57l2.2,3.32v-3.32h0.53V53.39z"/>
	<path class="st0" d="M172.44,49.17h-3.34c-0.01,0-0.02,0.01-0.02,0.02v0.5c0,0.01,0.01,0.02,0.02,0.02h1.37v3.7
		c0,0.01,0.01,0.02,0.02,0.02h0.56c0.01,0,0.02-0.01,0.02-0.02v-3.7h1.38c0.01,0,0.02-0.01,0.02-0.02v-0.5
		C172.46,49.17,172.45,49.17,172.44,49.17z M172.43,49.67h-1.38c-0.01,0-0.02,0.01-0.02,0.02v3.7h-0.53v-3.7
		c0-0.01-0.01-0.02-0.02-0.02h-1.37V49.2h3.31V49.67z"/>
	<path class="st0" d="M174.13,49.7L174.13,49.7c-0.01,0-0.02,0.01-0.02,0.01l-0.71,1.96c0,0.01,0,0.01,0,0.02
		c0,0.01,0.01,0.01,0.02,0.01h1.45c0.01,0,0.01,0,0.02-0.01c0-0.01,0-0.01,0-0.02l-0.74-1.96C174.15,49.71,174.14,49.7,174.13,49.7z
		 M173.45,51.66l0.68-1.89l0.72,1.89H173.45z"/>
	<path class="st0" d="M174.44,49.17h-0.6c-0.01,0-0.02,0.01-0.02,0.01l-1.62,4.22c0,0.01,0,0.01,0,0.02c0,0.01,0.01,0.01,0.02,0.01
		h0.59c0.01,0,0.02-0.01,0.02-0.01l0.46-1.27h1.75l0.48,1.27c0,0.01,0.01,0.01,0.02,0.01h0.63c0.01,0,0.01,0,0.02-0.01
		c0-0.01,0-0.01,0-0.02L174.44,49.17C174.45,49.17,174.45,49.17,174.44,49.17z M175.54,53.38l-0.48-1.27c0-0.01-0.01-0.01-0.02-0.01
		h-1.76c-0.01,0-0.02,0.01-0.02,0.01l-0.46,1.27h-0.56l1.61-4.18h0.58l1.71,4.18H175.54z"/>
	<path class="st0" d="M177.51,49.15h-0.56c-0.01,0-0.02,0.01-0.02,0.02v4.22c0,0.01,0.01,0.02,0.02,0.02h0.56
		c0.01,0,0.02-0.01,0.02-0.02v-4.22C177.52,49.15,177.51,49.15,177.51,49.15z M177.49,53.36h-0.53v-4.18h0.53V53.36z"/>
	<path class="st0" d="M183.69,49.17h-0.59c-0.01,0-0.02,0.01-0.02,0.02l-0.83,3.37l-0.93-3.37c0-0.01-0.01-0.01-0.02-0.01h-0.67
		c-0.01,0-0.02,0.01-0.02,0.01l-0.93,3.37l-0.83-3.37c0-0.01-0.01-0.02-0.02-0.02h-0.59c-0.01,0-0.01,0-0.02,0.01
		c-0.01,0.01,0,0.01,0,0.02l1.17,4.22c0,0.01,0.01,0.01,0.02,0.01h0.53c0.01,0,0.02-0.01,0.02-0.01l1-3.6l1,3.6
		c0,0.01,0.01,0.01,0.02,0.01h0.53c0.01,0,0.02-0.01,0.02-0.01l1.17-4.22C183.7,49.19,183.7,49.19,183.69,49.17
		C183.7,49.17,183.69,49.17,183.69,49.17z M182.51,53.38H182l-1.01-3.65c0-0.01-0.01-0.01-0.02-0.01c-0.01,0-0.02,0.01-0.02,0.01
		l-1.01,3.65h-0.51l-1.16-4.18h0.56l0.84,3.42c0,0.01,0.01,0.02,0.02,0.02l0,0c0.01,0,0.02-0.01,0.02-0.01l0.95-3.42h0.64l0.95,3.42
		c0,0.01,0.01,0.01,0.02,0.01l0,0c0.01,0,0.02-0.01,0.02-0.02l0.84-3.42h0.56L182.51,53.38z"/>
	<path class="st0" d="M186.02,49.17h-0.6c-0.01,0-0.02,0.01-0.02,0.01l-1.62,4.22c0,0.01,0,0.01,0,0.02c0,0.01,0.01,0.01,0.02,0.01
		h0.59c0.01,0,0.02-0.01,0.02-0.01l0.46-1.27h1.75l0.48,1.27c0,0.01,0.01,0.01,0.02,0.01h0.63c0.01,0,0.01,0,0.02-0.01
		c0-0.01,0-0.01,0-0.02L186.02,49.17C186.03,49.17,186.03,49.17,186.02,49.17z M187.12,53.38l-0.48-1.27c0-0.01-0.01-0.01-0.02-0.01
		h-1.76c-0.01,0-0.02,0.01-0.02,0.01l-0.46,1.27h-0.56l1.61-4.18h0.58l1.71,4.18H187.12z"/>
	<path class="st0" d="M185.71,49.7L185.71,49.7c-0.01,0-0.02,0.01-0.02,0.01l-0.71,1.96c0,0.01,0,0.01,0,0.02
		c0,0.01,0.01,0.01,0.02,0.01h1.45c0.01,0,0.01,0,0.02-0.01c0-0.01,0-0.01,0-0.02l-0.74-1.96C185.72,49.71,185.72,49.7,185.71,49.7z
		 M185.03,51.66l0.68-1.89l0.72,1.89H185.03z"/>
	<path class="st0" d="M191.7,49.17h-0.53c-0.01,0-0.02,0.01-0.02,0.02v3.27l-2.18-3.28c0-0.01-0.01-0.01-0.02-0.01h-0.57
		c-0.01,0-0.02,0.01-0.02,0.02v4.22c0,0.01,0.01,0.02,0.02,0.02h0.53c0.01,0,0.02-0.01,0.02-0.02v-3.27l2.18,3.28
		c0,0.01,0.01,0.01,0.02,0.01h0.57c0.01,0,0.02-0.01,0.02-0.02v-4.22C191.72,49.17,191.71,49.17,191.7,49.17z M191.68,53.38h-0.55
		l-2.2-3.31c0-0.01-0.01-0.01-0.02-0.01c-0.01,0-0.01,0.01-0.01,0.02v3.31h-0.5v-4.18h0.55l2.2,3.31c0,0.01,0.01,0.01,0.02,0.01
		c0.01,0,0.01-0.01,0.01-0.02v-3.31h0.5V53.38z"/>
	<g>
		<g>
			<path class="st0" d="M163.14,16.1c2.14,0,4.12,0,6.19,0c0.28,1.34,0.1,2.62,0.04,3.89c-0.18,3.94-0.05,7.88-0.1,11.83
				c-0.02,1.17-0.02,2.33-0.3,3.47c-1.55,6.2-6.7,8.58-11.77,8.17c-5.95-0.49-9.88-4.48-10.09-10.52
				c-0.19-5.54-0.04-11.1-0.04-16.78c2.04,0,4.06,0,6.16,0c0,1.89,0,3.74,0,5.6c0,3.43,0.01,6.86-0.02,10.28
				c-0.01,1.12,0.17,2.19,0.62,3.2c0.81,1.82,2.22,2.84,4.22,2.88c2.08,0.05,3.59-0.93,4.47-2.81c0.52-1.13,0.73-2.33,0.72-3.57
				c-0.06-4.97,0.16-9.95-0.19-14.92C163.04,16.63,163.09,16.44,163.14,16.1z"/>
			<path class="st0" d="M77.85,41.99c-4.91,1.72-9.63,2.15-14.32,0.1c-5.81-2.54-8.83-8.22-8.01-14.88
				c0.72-5.8,5.46-10.56,11.44-11.55c3.37-0.56,6.65-0.22,9.91,0.84c0,2.19,0,4.29,0,6.44c-5.21-3.03-9.75-2.92-12.89,0.23
				c-2.63,2.64-3.21,7.23-1.34,10.6c1.86,3.33,5.53,4.99,9.28,4.08c0.24-1.21,0.08-2.49,0.11-3.77c0.02-1.22,0.01-2.44,0.01-3.93
				c1.84-0.08,3.79-0.08,5.8,0.02C77.85,34.14,77.85,37.99,77.85,41.99z"/>
			<path class="st0" d="M182.54,26.38c2.76,0.19,5.51-0.14,8.36-0.1c0,1.76,0,3.42,0,5.25c-2.74,0-5.54,0-8.42,0
				c0,2.14,0,4.11,0,6.24c3.07,0,6.14,0,9.27,0c0.32,1.87,0.14,3.57,0.12,5.3c-5.29,0-10.43,0-15.65,0c0-9.03,0-17.91,0-26.97
				c5.06-0.25,10.12,0.15,15.27-0.29c0,1.83,0,3.48,0,5.26c-2.94,0-5.87,0-8.96,0C182.54,22.86,182.54,24.55,182.54,26.38z"/>
			<path class="st0" d="M141.49,16.16c0,2.18,0,4.21,0,6.73c-1.54-2.12-3.35-2.73-5.44-2.65c-1.11,0.04-2,0.38-2.47,1.5
				c-0.46,1.1-0.1,2.02,0.6,2.86c0.59,0.7,1.34,1.21,2.07,1.75c1.09,0.8,2.22,1.57,3.23,2.46c2.82,2.49,3.57,5.66,2.45,9.14
				c-1.17,3.61-4.06,5.2-7.64,5.62c-2.73,0.32-5.39-0.22-8.22-0.9c-0.1-2.2-0.06-4.4,0.01-7.05c1.91,1.89,3.81,2.86,6.05,3.07
				c0.52,0.05,1.02,0.08,1.54-0.02c2-0.39,2.92-2.36,1.89-4.14c-0.5-0.85-1.26-1.46-2.05-2.03c-1.05-0.76-2.12-1.47-3.12-2.29
				c-1.87-1.53-3.09-3.46-3.27-5.92c-0.35-4.53,2.28-7.86,6.77-8.67c1.28-0.23,2.56-0.34,3.85-0.12
				C138.92,15.72,140.13,15.93,141.49,16.16z"/>
			<path class="st0" d="M105,42.72c0-2.35,0-4.51,0-6.95c1.92,1.93,4.06,2.88,6.53,3c1.22,0.06,2.38-0.26,2.93-1.47
				c0.54-1.21,0.37-2.43-0.59-3.4c-0.59-0.6-1.26-1.1-1.92-1.62c-1.07-0.84-2.2-1.59-3.23-2.47c-1.5-1.31-2.42-2.94-2.72-4.97
				c-0.66-4.51,1.87-8.21,6.32-9.16c1.94-0.41,3.85-0.29,5.77,0.06c0.69,0.13,1.38,0.29,2.08,0.43c0.35,1.43,0.38,4.4,0.02,6.38
				c-1.36-1.5-2.95-2.35-4.93-2.33c-1.54,0.02-2.53,0.47-2.86,1.51c-0.4,1.22-0.07,2.29,0.86,3.17c1.13,1.07,2.47,1.86,3.71,2.79
				c1.73,1.3,3.23,2.8,3.88,4.94c1.65,5.36-1.97,10.48-7.74,10.96C110.37,43.83,107.73,43.36,105,42.72z"/>
			<path class="st0" d="M99.84,16.1c-0.13,8.98-0.14,17.86,0,26.88c-2.12,0-4.14,0-6.24,0c0-8.97,0-17.85,0-26.86
				C95.67,15.95,97.69,16,99.84,16.1z"/>
			<path class="st0" d="M49.01,42.85c-2.12,0-4.1,0-6.19,0c0-8.9,0-17.77,0-26.75c2.03,0,4.05,0,6.16,0
				C48.91,24.99,48.86,33.81,49.01,42.85z"/>
			<path class="st0" d="M34.82,28.62c-0.39-0.31-0.94-0.42-1.21-0.99c1.09-1,2.06-2.08,2.36-3.62c0.77-3.98-1.62-7.29-6.02-7.86
				c-3.51-0.46-7.06-0.14-10.67-0.16c0,9.01,0,17.84,0,26.95c3.6-0.03,7.07,0.16,10.54-0.15c1.89-0.17,3.62-0.89,5.13-2.1
				C38.9,37.49,38.83,31.71,34.82,28.62z M25.43,20.65c3.37-0.12,4.81,0.8,4.74,2.86c-0.06,1.98-1.41,2.76-4.6,2.59
				C25.3,24.28,25.51,22.46,25.43,20.65z M28.74,37.84c-0.43,0.1-0.89,0.2-1.33,0.23c-0.57,0.04-1.14,0.01-1.91,0.01
				c0-2.53,0-4.83,0-7.27c1.01,0,1.96-0.09,2.9,0.02c1.93,0.23,3.22,1.66,3.26,3.48C31.71,36.11,30.68,37.36,28.74,37.84z"/>
		</g>
		<g>
			<path class="st0" d="M8.57,24.75v1.39h3.72v0.56H8.57v1.38h-0.5v-3.34H8.57z"/>
			<path class="st0" d="M12.29,20.84v0.56H10.3v2.19h1.99v0.56H8.07v-0.56H9.8v-2.2H8.07v-0.56L12.29,20.84L12.29,20.84z"/>
			<path class="st0" d="M12.29,16.75v3.14H8.07v-3.04h0.5v2.49h1.29v-2.33h0.5v2.33h1.42v-2.58H12.29z"/>
		</g>
		<g>
			<path class="st0" d="M12.29,26.12h-3.7v-1.38c0-0.01-0.01-0.02-0.02-0.02h-0.5c-0.01,0-0.02,0.01-0.02,0.02v3.34
				c0,0.01,0.01,0.02,0.02,0.02h0.5c0.01,0,0.02-0.01,0.02-0.02v-1.37h3.7c0.01,0,0.02-0.01,0.02-0.02v-0.56
				C12.31,26.13,12.3,26.12,12.29,26.12z M12.27,26.68h-3.7c-0.01,0-0.02,0.01-0.02,0.02v1.37H8.09v-3.31h0.47v1.38
				c0,0.01,0.01,0.02,0.02,0.02h3.7V26.68z"/>
			<path class="st0" d="M12.29,20.82H8.07c-0.01,0-0.02,0.01-0.02,0.02v0.56c0,0.01,0.01,0.02,0.02,0.02h1.71v2.16H8.07
				c-0.01,0-0.02,0.01-0.02,0.02v0.56c0,0.01,0.01,0.02,0.02,0.02h4.22c0.01,0,0.02-0.01,0.02-0.02v-0.56
				c0-0.01-0.01-0.02-0.02-0.02h-1.97v-2.16h1.97c0.01,0,0.02-0.01,0.02-0.02v-0.56C12.31,20.83,12.3,20.82,12.29,20.82z
				 M12.27,21.37H10.3c-0.01,0-0.02,0.01-0.02,0.02v2.19c0,0.01,0.01,0.02,0.02,0.02h1.97v0.52H8.09V23.6H9.8
				c0.01,0,0.02-0.01,0.02-0.02v-2.2c0-0.01-0.01-0.02-0.02-0.02H8.09v-0.53h4.18V21.37z"/>
			<path class="st0" d="M12.29,16.73h-0.5c-0.01,0-0.02,0.01-0.02,0.02v2.57h-1.4v-2.31c0-0.01-0.01-0.02-0.02-0.02h-0.5
				c-0.01,0-0.02,0.01-0.02,0.02v2.31H8.59v-2.47c0-0.01-0.01-0.02-0.02-0.02h-0.5c-0.01,0-0.02,0.01-0.02,0.02v3.04
				c0,0.01,0.01,0.02,0.02,0.02h4.22c0.01,0,0.02-0.01,0.02-0.02v-3.14C12.31,16.74,12.3,16.73,12.29,16.73z M12.27,19.88H8.09
				v-3.02h0.47v2.47c0,0.01,0.01,0.02,0.02,0.02h1.29c0.01,0,0.02-0.01,0.02-0.02v-2.31h0.47v2.31c0,0.01,0.01,0.02,0.02,0.02h1.42
				c0.01,0,0.02-0.01,0.02-0.02v-2.57h0.47L12.27,19.88L12.27,19.88z"/>
		</g>
		<rect class="st1" width="201.1" height="59.8"/>
	</g>
</g>
</svg>
