<?xml version="1.0" encoding="utf-8"?>
<!-- Generator: Adobe Illustrator 22.0.1, SVG Export Plug-In . SVG Version: 6.00 Build 0)  -->
<svg version="1.1" id="圖層_1" xmlns="http://www.w3.org/2000/svg" xmlns:xlink="http://www.w3.org/1999/xlink" x="0px" y="0px"
	 viewBox="0 0 35 35" style="enable-background:new 0 0 35 35;" xml:space="preserve">
<style type="text/css">
	.st0{fill:#FFFFFF;}
	.st1{fill:#FF8728;}
</style>
<g>
	<path class="st0" d="M35,17.5C35,27.2,27.2,35,17.5,35C7.8,35,0,27.2,0,17.5C0,7.8,7.8,0,17.5,0C27.2,0,35,7.8,35,17.5"/>
	<path class="st1" d="M19.5,14.1H24l-0.6,4.5l0,0.1h-3.9v11.7h-4.7V18.6h-3.9v-4.5h3.9v-3.2h0c0,0-0.3-6,5.4-6.2l3.8,0.2l0,4.2h-3.1
		h0c-0.8,0-1.5,0.7-1.5,1.6c0,0.1,0,0.1,0,0.2h0v0.2h0V14.1z"/>
</g>
</svg>
