<?xml version="1.0" encoding="utf-8"?>
<!-- Generator: Adobe Illustrator 22.0.1, SVG Export Plug-In . SVG Version: 6.00 Build 0)  -->
<svg version="1.1" id="圖層_1" xmlns="http://www.w3.org/2000/svg" xmlns:xlink="http://www.w3.org/1999/xlink" x="0px" y="0px"
	 viewBox="0 0 35 35" style="enable-background:new 0 0 35 35;" xml:space="preserve">
<style type="text/css">
	.st0{fill:#FFFFFF;}
	.st1{fill:#FF8728;}
</style>
<g>
	<path class="st0" d="M35,17.5C35,27.2,27.2,35,17.5,35S0,27.2,0,17.5C0,7.8,7.8,0,17.5,0S35,7.8,35,17.5"/>
	<path class="st1" d="M29.2,8.2c-0.1,0-0.3,0-0.4,0H6.3c-0.2,0-0.5,0-0.7,0.1c-0.8,0.3-1.3,1-1.3,1.9v14.6c0,0.8,0.5,1.5,1.2,1.8
		c0.1,0.1,0.3,0.1,0.4,0.1l0.6,0h22.3c0.2,0,0.4,0,0.6-0.1c0.8-0.3,1.4-1,1.4-1.9V10.2C30.7,9.2,30.1,8.4,29.2,8.2 M26.5,9.2l-8,6.9
		l-0.9-0.7c-0.1-0.1-0.2-0.1-0.3-0.1c-0.1,0-0.2,0-0.3,0.1l-0.9,0.7l-8-6.9H26.5z M5.4,25.3c-0.1-0.2-0.2-0.3-0.2-0.6V10.2
		c0-0.6,0.5-1,1-1h0.4l8.8,7.6L5.4,25.3z M6.4,25.8l0.4-0.4l1-0.9l8.3-7.1l0.8-0.7l0.4-0.4l0.4,0.4l0.8,0.7l8.4,7.2l1.4,1.2H6.4z
		 M29.7,24.8c0,0.3-0.1,0.5-0.3,0.7l-10.2-8.8l8.8-7.6h0.7c0.6,0,1,0.5,1,1V24.8z"/>
</g>
</svg>
