<?xml version="1.0" encoding="utf-8"?>
<!-- Generator: Adobe Illustrator 22.0.1, SVG Export Plug-In . SVG Version: 6.00 Build 0)  -->
<svg version="1.1" id="圖層_1" xmlns="http://www.w3.org/2000/svg" xmlns:xlink="http://www.w3.org/1999/xlink" x="0px" y="0px"
	 viewBox="0 0 35 35" style="enable-background:new 0 0 35 35;" xml:space="preserve">
<style type="text/css">
	.st0{fill:#FFFFFF;}
	.st1{fill:#FF8728;}
</style>
<g>
	<g>
		<path class="st0" d="M35,17.5C35,27.2,27.2,35,17.5,35C7.8,35,0,27.2,0,17.5C0,7.8,7.8,0,17.5,0C27.2,0,35,7.8,35,17.5"/>
		<path class="st1" d="M22.8,7H12.2C9.3,7,7,9.3,7,12.2v10.6c0,2.9,2.3,5.2,5.2,5.2h10.6c2.9,0,5.2-2.3,5.2-5.2V12.2
			C28,9.3,25.7,7,22.8,7 M26.9,22.8c0,2.2-1.8,4.1-4.1,4.1H12.2c-2.2,0-4.1-1.8-4.1-4.1V12.2c0-2.2,1.8-4.1,4.1-4.1h10.6
			c2.2,0,4.1,1.8,4.1,4.1V22.8z"/>
		<path class="st1" d="M17.4,12.8c-2.6,0-4.7,2.1-4.7,4.7c0,2.6,2.1,4.7,4.7,4.7s4.7-2.1,4.7-4.7C22.1,14.9,20,12.8,17.4,12.8
			 M17.4,20.9c-1.9,0-3.5-1.6-3.5-3.5c0-1.9,1.6-3.5,3.5-3.5c1.9,0,3.5,1.6,3.5,3.5C20.9,19.4,19.4,20.9,17.4,20.9"/>
		<path class="st1" d="M25.3,11.7c0,0.8-0.7,1.5-1.5,1.5c-0.8,0-1.5-0.7-1.5-1.5c0-0.8,0.7-1.5,1.5-1.5
			C24.6,10.3,25.3,10.9,25.3,11.7"/>
	</g>
</g>
</svg>
