<?xml version="1.0" encoding="utf-8"?>
<!-- Generator: Adobe Illustrator 23.1.0, SVG Export Plug-In . SVG Version: 6.00 Build 0)  -->
<svg version="1.1" xmlns="http://www.w3.org/2000/svg" xmlns:xlink="http://www.w3.org/1999/xlink" x="0px" y="0px"
	 viewBox="0 0 580.4 265.9" style="enable-background:new 0 0 580.4 265.9;" xml:space="preserve">
<style type="text/css">
	.st0{fill:#FFFFFF;}
	.st1{fill:#D2D2D3;}
	.st2{fill:#969696;}
	.st3{fill:none;}
	.st4{fill:#EFECEA;}
	.st5{fill:#FF8728;}
	.st6{clip-path:url(#SVGID_2_);}
	.st7{clip-path:url(#SVGID_4_);}
	.st8{clip-path:url(#SVGID_6_);}
	.st9{clip-path:url(#SVGID_8_);}
	.st10{clip-path:url(#SVGID_10_);}
	.st11{clip-path:url(#SVGID_12_);}
	.st12{clip-path:url(#SVGID_14_);}
	.st13{clip-path:url(#SVGID_16_);}
	.st14{clip-path:url(#SVGID_18_);}
	.st15{clip-path:url(#SVGID_20_);}
	.st16{clip-path:url(#SVGID_22_);}
	.st17{clip-path:url(#SVGID_24_);}
	.st18{clip-path:url(#SVGID_26_);}
	.st19{clip-path:url(#SVGID_28_);}
	.st20{clip-path:url(#SVGID_30_);}
	.st21{clip-path:url(#SVGID_32_);}
	.st22{clip-path:url(#SVGID_34_);}
	.st23{clip-path:url(#SVGID_36_);}
	.st24{clip-path:url(#SVGID_38_);}
	.st25{clip-path:url(#SVGID_40_);}
	.st26{clip-path:url(#SVGID_42_);}
	.st27{clip-path:url(#SVGID_44_);}
	.st28{clip-path:url(#SVGID_46_);}
	.st29{clip-path:url(#SVGID_48_);}
	.st30{clip-path:url(#SVGID_50_);}
	.st31{clip-path:url(#SVGID_52_);}
	.st32{clip-path:url(#SVGID_54_);}
	.st33{clip-path:url(#SVGID_56_);}
	.st34{clip-path:url(#SVGID_58_);}
	.st35{clip-path:url(#SVGID_60_);}
	.st36{clip-path:url(#SVGID_62_);}
	.st37{clip-path:url(#SVGID_64_);}
	.st38{clip-path:url(#SVGID_66_);}
	.st39{clip-path:url(#SVGID_68_);}
	.st40{clip-path:url(#SVGID_70_);}
	.st41{clip-path:url(#SVGID_72_);}
	.st42{clip-path:url(#SVGID_74_);}
	.st43{clip-path:url(#SVGID_76_);}
	.st44{clip-path:url(#SVGID_78_);}
	.st45{clip-path:url(#SVGID_80_);}
	.st46{clip-path:url(#SVGID_82_);}
	.st47{fill:#5A5A5A;}
</style>
<g id="圖層_1">
</g>
<g id="圖層_2">
</g>
<g id="圖層_3">
	<g>
		<g>
			
				<image style="overflow:visible;opacity:0.2;" width="2468" height="1134" xlink:href="46D96D5A.png"  transform="matrix(0.24 0 0 0.24 -3.82 1.86)">
			</image>
			<g>
				<polyline class="st0" points="112,5.9 580.4,5.9 580.4,265.9 0.4,265.9 0.4,132.5 				"/>
			</g>
		</g>
		<rect x="274.3" y="133.4" class="st1" width="297.5" height="122.6"/>
		<g>
			<path class="st2" d="M44.3,59.6h9.2L34.2,79c-0.3,0-0.6,0-0.9,0c-4.4,0-8.2-0.9-11.4-2.7c-3.2-1.8-5.7-4.4-7.4-7.8
				c-1.7-3.4-2.6-7.4-2.6-12V40c0-4.6,0.9-8.6,2.6-12c1.7-3.4,4.2-6,7.4-7.8c3.2-1.8,7-2.7,11.4-2.7c3.6,0,6.9,0.8,9.9,2.3
				c3,1.6,5.4,3.8,7.4,6.7s3.3,6.4,4,10.3H44.3c-0.5-1.9-1.3-3.6-2.4-5.1c-1.1-1.5-2.4-2.6-3.8-3.3c-1.5-0.8-3.1-1.2-4.8-1.2
				c-2.3,0-4.3,0.5-6,1.6c-1.7,1-3,2.5-3.9,4.4c-0.9,1.9-1.4,4.2-1.4,6.8v16.6c0,2.6,0.5,4.8,1.4,6.8c0.9,1.9,2.2,3.4,3.9,4.4
				c1.7,1,3.7,1.5,6,1.5c1.8,0,3.4-0.4,4.8-1.1c1.5-0.8,2.8-1.8,3.8-3.3C43.1,63.4,43.9,61.7,44.3,59.6z"/>
		</g>
		<polygon class="st3" points="-10,123.9 108,5.9 -10,5.9 		"/>
		<g>
			<polygon class="st1" points="270.3,256.9 8.3,256.9 8.3,122.9 10.3,122.9 10.3,254.9 268.3,254.9 268.3,16.9 101,16.9 101,14.9 
				270.3,14.9 			"/>
		</g>
		<g id="XMLID_3_">
			<path id="XMLID_33_" class="st4" d="M67.1,93.8l9.4,77c0,0,32.3-6.2,45.7,14.4v-76.1C122.2,109.1,98.4,90.6,67.1,93.8z"/>
			<path id="XMLID_32_" class="st5" d="M168,170.8l9.4-77c-31.3-3.2-55.1,15.3-55.1,15.3h0v76.1l0,0
				C135.7,164.7,168,170.8,168,170.8z"/>
			<path id="XMLID_30_" class="st1" d="M119.6,199.3c-10-12.2-30-14-41-14c-7.6,0-13.1,0.8-13.2,0.8l-3.4,0.5l-11-72
				c-2.6,0-5.3,0.2-8.1,0.4l13.5,77c0,0,46.4-6.2,65.8,14.4v-3.9L119.6,199.3z"/>
			<path id="XMLID_28_" class="st4" d="M193.5,114.6l-11,72l-3.4-0.5c-0.1,0-5.6-0.8-13.2-0.8c-11,0-31,1.8-41,14l-2.6,3.2v3.9h0
				C141.6,185.8,188,192,188,192l13.5-77C198.8,114.8,196.1,114.7,193.5,114.6z"/>
			<path id="XMLID_26_" class="st1" d="M119.4,187.5c-7.4-11.3-21.4-13.7-31.9-13.7c-6,0-10.3,0.8-10.3,0.8l-3.6,0.7l-0.5-4
				L64.9,105c-3.8-0.1-7.7,0-11.8,0.3l11.8,77c0,0,40.4-6.2,57.3,14.4v-4.8L119.4,187.5z"/>
			<path id="XMLID_24_" class="st4" d="M179.6,182.3l11.8-77c-4-0.3-8-0.4-11.8-0.3l-8.6,70.4l-3.6-0.7c0,0-4.3-0.8-10.3-0.8
				c-10.5,0-24.5,2.4-31.9,13.7l-2.9,4.4v4.8h0C139.1,176.1,179.6,182.3,179.6,182.3z"/>
		</g>
		<g>
			<path class="st0" d="M60.1,128.5C46,128.5,34.3,117.1,34,103c-0.3-14.4,11.1-26.4,25.5-26.7c0.2,0,0.4,0,0.6,0
				c14.1,0,25.8,11.5,26.1,25.5c0.2,7-2.4,13.6-7.2,18.6c-4.8,5-11.3,7.9-18.3,8.1C60.5,128.5,60.3,128.5,60.1,128.5z"/>
			<g>
				<path class="st1" d="M60.1,125.8c-12.7,0-23.1-10.1-23.4-22.9c-0.1-6.2,2.2-12.2,6.5-16.7c4.3-4.5,10.1-7.1,16.4-7.2
					c6.3-0.1,12.2,2.2,16.7,6.5c4.5,4.3,7.1,10.1,7.2,16.4S81.3,114,77,118.6c-4.3,4.5-10.1,7.1-16.4,7.2
					C60.5,125.8,60.3,125.8,60.1,125.8z M60.1,81c-0.2,0-0.3,0-0.5,0c-5.7,0.1-11,2.5-15,6.6c-3.9,4.1-6,9.6-5.9,15.3
					c0.3,11.8,10.1,21.2,21.9,20.9c5.7-0.1,11-2.5,15-6.6c3.9-4.1,6-9.6,5.9-15.3c-0.1-5.7-2.5-11-6.6-15C70.9,83.1,65.6,81,60.1,81
					z"/>
			</g>
			<g>
				<g>
					<path class="st2" d="M51.9,106l-5-7.1l3.2-0.1l3.5,5.4l5.1,7.2l-3.2,0.1L51.9,106z M51.5,104.5l1.7,2.3l-3,4.8l-3.2,0.1
						L51.5,104.5z M52.5,103.3l2.5-4.6l3.2-0.1l-4.2,7L52.5,103.3z"/>
					<path class="st2" d="M64.2,110.8c-0.7-0.4-1.3-0.9-1.8-1.7s-0.8-1.6-0.9-2.6v0l2.9-0.1l0,0c0.1,0.7,0.3,1.2,0.7,1.5
						c0.4,0.4,0.9,0.5,1.5,0.5c0.7,0,1.2-0.3,1.6-0.7c0.4-0.5,0.5-1.1,0.5-2l0-1.5c0-0.8-0.2-1.5-0.6-1.9c-0.4-0.5-0.9-0.7-1.6-0.7
						c-0.5,0-0.9,0.1-1.2,0.4c-0.4,0.3-0.7,0.6-0.9,1.1l-2.7,0.1l-0.2-9.9l9.4-0.2L71,96l-6.4,0.1l0.1,3.6c0.3-0.3,0.6-0.5,1-0.6
						s0.8-0.2,1.2-0.2c1,0,1.8,0.2,2.5,0.6c0.7,0.4,1.3,1,1.6,1.8c0.4,0.8,0.6,1.8,0.6,3l0,1.5c0,1.2-0.2,2.1-0.5,3
						c-0.4,0.8-1,1.5-1.7,1.9c-0.8,0.4-1.7,0.7-2.8,0.7C65.8,111.4,65,111.2,64.2,110.8z"/>
				</g>
			</g>
		</g>
		<g>
			<polygon class="st1" points="113.9,0.7 54.4,60.2 35.7,78.9 0.7,113.9 0,113.2 34.2,79 53.5,59.6 113.2,0 			"/>
		</g>
		<g>
			<path class="st2" d="M238.7,187.3h-28.3V142h48v25.5C258.4,178.4,249.6,187.3,238.7,187.3z"/>
			<g>
				<path class="st0" d="M218.7,158.7l3.9-5.2c0.2-0.3,0.4-0.5,0.5-0.8c0.1-0.3,0.2-0.5,0.2-0.8v0c0-0.4-0.1-0.7-0.3-0.9
					c-0.2-0.2-0.6-0.3-1-0.3c-0.4,0-0.7,0.1-1,0.4c-0.3,0.3-0.4,0.6-0.5,1.1v0h-1.9v0c0.1-0.7,0.3-1.3,0.5-1.8
					c0.3-0.5,0.7-0.9,1.2-1.1c0.5-0.3,1-0.4,1.7-0.4c0.7,0,1.3,0.1,1.8,0.3c0.5,0.2,0.9,0.6,1.1,1s0.4,1,0.4,1.6v0
					c0,0.5-0.1,0.9-0.3,1.4c-0.2,0.5-0.4,0.9-0.7,1.3l-3,4h4.1v1.8h-6.6V158.7z"/>
				<path class="st0" d="M228.3,159.6c-0.6-0.6-0.8-1.4-0.8-2.4v-5.2c0-1,0.3-1.8,0.9-2.4c0.6-0.6,1.4-0.8,2.5-0.8
					c1.1,0,1.9,0.3,2.5,0.8c0.6,0.6,0.8,1.4,0.8,2.4v5.2c0,1-0.3,1.8-0.9,2.4c-0.6,0.6-1.4,0.8-2.5,0.8
					C229.7,160.5,228.9,160.2,228.3,159.6z M231.9,158.3c0.2-0.3,0.4-0.7,0.4-1.3v-4.6c0-0.6-0.1-1-0.4-1.3s-0.6-0.4-1.1-0.4
					s-0.9,0.1-1.1,0.4s-0.4,0.7-0.4,1.3v4.6c0,0.6,0.1,1,0.4,1.3s0.6,0.4,1.1,0.4S231.6,158.6,231.9,158.3z"/>
				<path class="st0" d="M236.7,153.4c-0.3-0.4-0.5-0.8-0.5-1.5v-1c0-0.6,0.2-1.1,0.5-1.5s0.8-0.5,1.5-0.5c0.6,0,1.1,0.2,1.5,0.5
					c0.3,0.4,0.5,0.8,0.5,1.5v1c0,0.6-0.2,1.1-0.5,1.5s-0.8,0.5-1.5,0.5S237.1,153.7,236.7,153.4z M243.2,149h1.7l-6.1,11.4h-1.7
					L243.2,149z M238.5,152.3c0.1-0.1,0.1-0.2,0.1-0.4v-1c0-0.2,0-0.3-0.1-0.4c-0.1-0.1-0.2-0.1-0.3-0.1c-0.2,0-0.3,0-0.3,0.1
					c-0.1,0.1-0.1,0.2-0.1,0.4v1c0,0.2,0,0.3,0.1,0.4c0.1,0.1,0.2,0.1,0.3,0.1C238.3,152.5,238.5,152.4,238.5,152.3z M242.4,160
					c-0.3-0.4-0.5-0.8-0.5-1.5v-1c0-0.6,0.2-1.1,0.5-1.5s0.8-0.5,1.5-0.5c0.6,0,1.1,0.2,1.5,0.5c0.3,0.4,0.5,0.8,0.5,1.5v1
					c0,0.6-0.2,1.1-0.5,1.5s-0.8,0.5-1.5,0.5S242.7,160.3,242.4,160z M244.2,158.9c0.1-0.1,0.1-0.2,0.1-0.4v-1c0-0.2,0-0.3-0.1-0.4
					c-0.1-0.1-0.2-0.1-0.3-0.1c-0.2,0-0.3,0-0.3,0.1c-0.1,0.1-0.1,0.2-0.1,0.4v1c0,0.2,0,0.3,0.1,0.4c0.1,0.1,0.2,0.1,0.3,0.1
					C244,159.1,244.1,159,244.2,158.9z"/>
				<path class="st0" d="M220.8,180.7c-0.6-0.3-1.1-0.8-1.4-1.5c-0.3-0.6-0.5-1.4-0.5-2.2v-3.2c0-0.8,0.2-1.6,0.5-2.2
					c0.3-0.6,0.8-1.1,1.4-1.5c0.6-0.3,1.3-0.5,2.1-0.5c0.8,0,1.5,0.2,2.1,0.5c0.6,0.3,1.1,0.8,1.4,1.5c0.3,0.6,0.5,1.4,0.5,2.2v3.2
					c0,0.8-0.2,1.6-0.5,2.2c-0.3,0.6-0.8,1.1-1.4,1.5c-0.6,0.3-1.3,0.5-2.1,0.5C222.1,181.2,221.4,181.1,220.8,180.7z M224,179.1
					c0.3-0.2,0.6-0.5,0.8-0.8c0.2-0.3,0.3-0.7,0.3-1.2v-3.3c0-0.5-0.1-0.9-0.3-1.2c-0.2-0.3-0.4-0.6-0.8-0.8
					c-0.3-0.2-0.7-0.3-1.1-0.3c-0.4,0-0.8,0.1-1.1,0.3c-0.3,0.2-0.6,0.5-0.8,0.8c-0.2,0.3-0.3,0.7-0.3,1.2v3.3
					c0,0.5,0.1,0.9,0.3,1.2c0.2,0.3,0.4,0.6,0.8,0.8c0.3,0.2,0.7,0.3,1.1,0.3C223.3,179.4,223.7,179.3,224,179.1z"/>
				<path class="st0" d="M229.6,169.8h1.9v11.4h-1.9V169.8z M230.4,169.8h6.5v1.8h-6.5V169.8z M230.4,174.7h5.7v1.8h-5.7V174.7z"/>
				<path class="st0" d="M239,169.8h1.9v11.4H239V169.8z M239.8,169.8h6.5v1.8h-6.5V169.8z M239.8,174.7h5.7v1.8h-5.7V174.7z"/>
			</g>
		</g>
		<g>
			<rect x="210.4" y="101.8" class="st5" width="48" height="25.1"/>
			<g>
				<path class="st0" d="M217.1,109.7h1.6v9.9h-1.6V109.7z M217.9,118.1h5.8v1.6h-5.8V118.1z"/>
				<path class="st0" d="M226.7,119.3c-0.5-0.3-1-0.7-1.3-1.3c-0.3-0.6-0.4-1.2-0.4-1.9v-2.8c0-0.7,0.1-1.4,0.4-1.9
					c0.3-0.6,0.7-1,1.3-1.3c0.5-0.3,1.2-0.5,1.9-0.5c0.7,0,1.3,0.2,1.9,0.5c0.5,0.3,1,0.7,1.3,1.3c0.3,0.6,0.4,1.2,0.4,1.9v2.8
					c0,0.7-0.1,1.4-0.4,1.9c-0.3,0.6-0.7,1-1.3,1.3c-0.5,0.3-1.2,0.5-1.9,0.5C227.8,119.8,227.2,119.6,226.7,119.3z M229.5,117.9
					c0.3-0.2,0.5-0.4,0.7-0.7c0.2-0.3,0.2-0.7,0.2-1v-2.9c0-0.4-0.1-0.7-0.2-1c-0.2-0.3-0.4-0.5-0.7-0.7c-0.3-0.2-0.6-0.2-1-0.2
					c-0.4,0-0.7,0.1-1,0.2c-0.3,0.2-0.5,0.4-0.7,0.7c-0.2,0.3-0.2,0.7-0.2,1v2.9c0,0.4,0.1,0.7,0.2,1c0.2,0.3,0.4,0.5,0.7,0.7
					c0.3,0.2,0.6,0.2,1,0.2C228.9,118.2,229.2,118.1,229.5,117.9z"/>
				<path class="st0" d="M241.2,114.2v1.8c0,0.7-0.1,1.4-0.4,2c-0.3,0.6-0.7,1-1.2,1.3c-0.5,0.3-1.2,0.5-1.9,0.5
					c-0.7,0-1.3-0.1-1.9-0.4c-0.5-0.3-1-0.7-1.3-1.2c-0.3-0.5-0.4-1.1-0.4-1.8v-2.9c0-0.7,0.1-1.4,0.4-1.9s0.7-1,1.2-1.3
					c0.5-0.3,1.2-0.5,1.9-0.5c0.6,0,1.1,0.1,1.6,0.4c0.5,0.2,0.9,0.6,1.2,1s0.6,1,0.7,1.6h-1.8c-0.1-0.3-0.2-0.5-0.4-0.7
					c-0.2-0.2-0.4-0.3-0.6-0.4c-0.2-0.1-0.5-0.2-0.7-0.2c-0.4,0-0.7,0.1-1,0.3c-0.3,0.2-0.5,0.4-0.7,0.7c-0.2,0.3-0.2,0.7-0.2,1.1
					v2.9c0,0.4,0.1,0.7,0.2,1c0.2,0.3,0.4,0.5,0.7,0.7c0.3,0.2,0.6,0.2,1,0.2c0.4,0,0.7-0.1,1-0.2c0.3-0.2,0.5-0.4,0.7-0.7
					c0.2-0.3,0.2-0.7,0.2-1.1v-0.3h-1.8v-1.6H241.2z"/>
				<path class="st0" d="M244.8,119.3c-0.5-0.3-1-0.7-1.3-1.3c-0.3-0.6-0.4-1.2-0.4-1.9v-2.8c0-0.7,0.1-1.4,0.4-1.9
					c0.3-0.6,0.7-1,1.3-1.3c0.5-0.3,1.2-0.5,1.9-0.5c0.7,0,1.3,0.2,1.9,0.5c0.5,0.3,1,0.7,1.3,1.3c0.3,0.6,0.4,1.2,0.4,1.9v2.8
					c0,0.7-0.1,1.4-0.4,1.9c-0.3,0.6-0.7,1-1.3,1.3c-0.5,0.3-1.2,0.5-1.9,0.5C246,119.8,245.3,119.6,244.8,119.3z M247.7,117.9
					c0.3-0.2,0.5-0.4,0.7-0.7c0.2-0.3,0.2-0.7,0.2-1v-2.9c0-0.4-0.1-0.7-0.2-1c-0.2-0.3-0.4-0.5-0.7-0.7c-0.3-0.2-0.6-0.2-1-0.2
					c-0.4,0-0.7,0.1-1,0.2c-0.3,0.2-0.5,0.4-0.7,0.7c-0.2,0.3-0.2,0.7-0.2,1v2.9c0,0.4,0.1,0.7,0.2,1c0.2,0.3,0.4,0.5,0.7,0.7
					c0.3,0.2,0.6,0.2,1,0.2C247,118.2,247.4,118.1,247.7,117.9z"/>
			</g>
		</g>
		<g>
			<g>
				<defs>
					<rect id="SVGID_1_" x="274.3" y="133.4" width="297.5" height="122.1"/>
				</defs>
				<clipPath id="SVGID_2_">
					<use xlink:href="#SVGID_1_"  style="overflow:visible;"/>
				</clipPath>
				<g class="st6">
					<g>
						<defs>
							<rect id="SVGID_3_" x="559.3" y="106.9" width="33.2" height="44.1"/>
						</defs>
						<clipPath id="SVGID_4_">
							<use xlink:href="#SVGID_3_"  style="overflow:visible;"/>
						</clipPath>
						<g class="st7">
							<rect x="559.6" y="117.8" class="st4" width="32.7" height="0.5"/>
						</g>
						<g class="st7">
							<rect x="559.6" y="128.7" class="st4" width="32.7" height="0.5"/>
						</g>
						<g class="st7">
							<rect x="559.6" y="139.6" class="st4" width="32.7" height="0.5"/>
						</g>
						<g class="st7">
							<rect x="570.2" y="107.2" class="st4" width="0.5" height="43.6"/>
						</g>
						<g class="st7">
							<path class="st4" d="M592.6,151.1h-33.2v-44.1h33.2V151.1z M559.8,150.5H592v-43.1h-32.2V150.5z"/>
						</g>
					</g>
				</g>
				<g class="st6">
					<g>
						<defs>
							<rect id="SVGID_5_" x="559.3" y="151.1" width="33.2" height="44.1"/>
						</defs>
						<clipPath id="SVGID_6_">
							<use xlink:href="#SVGID_5_"  style="overflow:visible;"/>
						</clipPath>
						<g class="st8">
							<rect x="559.6" y="162" class="st4" width="32.7" height="0.5"/>
						</g>
						<g class="st8">
							<rect x="559.6" y="172.9" class="st4" width="32.7" height="0.5"/>
						</g>
						<g class="st8">
							<rect x="559.6" y="183.8" class="st4" width="32.7" height="0.5"/>
						</g>
						<g class="st8">
							<rect x="570.2" y="151.3" class="st4" width="0.5" height="43.6"/>
						</g>
						<g class="st8">
							<path class="st4" d="M592.6,195.2h-33.2v-44.1h33.2V195.2z M559.8,194.7H592v-43.1h-32.2V194.7z"/>
						</g>
					</g>
				</g>
				<g class="st6">
					<g>
						<defs>
							<rect id="SVGID_7_" x="559.3" y="195.2" width="33.2" height="44.1"/>
						</defs>
						<clipPath id="SVGID_8_">
							<use xlink:href="#SVGID_7_"  style="overflow:visible;"/>
						</clipPath>
						<g class="st9">
							<rect x="559.6" y="206.1" class="st4" width="32.7" height="0.5"/>
						</g>
						<g class="st9">
							<rect x="559.6" y="217" class="st4" width="32.7" height="0.5"/>
						</g>
						<g class="st9">
							<rect x="559.6" y="227.9" class="st4" width="32.7" height="0.5"/>
						</g>
						<g class="st9">
							<rect x="570.2" y="195.5" class="st4" width="0.5" height="43.6"/>
						</g>
						<g class="st9">
							<path class="st4" d="M592.6,239.4h-33.2v-44.2h33.2V239.4z M559.8,238.8H592v-43.1h-32.2V238.8z"/>
						</g>
					</g>
				</g>
				<g class="st6">
					<g>
						<defs>
							<rect id="SVGID_9_" x="559.3" y="239.4" width="33.2" height="44.1"/>
						</defs>
						<clipPath id="SVGID_10_">
							<use xlink:href="#SVGID_9_"  style="overflow:visible;"/>
						</clipPath>
						<g class="st10">
							<rect x="559.6" y="250.3" class="st4" width="32.7" height="0.5"/>
						</g>
						<g class="st10">
							<rect x="559.6" y="261.2" class="st4" width="32.7" height="0.5"/>
						</g>
						<g class="st10">
							<rect x="570.2" y="239.6" class="st4" width="0.5" height="43.6"/>
						</g>
						<g class="st10">
							<path class="st4" d="M592.6,283.5h-33.2v-44.1h33.2V283.5z M559.8,283H592v-43.1h-32.2V283z"/>
						</g>
					</g>
				</g>
				<g class="st6">
					<g>
						<defs>
							<rect id="SVGID_11_" x="526.1" y="106.9" width="33.2" height="44.1"/>
						</defs>
						<clipPath id="SVGID_12_">
							<use xlink:href="#SVGID_11_"  style="overflow:visible;"/>
						</clipPath>
						<g class="st11">
							<rect x="526.3" y="117.8" class="st4" width="32.7" height="0.5"/>
						</g>
						<g class="st11">
							<rect x="526.3" y="128.7" class="st4" width="32.7" height="0.5"/>
						</g>
						<g class="st11">
							<rect x="526.3" y="139.6" class="st4" width="32.7" height="0.5"/>
						</g>
						<g class="st11">
							<rect x="547.9" y="107.2" class="st4" width="0.5" height="43.6"/>
						</g>
						<g class="st11">
							<rect x="537" y="107.2" class="st4" width="0.5" height="43.6"/>
						</g>
						<g class="st11">
							<path class="st4" d="M559.3,151.1h-33.2v-44.1h33.2V151.1z M526.6,150.5h32.2v-43.1h-32.2V150.5z"/>
						</g>
					</g>
				</g>
				<g class="st6">
					<g>
						<defs>
							<rect id="SVGID_13_" x="526.1" y="151.1" width="33.2" height="44.1"/>
						</defs>
						<clipPath id="SVGID_14_">
							<use xlink:href="#SVGID_13_"  style="overflow:visible;"/>
						</clipPath>
						<g class="st12">
							<rect x="526.3" y="162" class="st4" width="32.7" height="0.5"/>
						</g>
						<g class="st12">
							<rect x="526.3" y="172.9" class="st4" width="32.7" height="0.5"/>
						</g>
						<g class="st12">
							<rect x="526.3" y="183.8" class="st4" width="32.7" height="0.5"/>
						</g>
						<g class="st12">
							<rect x="547.9" y="151.3" class="st4" width="0.5" height="43.6"/>
						</g>
						<g class="st12">
							<rect x="537" y="151.3" class="st4" width="0.5" height="43.6"/>
						</g>
						<g class="st12">
							<path class="st4" d="M559.3,195.2h-33.2v-44.1h33.2V195.2z M526.6,194.7h32.2v-43.1h-32.2V194.7z"/>
						</g>
					</g>
				</g>
				<g class="st6">
					<g>
						<defs>
							<rect id="SVGID_15_" x="526.1" y="195.2" width="33.2" height="44.1"/>
						</defs>
						<clipPath id="SVGID_16_">
							<use xlink:href="#SVGID_15_"  style="overflow:visible;"/>
						</clipPath>
						<g class="st13">
							<rect x="526.3" y="206.1" class="st4" width="32.7" height="0.5"/>
						</g>
						<g class="st13">
							<rect x="526.3" y="217" class="st4" width="32.7" height="0.5"/>
						</g>
						<g class="st13">
							<rect x="526.3" y="227.9" class="st4" width="32.7" height="0.5"/>
						</g>
						<g class="st13">
							<rect x="547.9" y="195.5" class="st4" width="0.5" height="43.6"/>
						</g>
						<g class="st13">
							<rect x="537" y="195.5" class="st4" width="0.5" height="43.6"/>
						</g>
						<g class="st13">
							<path class="st4" d="M559.3,239.4h-33.2v-44.2h33.2V239.4z M526.6,238.8h32.2v-43.1h-32.2V238.8z"/>
						</g>
					</g>
				</g>
				<g class="st6">
					<g>
						<defs>
							<rect id="SVGID_17_" x="526.1" y="239.4" width="33.2" height="44.1"/>
						</defs>
						<clipPath id="SVGID_18_">
							<use xlink:href="#SVGID_17_"  style="overflow:visible;"/>
						</clipPath>
						<g class="st14">
							<rect x="526.3" y="250.3" class="st4" width="32.7" height="0.5"/>
						</g>
						<g class="st14">
							<rect x="526.3" y="261.2" class="st4" width="32.7" height="0.5"/>
						</g>
						<g class="st14">
							<rect x="547.9" y="239.6" class="st4" width="0.5" height="43.6"/>
						</g>
						<g class="st14">
							<rect x="537" y="239.6" class="st4" width="0.5" height="43.6"/>
						</g>
						<g class="st14">
							<path class="st4" d="M559.3,283.5h-33.2v-44.1h33.2V283.5z M526.6,283h32.2v-43.1h-32.2V283z"/>
						</g>
					</g>
				</g>
				<g class="st6">
					<g>
						<defs>
							<rect id="SVGID_19_" x="492.8" y="106.9" width="33.2" height="44.1"/>
						</defs>
						<clipPath id="SVGID_20_">
							<use xlink:href="#SVGID_19_"  style="overflow:visible;"/>
						</clipPath>
						<g class="st15">
							<rect x="493.1" y="117.8" class="st4" width="32.7" height="0.5"/>
						</g>
						<g class="st15">
							<rect x="493.1" y="128.7" class="st4" width="32.7" height="0.5"/>
						</g>
						<g class="st15">
							<rect x="493.1" y="139.6" class="st4" width="32.7" height="0.5"/>
						</g>
						<g class="st15">
							<rect x="514.6" y="107.2" class="st4" width="0.5" height="43.6"/>
						</g>
						<g class="st15">
							<rect x="503.7" y="107.2" class="st4" width="0.5" height="43.6"/>
						</g>
						<g class="st15">
							<path class="st4" d="M526.1,151.1h-33.2v-44.1h33.2V151.1z M493.4,150.5h32.2v-43.1h-32.2V150.5z"/>
						</g>
					</g>
				</g>
				<g class="st6">
					<g>
						<defs>
							<rect id="SVGID_21_" x="492.8" y="151.1" width="33.2" height="44.1"/>
						</defs>
						<clipPath id="SVGID_22_">
							<use xlink:href="#SVGID_21_"  style="overflow:visible;"/>
						</clipPath>
						<g class="st16">
							<rect x="493.1" y="162" class="st4" width="32.7" height="0.5"/>
						</g>
						<g class="st16">
							<rect x="493.1" y="172.9" class="st4" width="32.7" height="0.5"/>
						</g>
						<g class="st16">
							<rect x="493.1" y="183.8" class="st4" width="32.7" height="0.5"/>
						</g>
						<g class="st16">
							<rect x="514.6" y="151.3" class="st4" width="0.5" height="43.6"/>
						</g>
						<g class="st16">
							<rect x="503.7" y="151.3" class="st4" width="0.5" height="43.6"/>
						</g>
						<g class="st16">
							<path class="st4" d="M526.1,195.2h-33.2v-44.1h33.2V195.2z M493.4,194.7h32.2v-43.1h-32.2V194.7z"/>
						</g>
					</g>
				</g>
				<g class="st6">
					<g>
						<defs>
							<rect id="SVGID_23_" x="492.8" y="195.2" width="33.2" height="44.1"/>
						</defs>
						<clipPath id="SVGID_24_">
							<use xlink:href="#SVGID_23_"  style="overflow:visible;"/>
						</clipPath>
						<g class="st17">
							<rect x="493.1" y="206.1" class="st4" width="32.7" height="0.5"/>
						</g>
						<g class="st17">
							<rect x="493.1" y="217" class="st4" width="32.7" height="0.5"/>
						</g>
						<g class="st17">
							<rect x="493.1" y="227.9" class="st4" width="32.7" height="0.5"/>
						</g>
						<g class="st17">
							<rect x="514.6" y="195.5" class="st4" width="0.5" height="43.6"/>
						</g>
						<g class="st17">
							<rect x="503.7" y="195.5" class="st4" width="0.5" height="43.6"/>
						</g>
						<g class="st17">
							<path class="st4" d="M526.1,239.4h-33.2v-44.2h33.2V239.4z M493.4,238.8h32.2v-43.1h-32.2V238.8z"/>
						</g>
					</g>
				</g>
				<g class="st6">
					<g>
						<defs>
							<rect id="SVGID_25_" x="492.8" y="239.4" width="33.2" height="44.1"/>
						</defs>
						<clipPath id="SVGID_26_">
							<use xlink:href="#SVGID_25_"  style="overflow:visible;"/>
						</clipPath>
						<g class="st18">
							<rect x="493.1" y="250.3" class="st4" width="32.7" height="0.5"/>
						</g>
						<g class="st18">
							<rect x="493.1" y="261.2" class="st4" width="32.7" height="0.5"/>
						</g>
						<g class="st18">
							<rect x="514.6" y="239.6" class="st4" width="0.5" height="43.6"/>
						</g>
						<g class="st18">
							<rect x="503.7" y="239.6" class="st4" width="0.5" height="43.6"/>
						</g>
						<g class="st18">
							<path class="st4" d="M526.1,283.5h-33.2v-44.1h33.2V283.5z M493.4,283h32.2v-43.1h-32.2V283z"/>
						</g>
					</g>
				</g>
				<g class="st6">
					<g>
						<defs>
							<rect id="SVGID_27_" x="459.6" y="106.9" width="33.2" height="44.1"/>
						</defs>
						<clipPath id="SVGID_28_">
							<use xlink:href="#SVGID_27_"  style="overflow:visible;"/>
						</clipPath>
						<g class="st19">
							<rect x="459.9" y="117.8" class="st4" width="32.7" height="0.5"/>
						</g>
						<g class="st19">
							<rect x="459.9" y="128.7" class="st4" width="32.7" height="0.5"/>
						</g>
						<g class="st19">
							<rect x="459.9" y="139.6" class="st4" width="32.7" height="0.5"/>
						</g>
						<g class="st19">
							<rect x="481.4" y="107.2" class="st4" width="0.5" height="43.6"/>
						</g>
						<g class="st19">
							<rect x="470.5" y="107.2" class="st4" width="0.5" height="43.6"/>
						</g>
						<g class="st19">
							<path class="st4" d="M492.8,151.1h-33.2v-44.1h33.2V151.1z M460.1,150.5h32.2v-43.1h-32.2V150.5z"/>
						</g>
					</g>
				</g>
				<g class="st6">
					<g>
						<defs>
							<rect id="SVGID_29_" x="459.6" y="151.1" width="33.2" height="44.1"/>
						</defs>
						<clipPath id="SVGID_30_">
							<use xlink:href="#SVGID_29_"  style="overflow:visible;"/>
						</clipPath>
						<g class="st20">
							<rect x="459.9" y="162" class="st4" width="32.7" height="0.5"/>
						</g>
						<g class="st20">
							<rect x="459.9" y="172.9" class="st4" width="32.7" height="0.5"/>
						</g>
						<g class="st20">
							<rect x="459.9" y="183.8" class="st4" width="32.7" height="0.5"/>
						</g>
						<g class="st20">
							<rect x="481.4" y="151.3" class="st4" width="0.5" height="43.6"/>
						</g>
						<g class="st20">
							<rect x="470.5" y="151.3" class="st4" width="0.5" height="43.6"/>
						</g>
						<g class="st20">
							<path class="st4" d="M492.8,195.2h-33.2v-44.1h33.2V195.2z M460.1,194.7h32.2v-43.1h-32.2V194.7z"/>
						</g>
					</g>
				</g>
				<g class="st6">
					<g>
						<defs>
							<rect id="SVGID_31_" x="459.6" y="195.2" width="33.2" height="44.1"/>
						</defs>
						<clipPath id="SVGID_32_">
							<use xlink:href="#SVGID_31_"  style="overflow:visible;"/>
						</clipPath>
						<g class="st21">
							<rect x="459.9" y="206.1" class="st4" width="32.7" height="0.5"/>
						</g>
						<g class="st21">
							<rect x="459.9" y="217" class="st4" width="32.7" height="0.5"/>
						</g>
						<g class="st21">
							<rect x="459.9" y="227.9" class="st4" width="32.7" height="0.5"/>
						</g>
						<g class="st21">
							<rect x="481.4" y="195.5" class="st4" width="0.5" height="43.6"/>
						</g>
						<g class="st21">
							<rect x="470.5" y="195.5" class="st4" width="0.5" height="43.6"/>
						</g>
						<g class="st21">
							<path class="st4" d="M492.8,239.4h-33.2v-44.2h33.2V239.4z M460.1,238.8h32.2v-43.1h-32.2V238.8z"/>
						</g>
					</g>
				</g>
				<g class="st6">
					<g>
						<defs>
							<rect id="SVGID_33_" x="459.6" y="239.4" width="33.2" height="44.1"/>
						</defs>
						<clipPath id="SVGID_34_">
							<use xlink:href="#SVGID_33_"  style="overflow:visible;"/>
						</clipPath>
						<g class="st22">
							<rect x="459.9" y="250.3" class="st4" width="32.7" height="0.5"/>
						</g>
						<g class="st22">
							<rect x="459.9" y="261.2" class="st4" width="32.7" height="0.5"/>
						</g>
						<g class="st22">
							<rect x="481.4" y="239.6" class="st4" width="0.5" height="43.6"/>
						</g>
						<g class="st22">
							<rect x="470.5" y="239.6" class="st4" width="0.5" height="43.6"/>
						</g>
						<g class="st22">
							<path class="st4" d="M492.8,283.5h-33.2v-44.1h33.2V283.5z M460.1,283h32.2v-43.1h-32.2V283z"/>
						</g>
					</g>
				</g>
				<g class="st6">
					<g>
						<defs>
							<rect id="SVGID_35_" x="426.3" y="106.9" width="33.2" height="44.1"/>
						</defs>
						<clipPath id="SVGID_36_">
							<use xlink:href="#SVGID_35_"  style="overflow:visible;"/>
						</clipPath>
						<g class="st23">
							<rect x="426.6" y="117.8" class="st4" width="32.7" height="0.5"/>
						</g>
						<g class="st23">
							<rect x="426.6" y="128.7" class="st4" width="32.7" height="0.5"/>
						</g>
						<g class="st23">
							<rect x="426.6" y="139.6" class="st4" width="32.7" height="0.5"/>
						</g>
						<g class="st23">
							<rect x="448.2" y="107.2" class="st4" width="0.5" height="43.6"/>
						</g>
						<g class="st23">
							<rect x="437.3" y="107.2" class="st4" width="0.5" height="43.6"/>
						</g>
						<g class="st23">
							<path class="st4" d="M459.6,151.1h-33.2v-44.1h33.2V151.1z M426.9,150.5h32.2v-43.1h-32.2V150.5z"/>
						</g>
					</g>
				</g>
				<g class="st6">
					<g>
						<defs>
							<rect id="SVGID_37_" x="426.3" y="151.1" width="33.2" height="44.1"/>
						</defs>
						<clipPath id="SVGID_38_">
							<use xlink:href="#SVGID_37_"  style="overflow:visible;"/>
						</clipPath>
						<g class="st24">
							<rect x="426.6" y="162" class="st4" width="32.7" height="0.5"/>
						</g>
						<g class="st24">
							<rect x="426.6" y="172.9" class="st4" width="32.7" height="0.5"/>
						</g>
						<g class="st24">
							<rect x="426.6" y="183.8" class="st4" width="32.7" height="0.5"/>
						</g>
						<g class="st24">
							<rect x="448.2" y="151.3" class="st4" width="0.5" height="43.6"/>
						</g>
						<g class="st24">
							<rect x="437.3" y="151.3" class="st4" width="0.5" height="43.6"/>
						</g>
						<g class="st24">
							<path class="st4" d="M459.6,195.2h-33.2v-44.1h33.2V195.2z M426.9,194.7h32.2v-43.1h-32.2V194.7z"/>
						</g>
					</g>
				</g>
				<g class="st6">
					<g>
						<defs>
							<rect id="SVGID_39_" x="426.3" y="195.2" width="33.2" height="44.1"/>
						</defs>
						<clipPath id="SVGID_40_">
							<use xlink:href="#SVGID_39_"  style="overflow:visible;"/>
						</clipPath>
						<g class="st25">
							<rect x="426.6" y="206.1" class="st4" width="32.7" height="0.5"/>
						</g>
						<g class="st25">
							<rect x="426.6" y="217" class="st4" width="32.7" height="0.5"/>
						</g>
						<g class="st25">
							<rect x="426.6" y="227.9" class="st4" width="32.7" height="0.5"/>
						</g>
						<g class="st25">
							<rect x="448.2" y="195.5" class="st4" width="0.5" height="43.6"/>
						</g>
						<g class="st25">
							<rect x="437.3" y="195.5" class="st4" width="0.5" height="43.6"/>
						</g>
						<g class="st25">
							<path class="st4" d="M459.6,239.4h-33.2v-44.2h33.2V239.4z M426.9,238.8h32.2v-43.1h-32.2V238.8z"/>
						</g>
					</g>
				</g>
				<g class="st6">
					<g>
						<defs>
							<rect id="SVGID_41_" x="426.3" y="239.4" width="33.2" height="44.1"/>
						</defs>
						<clipPath id="SVGID_42_">
							<use xlink:href="#SVGID_41_"  style="overflow:visible;"/>
						</clipPath>
						<g class="st26">
							<rect x="426.6" y="250.3" class="st4" width="32.7" height="0.5"/>
						</g>
						<g class="st26">
							<rect x="426.6" y="261.2" class="st4" width="32.7" height="0.5"/>
						</g>
						<g class="st26">
							<rect x="448.2" y="239.6" class="st4" width="0.5" height="43.6"/>
						</g>
						<g class="st26">
							<rect x="437.3" y="239.6" class="st4" width="0.5" height="43.6"/>
						</g>
						<g class="st26">
							<path class="st4" d="M459.6,283.5h-33.2v-44.1h33.2V283.5z M426.9,283h32.2v-43.1h-32.2V283z"/>
						</g>
					</g>
				</g>
				<g class="st6">
					<g>
						<defs>
							<rect id="SVGID_43_" x="393.1" y="106.9" width="33.2" height="44.1"/>
						</defs>
						<clipPath id="SVGID_44_">
							<use xlink:href="#SVGID_43_"  style="overflow:visible;"/>
						</clipPath>
						<g class="st27">
							<rect x="393.4" y="117.8" class="st4" width="32.7" height="0.5"/>
						</g>
						<g class="st27">
							<rect x="393.4" y="128.7" class="st4" width="32.7" height="0.5"/>
						</g>
						<g class="st27">
							<rect x="393.4" y="139.6" class="st4" width="32.7" height="0.5"/>
						</g>
						<g class="st27">
							<rect x="414.9" y="107.2" class="st4" width="0.5" height="43.6"/>
						</g>
						<g class="st27">
							<rect x="404" y="107.2" class="st4" width="0.5" height="43.6"/>
						</g>
						<g class="st27">
							<path class="st4" d="M426.3,151.1h-33.2v-44.1h33.2V151.1z M393.6,150.5h32.2v-43.1h-32.2V150.5z"/>
						</g>
					</g>
				</g>
				<g class="st6">
					<g>
						<defs>
							<rect id="SVGID_45_" x="393.1" y="151.1" width="33.2" height="44.1"/>
						</defs>
						<clipPath id="SVGID_46_">
							<use xlink:href="#SVGID_45_"  style="overflow:visible;"/>
						</clipPath>
						<g class="st28">
							<rect x="393.4" y="162" class="st4" width="32.7" height="0.5"/>
						</g>
						<g class="st28">
							<rect x="393.4" y="172.9" class="st4" width="32.7" height="0.5"/>
						</g>
						<g class="st28">
							<rect x="393.4" y="183.8" class="st4" width="32.7" height="0.5"/>
						</g>
						<g class="st28">
							<rect x="414.9" y="151.3" class="st4" width="0.5" height="43.6"/>
						</g>
						<g class="st28">
							<rect x="404" y="151.3" class="st4" width="0.5" height="43.6"/>
						</g>
						<g class="st28">
							<path class="st4" d="M426.3,195.2h-33.2v-44.1h33.2V195.2z M393.6,194.7h32.2v-43.1h-32.2V194.7z"/>
						</g>
					</g>
				</g>
				<g class="st6">
					<g>
						<defs>
							<rect id="SVGID_47_" x="393.1" y="195.2" width="33.2" height="44.1"/>
						</defs>
						<clipPath id="SVGID_48_">
							<use xlink:href="#SVGID_47_"  style="overflow:visible;"/>
						</clipPath>
						<g class="st29">
							<rect x="393.4" y="206.1" class="st4" width="32.7" height="0.5"/>
						</g>
						<g class="st29">
							<rect x="393.4" y="217" class="st4" width="32.7" height="0.5"/>
						</g>
						<g class="st29">
							<rect x="393.4" y="227.9" class="st4" width="32.7" height="0.5"/>
						</g>
						<g class="st29">
							<rect x="414.9" y="195.5" class="st4" width="0.5" height="43.6"/>
						</g>
						<g class="st29">
							<rect x="404" y="195.5" class="st4" width="0.5" height="43.6"/>
						</g>
						<g class="st29">
							<path class="st4" d="M426.3,239.4h-33.2v-44.2h33.2V239.4z M393.6,238.8h32.2v-43.1h-32.2V238.8z"/>
						</g>
					</g>
				</g>
				<g class="st6">
					<g>
						<defs>
							<rect id="SVGID_49_" x="393.1" y="239.4" width="33.2" height="44.1"/>
						</defs>
						<clipPath id="SVGID_50_">
							<use xlink:href="#SVGID_49_"  style="overflow:visible;"/>
						</clipPath>
						<g class="st30">
							<rect x="393.4" y="250.3" class="st4" width="32.7" height="0.5"/>
						</g>
						<g class="st30">
							<rect x="393.4" y="261.2" class="st4" width="32.7" height="0.5"/>
						</g>
						<g class="st30">
							<rect x="414.9" y="239.6" class="st4" width="0.5" height="43.6"/>
						</g>
						<g class="st30">
							<rect x="404" y="239.6" class="st4" width="0.5" height="43.6"/>
						</g>
						<g class="st30">
							<path class="st4" d="M426.3,283.5h-33.2v-44.1h33.2V283.5z M393.6,283h32.2v-43.1h-32.2V283z"/>
						</g>
					</g>
				</g>
				<g class="st6">
					<g>
						<defs>
							<rect id="SVGID_51_" x="359.9" y="106.9" width="33.2" height="44.1"/>
						</defs>
						<clipPath id="SVGID_52_">
							<use xlink:href="#SVGID_51_"  style="overflow:visible;"/>
						</clipPath>
						<g class="st31">
							<rect x="360.1" y="117.8" class="st4" width="32.7" height="0.5"/>
						</g>
						<g class="st31">
							<rect x="360.1" y="128.7" class="st4" width="32.7" height="0.5"/>
						</g>
						<g class="st31">
							<rect x="360.1" y="139.6" class="st4" width="32.7" height="0.5"/>
						</g>
						<g class="st31">
							<rect x="381.7" y="107.2" class="st4" width="0.5" height="43.6"/>
						</g>
						<g class="st31">
							<rect x="370.8" y="107.2" class="st4" width="0.5" height="43.6"/>
						</g>
						<g class="st31">
							<path class="st4" d="M393.1,151.1h-33.2v-44.1h33.2V151.1z M360.4,150.5h32.2v-43.1h-32.2V150.5z"/>
						</g>
					</g>
				</g>
				<g class="st6">
					<g>
						<defs>
							<rect id="SVGID_53_" x="359.9" y="151.1" width="33.2" height="44.1"/>
						</defs>
						<clipPath id="SVGID_54_">
							<use xlink:href="#SVGID_53_"  style="overflow:visible;"/>
						</clipPath>
						<g class="st32">
							<rect x="360.1" y="162" class="st4" width="32.7" height="0.5"/>
						</g>
						<g class="st32">
							<rect x="360.1" y="172.9" class="st4" width="32.7" height="0.5"/>
						</g>
						<g class="st32">
							<rect x="360.1" y="183.8" class="st4" width="32.7" height="0.5"/>
						</g>
						<g class="st32">
							<rect x="381.7" y="151.3" class="st4" width="0.5" height="43.6"/>
						</g>
						<g class="st32">
							<rect x="370.8" y="151.3" class="st4" width="0.5" height="43.6"/>
						</g>
						<g class="st32">
							<path class="st4" d="M393.1,195.2h-33.2v-44.1h33.2V195.2z M360.4,194.7h32.2v-43.1h-32.2V194.7z"/>
						</g>
					</g>
				</g>
				<g class="st6">
					<g>
						<defs>
							<rect id="SVGID_55_" x="359.9" y="195.2" width="33.2" height="44.1"/>
						</defs>
						<clipPath id="SVGID_56_">
							<use xlink:href="#SVGID_55_"  style="overflow:visible;"/>
						</clipPath>
						<g class="st33">
							<rect x="360.1" y="206.1" class="st4" width="32.7" height="0.5"/>
						</g>
						<g class="st33">
							<rect x="360.1" y="217" class="st4" width="32.7" height="0.5"/>
						</g>
						<g class="st33">
							<rect x="360.1" y="227.9" class="st4" width="32.7" height="0.5"/>
						</g>
						<g class="st33">
							<rect x="381.7" y="195.5" class="st4" width="0.5" height="43.6"/>
						</g>
						<g class="st33">
							<rect x="370.8" y="195.5" class="st4" width="0.5" height="43.6"/>
						</g>
						<g class="st33">
							<path class="st4" d="M393.1,239.4h-33.2v-44.2h33.2V239.4z M360.4,238.8h32.2v-43.1h-32.2V238.8z"/>
						</g>
					</g>
				</g>
				<g class="st6">
					<g>
						<defs>
							<rect id="SVGID_57_" x="359.9" y="239.4" width="33.2" height="44.1"/>
						</defs>
						<clipPath id="SVGID_58_">
							<use xlink:href="#SVGID_57_"  style="overflow:visible;"/>
						</clipPath>
						<g class="st34">
							<rect x="360.1" y="250.3" class="st4" width="32.7" height="0.5"/>
						</g>
						<g class="st34">
							<rect x="360.1" y="261.2" class="st4" width="32.7" height="0.5"/>
						</g>
						<g class="st34">
							<rect x="381.7" y="239.6" class="st4" width="0.5" height="43.6"/>
						</g>
						<g class="st34">
							<rect x="370.8" y="239.6" class="st4" width="0.5" height="43.6"/>
						</g>
						<g class="st34">
							<path class="st4" d="M393.1,283.5h-33.2v-44.1h33.2V283.5z M360.4,283h32.2v-43.1h-32.2V283z"/>
						</g>
					</g>
				</g>
				<g class="st6">
					<g>
						<defs>
							<rect id="SVGID_59_" x="326.6" y="106.9" width="33.2" height="44.1"/>
						</defs>
						<clipPath id="SVGID_60_">
							<use xlink:href="#SVGID_59_"  style="overflow:visible;"/>
						</clipPath>
						<g class="st35">
							<rect x="326.9" y="117.8" class="st4" width="32.7" height="0.5"/>
						</g>
						<g class="st35">
							<rect x="326.9" y="128.7" class="st4" width="32.7" height="0.5"/>
						</g>
						<g class="st35">
							<rect x="326.9" y="139.6" class="st4" width="32.7" height="0.5"/>
						</g>
						<g class="st35">
							<rect x="348.4" y="107.2" class="st4" width="0.5" height="43.6"/>
						</g>
						<g class="st35">
							<rect x="337.5" y="107.2" class="st4" width="0.5" height="43.6"/>
						</g>
						<g class="st35">
							<path class="st4" d="M359.9,151.1h-33.2v-44.1h33.2V151.1z M327.1,150.5h32.2v-43.1h-32.2V150.5z"/>
						</g>
					</g>
				</g>
				<g class="st6">
					<g>
						<defs>
							<rect id="SVGID_61_" x="326.6" y="151.1" width="33.2" height="44.1"/>
						</defs>
						<clipPath id="SVGID_62_">
							<use xlink:href="#SVGID_61_"  style="overflow:visible;"/>
						</clipPath>
						<g class="st36">
							<rect x="326.9" y="162" class="st4" width="32.7" height="0.5"/>
						</g>
						<g class="st36">
							<rect x="326.9" y="172.9" class="st4" width="32.7" height="0.5"/>
						</g>
						<g class="st36">
							<rect x="326.9" y="183.8" class="st4" width="32.7" height="0.5"/>
						</g>
						<g class="st36">
							<rect x="348.4" y="151.3" class="st4" width="0.5" height="43.6"/>
						</g>
						<g class="st36">
							<rect x="337.5" y="151.3" class="st4" width="0.5" height="43.6"/>
						</g>
						<g class="st36">
							<path class="st4" d="M359.9,195.2h-33.2v-44.1h33.2V195.2z M327.1,194.7h32.2v-43.1h-32.2V194.7z"/>
						</g>
					</g>
				</g>
				<g class="st6">
					<g>
						<defs>
							<rect id="SVGID_63_" x="326.6" y="195.2" width="33.2" height="44.1"/>
						</defs>
						<clipPath id="SVGID_64_">
							<use xlink:href="#SVGID_63_"  style="overflow:visible;"/>
						</clipPath>
						<g class="st37">
							<rect x="326.9" y="206.1" class="st4" width="32.7" height="0.5"/>
						</g>
						<g class="st37">
							<rect x="326.9" y="217" class="st4" width="32.7" height="0.5"/>
						</g>
						<g class="st37">
							<rect x="326.9" y="227.9" class="st4" width="32.7" height="0.5"/>
						</g>
						<g class="st37">
							<rect x="348.4" y="195.5" class="st4" width="0.5" height="43.6"/>
						</g>
						<g class="st37">
							<rect x="337.5" y="195.5" class="st4" width="0.5" height="43.6"/>
						</g>
						<g class="st37">
							<path class="st4" d="M359.9,239.4h-33.2v-44.2h33.2V239.4z M327.1,238.8h32.2v-43.1h-32.2V238.8z"/>
						</g>
					</g>
				</g>
				<g class="st6">
					<g>
						<defs>
							<rect id="SVGID_65_" x="326.6" y="239.4" width="33.2" height="44.1"/>
						</defs>
						<clipPath id="SVGID_66_">
							<use xlink:href="#SVGID_65_"  style="overflow:visible;"/>
						</clipPath>
						<g class="st38">
							<rect x="326.9" y="250.3" class="st4" width="32.7" height="0.5"/>
						</g>
						<g class="st38">
							<rect x="326.9" y="261.2" class="st4" width="32.7" height="0.5"/>
						</g>
						<g class="st38">
							<rect x="348.4" y="239.6" class="st4" width="0.5" height="43.6"/>
						</g>
						<g class="st38">
							<rect x="337.5" y="239.6" class="st4" width="0.5" height="43.6"/>
						</g>
						<g class="st38">
							<path class="st4" d="M359.9,283.5h-33.2v-44.1h33.2V283.5z M327.1,283h32.2v-43.1h-32.2V283z"/>
						</g>
					</g>
				</g>
				<g class="st6">
					<g>
						<defs>
							<rect id="SVGID_67_" x="293.4" y="106.9" width="33.2" height="44.1"/>
						</defs>
						<clipPath id="SVGID_68_">
							<use xlink:href="#SVGID_67_"  style="overflow:visible;"/>
						</clipPath>
						<g class="st39">
							<rect x="293.6" y="117.8" class="st4" width="32.7" height="0.5"/>
						</g>
						<g class="st39">
							<rect x="293.6" y="128.7" class="st4" width="32.7" height="0.5"/>
						</g>
						<g class="st39">
							<rect x="293.6" y="139.6" class="st4" width="32.7" height="0.5"/>
						</g>
						<g class="st39">
							<rect x="315.2" y="107.2" class="st4" width="0.5" height="43.6"/>
						</g>
						<g class="st39">
							<rect x="304.3" y="107.2" class="st4" width="0.5" height="43.6"/>
						</g>
						<g class="st39">
							<path class="st4" d="M326.6,151.1h-33.2v-44.1h33.2V151.1z M293.9,150.5h32.2v-43.1h-32.2V150.5z"/>
						</g>
					</g>
				</g>
				<g class="st6">
					<g>
						<defs>
							<rect id="SVGID_69_" x="293.4" y="151.1" width="33.2" height="44.1"/>
						</defs>
						<clipPath id="SVGID_70_">
							<use xlink:href="#SVGID_69_"  style="overflow:visible;"/>
						</clipPath>
						<g class="st40">
							<rect x="293.6" y="162" class="st4" width="32.7" height="0.5"/>
						</g>
						<g class="st40">
							<rect x="293.6" y="172.9" class="st4" width="32.7" height="0.5"/>
						</g>
						<g class="st40">
							<rect x="293.6" y="183.8" class="st4" width="32.7" height="0.5"/>
						</g>
						<g class="st40">
							<rect x="315.2" y="151.3" class="st4" width="0.5" height="43.6"/>
						</g>
						<g class="st40">
							<rect x="304.3" y="151.3" class="st4" width="0.5" height="43.6"/>
						</g>
						<g class="st40">
							<path class="st4" d="M326.6,195.2h-33.2v-44.1h33.2V195.2z M293.9,194.7h32.2v-43.1h-32.2V194.7z"/>
						</g>
					</g>
				</g>
				<g class="st6">
					<g>
						<defs>
							<rect id="SVGID_71_" x="293.4" y="195.2" width="33.2" height="44.1"/>
						</defs>
						<clipPath id="SVGID_72_">
							<use xlink:href="#SVGID_71_"  style="overflow:visible;"/>
						</clipPath>
						<g class="st41">
							<rect x="293.6" y="206.1" class="st4" width="32.7" height="0.5"/>
						</g>
						<g class="st41">
							<rect x="293.6" y="217" class="st4" width="32.7" height="0.5"/>
						</g>
						<g class="st41">
							<rect x="293.6" y="227.9" class="st4" width="32.7" height="0.5"/>
						</g>
						<g class="st41">
							<rect x="315.2" y="195.5" class="st4" width="0.5" height="43.6"/>
						</g>
						<g class="st41">
							<rect x="304.3" y="195.5" class="st4" width="0.5" height="43.6"/>
						</g>
						<g class="st41">
							<path class="st4" d="M326.6,239.4h-33.2v-44.2h33.2V239.4z M293.9,238.8h32.2v-43.1h-32.2V238.8z"/>
						</g>
					</g>
				</g>
				<g class="st6">
					<g>
						<defs>
							<rect id="SVGID_73_" x="293.4" y="239.4" width="33.2" height="44.1"/>
						</defs>
						<clipPath id="SVGID_74_">
							<use xlink:href="#SVGID_73_"  style="overflow:visible;"/>
						</clipPath>
						<g class="st42">
							<rect x="293.6" y="250.3" class="st4" width="32.7" height="0.5"/>
						</g>
						<g class="st42">
							<rect x="293.6" y="261.2" class="st4" width="32.7" height="0.5"/>
						</g>
						<g class="st42">
							<rect x="315.2" y="239.6" class="st4" width="0.5" height="43.6"/>
						</g>
						<g class="st42">
							<rect x="304.3" y="239.6" class="st4" width="0.5" height="43.6"/>
						</g>
						<g class="st42">
							<path class="st4" d="M326.6,283.5h-33.2v-44.1h33.2V283.5z M293.9,283h32.2v-43.1h-32.2V283z"/>
						</g>
					</g>
				</g>
				<g class="st6">
					<g>
						<defs>
							<rect id="SVGID_75_" x="260.1" y="106.9" width="33.2" height="44.1"/>
						</defs>
						<clipPath id="SVGID_76_">
							<use xlink:href="#SVGID_75_"  style="overflow:visible;"/>
						</clipPath>
						<g class="st43">
							<rect x="260.4" y="117.8" class="st4" width="32.7" height="0.5"/>
						</g>
						<g class="st43">
							<rect x="260.4" y="128.7" class="st4" width="32.7" height="0.5"/>
						</g>
						<g class="st43">
							<rect x="260.4" y="139.6" class="st4" width="32.7" height="0.5"/>
						</g>
						<g class="st43">
							<rect x="281.9" y="107.2" class="st4" width="0.5" height="43.6"/>
						</g>
						<g class="st43">
							<rect x="271" y="107.2" class="st4" width="0.5" height="43.6"/>
						</g>
						<g class="st43">
							<path class="st4" d="M293.4,151.1h-33.2v-44.1h33.2V151.1z M260.7,150.5h32.2v-43.1h-32.2V150.5z"/>
						</g>
					</g>
				</g>
				<g class="st6">
					<g>
						<defs>
							<rect id="SVGID_77_" x="260.1" y="151.1" width="33.2" height="44.1"/>
						</defs>
						<clipPath id="SVGID_78_">
							<use xlink:href="#SVGID_77_"  style="overflow:visible;"/>
						</clipPath>
						<g class="st44">
							<rect x="260.4" y="162" class="st4" width="32.7" height="0.5"/>
						</g>
						<g class="st44">
							<rect x="260.4" y="172.9" class="st4" width="32.7" height="0.5"/>
						</g>
						<g class="st44">
							<rect x="260.4" y="183.8" class="st4" width="32.7" height="0.5"/>
						</g>
						<g class="st44">
							<rect x="281.9" y="151.3" class="st4" width="0.5" height="43.6"/>
						</g>
						<g class="st44">
							<rect x="271" y="151.3" class="st4" width="0.5" height="43.6"/>
						</g>
						<g class="st44">
							<path class="st4" d="M293.4,195.2h-33.2v-44.1h33.2V195.2z M260.7,194.7h32.2v-43.1h-32.2V194.7z"/>
						</g>
					</g>
				</g>
				<g class="st6">
					<g>
						<defs>
							<rect id="SVGID_79_" x="260.1" y="195.2" width="33.2" height="44.1"/>
						</defs>
						<clipPath id="SVGID_80_">
							<use xlink:href="#SVGID_79_"  style="overflow:visible;"/>
						</clipPath>
						<g class="st45">
							<rect x="260.4" y="206.1" class="st4" width="32.7" height="0.5"/>
						</g>
						<g class="st45">
							<rect x="260.4" y="217" class="st4" width="32.7" height="0.5"/>
						</g>
						<g class="st45">
							<rect x="260.4" y="227.9" class="st4" width="32.7" height="0.5"/>
						</g>
						<g class="st45">
							<rect x="281.9" y="195.5" class="st4" width="0.5" height="43.6"/>
						</g>
						<g class="st45">
							<rect x="271" y="195.5" class="st4" width="0.5" height="43.6"/>
						</g>
						<g class="st45">
							<path class="st4" d="M293.4,239.4h-33.2v-44.2h33.2V239.4z M260.7,238.8h32.2v-43.1h-32.2V238.8z"/>
						</g>
					</g>
				</g>
				<g class="st6">
					<g>
						<defs>
							<rect id="SVGID_81_" x="260.1" y="239.4" width="33.2" height="44.1"/>
						</defs>
						<clipPath id="SVGID_82_">
							<use xlink:href="#SVGID_81_"  style="overflow:visible;"/>
						</clipPath>
						<g class="st46">
							<rect x="260.4" y="250.3" class="st4" width="32.7" height="0.5"/>
						</g>
						<g class="st46">
							<rect x="260.4" y="261.2" class="st4" width="32.7" height="0.5"/>
						</g>
						<g class="st46">
							<rect x="281.9" y="239.6" class="st4" width="0.5" height="43.6"/>
						</g>
						<g class="st46">
							<rect x="271" y="239.6" class="st4" width="0.5" height="43.6"/>
						</g>
						<g class="st46">
							<path class="st4" d="M293.4,283.5h-33.2v-44.1h33.2V283.5z M260.7,283h32.2v-43.1h-32.2V283z"/>
						</g>
					</g>
				</g>
			</g>
		</g>
		<g>
			<g>
				<path class="st47" d="M302.1,166.1c-0.7,1.1-1.5,2.1-2.2,2.9c-0.2-0.2-0.7-0.5-0.9-0.6c1.3-1.1,2.5-2.9,3.2-4.7l1,0.3
					c-0.2,0.4-0.4,0.8-0.6,1.2h8.6v0.9H302.1z M309.8,171.6c-0.1,0.9-0.1,1.7-0.2,2.2h1.7v0.9h-1.8c-0.1,0.7-0.3,1.1-0.4,1.3
					c-0.3,0.3-0.6,0.5-1,0.5c-0.4,0-1.1,0-1.8,0c0-0.2-0.1-0.6-0.3-0.8c0.7,0.1,1.4,0.1,1.6,0.1c0.3,0,0.4,0,0.5-0.2
					c0.1-0.1,0.2-0.4,0.3-0.8h-8c0.2-0.9,0.4-2,0.5-3.2h-2v-1h2.1c0.1-1.1,0.3-2.2,0.4-3.1h8.4c0,0,0,0.4,0,0.5c0,1-0.1,1.8-0.1,2.6
					h2v1H309.8z M308.6,173.8c0.1-0.6,0.1-1.3,0.2-2.3H302c-0.1,0.8-0.2,1.6-0.4,2.3h4.3c-0.6-0.5-1.6-1.2-2.5-1.7l0.6-0.6
					c1,0.4,2.1,1.2,2.7,1.8l-0.5,0.5H308.6z M302.5,168.5c-0.1,0.7-0.2,1.5-0.3,2.2h4.2c-0.5-0.5-1.6-1.2-2.5-1.6l0.6-0.6
					c0.9,0.4,2,1,2.5,1.5l-0.6,0.6h2.4c0-0.7,0.1-1.4,0.1-2.2H302.5z"/>
				<path class="st47" d="M323.8,175.1c0,0.7-0.2,1.1-0.7,1.3c-0.5,0.2-1.5,0.2-3,0.2c-0.1-0.3-0.3-0.8-0.4-1.1c1.2,0,2.3,0,2.6,0
					c0.3,0,0.4-0.1,0.4-0.4v-2.8H316c-0.4,1.6-1.1,3.2-2.4,4.4c-0.1-0.2-0.6-0.6-0.8-0.8c2.2-2,2.5-4.8,2.5-7v-4.3h8.5V175.1z
					 M322.8,171.2v-2.4h-6.4c0,0.7,0,1.5-0.2,2.4H322.8z M316.4,165.6v2.3h6.4v-2.3H316.4z"/>
				<path class="st47" d="M339.3,165.9v2.9h-1v-2h-9.7v2h-1v-2.9h2.2c-0.3-0.5-0.7-1.1-1.1-1.6l0.9-0.4c0.5,0.5,1,1.2,1.2,1.7
					l-0.5,0.2h2.5v-2.1h1v2.1h2.4l-0.4-0.2c0.4-0.5,1-1.3,1.2-1.9l1.1,0.4c-0.4,0.6-0.9,1.2-1.3,1.7H339.3z M328.5,171.6h9.9v5h-1
					v-0.4h-7.9v0.4h-1V171.6z M329.6,172.4v1.1h3.4v-1.1H329.6z M332.9,175.4v-1.1h-3.4v1.1H332.9z M337.1,167.8v2.9h-7.3v-2.9
					H337.1z M336.1,168.6h-5.3v1.3h5.3V168.6z M337.4,172.4h-3.5v1.1h3.5V172.4z M337.4,175.4v-1.1h-3.5v1.1H337.4z"/>
				<path class="st47" d="M347.8,173.2H341v-0.9h1.4v-5.7h-1.2v-0.9h1.2v-1.7h1v1.7h2.5v-1.7h1v1.7h1v0.9h-1v5.7h1V173.2z
					 M343.9,173.8c-0.5,1.1-1.3,2.1-2.1,2.8c-0.2-0.2-0.6-0.5-0.8-0.6c0.8-0.6,1.5-1.6,1.9-2.5L343.9,173.8z M343.3,166.6v1.2h2.5
					v-1.2H343.3z M343.3,170h2.5v-1.4h-2.5V170z M343.3,172.3h2.5v-1.4h-2.5V172.3z M345.7,173.5c0.6,0.6,1.2,1.5,1.5,2.1l-0.8,0.5
					c-0.3-0.6-0.9-1.5-1.4-2.1L345.7,173.5z M353.3,175.2c0,0.6-0.2,0.9-0.5,1.1c-0.4,0.2-1.1,0.2-2.1,0.2c0-0.3-0.2-0.7-0.3-1
					c0.7,0,1.4,0,1.6,0c0.2,0,0.3-0.1,0.3-0.3v-3.4h-3c-0.1,1.7-0.5,3.4-1.3,4.8c-0.2-0.2-0.6-0.5-0.8-0.6c1.2-1.8,1.3-4.5,1.3-6.5
					v-5.1h4.8V175.2z M352.3,170.9v-2.3h-2.9v0.9c0,0.4,0,0.9,0,1.4H352.3z M349.5,165.4v2.2h2.9v-2.2H349.5z"/>
				<path class="st47" d="M357.5,169.5c-0.2-0.3-0.4-0.6-0.7-0.9c-0.3,0.7-0.7,1.4-1.1,1.9c-0.1-0.2-0.5-0.5-0.7-0.6
					c0.8-0.8,1.3-2.1,1.6-3.5l0.9,0.2c-0.1,0.4-0.2,0.8-0.3,1.2c0.4,0.4,0.8,0.8,1,1.1L357.5,169.5z M358.9,171.2h2.5v0.9h-2.5v4.4
					h-1v-4.4h-2.8v-0.9h2.8v-1h0.4c-0.2-0.2-0.4-0.4-0.6-0.5c0.8-0.8,1.3-1.9,1.6-3.2l0.9,0.2c-0.1,0.4-0.2,0.9-0.4,1.3
					c0.5,0.5,1.1,1.2,1.4,1.7l-0.6,0.5c-0.2-0.4-0.7-1-1.1-1.5c-0.3,0.6-0.6,1.1-1,1.5h0.5V171.2z M357.3,173.2
					c-0.3,1-0.8,2-1.4,2.6c-0.2-0.1-0.6-0.4-0.8-0.5c0.6-0.6,1-1.5,1.3-2.3L357.3,173.2z M361.3,166.3h-6.1v-0.9h2.9
					c-0.2-0.4-0.4-0.9-0.6-1.2l0.9-0.3c0.3,0.5,0.6,1.1,0.8,1.5l-0.1,0h2.2V166.3z M360.2,172.9c0.5,0.7,1,1.7,1.2,2.3l-0.8,0.4
					c-0.2-0.6-0.7-1.7-1.2-2.4L360.2,172.9z M367.7,175.9H363v0.7h-1v-7.9c-0.2,0.3-0.4,0.6-0.5,0.8c-0.2-0.2-0.6-0.5-0.8-0.7
					c1-1.2,1.8-3.1,2.3-5l1,0.2c-0.2,0.8-0.5,1.6-0.8,2.4h4.6v1h-1.9v1.9h1.8v0.9h-1.8v1.9h1.8v0.9h-1.8v1.9h2V175.9z M364.8,167.4
					H363v1.9h1.8V167.4z M364.8,170.2H363v1.9h1.8V170.2z M363,174.9h1.8V173H363V174.9z M365.2,166.3c-0.2-0.5-0.6-1.4-0.9-2
					l0.9-0.3c0.4,0.6,0.8,1.4,1,2L365.2,166.3z"/>
				<path class="st47" d="M373.6,167H369v-0.9h4.6V167z M369.5,168.8V168h3.7v0.8H369.5z M373.2,170.7h-3.7v-0.8h3.7V170.7z
					 M373.3,175.7h-2.9v0.7h-0.8v-4.7h3.7V175.7z M371.6,166c-0.2-0.5-0.8-1.3-1.2-1.9l0.8-0.4c0.5,0.6,1,1.3,1.2,1.8L371.6,166z
					 M370.4,172.6v2.3h2v-2.3H370.4z M373.6,174.9c0.5-0.7,0.7-2,0.9-3.1l0.8,0.3c-0.1,1.1-0.4,2.5-0.9,3.4L373.6,174.9z
					 M377.1,166.8H374v-1h3.1v-2h1v2h3.5v1h-3.5v2.1h3.2v1h-7.1v-1h2.8V166.8z M378.5,175.2c0.4,0,0.4-0.2,0.5-1.9
					c0.2,0.2,0.6,0.3,0.9,0.4c-0.1,1.9-0.4,2.4-1.3,2.4h-1.5c-1,0-1.3-0.3-1.3-1.3v-3.5h1v3.5c0,0.3,0.1,0.4,0.4,0.4H378.5z
					 M378.6,172.3c-0.4-0.5-1.3-1.3-2.1-1.9l0.7-0.6c0.8,0.5,1.7,1.2,2.1,1.8L378.6,172.3z M380.4,171.7c0.7,1,1.2,2.3,1.4,3.2
					l-0.9,0.4c-0.2-0.9-0.7-2.2-1.3-3.2L380.4,171.7z"/>
				<path class="st47" d="M385.9,174.3l0.6-0.8c0.6,0.6,1.3,1.1,2.5,1.1c1.2,0,2.2-0.9,2.2-2.4c0-1.5-0.8-2.3-2.1-2.3
					c-0.7,0-1.1,0.2-1.7,0.6l-0.7-0.4l0.3-4.8h5v1.1h-3.9l-0.3,3c0.4-0.3,0.9-0.4,1.5-0.4c1.7,0,3.1,1,3.1,3.3
					c0,2.3-1.6,3.5-3.4,3.5C387.6,175.7,386.6,175,385.9,174.3z"/>
				<path class="st47" d="M405.2,167.8c1,2.4,2.8,4.6,4.7,5.7c-0.3,0.2-0.6,0.6-0.8,0.9c-2.1-1.3-3.9-3.8-4.9-6.6H404v5.2h3.2v1H404
					v2.6h-1.1V174h-3.2v-1h3.2v-5.2h-0.2c-1.1,2.7-2.9,5.2-4.9,6.6c-0.2-0.3-0.5-0.6-0.7-0.8c1.8-1.1,3.6-3.4,4.6-5.8h-4.2v-1h5.5
					v-2.9h1.1v2.9h5.5v1H405.2z"/>
			</g>
			<path class="st47" d="M292.7,169.9c0,1-0.8,1.8-1.8,1.8c-1,0-1.8-0.8-1.8-1.8c0-1,0.8-1.8,1.8-1.8
				C291.9,168.1,292.7,168.9,292.7,169.9z"/>
		</g>
		<g>
			<g>
				<path class="st47" d="M303.2,193.3c-0.2-0.4-0.6-1.3-1-2v7.1h-1v-7.1c-0.5,1.6-1.1,3.2-1.8,4.2c-0.1-0.3-0.4-0.8-0.6-1
					c0.9-1.1,1.8-3.4,2.2-5.2h-1.8v-1h2v-2.7h1v2.7h1.5v1h-1.5v0.7c0.4,0.5,1.4,2.1,1.6,2.5L303.2,193.3z M306.1,195.5
					c-0.5,1-1.3,1.9-2,2.5c-0.2-0.2-0.6-0.4-0.8-0.5c0.8-0.6,1.5-1.4,1.9-2.3L306.1,195.5z M306.1,187.2h-2.4v-0.9h7.8v0.9H309v0.9
					h2.3v3.3H304v-3.3h2.1V187.2z M308,194.8v3.7h-0.9v-3.7h-3.3v-0.9h7.8v0.9H308z M304.6,192.9v-0.8h6v0.8H304.6z M304.9,190.6
					h1.2v-1.7h-1.2V190.6z M308.2,187.2h-1.3v0.9h1.3V187.2z M306.9,190.6h1.3v-1.7h-1.3V190.6z M309,188.9v1.7h1.4v-1.7H309z
					 M309.8,195.2c0.7,0.7,1.5,1.7,1.9,2.3l-0.8,0.5c-0.4-0.7-1.1-1.6-1.8-2.4L309.8,195.2z"/>
				<path class="st47" d="M313.1,187.9h5.2l0,0.9h-5.1V187.9z M313.6,191.8h4.3v0.8h-4.3V191.8z M317.9,189.9v0.8h-4.1v-0.8H317.9z
					 M317.9,197.6h-3.1v0.7h-1v-4.6h4V197.6z M315.7,187.8c-0.1-0.5-0.5-1.2-0.9-1.8l0.8-0.4c0.4,0.5,0.8,1.2,1,1.7L315.7,187.8z
					 M314.8,194.5v2.2h2.1v-2.2H314.8z M325.8,196.9v1h-7.4v-1h3.1v-3.6h-2.6v-1h2.6v-2.9h-2.8v-1h6.9v1h-3.1v2.9h2.7v1h-2.7v3.6
					H325.8z M321.8,188.3c-0.2-0.6-0.8-1.5-1.4-2.2l0.8-0.4c0.6,0.7,1.2,1.6,1.5,2.2L321.8,188.3z"/>
				<path class="st47" d="M339.4,193.6c-0.3,2.9-0.5,4-1,4.5c-0.2,0.3-0.5,0.3-0.9,0.4c-0.4,0-1,0-1.7,0c0-0.3-0.1-0.7-0.3-0.9
					c0.7,0.1,1.3,0.1,1.6,0.1c0.2,0,0.4,0,0.5-0.1c0.3-0.3,0.5-1.2,0.7-3.3h-8.4c-0.7,0.6-1.6,1.2-2.5,1.7c-0.1-0.3-0.4-0.7-0.6-0.9
					c2.6-1.3,4.5-3.4,5.9-5.8h-5v-0.9h2.8c-0.2-0.6-0.6-1.4-1.1-2l0.9-0.4c0.5,0.6,1,1.5,1.1,2l-0.8,0.3h2.5c0.4-0.8,0.7-1.6,1-2.5
					l1,0.3c-0.3,0.7-0.6,1.5-0.9,2.2h2.9c-0.1,0.8-0.3,1.8-0.5,2.5h1.6c-0.1,0.8-0.3,1.8-0.4,2.5h1.4L339.4,193.6z M327.6,197.8
					c0.9-0.6,1.4-1.8,1.6-2.9l0.9,0.3c-0.3,1.2-0.8,2.4-1.7,3.1L327.6,197.8z M332.4,191.5c-0.4,0.6-0.9,1.1-1.4,1.6h6.1
					c0.1-0.5,0.2-1.1,0.3-1.6H332.4z M331.9,195.2c0.3,0.8,0.4,1.9,0.4,2.5l-0.9,0.1c0-0.7-0.1-1.7-0.3-2.6L331.9,195.2z M334,189
					c-0.3,0.5-0.6,1.1-1,1.6h2.9c0.1-0.5,0.2-1,0.3-1.6H334z M334,194.9c0.4,0.7,0.7,1.6,0.8,2.3l-0.9,0.2c-0.1-0.6-0.4-1.6-0.7-2.3
					L334,194.9z M336.2,196.8c-0.2-0.5-0.6-1.3-1-1.9l0.7-0.3c0.4,0.6,0.9,1.3,1.1,1.8L336.2,196.8z"/>
				<path class="st47" d="M343.5,191.4c-0.2-0.3-0.4-0.6-0.7-0.9c-0.3,0.7-0.7,1.4-1.1,1.9c-0.1-0.2-0.5-0.5-0.7-0.6
					c0.8-0.8,1.3-2.1,1.6-3.5l0.9,0.2c-0.1,0.4-0.2,0.8-0.3,1.2c0.4,0.4,0.8,0.8,1,1.1L343.5,191.4z M344.9,193.1h2.5v0.9h-2.5v4.4
					h-1V194h-2.8v-0.9h2.8v-1h0.4c-0.2-0.2-0.4-0.4-0.6-0.5c0.8-0.8,1.3-1.9,1.6-3.2l0.9,0.2c-0.1,0.4-0.2,0.9-0.4,1.3
					c0.5,0.5,1.1,1.2,1.4,1.7l-0.6,0.5c-0.2-0.4-0.7-1-1.1-1.5c-0.3,0.6-0.6,1.1-1,1.5h0.5V193.1z M343.3,195.1
					c-0.3,1-0.8,2-1.4,2.6c-0.2-0.1-0.6-0.4-0.8-0.5c0.6-0.6,1-1.5,1.3-2.3L343.3,195.1z M347.3,188.1h-6.1v-0.9h2.9
					c-0.2-0.4-0.4-0.9-0.6-1.2l0.9-0.3c0.3,0.5,0.6,1.1,0.8,1.5l-0.1,0h2.2V188.1z M346.2,194.8c0.5,0.7,1,1.7,1.2,2.3l-0.8,0.4
					c-0.2-0.6-0.7-1.7-1.2-2.4L346.2,194.8z M353.7,197.7H349v0.7h-1v-7.9c-0.2,0.3-0.4,0.6-0.5,0.8c-0.2-0.2-0.6-0.5-0.8-0.7
					c1-1.2,1.8-3.1,2.3-5l1,0.2c-0.2,0.8-0.5,1.6-0.8,2.4h4.6v1h-1.9v1.9h1.8v0.9h-1.8v1.9h1.8v0.9h-1.8v1.9h2V197.7z M350.8,189.3
					H349v1.9h1.8V189.3z M350.8,192H349v1.9h1.8V192z M349,196.8h1.8v-1.9H349V196.8z M351.2,188.2c-0.2-0.5-0.6-1.4-0.9-2l0.9-0.3
					c0.4,0.6,0.8,1.4,1,2L351.2,188.2z"/>
				<path class="st47" d="M359.6,188.9H355V188h4.6V188.9z M355.5,190.7v-0.8h3.7v0.8H355.5z M359.2,192.5h-3.7v-0.8h3.7V192.5z
					 M359.3,197.6h-2.9v0.7h-0.8v-4.7h3.7V197.6z M357.6,187.9c-0.2-0.5-0.8-1.3-1.2-1.9l0.8-0.4c0.5,0.6,1,1.3,1.2,1.8L357.6,187.9
					z M356.4,194.4v2.3h2v-2.3H356.4z M359.6,196.7c0.5-0.7,0.7-2,0.9-3.1l0.8,0.3c-0.1,1.1-0.4,2.5-0.9,3.4L359.6,196.7z
					 M363.1,188.7H360v-1h3.1v-2h1v2h3.5v1h-3.5v2.1h3.2v1h-7.1v-1h2.8V188.7z M364.5,197.1c0.4,0,0.4-0.2,0.5-1.9
					c0.2,0.2,0.6,0.3,0.9,0.4c-0.1,1.9-0.4,2.4-1.3,2.4h-1.5c-1,0-1.3-0.3-1.3-1.3v-3.5h1v3.5c0,0.3,0.1,0.4,0.4,0.4H364.5z
					 M364.6,194.2c-0.4-0.5-1.3-1.3-2.1-1.9l0.7-0.6c0.8,0.5,1.7,1.2,2.1,1.8L364.6,194.2z M366.4,193.6c0.7,1,1.2,2.3,1.4,3.2
					l-0.9,0.4c-0.2-0.9-0.7-2.2-1.3-3.2L366.4,193.6z"/>
				<path class="st47" d="M372.9,185.8c-0.2,0.7-0.5,1.5-0.7,2.1h2.3v9.1h-3.9v1.1h-1v-10.2h1.6c0.2-0.7,0.5-1.6,0.6-2.3
					L372.9,185.8z M373.5,188.8h-2.9v2.9h2.9V188.8z M373.5,196.1v-3.4h-2.9v3.4H373.5z M381.3,188.4c-0.2,6.4-0.4,8.5-1,9.2
					c-0.3,0.4-0.6,0.5-1.1,0.6c-0.5,0.1-1.3,0-2.1,0c0-0.3-0.2-0.7-0.4-1c0.9,0.1,1.8,0.1,2.1,0.1c0.3,0,0.4,0,0.6-0.2
					c0.5-0.5,0.7-2.6,0.9-8.2h-3.6c-0.4,0.9-0.8,1.8-1.3,2.5c-0.2-0.2-0.6-0.4-0.9-0.6c0.9-1.2,1.7-3.2,2.1-5.1l1,0.2
					c-0.2,0.7-0.4,1.4-0.6,2h4.2V188.4z M378.3,194.7c-0.4-0.8-1.4-2.2-2.1-3.2l0.8-0.5c0.8,1,1.8,2.3,2.2,3.2L378.3,194.7z"/>
				<path class="st47" d="M385.8,188.9c-0.2,1.2-0.8,2-2.2,2.6c-0.1-0.2-0.4-0.5-0.6-0.7c1.2-0.4,1.7-1,1.9-1.9h-1.7v-0.7h2.8v-0.9
					h-1.4c-0.1,0.3-0.3,0.5-0.5,0.7c-0.2-0.2-0.5-0.3-0.7-0.4c0.5-0.5,0.8-1.2,1-1.8l0.8,0.1c-0.1,0.2-0.2,0.4-0.2,0.7h1.1v-0.9h0.9
					v0.9h1.9v0.7h-1.9v0.9h2.3v0.7h-1.6v1l1.7-0.4c0,0.2,0,0.5,0,0.7c-2.2,0.5-2.5,0.6-2.7,0.8v0c0-0.2-0.2-0.5-0.3-0.7
					c0.2-0.1,0.5-0.3,0.5-0.9v-0.6H385.8z M388.3,197c-1.1,0.6-2.9,1.1-4.3,1.5c-0.2-0.2-0.5-0.6-0.8-0.8c1.5-0.3,3.2-0.7,4.1-1.1
					L388.3,197z M385,191.2h9v5.4h-9V191.2z M386,192.8h7v-0.9h-7V192.8z M386,194.3h7v-0.9h-7V194.3z M386,195.9h7V195h-7V195.9z
					 M390.6,187.3c-0.1,0.2-0.3,0.4-0.5,0.7c-0.2-0.2-0.5-0.3-0.7-0.4c0.5-0.5,0.9-1.2,1-1.8l0.8,0.1c-0.1,0.2-0.2,0.5-0.3,0.7h1v-1
					h0.9v1h2.2v0.7h-2.2v0.8h2.7v0.7h-1.9v1.1c0,0.3,0,0.3,0.3,0.3h0.8c0.2,0,0.3-0.1,0.3-0.8c0.2,0.1,0.5,0.3,0.7,0.3
					c-0.1,1-0.3,1.2-0.9,1.2h-1c-0.8,0-1-0.2-1-1v-1.1h-0.9c-0.2,1.1-0.8,1.8-2.2,2.3c-0.1-0.2-0.3-0.5-0.5-0.7
					c1.1-0.3,1.6-0.8,1.8-1.6h-1.5v-0.7h2.5v-0.8H390.6z M391.4,196.6c1.6,0.4,3.3,0.9,4.3,1.3l-1.1,0.5c-0.9-0.4-2.4-0.9-4-1.3
					L391.4,196.6z"/>
				<path class="st47" d="M403.3,195.6c-2.2,0.5-4.5,1.1-6.2,1.4l-0.2-1.1l1-0.2v-9.5h4.6v8.5l0.8-0.2L403.3,195.6z M398.9,187.3v2
					h2.6v-2H398.9z M401.5,190.3h-2.6v2h2.6V190.3z M398.9,195.6c0.8-0.2,1.7-0.4,2.6-0.6v-1.8h-2.6V195.6z M409.4,188.8
					c0,0,0,0.4,0,0.5c-0.1,5.9-0.3,7.9-0.7,8.5c-0.3,0.4-0.6,0.5-1,0.5c-0.4,0-1.2,0-1.9,0c0-0.3-0.1-0.7-0.3-1
					c0.8,0.1,1.5,0.1,1.8,0.1c0.2,0,0.4,0,0.5-0.2c0.4-0.4,0.5-2.3,0.6-7.4h-2.2c-0.2,3.6-1,6.8-3.8,8.7c-0.2-0.3-0.5-0.6-0.8-0.8
					c2.7-1.7,3.4-4.6,3.6-7.9h-2.2v-1h2.3c0-1,0-2.1,0-3.2h1c0,1.1,0,2.1,0,3.2H409.4z"/>
				<path class="st47" d="M418.3,191.1c-0.7,0.5-1.5,1-2.3,1.5h5.8v5.9h-1.1V198h-5.7v0.4h-1v-4.8c-0.8,0.4-1.7,0.8-2.6,1.1
					c-0.1-0.2-0.5-0.6-0.7-0.9c2-0.7,4-1.6,5.8-2.8h-5.4v-0.9h4.8v-1.8h-3.6v-0.9h3.6v-1.8h1v1.8h3.5v0.6c0.6-0.6,1.1-1.2,1.6-1.8
					l0.9,0.5c-1,1.3-2.1,2.5-3.4,3.5h4v0.9H418.3z M420.8,193.4h-5.7v1.4h5.7V193.4z M420.8,197.1v-1.5h-5.7v1.5H420.8z M418,190.1
					c0.8-0.6,1.5-1.2,2.1-1.8H417v1.8H418z"/>
				<path class="st47" d="M426.4,194c1.1-0.4,1.7-1.1,1.8-2.1c-0.1,0-0.2,0-0.2,0c-0.6,0-1.1-0.3-1.1-1c0-0.7,0.5-1,1.1-1
					c0.8,0,1.2,0.6,1.2,1.6c0,1.5-1,2.7-2.4,3.2L426.4,194z"/>
				<path class="st47" d="M444.6,196.8v1h-12.4v-1h2.2v-10.4h8.2v10.4H444.6z M435.4,187.5v2.4h6.1v-2.4H435.4z M441.5,190.9h-6.1
					v2.5h6.1V190.9z M435.4,196.8h6.1v-2.5h-6.1V196.8z"/>
				<path class="st47" d="M458.6,187.7h-1.7v9.3c0,0.8-0.2,1.1-0.7,1.3c-0.6,0.2-1.5,0.2-2.9,0.2c-0.1-0.3-0.3-0.8-0.4-1.1
					c1.1,0.1,2.3,0,2.6,0c0.3,0,0.4-0.1,0.4-0.4v-9.3h-9.6v-1h12.4V187.7z M448.7,194.9v1.1h-1v-6.3h5.7v5.2H448.7z M448.7,190.7
					v3.2h3.7v-3.2H448.7z"/>
				<path class="st47" d="M464.3,185.9c-0.4,1-0.9,2-1.4,2.9v9.7h-1v-8.2c-0.5,0.7-1,1.3-1.5,1.8c-0.1-0.2-0.4-0.8-0.6-1
					c1.4-1.3,2.8-3.4,3.6-5.5L464.3,185.9z M468.7,193.4c-0.1,1-0.4,1.9-0.9,2.7c1.4,0.8,3.2,1.2,5.2,1.5c-0.2,0.2-0.5,0.6-0.6,0.9
					c-2-0.3-3.7-0.8-5.2-1.7c-0.7,0.7-1.7,1.3-3.2,1.7c-0.1-0.2-0.4-0.7-0.6-0.9c1.4-0.4,2.3-0.8,3-1.4c-0.8-0.6-1.5-1.4-2-2.3
					l0.9-0.3c0.4,0.7,1,1.3,1.8,1.9c0.4-0.7,0.7-1.4,0.8-2.2h-3.4v-3.8h3.5v-1.4h-3.9v-1h3.9v-1.5h1v1.5h4v1h-4v1.4h3.6v3.8H468.7z
					 M467.8,192.5c0-0.2,0-0.4,0-0.6v-1.4h-2.5v2.1H467.8z M468.8,190.4v1.4c0,0.2,0,0.4,0,0.6h2.6v-2.1H468.8z"/>
				<path class="st47" d="M485.8,197c0,0.7-0.2,1-0.6,1.2c-0.5,0.2-1.3,0.2-2.6,0.2c0-0.3-0.2-0.7-0.4-1c1,0,1.9,0,2.2,0
					c0.3,0,0.4-0.1,0.4-0.4v-2.8H481v4.1h-1v-4.1h-3.5c-0.2,1.6-0.7,3.2-1.8,4.3c-0.2-0.2-0.6-0.6-0.8-0.7c1.5-1.7,1.7-4.2,1.7-6.1
					v-5h10.2V197z M479.9,193.2v-2.3h-3.3v0.8c0,0.5,0,1-0.1,1.5H479.9z M476.6,187.6v2.2h3.3v-2.2H476.6z M484.7,187.6H481v2.2h3.8
					V187.6z M484.7,193.2v-2.3H481v2.3H484.7z"/>
				<path class="st47" d="M499.3,198.4h-1.1v-0.7H492v0.7h-1v-4.6c-0.8,0.3-1.6,0.5-2.3,0.7c-0.1-0.3-0.3-0.7-0.5-1
					c1.8-0.4,3.6-1,5.3-1.9c-0.7-0.7-1.7-1.5-2.7-2.2c-0.5,0.3-1,0.7-1.6,0.9c-0.2-0.2-0.5-0.6-0.7-0.8c2.3-1.1,3.8-2.6,4.7-4
					l1.2,0.3c-0.3,0.4-0.6,0.8-0.9,1.2h5l0.2-0.1l0.7,0.4c-1.1,2.2-3.2,4-5.5,5.2h5.6V198.4z M492.5,188c-0.3,0.3-0.6,0.6-0.9,0.8
					c1,0.7,2.1,1.6,2.8,2.2c1.3-0.8,2.5-1.9,3.3-3.1H492.5z M498.2,196.8v-3.2H492v3.2H498.2z"/>
				<path class="st47" d="M506.3,194c-0.2-0.4-0.8-1.1-1.2-1.7v6.1h-1v-6.1c-0.5,1.4-1.1,2.7-1.7,3.6c-0.1-0.3-0.4-0.7-0.5-1
					c0.8-1,1.6-2.8,2-4.4h-1.9v-1h2v-2.2c-0.6,0.1-1.2,0.3-1.8,0.3c0-0.2-0.2-0.6-0.3-0.8c1.5-0.3,3.1-0.6,4-1.1l0.8,0.7
					c-0.5,0.2-1.1,0.4-1.7,0.6v2.4h1.8v1h-1.8v0.7c0.4,0.3,1.5,1.6,1.8,1.9L506.3,194z M514.9,195.7h-0.8v1.6c0,0.5-0.1,0.8-0.5,1
					c-0.4,0.2-0.9,0.2-1.8,0.2c-0.1-0.3-0.2-0.7-0.4-0.9c0.6,0,1.2,0,1.4,0c0.2,0,0.3-0.1,0.3-0.2v-1.6h-4.8v2.7h-1v-2.7h-1v-0.9h1
					v-4.3h2.8v-0.7h1v0.7h2.9v4.3h0.8V195.7z M514.3,186.6c-1.8,0.6-4.7,0.9-7,1.1c0-0.2-0.1-0.6-0.3-0.8c2.3-0.2,5.1-0.6,6.6-1.1
					L514.3,186.6z M508.5,190c-0.2-0.5-0.7-1.3-1.1-1.9l0.8-0.3c0.5,0.6,1,1.3,1.2,1.8L508.5,190z M508.4,191.4v1.3h1.8v-1.3H508.4z
					 M508.4,194.8h1.8v-1.3h-1.8V194.8z M510.6,189.7c-0.1-0.5-0.5-1.3-0.8-1.8l0.8-0.3c0.4,0.5,0.8,1.3,0.9,1.8L510.6,189.7z
					 M511.2,191.4v1.3h2v-1.3H511.2z M513.2,194.8v-1.3h-2v1.3H513.2z M514.2,187.5c-0.4,0.9-1.1,1.8-1.7,2.4
					c-0.2-0.1-0.6-0.4-0.9-0.4c0.6-0.6,1.2-1.4,1.6-2.2L514.2,187.5z"/>
				<path class="st47" d="M528.7,194.2v1h-12.6v-1h1.4l-0.3-7.4c0.9-0.3,1.9-0.7,2.6-1.1l0.5,0.9c-0.6,0.3-1.4,0.5-2.1,0.8l0.1,1.6
					h1.9v0.9h-1.8l0.1,1.7h1.8v0.9h-1.8l0.1,1.7h7.9c0-0.5,0.1-1.1,0.1-1.7h-1.8v-0.9h1.8c0-0.6,0-1.1,0.1-1.7h-1.8V189h1.9
					c0-0.6,0-1.2,0-1.8h-2v-0.9h3c0,2.5-0.1,5.8-0.2,7.8H528.7z M521.1,196c-1.1,0.9-2.8,1.8-4.2,2.4c-0.1-0.2-0.4-0.6-0.6-0.8
					c1.3-0.5,3-1.5,3.9-2.2L521.1,196z M522.1,191c-0.1,1-0.4,1.9-0.9,2.6c-0.2-0.1-0.5-0.3-0.7-0.4c0.4-0.6,0.6-1.5,0.8-2.3
					L522.1,191z M523.1,190.3h-2.2v-4.5h0.9v1.3h2.3v0.9h-2.3v1.5h1.8v0h0.4v3.7c0,0.4-0.1,0.6-0.4,0.8c-0.3,0.1-0.8,0.1-1.5,0.1
					c0-0.2-0.2-0.5-0.3-0.7c0.5,0,0.9,0,1.1,0c0.2,0,0.2-0.1,0.2-0.2V190.3z M524.3,195.4c1.5,0.7,3.1,1.6,4.1,2.2l-0.7,0.8
					c-1-0.7-2.5-1.6-4-2.3L524.3,195.4z"/>
				<path class="st47" d="M542.5,187.2v0.9h-12.2v-0.9h5.8c-0.1-0.4-0.3-0.9-0.5-1.3l1-0.3c0.2,0.5,0.4,1.1,0.6,1.6H542.5z
					 M541.7,197.3c0,0.5-0.1,0.8-0.5,0.9c-0.4,0.1-1.1,0.1-2.3,0.1c-0.1-0.3-0.2-0.6-0.3-0.8c0.9,0,1.7,0,1.9,0
					c0.2,0,0.3-0.1,0.3-0.3V191h-2.8v0.9c0,0.3,0,0.4,0.3,0.4h1.3c0.2,0,0.6,0,0.8-0.1c0,0.2,0,0.5,0.1,0.7
					c-0.2,0.1-0.5,0.1-0.8,0.1H538c-0.9,0-1-0.4-1-1.2V191h-1.6c-0.2,1.5-0.9,2.2-2.8,2.7c-0.1-0.2-0.3-0.6-0.5-0.7
					c1.6-0.3,2.2-0.9,2.4-1.9h-2.4v7.5h-1v-8.3h6.5c0.4-0.6,0.8-1.3,1-1.9l1.1,0.2c-0.3,0.6-0.7,1.2-1.1,1.7h3.2V197.3z
					 M534.2,188.1c0.3,0.5,0.7,1.1,0.9,1.6l-0.9,0.4c-0.2-0.4-0.6-1.1-0.9-1.6L534.2,188.1z M534.7,196.7v0.6h-0.9v-3.8h5.1v3.2
					H534.7z M534.7,194.3v1.6h3.3v-1.6H534.7z"/>
				<path class="st47" d="M548.2,193.3c-0.2-0.4-0.6-1.3-1-2v7.1h-1v-7.1c-0.5,1.6-1.1,3.2-1.8,4.2c-0.1-0.3-0.4-0.8-0.6-1
					c0.9-1.1,1.8-3.4,2.2-5.2h-1.8v-1h2v-2.7h1v2.7h1.5v1h-1.5v0.7c0.4,0.5,1.4,2.1,1.6,2.5L548.2,193.3z M551.1,195.5
					c-0.5,1-1.3,1.9-2,2.5c-0.2-0.2-0.6-0.4-0.8-0.5c0.8-0.6,1.5-1.4,1.9-2.3L551.1,195.5z M551.1,187.2h-2.4v-0.9h7.8v0.9H554v0.9
					h2.3v3.3H549v-3.3h2.1V187.2z M553,194.8v3.7h-0.9v-3.7h-3.3v-0.9h7.8v0.9H553z M549.6,192.9v-0.8h6v0.8H549.6z M549.9,190.6
					h1.2v-1.7h-1.2V190.6z M553.2,187.2h-1.3v0.9h1.3V187.2z M551.9,190.6h1.3v-1.7h-1.3V190.6z M554,188.9v1.7h1.4v-1.7H554z
					 M554.8,195.2c0.7,0.7,1.5,1.7,1.9,2.3l-0.8,0.5c-0.4-0.7-1.1-1.6-1.8-2.4L554.8,195.2z"/>
			</g>
			<path class="st47" d="M292.7,191.8c0,1-0.8,1.8-1.8,1.8c-1,0-1.8-0.8-1.8-1.8s0.8-1.8,1.8-1.8C291.9,190,292.7,190.8,292.7,191.8
				z"/>
		</g>
		<g>
			<g>
				<path class="st47" d="M301.2,216.9c-0.3,1.1-0.9,2.3-1.6,3c-0.2-0.2-0.6-0.4-0.8-0.6c0.6-0.7,1.1-1.7,1.4-2.7L301.2,216.9z
					 M303.5,216.4h-3.9v-8.8h3.9V216.4z M302.6,208.5h-2.1v1.8h2.1V208.5z M302.6,211.1h-2.1v1.8h2.1V211.1z M302.6,213.7h-2.1v1.8
					h2.1V213.7z M302.8,216.7c0.5,0.7,0.9,1.6,1.2,2.2l-0.8,0.4c-0.2-0.6-0.7-1.5-1.1-2.2L302.8,216.7z M311.8,217.6H311v1.2
					c0,0.5-0.1,0.8-0.5,0.9c-0.4,0.1-1,0.1-2,0.1c0-0.2-0.2-0.6-0.3-0.8c0.7,0,1.4,0,1.6,0c0.2,0,0.2-0.1,0.2-0.2v-1.2h-4.4v2.3
					h-0.9v-2.3h-0.9v-0.8h0.9v-3.6h2.6v-0.8h-3.5v-0.8h2v-0.9h-1.3v-0.8h1.3v-0.8h-1.7v-0.8h1.7v-1.2h0.9v1.2h2.1v-1.2h0.9v1.2h1.7
					v0.8h-1.7v0.8h1.5v0.8h-1.5v0.9h2v0.8h-3.5v0.8h2.7v3.6h0.8V217.6z M305.6,214v1h1.7v-1H305.6z M305.6,216.8h1.7v-1.1h-1.7
					V216.8z M306.7,209.9h2.1v-0.8h-2.1V209.9z M306.7,211.6h2.1v-0.9h-2.1V211.6z M308.2,214v1h1.8v-1H308.2z M310,216.8v-1.1h-1.8
					v1.1H310z"/>
				<path class="st47" d="M318.2,218.2c-1.1,0.7-2.9,1.3-4.3,1.7c-0.2-0.2-0.5-0.6-0.8-0.8c1.5-0.3,3.2-0.8,4.2-1.4L318.2,218.2z
					 M324.8,207.7v3.1h-10.8v-3.1H324.8z M324,211.6v6h-9.1v-6H324z M315,210h2.3v-1.5H315V210z M315.9,213.4h7v-1h-7V213.4z
					 M315.9,215.1h7v-1h-7V215.1z M315.9,216.9h7v-1.1h-7V216.9z M318.2,210h2.3v-1.5h-2.3V210z M321.4,217.8
					c1.6,0.5,3.3,1.1,4.4,1.6l-1.1,0.6c-0.9-0.4-2.5-1.1-4.1-1.6L321.4,217.8z M321.4,210h2.4v-1.5h-2.4V210z"/>
				<path class="st47" d="M329.5,212.8c-0.2-0.3-0.4-0.6-0.7-0.9c-0.3,0.7-0.7,1.4-1.1,1.9c-0.1-0.2-0.5-0.5-0.7-0.6
					c0.8-0.8,1.3-2.1,1.6-3.5l0.9,0.2c-0.1,0.4-0.2,0.8-0.3,1.2c0.4,0.4,0.8,0.8,1,1.1L329.5,212.8z M330.9,214.5h2.5v0.9h-2.5v4.4
					h-1v-4.4h-2.8v-0.9h2.8v-1h0.4c-0.2-0.2-0.4-0.4-0.6-0.5c0.8-0.8,1.3-1.9,1.6-3.2l0.9,0.2c-0.1,0.4-0.2,0.9-0.4,1.3
					c0.5,0.5,1.1,1.2,1.4,1.7l-0.6,0.5c-0.2-0.4-0.7-1-1.1-1.5c-0.3,0.6-0.6,1.1-1,1.5h0.5V214.5z M329.3,216.5
					c-0.3,1-0.8,2-1.4,2.6c-0.2-0.1-0.6-0.4-0.8-0.5c0.6-0.6,1-1.5,1.3-2.3L329.3,216.5z M333.3,209.6h-6.1v-0.9h2.9
					c-0.2-0.4-0.4-0.9-0.6-1.2l0.9-0.3c0.3,0.5,0.6,1.1,0.8,1.5l-0.1,0h2.2V209.6z M332.2,216.3c0.5,0.7,1,1.7,1.2,2.3l-0.8,0.4
					c-0.2-0.6-0.7-1.7-1.2-2.4L332.2,216.3z M339.7,219.2H335v0.7h-1V212c-0.2,0.3-0.4,0.6-0.5,0.8c-0.2-0.2-0.6-0.5-0.8-0.7
					c1-1.2,1.8-3.1,2.3-5l1,0.2c-0.2,0.8-0.5,1.6-0.8,2.4h4.6v1h-1.9v1.9h1.8v0.9h-1.8v1.9h1.8v0.9h-1.8v1.9h2V219.2z M336.8,210.7
					H335v1.9h1.8V210.7z M336.8,213.5H335v1.9h1.8V213.5z M335,218.2h1.8v-1.9H335V218.2z M337.2,209.6c-0.2-0.5-0.6-1.4-0.9-2
					l0.9-0.3c0.4,0.6,0.8,1.4,1,2L337.2,209.6z"/>
				<path class="st47" d="M345.6,210.3H341v-0.9h4.6V210.3z M341.5,212.1v-0.8h3.7v0.8H341.5z M345.2,214h-3.7v-0.8h3.7V214z
					 M345.3,219h-2.9v0.7h-0.8V215h3.7V219z M343.6,209.3c-0.2-0.5-0.8-1.3-1.2-1.9l0.8-0.4c0.5,0.6,1,1.3,1.2,1.8L343.6,209.3z
					 M342.4,215.9v2.3h2v-2.3H342.4z M345.6,218.2c0.5-0.7,0.7-2,0.9-3.1l0.8,0.3c-0.1,1.1-0.4,2.5-0.9,3.4L345.6,218.2z
					 M349.1,210.1H346v-1h3.1v-2h1v2h3.5v1h-3.5v2.1h3.2v1h-7.1v-1h2.8V210.1z M350.5,218.5c0.4,0,0.4-0.2,0.5-1.9
					c0.2,0.2,0.6,0.3,0.9,0.4c-0.1,1.9-0.4,2.4-1.3,2.4h-1.5c-1,0-1.3-0.3-1.3-1.3v-3.5h1v3.5c0,0.3,0.1,0.4,0.4,0.4H350.5z
					 M350.6,215.6c-0.4-0.5-1.3-1.3-2.1-1.9l0.7-0.6c0.8,0.5,1.7,1.2,2.1,1.8L350.6,215.6z M352.4,215c0.7,1,1.2,2.3,1.4,3.2
					l-0.9,0.4c-0.2-0.9-0.7-2.2-1.3-3.2L352.4,215z"/>
				<path class="st47" d="M366.9,218.5c0,0.7-0.1,1-0.6,1.2c-0.5,0.2-1.3,0.2-2.5,0.2c0-0.3-0.2-0.8-0.4-1.1c0.9,0,1.8,0,2.1,0
					c0.3,0,0.3-0.1,0.3-0.3v-7.3h-3.6c0.5,2.1,1.6,3.7,3.4,4.5c-0.2,0.2-0.6,0.6-0.7,0.9c-1.8-0.9-2.9-2.5-3.5-4.6
					c-0.6,2.1-1.7,3.7-3.6,4.7c-0.2-0.2-0.5-0.6-0.7-0.8c1.9-0.9,3-2.4,3.5-4.6H357v8.7h-1v-9.7h5.1c-0.1-0.5-0.1-1-0.2-1.6h-2.5
					v-0.9h3.4c0,0.9,0.1,1.7,0.3,2.5h4.8V218.5z"/>
				<path class="st47" d="M372.9,207.3c-0.2,0.7-0.5,1.5-0.7,2.1h2.3v9.1h-3.9v1.1h-1v-10.2h1.6c0.2-0.7,0.5-1.6,0.6-2.3
					L372.9,207.3z M373.5,210.3h-2.9v2.9h2.9V210.3z M373.5,217.5v-3.4h-2.9v3.4H373.5z M381.3,209.8c-0.2,6.4-0.4,8.5-1,9.2
					c-0.3,0.4-0.6,0.5-1.1,0.6c-0.5,0.1-1.3,0-2.1,0c0-0.3-0.2-0.7-0.4-1c0.9,0.1,1.8,0.1,2.1,0.1c0.3,0,0.4,0,0.6-0.2
					c0.5-0.5,0.7-2.6,0.9-8.2h-3.6c-0.4,0.9-0.8,1.8-1.3,2.5c-0.2-0.2-0.6-0.4-0.9-0.6c0.9-1.2,1.7-3.2,2.1-5.1l1,0.2
					c-0.2,0.7-0.4,1.4-0.6,2h4.2V209.8z M378.2,216.1c-0.4-0.8-1.4-2.2-2.1-3.2l0.8-0.5c0.8,1,1.8,2.3,2.2,3.2L378.2,216.1z"/>
				<path class="st47" d="M385.2,212.3c0,2.2-0.2,5.4-1.5,7.5c-0.2-0.2-0.6-0.4-0.9-0.5c1.2-2,1.3-4.9,1.3-7v-4h5.4
					c-0.1-0.4-0.2-0.7-0.4-1l1.1-0.2c0.2,0.4,0.3,0.9,0.5,1.2h4.9v0.9h-10.4V212.3z M389.5,218.4c-1.2,0.5-2.8,1.1-3.9,1.6
					c-0.1-0.2-0.4-0.6-0.5-0.7c1.1-0.4,2.7-1,3.6-1.5L389.5,218.4z M395.7,212.5v0.7h-10.1v-0.7H395.7z M387.7,212.1v-1.2h-1.8v-0.7
					h1.8v-0.8h1v0.8h3.6v-0.8h1v0.8h1.8v0.7h-1.8v1.2H387.7z M394.7,217.7h-8.4v-4h8.4V217.7z M387.3,215.3h2.7v-1h-2.7V215.3z
					 M387.3,217h2.7v-1h-2.7V217z M388.7,210.9v0.7h3.6v-0.7H388.7z M393.7,214.3H391v1h2.7V214.3z M393.7,216H391v1h2.7V216z
					 M391.9,217.7c1.3,0.5,2.8,1.1,3.7,1.5l-0.5,0.7c-0.9-0.4-2.3-1.1-3.6-1.5L391.9,217.7z"/>
				<path class="st47" d="M409.5,212.3v1h-12.2v-1h5.9v-2.2h-3.4c-0.4,0.7-0.9,1.4-1.3,1.9c-0.2-0.1-0.7-0.4-0.9-0.6
					c1-1,1.9-2.6,2.4-4.1l1,0.2c-0.2,0.6-0.4,1.1-0.7,1.6h2.9v-2h1.1v2h4.3v1h-4.3v2.2H409.5z M399,214.6h8.9v5.4h-1.1v-0.8h-6.8
					v0.8h-1V214.6z M400.1,215.6v2.7h6.8v-2.7H400.1z"/>
				<path class="st47" d="M412.4,215.4c1.1-0.4,1.7-1.1,1.8-2.1c-0.1,0-0.2,0-0.2,0c-0.6,0-1.1-0.3-1.1-1c0-0.7,0.5-1,1.1-1
					c0.8,0,1.2,0.6,1.2,1.6c0,1.5-1,2.7-2.4,3.2L412.4,215.4z"/>
				<path class="st47" d="M421.6,207.4c-0.3,0.9-0.6,1.8-1,2.7v9.8h-1v-7.8c-0.4,0.7-0.8,1.3-1.2,1.8c-0.1-0.2-0.4-0.8-0.5-1.1
					c1.1-1.4,2.2-3.5,2.8-5.7L421.6,207.4z M429.5,216.5c-0.5,0.7-1.3,1.4-2.3,1.9c1.1,0.3,2.3,0.5,3.6,0.6
					c-0.2,0.2-0.4,0.6-0.5,0.8c-1.5-0.2-2.9-0.5-4.2-1c-1.2,0.4-2.6,0.8-4.3,1c-0.1-0.2-0.3-0.6-0.5-0.8c1.4-0.2,2.6-0.4,3.7-0.7
					c-0.5-0.3-1-0.6-1.4-0.9c-0.4,0.3-0.9,0.5-1.4,0.8c-0.1-0.2-0.4-0.5-0.6-0.6c0.5-0.2,1-0.5,1.4-0.7c-0.2-0.2-0.4-0.4-0.5-0.6
					l0.8-0.3c0.1,0.2,0.3,0.3,0.4,0.5c0.5-0.3,0.9-0.7,1.2-1c-0.4-0.1-0.5-0.3-0.5-0.9v-0.8h0.9v0.8c0,0.3,0.1,0.3,0.5,0.3h1.7
					c0.3,0,0.4-0.1,0.4-0.6c0.2,0.1,0.5,0.2,0.7,0.2c-0.1,0.8-0.3,1-1.1,1h-1.7c-0.2,0.2-0.4,0.4-0.6,0.6h3.5l0.2,0L429.5,216.5z
					 M430.8,212.7v1.9h-0.9v-1.2H426c0.4,0.3,1,0.6,1.2,0.9l-0.6,0.4c-0.3-0.3-0.9-0.7-1.4-1l0.5-0.3h-3.3v1.2h-0.9v-1.9h1.4v-3.5
					h2.4c0.1-0.2,0.1-0.5,0.2-0.7h-3.6v-0.8h8.7v0.8h-4c-0.1,0.3-0.2,0.5-0.3,0.7h3.2v3.5H430.8z M424.1,214.2
					c-0.4,0.5-0.9,1.2-1.5,1.6l-0.6-0.5c0.6-0.3,1.1-0.9,1.4-1.4L424.1,214.2z M423.8,209.8v0.6h4.7v-0.6H423.8z M428.5,211h-4.7
					v0.6h4.7V211z M423.8,212.7h4.7v-0.6h-4.7V212.7z M424.1,217.1c0.5,0.4,1.1,0.7,1.9,1c0.8-0.3,1.5-0.7,2-1.1h-3.7L424.1,217.1z
					 M429.7,215.8c-0.3-0.5-1-1.2-1.6-1.7l0.6-0.4c0.6,0.5,1.3,1.1,1.6,1.6L429.7,215.8z"/>
				<path class="st47" d="M432.2,219c0.6-0.7,1-1.8,1.3-2.6l0.9,0.4c-0.3,0.9-0.7,2-1.3,2.7L432.2,219z M432.5,214.7
					c1.4,0,3.3,0,5.3,0v-1.1h-4.3v-3.9h4.3v-0.9h-5.3V208h5.3v-0.8h1.1v0.8h5.4v0.9h-5.4v0.9h4.5v3.9h-2.2c1.2,0.5,2.6,1.4,3.3,2
					l-0.7,0.6c-0.2-0.3-0.6-0.5-0.9-0.8c-3.7,0.1-7.7,0.2-10.2,0.2L432.5,214.7z M434.4,211.3h3.3v-0.9h-3.3V211.3z M437.8,212.9
					V212h-3.3v0.9H437.8z M440.2,218.8c0.7,0,0.8-0.2,0.9-1.4c0.2,0.2,0.6,0.3,0.9,0.4c-0.1,1.6-0.5,1.9-1.7,1.9h-3.2
					c-1.6,0-2-0.3-2-1.3v-2h1v2c0,0.4,0.2,0.4,1,0.4H440.2z M439.4,217.9c-0.5-0.5-1.5-1.2-2.3-1.6l0.7-0.6c0.8,0.4,1.8,1,2.4,1.5
					L439.4,217.9z M438.8,210.4v0.9h3.4v-0.9H438.8z M442.3,212h-3.4v0.9h3.4V212z M438.8,214.7c0.9,0,1.8,0,2.7,0
					c-0.4-0.2-0.8-0.4-1.2-0.6l0.6-0.5h-2.2V214.7z M442.8,216.4c0.7,0.8,1.4,1.9,1.7,2.6l-0.9,0.3c-0.3-0.7-1-1.8-1.6-2.6
					L442.8,216.4z"/>
				<path class="st47" d="M449.2,216.3c0-1.4,1-2.3,1.9-2.8v-0.1c-0.8-0.5-1.4-1.3-1.4-2.4c0-1.6,1.2-2.6,2.8-2.6
					c1.8,0,2.8,1.1,2.8,2.7c0,1.1-0.8,2-1.4,2.5v0.1c0.9,0.5,1.7,1.3,1.7,2.7c0,1.5-1.3,2.7-3.2,2.7
					C450.5,219,449.2,217.8,449.2,216.3z M454.4,216.3c0-1.4-1.3-1.9-2.7-2.5c-0.8,0.5-1.4,1.3-1.4,2.3c0,1.1,0.9,1.9,2.1,1.9
					C453.6,218,454.4,217.3,454.4,216.3z M454.2,211.2c0-1-0.6-1.8-1.8-1.8c-0.9,0-1.6,0.7-1.6,1.7c0,1.2,1.1,1.8,2.3,2.2
					C453.8,212.6,454.2,211.9,454.2,211.2z"/>
				<path class="st47" d="M463.2,214.6v4c0,0.6-0.1,0.9-0.5,1c-0.4,0.2-0.9,0.2-1.8,0.2c0-0.3-0.2-0.7-0.3-1c0.6,0,1.2,0,1.4,0
					c0.2,0,0.3-0.1,0.3-0.3v-3.7c-0.7,0.2-1.3,0.4-1.8,0.5l-0.3-1c0.6-0.1,1.3-0.4,2.2-0.6v-3h-1.9v-1h1.9v-2.8h1v2.8h1.9v1h-1.9
					v2.7l1.8-0.5l0.1,1L463.2,214.6z M472.8,212.7h-2.4v7.1h-1v-7.1h-2.6v0c0,2.5-0.2,5-1.7,7.1c-0.2-0.2-0.5-0.5-0.8-0.7
					c1.4-2,1.5-4.3,1.5-6.5v-4.4c2-0.2,4.5-0.6,5.9-1.1l0.6,0.9c-1.4,0.4-3.6,0.8-5.5,1v2.6h6V212.7z"/>
			</g>
			<path class="st47" d="M292.7,213.2c0,1-0.8,1.8-1.8,1.8c-1,0-1.8-0.8-1.8-1.8c0-1,0.8-1.8,1.8-1.8
				C291.9,211.4,292.7,212.2,292.7,213.2z"/>
		</g>
		<g>
			<g>
				<g>
					<path class="st2" d="M520.4,107.6c0.5,0,0.6-0.4,0.7-2.4c0.3,0.2,0.9,0.5,1.2,0.6c-0.1,2.4-0.5,3.1-1.8,3.1h-1.9
						c-1.4,0-1.8-0.4-1.8-1.8v-4.7h-2.4c-0.3,3-0.9,5.4-4.2,6.7c-0.1-0.3-0.5-0.8-0.8-1c2.9-1.1,3.4-3.2,3.6-5.6h-3.4v-1.3H522v1.3
						h-3.8v4.7c0,0.5,0.1,0.6,0.6,0.6H520.4z M520.8,98.5h-9.9v-1.3h9.9V98.5z"/>
					<path class="st2" d="M527.2,96.8h1.1l-3.9,13.7h-1.1L527.2,96.8z"/>
					<path class="st2" d="M532.7,98.8c-0.7,1.1-1.4,2-2.2,2.8c-0.3-0.2-0.8-0.6-1.2-0.8c1.3-1.1,2.5-2.9,3.2-4.6l1.3,0.4
						c-0.2,0.3-0.3,0.7-0.5,1h8.4v1.2H532.7z M540.2,104.2c0,0.8-0.1,1.4-0.1,1.9h1.6v1.1h-1.8c-0.1,0.6-0.2,1-0.4,1.2
						c-0.3,0.4-0.6,0.5-1.1,0.6c-0.4,0-1.1,0-1.8,0c0-0.3-0.1-0.7-0.3-1c0.7,0.1,1.3,0.1,1.5,0.1c0.2,0,0.4,0,0.5-0.2
						c0.1-0.1,0.2-0.3,0.2-0.6h-7.8c0.2-0.8,0.4-1.9,0.5-3.1h-1.9V103h2.1c0.1-1,0.3-2.1,0.4-3h8.4c0,0,0,0.4,0,0.6
						c0,0.9-0.1,1.7-0.1,2.4h2v1.2H540.2z M532.7,104.2c-0.1,0.7-0.2,1.4-0.3,2h3.8c-0.6-0.5-1.4-1-2.2-1.4l0.6-0.6H532.7z
						 M533.1,101.1c-0.1,0.6-0.2,1.3-0.3,1.9h3.6c-0.6-0.5-1.4-1-2.1-1.3l0.6-0.6H533.1z M538.8,106.1c0.1-0.5,0.1-1.2,0.1-2h-3.9
						c0.8,0.4,1.7,1,2.2,1.5l-0.5,0.5H538.8z M539,103.1c0-0.6,0-1.2,0.1-1.9h-3.7c0.8,0.4,1.7,0.9,2.2,1.4l-0.5,0.5H539z"/>
					<path class="st2" d="M556.4,106h-4.9v3.1h-1.3V106h-6.4v-1.3h2.3V101h4.1v-1.9H547c-0.6,1-1.3,2-2,2.7
						c-0.3-0.2-0.8-0.6-1.1-0.8c1.3-1.1,2.4-2.9,3.1-4.7l1.3,0.4c-0.2,0.4-0.4,0.9-0.5,1.3h8.1v1.3h-4.2v1.9h3.9v1.2h-3.9v2.5h4.9
						V106z M550.2,104.7v-2.5h-2.8v2.5H550.2z"/>
				</g>
			</g>
			<g>
				<path class="st2" d="M434.6,109h-3.2V93.4l-2.5,1.3v-3.3l2.8-1.6h2.9V109z"/>
				<path class="st2" d="M440.6,107.7c-1-1-1.4-2.3-1.4-4V95c0-1.7,0.5-3.1,1.4-4c1-1,2.3-1.4,4.2-1.4c1.8,0,3.2,0.5,4.2,1.4
					c1,0.9,1.4,2.3,1.4,4v8.7c0,1.7-0.5,3.1-1.4,4c-1,1-2.3,1.4-4.2,1.4C443,109.2,441.6,108.7,440.6,107.7z M446.7,105.4
					c0.4-0.5,0.6-1.2,0.6-2.1v-7.8c0-0.9-0.2-1.6-0.6-2.1c-0.4-0.5-1-0.7-1.9-0.7s-1.5,0.2-1.9,0.7c-0.4,0.5-0.6,1.2-0.6,2.1v7.8
					c0,0.9,0.2,1.6,0.6,2.1c0.4,0.5,1,0.7,1.9,0.7S446.3,105.9,446.7,105.4z"/>
				<path class="st2" d="M453.5,105.8h3.2v4.5l-3.2,3.2V105.8z"/>
				<path class="st2" d="M461.2,107.7c-1-1-1.4-2.3-1.4-4V95c0-1.7,0.5-3.1,1.4-4c1-1,2.3-1.4,4.2-1.4c1.8,0,3.2,0.5,4.2,1.4
					c1,0.9,1.4,2.3,1.4,4v8.7c0,1.7-0.5,3.1-1.4,4c-1,1-2.3,1.4-4.2,1.4C463.6,109.2,462.2,108.7,461.2,107.7z M467.2,105.4
					c0.4-0.5,0.6-1.2,0.6-2.1v-7.8c0-0.9-0.2-1.6-0.6-2.1c-0.4-0.5-1-0.7-1.9-0.7s-1.5,0.2-1.9,0.7c-0.4,0.5-0.6,1.2-0.6,2.1v7.8
					c0,0.9,0.2,1.6,0.6,2.1c0.4,0.5,1,0.7,1.9,0.7S466.8,105.9,467.2,105.4z"/>
				<path class="st2" d="M476.1,107.7c-1-1-1.4-2.3-1.4-4V95c0-1.7,0.5-3.1,1.4-4c1-1,2.3-1.4,4.2-1.4c1.8,0,3.2,0.5,4.2,1.4
					c1,0.9,1.4,2.3,1.4,4v8.7c0,1.7-0.5,3.1-1.4,4c-1,1-2.3,1.4-4.2,1.4C478.5,109.2,477.1,108.7,476.1,107.7z M482.2,105.4
					c0.4-0.5,0.6-1.2,0.6-2.1v-7.8c0-0.9-0.2-1.6-0.6-2.1c-0.4-0.5-1-0.7-1.9-0.7s-1.5,0.2-1.9,0.7c-0.4,0.5-0.6,1.2-0.6,2.1v7.8
					c0,0.9,0.2,1.6,0.6,2.1c0.4,0.5,1,0.7,1.9,0.7S481.8,105.9,482.2,105.4z"/>
				<path class="st2" d="M491.1,107.7c-1-1-1.4-2.3-1.4-4V95c0-1.7,0.5-3.1,1.4-4c1-1,2.3-1.4,4.2-1.4c1.8,0,3.2,0.5,4.2,1.4
					c1,0.9,1.4,2.3,1.4,4v8.7c0,1.7-0.5,3.1-1.4,4c-1,1-2.3,1.4-4.2,1.4C493.4,109.2,492,108.7,491.1,107.7z M497.1,105.4
					c0.4-0.5,0.6-1.2,0.6-2.1v-7.8c0-0.9-0.2-1.6-0.6-2.1c-0.4-0.5-1-0.7-1.9-0.7s-1.5,0.2-1.9,0.7c-0.4,0.5-0.6,1.2-0.6,2.1v7.8
					c0,0.9,0.2,1.6,0.6,2.1c0.4,0.5,1,0.7,1.9,0.7S496.7,105.9,497.1,105.4z"/>
			</g>
		</g>
		<g>
			<g>
				<g>
					<g>
						<path class="st2" d="M520.4,51.9c0.5,0,0.6-0.4,0.7-2.4c0.3,0.2,0.9,0.5,1.2,0.6c-0.1,2.4-0.5,3.1-1.8,3.1h-1.9
							c-1.4,0-1.8-0.4-1.8-1.8v-4.7h-2.4c-0.3,3-0.9,5.4-4.2,6.7c-0.1-0.3-0.5-0.8-0.8-1c2.9-1.1,3.4-3.2,3.6-5.6h-3.4v-1.3H522v1.3
							h-3.8v4.7c0,0.5,0.1,0.6,0.6,0.6H520.4z M520.8,42.8h-9.9v-1.3h9.9V42.8z"/>
						<path class="st2" d="M527.2,41.1h1.1l-3.9,13.7h-1.1L527.2,41.1z"/>
						<path class="st2" d="M532.7,43c-0.7,1.1-1.4,2-2.2,2.8c-0.3-0.2-0.8-0.6-1.2-0.8c1.3-1.1,2.5-2.9,3.2-4.6l1.3,0.4
							c-0.2,0.3-0.3,0.7-0.5,1h8.4V43H532.7z M540.2,48.5c0,0.8-0.1,1.4-0.1,1.9h1.6v1.1h-1.8c-0.1,0.6-0.2,1-0.4,1.2
							c-0.3,0.4-0.6,0.5-1.1,0.6c-0.4,0-1.1,0-1.8,0c0-0.3-0.1-0.7-0.3-1c0.7,0.1,1.3,0.1,1.5,0.1c0.2,0,0.4,0,0.5-0.2
							c0.1-0.1,0.2-0.3,0.2-0.6h-7.8c0.2-0.8,0.4-1.9,0.5-3.1h-1.9v-1.2h2.1c0.1-1,0.3-2.1,0.4-3h8.4c0,0,0,0.4,0,0.6
							c0,0.9-0.1,1.7-0.1,2.4h2v1.2H540.2z M532.7,48.4c-0.1,0.7-0.2,1.4-0.3,2h3.8c-0.6-0.5-1.4-1-2.2-1.4l0.6-0.6H532.7z
							 M533.1,45.4c-0.1,0.6-0.2,1.3-0.3,1.9h3.6c-0.6-0.5-1.4-1-2.1-1.3l0.6-0.6H533.1z M538.8,50.4c0.1-0.5,0.1-1.2,0.1-2h-3.9
							c0.8,0.4,1.7,1,2.2,1.5l-0.5,0.5H538.8z M539,47.3c0-0.6,0-1.2,0.1-1.9h-3.7c0.8,0.4,1.7,0.9,2.2,1.4l-0.5,0.5H539z"/>
						<path class="st2" d="M556.4,50.3h-4.9v3.1h-1.3v-3.1h-6.4V49h2.3v-3.7h4.1v-1.9H547c-0.6,1-1.3,2-2,2.7
							c-0.3-0.2-0.8-0.6-1.1-0.8c1.3-1.1,2.4-2.9,3.1-4.7l1.3,0.4c-0.2,0.4-0.4,0.9-0.5,1.3h8.1v1.3h-4.2v1.9h3.9v1.2h-3.9V49h4.9
							V50.3z M550.2,49v-2.5h-2.8V49H550.2z"/>
					</g>
				</g>
			</g>
			<g>
				<path class="st2" d="M434.7,53.3h-3.2V37.7L429,39v-3.3l2.8-1.6h2.9V53.3z"/>
				<path class="st2" d="M439.1,50.5l6.6-8.8c0.3-0.4,0.6-0.9,0.8-1.4c0.2-0.5,0.3-0.9,0.3-1.3v0c0-0.6-0.2-1.1-0.6-1.5
					c-0.4-0.4-0.9-0.5-1.7-0.5c-0.7,0-1.3,0.2-1.7,0.6c-0.4,0.4-0.7,1-0.8,1.8v0h-3.2v0c0.1-1.2,0.4-2.1,0.9-3
					c0.5-0.8,1.1-1.4,2-1.9c0.8-0.4,1.7-0.6,2.8-0.6c1.2,0,2.2,0.2,3,0.6c0.8,0.4,1.5,1,1.9,1.7s0.7,1.6,0.7,2.7v0
					c0,0.8-0.1,1.6-0.4,2.4c-0.3,0.8-0.7,1.5-1.2,2.2l-5.1,6.8h6.9v3h-11.1V50.5z"/>
				<path class="st2" d="M453.5,50h3.2v4.5l-3.2,3.2V50z"/>
				<path class="st2" d="M461.2,52c-1-1-1.4-2.3-1.4-4v-8.7c0-1.7,0.5-3.1,1.4-4c1-1,2.3-1.4,4.2-1.4c1.8,0,3.2,0.5,4.2,1.4
					c1,0.9,1.4,2.3,1.4,4V48c0,1.7-0.5,3.1-1.4,4c-1,1-2.3,1.4-4.2,1.4C463.6,53.5,462.2,53,461.2,52z M467.2,49.7
					c0.4-0.5,0.6-1.2,0.6-2.1v-7.8c0-0.9-0.2-1.6-0.6-2.1c-0.4-0.5-1-0.7-1.9-0.7s-1.5,0.2-1.9,0.7c-0.4,0.5-0.6,1.2-0.6,2.1v7.8
					c0,0.9,0.2,1.6,0.6,2.1c0.4,0.5,1,0.7,1.9,0.7S466.8,50.2,467.2,49.7z"/>
				<path class="st2" d="M476.1,52c-1-1-1.4-2.3-1.4-4v-8.7c0-1.7,0.5-3.1,1.4-4c1-1,2.3-1.4,4.2-1.4c1.8,0,3.2,0.5,4.2,1.4
					c1,0.9,1.4,2.3,1.4,4V48c0,1.7-0.5,3.1-1.4,4c-1,1-2.3,1.4-4.2,1.4C478.5,53.5,477.1,53,476.1,52z M482.2,49.7
					c0.4-0.5,0.6-1.2,0.6-2.1v-7.8c0-0.9-0.2-1.6-0.6-2.1c-0.4-0.5-1-0.7-1.9-0.7s-1.5,0.2-1.9,0.7c-0.4,0.5-0.6,1.2-0.6,2.1v7.8
					c0,0.9,0.2,1.6,0.6,2.1c0.4,0.5,1,0.7,1.9,0.7S481.8,50.2,482.2,49.7z"/>
				<path class="st2" d="M491.1,52c-1-1-1.4-2.3-1.4-4v-8.7c0-1.7,0.5-3.1,1.4-4c1-1,2.3-1.4,4.2-1.4c1.8,0,3.2,0.5,4.2,1.4
					c1,0.9,1.4,2.3,1.4,4V48c0,1.7-0.5,3.1-1.4,4c-1,1-2.3,1.4-4.2,1.4C493.4,53.5,492,53,491.1,52z M497.1,49.7
					c0.4-0.5,0.6-1.2,0.6-2.1v-7.8c0-0.9-0.2-1.6-0.6-2.1c-0.4-0.5-1-0.7-1.9-0.7s-1.5,0.2-1.9,0.7c-0.4,0.5-0.6,1.2-0.6,2.1v7.8
					c0,0.9,0.2,1.6,0.6,2.1c0.4,0.5,1,0.7,1.9,0.7S496.7,50.2,497.1,49.7z"/>
			</g>
		</g>
		<g>
			<g>
				<path class="st2" d="M303,46v1.4h-12.7V46H303z"/>
				<path class="st2" d="M310.3,47.1v4.6c0,0.6-0.1,1-0.6,1.2c-0.4,0.2-1.1,0.2-2,0.2c0-0.3-0.2-0.8-0.4-1.1c0.6,0,1.3,0,1.5,0
					c0.2,0,0.3-0.1,0.3-0.3v-4.4c-0.9,0.1-1.7,0.2-2.5,0.3c-0.1,1.9-0.4,4.1-1.1,5.7c-0.2-0.2-0.7-0.5-1-0.7c0.7-1.4,0.9-3.3,1-4.9
					l-0.9,0.1l-0.1-1.2l1-0.1V46v-4.2h1.5c0.1-0.4,0.3-1,0.4-1.4l1.3,0.2c-0.2,0.4-0.4,0.9-0.5,1.3h2.1v4.3l0.3,0l0,1L310.3,47.1z
					 M306.7,46.4c0.8-0.1,1.6-0.1,2.5-0.2v-3.4h-2.5v3.1V46.4z M307.7,43.5c0.4,0.6,0.8,1.3,1,1.8l-0.9,0.5c-0.2-0.5-0.6-1.3-1-1.9
					L307.7,43.5z M308,50.5c-0.2-0.6-0.6-1.4-1-2.1l0.8-0.4c0.4,0.6,0.8,1.5,1,2L308,50.5z M316.9,46.5c-0.4,1.8-1.1,3.2-2,4.3
					c0.7,0.5,1.5,0.9,2.5,1.2c-0.3,0.3-0.7,0.8-0.8,1.1c-1-0.3-1.8-0.8-2.6-1.4c-0.8,0.7-1.7,1.1-2.8,1.5c-0.1-0.3-0.5-0.8-0.7-1
					c1-0.3,1.9-0.7,2.6-1.3c-0.8-0.9-1.5-2-1.9-3.3l0.5-0.2H311v-1.1h4.9l0.2,0L316.9,46.5z M312.7,42.8c0,1.1-0.2,2.3-1.2,3.1
					c-0.2-0.2-0.7-0.7-0.9-0.8c0.9-0.7,1-1.5,1-2.3V41h4.3v2.8c0,0.4,0,0.5,0.2,0.5h0.6c0.2,0,0.4,0,0.6-0.1c0,0.3,0,0.8,0.1,1
					c-0.2,0.1-0.5,0.1-0.7,0.1h-0.8c-1.1,0-1.3-0.4-1.3-1.5v-1.7h-1.9V42.8z M312.4,47.4c0.4,1,0.9,1.9,1.6,2.6
					c0.6-0.7,1.1-1.6,1.4-2.6H312.4z"/>
				<path class="st2" d="M326.3,40.8c-0.1,0.2-0.2,0.3-0.3,0.4c1.8,2,3.8,3,5.9,3.9c-0.3,0.3-0.7,0.7-0.8,1.1c-2-1-3.9-2.1-5.8-4.1
					c-1.5,1.7-3.6,3.2-5.7,4.1c-0.2-0.3-0.6-0.8-0.9-1.1c2.5-1,5.1-2.8,6.4-4.9L326.3,40.8z M326,51.7h5.2v1.2h-11.8v-1.2h1.7v-5
					h1.3v5h2.4v-7.4h1.4v3.1h3.9v1.2H326V51.7z"/>
				<path class="st2" d="M338.3,51c-1,0.8-2.7,1.5-4.2,1.8c-0.2-0.3-0.5-0.7-0.8-1c1.4-0.2,3.1-0.7,4-1.3L338.3,51z M345.6,48.9V50
					h-5.5v3.3h-1.3V50h-5.4v-1.1h5.4v-0.8h-4.1v-1h4.1v-0.8H334v-1h2.8c-0.1-0.3-0.4-0.8-0.6-1.2l0.8-0.2h-3.6v-1h2.1
					c-0.2-0.5-0.6-1.3-1-1.9l1.1-0.4c0.4,0.6,0.9,1.5,1.1,2l-0.7,0.3h1.6v-2.4h1.2v2.4h1.4v-2.4h1.2v2.4h1.5l-0.5-0.2
					c0.3-0.6,0.8-1.4,1-2.1l1.3,0.4c-0.4,0.7-0.8,1.4-1.2,1.9h2v1h-3.7l1.1,0.3c-0.3,0.4-0.6,0.8-0.9,1.1h3v1h-5v0.8h4.3v1h-4.3v0.8
					H345.6z M337.5,43.8c0.3,0.4,0.5,0.9,0.7,1.2l-0.6,0.2h3.8l-0.5-0.2c0.3-0.3,0.6-0.9,0.8-1.2H337.5z M341.7,50.5
					c1.2,0.4,2.9,1.1,3.9,1.6l-0.9,0.8c-0.9-0.4-2.6-1.2-3.9-1.7L341.7,50.5z"/>
			</g>
		</g>
		<g>
			<g>
				<path class="st2" d="M294.4,96.8h1.3v6.5c0,2.1-0.6,4.9-4,6.5c-0.2-0.3-0.6-0.7-0.9-1c1.6-0.6,2.5-1.7,3-2.8
					c-1.2,0.2-2.3,0.4-3.2,0.6l-0.3-1.3c1-0.1,2.4-0.4,3.9-0.6c0.1-0.5,0.2-1,0.2-1.4v-0.2h-3.4v-1.2h3.4v-1.9h-3.6v-1.2h3.6V96.8z
					 M303,106.3h-4.1v3.3h-1.3V96.8h1.3v1.9h3.9v1.2h-3.9v1.9h3.6v1.2h-3.6v2h4.1V106.3z"/>
				<path class="st2" d="M314.6,96.7c-0.1,0.9-0.2,1.6-0.4,2.2c0.9,0.5,2.1,1.1,2.8,1.6l-0.6,0.7h0.4v2.6h-1.3v-1.6h-9.2v1.6h-1.2
					v-2.6h0.1c-0.1-0.3-0.4-0.6-0.6-0.8c2.4-0.6,2.8-1.6,2.9-3.6h1.1c0,0.9-0.1,1.6-0.4,2.2c0.7,0.4,1.6,1,2.1,1.3l-0.8,0.8
					c-0.4-0.3-1.1-0.8-1.8-1.2c-0.5,0.6-1.2,1-2.3,1.3h5.6c-0.1-0.3-0.4-0.7-0.6-1c2.4-0.5,2.8-1.5,2.9-3.5H314.6z M306,99
					c-0.2-0.3-0.7-0.9-1.1-1.4l0.8-0.6c0.4,0.4,0.9,1,1.1,1.3L306,99z M310.5,106.2h5.4v3.3h-1.3v-0.3h-7.2v0.4h-1.2v-3.3h3.1
					c0.1-0.2,0.2-0.5,0.3-0.7h-2.5v-2.7h7.5v2.7h-3.8L310.5,106.2z M314.6,107.2h-7.2v1.1h7.2V107.2z M308.4,104.7h5v-1h-5V104.7z
					 M310.8,97.7c-0.4,0.5-0.9,1-1.2,1.4l-0.8-0.3c0.3-0.4,0.7-1,1-1.4L310.8,97.7z M311.9,98.9c-0.2-0.4-0.7-1-1.1-1.4l0.8-0.6
					c0.4,0.4,0.9,1,1.1,1.3L311.9,98.9z M316,101.2c-0.6-0.4-1.5-0.9-2.3-1.4c-0.5,0.6-1.3,1-2.5,1.4H316z M317,97.7
					c-0.5,0.5-1,1.1-1.3,1.5l-0.8-0.4c0.3-0.4,0.8-1.1,1-1.5L317,97.7z"/>
				<path class="st2" d="M323.1,100.9h2.7v1.2h-2.7v0.4c0.7,0.6,2.2,2,2.6,2.4l-0.7,1.1c-0.4-0.5-1.2-1.4-1.8-2.1v5.6h-1.3V104
					c-0.7,1.5-1.5,2.8-2.4,3.7c-0.1-0.4-0.5-0.9-0.7-1.3c1.1-1,2.2-2.8,2.8-4.4H319v-1.2h2.8v-2.1c-0.9,0.2-1.7,0.3-2.5,0.4
					c-0.1-0.3-0.3-0.7-0.4-1c2-0.3,4.4-0.8,5.7-1.4l0.9,1c-0.7,0.3-1.5,0.5-2.4,0.7V100.9z M328,106.1h-1.3v-7.7h1.3V106.1z
					 M331,96.9v11c0,0.8-0.2,1.2-0.7,1.4c-0.5,0.2-1.3,0.3-2.6,0.3c-0.1-0.4-0.3-1-0.5-1.3c0.9,0,1.8,0,2.1,0c0.3,0,0.4-0.1,0.4-0.4
					v-11H331z"/>
				<path class="st2" d="M340,97.3h1.1l-3.9,13.7h-1.1L340,97.3z"/>
				<path class="st2" d="M357.6,100.5c-0.3,2.2-0.8,3.9-1.6,5.4c0.7,1.1,1.5,2,2.6,2.6c-0.3,0.3-0.7,0.8-0.9,1.1
					c-1-0.6-1.8-1.4-2.5-2.5c-0.8,1-1.8,1.8-3.1,2.5c-0.1-0.3-0.5-0.9-0.8-1.2c1.4-0.6,2.4-1.5,3.2-2.6c-0.5-1-0.8-2.2-1.1-3.4
					c-0.3,0.5-0.5,0.9-0.8,1.3c-0.2-0.2-0.5-0.5-0.8-0.7c-0.6,0.6-1.3,1.3-2,1.8v0.5c0.9-0.1,1.7-0.2,2.6-0.3l0,1.1l-2.6,0.3v1.8
					c0,0.6-0.1,0.9-0.5,1.1c-0.4,0.2-1.1,0.2-1.9,0.2c-0.1-0.3-0.2-0.8-0.4-1.1c0.6,0,1.2,0,1.4,0c0.2,0,0.2,0,0.2-0.2v-1.7
					l-2.7,0.3l-0.1-1.2c0.8-0.1,1.8-0.2,2.9-0.3v-0.9c0.5-0.3,1-0.7,1.4-1.1H348c-0.5,0.4-1.1,0.8-1.6,1.1c-0.2-0.3-0.6-0.8-0.9-1
					c1.1-0.5,2-1.2,2.9-2h-2.7v-1.1h2.3v-1.2h-1.7v-1.1h1.7v-1.4h1.2v1.4h1.4v0.8c0.4-0.6,0.7-1.2,1-1.9l1.2,0.4
					c-0.4,1.1-1,2.1-1.7,3h1.4v1.1c0.7-1.3,1.1-3,1.4-4.8l1.3,0.2c-0.1,0.8-0.3,1.6-0.5,2.4h3.9v1.2H357.6z M349.1,100.4h0.3
					c0.3-0.4,0.6-0.8,0.9-1.2h-1.2V100.4z M351.6,102.7c0.3-0.4,0.5-0.8,0.7-1.2h-2.3c-0.3,0.3-0.5,0.6-0.8,0.9h1.6l0.2-0.1
					L351.6,102.7z M354.2,100.5c0.2,1.4,0.6,2.7,1.1,3.9c0.5-1.1,0.8-2.4,1-3.9H354.2z"/>
				<path class="st2" d="M372.5,99.2h-3.3c1,0.7,2.2,1.7,2.8,2.4l-1.1,0.7h0.3v5.9c0,0.7-0.2,1.1-0.8,1.2c-0.6,0.2-1.5,0.2-2.7,0.2
					c0-0.3-0.2-0.8-0.3-1.1c0.8,0,1.8,0,2.1,0c0.3,0,0.3-0.1,0.3-0.3v-1.4c-2.1,0.5-4.3,0.9-6,1.2l-0.4-1.2c1.5-0.2,4-0.6,6.4-1
					v-2.4h-6.6v1.3c0,1.6-0.2,3.7-1.6,5.1c-0.2-0.3-0.7-0.7-1.1-0.8c1.2-1.2,1.3-3,1.3-4.3v-2.3h8.9c-0.2-0.3-0.5-0.6-0.9-0.9
					c-7,0.3-7.7,0.3-8.3,0.5c-0.1-0.3-0.2-0.9-0.4-1.2c0.4-0.1,0.7-0.3,1.2-0.7c0.2-0.1,0.5-0.4,1-0.8h-3.2V98h4.4
					c0.4-0.4,0.9-1,1.3-1.5l1.3,0.5c-0.3,0.3-0.6,0.6-0.9,0.9h6.1V99.2z M368.8,100.4c-0.4-0.3-0.8-0.6-1.1-0.9l0.6-0.3h-3.1
					c-0.6,0.5-1.1,1-1.7,1.4L368.8,100.4z M364,103.8c1.6,0.2,3.8,0.7,4.9,1.2l-0.4,0.9c-1.1-0.5-3.2-1.1-4.9-1.3L364,103.8z"/>
				<path class="st2" d="M377.5,104.3c-0.1-0.4-0.4-1-0.7-1.5v6.8h-1.1v-6.1c-0.3,1.2-0.7,2.4-1.1,3.1c-0.1-0.4-0.4-1-0.5-1.3
					c0.7-1.1,1.3-3.1,1.6-4.8h-1.3v-1.2h1.4v-2.6h1.1v2.6h1.1v1.2h-1.1v0.8c0.3,0.5,1.1,1.8,1.3,2.1L377.5,104.3z M386.2,105.3
					c-0.4,0.8-1,1.5-1.6,2.2c0.4,0.5,0.7,0.7,1.2,0.8c0.3,0,0.4-0.5,0.5-1.5c0.2,0.2,0.6,0.5,0.8,0.7c-0.3,1.6-0.8,2.1-1.4,2.1
					c-0.9-0.1-1.6-0.5-2.1-1.3c-0.7,0.5-1.5,0.9-2.3,1.3c-0.2-0.2-0.5-0.6-0.7-0.8c0.9-0.3,1.8-0.8,2.5-1.4
					c-0.3-0.7-0.5-1.5-0.7-2.4h-2.1c0,0.1,0,0.3,0,0.4c0.6,0.5,1.5,1.2,1.8,1.6l-0.8,0.8c-0.3-0.3-0.8-0.8-1.2-1.2
					c-0.3,1.1-0.8,2.2-2,3.1c-0.2-0.2-0.6-0.6-0.9-0.8c1.6-1.2,1.9-2.7,2-3.9h-1v-1h4c-0.3-2-0.5-4.4-0.6-7.1h1.1
					c0.1,2.7,0.3,5.2,0.6,7.1h1.7c-0.3-0.3-0.7-0.5-1-0.8l0.6-0.5c-0.7,0.1-0.9,0.2-1,0.3c-0.1-0.2-0.2-0.7-0.3-1
					c0.2-0.1,0.4-0.3,0.7-0.6c0.1-0.2,0.4-0.6,0.8-1.1c-0.9,0.1-1.1,0.2-1.3,0.3c-0.1-0.2-0.2-0.7-0.3-0.9c0.2,0,0.3-0.2,0.5-0.5
					c0.2-0.2,0.7-1.2,0.9-2.1l1,0.3c-0.3,0.8-0.7,1.6-1.1,2.2l0.8-0.1c0.2-0.3,0.3-0.6,0.4-0.9l1,0.4c-0.6,1.1-1.3,2.2-2,3l1.1-0.1
					c-0.1-0.2-0.2-0.5-0.3-0.7l0.8-0.2c0.3,0.6,0.6,1.5,0.7,2l-0.8,0.3c0-0.2-0.1-0.4-0.2-0.6c-0.5,0.1-0.9,0.1-1.3,0.2
					c0.4,0.3,1,0.7,1.3,1l-0.4,0.3h1.1v1h-3.2c0.2,0.6,0.3,1.2,0.5,1.6c0.4-0.5,0.8-1,1.1-1.6L386.2,105.3z M381,103.2
					c0-0.2-0.1-0.3-0.1-0.5c-1.9,0.3-2.2,0.3-2.4,0.4c-0.1-0.2-0.2-0.7-0.3-0.9c0.2,0,0.5-0.3,0.7-0.6c0.1-0.2,0.4-0.6,0.8-1.1
					c-0.9,0.1-1.2,0.2-1.3,0.3c-0.1-0.2-0.2-0.7-0.3-0.9c0.2,0,0.4-0.2,0.5-0.5c0.2-0.3,0.8-1.3,1.1-2.3l1,0.3
					c-0.4,0.9-0.8,1.8-1.3,2.4l0.9-0.1c0.2-0.3,0.3-0.6,0.5-0.9l0.9,0.4c-0.6,1.1-1.3,2.2-2,3l1.1-0.1c-0.1-0.3-0.2-0.5-0.3-0.8
					l0.8-0.2c0.3,0.6,0.6,1.5,0.7,2L381,103.2z"/>
				<path class="st2" d="M392.7,105.1c-0.2-0.4-0.6-1.2-1-1.9v6.3h-1.2v-5.9c-0.4,1.3-0.9,2.6-1.5,3.4c-0.1-0.4-0.4-0.8-0.6-1.1
					c0.8-1.1,1.6-3.2,2-5h-1.7v-1.2h1.8v-3h1.2v3h1.5v1.2h-1.5v0.8c0.4,0.5,1.4,2.1,1.7,2.5L392.7,105.1z M401.5,107.3h-0.8v0.9
					c0,0.6-0.1,0.9-0.5,1.1c-0.4,0.2-1,0.2-1.9,0.2c-0.1-0.3-0.2-0.8-0.4-1c0.6,0,1.2,0,1.4,0c0.2,0,0.2-0.1,0.2-0.2v-0.9H395v2.2
					h-1.2v-2.2H393v-1h0.9v-3.5h2.7v-0.7h-3.4v-1h1.8v-0.8h-1.2v-0.9h1.2v-0.8h-1.5v-0.9h1.5v-1.1h1.2v1.1h1.9v-1.1h1.2v1.1h1.7v0.9
					h-1.7v0.8h1.5v0.9h-1.5v0.8h1.9v1h-3.6v0.7h2.9v3.5h0.8V107.3z M395,103.8v0.8h1.6v-0.8H395z M395,106.4h1.6v-0.9H395V106.4z
					 M396.3,99.5h1.9v-0.8h-1.9V99.5z M396.3,101.2h1.9v-0.8h-1.9V101.2z M397.8,103.8v0.8h1.7v-0.8H397.8z M399.4,106.4v-0.9h-1.7
					v0.9H399.4z"/>
			</g>
		</g>
		<g>
			<path class="st1" d="M572.8,128.9H273.3v-114h299.5V128.9z M275.3,126.9h295.5v-110H275.3V126.9z"/>
		</g>
		<g>
			
				<rect x="283.8" y="71.4" transform="matrix(1 -3.417949e-03 3.417949e-03 1 -0.2431 1.4486)" class="st1" width="279.8" height="1"/>
		</g>
	</g>
</g>
</svg>
