<?xml version="1.0" encoding="utf-8"?>
<!-- Generator: Adobe Illustrator 23.1.0, SVG Export Plug-In . SVG Version: 6.00 Build 0)  -->
<svg version="1.1" xmlns="http://www.w3.org/2000/svg" xmlns:xlink="http://www.w3.org/1999/xlink" x="0px" y="0px"
	 viewBox="0 0 580.4 265.9" style="enable-background:new 0 0 580.4 265.9;" xml:space="preserve">
<style type="text/css">
	.st0{fill:#FFFFFF;}
	.st1{fill:#D2D2D3;}
	.st2{fill:#969696;}
	.st3{fill:#EFECEA;}
	.st4{fill:#FF8728;}
	.st5{clip-path:url(#SVGID_2_);}
	.st6{clip-path:url(#SVGID_4_);}
	.st7{clip-path:url(#SVGID_6_);}
	.st8{clip-path:url(#SVGID_8_);}
	.st9{clip-path:url(#SVGID_10_);}
	.st10{clip-path:url(#SVGID_12_);}
	.st11{clip-path:url(#SVGID_14_);}
	.st12{clip-path:url(#SVGID_16_);}
	.st13{clip-path:url(#SVGID_18_);}
	.st14{clip-path:url(#SVGID_20_);}
	.st15{clip-path:url(#SVGID_22_);}
	.st16{clip-path:url(#SVGID_24_);}
	.st17{clip-path:url(#SVGID_26_);}
	.st18{clip-path:url(#SVGID_28_);}
	.st19{clip-path:url(#SVGID_30_);}
	.st20{clip-path:url(#SVGID_32_);}
	.st21{clip-path:url(#SVGID_34_);}
	.st22{clip-path:url(#SVGID_36_);}
	.st23{clip-path:url(#SVGID_38_);}
	.st24{clip-path:url(#SVGID_40_);}
	.st25{clip-path:url(#SVGID_42_);}
	.st26{clip-path:url(#SVGID_44_);}
	.st27{clip-path:url(#SVGID_46_);}
	.st28{clip-path:url(#SVGID_48_);}
	.st29{clip-path:url(#SVGID_50_);}
	.st30{clip-path:url(#SVGID_52_);}
	.st31{clip-path:url(#SVGID_54_);}
	.st32{clip-path:url(#SVGID_56_);}
	.st33{clip-path:url(#SVGID_58_);}
	.st34{clip-path:url(#SVGID_60_);}
	.st35{clip-path:url(#SVGID_62_);}
	.st36{clip-path:url(#SVGID_64_);}
	.st37{clip-path:url(#SVGID_66_);}
	.st38{clip-path:url(#SVGID_68_);}
	.st39{clip-path:url(#SVGID_70_);}
	.st40{clip-path:url(#SVGID_72_);}
	.st41{clip-path:url(#SVGID_74_);}
	.st42{clip-path:url(#SVGID_76_);}
	.st43{clip-path:url(#SVGID_78_);}
	.st44{clip-path:url(#SVGID_80_);}
	.st45{clip-path:url(#SVGID_82_);}
	.st46{fill:#5A5A5A;}
	.st47{clip-path:url(#SVGID_84_);}
	.st48{clip-path:url(#SVGID_86_);}
	.st49{clip-path:url(#SVGID_88_);}
	.st50{clip-path:url(#SVGID_90_);}
	.st51{clip-path:url(#SVGID_92_);}
	.st52{clip-path:url(#SVGID_94_);}
	.st53{clip-path:url(#SVGID_96_);}
	.st54{clip-path:url(#SVGID_98_);}
	.st55{clip-path:url(#SVGID_100_);}
	.st56{clip-path:url(#SVGID_102_);}
	.st57{clip-path:url(#SVGID_104_);}
	.st58{clip-path:url(#SVGID_106_);}
	.st59{clip-path:url(#SVGID_108_);}
	.st60{clip-path:url(#SVGID_110_);}
	.st61{clip-path:url(#SVGID_112_);}
	.st62{clip-path:url(#SVGID_114_);}
	.st63{clip-path:url(#SVGID_116_);}
	.st64{clip-path:url(#SVGID_118_);}
	.st65{clip-path:url(#SVGID_120_);}
	.st66{clip-path:url(#SVGID_122_);}
	.st67{clip-path:url(#SVGID_124_);}
	.st68{clip-path:url(#SVGID_126_);}
	.st69{clip-path:url(#SVGID_128_);}
	.st70{clip-path:url(#SVGID_130_);}
	.st71{clip-path:url(#SVGID_132_);}
	.st72{clip-path:url(#SVGID_134_);}
	.st73{clip-path:url(#SVGID_136_);}
	.st74{clip-path:url(#SVGID_138_);}
	.st75{clip-path:url(#SVGID_140_);}
	.st76{clip-path:url(#SVGID_142_);}
	.st77{clip-path:url(#SVGID_144_);}
	.st78{clip-path:url(#SVGID_146_);}
	.st79{clip-path:url(#SVGID_148_);}
	.st80{clip-path:url(#SVGID_150_);}
	.st81{clip-path:url(#SVGID_152_);}
	.st82{clip-path:url(#SVGID_154_);}
	.st83{clip-path:url(#SVGID_156_);}
	.st84{clip-path:url(#SVGID_158_);}
	.st85{clip-path:url(#SVGID_160_);}
	.st86{clip-path:url(#SVGID_162_);}
	.st87{clip-path:url(#SVGID_164_);}
	.st88{clip-path:url(#SVGID_166_);}
	.st89{clip-path:url(#SVGID_168_);}
	.st90{clip-path:url(#SVGID_170_);}
	.st91{clip-path:url(#SVGID_172_);}
	.st92{clip-path:url(#SVGID_174_);}
	.st93{clip-path:url(#SVGID_176_);}
	.st94{clip-path:url(#SVGID_178_);}
	.st95{clip-path:url(#SVGID_180_);}
	.st96{clip-path:url(#SVGID_182_);}
	.st97{clip-path:url(#SVGID_184_);}
	.st98{clip-path:url(#SVGID_186_);}
	.st99{clip-path:url(#SVGID_188_);}
	.st100{clip-path:url(#SVGID_190_);}
	.st101{clip-path:url(#SVGID_192_);}
	.st102{clip-path:url(#SVGID_194_);}
	.st103{clip-path:url(#SVGID_196_);}
	.st104{clip-path:url(#SVGID_198_);}
	.st105{clip-path:url(#SVGID_200_);}
	.st106{clip-path:url(#SVGID_202_);}
	.st107{clip-path:url(#SVGID_204_);}
	.st108{clip-path:url(#SVGID_206_);}
	.st109{clip-path:url(#SVGID_208_);}
	.st110{clip-path:url(#SVGID_210_);}
	.st111{clip-path:url(#SVGID_212_);}
	.st112{clip-path:url(#SVGID_214_);}
	.st113{clip-path:url(#SVGID_216_);}
	.st114{clip-path:url(#SVGID_218_);}
	.st115{clip-path:url(#SVGID_220_);}
	.st116{clip-path:url(#SVGID_222_);}
	.st117{clip-path:url(#SVGID_224_);}
	.st118{clip-path:url(#SVGID_226_);}
	.st119{clip-path:url(#SVGID_228_);}
	.st120{clip-path:url(#SVGID_230_);}
	.st121{clip-path:url(#SVGID_232_);}
	.st122{clip-path:url(#SVGID_234_);}
	.st123{clip-path:url(#SVGID_236_);}
	.st124{clip-path:url(#SVGID_238_);}
	.st125{clip-path:url(#SVGID_240_);}
	.st126{clip-path:url(#SVGID_242_);}
	.st127{clip-path:url(#SVGID_244_);}
	.st128{clip-path:url(#SVGID_246_);}
	.st129{clip-path:url(#SVGID_248_);}
	.st130{clip-path:url(#SVGID_250_);}
</style>
<g id="圖層_1">
	<polyline class="st0" points="112,5.9 580.4,5.9 580.4,265.9 0.4,265.9 0.4,132.5 	"/>
	<rect x="274.3" y="133.4" class="st1" width="297.5" height="122.6"/>
	<g>
		<path class="st2" d="M36,18h-7.2L6.1,78.4h10.7l4-11.5H44l0.6,1.6l7.5-7.5L36,18z M24.1,57.4l8.3-24l8.3,24H24.1z"/>
	</g>
	<g>
		<polygon class="st1" points="270.3,256.9 8.3,256.9 8.3,122.9 10.3,122.9 10.3,254.9 268.3,254.9 268.3,16.9 101,16.9 101,14.9 
			270.3,14.9 		"/>
	</g>
	<g>
		<g id="XMLID_47_">
			<path id="XMLID_57_" class="st3" d="M88.6,93.8l9.4,77c0,0,32.3-6.2,45.7,14.4v-76.1C143.8,109.1,120,90.6,88.6,93.8z"/>
			<path id="XMLID_56_" class="st4" d="M189.5,170.8l9.4-77c-31.3-3.2-55.1,15.3-55.1,15.3h0v76.1l0,0
				C157.2,164.7,189.5,170.8,189.5,170.8z"/>
			<path id="XMLID_54_" class="st1" d="M141.1,199.3c-10-12.2-30-14-41-14c-7.6,0-13.1,0.8-13.2,0.8l-3.4,0.5l-11-72
				c-2.6,0-5.3,0.2-8.1,0.4L78,192c0,0,46.4-6.2,65.8,14.4v-3.9L141.1,199.3z"/>
			<path id="XMLID_52_" class="st3" d="M215,114.6l-11,72l-3.4-0.5c-0.1,0-5.6-0.8-13.2-0.8c-11,0-31,1.8-41,14l-2.6,3.2v3.9h0
				c19.4-20.6,65.8-14.4,65.8-14.4l13.5-77C220.3,114.8,217.7,114.7,215,114.6z"/>
			<path id="XMLID_50_" class="st1" d="M140.9,187.5c-7.4-11.3-21.4-13.7-31.9-13.7c-6,0-10.3,0.8-10.3,0.8l-3.6,0.7l-0.5-4
				L86.4,105c-3.8-0.1-7.7,0-11.8,0.3l11.8,77c0,0,40.4-6.2,57.3,14.4v-4.8L140.9,187.5z"/>
			<path id="XMLID_48_" class="st3" d="M201.1,182.3l11.8-77c-4-0.3-8-0.4-11.8-0.3l-8.6,70.4l-3.6-0.7c0,0-4.3-0.8-10.3-0.8
				c-10.5,0-24.5,2.4-31.9,13.7l-2.9,4.4v4.8h0C160.6,176.1,201.1,182.3,201.1,182.3z"/>
		</g>
		<g>
			<path class="st0" d="M81.6,128.5c-14.1,0-25.8-11.5-26.1-25.5C55.2,88.6,66.6,76.6,81,76.3c0.2,0,0.4,0,0.6,0
				c14.1,0,25.8,11.5,26.1,25.5c0.2,7-2.4,13.6-7.2,18.6c-4.8,5-11.3,7.9-18.3,8.1C82,128.5,81.8,128.5,81.6,128.5z"/>
			<g>
				<path class="st1" d="M81.6,125.8c-12.7,0-23.1-10.1-23.4-22.9c-0.1-6.2,2.2-12.2,6.5-16.7c4.3-4.5,10.1-7.1,16.4-7.2
					c6.3-0.1,12.2,2.2,16.7,6.5c4.5,4.3,7.1,10.1,7.2,16.4l0,0c0.3,12.9-10,23.6-22.9,23.9C82,125.8,81.8,125.8,81.6,125.8z
					 M81.6,81c-0.2,0-0.3,0-0.5,0c-5.7,0.1-11,2.5-15,6.6c-3.9,4.1-6,9.6-5.9,15.3c0.3,11.8,10.1,21.2,21.9,20.9
					c11.8-0.3,21.2-10.1,20.9-21.9l0,0c-0.1-5.7-2.5-11-6.6-15C92.4,83.1,87.2,81,81.6,81z"/>
			</g>
			<g>
				<g>
					<path class="st2" d="M76,105.9l-5-7.1l3.2-0.1l3.5,5.4l5.1,7.2l-3.2,0.1L76,105.9z M75.7,104.4l1.7,2.3l-3,4.8l-3.2,0.1
						L75.7,104.4z M76.7,103.2l2.5-4.6l3.2-0.1l-4.2,7L76.7,103.2z"/>
					<path class="st2" d="M90.4,111.1l-2.9,0.1l-0.3-14.5l-2.3,1.2l-0.1-3.1l2.6-1.5l2.7-0.1L90.4,111.1z"/>
				</g>
			</g>
		</g>
	</g>
	<g>
		<polygon class="st1" points="113.9,0.7 52.5,62 48.6,66 47.7,66.9 0.7,113.9 0,113.2 44.6,68.6 113.2,0 		"/>
	</g>
	<g>
		<g>
			<defs>
				<rect id="SVGID_1_" x="274.3" y="133.4" width="297.5" height="122.1"/>
			</defs>
			<clipPath id="SVGID_2_">
				<use xlink:href="#SVGID_1_"  style="overflow:visible;"/>
			</clipPath>
			<g class="st5">
				<g>
					<defs>
						<rect id="SVGID_3_" x="559.3" y="117.9" width="33.2" height="44.1"/>
					</defs>
					<clipPath id="SVGID_4_">
						<use xlink:href="#SVGID_3_"  style="overflow:visible;"/>
					</clipPath>
					<g class="st6">
						<rect x="559.6" y="128.8" class="st3" width="32.7" height="0.5"/>
					</g>
					<g class="st6">
						<rect x="559.6" y="139.7" class="st3" width="32.7" height="0.5"/>
					</g>
					<g class="st6">
						<rect x="559.6" y="150.7" class="st3" width="32.7" height="0.5"/>
					</g>
					<g class="st6">
						<rect x="570.2" y="118.2" class="st3" width="0.5" height="43.6"/>
					</g>
					<g class="st6">
						<path class="st3" d="M592.6,162.1h-33.2v-44.1h33.2V162.1z M559.8,161.6H592v-43.1h-32.2V161.6z"/>
					</g>
				</g>
			</g>
			<g class="st5">
				<g>
					<defs>
						<rect id="SVGID_5_" x="559.3" y="162.1" width="33.2" height="44.1"/>
					</defs>
					<clipPath id="SVGID_6_">
						<use xlink:href="#SVGID_5_"  style="overflow:visible;"/>
					</clipPath>
					<g class="st7">
						<rect x="559.6" y="173" class="st3" width="32.7" height="0.5"/>
					</g>
					<g class="st7">
						<rect x="559.6" y="183.9" class="st3" width="32.7" height="0.5"/>
					</g>
					<g class="st7">
						<rect x="559.6" y="194.8" class="st3" width="32.7" height="0.5"/>
					</g>
					<g class="st7">
						<rect x="570.2" y="162.3" class="st3" width="0.5" height="43.6"/>
					</g>
					<g class="st7">
						<path class="st3" d="M592.6,206.2h-33.2v-44.1h33.2V206.2z M559.8,205.7H592v-43.1h-32.2V205.7z"/>
					</g>
				</g>
			</g>
			<g class="st5">
				<g>
					<defs>
						<rect id="SVGID_7_" x="559.3" y="206.2" width="33.2" height="44.1"/>
					</defs>
					<clipPath id="SVGID_8_">
						<use xlink:href="#SVGID_7_"  style="overflow:visible;"/>
					</clipPath>
					<g class="st8">
						<rect x="559.6" y="217.1" class="st3" width="32.7" height="0.5"/>
					</g>
					<g class="st8">
						<rect x="559.6" y="228" class="st3" width="32.7" height="0.5"/>
					</g>
					<g class="st8">
						<rect x="559.6" y="239" class="st3" width="32.7" height="0.5"/>
					</g>
					<g class="st8">
						<rect x="570.2" y="206.5" class="st3" width="0.5" height="43.6"/>
					</g>
					<g class="st8">
						<path class="st3" d="M592.6,250.4h-33.2v-44.1h33.2V250.4z M559.8,249.9H592v-43.1h-32.2V249.9z"/>
					</g>
				</g>
			</g>
			<g class="st5">
				<g>
					<defs>
						<rect id="SVGID_9_" x="559.3" y="250.4" width="33.2" height="44.1"/>
					</defs>
					<clipPath id="SVGID_10_">
						<use xlink:href="#SVGID_9_"  style="overflow:visible;"/>
					</clipPath>
					<g class="st9">
						<rect x="559.6" y="261.3" class="st3" width="32.7" height="0.5"/>
					</g>
					<g class="st9">
						<rect x="570.2" y="250.6" class="st3" width="0.5" height="43.6"/>
					</g>
					<g class="st9">
						<path class="st3" d="M592.6,294.5h-33.2v-44.1h33.2V294.5z M559.8,294H592v-43.1h-32.2V294z"/>
					</g>
				</g>
			</g>
			<g class="st5">
				<g>
					<defs>
						<rect id="SVGID_11_" x="526.1" y="117.9" width="33.2" height="44.1"/>
					</defs>
					<clipPath id="SVGID_12_">
						<use xlink:href="#SVGID_11_"  style="overflow:visible;"/>
					</clipPath>
					<g class="st10">
						<rect x="526.3" y="128.8" class="st3" width="32.7" height="0.5"/>
					</g>
					<g class="st10">
						<rect x="526.3" y="139.7" class="st3" width="32.7" height="0.5"/>
					</g>
					<g class="st10">
						<rect x="526.3" y="150.7" class="st3" width="32.7" height="0.5"/>
					</g>
					<g class="st10">
						<rect x="547.9" y="118.2" class="st3" width="0.5" height="43.6"/>
					</g>
					<g class="st10">
						<rect x="537" y="118.2" class="st3" width="0.5" height="43.6"/>
					</g>
					<g class="st10">
						<path class="st3" d="M559.3,162.1h-33.2v-44.1h33.2V162.1z M526.6,161.6h32.2v-43.1h-32.2V161.6z"/>
					</g>
				</g>
			</g>
			<g class="st5">
				<g>
					<defs>
						<rect id="SVGID_13_" x="526.1" y="162.1" width="33.2" height="44.1"/>
					</defs>
					<clipPath id="SVGID_14_">
						<use xlink:href="#SVGID_13_"  style="overflow:visible;"/>
					</clipPath>
					<g class="st11">
						<rect x="526.3" y="173" class="st3" width="32.7" height="0.5"/>
					</g>
					<g class="st11">
						<rect x="526.3" y="183.9" class="st3" width="32.7" height="0.5"/>
					</g>
					<g class="st11">
						<rect x="526.3" y="194.8" class="st3" width="32.7" height="0.5"/>
					</g>
					<g class="st11">
						<rect x="547.9" y="162.3" class="st3" width="0.5" height="43.6"/>
					</g>
					<g class="st11">
						<rect x="537" y="162.3" class="st3" width="0.5" height="43.6"/>
					</g>
					<g class="st11">
						<path class="st3" d="M559.3,206.2h-33.2v-44.1h33.2V206.2z M526.6,205.7h32.2v-43.1h-32.2V205.7z"/>
					</g>
				</g>
			</g>
			<g class="st5">
				<g>
					<defs>
						<rect id="SVGID_15_" x="526.1" y="206.2" width="33.2" height="44.1"/>
					</defs>
					<clipPath id="SVGID_16_">
						<use xlink:href="#SVGID_15_"  style="overflow:visible;"/>
					</clipPath>
					<g class="st12">
						<rect x="526.3" y="217.1" class="st3" width="32.7" height="0.5"/>
					</g>
					<g class="st12">
						<rect x="526.3" y="228" class="st3" width="32.7" height="0.5"/>
					</g>
					<g class="st12">
						<rect x="526.3" y="239" class="st3" width="32.7" height="0.5"/>
					</g>
					<g class="st12">
						<rect x="547.9" y="206.5" class="st3" width="0.5" height="43.6"/>
					</g>
					<g class="st12">
						<rect x="537" y="206.5" class="st3" width="0.5" height="43.6"/>
					</g>
					<g class="st12">
						<path class="st3" d="M559.3,250.4h-33.2v-44.1h33.2V250.4z M526.6,249.9h32.2v-43.1h-32.2V249.9z"/>
					</g>
				</g>
			</g>
			<g class="st5">
				<g>
					<defs>
						<rect id="SVGID_17_" x="526.1" y="250.4" width="33.2" height="44.1"/>
					</defs>
					<clipPath id="SVGID_18_">
						<use xlink:href="#SVGID_17_"  style="overflow:visible;"/>
					</clipPath>
					<g class="st13">
						<rect x="526.3" y="261.3" class="st3" width="32.7" height="0.5"/>
					</g>
					<g class="st13">
						<rect x="547.9" y="250.6" class="st3" width="0.5" height="43.6"/>
					</g>
					<g class="st13">
						<rect x="537" y="250.6" class="st3" width="0.5" height="43.6"/>
					</g>
					<g class="st13">
						<path class="st3" d="M559.3,294.5h-33.2v-44.1h33.2V294.5z M526.6,294h32.2v-43.1h-32.2V294z"/>
					</g>
				</g>
			</g>
			<g class="st5">
				<g>
					<defs>
						<rect id="SVGID_19_" x="492.8" y="117.9" width="33.2" height="44.1"/>
					</defs>
					<clipPath id="SVGID_20_">
						<use xlink:href="#SVGID_19_"  style="overflow:visible;"/>
					</clipPath>
					<g class="st14">
						<rect x="493.1" y="128.8" class="st3" width="32.7" height="0.5"/>
					</g>
					<g class="st14">
						<rect x="493.1" y="139.7" class="st3" width="32.7" height="0.5"/>
					</g>
					<g class="st14">
						<rect x="493.1" y="150.7" class="st3" width="32.7" height="0.5"/>
					</g>
					<g class="st14">
						<rect x="514.6" y="118.2" class="st3" width="0.5" height="43.6"/>
					</g>
					<g class="st14">
						<rect x="503.7" y="118.2" class="st3" width="0.5" height="43.6"/>
					</g>
					<g class="st14">
						<path class="st3" d="M526.1,162.1h-33.2v-44.1h33.2V162.1z M493.4,161.6h32.2v-43.1h-32.2V161.6z"/>
					</g>
				</g>
			</g>
			<g class="st5">
				<g>
					<defs>
						<rect id="SVGID_21_" x="492.8" y="162.1" width="33.2" height="44.1"/>
					</defs>
					<clipPath id="SVGID_22_">
						<use xlink:href="#SVGID_21_"  style="overflow:visible;"/>
					</clipPath>
					<g class="st15">
						<rect x="493.1" y="173" class="st3" width="32.7" height="0.5"/>
					</g>
					<g class="st15">
						<rect x="493.1" y="183.9" class="st3" width="32.7" height="0.5"/>
					</g>
					<g class="st15">
						<rect x="493.1" y="194.8" class="st3" width="32.7" height="0.5"/>
					</g>
					<g class="st15">
						<rect x="514.6" y="162.3" class="st3" width="0.5" height="43.6"/>
					</g>
					<g class="st15">
						<rect x="503.7" y="162.3" class="st3" width="0.5" height="43.6"/>
					</g>
					<g class="st15">
						<path class="st3" d="M526.1,206.2h-33.2v-44.1h33.2V206.2z M493.4,205.7h32.2v-43.1h-32.2V205.7z"/>
					</g>
				</g>
			</g>
			<g class="st5">
				<g>
					<defs>
						<rect id="SVGID_23_" x="492.8" y="206.2" width="33.2" height="44.1"/>
					</defs>
					<clipPath id="SVGID_24_">
						<use xlink:href="#SVGID_23_"  style="overflow:visible;"/>
					</clipPath>
					<g class="st16">
						<rect x="493.1" y="217.1" class="st3" width="32.7" height="0.5"/>
					</g>
					<g class="st16">
						<rect x="493.1" y="228" class="st3" width="32.7" height="0.5"/>
					</g>
					<g class="st16">
						<rect x="493.1" y="239" class="st3" width="32.7" height="0.5"/>
					</g>
					<g class="st16">
						<rect x="514.6" y="206.5" class="st3" width="0.5" height="43.6"/>
					</g>
					<g class="st16">
						<rect x="503.7" y="206.5" class="st3" width="0.5" height="43.6"/>
					</g>
					<g class="st16">
						<path class="st3" d="M526.1,250.4h-33.2v-44.1h33.2V250.4z M493.4,249.9h32.2v-43.1h-32.2V249.9z"/>
					</g>
				</g>
			</g>
			<g class="st5">
				<g>
					<defs>
						<rect id="SVGID_25_" x="492.8" y="250.4" width="33.2" height="44.1"/>
					</defs>
					<clipPath id="SVGID_26_">
						<use xlink:href="#SVGID_25_"  style="overflow:visible;"/>
					</clipPath>
					<g class="st17">
						<rect x="493.1" y="261.3" class="st3" width="32.7" height="0.5"/>
					</g>
					<g class="st17">
						<rect x="514.6" y="250.6" class="st3" width="0.5" height="43.6"/>
					</g>
					<g class="st17">
						<rect x="503.7" y="250.6" class="st3" width="0.5" height="43.6"/>
					</g>
					<g class="st17">
						<path class="st3" d="M526.1,294.5h-33.2v-44.1h33.2V294.5z M493.4,294h32.2v-43.1h-32.2V294z"/>
					</g>
				</g>
			</g>
			<g class="st5">
				<g>
					<defs>
						<rect id="SVGID_27_" x="459.6" y="117.9" width="33.2" height="44.1"/>
					</defs>
					<clipPath id="SVGID_28_">
						<use xlink:href="#SVGID_27_"  style="overflow:visible;"/>
					</clipPath>
					<g class="st18">
						<rect x="459.9" y="128.8" class="st3" width="32.7" height="0.5"/>
					</g>
					<g class="st18">
						<rect x="459.9" y="139.7" class="st3" width="32.7" height="0.5"/>
					</g>
					<g class="st18">
						<rect x="459.9" y="150.7" class="st3" width="32.7" height="0.5"/>
					</g>
					<g class="st18">
						<rect x="481.4" y="118.2" class="st3" width="0.5" height="43.6"/>
					</g>
					<g class="st18">
						<rect x="470.5" y="118.2" class="st3" width="0.5" height="43.6"/>
					</g>
					<g class="st18">
						<path class="st3" d="M492.8,162.1h-33.2v-44.1h33.2V162.1z M460.1,161.6h32.2v-43.1h-32.2V161.6z"/>
					</g>
				</g>
			</g>
			<g class="st5">
				<g>
					<defs>
						<rect id="SVGID_29_" x="459.6" y="162.1" width="33.2" height="44.1"/>
					</defs>
					<clipPath id="SVGID_30_">
						<use xlink:href="#SVGID_29_"  style="overflow:visible;"/>
					</clipPath>
					<g class="st19">
						<rect x="459.9" y="173" class="st3" width="32.7" height="0.5"/>
					</g>
					<g class="st19">
						<rect x="459.9" y="183.9" class="st3" width="32.7" height="0.5"/>
					</g>
					<g class="st19">
						<rect x="459.9" y="194.8" class="st3" width="32.7" height="0.5"/>
					</g>
					<g class="st19">
						<rect x="481.4" y="162.3" class="st3" width="0.5" height="43.6"/>
					</g>
					<g class="st19">
						<rect x="470.5" y="162.3" class="st3" width="0.5" height="43.6"/>
					</g>
					<g class="st19">
						<path class="st3" d="M492.8,206.2h-33.2v-44.1h33.2V206.2z M460.1,205.7h32.2v-43.1h-32.2V205.7z"/>
					</g>
				</g>
			</g>
			<g class="st5">
				<g>
					<defs>
						<rect id="SVGID_31_" x="459.6" y="206.2" width="33.2" height="44.1"/>
					</defs>
					<clipPath id="SVGID_32_">
						<use xlink:href="#SVGID_31_"  style="overflow:visible;"/>
					</clipPath>
					<g class="st20">
						<rect x="459.9" y="217.1" class="st3" width="32.7" height="0.5"/>
					</g>
					<g class="st20">
						<rect x="459.9" y="228" class="st3" width="32.7" height="0.5"/>
					</g>
					<g class="st20">
						<rect x="459.9" y="239" class="st3" width="32.7" height="0.5"/>
					</g>
					<g class="st20">
						<rect x="481.4" y="206.5" class="st3" width="0.5" height="43.6"/>
					</g>
					<g class="st20">
						<rect x="470.5" y="206.5" class="st3" width="0.5" height="43.6"/>
					</g>
					<g class="st20">
						<path class="st3" d="M492.8,250.4h-33.2v-44.1h33.2V250.4z M460.1,249.9h32.2v-43.1h-32.2V249.9z"/>
					</g>
				</g>
			</g>
			<g class="st5">
				<g>
					<defs>
						<rect id="SVGID_33_" x="459.6" y="250.4" width="33.2" height="44.1"/>
					</defs>
					<clipPath id="SVGID_34_">
						<use xlink:href="#SVGID_33_"  style="overflow:visible;"/>
					</clipPath>
					<g class="st21">
						<rect x="459.9" y="261.3" class="st3" width="32.7" height="0.5"/>
					</g>
					<g class="st21">
						<rect x="481.4" y="250.6" class="st3" width="0.5" height="43.6"/>
					</g>
					<g class="st21">
						<rect x="470.5" y="250.6" class="st3" width="0.5" height="43.6"/>
					</g>
					<g class="st21">
						<path class="st3" d="M492.8,294.5h-33.2v-44.1h33.2V294.5z M460.1,294h32.2v-43.1h-32.2V294z"/>
					</g>
				</g>
			</g>
			<g class="st5">
				<g>
					<defs>
						<rect id="SVGID_35_" x="426.3" y="117.9" width="33.2" height="44.1"/>
					</defs>
					<clipPath id="SVGID_36_">
						<use xlink:href="#SVGID_35_"  style="overflow:visible;"/>
					</clipPath>
					<g class="st22">
						<rect x="426.6" y="128.8" class="st3" width="32.7" height="0.5"/>
					</g>
					<g class="st22">
						<rect x="426.6" y="139.7" class="st3" width="32.7" height="0.5"/>
					</g>
					<g class="st22">
						<rect x="426.6" y="150.7" class="st3" width="32.7" height="0.5"/>
					</g>
					<g class="st22">
						<rect x="448.2" y="118.2" class="st3" width="0.5" height="43.6"/>
					</g>
					<g class="st22">
						<rect x="437.3" y="118.2" class="st3" width="0.5" height="43.6"/>
					</g>
					<g class="st22">
						<path class="st3" d="M459.6,162.1h-33.2v-44.1h33.2V162.1z M426.9,161.6h32.2v-43.1h-32.2V161.6z"/>
					</g>
				</g>
			</g>
			<g class="st5">
				<g>
					<defs>
						<rect id="SVGID_37_" x="426.3" y="162.1" width="33.2" height="44.1"/>
					</defs>
					<clipPath id="SVGID_38_">
						<use xlink:href="#SVGID_37_"  style="overflow:visible;"/>
					</clipPath>
					<g class="st23">
						<rect x="426.6" y="173" class="st3" width="32.7" height="0.5"/>
					</g>
					<g class="st23">
						<rect x="426.6" y="183.9" class="st3" width="32.7" height="0.5"/>
					</g>
					<g class="st23">
						<rect x="426.6" y="194.8" class="st3" width="32.7" height="0.5"/>
					</g>
					<g class="st23">
						<rect x="448.2" y="162.3" class="st3" width="0.5" height="43.6"/>
					</g>
					<g class="st23">
						<rect x="437.3" y="162.3" class="st3" width="0.5" height="43.6"/>
					</g>
					<g class="st23">
						<path class="st3" d="M459.6,206.2h-33.2v-44.1h33.2V206.2z M426.9,205.7h32.2v-43.1h-32.2V205.7z"/>
					</g>
				</g>
			</g>
			<g class="st5">
				<g>
					<defs>
						<rect id="SVGID_39_" x="426.3" y="206.2" width="33.2" height="44.1"/>
					</defs>
					<clipPath id="SVGID_40_">
						<use xlink:href="#SVGID_39_"  style="overflow:visible;"/>
					</clipPath>
					<g class="st24">
						<rect x="426.6" y="217.1" class="st3" width="32.7" height="0.5"/>
					</g>
					<g class="st24">
						<rect x="426.6" y="228" class="st3" width="32.7" height="0.5"/>
					</g>
					<g class="st24">
						<rect x="426.6" y="239" class="st3" width="32.7" height="0.5"/>
					</g>
					<g class="st24">
						<rect x="448.2" y="206.5" class="st3" width="0.5" height="43.6"/>
					</g>
					<g class="st24">
						<rect x="437.3" y="206.5" class="st3" width="0.5" height="43.6"/>
					</g>
					<g class="st24">
						<path class="st3" d="M459.6,250.4h-33.2v-44.1h33.2V250.4z M426.9,249.9h32.2v-43.1h-32.2V249.9z"/>
					</g>
				</g>
			</g>
			<g class="st5">
				<g>
					<defs>
						<rect id="SVGID_41_" x="426.3" y="250.4" width="33.2" height="44.1"/>
					</defs>
					<clipPath id="SVGID_42_">
						<use xlink:href="#SVGID_41_"  style="overflow:visible;"/>
					</clipPath>
					<g class="st25">
						<rect x="426.6" y="261.3" class="st3" width="32.7" height="0.5"/>
					</g>
					<g class="st25">
						<rect x="448.2" y="250.6" class="st3" width="0.5" height="43.6"/>
					</g>
					<g class="st25">
						<rect x="437.3" y="250.6" class="st3" width="0.5" height="43.6"/>
					</g>
					<g class="st25">
						<path class="st3" d="M459.6,294.5h-33.2v-44.1h33.2V294.5z M426.9,294h32.2v-43.1h-32.2V294z"/>
					</g>
				</g>
			</g>
			<g class="st5">
				<g>
					<defs>
						<rect id="SVGID_43_" x="393.1" y="117.9" width="33.2" height="44.1"/>
					</defs>
					<clipPath id="SVGID_44_">
						<use xlink:href="#SVGID_43_"  style="overflow:visible;"/>
					</clipPath>
					<g class="st26">
						<rect x="393.4" y="128.8" class="st3" width="32.7" height="0.5"/>
					</g>
					<g class="st26">
						<rect x="393.4" y="139.7" class="st3" width="32.7" height="0.5"/>
					</g>
					<g class="st26">
						<rect x="393.4" y="150.7" class="st3" width="32.7" height="0.5"/>
					</g>
					<g class="st26">
						<rect x="414.9" y="118.2" class="st3" width="0.5" height="43.6"/>
					</g>
					<g class="st26">
						<rect x="404" y="118.2" class="st3" width="0.5" height="43.6"/>
					</g>
					<g class="st26">
						<path class="st3" d="M426.3,162.1h-33.2v-44.1h33.2V162.1z M393.6,161.6h32.2v-43.1h-32.2V161.6z"/>
					</g>
				</g>
			</g>
			<g class="st5">
				<g>
					<defs>
						<rect id="SVGID_45_" x="393.1" y="162.1" width="33.2" height="44.1"/>
					</defs>
					<clipPath id="SVGID_46_">
						<use xlink:href="#SVGID_45_"  style="overflow:visible;"/>
					</clipPath>
					<g class="st27">
						<rect x="393.4" y="173" class="st3" width="32.7" height="0.5"/>
					</g>
					<g class="st27">
						<rect x="393.4" y="183.9" class="st3" width="32.7" height="0.5"/>
					</g>
					<g class="st27">
						<rect x="393.4" y="194.8" class="st3" width="32.7" height="0.5"/>
					</g>
					<g class="st27">
						<rect x="414.9" y="162.3" class="st3" width="0.5" height="43.6"/>
					</g>
					<g class="st27">
						<rect x="404" y="162.3" class="st3" width="0.5" height="43.6"/>
					</g>
					<g class="st27">
						<path class="st3" d="M426.3,206.2h-33.2v-44.1h33.2V206.2z M393.6,205.7h32.2v-43.1h-32.2V205.7z"/>
					</g>
				</g>
			</g>
			<g class="st5">
				<g>
					<defs>
						<rect id="SVGID_47_" x="393.1" y="206.2" width="33.2" height="44.1"/>
					</defs>
					<clipPath id="SVGID_48_">
						<use xlink:href="#SVGID_47_"  style="overflow:visible;"/>
					</clipPath>
					<g class="st28">
						<rect x="393.4" y="217.1" class="st3" width="32.7" height="0.5"/>
					</g>
					<g class="st28">
						<rect x="393.4" y="228" class="st3" width="32.7" height="0.5"/>
					</g>
					<g class="st28">
						<rect x="393.4" y="239" class="st3" width="32.7" height="0.5"/>
					</g>
					<g class="st28">
						<rect x="414.9" y="206.5" class="st3" width="0.5" height="43.6"/>
					</g>
					<g class="st28">
						<rect x="404" y="206.5" class="st3" width="0.5" height="43.6"/>
					</g>
					<g class="st28">
						<path class="st3" d="M426.3,250.4h-33.2v-44.1h33.2V250.4z M393.6,249.9h32.2v-43.1h-32.2V249.9z"/>
					</g>
				</g>
			</g>
			<g class="st5">
				<g>
					<defs>
						<rect id="SVGID_49_" x="393.1" y="250.4" width="33.2" height="44.1"/>
					</defs>
					<clipPath id="SVGID_50_">
						<use xlink:href="#SVGID_49_"  style="overflow:visible;"/>
					</clipPath>
					<g class="st29">
						<rect x="393.4" y="261.3" class="st3" width="32.7" height="0.5"/>
					</g>
					<g class="st29">
						<rect x="414.9" y="250.6" class="st3" width="0.5" height="43.6"/>
					</g>
					<g class="st29">
						<rect x="404" y="250.6" class="st3" width="0.5" height="43.6"/>
					</g>
					<g class="st29">
						<path class="st3" d="M426.3,294.5h-33.2v-44.1h33.2V294.5z M393.6,294h32.2v-43.1h-32.2V294z"/>
					</g>
				</g>
			</g>
			<g class="st5">
				<g>
					<defs>
						<rect id="SVGID_51_" x="359.9" y="117.9" width="33.2" height="44.1"/>
					</defs>
					<clipPath id="SVGID_52_">
						<use xlink:href="#SVGID_51_"  style="overflow:visible;"/>
					</clipPath>
					<g class="st30">
						<rect x="360.1" y="128.8" class="st3" width="32.7" height="0.5"/>
					</g>
					<g class="st30">
						<rect x="360.1" y="139.7" class="st3" width="32.7" height="0.5"/>
					</g>
					<g class="st30">
						<rect x="360.1" y="150.7" class="st3" width="32.7" height="0.5"/>
					</g>
					<g class="st30">
						<rect x="381.7" y="118.2" class="st3" width="0.5" height="43.6"/>
					</g>
					<g class="st30">
						<rect x="370.8" y="118.2" class="st3" width="0.5" height="43.6"/>
					</g>
					<g class="st30">
						<path class="st3" d="M393.1,162.1h-33.2v-44.1h33.2V162.1z M360.4,161.6h32.2v-43.1h-32.2V161.6z"/>
					</g>
				</g>
			</g>
			<g class="st5">
				<g>
					<defs>
						<rect id="SVGID_53_" x="359.9" y="162.1" width="33.2" height="44.1"/>
					</defs>
					<clipPath id="SVGID_54_">
						<use xlink:href="#SVGID_53_"  style="overflow:visible;"/>
					</clipPath>
					<g class="st31">
						<rect x="360.1" y="173" class="st3" width="32.7" height="0.5"/>
					</g>
					<g class="st31">
						<rect x="360.1" y="183.9" class="st3" width="32.7" height="0.5"/>
					</g>
					<g class="st31">
						<rect x="360.1" y="194.8" class="st3" width="32.7" height="0.5"/>
					</g>
					<g class="st31">
						<rect x="381.7" y="162.3" class="st3" width="0.5" height="43.6"/>
					</g>
					<g class="st31">
						<rect x="370.8" y="162.3" class="st3" width="0.5" height="43.6"/>
					</g>
					<g class="st31">
						<path class="st3" d="M393.1,206.2h-33.2v-44.1h33.2V206.2z M360.4,205.7h32.2v-43.1h-32.2V205.7z"/>
					</g>
				</g>
			</g>
			<g class="st5">
				<g>
					<defs>
						<rect id="SVGID_55_" x="359.9" y="206.2" width="33.2" height="44.1"/>
					</defs>
					<clipPath id="SVGID_56_">
						<use xlink:href="#SVGID_55_"  style="overflow:visible;"/>
					</clipPath>
					<g class="st32">
						<rect x="360.1" y="217.1" class="st3" width="32.7" height="0.5"/>
					</g>
					<g class="st32">
						<rect x="360.1" y="228" class="st3" width="32.7" height="0.5"/>
					</g>
					<g class="st32">
						<rect x="360.1" y="239" class="st3" width="32.7" height="0.5"/>
					</g>
					<g class="st32">
						<rect x="381.7" y="206.5" class="st3" width="0.5" height="43.6"/>
					</g>
					<g class="st32">
						<rect x="370.8" y="206.5" class="st3" width="0.5" height="43.6"/>
					</g>
					<g class="st32">
						<path class="st3" d="M393.1,250.4h-33.2v-44.1h33.2V250.4z M360.4,249.9h32.2v-43.1h-32.2V249.9z"/>
					</g>
				</g>
			</g>
			<g class="st5">
				<g>
					<defs>
						<rect id="SVGID_57_" x="359.9" y="250.4" width="33.2" height="44.1"/>
					</defs>
					<clipPath id="SVGID_58_">
						<use xlink:href="#SVGID_57_"  style="overflow:visible;"/>
					</clipPath>
					<g class="st33">
						<rect x="360.1" y="261.3" class="st3" width="32.7" height="0.5"/>
					</g>
					<g class="st33">
						<rect x="381.7" y="250.6" class="st3" width="0.5" height="43.6"/>
					</g>
					<g class="st33">
						<rect x="370.8" y="250.6" class="st3" width="0.5" height="43.6"/>
					</g>
					<g class="st33">
						<path class="st3" d="M393.1,294.5h-33.2v-44.1h33.2V294.5z M360.4,294h32.2v-43.1h-32.2V294z"/>
					</g>
				</g>
			</g>
			<g class="st5">
				<g>
					<defs>
						<rect id="SVGID_59_" x="326.6" y="117.9" width="33.2" height="44.1"/>
					</defs>
					<clipPath id="SVGID_60_">
						<use xlink:href="#SVGID_59_"  style="overflow:visible;"/>
					</clipPath>
					<g class="st34">
						<rect x="326.9" y="128.8" class="st3" width="32.7" height="0.5"/>
					</g>
					<g class="st34">
						<rect x="326.9" y="139.7" class="st3" width="32.7" height="0.5"/>
					</g>
					<g class="st34">
						<rect x="326.9" y="150.7" class="st3" width="32.7" height="0.5"/>
					</g>
					<g class="st34">
						<rect x="348.4" y="118.2" class="st3" width="0.5" height="43.6"/>
					</g>
					<g class="st34">
						<rect x="337.5" y="118.2" class="st3" width="0.5" height="43.6"/>
					</g>
					<g class="st34">
						<path class="st3" d="M359.9,162.1h-33.2v-44.1h33.2V162.1z M327.1,161.6h32.2v-43.1h-32.2V161.6z"/>
					</g>
				</g>
			</g>
			<g class="st5">
				<g>
					<defs>
						<rect id="SVGID_61_" x="326.6" y="162.1" width="33.2" height="44.1"/>
					</defs>
					<clipPath id="SVGID_62_">
						<use xlink:href="#SVGID_61_"  style="overflow:visible;"/>
					</clipPath>
					<g class="st35">
						<rect x="326.9" y="173" class="st3" width="32.7" height="0.5"/>
					</g>
					<g class="st35">
						<rect x="326.9" y="183.9" class="st3" width="32.7" height="0.5"/>
					</g>
					<g class="st35">
						<rect x="326.9" y="194.8" class="st3" width="32.7" height="0.5"/>
					</g>
					<g class="st35">
						<rect x="348.4" y="162.3" class="st3" width="0.5" height="43.6"/>
					</g>
					<g class="st35">
						<rect x="337.5" y="162.3" class="st3" width="0.5" height="43.6"/>
					</g>
					<g class="st35">
						<path class="st3" d="M359.9,206.2h-33.2v-44.1h33.2V206.2z M327.1,205.7h32.2v-43.1h-32.2V205.7z"/>
					</g>
				</g>
			</g>
			<g class="st5">
				<g>
					<defs>
						<rect id="SVGID_63_" x="326.6" y="206.2" width="33.2" height="44.1"/>
					</defs>
					<clipPath id="SVGID_64_">
						<use xlink:href="#SVGID_63_"  style="overflow:visible;"/>
					</clipPath>
					<g class="st36">
						<rect x="326.9" y="217.1" class="st3" width="32.7" height="0.5"/>
					</g>
					<g class="st36">
						<rect x="326.9" y="228" class="st3" width="32.7" height="0.5"/>
					</g>
					<g class="st36">
						<rect x="326.9" y="239" class="st3" width="32.7" height="0.5"/>
					</g>
					<g class="st36">
						<rect x="348.4" y="206.5" class="st3" width="0.5" height="43.6"/>
					</g>
					<g class="st36">
						<rect x="337.5" y="206.5" class="st3" width="0.5" height="43.6"/>
					</g>
					<g class="st36">
						<path class="st3" d="M359.9,250.4h-33.2v-44.1h33.2V250.4z M327.1,249.9h32.2v-43.1h-32.2V249.9z"/>
					</g>
				</g>
			</g>
			<g class="st5">
				<g>
					<defs>
						<rect id="SVGID_65_" x="326.6" y="250.4" width="33.2" height="44.1"/>
					</defs>
					<clipPath id="SVGID_66_">
						<use xlink:href="#SVGID_65_"  style="overflow:visible;"/>
					</clipPath>
					<g class="st37">
						<rect x="326.9" y="261.3" class="st3" width="32.7" height="0.5"/>
					</g>
					<g class="st37">
						<rect x="348.4" y="250.6" class="st3" width="0.5" height="43.6"/>
					</g>
					<g class="st37">
						<rect x="337.5" y="250.6" class="st3" width="0.5" height="43.6"/>
					</g>
					<g class="st37">
						<path class="st3" d="M359.9,294.5h-33.2v-44.1h33.2V294.5z M327.1,294h32.2v-43.1h-32.2V294z"/>
					</g>
				</g>
			</g>
			<g class="st5">
				<g>
					<defs>
						<rect id="SVGID_67_" x="293.4" y="117.9" width="33.2" height="44.1"/>
					</defs>
					<clipPath id="SVGID_68_">
						<use xlink:href="#SVGID_67_"  style="overflow:visible;"/>
					</clipPath>
					<g class="st38">
						<rect x="293.6" y="128.8" class="st3" width="32.7" height="0.5"/>
					</g>
					<g class="st38">
						<rect x="293.6" y="139.7" class="st3" width="32.7" height="0.5"/>
					</g>
					<g class="st38">
						<rect x="293.6" y="150.7" class="st3" width="32.7" height="0.5"/>
					</g>
					<g class="st38">
						<rect x="315.2" y="118.2" class="st3" width="0.5" height="43.6"/>
					</g>
					<g class="st38">
						<rect x="304.3" y="118.2" class="st3" width="0.5" height="43.6"/>
					</g>
					<g class="st38">
						<path class="st3" d="M326.6,162.1h-33.2v-44.1h33.2V162.1z M293.9,161.6h32.2v-43.1h-32.2V161.6z"/>
					</g>
				</g>
			</g>
			<g class="st5">
				<g>
					<defs>
						<rect id="SVGID_69_" x="293.4" y="162.1" width="33.2" height="44.1"/>
					</defs>
					<clipPath id="SVGID_70_">
						<use xlink:href="#SVGID_69_"  style="overflow:visible;"/>
					</clipPath>
					<g class="st39">
						<rect x="293.6" y="173" class="st3" width="32.7" height="0.5"/>
					</g>
					<g class="st39">
						<rect x="293.6" y="183.9" class="st3" width="32.7" height="0.5"/>
					</g>
					<g class="st39">
						<rect x="293.6" y="194.8" class="st3" width="32.7" height="0.5"/>
					</g>
					<g class="st39">
						<rect x="315.2" y="162.3" class="st3" width="0.5" height="43.6"/>
					</g>
					<g class="st39">
						<rect x="304.3" y="162.3" class="st3" width="0.5" height="43.6"/>
					</g>
					<g class="st39">
						<path class="st3" d="M326.6,206.2h-33.2v-44.1h33.2V206.2z M293.9,205.7h32.2v-43.1h-32.2V205.7z"/>
					</g>
				</g>
			</g>
			<g class="st5">
				<g>
					<defs>
						<rect id="SVGID_71_" x="293.4" y="206.2" width="33.2" height="44.1"/>
					</defs>
					<clipPath id="SVGID_72_">
						<use xlink:href="#SVGID_71_"  style="overflow:visible;"/>
					</clipPath>
					<g class="st40">
						<rect x="293.6" y="217.1" class="st3" width="32.7" height="0.5"/>
					</g>
					<g class="st40">
						<rect x="293.6" y="228" class="st3" width="32.7" height="0.5"/>
					</g>
					<g class="st40">
						<rect x="293.6" y="239" class="st3" width="32.7" height="0.5"/>
					</g>
					<g class="st40">
						<rect x="315.2" y="206.5" class="st3" width="0.5" height="43.6"/>
					</g>
					<g class="st40">
						<rect x="304.3" y="206.5" class="st3" width="0.5" height="43.6"/>
					</g>
					<g class="st40">
						<path class="st3" d="M326.6,250.4h-33.2v-44.1h33.2V250.4z M293.9,249.9h32.2v-43.1h-32.2V249.9z"/>
					</g>
				</g>
			</g>
			<g class="st5">
				<g>
					<defs>
						<rect id="SVGID_73_" x="293.4" y="250.4" width="33.2" height="44.1"/>
					</defs>
					<clipPath id="SVGID_74_">
						<use xlink:href="#SVGID_73_"  style="overflow:visible;"/>
					</clipPath>
					<g class="st41">
						<rect x="293.6" y="261.3" class="st3" width="32.7" height="0.5"/>
					</g>
					<g class="st41">
						<rect x="315.2" y="250.6" class="st3" width="0.5" height="43.6"/>
					</g>
					<g class="st41">
						<rect x="304.3" y="250.6" class="st3" width="0.5" height="43.6"/>
					</g>
					<g class="st41">
						<path class="st3" d="M326.6,294.5h-33.2v-44.1h33.2V294.5z M293.9,294h32.2v-43.1h-32.2V294z"/>
					</g>
				</g>
			</g>
			<g class="st5">
				<g>
					<defs>
						<rect id="SVGID_75_" x="260.1" y="117.9" width="33.2" height="44.1"/>
					</defs>
					<clipPath id="SVGID_76_">
						<use xlink:href="#SVGID_75_"  style="overflow:visible;"/>
					</clipPath>
					<g class="st42">
						<rect x="260.4" y="128.8" class="st3" width="32.7" height="0.5"/>
					</g>
					<g class="st42">
						<rect x="260.4" y="139.7" class="st3" width="32.7" height="0.5"/>
					</g>
					<g class="st42">
						<rect x="260.4" y="150.7" class="st3" width="32.7" height="0.5"/>
					</g>
					<g class="st42">
						<rect x="281.9" y="118.2" class="st3" width="0.5" height="43.6"/>
					</g>
					<g class="st42">
						<rect x="271" y="118.2" class="st3" width="0.5" height="43.6"/>
					</g>
					<g class="st42">
						<path class="st3" d="M293.4,162.1h-33.2v-44.1h33.2V162.1z M260.7,161.6h32.2v-43.1h-32.2V161.6z"/>
					</g>
				</g>
			</g>
			<g class="st5">
				<g>
					<defs>
						<rect id="SVGID_77_" x="260.1" y="162.1" width="33.2" height="44.1"/>
					</defs>
					<clipPath id="SVGID_78_">
						<use xlink:href="#SVGID_77_"  style="overflow:visible;"/>
					</clipPath>
					<g class="st43">
						<rect x="260.4" y="173" class="st3" width="32.7" height="0.5"/>
					</g>
					<g class="st43">
						<rect x="260.4" y="183.9" class="st3" width="32.7" height="0.5"/>
					</g>
					<g class="st43">
						<rect x="260.4" y="194.8" class="st3" width="32.7" height="0.5"/>
					</g>
					<g class="st43">
						<rect x="281.9" y="162.3" class="st3" width="0.5" height="43.6"/>
					</g>
					<g class="st43">
						<rect x="271" y="162.3" class="st3" width="0.5" height="43.6"/>
					</g>
					<g class="st43">
						<path class="st3" d="M293.4,206.2h-33.2v-44.1h33.2V206.2z M260.7,205.7h32.2v-43.1h-32.2V205.7z"/>
					</g>
				</g>
			</g>
			<g class="st5">
				<g>
					<defs>
						<rect id="SVGID_79_" x="260.1" y="206.2" width="33.2" height="44.1"/>
					</defs>
					<clipPath id="SVGID_80_">
						<use xlink:href="#SVGID_79_"  style="overflow:visible;"/>
					</clipPath>
					<g class="st44">
						<rect x="260.4" y="217.1" class="st3" width="32.7" height="0.5"/>
					</g>
					<g class="st44">
						<rect x="260.4" y="228" class="st3" width="32.7" height="0.5"/>
					</g>
					<g class="st44">
						<rect x="260.4" y="239" class="st3" width="32.7" height="0.5"/>
					</g>
					<g class="st44">
						<rect x="281.9" y="206.5" class="st3" width="0.5" height="43.6"/>
					</g>
					<g class="st44">
						<rect x="271" y="206.5" class="st3" width="0.5" height="43.6"/>
					</g>
					<g class="st44">
						<path class="st3" d="M293.4,250.4h-33.2v-44.1h33.2V250.4z M260.7,249.9h32.2v-43.1h-32.2V249.9z"/>
					</g>
				</g>
			</g>
			<g class="st5">
				<g>
					<defs>
						<rect id="SVGID_81_" x="260.1" y="250.4" width="33.2" height="44.1"/>
					</defs>
					<clipPath id="SVGID_82_">
						<use xlink:href="#SVGID_81_"  style="overflow:visible;"/>
					</clipPath>
					<g class="st45">
						<rect x="260.4" y="261.3" class="st3" width="32.7" height="0.5"/>
					</g>
					<g class="st45">
						<rect x="281.9" y="250.6" class="st3" width="0.5" height="43.6"/>
					</g>
					<g class="st45">
						<rect x="271" y="250.6" class="st3" width="0.5" height="43.6"/>
					</g>
					<g class="st45">
						<path class="st3" d="M293.4,294.5h-33.2v-44.1h33.2V294.5z M260.7,294h32.2v-43.1h-32.2V294z"/>
					</g>
				</g>
			</g>
		</g>
	</g>
	<g>
		<g>
			<path class="st46" d="M302.1,183.9c-0.7,1.1-1.5,2.1-2.2,2.9c-0.2-0.2-0.7-0.5-0.9-0.6c1.3-1.1,2.5-2.9,3.2-4.7l1,0.3
				c-0.2,0.4-0.4,0.8-0.6,1.2h8.6v0.9H302.1z M309.8,189.3c-0.1,0.9-0.1,1.7-0.2,2.2h1.7v0.9h-1.8c-0.1,0.7-0.3,1.1-0.4,1.3
				c-0.3,0.3-0.6,0.5-1,0.5c-0.4,0-1.1,0-1.8,0c0-0.2-0.1-0.6-0.3-0.8c0.7,0.1,1.4,0.1,1.6,0.1c0.3,0,0.4,0,0.5-0.2
				c0.1-0.1,0.2-0.4,0.3-0.8h-8c0.2-0.9,0.4-2,0.5-3.2h-2v-1h2.1c0.1-1.1,0.3-2.2,0.4-3.1h8.4c0,0,0,0.4,0,0.5c0,1-0.1,1.8-0.1,2.6
				h2v1H309.8z M308.6,191.6c0.1-0.6,0.1-1.3,0.2-2.3H302c-0.1,0.8-0.2,1.6-0.4,2.3h4.3c-0.6-0.5-1.6-1.2-2.5-1.7l0.6-0.6
				c1,0.4,2.1,1.2,2.7,1.8l-0.5,0.5H308.6z M302.5,186.2c-0.1,0.7-0.2,1.5-0.3,2.2h4.2c-0.5-0.5-1.6-1.2-2.5-1.6l0.6-0.6
				c0.9,0.4,2,1,2.5,1.5l-0.6,0.6h2.4c0-0.7,0.1-1.4,0.1-2.2H302.5z"/>
			<path class="st46" d="M323.8,192.8c0,0.7-0.2,1.1-0.7,1.3c-0.5,0.2-1.5,0.2-3,0.2c-0.1-0.3-0.3-0.8-0.4-1.1c1.2,0,2.3,0,2.6,0
				c0.3,0,0.4-0.1,0.4-0.4V190H316c-0.4,1.6-1.1,3.2-2.4,4.4c-0.1-0.2-0.6-0.6-0.8-0.8c2.2-2,2.5-4.8,2.5-7v-4.3h8.5V192.8z
				 M322.8,188.9v-2.4h-6.4c0,0.7,0,1.5-0.2,2.4H322.8z M316.4,183.3v2.3h6.4v-2.3H316.4z"/>
			<path class="st46" d="M339.3,183.7v2.9h-1v-2h-9.7v2h-1v-2.9h2.2c-0.3-0.5-0.7-1.1-1.1-1.6l0.9-0.4c0.5,0.5,1,1.2,1.2,1.7
				l-0.5,0.2h2.5v-2.1h1v2.1h2.4l-0.4-0.2c0.4-0.5,1-1.3,1.2-1.9l1.1,0.4c-0.4,0.6-0.9,1.2-1.3,1.7H339.3z M328.5,189.3h9.9v5h-1
				v-0.4h-7.9v0.4h-1V189.3z M329.6,190.1v1.1h3.4v-1.1H329.6z M332.9,193.1V192h-3.4v1.1H332.9z M337.1,185.6v2.9h-7.3v-2.9H337.1z
				 M336.1,186.4h-5.3v1.3h5.3V186.4z M337.4,190.1h-3.5v1.1h3.5V190.1z M337.4,193.1V192h-3.5v1.1H337.4z"/>
			<path class="st46" d="M347.8,190.9H341V190h1.4v-5.7h-1.2v-0.9h1.2v-1.7h1v1.7h2.5v-1.7h1v1.7h1v0.9h-1v5.7h1V190.9z
				 M343.9,191.5c-0.5,1.1-1.3,2.1-2.1,2.8c-0.2-0.2-0.6-0.5-0.8-0.6c0.8-0.6,1.5-1.6,1.9-2.5L343.9,191.5z M343.3,184.3v1.2h2.5
				v-1.2H343.3z M343.3,187.7h2.5v-1.4h-2.5V187.7z M343.3,190h2.5v-1.4h-2.5V190z M345.7,191.2c0.6,0.6,1.2,1.5,1.5,2.1l-0.8,0.5
				c-0.3-0.6-0.9-1.5-1.4-2.1L345.7,191.2z M353.3,193c0,0.6-0.2,0.9-0.5,1.1c-0.4,0.2-1.1,0.2-2.1,0.2c0-0.3-0.2-0.7-0.3-1
				c0.7,0,1.4,0,1.6,0c0.2,0,0.3-0.1,0.3-0.3v-3.4h-3c-0.1,1.7-0.5,3.4-1.3,4.8c-0.2-0.2-0.6-0.5-0.8-0.6c1.2-1.8,1.3-4.5,1.3-6.5
				v-5.1h4.8V193z M352.3,188.7v-2.3h-2.9v0.9c0,0.4,0,0.9,0,1.4H352.3z M349.5,183.2v2.2h2.9v-2.2H349.5z"/>
			<path class="st46" d="M357.5,187.2c-0.2-0.3-0.4-0.6-0.7-0.9c-0.3,0.7-0.7,1.4-1.1,1.9c-0.1-0.2-0.5-0.5-0.7-0.6
				c0.8-0.8,1.3-2.1,1.6-3.5l0.9,0.2c-0.1,0.4-0.2,0.8-0.3,1.2c0.4,0.4,0.8,0.8,1,1.1L357.5,187.2z M358.9,189h2.5v0.9h-2.5v4.4h-1
				v-4.4h-2.8V189h2.8v-1h0.4c-0.2-0.2-0.4-0.4-0.6-0.5c0.8-0.8,1.3-1.9,1.6-3.2l0.9,0.2c-0.1,0.4-0.2,0.9-0.4,1.3
				c0.5,0.5,1.1,1.2,1.4,1.7l-0.6,0.5c-0.2-0.4-0.7-1-1.1-1.5c-0.3,0.6-0.6,1.1-1,1.5h0.5V189z M357.3,190.9c-0.3,1-0.8,2-1.4,2.6
				c-0.2-0.1-0.6-0.4-0.8-0.5c0.6-0.6,1-1.5,1.3-2.3L357.3,190.9z M361.3,184h-6.1V183h2.9c-0.2-0.4-0.4-0.9-0.6-1.2l0.9-0.3
				c0.3,0.5,0.6,1.1,0.8,1.5l-0.1,0h2.2V184z M360.2,190.7c0.5,0.7,1,1.7,1.2,2.3l-0.8,0.4c-0.2-0.6-0.7-1.7-1.2-2.4L360.2,190.7z
				 M367.7,193.6H363v0.7h-1v-7.9c-0.2,0.3-0.4,0.6-0.5,0.8c-0.2-0.2-0.6-0.5-0.8-0.7c1-1.2,1.8-3.1,2.3-5l1,0.2
				c-0.2,0.8-0.5,1.6-0.8,2.4h4.6v1h-1.9v1.9h1.8v0.9h-1.8v1.9h1.8v0.9h-1.8v1.9h2V193.6z M364.8,185.1H363v1.9h1.8V185.1z
				 M364.8,187.9H363v1.9h1.8V187.9z M363,192.6h1.8v-1.9H363V192.6z M365.2,184c-0.2-0.5-0.6-1.4-0.9-2l0.9-0.3
				c0.4,0.6,0.8,1.4,1,2L365.2,184z"/>
			<path class="st46" d="M373.6,184.7H369v-0.9h4.6V184.7z M369.5,186.6v-0.8h3.7v0.8H369.5z M373.2,188.4h-3.7v-0.8h3.7V188.4z
				 M373.3,193.5h-2.9v0.7h-0.8v-4.7h3.7V193.5z M371.6,183.8c-0.2-0.5-0.8-1.3-1.2-1.9l0.8-0.4c0.5,0.6,1,1.3,1.2,1.8L371.6,183.8z
				 M370.4,190.3v2.3h2v-2.3H370.4z M373.6,192.6c0.5-0.7,0.7-2,0.9-3.1l0.8,0.3c-0.1,1.1-0.4,2.5-0.9,3.4L373.6,192.6z
				 M377.1,184.5H374v-1h3.1v-2h1v2h3.5v1h-3.5v2.1h3.2v1h-7.1v-1h2.8V184.5z M378.5,192.9c0.4,0,0.4-0.2,0.5-1.9
				c0.2,0.2,0.6,0.3,0.9,0.4c-0.1,1.9-0.4,2.4-1.3,2.4h-1.5c-1,0-1.3-0.3-1.3-1.3V189h1v3.5c0,0.3,0.1,0.4,0.4,0.4H378.5z
				 M378.6,190c-0.4-0.5-1.3-1.3-2.1-1.9l0.7-0.6c0.8,0.5,1.7,1.2,2.1,1.8L378.6,190z M380.4,189.4c0.7,1,1.2,2.3,1.4,3.2l-0.9,0.4
				c-0.2-0.9-0.7-2.2-1.3-3.2L380.4,189.4z"/>
			<path class="st46" d="M386.8,192.2h2.3v-7.7h-1.8v-0.8c0.9-0.2,1.6-0.4,2.1-0.7h1v9.2h2.1v1.1h-5.6V192.2z"/>
			<path class="st46" d="M405.2,185.5c1,2.4,2.8,4.6,4.7,5.7c-0.3,0.2-0.6,0.6-0.8,0.9c-2.1-1.3-3.9-3.8-4.9-6.6H404v5.2h3.2v1H404
				v2.6h-1.1v-2.6h-3.2v-1h3.2v-5.2h-0.2c-1.1,2.7-2.9,5.2-4.9,6.6c-0.2-0.3-0.5-0.6-0.7-0.8c1.8-1.1,3.6-3.4,4.6-5.8h-4.2v-1h5.5
				v-2.9h1.1v2.9h5.5v1H405.2z"/>
		</g>
		<path class="st46" d="M292.7,187.6c0,1-0.8,1.8-1.8,1.8c-1,0-1.8-0.8-1.8-1.8c0-1,0.8-1.8,1.8-1.8
			C291.9,185.8,292.7,186.6,292.7,187.6z"/>
	</g>
	<g>
		<g>
			<g>
				<path class="st2" d="M520.4,107.6c0.5,0,0.6-0.4,0.7-2.4c0.3,0.2,0.9,0.5,1.2,0.6c-0.1,2.4-0.5,3.1-1.8,3.1h-1.9
					c-1.4,0-1.8-0.4-1.8-1.8v-4.7h-2.4c-0.3,3-0.9,5.4-4.2,6.7c-0.1-0.3-0.5-0.8-0.8-1c2.9-1.1,3.4-3.2,3.6-5.6h-3.4v-1.3H522v1.3
					h-3.8v4.7c0,0.5,0.1,0.6,0.6,0.6H520.4z M520.8,98.5h-9.9v-1.3h9.9V98.5z"/>
				<path class="st2" d="M527.2,96.8h1.1l-3.9,13.7h-1.1L527.2,96.8z"/>
				<path class="st2" d="M532.7,98.8c-0.7,1.1-1.4,2-2.2,2.8c-0.3-0.2-0.8-0.6-1.2-0.8c1.3-1.1,2.5-2.9,3.2-4.6l1.3,0.4
					c-0.2,0.3-0.3,0.7-0.5,1h8.4v1.2H532.7z M540.2,104.2c0,0.8-0.1,1.4-0.1,1.9h1.6v1.1h-1.8c-0.1,0.6-0.2,1-0.4,1.2
					c-0.3,0.4-0.6,0.5-1.1,0.6c-0.4,0-1.1,0-1.8,0c0-0.3-0.1-0.7-0.3-1c0.7,0.1,1.3,0.1,1.5,0.1c0.2,0,0.4,0,0.5-0.2
					c0.1-0.1,0.2-0.3,0.2-0.6h-7.8c0.2-0.8,0.4-1.9,0.5-3.1h-1.9V103h2.1c0.1-1,0.3-2.1,0.4-3h8.4c0,0,0,0.4,0,0.6
					c0,0.9-0.1,1.7-0.1,2.4h2v1.2H540.2z M532.7,104.2c-0.1,0.7-0.2,1.4-0.3,2h3.8c-0.6-0.5-1.4-1-2.2-1.4l0.6-0.6H532.7z
					 M533.1,101.1c-0.1,0.6-0.2,1.3-0.3,1.9h3.6c-0.6-0.5-1.4-1-2.1-1.3l0.6-0.6H533.1z M538.8,106.1c0.1-0.5,0.1-1.2,0.1-2h-3.9
					c0.8,0.4,1.7,1,2.2,1.5l-0.5,0.5H538.8z M539,103.1c0-0.6,0-1.2,0.1-1.9h-3.7c0.8,0.4,1.7,0.9,2.2,1.4l-0.5,0.5H539z"/>
				<path class="st2" d="M556.4,106h-4.9v3.1h-1.3V106h-6.4v-1.3h2.3V101h4.1v-1.9H547c-0.6,1-1.3,2-2,2.7c-0.3-0.2-0.8-0.6-1.1-0.8
					c1.3-1.1,2.4-2.9,3.1-4.7l1.3,0.4c-0.2,0.4-0.4,0.9-0.5,1.3h8.1v1.3h-4.2v1.9h3.9v1.2h-3.9v2.5h4.9V106z M550.2,104.7v-2.5h-2.8
					v2.5H550.2z"/>
			</g>
		</g>
		<g>
			<path class="st2" d="M438,106.2l6.6-8.8c0.3-0.4,0.6-0.9,0.8-1.4c0.2-0.5,0.3-0.9,0.3-1.3v0c0-0.6-0.2-1.1-0.6-1.5
				c-0.4-0.4-0.9-0.5-1.7-0.5c-0.7,0-1.3,0.2-1.7,0.6c-0.4,0.4-0.7,1-0.8,1.8v0h-3.2v0c0.1-1.2,0.4-2.1,0.9-3c0.5-0.8,1.1-1.4,2-1.9
				c0.8-0.4,1.7-0.6,2.8-0.6c1.2,0,2.2,0.2,3,0.6c0.8,0.4,1.5,1,1.9,1.7s0.7,1.6,0.7,2.7v0c0,0.8-0.1,1.6-0.4,2.4
				c-0.3,0.8-0.7,1.5-1.2,2.2l-5.1,6.8h6.9v3H438V106.2z"/>
			<path class="st2" d="M452.4,105.8h3.2v4.5l-3.2,3.2V105.8z"/>
			<path class="st2" d="M462.3,108.6c-0.8-0.4-1.4-1-1.9-1.8c-0.5-0.8-0.8-1.7-0.9-2.8v0h3.2v0c0.1,0.7,0.3,1.3,0.7,1.6
				c0.4,0.4,1,0.6,1.6,0.6c0.7,0,1.3-0.2,1.7-0.7s0.6-1.2,0.6-2.1v-1.6c0-0.9-0.2-1.6-0.6-2.1c-0.4-0.5-0.9-0.7-1.7-0.7
				c-0.5,0-0.9,0.1-1.3,0.4c-0.4,0.3-0.7,0.6-0.9,1.1h-2.9V89.8h10v3H463v3.8c0.3-0.3,0.7-0.5,1.1-0.6c0.4-0.1,0.9-0.2,1.3-0.2
				c1,0,1.9,0.2,2.7,0.7c0.7,0.5,1.3,1.1,1.7,2c0.4,0.9,0.6,1.9,0.6,3.2v1.6c0,1.2-0.2,2.3-0.7,3.2s-1.1,1.5-1.9,2
				c-0.8,0.5-1.8,0.7-3,0.7C463.9,109.2,463,109,462.3,108.6z"/>
			<path class="st2" d="M476.1,107.7c-1-1-1.4-2.3-1.4-4V95c0-1.7,0.5-3.1,1.4-4c1-1,2.3-1.4,4.2-1.4c1.8,0,3.2,0.5,4.2,1.4
				c1,0.9,1.4,2.3,1.4,4v8.7c0,1.7-0.5,3.1-1.4,4c-1,1-2.3,1.4-4.2,1.4C478.5,109.2,477.1,108.7,476.1,107.7z M482.2,105.4
				c0.4-0.5,0.6-1.2,0.6-2.1v-7.8c0-0.9-0.2-1.6-0.6-2.1c-0.4-0.5-1-0.7-1.9-0.7s-1.5,0.2-1.9,0.7c-0.4,0.5-0.6,1.2-0.6,2.1v7.8
				c0,0.9,0.2,1.6,0.6,2.1c0.4,0.5,1,0.7,1.9,0.7S481.8,105.9,482.2,105.4z"/>
			<path class="st2" d="M491.1,107.7c-1-1-1.4-2.3-1.4-4V95c0-1.7,0.5-3.1,1.4-4c1-1,2.3-1.4,4.2-1.4c1.8,0,3.2,0.5,4.2,1.4
				c1,0.9,1.4,2.3,1.4,4v8.7c0,1.7-0.5,3.1-1.4,4c-1,1-2.3,1.4-4.2,1.4C493.4,109.2,492,108.7,491.1,107.7z M497.1,105.4
				c0.4-0.5,0.6-1.2,0.6-2.1v-7.8c0-0.9-0.2-1.6-0.6-2.1c-0.4-0.5-1-0.7-1.9-0.7s-1.5,0.2-1.9,0.7c-0.4,0.5-0.6,1.2-0.6,2.1v7.8
				c0,0.9,0.2,1.6,0.6,2.1c0.4,0.5,1,0.7,1.9,0.7S496.7,105.9,497.1,105.4z"/>
		</g>
	</g>
	<g>
		<g>
			<g>
				<g>
					<path class="st2" d="M520.4,51.9c0.5,0,0.6-0.4,0.7-2.4c0.3,0.2,0.9,0.5,1.2,0.6c-0.1,2.4-0.5,3.1-1.8,3.1h-1.9
						c-1.4,0-1.8-0.4-1.8-1.8v-4.7h-2.4c-0.3,3-0.9,5.4-4.2,6.7c-0.1-0.3-0.5-0.8-0.8-1c2.9-1.1,3.4-3.2,3.6-5.6h-3.4v-1.3H522v1.3
						h-3.8v4.7c0,0.5,0.1,0.6,0.6,0.6H520.4z M520.8,42.8h-9.9v-1.3h9.9V42.8z"/>
					<path class="st2" d="M527.2,41.1h1.1l-3.9,13.7h-1.1L527.2,41.1z"/>
					<path class="st2" d="M532.7,43c-0.7,1.1-1.4,2-2.2,2.8c-0.3-0.2-0.8-0.6-1.2-0.8c1.3-1.1,2.5-2.9,3.2-4.6l1.3,0.4
						c-0.2,0.3-0.3,0.7-0.5,1h8.4V43H532.7z M540.2,48.5c0,0.8-0.1,1.4-0.1,1.9h1.6v1.1h-1.8c-0.1,0.6-0.2,1-0.4,1.2
						c-0.3,0.4-0.6,0.5-1.1,0.6c-0.4,0-1.1,0-1.8,0c0-0.3-0.1-0.7-0.3-1c0.7,0.1,1.3,0.1,1.5,0.1c0.2,0,0.4,0,0.5-0.2
						c0.1-0.1,0.2-0.3,0.2-0.6h-7.8c0.2-0.8,0.4-1.9,0.5-3.1h-1.9v-1.2h2.1c0.1-1,0.3-2.1,0.4-3h8.4c0,0,0,0.4,0,0.6
						c0,0.9-0.1,1.7-0.1,2.4h2v1.2H540.2z M532.7,48.4c-0.1,0.7-0.2,1.4-0.3,2h3.8c-0.6-0.5-1.4-1-2.2-1.4l0.6-0.6H532.7z
						 M533.1,45.4c-0.1,0.6-0.2,1.3-0.3,1.9h3.6c-0.6-0.5-1.4-1-2.1-1.3l0.6-0.6H533.1z M538.8,50.4c0.1-0.5,0.1-1.2,0.1-2h-3.9
						c0.8,0.4,1.7,1,2.2,1.5l-0.5,0.5H538.8z M539,47.3c0-0.6,0-1.2,0.1-1.9h-3.7c0.8,0.4,1.7,0.9,2.2,1.4l-0.5,0.5H539z"/>
					<path class="st2" d="M556.4,50.3h-4.9v3.1h-1.3v-3.1h-6.4V49h2.3v-3.7h4.1v-1.9H547c-0.6,1-1.3,2-2,2.7
						c-0.3-0.2-0.8-0.6-1.1-0.8c1.3-1.1,2.4-2.9,3.1-4.7l1.3,0.4c-0.2,0.4-0.4,0.9-0.5,1.3h8.1v1.3h-4.2v1.9h3.9v1.2h-3.9V49h4.9
						V50.3z M550.2,49v-2.5h-2.8V49H550.2z"/>
				</g>
			</g>
		</g>
		<g>
			<path class="st2" d="M441.2,52.9c-0.9-0.4-1.5-1-2.1-1.8c-0.5-0.8-0.8-1.7-0.9-2.8h3.2c0.1,0.5,0.2,0.9,0.4,1.2
				c0.2,0.3,0.5,0.5,0.9,0.7c0.4,0.2,0.8,0.2,1.2,0.2c0.8,0,1.4-0.2,1.8-0.6c0.4-0.4,0.6-1,0.6-1.8v-0.5c0-0.8-0.2-1.5-0.6-2
				c-0.4-0.5-0.9-0.7-1.6-0.7h-1.5v-3h1.5c0.6,0,1.1-0.2,1.4-0.6c0.3-0.4,0.5-1,0.5-1.7V39c0-0.7-0.2-1.2-0.5-1.6
				c-0.4-0.4-0.9-0.5-1.5-0.5c-0.4,0-0.7,0.1-1.1,0.3c-0.3,0.2-0.6,0.4-0.8,0.8c-0.2,0.3-0.4,0.8-0.5,1.2h-3.2
				c0.1-1.1,0.5-2.1,1-2.9c0.5-0.8,1.2-1.4,2-1.8c0.8-0.4,1.7-0.6,2.7-0.6c1.7,0,3,0.4,3.9,1.3c0.9,0.9,1.4,2.1,1.4,3.7v0.4
				c0,0.9-0.2,1.7-0.7,2.4c-0.5,0.7-1.2,1.2-2.1,1.5c1,0.2,1.7,0.7,2.3,1.5c0.5,0.8,0.8,1.8,0.8,3v0.4c0,1.1-0.2,2.1-0.7,2.9
				s-1.1,1.4-1.9,1.8c-0.8,0.4-1.8,0.6-3,0.6C443.1,53.5,442.1,53.3,441.2,52.9z"/>
			<path class="st2" d="M453.5,50h3.2v4.5l-3.2,3.2V50z"/>
			<path class="st2" d="M461.2,52c-1-1-1.4-2.3-1.4-4v-8.7c0-1.7,0.5-3.1,1.4-4c1-1,2.3-1.4,4.2-1.4c1.8,0,3.2,0.5,4.2,1.4
				c1,0.9,1.4,2.3,1.4,4V48c0,1.7-0.5,3.1-1.4,4c-1,1-2.3,1.4-4.2,1.4C463.6,53.5,462.2,53,461.2,52z M467.2,49.7
				c0.4-0.5,0.6-1.2,0.6-2.1v-7.8c0-0.9-0.2-1.6-0.6-2.1c-0.4-0.5-1-0.7-1.9-0.7s-1.5,0.2-1.9,0.7c-0.4,0.5-0.6,1.2-0.6,2.1v7.8
				c0,0.9,0.2,1.6,0.6,2.1c0.4,0.5,1,0.7,1.9,0.7S466.8,50.2,467.2,49.7z"/>
			<path class="st2" d="M476.1,52c-1-1-1.4-2.3-1.4-4v-8.7c0-1.7,0.5-3.1,1.4-4c1-1,2.3-1.4,4.2-1.4c1.8,0,3.2,0.5,4.2,1.4
				c1,0.9,1.4,2.3,1.4,4V48c0,1.7-0.5,3.1-1.4,4c-1,1-2.3,1.4-4.2,1.4C478.5,53.5,477.1,53,476.1,52z M482.2,49.7
				c0.4-0.5,0.6-1.2,0.6-2.1v-7.8c0-0.9-0.2-1.6-0.6-2.1c-0.4-0.5-1-0.7-1.9-0.7s-1.5,0.2-1.9,0.7c-0.4,0.5-0.6,1.2-0.6,2.1v7.8
				c0,0.9,0.2,1.6,0.6,2.1c0.4,0.5,1,0.7,1.9,0.7S481.8,50.2,482.2,49.7z"/>
			<path class="st2" d="M491.1,52c-1-1-1.4-2.3-1.4-4v-8.7c0-1.7,0.5-3.1,1.4-4c1-1,2.3-1.4,4.2-1.4c1.8,0,3.2,0.5,4.2,1.4
				c1,0.9,1.4,2.3,1.4,4V48c0,1.7-0.5,3.1-1.4,4c-1,1-2.3,1.4-4.2,1.4C493.4,53.5,492,53,491.1,52z M497.1,49.7
				c0.4-0.5,0.6-1.2,0.6-2.1v-7.8c0-0.9-0.2-1.6-0.6-2.1c-0.4-0.5-1-0.7-1.9-0.7s-1.5,0.2-1.9,0.7c-0.4,0.5-0.6,1.2-0.6,2.1v7.8
				c0,0.9,0.2,1.6,0.6,2.1c0.4,0.5,1,0.7,1.9,0.7S496.7,50.2,497.1,49.7z"/>
		</g>
	</g>
	<g>
		<g>
			<path class="st2" d="M303,46v1.4h-12.7V46H303z"/>
			<path class="st2" d="M310.3,47.1v4.6c0,0.6-0.1,1-0.6,1.2c-0.4,0.2-1.1,0.2-2,0.2c0-0.3-0.2-0.8-0.4-1.1c0.6,0,1.3,0,1.5,0
				c0.2,0,0.3-0.1,0.3-0.3v-4.4c-0.9,0.1-1.7,0.2-2.5,0.3c-0.1,1.9-0.4,4.1-1.1,5.7c-0.2-0.2-0.7-0.5-1-0.7c0.7-1.4,0.9-3.3,1-4.9
				l-0.9,0.1l-0.1-1.2l1-0.1V46v-4.2h1.5c0.1-0.4,0.3-1,0.4-1.4l1.3,0.2c-0.2,0.4-0.4,0.9-0.5,1.3h2.1v4.3l0.3,0l0,1L310.3,47.1z
				 M306.7,46.4c0.8-0.1,1.6-0.1,2.5-0.2v-3.4h-2.5v3.1V46.4z M307.7,43.5c0.4,0.6,0.8,1.3,1,1.8l-0.9,0.5c-0.2-0.5-0.6-1.3-1-1.9
				L307.7,43.5z M308,50.5c-0.2-0.6-0.6-1.4-1-2.1l0.8-0.4c0.4,0.6,0.8,1.5,1,2L308,50.5z M316.9,46.5c-0.4,1.8-1.1,3.2-2,4.3
				c0.7,0.5,1.5,0.9,2.5,1.2c-0.3,0.3-0.7,0.8-0.8,1.1c-1-0.3-1.8-0.8-2.6-1.4c-0.8,0.7-1.7,1.1-2.8,1.5c-0.1-0.3-0.5-0.8-0.7-1
				c1-0.3,1.9-0.7,2.6-1.3c-0.8-0.9-1.5-2-1.9-3.3l0.5-0.2H311v-1.1h4.9l0.2,0L316.9,46.5z M312.7,42.8c0,1.1-0.2,2.3-1.2,3.1
				c-0.2-0.2-0.7-0.7-0.9-0.8c0.9-0.7,1-1.5,1-2.3V41h4.3v2.8c0,0.4,0,0.5,0.2,0.5h0.6c0.2,0,0.4,0,0.6-0.1c0,0.3,0,0.8,0.1,1
				c-0.2,0.1-0.5,0.1-0.7,0.1h-0.8c-1.1,0-1.3-0.4-1.3-1.5v-1.7h-1.9V42.8z M312.4,47.4c0.4,1,0.9,1.9,1.6,2.6
				c0.6-0.7,1.1-1.6,1.4-2.6H312.4z"/>
			<path class="st2" d="M326.3,40.8c-0.1,0.2-0.2,0.3-0.3,0.4c1.8,2,3.8,3,5.9,3.9c-0.3,0.3-0.7,0.7-0.8,1.1c-2-1-3.9-2.1-5.8-4.1
				c-1.5,1.7-3.6,3.2-5.7,4.1c-0.2-0.3-0.6-0.8-0.9-1.1c2.5-1,5.1-2.8,6.4-4.9L326.3,40.8z M326,51.7h5.2v1.2h-11.8v-1.2h1.7v-5h1.3
				v5h2.4v-7.4h1.4v3.1h3.9v1.2H326V51.7z"/>
			<path class="st2" d="M338.3,51c-1,0.8-2.7,1.5-4.2,1.8c-0.2-0.3-0.5-0.7-0.8-1c1.4-0.2,3.1-0.7,4-1.3L338.3,51z M345.6,48.9V50
				h-5.5v3.3h-1.3V50h-5.4v-1.1h5.4v-0.8h-4.1v-1h4.1v-0.8H334v-1h2.8c-0.1-0.3-0.4-0.8-0.6-1.2l0.8-0.2h-3.6v-1h2.1
				c-0.2-0.5-0.6-1.3-1-1.9l1.1-0.4c0.4,0.6,0.9,1.5,1.1,2l-0.7,0.3h1.6v-2.4h1.2v2.4h1.4v-2.4h1.2v2.4h1.5l-0.5-0.2
				c0.3-0.6,0.8-1.4,1-2.1l1.3,0.4c-0.4,0.7-0.8,1.4-1.2,1.9h2v1h-3.7l1.1,0.3c-0.3,0.4-0.6,0.8-0.9,1.1h3v1h-5v0.8h4.3v1h-4.3v0.8
				H345.6z M337.5,43.8c0.3,0.4,0.5,0.9,0.7,1.2l-0.6,0.2h3.8l-0.5-0.2c0.3-0.3,0.6-0.9,0.8-1.2H337.5z M341.7,50.5
				c1.2,0.4,2.9,1.1,3.9,1.6l-0.9,0.8c-0.9-0.4-2.6-1.2-3.9-1.7L341.7,50.5z"/>
		</g>
	</g>
	<g>
		<g>
			<path class="st2" d="M294.4,96.8h1.3v6.5c0,2.1-0.6,4.9-4,6.5c-0.2-0.3-0.6-0.7-0.9-1c1.6-0.6,2.5-1.7,3-2.8
				c-1.2,0.2-2.3,0.4-3.2,0.6l-0.3-1.3c1-0.1,2.4-0.4,3.9-0.6c0.1-0.5,0.2-1,0.2-1.4v-0.2h-3.4v-1.2h3.4v-1.9h-3.6v-1.2h3.6V96.8z
				 M303,106.3h-4.1v3.3h-1.3V96.8h1.3v1.9h3.9v1.2h-3.9v1.9h3.6v1.2h-3.6v2h4.1V106.3z"/>
			<path class="st2" d="M314.6,96.7c-0.1,0.9-0.2,1.6-0.4,2.2c0.9,0.5,2.1,1.1,2.8,1.6l-0.6,0.7h0.4v2.6h-1.3v-1.6h-9.2v1.6h-1.2
				v-2.6h0.1c-0.1-0.3-0.4-0.6-0.6-0.8c2.4-0.6,2.8-1.6,2.9-3.6h1.1c0,0.9-0.1,1.6-0.4,2.2c0.7,0.4,1.6,1,2.1,1.3l-0.8,0.8
				c-0.4-0.3-1.1-0.8-1.8-1.2c-0.5,0.6-1.2,1-2.3,1.3h5.6c-0.1-0.3-0.4-0.7-0.6-1c2.4-0.5,2.8-1.5,2.9-3.5H314.6z M306,99
				c-0.2-0.3-0.7-0.9-1.1-1.4l0.8-0.6c0.4,0.4,0.9,1,1.1,1.3L306,99z M310.5,106.2h5.4v3.3h-1.3v-0.3h-7.2v0.4h-1.2v-3.3h3.1
				c0.1-0.2,0.2-0.5,0.3-0.7h-2.5v-2.7h7.5v2.7h-3.8L310.5,106.2z M314.6,107.2h-7.2v1.1h7.2V107.2z M308.4,104.7h5v-1h-5V104.7z
				 M310.8,97.7c-0.4,0.5-0.9,1-1.2,1.4l-0.8-0.3c0.3-0.4,0.7-1,1-1.4L310.8,97.7z M311.9,98.9c-0.2-0.4-0.7-1-1.1-1.4l0.8-0.6
				c0.4,0.4,0.9,1,1.1,1.3L311.9,98.9z M316,101.2c-0.6-0.4-1.5-0.9-2.3-1.4c-0.5,0.6-1.3,1-2.5,1.4H316z M317,97.7
				c-0.5,0.5-1,1.1-1.3,1.5l-0.8-0.4c0.3-0.4,0.8-1.1,1-1.5L317,97.7z"/>
			<path class="st2" d="M323.1,100.9h2.7v1.2h-2.7v0.4c0.7,0.6,2.2,2,2.6,2.4l-0.7,1.1c-0.4-0.5-1.2-1.4-1.8-2.1v5.6h-1.3V104
				c-0.7,1.5-1.5,2.8-2.4,3.7c-0.1-0.4-0.5-0.9-0.7-1.3c1.1-1,2.2-2.8,2.8-4.4H319v-1.2h2.8v-2.1c-0.9,0.2-1.7,0.3-2.5,0.4
				c-0.1-0.3-0.3-0.7-0.4-1c2-0.3,4.4-0.8,5.7-1.4l0.9,1c-0.7,0.3-1.5,0.5-2.4,0.7V100.9z M328,106.1h-1.3v-7.7h1.3V106.1z
				 M331,96.9v11c0,0.8-0.2,1.2-0.7,1.4c-0.5,0.2-1.3,0.3-2.6,0.3c-0.1-0.4-0.3-1-0.5-1.3c0.9,0,1.8,0,2.1,0c0.3,0,0.4-0.1,0.4-0.4
				v-11H331z"/>
			<path class="st2" d="M340,97.3h1.1l-3.9,13.7h-1.1L340,97.3z"/>
			<path class="st2" d="M357.6,100.5c-0.3,2.2-0.8,3.9-1.6,5.4c0.7,1.1,1.5,2,2.6,2.6c-0.3,0.3-0.7,0.8-0.9,1.1
				c-1-0.6-1.8-1.4-2.5-2.5c-0.8,1-1.8,1.8-3.1,2.5c-0.1-0.3-0.5-0.9-0.8-1.2c1.4-0.6,2.4-1.5,3.2-2.6c-0.5-1-0.8-2.2-1.1-3.4
				c-0.3,0.5-0.5,0.9-0.8,1.3c-0.2-0.2-0.5-0.5-0.8-0.7c-0.6,0.6-1.3,1.3-2,1.8v0.5c0.9-0.1,1.7-0.2,2.6-0.3l0,1.1l-2.6,0.3v1.8
				c0,0.6-0.1,0.9-0.5,1.1c-0.4,0.2-1.1,0.2-1.9,0.2c-0.1-0.3-0.2-0.8-0.4-1.1c0.6,0,1.2,0,1.4,0c0.2,0,0.2,0,0.2-0.2v-1.7l-2.7,0.3
				l-0.1-1.2c0.8-0.1,1.8-0.2,2.9-0.3v-0.9c0.5-0.3,1-0.7,1.4-1.1H348c-0.5,0.4-1.1,0.8-1.6,1.1c-0.2-0.3-0.6-0.8-0.9-1
				c1.1-0.5,2-1.2,2.9-2h-2.7v-1.1h2.3v-1.2h-1.7v-1.1h1.7v-1.4h1.2v1.4h1.4v0.8c0.4-0.6,0.7-1.2,1-1.9l1.2,0.4
				c-0.4,1.1-1,2.1-1.7,3h1.4v1.1c0.7-1.3,1.1-3,1.4-4.8l1.3,0.2c-0.1,0.8-0.3,1.6-0.5,2.4h3.9v1.2H357.6z M349.1,100.4h0.3
				c0.3-0.4,0.6-0.8,0.9-1.2h-1.2V100.4z M351.6,102.7c0.3-0.4,0.5-0.8,0.7-1.2h-2.3c-0.3,0.3-0.5,0.6-0.8,0.9h1.6l0.2-0.1
				L351.6,102.7z M354.2,100.5c0.2,1.4,0.6,2.7,1.1,3.9c0.5-1.1,0.8-2.4,1-3.9H354.2z"/>
			<path class="st2" d="M372.5,99.2h-3.3c1,0.7,2.2,1.7,2.8,2.4l-1.1,0.7h0.3v5.9c0,0.7-0.2,1.1-0.8,1.2c-0.6,0.2-1.5,0.2-2.7,0.2
				c0-0.3-0.2-0.8-0.3-1.1c0.8,0,1.8,0,2.1,0c0.3,0,0.3-0.1,0.3-0.3v-1.4c-2.1,0.5-4.3,0.9-6,1.2l-0.4-1.2c1.5-0.2,4-0.6,6.4-1v-2.4
				h-6.6v1.3c0,1.6-0.2,3.7-1.6,5.1c-0.2-0.3-0.7-0.7-1.1-0.8c1.2-1.2,1.3-3,1.3-4.3v-2.3h8.9c-0.2-0.3-0.5-0.6-0.9-0.9
				c-7,0.3-7.7,0.3-8.3,0.5c-0.1-0.3-0.2-0.9-0.4-1.2c0.4-0.1,0.7-0.3,1.2-0.7c0.2-0.1,0.5-0.4,1-0.8h-3.2V98h4.4
				c0.4-0.4,0.9-1,1.3-1.5l1.3,0.5c-0.3,0.3-0.6,0.6-0.9,0.9h6.1V99.2z M368.8,100.4c-0.4-0.3-0.8-0.6-1.1-0.9l0.6-0.3h-3.1
				c-0.6,0.5-1.1,1-1.7,1.4L368.8,100.4z M364,103.8c1.6,0.2,3.8,0.7,4.9,1.2l-0.4,0.9c-1.1-0.5-3.2-1.1-4.9-1.3L364,103.8z"/>
			<path class="st2" d="M377.5,104.3c-0.1-0.4-0.4-1-0.7-1.5v6.8h-1.1v-6.1c-0.3,1.2-0.7,2.4-1.1,3.1c-0.1-0.4-0.4-1-0.5-1.3
				c0.7-1.1,1.3-3.1,1.6-4.8h-1.3v-1.2h1.4v-2.6h1.1v2.6h1.1v1.2h-1.1v0.8c0.3,0.5,1.1,1.8,1.3,2.1L377.5,104.3z M386.2,105.3
				c-0.4,0.8-1,1.5-1.6,2.2c0.4,0.5,0.7,0.7,1.2,0.8c0.3,0,0.4-0.5,0.5-1.5c0.2,0.2,0.6,0.5,0.8,0.7c-0.3,1.6-0.8,2.1-1.4,2.1
				c-0.9-0.1-1.6-0.5-2.1-1.3c-0.7,0.5-1.5,0.9-2.3,1.3c-0.2-0.2-0.5-0.6-0.7-0.8c0.9-0.3,1.8-0.8,2.5-1.4c-0.3-0.7-0.5-1.5-0.7-2.4
				h-2.1c0,0.1,0,0.3,0,0.4c0.6,0.5,1.5,1.2,1.8,1.6l-0.8,0.8c-0.3-0.3-0.8-0.8-1.2-1.2c-0.3,1.1-0.8,2.2-2,3.1
				c-0.2-0.2-0.6-0.6-0.9-0.8c1.6-1.2,1.9-2.7,2-3.9h-1v-1h4c-0.3-2-0.5-4.4-0.6-7.1h1.1c0.1,2.7,0.3,5.2,0.6,7.1h1.7
				c-0.3-0.3-0.7-0.5-1-0.8l0.6-0.5c-0.7,0.1-0.9,0.2-1,0.3c-0.1-0.2-0.2-0.7-0.3-1c0.2-0.1,0.4-0.3,0.7-0.6
				c0.1-0.2,0.4-0.6,0.8-1.1c-0.9,0.1-1.1,0.2-1.3,0.3c-0.1-0.2-0.2-0.7-0.3-0.9c0.2,0,0.3-0.2,0.5-0.5c0.2-0.2,0.7-1.2,0.9-2.1
				l1,0.3c-0.3,0.8-0.7,1.6-1.1,2.2l0.8-0.1c0.2-0.3,0.3-0.6,0.4-0.9l1,0.4c-0.6,1.1-1.3,2.2-2,3l1.1-0.1c-0.1-0.2-0.2-0.5-0.3-0.7
				l0.8-0.2c0.3,0.6,0.6,1.5,0.7,2l-0.8,0.3c0-0.2-0.1-0.4-0.2-0.6c-0.5,0.1-0.9,0.1-1.3,0.2c0.4,0.3,1,0.7,1.3,1l-0.4,0.3h1.1v1
				h-3.2c0.2,0.6,0.3,1.2,0.5,1.6c0.4-0.5,0.8-1,1.1-1.6L386.2,105.3z M381,103.2c0-0.2-0.1-0.3-0.1-0.5c-1.9,0.3-2.2,0.3-2.4,0.4
				c-0.1-0.2-0.2-0.7-0.3-0.9c0.2,0,0.5-0.3,0.7-0.6c0.1-0.2,0.4-0.6,0.8-1.1c-0.9,0.1-1.2,0.2-1.3,0.3c-0.1-0.2-0.2-0.7-0.3-0.9
				c0.2,0,0.4-0.2,0.5-0.5c0.2-0.3,0.8-1.3,1.1-2.3l1,0.3c-0.4,0.9-0.8,1.8-1.3,2.4l0.9-0.1c0.2-0.3,0.3-0.6,0.5-0.9l0.9,0.4
				c-0.6,1.1-1.3,2.2-2,3l1.1-0.1c-0.1-0.3-0.2-0.5-0.3-0.8l0.8-0.2c0.3,0.6,0.6,1.5,0.7,2L381,103.2z"/>
			<path class="st2" d="M392.7,105.1c-0.2-0.4-0.6-1.2-1-1.9v6.3h-1.2v-5.9c-0.4,1.3-0.9,2.6-1.5,3.4c-0.1-0.4-0.4-0.8-0.6-1.1
				c0.8-1.1,1.6-3.2,2-5h-1.7v-1.2h1.8v-3h1.2v3h1.5v1.2h-1.5v0.8c0.4,0.5,1.4,2.1,1.7,2.5L392.7,105.1z M401.5,107.3h-0.8v0.9
				c0,0.6-0.1,0.9-0.5,1.1c-0.4,0.2-1,0.2-1.9,0.2c-0.1-0.3-0.2-0.8-0.4-1c0.6,0,1.2,0,1.4,0c0.2,0,0.2-0.1,0.2-0.2v-0.9H395v2.2
				h-1.2v-2.2H393v-1h0.9v-3.5h2.7v-0.7h-3.4v-1h1.8v-0.8h-1.2v-0.9h1.2v-0.8h-1.5v-0.9h1.5v-1.1h1.2v1.1h1.9v-1.1h1.2v1.1h1.7v0.9
				h-1.7v0.8h1.5v0.9h-1.5v0.8h1.9v1h-3.6v0.7h2.9v3.5h0.8V107.3z M395,103.8v0.8h1.6v-0.8H395z M395,106.4h1.6v-0.9H395V106.4z
				 M396.3,99.5h1.9v-0.8h-1.9V99.5z M396.3,101.2h1.9v-0.8h-1.9V101.2z M397.8,103.8v0.8h1.7v-0.8H397.8z M399.4,106.4v-0.9h-1.7
				v0.9H399.4z"/>
		</g>
	</g>
	<g>
		<path class="st1" d="M572.8,128.9H273.3v-114h299.5V128.9z M275.3,126.9h295.5v-110H275.3V126.9z"/>
	</g>
	<g>
		
			<rect x="283.8" y="71.4" transform="matrix(1 -3.417949e-03 3.417949e-03 1 -0.2431 1.4486)" class="st1" width="279.8" height="1"/>
	</g>
</g>
<g id="圖層_2">
</g>
<g id="圖層_3">
</g>
</svg>
