<?xml version="1.0" encoding="utf-8"?>
<!-- Generator: Adobe Illustrator 22.0.1, SVG Export Plug-In . SVG Version: 6.00 Build 0)  -->
<svg version="1.1" id="圖層_1" xmlns="http://www.w3.org/2000/svg" xmlns:xlink="http://www.w3.org/1999/xlink" x="0px" y="0px"
	 viewBox="0 0 225 60" style="enable-background:new 0 0 225 60;" xml:space="preserve">
<style type="text/css">
	.st0{clip-path:url(#SVGID_2_);}
	.st1{clip-path:url(#SVGID_4_);}
	.st2{fill:#EFECEA;}
	.st3{clip-path:url(#SVGID_6_);}
	.st4{clip-path:url(#SVGID_8_);}
	.st5{clip-path:url(#SVGID_10_);}
	.st6{clip-path:url(#SVGID_12_);}
	.st7{clip-path:url(#SVGID_14_);}
	.st8{clip-path:url(#SVGID_16_);}
	.st9{clip-path:url(#SVGID_18_);}
</style>
<g>
	<g>
		<defs>
			<rect id="SVGID_1_" width="225" height="60"/>
		</defs>
		<clipPath id="SVGID_2_">
			<use xlink:href="#SVGID_1_"  style="overflow:visible;"/>
		</clipPath>
		<g class="st0">
			<g>
				<defs>
					<rect id="SVGID_3_" x="187.5" y="-30" width="66.6" height="87.2"/>
				</defs>
				<clipPath id="SVGID_4_">
					<use xlink:href="#SVGID_3_"  style="overflow:visible;"/>
				</clipPath>
				<g class="st1">
					<rect x="188" y="13.1" class="st2" width="65.5" height="1"/>
				</g>
				<g class="st1">
					<rect x="188" y="34.6" class="st2" width="65.5" height="1"/>
				</g>
				<g class="st1">
					<rect x="209.3" y="-29.4" class="st2" width="1" height="86.1"/>
				</g>
				<g class="st1">
					<path class="st2" d="M253.5,57.2h-66.1l0-87.2h66.6v0.5c0,0,0,86,0,86.1l0,0.5H253.5z M188.5,56.2H253c0-0.6,0-1.6,0-3.2v-81.9
						h-64.5L188.5,56.2z"/>
				</g>
			</g>
		</g>
		<g class="st0">
			<g>
				<defs>
					<rect id="SVGID_5_" x="187.5" y="57.2" width="66.6" height="87.2"/>
				</defs>
				<clipPath id="SVGID_6_">
					<use xlink:href="#SVGID_5_"  style="overflow:visible;"/>
				</clipPath>
				<g class="st3">
					<rect x="209.3" y="57.7" class="st2" width="1" height="86.2"/>
				</g>
				<g class="st3">
					<path class="st2" d="M253.5,144.4h-66.1l0-87.2h66.6v0.5c0,0,0,86,0,86.1l0,0.5H253.5z M188.5,143.4H253c0-0.6,0-1.6,0-3.2
						V58.3h-64.5L188.5,143.4z"/>
				</g>
			</g>
		</g>
		<g class="st0">
			<g>
				<defs>
					<rect id="SVGID_7_" x="120.9" y="-30" width="66.6" height="87.2"/>
				</defs>
				<clipPath id="SVGID_8_">
					<use xlink:href="#SVGID_7_"  style="overflow:visible;"/>
				</clipPath>
				<g class="st4">
					<rect x="121.4" y="13.1" class="st2" width="65.5" height="1"/>
				</g>
				<g class="st4">
					<rect x="121.4" y="34.6" class="st2" width="65.5" height="1"/>
				</g>
				<g class="st4">
					<rect x="164.6" y="-29.4" class="st2" width="1" height="86.1"/>
				</g>
				<g class="st4">
					<rect x="142.7" y="-29.4" class="st2" width="1" height="86.1"/>
				</g>
				<g class="st4">
					<path class="st2" d="M187,57.2h-66.1l0-87.2h66.6v0.5c0,0,0,86,0,86.1l0,0.5H187z M121.9,56.2h64.5c0-0.6,0-1.6,0-3.2v-81.9
						h-64.5L121.9,56.2z"/>
				</g>
			</g>
		</g>
		<g class="st0">
			<g>
				<defs>
					<rect id="SVGID_9_" x="120.9" y="57.2" width="66.6" height="87.2"/>
				</defs>
				<clipPath id="SVGID_10_">
					<use xlink:href="#SVGID_9_"  style="overflow:visible;"/>
				</clipPath>
				<g class="st5">
					<rect x="164.6" y="57.7" class="st2" width="1" height="86.2"/>
				</g>
				<g class="st5">
					<rect x="142.7" y="57.7" class="st2" width="1" height="86.2"/>
				</g>
				<g class="st5">
					<path class="st2" d="M187,144.4h-66.1l0-87.2h66.6v0.5c0,0,0,86,0,86.1l0,0.5H187z M121.9,143.4h64.5c0-0.6,0-1.6,0-3.2V58.3
						h-64.5L121.9,143.4z"/>
				</g>
			</g>
		</g>
		<g class="st0">
			<g>
				<defs>
					<rect id="SVGID_11_" x="54.3" y="-30" width="66.6" height="87.2"/>
				</defs>
				<clipPath id="SVGID_12_">
					<use xlink:href="#SVGID_11_"  style="overflow:visible;"/>
				</clipPath>
				<g class="st6">
					<rect x="54.8" y="13.1" class="st2" width="65.5" height="1"/>
				</g>
				<g class="st6">
					<rect x="54.8" y="34.6" class="st2" width="65.5" height="1"/>
				</g>
				<g class="st6">
					<rect x="98" y="-29.4" class="st2" width="1" height="86.1"/>
				</g>
				<g class="st6">
					<rect x="76.2" y="-29.4" class="st2" width="1" height="86.1"/>
				</g>
				<g class="st6">
					<path class="st2" d="M120.9,57.2H54.3V-30h66.6V57.2z M55.4,56.2h64.5v-85.1H55.4V56.2z"/>
				</g>
			</g>
		</g>
		<g class="st0">
			<g>
				<defs>
					<rect id="SVGID_13_" x="54.3" y="57.2" width="66.6" height="87.2"/>
				</defs>
				<clipPath id="SVGID_14_">
					<use xlink:href="#SVGID_13_"  style="overflow:visible;"/>
				</clipPath>
				<g class="st7">
					<rect x="98" y="57.7" class="st2" width="1" height="86.2"/>
				</g>
				<g class="st7">
					<rect x="76.2" y="57.7" class="st2" width="1" height="86.2"/>
				</g>
				<g class="st7">
					<path class="st2" d="M120.9,144.4H54.3V57.2h66.6V144.4z M55.4,143.4h64.5V58.3H55.4V143.4z"/>
				</g>
			</g>
		</g>
		<g class="st0">
			<g>
				<defs>
					<rect id="SVGID_15_" x="-12.3" y="-30" width="66.6" height="87.2"/>
				</defs>
				<clipPath id="SVGID_16_">
					<use xlink:href="#SVGID_15_"  style="overflow:visible;"/>
				</clipPath>
				<g class="st8">
					<rect x="-11.7" y="13.1" class="st2" width="65.5" height="1"/>
				</g>
				<g class="st8">
					<rect x="-11.7" y="34.6" class="st2" width="65.5" height="1"/>
				</g>
				<g class="st8">
					<rect x="31.4" y="-29.4" class="st2" width="1" height="86.1"/>
				</g>
				<g class="st8">
					<rect x="9.6" y="-29.4" class="st2" width="1" height="86.1"/>
				</g>
				<g class="st8">
					<path class="st2" d="M54.3,57.2h-66.6v-0.5c0,0,0-86,0-86.1l0-0.5h66.1c0.5,0,0.5,0,0.5,4.2V57.2z M-11.2,56.2h64.5
						c0-6.8,0-78.3,0-85.1h-64.5c0,0.6,0,1.6,0,3.2V56.2z"/>
				</g>
			</g>
		</g>
		<g class="st0">
			<g>
				<defs>
					<rect id="SVGID_17_" x="-12.3" y="57.2" width="66.6" height="87.2"/>
				</defs>
				<clipPath id="SVGID_18_">
					<use xlink:href="#SVGID_17_"  style="overflow:visible;"/>
				</clipPath>
				<g class="st9">
					<rect x="31.4" y="57.7" class="st2" width="1" height="86.2"/>
				</g>
				<g class="st9">
					<rect x="9.6" y="57.7" class="st2" width="1" height="86.2"/>
				</g>
				<g class="st9">
					<path class="st2" d="M54.3,144.4h-66.6v-0.5c0,0,0-86,0-86.1l0-0.5h66.1c0.5,0,0.5,0,0.5,4.2V144.4z M-11.2,143.4h64.5
						c0-6.8,0-78.3,0-85.1h-64.5c0,0.6,0,1.6,0,3.2V143.4z"/>
				</g>
			</g>
		</g>
	</g>
</g>
</svg>
