<?xml version="1.0" encoding="utf-8"?>
<!-- Generator: Adobe Illustrator 22.0.1, SVG Export Plug-In . SVG Version: 6.00 Build 0)  -->
<svg version="1.1" id="圖層_1" xmlns="http://www.w3.org/2000/svg" xmlns:xlink="http://www.w3.org/1999/xlink" x="0px" y="0px"
	 viewBox="0 0 165.4 776.5" style="enable-background:new 0 0 165.4 776.5;" xml:space="preserve">
<style type="text/css">
	.st0{fill:none;}
	.st1{fill:#EFECEA;}
</style>
<g>
	<path class="st0" d="M11.1,584.3c6.5,5.1,17.7,7.7,33.6,7.7c19.9,0,35.5-4.3,46.9-12.8c7.8-5.8,11.7-13.1,11.7-22.1
		c0-4.3-1.3-8.6-3.8-13c-2.6-4.4-7.1-7.9-13.5-10.6c-6.4-2.7-14.7-4-24.8-4c-16.3,0-30.3,3.2-42.1,9.7c-11.8,6.5-17.7,15-17.7,25.6
		C1.3,572.7,4.6,579.2,11.1,584.3z"/>
	<path class="st0" d="M93.5,313.4c0,7.2-3.2,13.3-9.5,18.5c-9.2,7.5-22.3,11.2-39.4,11.2c-15.1,0-26.7-3.3-35-9.9
		c-0.3-0.3-0.7-0.5-1-0.8c-0.2-0.2-0.4-0.3-0.5-0.5c-0.1-0.1-0.2-0.1-0.2-0.2c-0.2-0.2-0.4-0.3-0.6-0.5c0,0-0.1-0.1-0.1-0.1
		c-0.3-0.3-0.5-0.6-0.8-0.9c-0.3-0.3-0.6-0.7-0.9-1.1c0,0,0,0,0,0c-0.3-0.4-0.6-0.7-0.8-1.1c0,0-0.1-0.1-0.1-0.1
		c-0.2-0.3-0.5-0.7-0.7-1c0-0.1-0.1-0.1-0.1-0.2c-0.2-0.3-0.3-0.5-0.5-0.8c-0.1-0.2-0.2-0.3-0.3-0.5c-0.2-0.4-0.5-0.9-0.7-1.3
		c-0.1-0.3-0.3-0.5-0.4-0.8c-0.1-0.1-0.1-0.3-0.2-0.4c-0.1-0.2-0.2-0.5-0.3-0.7c-0.1-0.2-0.1-0.3-0.2-0.5c0-0.1,0-0.1-0.1-0.2
		c-0.2-0.6-0.4-1.2-0.5-1.8c-0.1-0.3-0.1-0.5-0.2-0.8c-0.1-0.3-0.1-0.5-0.1-0.8c-0.1-0.2-0.1-0.5-0.1-0.7c-0.1-0.4-0.1-0.8-0.1-1.2
		c0-0.4-0.1-0.8-0.1-1.3c0-0.1,0-0.2,0-0.3c0-0.5,0-0.9,0-1.4c0-0.6,0-1.2,0.1-1.8c0-0.3,0-0.6,0-0.9c0-0.4,0.1-0.8,0.1-1.2
		c0-0.3,0.1-0.5,0.1-0.8c0-0.2,0-0.4,0.1-0.6c0-0.3,0.1-0.5,0.1-0.8c0-0.3,0.1-0.5,0.2-0.8c0.1-0.4,0.2-0.9,0.3-1.3
		c0-0.1,0-0.2,0.1-0.3c0.1-0.4,0.2-0.7,0.3-1.1c0-0.1,0.1-0.2,0.1-0.3c0.1-0.3,0.2-0.5,0.3-0.8c0.1-0.2,0.2-0.4,0.2-0.6
		c0.3-0.7,0.6-1.4,1-2.1c0.1-0.2,0.3-0.5,0.4-0.7c0-0.1,0.1-0.2,0.1-0.2c0.1-0.2,0.2-0.4,0.4-0.6c0.1-0.2,0.3-0.4,0.4-0.6
		c0.1-0.1,0.2-0.3,0.3-0.4c0.2-0.3,0.5-0.6,0.7-0.9c3.6-4.4,7.7-7.2,12.5-8.4c2.8-0.7,8.8-1.1,17.8-1.1h41.8
		c7.3,6.8,11.7,11.6,13.2,14.5C92.5,305.6,93.5,309.4,93.5,313.4z"/>
	<path class="st0" d="M93.5,438.4c0,7.2-3.2,13.3-9.5,18.5c-9.2,7.5-22.3,11.2-39.4,11.2c-15.1,0-26.7-3.3-35-9.9
		c-4.6-3.7-7.6-8.1-8.8-13.5c-0.5-2-0.7-4.1-0.7-6.3c0-2.5,0.2-4.8,0.7-6.9c0.8-3.8,2.4-7,4.6-9.9c3.6-4.4,7.7-7.2,12.5-8.4
		c2.8-0.7,8.8-1.1,17.8-1.1h41.8c7.3,6.8,11.7,11.6,13.2,14.5C92.5,430.6,93.5,434.4,93.5,438.4z"/>
	<path class="st1" d="M157.8,91.3c1.3,1.3,3.8,2.4,7.6,3.2V99h-57.3v-4.5c11-1.5,19.7-4.1,26.2-7.9c6.5-3.8,11.7-9.2,15.5-16.2
		c3.8-7,5.7-14.3,5.7-21.7c0-8.5-2.6-15.5-7.8-21c-5.2-5.5-11-8.3-17.6-8.3c-5,0-9.6,1.8-13.8,5.3c-6.1,5-14.2,17-24.4,36
		c-8.3,15.5-14.7,26-19.1,31.7c-4.4,5.6-9.7,10-15.7,13.1c-6,3-12.3,4.6-18.9,4.6c-12.5,0-23.3-4.9-32.4-14.6
		c-1.9-2.1-3.7-4.3-5.2-6.6V19c0.7-2.6,1-4.4,1-5.5c0-1.5-0.3-2.8-1-3.8V1.6h48.4v4.5c-11.9,2.1-20.8,5-26.7,8.5
		c-5.9,3.6-10.8,9-14.7,16.4c-3.9,7.4-5.9,15.4-5.9,24.2c0,10.2,2.7,18.2,8.1,24.1c5.4,5.9,11.7,8.8,19.1,8.8
		c4.1,0,8.2-1.1,12.3-3.4c4.1-2.2,8-5.7,11.6-10.4c2.4-3.2,7.6-11.8,15.6-26c7.9-14.2,14.3-24.2,19-30.2c4.7-6,9.9-10.5,15.6-13.6
		c5.7-3.1,12-4.6,18.8-4.6c11.9,0,22.1,4.6,30.7,13.7c8.6,9.1,12.9,20.7,12.9,34.8c0,8.8-2.2,18.1-6.5,28c-2,4.5-3,7.8-3,9.6
		C155.9,88.2,156.5,89.9,157.8,91.3z"/>
	<path class="st1" d="M12.6,168.3c-3.3,3.6-4.9,8-4.9,13.1c0,3.5,1.1,7.5,3.3,11.9c2.2,4.4,6.4,9.7,12.6,15.8h63.4
		c6.4,0,10.6-1.2,12.9-3.5c2.2-2.3,3.4-7.2,3.6-14.5h4.5v38.1H40.2c-12.9,0-20.9,0.3-23.7,0.9c-2.9,0.6-4.9,1.6-6.1,2.9
		c-1.1,1.3-1.7,2.9-1.7,4.7c0,2.5,0.7,5.4,2.1,8.6L6.5,248l-5.8-13.9v-25h15.6C9.4,202.7,4.2,197.4,0.7,193v-41
		c3.2-3.1,6.9-5.3,11.4-6.7c5.7-1.8,13.8-2.7,24.2-2.7h49.9c5.3,0,9-0.6,11-1.7c2-1.1,3.6-2.8,4.7-5.1c1.1-2.2,1.6-6.3,1.5-12.1h4.5
		v39.2H33.1C22.7,162.8,15.8,164.7,12.6,168.3z"/>
	<path class="st1" d="M105.3,304.6c-4-5.8-10.8-11.6-20.7-17.4h26.1v-4.6l-13.9-34.4l-3.9,1.5c1.1,3,1.7,5.5,1.7,7.5
		c0,2.4-0.5,4.4-1.5,5.8c-1,1.4-2.5,2.5-4.4,3.1c-2,0.7-6.6,1-13.8,1H0.7v20.3h1.8c-0.6,0.7-1.3,1.4-1.8,2.1v17.2
		c0.1-0.4,0.2-0.9,0.3-1.3c0-0.1,0-0.2,0.1-0.3c0.1-0.4,0.2-0.7,0.3-1.1c0-0.1,0.1-0.2,0.1-0.3c0.1-0.3,0.2-0.5,0.3-0.8
		c0.1-0.2,0.1-0.4,0.2-0.6c0.3-0.7,0.6-1.4,1-2.1c0.1-0.2,0.3-0.5,0.4-0.7c0-0.1,0.1-0.2,0.1-0.2c0.1-0.2,0.2-0.4,0.4-0.6
		c0.1-0.2,0.3-0.4,0.4-0.6c0.1-0.1,0.2-0.3,0.3-0.4c0.2-0.3,0.5-0.6,0.7-0.9c3.6-4.4,7.7-7.2,12.5-8.4c2.8-0.7,8.8-1.1,17.8-1.1
		h41.8c7.3,6.8,11.7,11.6,13.2,14.5c2,3.8,2.9,7.7,2.9,11.6c0,7.2-3.2,13.3-9.5,18.5c-9.2,7.5-22.3,11.2-39.4,11.2
		c-15.1,0-26.7-3.3-35-9.9c-0.3-0.3-0.7-0.5-1-0.8c-0.2-0.2-0.4-0.3-0.5-0.5c-0.1-0.1-0.2-0.1-0.2-0.2c-0.2-0.2-0.4-0.3-0.6-0.5
		c0,0-0.1-0.1-0.1-0.1c-0.3-0.3-0.5-0.6-0.8-0.9c-0.3-0.3-0.6-0.7-0.9-1.1c0,0,0,0,0,0c-0.3-0.4-0.6-0.7-0.8-1.1
		c0,0-0.1-0.1-0.1-0.1c-0.2-0.3-0.5-0.7-0.7-1c0-0.1-0.1-0.1-0.1-0.2c-0.2-0.3-0.3-0.5-0.5-0.8c-0.1-0.2-0.2-0.3-0.3-0.5
		c-0.2-0.4-0.5-0.9-0.7-1.3c-0.1-0.3-0.2-0.5-0.4-0.8c-0.1-0.1-0.1-0.3-0.2-0.4c-0.1-0.2-0.2-0.5-0.3-0.7c-0.1-0.2-0.1-0.3-0.2-0.5
		c0-0.1,0-0.1-0.1-0.2c-0.2-0.6-0.4-1.2-0.5-1.8v20.3c2.1,2.9,4.6,5.7,7.5,8.2c12.6,11.1,28.6,16.6,47.9,16.6
		c17.3,0,31.3-4.6,42-13.8c8.8-7.5,13.2-16.8,13.2-28.1C111.2,316.6,109.2,310.4,105.3,304.6z"/>
	<path class="st1" d="M105.3,429.6c-4-5.8-10.8-11.6-20.7-17.4h26.1v-4.6l-13.9-34.4l-3.9,1.5c1.1,3,1.7,5.5,1.7,7.4
		c0,2.5-0.5,4.4-1.5,5.8c-1,1.4-2.5,2.5-4.4,3.1c-2,0.7-6.6,1-13.8,1H0.7v20.3h1.8c-0.6,0.7-1.3,1.4-1.8,2.1v17.2
		c0.8-3.8,2.4-7,4.6-9.9c3.6-4.4,7.7-7.2,12.5-8.4c2.8-0.7,8.8-1.1,17.8-1.1h41.8c7.3,6.8,11.7,11.6,13.2,14.5
		c2,3.8,2.9,7.7,2.9,11.6c0,7.2-3.2,13.3-9.5,18.5c-9.2,7.5-22.3,11.2-39.4,11.2c-15.1,0-26.7-3.3-35-9.9c-4.6-3.7-7.6-8.1-8.8-13.5
		v20.3c2.1,2.9,4.6,5.7,7.5,8.2c12.6,11.1,28.6,16.6,47.9,16.6c17.3,0,31.3-4.6,42-13.8c8.8-7.5,13.2-16.8,13.2-28.1
		C111.2,441.6,109.2,435.4,105.3,429.6z"/>
	<path class="st1" d="M103.9,534.5c-4.8-8.3-12.3-15-22.5-20.1c-10.1-5.1-20.3-7.6-30.6-7.6c-14.1,0-26.8,4.2-38.1,12.6
		c-4.9,3.7-9,7.8-12.1,12.4v56.3c5.2,8.3,12.9,14.7,23,19.5c10.3,4.8,20.4,7.2,30.4,7.2c14.2,0,26.9-4.4,37.8-13.1
		c12.9-10.3,19.3-23.8,19.3-40.8C111.2,551.6,108.8,542.8,103.9,534.5z M91.6,579.2c-11.4,8.5-27,12.8-46.9,12.8
		c-15.9,0-27.1-2.6-33.6-7.7c-6.5-5.1-9.8-11.6-9.8-19.5c0-10.6,5.9-19.1,17.7-25.6c11.8-6.5,25.8-9.7,42.1-9.7
		c10.1,0,18.4,1.3,24.8,4c6.4,2.7,10.9,6.2,13.5,10.6c2.6,4.4,3.8,8.7,3.8,13C103.3,566.1,99.4,573.4,91.6,579.2z"/>
	<path class="st1" d="M111.2,663.9H86.1c16.8,9.4,25.1,19,25.1,28.8c0,4.5-1.4,8.2-4.1,11.1c-2.7,2.9-5.9,4.4-9.5,4.4
		c-3.2,0-5.9-1.1-8-3.2c-2.2-2.1-3.3-4.6-3.3-7.6c0-2.8,1.4-6,4.2-9.6c2.8-3.5,4.2-6.2,4.2-7.9c0-1.5-0.8-3-2.4-4.8
		c-3.3-3.7-8.8-7.4-16.5-11.4H22.2c-6.2,0-10.9,0.8-14,2.3c-2.2,1.1-4,2.9-5.5,5.6c-1,1.8-1.6,4.2-2,7.1v-48.1
		c0.4,3.4,1.2,6.1,2.4,8.1c1.3,2,3.4,3.4,6.2,4.3c1.4,0.4,5.3,0.6,11.8,0.6h43.3c13,0,20.8-0.3,23.3-0.8c2.5-0.5,4.3-1.5,5.4-2.9
		c1.1-1.4,1.7-3.2,1.7-5.3c0-2.5-0.6-5.4-1.8-8.5l4.4-1.2l13.7,33.8V663.9z"/>
	<path class="st1" d="M144.6,743.2v3.8h-36.7v26.1h-8.5v-26.1H26.8c-7.2,0-12.1,1-14.6,3.1c-2.5,2.1-3.8,4.7-3.8,8
		c0,2.7,0.8,5.3,2.5,7.8c1.7,2.5,4.1,4.5,7.4,5.9v4.8c-7.7-2.8-13.6-6.6-17.6-11.6V733c1.6-1.5,3.4-2.7,5.6-3.7
		c3.9-1.7,9.8-2.6,17.9-2.6h75.2v-17.7h4c1.8,4.5,4.8,9.1,9.1,13.7c4.3,4.7,9.3,8.8,15.2,12.5C130.8,737.2,136.4,739.8,144.6,743.2z
		"/>
</g>
</svg>
