<?xml version="1.0" encoding="utf-8"?>
<!-- Generator: Adobe Illustrator 24.1.1, SVG Export Plug-In . SVG Version: 6.00 Build 0)  -->
<svg version="1.1" id="圖層_1" xmlns="http://www.w3.org/2000/svg" xmlns:xlink="http://www.w3.org/1999/xlink" x="0px" y="0px"
	 viewBox="0 0 350.79 555.9" style="enable-background:new 0 0 350.79 555.9;" xml:space="preserve">
<style type="text/css">
	.st0{fill:#FFFFFF;}
	.st1{fill:#D2D2D3;}
	.st2{fill:#EFECEA;}
	.st3{fill:#FF8728;}
	.st4{fill:#969696;}
	.st5{clip-path:url(#SVGID_2_);}
	.st6{fill:none;}
	.st7{clip-path:url(#SVGID_4_);}
	.st8{clip-path:url(#SVGID_6_);}
	.st9{clip-path:url(#SVGID_8_);}
	.st10{clip-path:url(#SVGID_10_);}
	.st11{clip-path:url(#SVGID_12_);}
	.st12{clip-path:url(#SVGID_14_);}
	.st13{clip-path:url(#SVGID_16_);}
	.st14{clip-path:url(#SVGID_18_);}
	.st15{clip-path:url(#SVGID_20_);}
	.st16{clip-path:url(#SVGID_22_);}
	.st17{clip-path:url(#SVGID_24_);}
	.st18{clip-path:url(#SVGID_26_);}
	.st19{clip-path:url(#SVGID_28_);}
	.st20{clip-path:url(#SVGID_30_);}
	.st21{clip-path:url(#SVGID_32_);}
	.st22{fill:#5A5A5A;}
</style>
<g>
	<g>
		<polyline class="st0" points="124.56,5.9 350.79,5.9 350.79,555.9 0.79,555.9 0.79,132.51 		"/>
	</g>
	<g>
		<polygon class="st1" points="341.79,296.9 9.79,296.9 9.79,122.43 11.79,122.43 11.79,294.9 339.79,294.9 339.79,16.9 
			117.45,16.9 117.45,14.9 341.79,14.9 		"/>
	</g>
	<g id="XMLID_339_">
		<path id="XMLID_1319_" class="st2" d="M114.56,111.54l10.44,85.58c0,0,35.84-6.86,50.8,16.01v-84.6
			C175.79,128.52,149.35,107.94,114.56,111.54z"/>
		<path id="XMLID_1029_" class="st3" d="M226.59,197.12l10.44-85.58c-34.79-3.59-61.23,16.98-61.24,16.99l0,0v84.6v0
			C190.75,190.26,226.59,197.12,226.59,197.12z"/>
		<path id="XMLID_1026_" class="st1" d="M172.86,228.75c-11.09-13.52-33.3-15.54-45.55-15.54c-8.47,0-14.6,0.91-14.66,0.92
			l-3.79,0.57l-12.24-80.04c-2.94,0.05-5.93,0.18-8.96,0.39l15.02,85.58c0,0,51.58-6.86,73.11,16.01v-4.33L172.86,228.75z"/>
		<path id="XMLID_1025_" class="st2" d="M254.96,134.67l-12.24,80.04l-3.79-0.57c-0.06-0.01-6.19-0.92-14.66-0.92
			c-12.25,0-34.46,2.02-45.55,15.54l-2.93,3.57v4.33l0,0c21.53-22.86,73.11-16.01,73.11-16.01l15.02-85.58
			C260.89,134.84,257.9,134.72,254.96,134.67z"/>
		<path id="XMLID_1024_" class="st1" d="M172.59,215.63c-8.2-12.54-23.82-15.17-35.47-15.17c-6.62,0-11.41,0.89-11.46,0.9
			l-4.03,0.76l-0.54-4.44l-9-73.78c-4.23-0.09-8.59,0.01-13.07,0.38l13.09,85.58c0,0,44.93-6.86,63.68,16.01v-5.35L172.59,215.63z"
			/>
		<path id="XMLID_619_" class="st2" d="M239.48,209.87l13.09-85.58c-4.48-0.37-8.84-0.47-13.07-0.38l-9.54,78.23l-4.03-0.77
			c-0.04-0.01-4.83-0.9-11.45-0.9c-11.65,0-27.27,2.63-35.47,15.17l-3.2,4.89v5.35l0,0C194.55,203.01,239.48,209.87,239.48,209.87z"
			/>
	</g>
	<g>
		<path class="st0" d="M106.74,150.09c-15.64,0-28.65-12.72-29.01-28.36c-0.36-16,12.36-29.31,28.36-29.68
			c0.22-0.01,0.45-0.01,0.67-0.01c15.64,0,28.65,12.72,29.01,28.36c0.18,7.75-2.68,15.11-8.03,20.71
			c-5.36,5.61-12.57,8.79-20.32,8.96C107.18,150.09,106.96,150.09,106.74,150.09z"/>
		<g>
			<path class="st1" d="M106.73,146.95c-6.69,0-13.01-2.53-17.86-7.17c-5-4.78-7.84-11.21-7.99-18.12
				c-0.16-6.91,2.39-13.47,7.16-18.47c4.77-5,11.21-7.84,18.12-7.99c6.94-0.16,13.47,2.39,18.47,7.16s7.84,11.21,7.99,18.12l0,0
				c0.16,6.91-2.39,13.47-7.16,18.47c-4.78,5-11.21,7.84-18.12,7.99C107.14,146.95,106.93,146.95,106.73,146.95z M106.76,97.19
				c-0.19,0-0.37,0-0.56,0.01c-6.38,0.15-12.31,2.76-16.72,7.38s-6.75,10.66-6.61,17.04c0.15,6.38,2.76,12.31,7.38,16.72
				c4.61,4.41,10.69,6.74,17.04,6.61c6.38-0.15,12.31-2.76,16.72-7.38s6.75-10.66,6.61-17.04l0,0c-0.15-6.38-2.76-12.31-7.38-16.72
				C118.77,99.53,112.93,97.19,106.76,97.19z"/>
		</g>
		<g>
			<g>
				<path class="st4" d="M100.56,124.98l-5.54-7.9l3.61-0.08l3.88,5.96l5.65,8.02l-3.59,0.08L100.56,124.98z M100.14,123.33
					l1.84,2.53l-3.32,5.34l-3.53,0.08L100.14,123.33z M101.26,121.97l2.76-5.1l3.61-0.08l-4.62,7.76L101.26,121.97z"/>
				<path class="st4" d="M116.49,130.79l-3.27,0.07l-0.37-16.16l-2.59,1.39l-0.08-3.43l2.86-1.68l2.99-0.07L116.49,130.79z"/>
			</g>
		</g>
	</g>
	<rect x="10.79" y="305.9" class="st0" width="330" height="130"/>
	<g>
		<g>
			<g>
				<path class="st4" d="M102.67,354.17c-1.28-0.6-2.29-1.47-3.06-2.63s-1.21-2.53-1.36-4.13h4.79c0.1,0.7,0.32,1.29,0.64,1.75
					c0.33,0.46,0.75,0.81,1.27,1.04c0.52,0.23,1.13,0.35,1.82,0.35c1.17,0,2.08-0.32,2.71-0.95c0.64-0.63,0.96-1.53,0.96-2.69v-0.76
					c0-1.25-0.28-2.22-0.85-2.9s-1.38-1.03-2.43-1.03h-2.21v-4.45h2.21c0.9,0,1.59-0.3,2.08-0.89s0.73-1.42,0.73-2.49v-0.68
					c0-1-0.26-1.77-0.79-2.31s-1.27-0.81-2.24-0.81c-0.59,0-1.11,0.12-1.57,0.37c-0.46,0.25-0.86,0.62-1.18,1.12
					c-0.33,0.5-0.56,1.12-0.7,1.85h-4.77c0.21-1.64,0.69-3.05,1.44-4.24c0.75-1.18,1.71-2.08,2.89-2.7
					c1.18-0.61,2.51-0.92,3.99-0.92c2.47,0,4.39,0.64,5.75,1.93c1.36,1.29,2.04,3.11,2.04,5.45v0.66c0,1.37-0.36,2.56-1.07,3.57
					c-0.72,1.02-1.73,1.76-3.05,2.25c1.46,0.33,2.59,1.06,3.39,2.22s1.2,2.62,1.2,4.4v0.66c0,1.65-0.32,3.07-0.97,4.24
					s-1.59,2.06-2.82,2.68c-1.24,0.61-2.72,0.92-4.45,0.92C105.41,355.06,103.94,354.76,102.67,354.17z"/>
				<path class="st4" d="M120.83,350.01h4.77v6.66l-4.77,4.73V350.01z"/>
				<path class="st4" d="M132.27,352.94c-1.41-1.42-2.12-3.4-2.12-5.94v-12.91c0-2.55,0.71-4.53,2.13-5.95
					c1.42-1.41,3.48-2.12,6.17-2.12c2.71,0,4.77,0.7,6.18,2.11c1.41,1.41,2.12,3.39,2.12,5.96V347c0,2.55-0.71,4.53-2.13,5.95
					c-1.42,1.41-3.48,2.12-6.17,2.12C135.74,355.06,133.68,354.35,132.27,352.94z M141.2,349.49c0.59-0.74,0.88-1.79,0.88-3.17
					v-11.54c0-1.38-0.29-2.44-0.88-3.17s-1.5-1.1-2.75-1.1s-2.17,0.37-2.75,1.1s-0.88,1.79-0.88,3.17v11.54
					c0,1.38,0.29,2.44,0.88,3.17s1.5,1.1,2.75,1.1S140.62,350.22,141.2,349.49z"/>
				<path class="st4" d="M154.4,352.94c-1.41-1.42-2.12-3.4-2.12-5.94v-12.91c0-2.55,0.71-4.53,2.13-5.95
					c1.42-1.41,3.48-2.12,6.17-2.12c2.71,0,4.77,0.7,6.18,2.11c1.41,1.41,2.12,3.39,2.12,5.96V347c0,2.55-0.71,4.53-2.13,5.95
					c-1.42,1.41-3.48,2.12-6.17,2.12C157.87,355.06,155.81,354.35,154.4,352.94z M163.33,349.49c0.59-0.74,0.88-1.79,0.88-3.17
					v-11.54c0-1.38-0.29-2.44-0.88-3.17s-1.5-1.1-2.75-1.1s-2.17,0.37-2.75,1.1s-0.88,1.79-0.88,3.17v11.54
					c0,1.38,0.29,2.44,0.88,3.17s1.5,1.1,2.75,1.1S162.75,350.22,163.33,349.49z"/>
				<path class="st4" d="M176.53,352.94c-1.41-1.42-2.12-3.4-2.12-5.94v-12.91c0-2.55,0.71-4.53,2.13-5.95
					c1.42-1.41,3.48-2.12,6.17-2.12c2.71,0,4.77,0.7,6.18,2.11c1.41,1.41,2.12,3.39,2.12,5.96V347c0,2.55-0.71,4.53-2.13,5.95
					c-1.42,1.41-3.48,2.12-6.17,2.12C180,355.06,177.94,354.35,176.53,352.94z M185.46,349.49c0.59-0.74,0.88-1.79,0.88-3.17v-11.54
					c0-1.38-0.29-2.44-0.88-3.17s-1.5-1.1-2.75-1.1s-2.17,0.37-2.75,1.1s-0.88,1.79-0.88,3.17v11.54c0,1.38,0.29,2.44,0.88,3.17
					s1.5,1.1,2.75,1.1S184.88,350.22,185.46,349.49z"/>
			</g>
			<g>
				<path class="st4" d="M213.78,354.36c0.59,0,0.69-0.42,0.75-2.79c0.35,0.27,0.99,0.53,1.39,0.64c-0.16,2.77-0.54,3.55-2.03,3.55
					h-2.13c-1.58,0-2-0.5-2-2.06v-5.35h-2.74c-0.29,3.38-1.01,6.15-4.77,7.65c-0.16-0.38-0.59-0.91-0.93-1.2
					c3.35-1.25,3.89-3.63,4.11-6.45h-3.86v-1.44h14.07v1.44h-4.35v5.33c0,0.58,0.1,0.67,0.67,0.67H213.78z M214.26,343.97H203v-1.44
					h11.27V343.97z"/>
				<path class="st4" d="M221.57,342h1.28l-4.45,15.65h-1.28L221.57,342z"/>
				<path class="st4" d="M227.92,344.22c-0.77,1.22-1.63,2.34-2.46,3.19c-0.29-0.26-0.94-0.69-1.33-0.88
					c1.47-1.25,2.83-3.28,3.67-5.27l1.49,0.43c-0.18,0.38-0.37,0.78-0.59,1.18h9.57v1.34H227.92z M236.52,350.45
					c-0.05,0.86-0.1,1.58-0.16,2.19h1.86v1.3h-2.02c-0.11,0.74-0.26,1.17-0.45,1.43c-0.3,0.45-0.69,0.59-1.2,0.66
					c-0.5,0.05-1.3,0.05-2.08,0c-0.02-0.35-0.16-0.85-0.35-1.19c0.77,0.06,1.44,0.08,1.76,0.08c0.27,0,0.42-0.05,0.58-0.24
					c0.1-0.13,0.19-0.35,0.27-0.74h-8.88c0.21-0.96,0.4-2.19,0.59-3.49h-2.22v-1.35h2.43c0.16-1.2,0.3-2.4,0.4-3.44h9.64
					c0,0-0.02,0.48-0.02,0.67c-0.03,1.04-0.06,1.95-0.1,2.77h2.26v1.35H236.52z M227.94,350.4c-0.11,0.8-0.22,1.55-0.32,2.24h4.31
					c-0.64-0.54-1.62-1.18-2.46-1.6l0.66-0.64H227.94z M228.4,346.96c-0.1,0.71-0.19,1.46-0.29,2.19h4.1
					c-0.64-0.53-1.58-1.12-2.42-1.52l0.7-0.67H228.4z M234.9,352.64c0.06-0.59,0.11-1.33,0.16-2.24h-4.43
					c0.94,0.46,1.95,1.14,2.51,1.67l-0.56,0.58H234.9z M235.11,349.15c0.02-0.66,0.05-1.39,0.06-2.19h-4.27
					c0.91,0.43,1.94,1.04,2.46,1.57l-0.61,0.63H235.11z"/>
				<path class="st4" d="M255.06,352.5h-5.62v3.54h-1.54v-3.54h-7.28v-1.44h2.58v-4.23h4.71v-2.21h-3.67
					c-0.69,1.18-1.49,2.24-2.3,3.04c-0.29-0.26-0.93-0.74-1.3-0.96c1.47-1.26,2.75-3.3,3.49-5.43l1.5,0.4
					c-0.19,0.5-0.42,1.02-0.63,1.5h9.27v1.44h-4.83v2.21h4.47v1.39h-4.47v2.83h5.62V352.5z M247.91,351.06v-2.83h-3.22v2.83H247.91z
					"/>
			</g>
		</g>
		<g>
			<g>
				<path class="st4" d="M98.71,399.35l9.82-13.01c0.51-0.66,0.9-1.35,1.18-2.06c0.28-0.71,0.42-1.37,0.42-1.98v-0.04
					c0-0.95-0.29-1.69-0.87-2.21c-0.58-0.52-1.4-0.78-2.47-0.78c-1.03,0-1.86,0.32-2.49,0.95c-0.63,0.63-1.01,1.53-1.14,2.69v0.02
					h-4.8v-0.02c0.18-1.71,0.64-3.16,1.37-4.38c0.73-1.21,1.69-2.14,2.89-2.77c1.2-0.64,2.58-0.96,4.14-0.96
					c1.73,0,3.21,0.29,4.43,0.87c1.22,0.58,2.16,1.42,2.8,2.53c0.64,1.11,0.97,2.44,0.97,4v0.02c0,1.15-0.22,2.31-0.65,3.49
					c-0.44,1.18-1.04,2.28-1.81,3.31l-7.62,10h10.23v4.47H98.71V399.35z"/>
				<path class="st4" d="M120.06,398.73h4.77v6.66l-4.77,4.73V398.73z"/>
				<path class="st4" d="M134.72,402.87c-1.17-0.61-2.11-1.51-2.82-2.69c-0.72-1.18-1.17-2.58-1.35-4.21v-0.02h4.67v0.02
					c0.12,1.04,0.48,1.85,1.09,2.43c0.61,0.58,1.41,0.87,2.4,0.87c1.11,0,1.96-0.37,2.57-1.09c0.61-0.73,0.91-1.76,0.91-3.11v-2.38
					c0-1.33-0.29-2.36-0.87-3.09c-0.58-0.73-1.4-1.09-2.45-1.09c-0.73,0-1.39,0.2-1.98,0.59c-0.59,0.39-1.06,0.94-1.4,1.64h-4.32
					v-15.64h14.86v4.47h-10.2v5.7c0.44-0.4,0.99-0.72,1.65-0.94c0.66-0.22,1.32-0.33,1.98-0.33c1.55,0,2.88,0.34,3.98,1.02
					c1.11,0.68,1.95,1.67,2.53,2.97c0.58,1.3,0.87,2.87,0.87,4.71v2.38c0,1.84-0.32,3.4-0.97,4.71c-0.64,1.3-1.58,2.29-2.8,2.98
					c-1.22,0.68-2.7,1.03-4.41,1.03C137.2,403.79,135.88,403.48,134.72,402.87z"/>
				<path class="st4" d="M155.28,401.66c-1.41-1.42-2.12-3.4-2.12-5.94v-12.91c0-2.55,0.71-4.54,2.13-5.95
					c1.42-1.41,3.48-2.12,6.17-2.12c2.71,0,4.77,0.7,6.18,2.11c1.41,1.41,2.12,3.39,2.12,5.96v12.91c0,2.55-0.71,4.53-2.13,5.95
					c-1.42,1.41-3.48,2.12-6.17,2.12C158.76,403.79,156.7,403.08,155.28,401.66z M164.22,398.21c0.59-0.74,0.88-1.79,0.88-3.17
					v-11.54c0-1.38-0.29-2.44-0.88-3.17c-0.59-0.74-1.5-1.1-2.75-1.1s-2.17,0.37-2.75,1.1c-0.59,0.74-0.88,1.79-0.88,3.17v11.54
					c0,1.38,0.29,2.44,0.88,3.17c0.59,0.74,1.5,1.1,2.75,1.1S163.63,398.95,164.22,398.21z"/>
				<path class="st4" d="M177.41,401.66c-1.41-1.42-2.12-3.4-2.12-5.94v-12.91c0-2.55,0.71-4.54,2.13-5.95
					c1.42-1.41,3.48-2.12,6.17-2.12c2.71,0,4.77,0.7,6.18,2.11c1.41,1.41,2.12,3.39,2.12,5.96v12.91c0,2.55-0.71,4.53-2.13,5.95
					c-1.42,1.41-3.48,2.12-6.17,2.12C180.89,403.79,178.83,403.08,177.41,401.66z M186.35,398.21c0.59-0.74,0.88-1.79,0.88-3.17
					v-11.54c0-1.38-0.29-2.44-0.88-3.17c-0.59-0.74-1.5-1.1-2.75-1.1s-2.17,0.37-2.75,1.1c-0.59,0.74-0.88,1.79-0.88,3.17v11.54
					c0,1.38,0.29,2.44,0.88,3.17c0.59,0.74,1.5,1.1,2.75,1.1S185.76,398.95,186.35,398.21z"/>
			</g>
			<g>
				<path class="st4" d="M214.08,403.08c0.59,0,0.69-0.42,0.75-2.79c0.35,0.27,0.99,0.53,1.39,0.64c-0.16,2.77-0.54,3.55-2.03,3.55
					h-2.13c-1.58,0-2-0.5-2-2.06v-5.35h-2.74c-0.29,3.38-1.01,6.15-4.77,7.65c-0.16-0.38-0.59-0.91-0.93-1.2
					c3.35-1.25,3.89-3.63,4.11-6.45h-3.86v-1.44h14.07v1.44h-4.35v5.33c0,0.58,0.1,0.67,0.67,0.67H214.08z M214.56,392.69H203.3
					v-1.44h11.27V392.69z"/>
				<path class="st4" d="M221.87,390.72h1.28l-4.45,15.65h-1.28L221.87,390.72z"/>
				<path class="st4" d="M228.22,392.94c-0.77,1.22-1.63,2.34-2.46,3.19c-0.29-0.26-0.94-0.69-1.33-0.88
					c1.47-1.25,2.83-3.28,3.67-5.27l1.49,0.43c-0.18,0.38-0.37,0.78-0.59,1.18h9.57v1.34H228.22z M236.82,399.17
					c-0.05,0.86-0.1,1.58-0.16,2.19h1.86v1.3h-2.02c-0.11,0.74-0.26,1.17-0.45,1.43c-0.3,0.45-0.69,0.59-1.2,0.66
					c-0.5,0.05-1.3,0.05-2.08,0c-0.02-0.35-0.16-0.85-0.35-1.19c0.77,0.06,1.44,0.08,1.76,0.08c0.27,0,0.42-0.05,0.58-0.24
					c0.1-0.13,0.19-0.35,0.27-0.74h-8.88c0.21-0.96,0.4-2.19,0.59-3.49h-2.22v-1.35h2.43c0.16-1.2,0.3-2.4,0.4-3.44h9.64
					c0,0-0.02,0.48-0.02,0.67c-0.03,1.04-0.06,1.95-0.1,2.77h2.26v1.35H236.82z M228.24,399.12c-0.11,0.8-0.22,1.55-0.32,2.24h4.31
					c-0.64-0.54-1.62-1.18-2.46-1.6l0.66-0.64H228.24z M228.71,395.68c-0.1,0.71-0.19,1.46-0.29,2.19h4.1
					c-0.64-0.53-1.58-1.12-2.42-1.52l0.7-0.67H228.71z M235.2,401.36c0.06-0.59,0.11-1.33,0.16-2.24h-4.43
					c0.94,0.46,1.95,1.14,2.51,1.67l-0.56,0.58H235.2z M235.41,397.87c0.02-0.66,0.05-1.39,0.06-2.19h-4.27
					c0.91,0.43,1.94,1.04,2.46,1.57l-0.61,0.63H235.41z"/>
				<path class="st4" d="M255.37,401.22h-5.62v3.54h-1.54v-3.54h-7.28v-1.44h2.58v-4.23h4.71v-2.21h-3.67
					c-0.69,1.18-1.49,2.24-2.3,3.04c-0.29-0.26-0.93-0.74-1.3-0.96c1.47-1.26,2.75-3.3,3.49-5.43l1.5,0.4
					c-0.19,0.5-0.42,1.02-0.63,1.5h9.27v1.44h-4.83v2.21h4.47v1.39h-4.47v2.83h5.62V401.22z M248.21,399.78v-2.83h-3.22v2.83H248.21
					z"/>
			</g>
			<g>
				<g>
					<path class="st4" d="M132.71,419.51c0-2.59,1.02-4.79,2.8-6.63l0.55,0.34c-1.72,1.76-2.66,3.91-2.66,6.29s0.94,4.52,2.66,6.29
						l-0.55,0.34C133.73,424.3,132.71,422.1,132.71,419.51z"/>
					<path class="st4" d="M141.67,413.23h0.66v6.51c0,1.82-0.46,4.72-3.81,6.26c-0.11-0.15-0.34-0.39-0.49-0.53
						c1.95-0.81,2.87-2.17,3.29-3.46c-1.36,0.28-2.69,0.55-3.73,0.76l-0.17-0.67c1.04-0.17,2.54-0.45,4.08-0.74
						c0.14-0.62,0.17-1.16,0.17-1.61v-0.59h-3.73v-0.63h3.73v-2.44h-3.96v-0.64h3.96V413.23z M149.82,422.35h-4.41v3.5h-0.66v-12.62
						h0.66v2.23h4.17v0.64h-4.17v2.44h3.89v0.63h-3.89v2.55h4.41V422.35z"/>
					<path class="st4" d="M156.72,417.38c-0.48-0.37-1.34-0.97-2.11-1.44c-0.5,0.76-1.34,1.26-2.75,1.6
						c-0.07-0.15-0.24-0.39-0.36-0.5c2.48-0.55,3.05-1.57,3.19-3.85h0.62c-0.06,0.91-0.18,1.65-0.43,2.26
						c0.78,0.48,1.75,1.11,2.28,1.5L156.72,417.38z M153.1,415.31c-0.24-0.36-0.7-0.97-1.09-1.4l0.41-0.31
						c0.41,0.42,0.9,1.01,1.12,1.34L153.1,415.31z M152.08,417.69h11.49v2.42h-0.67v-1.83h-10.17v1.83h-0.64V417.69z M157.32,421.72
						c-0.15,0.32-0.32,0.67-0.45,0.97h5.81v3.17h-0.66v-0.43h-8.18v0.45h-0.64v-3.18h3.05c0.13-0.28,0.27-0.64,0.39-0.97h-2.56
						v-2.51h7.54v2.51H157.32z M162.03,423.25h-8.18v1.61h8.18V423.25z M154.73,421.19h6.23v-1.44h-6.23V421.19z M157.52,414.16
						c-0.41,0.5-0.88,1.05-1.25,1.39l-0.45-0.22c0.38-0.39,0.87-1.02,1.12-1.43L157.52,414.16z M163.32,417.66
						c-0.64-0.49-1.83-1.23-2.89-1.79c-0.5,0.73-1.3,1.22-2.61,1.55c-0.07-0.13-0.24-0.38-0.38-0.5c2.34-0.57,2.93-1.63,3.08-3.74
						h0.64c-0.07,0.87-0.21,1.58-0.46,2.17c1.05,0.55,2.34,1.32,3.01,1.83L163.32,417.66z M159.04,415.19
						c-0.24-0.38-0.71-0.98-1.09-1.41l0.42-0.31c0.41,0.43,0.87,1.01,1.11,1.34L159.04,415.19z M163.64,414.13
						c-0.45,0.52-0.98,1.08-1.4,1.46l-0.45-0.25c0.42-0.39,0.97-1.05,1.26-1.49L163.64,414.13z"/>
					<path class="st4" d="M169.71,417.41h3.12v0.64h-3.12v0.31c0.64,0.62,2.42,2.51,2.87,2.98l-0.41,0.53
						c-0.48-0.57-1.68-1.91-2.46-2.73v6.7h-0.67v-6.71c-0.78,1.81-1.92,3.66-2.98,4.68c-0.1-0.18-0.27-0.45-0.41-0.6
						c1.16-1.11,2.52-3.24,3.24-5.15h-2.96v-0.64h3.11v-2.75c-0.98,0.18-1.99,0.34-2.93,0.45c-0.03-0.15-0.13-0.39-0.2-0.55
						c2.07-0.27,4.61-0.74,5.9-1.3l0.52,0.52c-0.7,0.28-1.61,0.53-2.62,0.74V417.41z M174.74,422.44h-0.66v-7.63h0.66V422.44z
						 M177.74,413.29v11.47c0,0.56-0.2,0.77-0.55,0.9c-0.39,0.11-1.08,0.13-2.37,0.13c-0.04-0.18-0.15-0.48-0.27-0.67
						c1.02,0.03,1.9,0.01,2.14,0.01c0.27-0.03,0.38-0.1,0.38-0.36v-11.47H177.74z"/>
					<path class="st4" d="M187.53,413.82h0.67l-4.62,13.49h-0.66L187.53,413.82z"/>
					<path class="st4" d="M199.31,421.96c-0.99,0.14-2,0.31-2.97,0.48v2.61c0,0.42-0.08,0.59-0.41,0.71
						c-0.32,0.11-0.9,0.11-1.81,0.11c-0.03-0.2-0.13-0.42-0.22-0.62c0.77,0.03,1.37,0.01,1.56,0c0.2-0.01,0.24-0.06,0.24-0.21v-2.51
						c-1.08,0.17-2.07,0.34-2.89,0.46l-0.11-0.63c0.81-0.13,1.86-0.28,3-0.45v-1.08c0.64-0.34,1.36-0.88,1.88-1.4h-2.69
						c-0.56,0.45-1.15,0.87-1.77,1.22c-0.11-0.13-0.35-0.36-0.52-0.5c1.22-0.66,2.33-1.51,3.28-2.52h-3.22v-0.62h2.61v-1.65h-2
						v-0.62h2v-1.58h0.64v1.58h1.54v0.62h-1.54v1.65h0.52c0.85-1.05,1.57-2.23,2.12-3.53l0.64,0.2c-0.52,1.23-1.16,2.34-1.93,3.33
						h2.16v0.62h-2.66c-0.36,0.43-0.76,0.84-1.18,1.22h2.58l0.13-0.04l0.43,0.31c-0.63,0.71-1.54,1.44-2.37,1.95v0.76l2.96-0.48
						L199.31,421.96z M204.42,416.43c-0.36,2.37-0.92,4.27-1.82,5.81c0.73,1.33,1.65,2.4,2.84,3.03c-0.17,0.13-0.38,0.36-0.49,0.56
						c-1.13-0.67-2.05-1.67-2.77-2.94c-0.84,1.26-1.97,2.23-3.45,3.01c-0.07-0.15-0.29-0.45-0.43-0.59
						c1.56-0.76,2.69-1.78,3.53-3.11c-0.64-1.32-1.11-2.87-1.46-4.57c-0.32,0.8-0.71,1.51-1.12,2.12c-0.13-0.13-0.42-0.35-0.57-0.45
						c1.09-1.46,1.85-3.75,2.27-6.13l0.69,0.11c-0.15,0.87-0.36,1.72-0.62,2.52h4.34v0.63H204.42z M200.79,416.51
						c0.29,1.85,0.76,3.56,1.43,5c0.73-1.39,1.2-3.07,1.5-5.08h-2.91L200.79,416.51z"/>
					<path class="st4" d="M211.99,415.25c-0.74,0.76-1.5,1.43-2.24,2.02l6.72-0.32c-0.56-0.48-1.18-0.92-1.74-1.32l0.52-0.34
						c1.25,0.83,2.75,2.03,3.49,2.86l-0.56,0.42c-0.25-0.31-0.64-0.69-1.09-1.08c-7.4,0.39-8.03,0.43-8.42,0.57
						c-0.04-0.15-0.14-0.49-0.22-0.69c0.28-0.04,0.67-0.34,1.15-0.74c0.28-0.21,0.84-0.73,1.51-1.39h-3.88v-0.62h4.47
						c0.49-0.52,1-1.08,1.43-1.65l0.66,0.32c-0.39,0.45-0.8,0.91-1.19,1.33h6.82v0.62H211.99z M217.78,424.99
						c0,0.46-0.13,0.66-0.5,0.77c-0.38,0.1-1.09,0.1-2.24,0.1c-0.03-0.18-0.14-0.42-0.22-0.62c0.92,0.04,1.75,0.04,1.96,0.03
						c0.24-0.01,0.31-0.08,0.31-0.29v-2.26c-2.33,0.49-4.76,0.95-6.53,1.29l-0.27-0.66c1.68-0.25,4.3-0.7,6.79-1.16v-2.86h-7.38
						v2.07c0,1.42-0.25,3.25-1.67,4.53c-0.08-0.14-0.35-0.38-0.5-0.45c1.33-1.19,1.51-2.8,1.51-4.09v-2.66h8.74V424.99z
						 M215.58,422.04c-1.22-0.53-3.53-1.15-5.35-1.44l0.21-0.48c1.82,0.27,4.12,0.84,5.35,1.36L215.58,422.04z"/>
					<path class="st4" d="M224.43,420.41c-0.15-0.38-0.53-1.16-0.85-1.81v7.24h-0.62v-7.37c-0.39,1.67-0.95,3.35-1.51,4.31
						c-0.08-0.2-0.24-0.49-0.36-0.66c0.71-1.22,1.46-3.57,1.81-5.57h-1.54v-0.64h1.61v-2.75h0.62v2.75h1.22v0.64h-1.22v1.11
						c0.34,0.52,1.05,1.84,1.23,2.19L224.43,420.41z M232.9,421.5c-0.43,0.88-1.06,1.67-1.83,2.35c0.48,0.8,1.06,1.26,1.79,1.32
						c0.31,0.03,0.5-0.52,0.63-1.55c0.14,0.13,0.35,0.28,0.5,0.32c-0.24,1.43-0.57,1.95-1.11,1.92c-0.98-0.06-1.72-0.63-2.32-1.6
						c-0.76,0.59-1.64,1.11-2.61,1.5c-0.1-0.13-0.25-0.31-0.39-0.42c1.02-0.42,1.96-0.95,2.75-1.6c-0.38-0.74-0.64-1.68-0.87-2.76
						h-2.55v0.5v0.15c0.73,0.56,1.58,1.32,2.03,1.79l-0.45,0.43c-0.36-0.42-1.01-1.04-1.64-1.56c-0.18,1.18-0.74,2.52-2.14,3.57
						c-0.1-0.14-0.31-0.36-0.45-0.45c1.65-1.19,2.05-2.77,2.05-3.98v-0.48h-1.21v-0.57h4.24c-0.36-2-0.53-4.46-0.63-7.14h0.6
						c0.07,2.75,0.27,5.2,0.63,7.14h3.67v0.57h-3.56c0.21,0.91,0.46,1.71,0.74,2.34c0.63-0.6,1.16-1.29,1.5-2.03L232.9,421.5z
						 M228.25,419.52c-0.04-0.18-0.11-0.41-0.2-0.64c-2.2,0.32-2.52,0.37-2.7,0.48c-0.03-0.11-0.08-0.43-0.17-0.59
						c0.2-0.03,0.45-0.28,0.73-0.62c0.15-0.2,0.6-0.74,1.05-1.43c-1.33,0.2-1.58,0.25-1.71,0.34c-0.03-0.13-0.13-0.43-0.18-0.59
						c0.17-0.03,0.34-0.22,0.53-0.5c0.21-0.29,0.92-1.43,1.33-2.52l0.55,0.21c-0.46,0.98-0.99,1.93-1.53,2.66l1.36-0.14
						c0.2-0.34,0.39-0.66,0.55-0.99l0.53,0.24c-0.7,1.18-1.47,2.31-2.24,3.18l1.74-0.21c-0.13-0.36-0.28-0.71-0.43-1.04l0.48-0.14
						c0.35,0.69,0.69,1.58,0.83,2.12L228.25,419.52z M233.2,419.24c-0.04-0.18-0.11-0.42-0.2-0.67c-2.24,0.32-2.54,0.38-2.72,0.49
						c-0.04-0.14-0.14-0.46-0.21-0.63c0.21-0.03,0.43-0.27,0.7-0.63c0.17-0.18,0.56-0.73,0.97-1.39c-1.22,0.17-1.47,0.25-1.61,0.32
						c-0.03-0.13-0.11-0.43-0.18-0.57c0.17-0.03,0.31-0.21,0.49-0.46c0.17-0.25,0.78-1.3,1.11-2.27l0.55,0.2
						c-0.38,0.87-0.83,1.72-1.29,2.38l1.29-0.15c0.18-0.32,0.36-0.69,0.53-1.02l0.56,0.24c-0.64,1.18-1.4,2.35-2.14,3.24l1.78-0.24
						c-0.14-0.35-0.28-0.7-0.43-1.01l0.46-0.13c0.35,0.67,0.71,1.57,0.85,2.1L233.2,419.24z M231.19,418.96
						c0.55,0.28,1.23,0.71,1.58,1.02l-0.36,0.42c-0.34-0.32-1.01-0.77-1.58-1.09L231.19,418.96z"/>
					<path class="st4" d="M239.71,420.99c-0.21-0.43-0.83-1.4-1.27-2.1v6.93h-0.64v-7.26c-0.52,1.74-1.25,3.52-1.96,4.54
						c-0.1-0.17-0.28-0.43-0.42-0.56c0.91-1.22,1.85-3.6,2.28-5.64h-2v-0.63h2.1v-3.11h0.64v3.11h1.72v0.63h-1.72v1.16
						c0.39,0.49,1.44,2.03,1.7,2.41L239.71,420.99z M248.39,423.5h-0.97v1.53c0,0.41-0.1,0.6-0.41,0.71c-0.32,0.1-0.9,0.1-1.83,0.1
						c-0.04-0.15-0.14-0.41-0.22-0.59c0.76,0.03,1.39,0.01,1.58,0.01c0.18-0.01,0.24-0.07,0.24-0.22v-1.54h-5.29v2.34h-0.64v-2.34
						h-1.01v-0.56h1.01v-3.56h2.9v-1.02h-3.67v-0.57h2.07v-1.16h-1.46v-0.55h1.46v-1.13h-1.71v-0.56h1.71v-1.22h0.63v1.22h2.67
						v-1.22h0.64v1.22h1.83v0.56h-1.83v1.13h1.64v0.55h-1.64v1.16h2.14v0.57h-3.87v1.02h3.05v3.56h0.97V423.5z M241.49,419.94v1.19
						h2.25v-1.19H241.49z M241.49,422.94h2.25v-1.26h-2.25V422.94z M242.78,416.08h2.67v-1.13h-2.67V416.08z M242.78,417.79h2.67
						v-1.16h-2.67V417.79z M244.37,419.94v1.19h2.41v-1.19H244.37z M246.78,422.94v-1.26h-2.41v1.26H246.78z"/>
					<path class="st4" d="M252.67,419.51c0,2.59-1.02,4.79-2.8,6.63l-0.55-0.34c1.72-1.76,2.66-3.91,2.66-6.29s-0.94-4.52-2.66-6.29
						l0.55-0.34C251.65,414.72,252.67,416.92,252.67,419.51z"/>
				</g>
			</g>
		</g>
	</g>
	<rect x="10.79" y="446.18" class="st1" width="330" height="100"/>
	<g>
		<g>
			<defs>
				<rect id="SVGID_1_" x="10.79" y="496.18" width="165" height="50"/>
			</defs>
			<clipPath id="SVGID_2_">
				<use xlink:href="#SVGID_1_"  style="overflow:visible;"/>
			</clipPath>
			<g class="st5">
				<rect x="165.29" y="455.88" class="st6" width="33.24" height="44.15"/>
				<g>
					<rect x="165.55" y="466.79" class="st2" width="32.72" height="0.52"/>
				</g>
				<g>
					<rect x="165.55" y="477.69" class="st2" width="32.72" height="0.52"/>
				</g>
				<g>
					<rect x="165.55" y="488.6" class="st2" width="32.72" height="0.52"/>
				</g>
				<g>
					<rect x="187.11" y="456.14" class="st2" width="0.52" height="43.63"/>
				</g>
				<g>
					<rect x="176.2" y="456.14" class="st2" width="0.52" height="43.63"/>
				</g>
				<g>
					<path class="st2" d="M198.54,500.03h-33.24v-44.15h33.24V500.03z M165.82,499.51h32.2v-43.1h-32.2V499.51z"/>
				</g>
			</g>
			<g class="st5">
				<rect x="165.29" y="500.03" class="st6" width="33.24" height="44.15"/>
				<g>
					<rect x="165.55" y="510.94" class="st2" width="32.72" height="0.52"/>
				</g>
				<g>
					<rect x="165.55" y="521.84" class="st2" width="32.72" height="0.52"/>
				</g>
				<g>
					<rect x="165.55" y="532.75" class="st2" width="32.72" height="0.52"/>
				</g>
				<g>
					<rect x="187.11" y="500.29" class="st2" width="0.52" height="43.63"/>
				</g>
				<g>
					<rect x="176.2" y="500.29" class="st2" width="0.52" height="43.63"/>
				</g>
				<g>
					<path class="st2" d="M198.54,544.18h-33.24v-44.15l33.24,0V544.18z M165.82,543.66h32.2v-43.1l-32.2,0V543.66z"/>
				</g>
			</g>
			<g class="st5">
				<rect x="165.29" y="544.18" class="st6" width="33.24" height="44.15"/>
				<g>
					<rect x="165.55" y="555.09" class="st2" width="32.72" height="0.52"/>
				</g>
				<g>
					<rect x="187.11" y="544.44" class="st2" width="0.52" height="43.63"/>
				</g>
				<g>
					<rect x="176.2" y="544.44" class="st2" width="0.52" height="43.63"/>
				</g>
				<g>
					<path class="st2" d="M198.54,588.33h-33.24v-44.15h33.24V588.33z M165.82,587.81h32.2v-43.1h-32.2V587.81z"/>
				</g>
			</g>
			<g class="st5">
				<rect x="132.05" y="455.88" class="st6" width="33.24" height="44.15"/>
				<g>
					<rect x="132.31" y="466.79" class="st2" width="32.72" height="0.52"/>
				</g>
				<g>
					<rect x="132.31" y="477.69" class="st2" width="32.72" height="0.52"/>
				</g>
				<g>
					<rect x="132.31" y="488.6" class="st2" width="32.72" height="0.52"/>
				</g>
				<g>
					<rect x="153.86" y="456.14" class="st2" width="0.52" height="43.63"/>
				</g>
				<g>
					<rect x="142.96" y="456.14" class="st2" width="0.52" height="43.63"/>
				</g>
				<g>
					<path class="st2" d="M165.29,500.03h-33.24v-44.15h33.24V500.03z M132.57,499.51h32.2v-43.1h-32.2V499.51z"/>
				</g>
			</g>
			<g class="st5">
				<rect x="132.05" y="500.03" class="st6" width="33.24" height="44.15"/>
				<g>
					<rect x="132.31" y="510.94" class="st2" width="32.72" height="0.52"/>
				</g>
				<g>
					<rect x="132.31" y="521.84" class="st2" width="32.72" height="0.52"/>
				</g>
				<g>
					<rect x="132.31" y="532.75" class="st2" width="32.72" height="0.52"/>
				</g>
				<g>
					<rect x="153.86" y="500.29" class="st2" width="0.52" height="43.63"/>
				</g>
				<g>
					<rect x="142.96" y="500.29" class="st2" width="0.52" height="43.63"/>
				</g>
				<g>
					<path class="st2" d="M165.29,544.18h-33.24v-44.15l33.24,0V544.18z M132.57,543.66h32.2v-43.1l-32.2,0V543.66z"/>
				</g>
			</g>
			<g class="st5">
				<rect x="132.05" y="544.18" class="st6" width="33.24" height="44.15"/>
				<g>
					<rect x="132.31" y="555.09" class="st2" width="32.72" height="0.52"/>
				</g>
				<g>
					<rect x="153.86" y="544.44" class="st2" width="0.52" height="43.63"/>
				</g>
				<g>
					<rect x="142.96" y="544.44" class="st2" width="0.52" height="43.63"/>
				</g>
				<g>
					<path class="st2" d="M165.29,588.33h-33.24v-44.15h33.24V588.33z M132.57,587.81h32.2v-43.1h-32.2V587.81z"/>
				</g>
			</g>
			<g class="st5">
				<g>
					<defs>
						<rect id="SVGID_3_" x="98.81" y="455.88" width="33.24" height="44.15"/>
					</defs>
					<clipPath id="SVGID_4_">
						<use xlink:href="#SVGID_3_"  style="overflow:visible;"/>
					</clipPath>
					<g class="st7">
						<rect x="99.07" y="466.79" class="st2" width="32.72" height="0.52"/>
					</g>
					<g class="st7">
						<rect x="99.07" y="477.69" class="st2" width="32.72" height="0.52"/>
					</g>
					<g class="st7">
						<rect x="99.07" y="488.6" class="st2" width="32.72" height="0.52"/>
					</g>
					<g class="st7">
						<rect x="120.62" y="456.14" class="st2" width="0.52" height="43.63"/>
					</g>
					<g class="st7">
						<rect x="109.71" y="456.14" class="st2" width="0.52" height="43.63"/>
					</g>
					<g class="st7">
						<path class="st2" d="M131.79,500.03H98.81v-44.15h33.24v0.26c0,0.43,0,43.47,0,43.63l0,0.26H131.79z M99.33,499.51h32.21
							c-0.01-0.31-0.01-0.81-0.01-1.61l0-41.49h-32.2V499.51z"/>
					</g>
				</g>
			</g>
			<g class="st5">
				<g>
					<defs>
						<rect id="SVGID_5_" x="98.81" y="500.03" width="33.24" height="44.15"/>
					</defs>
					<clipPath id="SVGID_6_">
						<use xlink:href="#SVGID_5_"  style="overflow:visible;"/>
					</clipPath>
					<g class="st8">
						<rect x="99.07" y="510.94" class="st2" width="32.72" height="0.52"/>
					</g>
					<g class="st8">
						<rect x="99.07" y="521.84" class="st2" width="32.72" height="0.52"/>
					</g>
					<g class="st8">
						<rect x="99.07" y="532.75" class="st2" width="32.72" height="0.52"/>
					</g>
					<g class="st8">
						<rect x="120.62" y="500.29" class="st2" width="0.52" height="43.63"/>
					</g>
					<g class="st8">
						<rect x="109.71" y="500.29" class="st2" width="0.52" height="43.63"/>
					</g>
					<g class="st8">
						<path class="st2" d="M131.79,544.18H98.81v-44.15l33.24,0v0.26c0,0.43,0,43.47,0,43.63l0,0.26H131.79z M99.33,543.66h32.21
							c-0.01-0.31-0.01-0.81-0.01-1.61l0-41.49l-32.2,0V543.66z"/>
					</g>
				</g>
			</g>
			<g class="st5">
				<g>
					<defs>
						<rect id="SVGID_7_" x="98.81" y="544.18" width="33.24" height="44.15"/>
					</defs>
					<clipPath id="SVGID_8_">
						<use xlink:href="#SVGID_7_"  style="overflow:visible;"/>
					</clipPath>
					<g class="st9">
						<rect x="99.07" y="555.09" class="st2" width="32.72" height="0.52"/>
					</g>
					<g class="st9">
						<rect x="120.62" y="544.44" class="st2" width="0.52" height="43.63"/>
					</g>
					<g class="st9">
						<rect x="109.71" y="544.44" class="st2" width="0.52" height="43.63"/>
					</g>
					<g class="st9">
						<path class="st2" d="M131.79,588.33H98.81v-44.15h33.24v0.26c0,0.43,0,43.47,0,43.63l0,0.26H131.79z M99.33,587.81h32.21
							c-0.01-0.31-0.01-0.81-0.01-1.61l0-41.49h-32.2V587.81z"/>
					</g>
				</g>
			</g>
			<g class="st5">
				<rect x="65.56" y="455.88" class="st6" width="33.24" height="44.15"/>
				<g>
					<rect x="65.82" y="466.79" class="st2" width="32.72" height="0.52"/>
				</g>
				<g>
					<rect x="65.82" y="477.69" class="st2" width="32.72" height="0.52"/>
				</g>
				<g>
					<rect x="65.82" y="488.6" class="st2" width="32.72" height="0.52"/>
				</g>
				<g>
					<rect x="87.38" y="456.14" class="st2" width="0.52" height="43.63"/>
				</g>
				<g>
					<rect x="76.47" y="456.14" class="st2" width="0.52" height="43.63"/>
				</g>
				<g>
					<path class="st2" d="M98.8,500.03H65.56v-44.15H98.8V500.03z M66.09,499.51h32.2v-43.1h-32.2V499.51z"/>
				</g>
			</g>
			<g class="st5">
				<rect x="65.56" y="500.03" class="st6" width="33.24" height="44.15"/>
				<g>
					<rect x="65.82" y="510.94" class="st2" width="32.72" height="0.52"/>
				</g>
				<g>
					<rect x="65.82" y="521.84" class="st2" width="32.72" height="0.52"/>
				</g>
				<g>
					<rect x="65.82" y="532.75" class="st2" width="32.72" height="0.52"/>
				</g>
				<g>
					<rect x="87.38" y="500.29" class="st2" width="0.52" height="43.63"/>
				</g>
				<g>
					<rect x="76.47" y="500.29" class="st2" width="0.52" height="43.63"/>
				</g>
				<g>
					<path class="st2" d="M98.8,544.18H65.56v-44.15l33.24,0V544.18z M66.09,543.66h32.2v-43.1l-32.2,0V543.66z"/>
				</g>
			</g>
			<g class="st5">
				<rect x="65.56" y="544.18" class="st6" width="33.24" height="44.15"/>
				<g>
					<rect x="65.82" y="555.09" class="st2" width="32.72" height="0.52"/>
				</g>
				<g>
					<rect x="87.38" y="544.44" class="st2" width="0.52" height="43.63"/>
				</g>
				<g>
					<rect x="76.47" y="544.44" class="st2" width="0.52" height="43.63"/>
				</g>
				<g>
					<path class="st2" d="M98.8,588.33H65.56v-44.15H98.8V588.33z M66.09,587.81h32.2v-43.1h-32.2V587.81z"/>
				</g>
			</g>
			<g class="st5">
				<g>
					<defs>
						<rect id="SVGID_9_" x="32.32" y="455.88" width="33.24" height="44.15"/>
					</defs>
					<clipPath id="SVGID_10_">
						<use xlink:href="#SVGID_9_"  style="overflow:visible;"/>
					</clipPath>
					<g class="st10">
						<rect x="32.58" y="466.79" class="st2" width="32.72" height="0.52"/>
					</g>
					<g class="st10">
						<rect x="32.58" y="477.69" class="st2" width="32.72" height="0.52"/>
					</g>
					<g class="st10">
						<rect x="32.58" y="488.6" class="st2" width="32.72" height="0.52"/>
					</g>
					<g class="st10">
						<rect x="54.13" y="456.14" class="st2" width="0.52" height="43.63"/>
					</g>
					<g class="st10">
						<rect x="43.22" y="456.14" class="st2" width="0.52" height="43.63"/>
					</g>
					<g class="st10">
						<path class="st2" d="M65.3,500.03H32.32v-44.15h33.24v0.26c0,0.43,0,43.47,0,43.63l0,0.26H65.3z M32.84,499.51h32.21
							c-0.01-0.31-0.01-0.81-0.01-1.61l0-41.49h-32.2V499.51z"/>
					</g>
				</g>
			</g>
			<g class="st5">
				<g>
					<defs>
						<rect id="SVGID_11_" x="32.32" y="500.03" width="33.24" height="44.15"/>
					</defs>
					<clipPath id="SVGID_12_">
						<use xlink:href="#SVGID_11_"  style="overflow:visible;"/>
					</clipPath>
					<g class="st11">
						<rect x="32.58" y="510.94" class="st2" width="32.72" height="0.52"/>
					</g>
					<g class="st11">
						<rect x="32.58" y="521.84" class="st2" width="32.72" height="0.52"/>
					</g>
					<g class="st11">
						<rect x="32.58" y="532.75" class="st2" width="32.72" height="0.52"/>
					</g>
					<g class="st11">
						<rect x="54.13" y="500.29" class="st2" width="0.52" height="43.63"/>
					</g>
					<g class="st11">
						<rect x="43.22" y="500.29" class="st2" width="0.52" height="43.63"/>
					</g>
					<g class="st11">
						<path class="st2" d="M65.3,544.18H32.32v-44.15l33.24,0v0.26c0,0.43,0,43.47,0,43.63l0,0.26H65.3z M32.84,543.66h32.21
							c-0.01-0.31-0.01-0.81-0.01-1.61l0-41.49l-32.2,0V543.66z"/>
					</g>
				</g>
			</g>
			<g class="st5">
				<g>
					<defs>
						<rect id="SVGID_13_" x="32.32" y="544.18" width="33.24" height="44.15"/>
					</defs>
					<clipPath id="SVGID_14_">
						<use xlink:href="#SVGID_13_"  style="overflow:visible;"/>
					</clipPath>
					<g class="st12">
						<rect x="32.58" y="555.09" class="st2" width="32.72" height="0.52"/>
					</g>
					<g class="st12">
						<rect x="54.13" y="544.44" class="st2" width="0.52" height="43.63"/>
					</g>
					<g class="st12">
						<rect x="43.22" y="544.44" class="st2" width="0.52" height="43.63"/>
					</g>
					<g class="st12">
						<path class="st2" d="M65.3,588.33H32.32v-44.15h33.24v0.26c0,0.43,0,43.47,0,43.63l0,0.26H65.3z M32.84,587.81h32.21
							c-0.01-0.31-0.01-0.81-0.01-1.61l0-41.49h-32.2V587.81z"/>
					</g>
				</g>
			</g>
			<g class="st5">
				<rect x="-0.93" y="455.88" class="st6" width="33.24" height="44.15"/>
				<g>
					<rect x="-0.66" y="466.79" class="st2" width="32.72" height="0.52"/>
				</g>
				<g>
					<rect x="-0.66" y="477.69" class="st2" width="32.72" height="0.52"/>
				</g>
				<g>
					<rect x="-0.66" y="488.6" class="st2" width="32.72" height="0.52"/>
				</g>
				<g>
					<rect x="20.89" y="456.14" class="st2" width="0.52" height="43.63"/>
				</g>
				<g>
					<rect x="9.98" y="456.14" class="st2" width="0.52" height="43.63"/>
				</g>
				<g>
					<path class="st2" d="M32.32,500.03H-0.93v-44.15h33.24V500.03z M-0.4,499.51h32.2v-43.1H-0.4V499.51z"/>
				</g>
			</g>
			<g class="st5">
				<rect x="-0.93" y="500.03" class="st6" width="33.24" height="44.15"/>
				<g>
					<rect x="-0.66" y="510.94" class="st2" width="32.72" height="0.52"/>
				</g>
				<g>
					<rect x="-0.66" y="521.84" class="st2" width="32.72" height="0.52"/>
				</g>
				<g>
					<rect x="-0.66" y="532.75" class="st2" width="32.72" height="0.52"/>
				</g>
				<g>
					<rect x="20.89" y="500.29" class="st2" width="0.52" height="43.63"/>
				</g>
				<g>
					<rect x="9.98" y="500.29" class="st2" width="0.52" height="43.63"/>
				</g>
				<g>
					<path class="st2" d="M32.32,544.18H-0.93v-44.15l33.24,0V544.18z M-0.4,543.66h32.2v-43.1l-32.2,0V543.66z"/>
				</g>
			</g>
			<g class="st5">
				<rect x="-0.93" y="544.18" class="st6" width="33.24" height="44.15"/>
				<g>
					<rect x="-0.66" y="555.09" class="st2" width="32.72" height="0.52"/>
				</g>
				<g>
					<rect x="20.89" y="544.44" class="st2" width="0.52" height="43.63"/>
				</g>
				<g>
					<rect x="9.98" y="544.44" class="st2" width="0.52" height="43.63"/>
				</g>
				<g>
					<path class="st2" d="M32.32,588.33H-0.93v-44.15h33.24V588.33z M-0.4,587.81h32.2v-43.1H-0.4V587.81z"/>
				</g>
			</g>
		</g>
	</g>
	<g>
		<g>
			<defs>
				<rect id="SVGID_15_" x="10.79" y="446.18" width="165" height="50"/>
			</defs>
			<clipPath id="SVGID_16_">
				<use xlink:href="#SVGID_15_"  style="overflow:visible;"/>
			</clipPath>
			<g class="st13">
				<rect x="165.29" y="405.88" class="st6" width="33.24" height="44.15"/>
				<g>
					<rect x="165.55" y="416.79" class="st2" width="32.72" height="0.52"/>
				</g>
				<g>
					<rect x="165.55" y="427.69" class="st2" width="32.72" height="0.52"/>
				</g>
				<g>
					<rect x="165.55" y="438.6" class="st2" width="32.72" height="0.52"/>
				</g>
				<g>
					<rect x="187.11" y="406.14" class="st2" width="0.52" height="43.63"/>
				</g>
				<g>
					<rect x="176.2" y="406.14" class="st2" width="0.52" height="43.63"/>
				</g>
				<g>
					<path class="st2" d="M198.54,450.03h-33.24v-44.15h33.24V450.03z M165.82,449.51h32.2v-43.1h-32.2V449.51z"/>
				</g>
			</g>
			<g class="st13">
				<rect x="165.29" y="450.03" class="st6" width="33.24" height="44.15"/>
				<g>
					<rect x="165.55" y="460.94" class="st2" width="32.72" height="0.52"/>
				</g>
				<g>
					<rect x="165.55" y="471.84" class="st2" width="32.72" height="0.52"/>
				</g>
				<g>
					<rect x="165.55" y="482.75" class="st2" width="32.72" height="0.52"/>
				</g>
				<g>
					<rect x="187.11" y="450.29" class="st2" width="0.52" height="43.63"/>
				</g>
				<g>
					<rect x="176.2" y="450.29" class="st2" width="0.52" height="43.63"/>
				</g>
				<g>
					<path class="st2" d="M198.54,494.18h-33.24v-44.15l33.24,0V494.18z M165.82,493.66h32.2v-43.1l-32.2,0V493.66z"/>
				</g>
			</g>
			<g class="st13">
				<rect x="165.29" y="494.18" class="st6" width="33.24" height="44.15"/>
				<g>
					<rect x="165.55" y="505.09" class="st2" width="32.72" height="0.52"/>
				</g>
				<g>
					<rect x="165.55" y="515.99" class="st2" width="32.72" height="0.52"/>
				</g>
				<g>
					<rect x="165.55" y="526.9" class="st2" width="32.72" height="0.52"/>
				</g>
				<g>
					<rect x="187.11" y="494.44" class="st2" width="0.52" height="43.63"/>
				</g>
				<g>
					<rect x="176.2" y="494.44" class="st2" width="0.52" height="43.63"/>
				</g>
				<g>
					<path class="st2" d="M198.54,538.33h-33.24v-44.15h33.24V538.33z M165.82,537.81h32.2v-43.1h-32.2V537.81z"/>
				</g>
			</g>
			<g class="st13">
				<rect x="132.05" y="405.88" class="st6" width="33.24" height="44.15"/>
				<g>
					<rect x="132.31" y="416.79" class="st2" width="32.72" height="0.52"/>
				</g>
				<g>
					<rect x="132.31" y="427.69" class="st2" width="32.72" height="0.52"/>
				</g>
				<g>
					<rect x="132.31" y="438.6" class="st2" width="32.72" height="0.52"/>
				</g>
				<g>
					<rect x="153.86" y="406.14" class="st2" width="0.52" height="43.63"/>
				</g>
				<g>
					<rect x="142.96" y="406.14" class="st2" width="0.52" height="43.63"/>
				</g>
				<g>
					<path class="st2" d="M165.29,450.03h-33.24v-44.15h33.24V450.03z M132.57,449.51h32.2v-43.1h-32.2V449.51z"/>
				</g>
			</g>
			<g class="st13">
				<rect x="132.05" y="450.03" class="st6" width="33.24" height="44.15"/>
				<g>
					<rect x="132.31" y="460.94" class="st2" width="32.72" height="0.52"/>
				</g>
				<g>
					<rect x="132.31" y="471.84" class="st2" width="32.72" height="0.52"/>
				</g>
				<g>
					<rect x="132.31" y="482.75" class="st2" width="32.72" height="0.52"/>
				</g>
				<g>
					<rect x="153.86" y="450.29" class="st2" width="0.52" height="43.63"/>
				</g>
				<g>
					<rect x="142.96" y="450.29" class="st2" width="0.52" height="43.63"/>
				</g>
				<g>
					<path class="st2" d="M165.29,494.18h-33.24v-44.15l33.24,0V494.18z M132.57,493.66h32.2v-43.1l-32.2,0V493.66z"/>
				</g>
			</g>
			<g class="st13">
				<rect x="132.05" y="494.18" class="st6" width="33.24" height="44.15"/>
				<g>
					<rect x="132.31" y="505.09" class="st2" width="32.72" height="0.52"/>
				</g>
				<g>
					<rect x="132.31" y="515.99" class="st2" width="32.72" height="0.52"/>
				</g>
				<g>
					<rect x="132.31" y="526.9" class="st2" width="32.72" height="0.52"/>
				</g>
				<g>
					<rect x="153.86" y="494.44" class="st2" width="0.52" height="43.63"/>
				</g>
				<g>
					<rect x="142.96" y="494.44" class="st2" width="0.52" height="43.63"/>
				</g>
				<g>
					<path class="st2" d="M165.29,538.33h-33.24v-44.15h33.24V538.33z M132.57,537.81h32.2v-43.1h-32.2V537.81z"/>
				</g>
			</g>
			<g class="st13">
				<g>
					<defs>
						<rect id="SVGID_17_" x="98.81" y="405.88" width="33.24" height="44.15"/>
					</defs>
					<clipPath id="SVGID_18_">
						<use xlink:href="#SVGID_17_"  style="overflow:visible;"/>
					</clipPath>
					<g class="st14">
						<rect x="99.07" y="416.79" class="st2" width="32.72" height="0.52"/>
					</g>
					<g class="st14">
						<rect x="99.07" y="427.69" class="st2" width="32.72" height="0.52"/>
					</g>
					<g class="st14">
						<rect x="99.07" y="438.6" class="st2" width="32.72" height="0.52"/>
					</g>
					<g class="st14">
						<rect x="120.62" y="406.14" class="st2" width="0.52" height="43.63"/>
					</g>
					<g class="st14">
						<rect x="109.71" y="406.14" class="st2" width="0.52" height="43.63"/>
					</g>
					<g class="st14">
						<path class="st2" d="M131.79,450.03H98.81v-44.15h33.24v0.26c0,0.43,0,43.47,0,43.63l0,0.26H131.79z M99.33,449.51h32.21
							c-0.01-0.31-0.01-0.81-0.01-1.61l0-41.49h-32.2V449.51z"/>
					</g>
				</g>
			</g>
			<g class="st13">
				<g>
					<defs>
						<rect id="SVGID_19_" x="98.81" y="450.03" width="33.24" height="44.15"/>
					</defs>
					<clipPath id="SVGID_20_">
						<use xlink:href="#SVGID_19_"  style="overflow:visible;"/>
					</clipPath>
					<g class="st15">
						<rect x="99.07" y="460.94" class="st2" width="32.72" height="0.52"/>
					</g>
					<g class="st15">
						<rect x="99.07" y="471.84" class="st2" width="32.72" height="0.52"/>
					</g>
					<g class="st15">
						<rect x="99.07" y="482.75" class="st2" width="32.72" height="0.52"/>
					</g>
					<g class="st15">
						<rect x="120.62" y="450.29" class="st2" width="0.52" height="43.63"/>
					</g>
					<g class="st15">
						<rect x="109.71" y="450.29" class="st2" width="0.52" height="43.63"/>
					</g>
					<g class="st15">
						<path class="st2" d="M131.79,494.18H98.81v-44.15l33.24,0v0.26c0,0.43,0,43.47,0,43.63l0,0.26H131.79z M99.33,493.66h32.21
							c-0.01-0.31-0.01-0.81-0.01-1.61l0-41.49l-32.2,0V493.66z"/>
					</g>
				</g>
			</g>
			<g class="st13">
				<g>
					<defs>
						<rect id="SVGID_21_" x="98.81" y="494.18" width="33.24" height="44.15"/>
					</defs>
					<clipPath id="SVGID_22_">
						<use xlink:href="#SVGID_21_"  style="overflow:visible;"/>
					</clipPath>
					<g class="st16">
						<rect x="99.07" y="505.09" class="st2" width="32.72" height="0.52"/>
					</g>
					<g class="st16">
						<rect x="99.07" y="515.99" class="st2" width="32.72" height="0.52"/>
					</g>
					<g class="st16">
						<rect x="99.07" y="526.9" class="st2" width="32.72" height="0.52"/>
					</g>
					<g class="st16">
						<rect x="120.62" y="494.44" class="st2" width="0.52" height="43.63"/>
					</g>
					<g class="st16">
						<rect x="109.71" y="494.44" class="st2" width="0.52" height="43.63"/>
					</g>
					<g class="st16">
						<path class="st2" d="M131.79,538.33H98.81v-44.15h33.24v0.26c0,0.43,0,43.47,0,43.63l0,0.26H131.79z M99.33,537.81h32.21
							c-0.01-0.31-0.01-0.81-0.01-1.61l0-41.49h-32.2V537.81z"/>
					</g>
				</g>
			</g>
			<g class="st13">
				<rect x="65.56" y="405.88" class="st6" width="33.24" height="44.15"/>
				<g>
					<rect x="65.82" y="416.79" class="st2" width="32.72" height="0.52"/>
				</g>
				<g>
					<rect x="65.82" y="427.69" class="st2" width="32.72" height="0.52"/>
				</g>
				<g>
					<rect x="65.82" y="438.6" class="st2" width="32.72" height="0.52"/>
				</g>
				<g>
					<rect x="87.38" y="406.14" class="st2" width="0.52" height="43.63"/>
				</g>
				<g>
					<rect x="76.47" y="406.14" class="st2" width="0.52" height="43.63"/>
				</g>
				<g>
					<path class="st2" d="M98.8,450.03H65.56v-44.15H98.8V450.03z M66.09,449.51h32.2v-43.1h-32.2V449.51z"/>
				</g>
			</g>
			<g class="st13">
				<rect x="65.56" y="450.03" class="st6" width="33.24" height="44.15"/>
				<g>
					<rect x="65.82" y="460.94" class="st2" width="32.72" height="0.52"/>
				</g>
				<g>
					<rect x="65.82" y="471.84" class="st2" width="32.72" height="0.52"/>
				</g>
				<g>
					<rect x="65.82" y="482.75" class="st2" width="32.72" height="0.52"/>
				</g>
				<g>
					<rect x="87.38" y="450.29" class="st2" width="0.52" height="43.63"/>
				</g>
				<g>
					<rect x="76.47" y="450.29" class="st2" width="0.52" height="43.63"/>
				</g>
				<g>
					<path class="st2" d="M98.8,494.18H65.56v-44.15l33.24,0V494.18z M66.09,493.66h32.2v-43.1l-32.2,0V493.66z"/>
				</g>
			</g>
			<g class="st13">
				<rect x="65.56" y="494.18" class="st6" width="33.24" height="44.15"/>
				<g>
					<rect x="65.82" y="505.09" class="st2" width="32.72" height="0.52"/>
				</g>
				<g>
					<rect x="65.82" y="515.99" class="st2" width="32.72" height="0.52"/>
				</g>
				<g>
					<rect x="65.82" y="526.9" class="st2" width="32.72" height="0.52"/>
				</g>
				<g>
					<rect x="87.38" y="494.44" class="st2" width="0.52" height="43.63"/>
				</g>
				<g>
					<rect x="76.47" y="494.44" class="st2" width="0.52" height="43.63"/>
				</g>
				<g>
					<path class="st2" d="M98.8,538.33H65.56v-44.15H98.8V538.33z M66.09,537.81h32.2v-43.1h-32.2V537.81z"/>
				</g>
			</g>
			<g class="st13">
				<g>
					<defs>
						<rect id="SVGID_23_" x="32.32" y="405.88" width="33.24" height="44.15"/>
					</defs>
					<clipPath id="SVGID_24_">
						<use xlink:href="#SVGID_23_"  style="overflow:visible;"/>
					</clipPath>
					<g class="st17">
						<rect x="32.58" y="416.79" class="st2" width="32.72" height="0.52"/>
					</g>
					<g class="st17">
						<rect x="32.58" y="427.69" class="st2" width="32.72" height="0.52"/>
					</g>
					<g class="st17">
						<rect x="32.58" y="438.6" class="st2" width="32.72" height="0.52"/>
					</g>
					<g class="st17">
						<rect x="54.13" y="406.14" class="st2" width="0.52" height="43.63"/>
					</g>
					<g class="st17">
						<rect x="43.22" y="406.14" class="st2" width="0.52" height="43.63"/>
					</g>
					<g class="st17">
						<path class="st2" d="M65.3,450.03H32.32v-44.15h33.24v0.26c0,0.43,0,43.47,0,43.63l0,0.26H65.3z M32.84,449.51h32.21
							c-0.01-0.31-0.01-0.81-0.01-1.61l0-41.49h-32.2V449.51z"/>
					</g>
				</g>
			</g>
			<g class="st13">
				<g>
					<defs>
						<rect id="SVGID_25_" x="32.32" y="450.03" width="33.24" height="44.15"/>
					</defs>
					<clipPath id="SVGID_26_">
						<use xlink:href="#SVGID_25_"  style="overflow:visible;"/>
					</clipPath>
					<g class="st18">
						<rect x="32.58" y="460.94" class="st2" width="32.72" height="0.52"/>
					</g>
					<g class="st18">
						<rect x="32.58" y="471.84" class="st2" width="32.72" height="0.52"/>
					</g>
					<g class="st18">
						<rect x="32.58" y="482.75" class="st2" width="32.72" height="0.52"/>
					</g>
					<g class="st18">
						<rect x="54.13" y="450.29" class="st2" width="0.52" height="43.63"/>
					</g>
					<g class="st18">
						<rect x="43.22" y="450.29" class="st2" width="0.52" height="43.63"/>
					</g>
					<g class="st18">
						<path class="st2" d="M65.3,494.18H32.32v-44.15l33.24,0v0.26c0,0.43,0,43.47,0,43.63l0,0.26H65.3z M32.84,493.66h32.21
							c-0.01-0.31-0.01-0.81-0.01-1.61l0-41.49l-32.2,0V493.66z"/>
					</g>
				</g>
			</g>
			<g class="st13">
				<g>
					<defs>
						<rect id="SVGID_27_" x="32.32" y="494.18" width="33.24" height="44.15"/>
					</defs>
					<clipPath id="SVGID_28_">
						<use xlink:href="#SVGID_27_"  style="overflow:visible;"/>
					</clipPath>
					<g class="st19">
						<rect x="32.58" y="505.09" class="st2" width="32.72" height="0.52"/>
					</g>
					<g class="st19">
						<rect x="32.58" y="515.99" class="st2" width="32.72" height="0.52"/>
					</g>
					<g class="st19">
						<rect x="32.58" y="526.9" class="st2" width="32.72" height="0.52"/>
					</g>
					<g class="st19">
						<rect x="54.13" y="494.44" class="st2" width="0.52" height="43.63"/>
					</g>
					<g class="st19">
						<rect x="43.22" y="494.44" class="st2" width="0.52" height="43.63"/>
					</g>
					<g class="st19">
						<path class="st2" d="M65.3,538.33H32.32v-44.15h33.24v0.26c0,0.43,0,43.47,0,43.63l0,0.26H65.3z M32.84,537.81h32.21
							c-0.01-0.31-0.01-0.81-0.01-1.61l0-41.49h-32.2V537.81z"/>
					</g>
				</g>
			</g>
			<g class="st13">
				<rect x="-0.93" y="405.88" class="st6" width="33.24" height="44.15"/>
				<g>
					<rect x="-0.66" y="416.79" class="st2" width="32.72" height="0.52"/>
				</g>
				<g>
					<rect x="-0.66" y="427.69" class="st2" width="32.72" height="0.52"/>
				</g>
				<g>
					<rect x="-0.66" y="438.6" class="st2" width="32.72" height="0.52"/>
				</g>
				<g>
					<rect x="20.89" y="406.14" class="st2" width="0.52" height="43.63"/>
				</g>
				<g>
					<rect x="9.98" y="406.14" class="st2" width="0.52" height="43.63"/>
				</g>
				<g>
					<path class="st2" d="M32.32,450.03H-0.93v-44.15h33.24V450.03z M-0.4,449.51h32.2v-43.1H-0.4V449.51z"/>
				</g>
			</g>
			<g class="st13">
				<rect x="-0.93" y="450.03" class="st6" width="33.24" height="44.15"/>
				<g>
					<rect x="-0.66" y="460.94" class="st2" width="32.72" height="0.52"/>
				</g>
				<g>
					<rect x="-0.66" y="471.84" class="st2" width="32.72" height="0.52"/>
				</g>
				<g>
					<rect x="-0.66" y="482.75" class="st2" width="32.72" height="0.52"/>
				</g>
				<g>
					<rect x="20.89" y="450.29" class="st2" width="0.52" height="43.63"/>
				</g>
				<g>
					<rect x="9.98" y="450.29" class="st2" width="0.52" height="43.63"/>
				</g>
				<g>
					<path class="st2" d="M32.32,494.18H-0.93v-44.15l33.24,0V494.18z M-0.4,493.66h32.2v-43.1l-32.2,0V493.66z"/>
				</g>
			</g>
			<g class="st13">
				<rect x="-0.93" y="494.18" class="st6" width="33.24" height="44.15"/>
				<g>
					<rect x="-0.66" y="505.09" class="st2" width="32.72" height="0.52"/>
				</g>
				<g>
					<rect x="-0.66" y="515.99" class="st2" width="32.72" height="0.52"/>
				</g>
				<g>
					<rect x="-0.66" y="526.9" class="st2" width="32.72" height="0.52"/>
				</g>
				<g>
					<rect x="20.89" y="494.44" class="st2" width="0.52" height="43.63"/>
				</g>
				<g>
					<rect x="9.98" y="494.44" class="st2" width="0.52" height="43.63"/>
				</g>
				<g>
					<path class="st2" d="M32.32,538.33H-0.93v-44.15h33.24V538.33z M-0.4,537.81h32.2v-43.1H-0.4V537.81z"/>
				</g>
			</g>
		</g>
	</g>
	<g>
		<g>
			<defs>
				<rect id="SVGID_29_" x="175.79" y="496.18" width="165" height="50"/>
			</defs>
			<clipPath id="SVGID_30_">
				<use xlink:href="#SVGID_29_"  style="overflow:visible;"/>
			</clipPath>
			<g class="st20">
				<rect x="330.29" y="455.88" class="st6" width="33.24" height="44.15"/>
				<g>
					<rect x="330.55" y="466.79" class="st2" width="32.72" height="0.52"/>
				</g>
				<g>
					<rect x="330.55" y="477.69" class="st2" width="32.72" height="0.52"/>
				</g>
				<g>
					<rect x="330.55" y="488.6" class="st2" width="32.72" height="0.52"/>
				</g>
				<g>
					<rect x="341.2" y="456.14" class="st2" width="0.52" height="43.63"/>
				</g>
				<g>
					<path class="st2" d="M363.54,500.03h-33.24v-44.15h33.24V500.03z M330.82,499.51h32.2v-43.1h-32.2V499.51z"/>
				</g>
			</g>
			<g class="st20">
				<rect x="330.29" y="500.03" class="st6" width="33.24" height="44.15"/>
				<g>
					<rect x="330.55" y="510.94" class="st2" width="32.72" height="0.52"/>
				</g>
				<g>
					<rect x="330.55" y="521.84" class="st2" width="32.72" height="0.52"/>
				</g>
				<g>
					<rect x="330.55" y="532.75" class="st2" width="32.72" height="0.52"/>
				</g>
				<g>
					<rect x="341.2" y="500.29" class="st2" width="0.52" height="43.63"/>
				</g>
				<g>
					<path class="st2" d="M363.54,544.18h-33.24v-44.15l33.24,0V544.18z M330.82,543.66h32.2v-43.1l-32.2,0V543.66z"/>
				</g>
			</g>
			<g class="st20">
				<rect x="330.29" y="544.18" class="st6" width="33.24" height="44.15"/>
				<g>
					<rect x="330.55" y="555.09" class="st2" width="32.72" height="0.52"/>
				</g>
				<g>
					<rect x="341.2" y="544.44" class="st2" width="0.52" height="43.63"/>
				</g>
				<g>
					<path class="st2" d="M363.54,588.33h-33.24v-44.15h33.24V588.33z M330.82,587.81h32.2v-43.1h-32.2V587.81z"/>
				</g>
			</g>
			<g class="st20">
				<rect x="297.05" y="455.88" class="st6" width="33.24" height="44.15"/>
				<g>
					<rect x="297.31" y="466.79" class="st2" width="32.72" height="0.52"/>
				</g>
				<g>
					<rect x="297.31" y="477.69" class="st2" width="32.72" height="0.52"/>
				</g>
				<g>
					<rect x="297.31" y="488.6" class="st2" width="32.72" height="0.52"/>
				</g>
				<g>
					<rect x="318.86" y="456.14" class="st2" width="0.52" height="43.63"/>
				</g>
				<g>
					<rect x="307.96" y="456.14" class="st2" width="0.52" height="43.63"/>
				</g>
				<g>
					<path class="st2" d="M330.29,500.03h-33.24v-44.15h33.24V500.03z M297.57,499.51h32.2v-43.1h-32.2V499.51z"/>
				</g>
			</g>
			<g class="st20">
				<rect x="297.05" y="500.03" class="st6" width="33.24" height="44.15"/>
				<g>
					<rect x="297.31" y="510.94" class="st2" width="32.72" height="0.52"/>
				</g>
				<g>
					<rect x="297.31" y="521.84" class="st2" width="32.72" height="0.52"/>
				</g>
				<g>
					<rect x="297.31" y="532.75" class="st2" width="32.72" height="0.52"/>
				</g>
				<g>
					<rect x="318.86" y="500.29" class="st2" width="0.52" height="43.63"/>
				</g>
				<g>
					<rect x="307.96" y="500.29" class="st2" width="0.52" height="43.63"/>
				</g>
				<g>
					<path class="st2" d="M330.29,544.18h-33.24v-44.15l33.24,0V544.18z M297.57,543.66h32.2v-43.1l-32.2,0V543.66z"/>
				</g>
			</g>
			<g class="st20">
				<rect x="297.05" y="544.18" class="st6" width="33.24" height="44.15"/>
				<g>
					<rect x="297.31" y="555.09" class="st2" width="32.72" height="0.52"/>
				</g>
				<g>
					<rect x="318.86" y="544.44" class="st2" width="0.52" height="43.63"/>
				</g>
				<g>
					<rect x="307.96" y="544.44" class="st2" width="0.52" height="43.63"/>
				</g>
				<g>
					<path class="st2" d="M330.29,588.33h-33.24v-44.15h33.24V588.33z M297.57,587.81h32.2v-43.1h-32.2V587.81z"/>
				</g>
			</g>
			<g class="st20">
				<rect x="263.81" y="455.88" class="st6" width="33.24" height="44.15"/>
				<g>
					<rect x="264.07" y="466.79" class="st2" width="32.72" height="0.52"/>
				</g>
				<g>
					<rect x="264.07" y="477.69" class="st2" width="32.72" height="0.52"/>
				</g>
				<g>
					<rect x="264.07" y="488.6" class="st2" width="32.72" height="0.52"/>
				</g>
				<g>
					<rect x="285.62" y="456.14" class="st2" width="0.52" height="43.63"/>
				</g>
				<g>
					<rect x="274.71" y="456.14" class="st2" width="0.52" height="43.63"/>
				</g>
				<g>
					<path class="st2" d="M297.05,500.03H263.8v-44.15h33.24V500.03z M264.33,499.51h32.2v-43.1h-32.2V499.51z"/>
				</g>
			</g>
			<g class="st20">
				<rect x="263.81" y="500.03" class="st6" width="33.24" height="44.15"/>
				<g>
					<rect x="264.07" y="510.94" class="st2" width="32.72" height="0.52"/>
				</g>
				<g>
					<rect x="264.07" y="521.84" class="st2" width="32.72" height="0.52"/>
				</g>
				<g>
					<rect x="264.07" y="532.75" class="st2" width="32.72" height="0.52"/>
				</g>
				<g>
					<rect x="285.62" y="500.29" class="st2" width="0.52" height="43.63"/>
				</g>
				<g>
					<rect x="274.71" y="500.29" class="st2" width="0.52" height="43.63"/>
				</g>
				<g>
					<path class="st2" d="M297.05,544.18H263.8v-44.15l33.24,0V544.18z M264.33,543.66h32.2v-43.1l-32.2,0V543.66z"/>
				</g>
			</g>
			<g class="st20">
				<rect x="263.81" y="544.18" class="st6" width="33.24" height="44.15"/>
				<g>
					<rect x="264.07" y="555.09" class="st2" width="32.72" height="0.52"/>
				</g>
				<g>
					<rect x="285.62" y="544.44" class="st2" width="0.52" height="43.63"/>
				</g>
				<g>
					<rect x="274.71" y="544.44" class="st2" width="0.52" height="43.63"/>
				</g>
				<g>
					<path class="st2" d="M297.05,588.33H263.8v-44.15h33.24V588.33z M264.33,587.81h32.2v-43.1h-32.2V587.81z"/>
				</g>
			</g>
			<g class="st20">
				<rect x="230.56" y="455.88" class="st6" width="33.24" height="44.15"/>
				<g>
					<rect x="230.82" y="466.79" class="st2" width="32.72" height="0.52"/>
				</g>
				<g>
					<rect x="230.82" y="477.69" class="st2" width="32.72" height="0.52"/>
				</g>
				<g>
					<rect x="230.82" y="488.6" class="st2" width="32.72" height="0.52"/>
				</g>
				<g>
					<rect x="252.38" y="456.14" class="st2" width="0.52" height="43.63"/>
				</g>
				<g>
					<rect x="241.47" y="456.14" class="st2" width="0.52" height="43.63"/>
				</g>
				<g>
					<path class="st2" d="M263.8,500.03h-33.24v-44.15h33.24V500.03z M231.09,499.51h32.2v-43.1h-32.2V499.51z"/>
				</g>
			</g>
			<g class="st20">
				<rect x="230.56" y="500.03" class="st6" width="33.24" height="44.15"/>
				<g>
					<rect x="230.82" y="510.94" class="st2" width="32.72" height="0.52"/>
				</g>
				<g>
					<rect x="230.82" y="521.84" class="st2" width="32.72" height="0.52"/>
				</g>
				<g>
					<rect x="230.82" y="532.75" class="st2" width="32.72" height="0.52"/>
				</g>
				<g>
					<rect x="252.38" y="500.29" class="st2" width="0.52" height="43.63"/>
				</g>
				<g>
					<rect x="241.47" y="500.29" class="st2" width="0.52" height="43.63"/>
				</g>
				<g>
					<path class="st2" d="M263.8,544.18h-33.24v-44.15l33.24,0V544.18z M231.09,543.66h32.2v-43.1l-32.2,0V543.66z"/>
				</g>
			</g>
			<g class="st20">
				<rect x="230.56" y="544.18" class="st6" width="33.24" height="44.15"/>
				<g>
					<rect x="230.82" y="555.09" class="st2" width="32.72" height="0.52"/>
				</g>
				<g>
					<rect x="252.38" y="544.44" class="st2" width="0.52" height="43.63"/>
				</g>
				<g>
					<rect x="241.47" y="544.44" class="st2" width="0.52" height="43.63"/>
				</g>
				<g>
					<path class="st2" d="M263.8,588.33h-33.24v-44.15h33.24V588.33z M231.09,587.81h32.2v-43.1h-32.2V587.81z"/>
				</g>
			</g>
			<g class="st20">
				<rect x="197.32" y="455.88" class="st6" width="33.24" height="44.15"/>
				<g>
					<rect x="197.58" y="466.79" class="st2" width="32.72" height="0.52"/>
				</g>
				<g>
					<rect x="197.58" y="477.69" class="st2" width="32.72" height="0.52"/>
				</g>
				<g>
					<rect x="197.58" y="488.6" class="st2" width="32.72" height="0.52"/>
				</g>
				<g>
					<rect x="219.13" y="456.14" class="st2" width="0.52" height="43.63"/>
				</g>
				<g>
					<rect x="208.22" y="456.14" class="st2" width="0.52" height="43.63"/>
				</g>
				<g>
					<path class="st2" d="M230.56,500.03h-33.24v-44.15h33.24V500.03z M197.84,499.51h32.2v-43.1h-32.2V499.51z"/>
				</g>
			</g>
			<g class="st20">
				<rect x="197.32" y="500.03" class="st6" width="33.24" height="44.15"/>
				<g>
					<rect x="197.58" y="510.94" class="st2" width="32.72" height="0.52"/>
				</g>
				<g>
					<rect x="197.58" y="521.84" class="st2" width="32.72" height="0.52"/>
				</g>
				<g>
					<rect x="197.58" y="532.75" class="st2" width="32.72" height="0.52"/>
				</g>
				<g>
					<rect x="219.13" y="500.29" class="st2" width="0.52" height="43.63"/>
				</g>
				<g>
					<rect x="208.22" y="500.29" class="st2" width="0.52" height="43.63"/>
				</g>
				<g>
					<path class="st2" d="M230.56,544.18h-33.24v-44.15l33.24,0V544.18z M197.84,543.66h32.2v-43.1l-32.2,0V543.66z"/>
				</g>
			</g>
			<g class="st20">
				<rect x="197.32" y="544.18" class="st6" width="33.24" height="44.15"/>
				<g>
					<rect x="197.58" y="555.09" class="st2" width="32.72" height="0.52"/>
				</g>
				<g>
					<rect x="219.13" y="544.44" class="st2" width="0.52" height="43.63"/>
				</g>
				<g>
					<rect x="208.22" y="544.44" class="st2" width="0.52" height="43.63"/>
				</g>
				<g>
					<path class="st2" d="M230.56,588.33h-33.24v-44.15h33.24V588.33z M197.84,587.81h32.2v-43.1h-32.2V587.81z"/>
				</g>
			</g>
			<g class="st20">
				<rect x="164.07" y="455.88" class="st6" width="33.24" height="44.15"/>
				<g>
					<rect x="164.34" y="466.79" class="st2" width="32.72" height="0.52"/>
				</g>
				<g>
					<rect x="164.34" y="477.69" class="st2" width="32.72" height="0.52"/>
				</g>
				<g>
					<rect x="164.34" y="488.6" class="st2" width="32.72" height="0.52"/>
				</g>
				<g>
					<rect x="185.89" y="456.14" class="st2" width="0.52" height="43.63"/>
				</g>
				<g>
					<rect x="174.98" y="456.14" class="st2" width="0.52" height="43.63"/>
				</g>
				<g>
					<path class="st2" d="M197.32,500.03h-33.24v-44.15h32.98c0.26,0,0.26,0,0.26,2.14l0,4.94L197.32,500.03z M164.6,499.51h32.2
						c0-3.46,0-39.67,0-43.1h-32.2V499.51z"/>
				</g>
			</g>
			<g class="st20">
				<rect x="164.07" y="500.03" class="st6" width="33.24" height="44.15"/>
				<g>
					<rect x="164.34" y="510.94" class="st2" width="32.72" height="0.52"/>
				</g>
				<g>
					<rect x="164.34" y="521.84" class="st2" width="32.72" height="0.52"/>
				</g>
				<g>
					<rect x="164.34" y="532.75" class="st2" width="32.72" height="0.52"/>
				</g>
				<g>
					<rect x="185.89" y="500.29" class="st2" width="0.52" height="43.63"/>
				</g>
				<g>
					<rect x="174.98" y="500.29" class="st2" width="0.52" height="43.63"/>
				</g>
				<g>
					<path class="st2" d="M197.32,544.18h-33.24v-44.15l32.98,0c0.26,0,0.26,0,0.26,2.14l0,4.94L197.32,544.18z M164.6,543.66h32.2
						c0-3.46,0-39.67,0-43.1l-32.2,0V543.66z"/>
				</g>
			</g>
			<g class="st20">
				<rect x="164.07" y="544.18" class="st6" width="33.24" height="44.15"/>
				<g>
					<rect x="164.34" y="555.09" class="st2" width="32.72" height="0.52"/>
				</g>
				<g>
					<rect x="185.89" y="544.44" class="st2" width="0.52" height="43.63"/>
				</g>
				<g>
					<rect x="174.98" y="544.44" class="st2" width="0.52" height="43.63"/>
				</g>
				<g>
					<path class="st2" d="M197.32,588.33h-33.24v-44.15h32.98c0.26,0,0.26,0,0.26,2.14l0,4.94L197.32,588.33z M164.6,587.81h32.2
						c0-3.46,0-39.67,0-43.1h-32.2V587.81z"/>
				</g>
			</g>
		</g>
	</g>
	<g>
		<g>
			<defs>
				<rect id="SVGID_31_" x="175.79" y="446.18" width="165" height="50"/>
			</defs>
			<clipPath id="SVGID_32_">
				<use xlink:href="#SVGID_31_"  style="overflow:visible;"/>
			</clipPath>
			<g class="st21">
				<rect x="330.29" y="405.88" class="st6" width="33.24" height="44.15"/>
				<g>
					<rect x="330.55" y="416.79" class="st2" width="32.72" height="0.52"/>
				</g>
				<g>
					<rect x="330.55" y="427.69" class="st2" width="32.72" height="0.52"/>
				</g>
				<g>
					<rect x="330.55" y="438.6" class="st2" width="32.72" height="0.52"/>
				</g>
				<g>
					<rect x="341.2" y="406.14" class="st2" width="0.52" height="43.63"/>
				</g>
				<g>
					<path class="st2" d="M363.54,450.03h-33.24v-44.15h33.24V450.03z M330.82,449.51h32.2v-43.1h-32.2V449.51z"/>
				</g>
			</g>
			<g class="st21">
				<rect x="330.29" y="450.03" class="st6" width="33.24" height="44.15"/>
				<g>
					<rect x="330.55" y="460.94" class="st2" width="32.72" height="0.52"/>
				</g>
				<g>
					<rect x="330.55" y="471.84" class="st2" width="32.72" height="0.52"/>
				</g>
				<g>
					<rect x="330.55" y="482.75" class="st2" width="32.72" height="0.52"/>
				</g>
				<g>
					<rect x="341.2" y="450.29" class="st2" width="0.52" height="43.63"/>
				</g>
				<g>
					<path class="st2" d="M363.54,494.18h-33.24v-44.15l33.24,0V494.18z M330.82,493.66h32.2v-43.1l-32.2,0V493.66z"/>
				</g>
			</g>
			<g class="st21">
				<rect x="330.29" y="494.18" class="st6" width="33.24" height="44.15"/>
				<g>
					<rect x="330.55" y="505.09" class="st2" width="32.72" height="0.52"/>
				</g>
				<g>
					<rect x="330.55" y="515.99" class="st2" width="32.72" height="0.52"/>
				</g>
				<g>
					<rect x="330.55" y="526.9" class="st2" width="32.72" height="0.52"/>
				</g>
				<g>
					<rect x="341.2" y="494.44" class="st2" width="0.52" height="43.63"/>
				</g>
				<g>
					<path class="st2" d="M363.54,538.33h-33.24v-44.15h33.24V538.33z M330.82,537.81h32.2v-43.1h-32.2V537.81z"/>
				</g>
			</g>
			<g class="st21">
				<rect x="297.05" y="405.88" class="st6" width="33.24" height="44.15"/>
				<g>
					<rect x="297.31" y="416.79" class="st2" width="32.72" height="0.52"/>
				</g>
				<g>
					<rect x="297.31" y="427.69" class="st2" width="32.72" height="0.52"/>
				</g>
				<g>
					<rect x="297.31" y="438.6" class="st2" width="32.72" height="0.52"/>
				</g>
				<g>
					<rect x="318.86" y="406.14" class="st2" width="0.52" height="43.63"/>
				</g>
				<g>
					<rect x="307.96" y="406.14" class="st2" width="0.52" height="43.63"/>
				</g>
				<g>
					<path class="st2" d="M330.29,450.03h-33.24v-44.15h33.24V450.03z M297.57,449.51h32.2v-43.1h-32.2V449.51z"/>
				</g>
			</g>
			<g class="st21">
				<rect x="297.05" y="450.03" class="st6" width="33.24" height="44.15"/>
				<g>
					<rect x="297.31" y="460.94" class="st2" width="32.72" height="0.52"/>
				</g>
				<g>
					<rect x="297.31" y="471.84" class="st2" width="32.72" height="0.52"/>
				</g>
				<g>
					<rect x="297.31" y="482.75" class="st2" width="32.72" height="0.52"/>
				</g>
				<g>
					<rect x="318.86" y="450.29" class="st2" width="0.52" height="43.63"/>
				</g>
				<g>
					<rect x="307.96" y="450.29" class="st2" width="0.52" height="43.63"/>
				</g>
				<g>
					<path class="st2" d="M330.29,494.18h-33.24v-44.15l33.24,0V494.18z M297.57,493.66h32.2v-43.1l-32.2,0V493.66z"/>
				</g>
			</g>
			<g class="st21">
				<rect x="297.05" y="494.18" class="st6" width="33.24" height="44.15"/>
				<g>
					<rect x="297.31" y="505.09" class="st2" width="32.72" height="0.52"/>
				</g>
				<g>
					<rect x="297.31" y="515.99" class="st2" width="32.72" height="0.52"/>
				</g>
				<g>
					<rect x="297.31" y="526.9" class="st2" width="32.72" height="0.52"/>
				</g>
				<g>
					<rect x="318.86" y="494.44" class="st2" width="0.52" height="43.63"/>
				</g>
				<g>
					<rect x="307.96" y="494.44" class="st2" width="0.52" height="43.63"/>
				</g>
				<g>
					<path class="st2" d="M330.29,538.33h-33.24v-44.15h33.24V538.33z M297.57,537.81h32.2v-43.1h-32.2V537.81z"/>
				</g>
			</g>
			<g class="st21">
				<rect x="263.81" y="405.88" class="st6" width="33.24" height="44.15"/>
				<g>
					<rect x="264.07" y="416.79" class="st2" width="32.72" height="0.52"/>
				</g>
				<g>
					<rect x="264.07" y="427.69" class="st2" width="32.72" height="0.52"/>
				</g>
				<g>
					<rect x="264.07" y="438.6" class="st2" width="32.72" height="0.52"/>
				</g>
				<g>
					<rect x="285.62" y="406.14" class="st2" width="0.52" height="43.63"/>
				</g>
				<g>
					<rect x="274.71" y="406.14" class="st2" width="0.52" height="43.63"/>
				</g>
				<g>
					<path class="st2" d="M297.05,450.03H263.8v-44.15h33.24V450.03z M264.33,449.51h32.2v-43.1h-32.2V449.51z"/>
				</g>
			</g>
			<g class="st21">
				<rect x="263.81" y="450.03" class="st6" width="33.24" height="44.15"/>
				<g>
					<rect x="264.07" y="460.94" class="st2" width="32.72" height="0.52"/>
				</g>
				<g>
					<rect x="264.07" y="471.84" class="st2" width="32.72" height="0.52"/>
				</g>
				<g>
					<rect x="264.07" y="482.75" class="st2" width="32.72" height="0.52"/>
				</g>
				<g>
					<rect x="285.62" y="450.29" class="st2" width="0.52" height="43.63"/>
				</g>
				<g>
					<rect x="274.71" y="450.29" class="st2" width="0.52" height="43.63"/>
				</g>
				<g>
					<path class="st2" d="M297.05,494.18H263.8v-44.15l33.24,0V494.18z M264.33,493.66h32.2v-43.1l-32.2,0V493.66z"/>
				</g>
			</g>
			<g class="st21">
				<rect x="263.81" y="494.18" class="st6" width="33.24" height="44.15"/>
				<g>
					<rect x="264.07" y="505.09" class="st2" width="32.72" height="0.52"/>
				</g>
				<g>
					<rect x="264.07" y="515.99" class="st2" width="32.72" height="0.52"/>
				</g>
				<g>
					<rect x="264.07" y="526.9" class="st2" width="32.72" height="0.52"/>
				</g>
				<g>
					<rect x="285.62" y="494.44" class="st2" width="0.52" height="43.63"/>
				</g>
				<g>
					<rect x="274.71" y="494.44" class="st2" width="0.52" height="43.63"/>
				</g>
				<g>
					<path class="st2" d="M297.05,538.33H263.8v-44.15h33.24V538.33z M264.33,537.81h32.2v-43.1h-32.2V537.81z"/>
				</g>
			</g>
			<g class="st21">
				<rect x="230.56" y="405.88" class="st6" width="33.24" height="44.15"/>
				<g>
					<rect x="230.82" y="416.79" class="st2" width="32.72" height="0.52"/>
				</g>
				<g>
					<rect x="230.82" y="427.69" class="st2" width="32.72" height="0.52"/>
				</g>
				<g>
					<rect x="230.82" y="438.6" class="st2" width="32.72" height="0.52"/>
				</g>
				<g>
					<rect x="252.38" y="406.14" class="st2" width="0.52" height="43.63"/>
				</g>
				<g>
					<rect x="241.47" y="406.14" class="st2" width="0.52" height="43.63"/>
				</g>
				<g>
					<path class="st2" d="M263.8,450.03h-33.24v-44.15h33.24V450.03z M231.09,449.51h32.2v-43.1h-32.2V449.51z"/>
				</g>
			</g>
			<g class="st21">
				<rect x="230.56" y="450.03" class="st6" width="33.24" height="44.15"/>
				<g>
					<rect x="230.82" y="460.94" class="st2" width="32.72" height="0.52"/>
				</g>
				<g>
					<rect x="230.82" y="471.84" class="st2" width="32.72" height="0.52"/>
				</g>
				<g>
					<rect x="230.82" y="482.75" class="st2" width="32.72" height="0.52"/>
				</g>
				<g>
					<rect x="252.38" y="450.29" class="st2" width="0.52" height="43.63"/>
				</g>
				<g>
					<rect x="241.47" y="450.29" class="st2" width="0.52" height="43.63"/>
				</g>
				<g>
					<path class="st2" d="M263.8,494.18h-33.24v-44.15l33.24,0V494.18z M231.09,493.66h32.2v-43.1l-32.2,0V493.66z"/>
				</g>
			</g>
			<g class="st21">
				<rect x="230.56" y="494.18" class="st6" width="33.24" height="44.15"/>
				<g>
					<rect x="230.82" y="505.09" class="st2" width="32.72" height="0.52"/>
				</g>
				<g>
					<rect x="230.82" y="515.99" class="st2" width="32.72" height="0.52"/>
				</g>
				<g>
					<rect x="230.82" y="526.9" class="st2" width="32.72" height="0.52"/>
				</g>
				<g>
					<rect x="252.38" y="494.44" class="st2" width="0.52" height="43.63"/>
				</g>
				<g>
					<rect x="241.47" y="494.44" class="st2" width="0.52" height="43.63"/>
				</g>
				<g>
					<path class="st2" d="M263.8,538.33h-33.24v-44.15h33.24V538.33z M231.09,537.81h32.2v-43.1h-32.2V537.81z"/>
				</g>
			</g>
			<g class="st21">
				<rect x="197.32" y="405.88" class="st6" width="33.24" height="44.15"/>
				<g>
					<rect x="197.58" y="416.79" class="st2" width="32.72" height="0.52"/>
				</g>
				<g>
					<rect x="197.58" y="427.69" class="st2" width="32.72" height="0.52"/>
				</g>
				<g>
					<rect x="197.58" y="438.6" class="st2" width="32.72" height="0.52"/>
				</g>
				<g>
					<rect x="219.13" y="406.14" class="st2" width="0.52" height="43.63"/>
				</g>
				<g>
					<rect x="208.22" y="406.14" class="st2" width="0.52" height="43.63"/>
				</g>
				<g>
					<path class="st2" d="M230.56,450.03h-33.24v-44.15h33.24V450.03z M197.84,449.51h32.2v-43.1h-32.2V449.51z"/>
				</g>
			</g>
			<g class="st21">
				<rect x="197.32" y="450.03" class="st6" width="33.24" height="44.15"/>
				<g>
					<rect x="197.58" y="460.94" class="st2" width="32.72" height="0.52"/>
				</g>
				<g>
					<rect x="197.58" y="471.84" class="st2" width="32.72" height="0.52"/>
				</g>
				<g>
					<rect x="197.58" y="482.75" class="st2" width="32.72" height="0.52"/>
				</g>
				<g>
					<rect x="219.13" y="450.29" class="st2" width="0.52" height="43.63"/>
				</g>
				<g>
					<rect x="208.22" y="450.29" class="st2" width="0.52" height="43.63"/>
				</g>
				<g>
					<path class="st2" d="M230.56,494.18h-33.24v-44.15l33.24,0V494.18z M197.84,493.66h32.2v-43.1l-32.2,0V493.66z"/>
				</g>
			</g>
			<g class="st21">
				<rect x="197.32" y="494.18" class="st6" width="33.24" height="44.15"/>
				<g>
					<rect x="197.58" y="505.09" class="st2" width="32.72" height="0.52"/>
				</g>
				<g>
					<rect x="197.58" y="515.99" class="st2" width="32.72" height="0.52"/>
				</g>
				<g>
					<rect x="197.58" y="526.9" class="st2" width="32.72" height="0.52"/>
				</g>
				<g>
					<rect x="219.13" y="494.44" class="st2" width="0.52" height="43.63"/>
				</g>
				<g>
					<rect x="208.22" y="494.44" class="st2" width="0.52" height="43.63"/>
				</g>
				<g>
					<path class="st2" d="M230.56,538.33h-33.24v-44.15h33.24V538.33z M197.84,537.81h32.2v-43.1h-32.2V537.81z"/>
				</g>
			</g>
			<g class="st21">
				<rect x="164.07" y="405.88" class="st6" width="33.24" height="44.15"/>
				<g>
					<rect x="164.34" y="416.79" class="st2" width="32.72" height="0.52"/>
				</g>
				<g>
					<rect x="164.34" y="427.69" class="st2" width="32.72" height="0.52"/>
				</g>
				<g>
					<rect x="164.34" y="438.6" class="st2" width="32.72" height="0.52"/>
				</g>
				<g>
					<rect x="185.89" y="406.14" class="st2" width="0.52" height="43.63"/>
				</g>
				<g>
					<rect x="174.98" y="406.14" class="st2" width="0.52" height="43.63"/>
				</g>
				<g>
					<path class="st2" d="M197.32,450.03h-33.24v-44.15h32.98c0.26,0,0.26,0,0.26,2.14l0,4.94L197.32,450.03z M164.6,449.51h32.2
						c0-3.46,0-39.67,0-43.1h-32.2V449.51z"/>
				</g>
			</g>
			<g class="st21">
				<rect x="164.07" y="450.03" class="st6" width="33.24" height="44.15"/>
				<g>
					<rect x="164.34" y="460.94" class="st2" width="32.72" height="0.52"/>
				</g>
				<g>
					<rect x="164.34" y="471.84" class="st2" width="32.72" height="0.52"/>
				</g>
				<g>
					<rect x="164.34" y="482.75" class="st2" width="32.72" height="0.52"/>
				</g>
				<g>
					<rect x="185.89" y="450.29" class="st2" width="0.52" height="43.63"/>
				</g>
				<g>
					<rect x="174.98" y="450.29" class="st2" width="0.52" height="43.63"/>
				</g>
				<g>
					<path class="st2" d="M197.32,494.18h-33.24v-44.15l32.98,0c0.26,0,0.26,0,0.26,2.14l0,4.94L197.32,494.18z M164.6,493.66h32.2
						c0-3.46,0-39.67,0-43.1l-32.2,0V493.66z"/>
				</g>
			</g>
			<g class="st21">
				<rect x="164.07" y="494.18" class="st6" width="33.24" height="44.15"/>
				<g>
					<rect x="164.34" y="505.09" class="st2" width="32.72" height="0.52"/>
				</g>
				<g>
					<rect x="164.34" y="515.99" class="st2" width="32.72" height="0.52"/>
				</g>
				<g>
					<rect x="164.34" y="526.9" class="st2" width="32.72" height="0.52"/>
				</g>
				<g>
					<rect x="185.89" y="494.44" class="st2" width="0.52" height="43.63"/>
				</g>
				<g>
					<rect x="174.98" y="494.44" class="st2" width="0.52" height="43.63"/>
				</g>
				<g>
					<path class="st2" d="M197.32,538.33h-33.24v-44.15h32.98c0.26,0,0.26,0,0.26,2.14l0,4.94L197.32,538.33z M164.6,537.81h32.2
						c0-3.46,0-39.67,0-43.1h-32.2V537.81z"/>
				</g>
			</g>
		</g>
	</g>
	<g>
		<g>
			<path class="st22" d="M127.27,493.12c-0.69,1.11-1.46,2.12-2.21,2.87c-0.22-0.17-0.66-0.46-0.92-0.62
				c1.29-1.12,2.49-2.91,3.22-4.68l1.02,0.29c-0.18,0.39-0.36,0.8-0.57,1.19h8.63v0.94H127.27z M134.92,498.59
				c-0.06,0.91-0.1,1.65-0.17,2.24h1.68v0.92h-1.79c-0.11,0.7-0.25,1.08-0.41,1.3c-0.27,0.34-0.56,0.46-0.98,0.5
				c-0.41,0.03-1.11,0.01-1.79-0.03c-0.01-0.24-0.13-0.59-0.27-0.83c0.71,0.06,1.36,0.07,1.62,0.06c0.25,0,0.38-0.03,0.52-0.2
				c0.1-0.11,0.2-0.38,0.28-0.81h-8c0.15-0.85,0.35-1.97,0.53-3.17h-1.98v-0.95h2.12c0.14-1.08,0.29-2.16,0.39-3.1h8.38
				c0,0-0.01,0.38-0.01,0.5c-0.03,0.98-0.07,1.83-0.1,2.59h1.96v0.95H134.92z M133.73,500.83c0.06-0.57,0.11-1.32,0.17-2.27h-6.71
				c-0.11,0.81-0.24,1.6-0.35,2.27h4.33c-0.59-0.55-1.61-1.23-2.51-1.7l0.59-0.57c0.95,0.45,2.1,1.18,2.66,1.75l-0.48,0.52H133.73z
				 M127.61,495.46c-0.1,0.71-0.2,1.46-0.31,2.2h4.2c-0.55-0.5-1.58-1.18-2.49-1.57l0.59-0.59c0.91,0.39,1.99,1.04,2.55,1.54
				l-0.6,0.62h2.4c0.03-0.66,0.06-1.37,0.08-2.2H127.61z"/>
			<path class="st22" d="M149.29,502.05c0,0.73-0.21,1.09-0.73,1.26c-0.53,0.18-1.46,0.2-2.96,0.2c-0.07-0.29-0.27-0.78-0.45-1.08
				c1.18,0.04,2.3,0.03,2.62,0.03c0.32-0.01,0.43-0.11,0.43-0.42v-2.8h-6.72c-0.35,1.58-1.05,3.17-2.41,4.36
				c-0.14-0.22-0.56-0.6-0.77-0.76c2.23-1.96,2.45-4.8,2.45-7.03v-4.29h8.53V502.05z M148.21,498.21v-2.35h-6.4
				c0,0.73-0.04,1.53-0.15,2.35H148.21z M141.81,492.53v2.33h6.4v-2.33H141.81z"/>
			<path class="st22" d="M165.05,492.91v2.87h-1.01v-1.97h-9.72v1.97h-0.99v-2.87h2.23c-0.27-0.48-0.69-1.12-1.06-1.58l0.9-0.38
				c0.49,0.53,0.98,1.25,1.23,1.72l-0.52,0.24h2.48v-2.14h1.04v2.14h2.35l-0.39-0.15c0.42-0.5,0.95-1.3,1.25-1.86l1.05,0.36
				c-0.39,0.57-0.87,1.19-1.27,1.65H165.05z M154.28,498.56h9.92v5h-1.02v-0.36h-7.89v0.39h-1.01V498.56z M155.29,499.36v1.12h3.36
				v-1.12H155.29z M158.65,502.38v-1.15h-3.36v1.15H158.65z M162.82,494.83v2.91h-7.26v-2.91H162.82z M161.8,495.62h-5.27v1.33h5.27
				V495.62z M163.18,499.36h-3.53v1.12h3.53V499.36z M163.18,502.38v-1.15h-3.53v1.15H163.18z"/>
			<path class="st22" d="M173.84,500.18h-6.84v-0.94h1.36v-5.69h-1.18v-0.94h1.18v-1.7h0.95v1.7h2.54v-1.7h0.97v1.7h1.02v0.94h-1.02
				v5.69h1.02V500.18z M169.93,500.74c-0.5,1.08-1.3,2.14-2.07,2.83c-0.2-0.17-0.59-0.46-0.84-0.6c0.77-0.63,1.5-1.57,1.92-2.49
				L169.93,500.74z M169.32,493.56v1.23h2.54v-1.23H169.32z M169.32,497h2.54v-1.37h-2.54V497z M169.32,499.24h2.54v-1.4h-2.54
				V499.24z M171.74,500.48c0.56,0.63,1.21,1.5,1.47,2.07l-0.84,0.49c-0.25-0.56-0.88-1.47-1.44-2.13L171.74,500.48z M179.37,502.23
				c0,0.62-0.15,0.92-0.53,1.09c-0.41,0.17-1.05,0.2-2.09,0.2c-0.04-0.29-0.18-0.74-0.32-1.01c0.74,0.01,1.44,0.01,1.64,0
				c0.21,0,0.29-0.07,0.29-0.29v-3.36h-2.96c-0.14,1.67-0.49,3.45-1.33,4.79c-0.17-0.2-0.59-0.52-0.83-0.62
				c1.16-1.85,1.27-4.5,1.27-6.5v-5.06h4.85V502.23z M178.37,497.91v-2.33h-2.86v0.94c0,0.43-0.01,0.91-0.03,1.39H178.37z
				 M175.51,492.42v2.23h2.86v-2.23H175.51z"/>
			<path class="st22" d="M183.83,496.5c-0.17-0.25-0.45-0.56-0.74-0.88c-0.31,0.74-0.69,1.4-1.15,1.9c-0.13-0.15-0.48-0.48-0.69-0.6
				c0.78-0.84,1.3-2.1,1.58-3.46l0.87,0.15c-0.1,0.43-0.21,0.84-0.34,1.23c0.39,0.35,0.8,0.76,1.01,1.06L183.83,496.5z
				 M185.21,498.22h2.49v0.92h-2.49v4.37h-0.98v-4.37h-2.77v-0.92h2.77v-0.98h0.38c-0.17-0.17-0.45-0.39-0.63-0.52
				c0.77-0.77,1.3-1.95,1.57-3.19l0.88,0.15c-0.11,0.45-0.24,0.88-0.38,1.29c0.52,0.53,1.11,1.23,1.4,1.7l-0.64,0.52
				c-0.22-0.39-0.66-0.95-1.09-1.46c-0.27,0.57-0.6,1.09-0.98,1.51h0.48V498.22z M183.65,500.17c-0.31,0.97-0.81,1.96-1.36,2.62
				c-0.18-0.14-0.56-0.36-0.78-0.46c0.56-0.62,1-1.48,1.26-2.34L183.65,500.17z M187.62,493.25h-6.09v-0.94h2.87
				c-0.17-0.39-0.41-0.88-0.62-1.25l0.94-0.29c0.29,0.49,0.63,1.09,0.78,1.5l-0.13,0.04h2.24V493.25z M186.48,499.93
				c0.46,0.73,0.98,1.69,1.21,2.32l-0.83,0.35c-0.21-0.64-0.71-1.65-1.16-2.4L186.48,499.93z M194.06,502.84h-4.78v0.7h-0.95v-7.89
				c-0.18,0.29-0.35,0.57-0.55,0.84c-0.17-0.18-0.56-0.52-0.78-0.66c0.97-1.23,1.78-3.14,2.27-5.01l0.95,0.21
				c-0.21,0.81-0.49,1.62-0.8,2.39h4.57v0.95h-1.93v1.86h1.78v0.9h-1.78v1.91h1.79v0.91h-1.79v1.93h2V502.84z M191.12,494.38h-1.83
				v1.86h1.83V494.38z M191.12,497.14h-1.83v1.91h1.83V497.14z M189.28,501.89h1.83v-1.93h-1.83V501.89z M191.51,493.3
				c-0.15-0.55-0.56-1.39-0.92-2.03l0.9-0.32c0.39,0.62,0.81,1.44,0.97,1.98L191.51,493.3z"/>
			<path class="st22" d="M200.23,494h-4.58v-0.85h4.58V494z M196.15,495.81v-0.83h3.7v0.83H196.15z M199.85,497.63h-3.7v-0.83h3.7
				V497.63z M199.91,502.72h-2.89v0.66h-0.83v-4.71h3.71V502.72z M198.2,493.02c-0.24-0.53-0.77-1.3-1.2-1.89l0.8-0.45
				c0.46,0.56,0.98,1.29,1.25,1.79L198.2,493.02z M197.02,499.54v2.31h2.03v-2.31H197.02z M200.2,501.84c0.49-0.74,0.74-2,0.87-3.07
				l0.84,0.25c-0.14,1.12-0.39,2.52-0.94,3.36L200.2,501.84z M203.72,493.77h-3.07v-0.95h3.07v-2.02h1.02v2.02h3.47v0.95h-3.47v2.12
				h3.22v0.97h-7.07v-0.97h2.83V493.77z M205.15,502.2c0.36,0,0.43-0.24,0.48-1.89c0.21,0.17,0.6,0.32,0.87,0.38
				c-0.1,1.95-0.35,2.42-1.26,2.42h-1.46c-1.04,0-1.29-0.31-1.29-1.3v-3.54h0.97v3.53c0,0.35,0.07,0.41,0.43,0.41H205.15z
				 M205.22,499.29c-0.42-0.55-1.32-1.34-2.09-1.88l0.69-0.56c0.76,0.49,1.68,1.25,2.12,1.81L205.22,499.29z M207.02,498.68
				c0.67,1,1.22,2.33,1.4,3.21l-0.88,0.39c-0.15-0.9-0.7-2.24-1.33-3.24L207.02,498.68z"/>
			<path class="st22" d="M213.96,501.43h2.28v-7.66h-1.82v-0.81c0.91-0.17,1.57-0.41,2.13-0.73h0.98v9.2h2.06v1.06h-5.63V501.43z"/>
			<path class="st22" d="M232.98,494.75c1.01,2.37,2.77,4.58,4.71,5.67c-0.27,0.22-0.63,0.6-0.8,0.88c-2.07-1.3-3.88-3.82-4.93-6.56
				h-0.2v5.17h3.25v1.04h-3.25v2.61h-1.08v-2.61h-3.25v-1.04h3.25v-5.17h-0.22c-1.08,2.73-2.89,5.22-4.9,6.6
				c-0.17-0.25-0.5-0.63-0.74-0.83c1.85-1.13,3.57-3.4,4.59-5.77h-4.23v-1.04h5.5v-2.93h1.08v2.93h5.55v1.04H232.98z"/>
		</g>
		<path class="st22" d="M117.15,496.88c0,1.13-0.91,2.04-2.04,2.04c-1.13,0-2.04-0.91-2.04-2.04c0-1.13,0.91-2.04,2.04-2.04
			C116.24,494.83,117.15,495.75,117.15,496.88z"/>
	</g>
	<g>
		<path class="st4" d="M37.61,14.49h-7.64l-24,63.9h11.3l4.21-12.13h24.63l0.2,0.59l7.97-7.97L37.61,14.49z M24.97,56.19l8.82-25.4
			l8.82,25.4H24.97z"/>
	</g>
	<g>
		
			<rect x="-23.08" y="56.43" transform="matrix(0.7071 -0.7071 0.7071 0.7071 -23.5833 56.935)" class="st1" width="160.03" height="1"/>
	</g>
</g>
</svg>
