<?xml version="1.0" encoding="utf-8"?>
<!-- Generator: Adobe Illustrator 24.1.3, SVG Export Plug-In . SVG Version: 6.00 Build 0)  -->
<svg version="1.1" id="圖層_1" xmlns="http://www.w3.org/2000/svg" xmlns:xlink="http://www.w3.org/1999/xlink" x="0px" y="0px"
	 viewBox="0 0 35 35" style="enable-background:new 0 0 35 35;" xml:space="preserve">
<style type="text/css">
	.st0{fill:#5A5A5A;}
	.st1{fill:#EFECEA;}
</style>
<g>
	<path class="st0" d="M35,17.5C35,27.16,27.16,35,17.5,35C7.83,35,0,27.16,0,17.5C0,7.83,7.83,0,17.5,0C27.16,0,35,7.83,35,17.5"/>
	<path class="st1" d="M19.51,14.1h4.48l-0.59,4.48l-0.01,0.05h-3.85v11.7h-4.73v-11.7h-3.94V14.1h3.94v-3.25h0
		c0,0-0.31-5.95,5.45-6.17l3.85,0.18l0.01,4.2h-3.07h-0.04c-0.83,0.02-1.5,0.74-1.5,1.63c0,0.05,0,0.11,0.01,0.16h-0.01v0.25h-0.01
		V14.1z"/>
</g>
</svg>
