<?xml version="1.0" encoding="utf-8"?>
<!-- Generator: Adobe Illustrator 24.1.3, SVG Export Plug-In . SVG Version: 6.00 Build 0)  -->
<svg version="1.1" id="圖層_1" xmlns="http://www.w3.org/2000/svg" xmlns:xlink="http://www.w3.org/1999/xlink" x="0px" y="0px"
	 viewBox="0 0 25.19 11" style="enable-background:new 0 0 25.19 11;" xml:space="preserve">
<style type="text/css">
	.st0{fill:#FF8728;}
</style>
<g>
	<g>
		<path class="st0" d="M20.5,1h-20C0.22,1,0,0.78,0,0.5S0.22,0,0.5,0h20C20.78,0,21,0.22,21,0.5S20.78,1,20.5,1z"/>
	</g>
	<g>
		<path class="st0" d="M24.69,6h-20c-0.28,0-0.5-0.22-0.5-0.5S4.41,5,4.69,5h20c0.28,0,0.5,0.22,0.5,0.5S24.96,6,24.69,6z"/>
	</g>
	<g>
		<path class="st0" d="M20.5,11h-20C0.22,11,0,10.78,0,10.5S0.22,10,0.5,10h20c0.28,0,0.5,0.22,0.5,0.5S20.78,11,20.5,11z"/>
	</g>
</g>
</svg>
