<?xml version="1.0" encoding="utf-8"?>
<!-- Generator: Adobe Illustrator 24.1.3, SVG Export Plug-In . SVG Version: 6.00 Build 0)  -->
<svg version="1.1" id="圖層_1" xmlns="http://www.w3.org/2000/svg" xmlns:xlink="http://www.w3.org/1999/xlink" x="0px" y="0px"
	 viewBox="0 0 35 35" style="enable-background:new 0 0 35 35;" xml:space="preserve">
<style type="text/css">
	.st0{fill:#5A5A5A;}
	.st1{fill:#EFECEA;}
</style>
<g>
	<g>
		<path class="st0" d="M35,17.5C35,27.16,27.16,35,17.5,35C7.83,35,0,27.16,0,17.5C0,7.83,7.83,0,17.5,0C27.16,0,35,7.83,35,17.5"/>
		<path class="st1" d="M22.81,6.95H12.19c-2.89,0-5.23,2.35-5.23,5.23v10.63c0,2.88,2.35,5.23,5.23,5.23h10.63
			c2.89,0,5.23-2.35,5.23-5.23V12.18C28.05,9.3,25.7,6.95,22.81,6.95 M26.88,22.82c0,2.24-1.82,4.06-4.07,4.06H12.19
			c-2.24,0-4.07-1.82-4.07-4.06V12.18c0-2.24,1.82-4.06,4.07-4.06h10.63c2.24,0,4.07,1.82,4.07,4.06V22.82z"/>
		<path class="st1" d="M17.43,12.75c-2.58,0-4.68,2.1-4.68,4.68c0,2.58,2.1,4.68,4.68,4.68s4.68-2.1,4.68-4.68
			C22.11,14.85,20.01,12.75,17.43,12.75 M17.43,20.94c-1.94,0-3.51-1.58-3.51-3.51c0-1.93,1.58-3.51,3.51-3.51
			c1.93,0,3.51,1.58,3.51,3.51C20.94,19.37,19.36,20.94,17.43,20.94"/>
		<path class="st1" d="M25.27,11.75c0,0.82-0.66,1.48-1.48,1.48c-0.82,0-1.49-0.66-1.49-1.48c0-0.82,0.66-1.48,1.49-1.48
			C24.61,10.26,25.27,10.93,25.27,11.75"/>
	</g>
</g>
</svg>
