<?xml version="1.0" encoding="utf-8"?>
<!-- Generator: Adobe Illustrator 24.1.3, SVG Export Plug-In . SVG Version: 6.00 Build 0)  -->
<svg version="1.1" id="圖層_1" xmlns="http://www.w3.org/2000/svg" xmlns:xlink="http://www.w3.org/1999/xlink" x="0px" y="0px"
	 viewBox="0 0 35 35" style="enable-background:new 0 0 35 35;" xml:space="preserve">
<style type="text/css">
	.st0{fill:#5A5A5A;}
	.st1{fill:#EFECEA;}
</style>
<g>
	<path class="st0" d="M35,17.5C35,27.16,27.16,35,17.5,35S0,27.16,0,17.5C0,7.83,7.84,0,17.5,0S35,7.83,35,17.5"/>
	<path class="st1" d="M29.17,8.24c-0.14-0.03-0.28-0.05-0.43-0.05H6.26c-0.23,0-0.46,0.04-0.67,0.11C4.81,8.58,4.25,9.33,4.25,10.2
		v14.59c0,0.82,0.49,1.53,1.2,1.84c0.13,0.06,0.25,0.1,0.39,0.13l0.57,0.04h22.33c0.21,0,0.41-0.03,0.6-0.09
		c0.82-0.26,1.41-1.02,1.41-1.92V10.2C30.75,9.24,30.07,8.44,29.17,8.24 M26.53,9.19l-8,6.89l-0.86-0.74
		c-0.09-0.08-0.21-0.12-0.32-0.12c-0.12,0-0.23,0.04-0.33,0.12l-0.86,0.74L8.15,9.19H26.53z M5.42,25.35
		C5.31,25.19,5.25,25,5.25,24.79V10.2c0-0.56,0.45-1.01,1.01-1.01h0.36l8.77,7.55L5.42,25.35z M6.41,25.81l0.43-0.37l1.03-0.89
		l8.28-7.13l0.77-0.66l0.42-0.36l0.42,0.36l0.77,0.66l8.37,7.21l1.38,1.18H6.41z M29.75,24.79c0,0.28-0.11,0.52-0.29,0.71
		L19.3,16.75l8.77-7.55h0.67c0.56,0,1.01,0.45,1.01,1.01V24.79z"/>
</g>
</svg>
