<?xml version="1.0" encoding="utf-8"?>
<!-- Generator: Adobe Illustrator 24.1.3, SVG Export Plug-In . SVG Version: 6.00 Build 0)  -->
<svg version="1.1" id="圖層_1" xmlns="http://www.w3.org/2000/svg" xmlns:xlink="http://www.w3.org/1999/xlink" x="0px" y="0px"
	 viewBox="0 0 21 21" style="enable-background:new 0 0 21 21;" xml:space="preserve">
<style type="text/css">
	.st0{fill:#FF8728;}
</style>
<g>
	<g>
		<path class="st0" d="M0.5,21c-0.13,0-0.26-0.05-0.35-0.15c-0.2-0.2-0.2-0.51,0-0.71l20-20c0.2-0.2,0.51-0.2,0.71,0
			c0.2,0.2,0.2,0.51,0,0.71l-20,20C0.76,20.95,0.63,21,0.5,21z"/>
	</g>
	<g>
		<path class="st0" d="M20.5,21c-0.13,0-0.26-0.05-0.35-0.15l-20-20c-0.2-0.2-0.2-0.51,0-0.71c0.2-0.2,0.51-0.2,0.71,0l20,20
			c0.2,0.2,0.2,0.51,0,0.71C20.76,20.95,20.63,21,20.5,21z"/>
	</g>
</g>
</svg>
